<!-- Generator: Adobe Illustrator 21.1.0, SVG Export Plug-In  -->
<svg version="1.1"
	 xmlns="http://www.w3.org/2000/svg" xmlns:xlink="http://www.w3.org/1999/xlink" xmlns:a="http://ns.adobe.com/AdobeSVGViewerExtensions/3.0/"
	 x="0px" y="0px" width="26.9px" height="66.9px" viewBox="0 0 26.9 66.9" style="enable-background:new 0 0 26.9 66.9;"
	 xml:space="preserve">
<style type="text/css">
	.st0{fill:#BE1E2D;}
</style>
<defs>
</defs>
<path class="st0" d="M23.6,49.7c0.3-0.2,0.5-0.4,0.8-0.6c3.5-3.1,2.7-8.6,1-12.4c-1.6-3.7-6.3-4.5-9.8-4c-0.1,0-0.3,0.1-0.4,0.1
	c-1.3-2.5-2.7-5.2-3.8-7.8c0.1-0.1,0.1-0.2,0.2-0.3c1.8-2.5,2.4-5.8,3.2-8.7c1.5-5.4-0.6-12-5.5-15C4.8-1.8,1.8,2.1,0.7,6.2
	c-1.5,5.9,4.7,10.2,6.6,15.2c0.1,0.2,0.1,0.3,0.2,0.5c-0.1,0.2-0.2,0.4-0.3,0.5c-3.6,4.9-6,8.9-7,15.1C-1.2,46,5.7,52.7,13.8,52.9
	c2.9,0.1,5.5-0.5,7.8-1.8c0,0.1,0.1,0.2,0.1,0.2c0.7,1.9,1.3,4.1,1.7,6.1c0.1,0.9,0.2,1.8,0.2,2.7c0.1,1.1,0,2.1-1.8,3.3
	c-0.9,0.2-1.6,0.2-2.3,0.1c1-0.7,1.4-2,1-3.4c-1-2.9-4.6-2.4-6.3-0.6c-2.4,2.5,1,5.6,2.9,6.7c3.3,2,6.9-0.3,8.5-3.2
	c1.8-3.3-0.7-9.2-1.7-12.4C23.8,50.3,23.7,50,23.6,49.7z M22.9,45.4c-0.2,0.4-0.4,0.8-0.7,1.2c-0.6-1.2-1.3-2.5-1.8-3.8
	c-0.9-2.3-1.9-4.2-3.1-6.3c0.6,0,1.2,0,1.8,0.1C22.4,37.1,23.8,42.8,22.9,45.4z M5.7,13.8c-0.4-0.7-0.9-2-1.4-2.6
	C3,9.5,3.3,0.8,7.2,3.8c4.5,3.4,4,10.4,1.8,15.5C8.2,17.3,6.8,15.6,5.7,13.8z M18.1,49.4c-3.6,1.4-8.3-0.1-11.2-2.4
	c-3.3-2.7-2.6-8-1.6-11.4c1-3.3,2.6-5.9,4.5-8.5c1,2.2,2.1,4.4,3.2,6.5c-2.2,1.4-3.4,4-3.9,6.6c-0.6,3.5,2.9,7,6.2,7.3
	c0.9,0.1,1-1.5,0.1-1.6c-2.6-0.5-3.8-4.3-2.6-6.4c0.6-1,1.4-1.7,2.2-2.2c0.5,0.9,1.1,1.8,1.7,2.7c1.2,1.9,1.7,4.3,2.7,6.4
	c0.3,0.7,0.7,1.3,1,2C19.6,48.7,18.8,49.1,18.1,49.4z"/>
</svg>
