<!-- Generator: Adobe Illustrator 21.1.0, SVG Export Plug-In  -->
<svg version="1.1"
	 xmlns="http://www.w3.org/2000/svg" xmlns:xlink="http://www.w3.org/1999/xlink" xmlns:a="http://ns.adobe.com/AdobeSVGViewerExtensions/3.0/"
	 x="0px" y="0px" width="494.5px" height="262.4px" viewBox="0 0 494.5 262.4" style="enable-background:new 0 0 494.5 262.4;"
	 xml:space="preserve">
<style type="text/css">
	.st0{fill:url(#SVGID_1_);}
	.st1{opacity:0.5;fill:url(#SVGID_2_);}
	.st2{fill:#CA9D5E;}
	.st3{opacity:0.6;fill:#CA9D5E;}
	.st4{fill:#957C40;}
	.st5{opacity:0.3;fill:#CA9D5E;}
	.st6{fill:#7C5A31;}
	.st7{opacity:0.7;fill:#CA9D5E;}
	.st8{opacity:0.4;fill:url(#SVGID_3_);}
	.st9{fill:url(#SVGID_4_);}
	.st10{fill:url(#SVGID_5_);}
	.st11{fill:url(#SVGID_6_);}
	.st12{fill:url(#SVGID_7_);}
	.st13{fill:url(#SVGID_8_);}
	.st14{fill:url(#SVGID_9_);}
	.st15{fill:url(#SVGID_10_);}
	.st16{fill:url(#SVGID_11_);}
	.st17{filter:url(#Adobe_OpacityMaskFilter);}
	.st18{filter:url(#Adobe_OpacityMaskFilter_1_);}
	.st19{mask:url(#SVGID_12_);fill:url(#SVGID_13_);}
	.st20{fill:url(#SVGID_14_);}
	.st21{filter:url(#Adobe_OpacityMaskFilter_2_);}
	.st22{filter:url(#Adobe_OpacityMaskFilter_3_);}
	.st23{mask:url(#SVGID_15_);fill:url(#SVGID_16_);}
	.st24{fill:url(#SVGID_17_);}
	.st25{fill:url(#SVGID_18_);}
	.st26{opacity:0.5;fill:url(#SVGID_19_);}
	.st27{fill:url(#SVGID_20_);}
	.st28{opacity:0.5;fill:url(#SVGID_21_);}
	.st29{fill:url(#SVGID_22_);}
	.st30{opacity:0.5;fill:url(#SVGID_23_);}
	.st31{fill:url(#SVGID_24_);}
	.st32{opacity:0.5;fill:url(#SVGID_25_);}
	.st33{fill:url(#SVGID_26_);}
	.st34{fill:url(#SVGID_27_);}
	.st35{fill:url(#SVGID_28_);}
	.st36{fill:url(#SVGID_29_);}
	.st37{fill:url(#SVGID_30_);}
	.st38{fill:url(#SVGID_31_);}
	.st39{fill:url(#SVGID_32_);}
	.st40{fill:url(#SVGID_33_);}
	.st41{fill:url(#SVGID_34_);}
	.st42{fill:url(#SVGID_35_);}
	.st43{fill:url(#SVGID_36_);}
	.st44{fill:url(#SVGID_37_);}
	.st45{fill:url(#SVGID_38_);}
	.st46{fill:url(#SVGID_39_);}
	.st47{fill:url(#SVGID_40_);}
	.st48{fill:url(#SVGID_41_);}
	.st49{fill:url(#SVGID_42_);}
	.st50{fill:url(#SVGID_43_);}
	.st51{fill:url(#SVGID_44_);}
	.st52{fill:url(#SVGID_45_);}
	.st53{fill:#59584E;}
	.st54{fill:#A3A18D;}
	.st55{fill:#878574;}
	.st56{fill:#8F8D7B;}
	.st57{fill:#999784;}
	.st58{fill:#737263;}
	.st59{fill:#69675A;}
	.st60{fill:#4F4E45;}
	.st61{fill:#6D6C5E;}
	.st62{fill:#828070;}
	.st63{fill:#525147;}
	.st64{fill:#545349;}
	.st65{fill:#42423A;}
	.st66{fill:#969482;}
	.st67{fill:#636256;}
	.st68{fill:#6E6D5E;}
	.st69{fill:#4A4940;}
	.st70{fill:#3D3C35;}
	.st71{fill:url(#SVGID_46_);}
	.st72{opacity:0.5;fill:url(#SVGID_47_);}
	.st73{opacity:0.4;fill:url(#SVGID_48_);}
	.st74{fill:url(#SVGID_49_);}
	.st75{fill:url(#SVGID_50_);}
	.st76{fill:url(#SVGID_51_);}
	.st77{fill:url(#SVGID_52_);}
	.st78{fill:url(#SVGID_53_);}
	.st79{fill:url(#SVGID_54_);}
	.st80{fill:url(#SVGID_55_);}
	.st81{fill:url(#SVGID_56_);}
	.st82{filter:url(#Adobe_OpacityMaskFilter_4_);}
	.st83{filter:url(#Adobe_OpacityMaskFilter_5_);}
	.st84{mask:url(#SVGID_57_);fill:url(#SVGID_58_);}
	.st85{fill:url(#SVGID_59_);}
	.st86{filter:url(#Adobe_OpacityMaskFilter_6_);}
	.st87{filter:url(#Adobe_OpacityMaskFilter_7_);}
	.st88{mask:url(#SVGID_60_);fill:url(#SVGID_61_);}
	.st89{fill:url(#SVGID_62_);}
	.st90{fill:url(#SVGID_63_);}
	.st91{opacity:0.5;fill:url(#SVGID_64_);}
	.st92{fill:url(#SVGID_65_);}
	.st93{opacity:0.5;fill:url(#SVGID_66_);}
	.st94{fill:url(#SVGID_67_);}
	.st95{opacity:0.5;fill:url(#SVGID_68_);}
	.st96{fill:url(#SVGID_69_);}
	.st97{opacity:0.5;fill:url(#SVGID_70_);}
	.st98{fill:url(#SVGID_71_);}
	.st99{fill:url(#SVGID_72_);}
	.st100{fill:url(#SVGID_73_);}
	.st101{fill:url(#SVGID_74_);}
	.st102{fill:url(#SVGID_75_);}
	.st103{fill:url(#SVGID_76_);}
	.st104{fill:url(#SVGID_77_);}
	.st105{fill:url(#SVGID_78_);}
	.st106{fill:url(#SVGID_79_);}
	.st107{fill:url(#SVGID_80_);}
	.st108{fill:url(#SVGID_81_);}
	.st109{fill:url(#SVGID_82_);}
	.st110{fill:url(#SVGID_83_);}
	.st111{fill:url(#SVGID_84_);}
	.st112{fill:url(#SVGID_85_);}
	.st113{fill:url(#SVGID_86_);}
	.st114{fill:url(#SVGID_87_);}
	.st115{fill:url(#SVGID_88_);}
	.st116{fill:url(#SVGID_89_);}
	.st117{fill:url(#SVGID_90_);}
</style>
<defs>
</defs>
<g>
	<g>
		
			<linearGradient id="SVGID_1_" gradientUnits="userSpaceOnUse" x1="-69.7043" y1="155.4214" x2="88.3834" y2="21.73" gradientTransform="matrix(-0.9558 0.294 0.294 0.9558 212.2178 -33.7886)">
			<stop  offset="0" style="stop-color:#E22013"/>
			<stop  offset="1" style="stop-color:#EFA200"/>
		</linearGradient>
		<path class="st0" d="M95.8,25.8c8,7,20.2-2,29.3-3.2c0.2,0,0.3-0.3,0.2-0.5c-1.1-1.3-2.3-2.5-3.8-3.4c-4.6-2.7-10-2.8-15.1-3.1
			c-3.3-0.2-7.3-0.3-10.7-1.5c-4.4-3-6.8-8.8-5.3-14.1c0,0.1,0,0.1,0,0.2c0.5,2.2,1.9,4.1,3.6,5.5c3.3,2.7,7.9,3.7,12.1,3.6
			c2.3,0,4.6-0.3,6.7-1.1c2.1-0.7,3.8-1.9,5.6-3.1c3.7-2.4,8.1-4.6,12.6-4.7c5.1-0.1,8.5,3.1,10.2,7.8c0.1,0.3,0.7,0.5,0.8,0
			c0.1-3-0.6-5.7-1.9-8.1c1,0.7,2,1.3,2.9,2c2.3,4.2,3.8,8.7,5.6,13.2c2.2,5.7,4.9,12.1,9.9,15.9c1.4,1,3.9,2.7,5.9,2.4
			c-0.6-0.7-1.2-1.4-1.8-2.1c-1.1-1.8-1.7-4.2-1.8-6.3c0-0.6,0-1.3,0.1-2c4.4,9.1,15.2,13.6,25.6,14.4c1.3,0.2,2.7,0.3,4,0.3
			c7.2,0.2,14.3-1.2,21-3.7c3.3-1.3,6.6-2.8,9.6-4.7c2.5-1.6,5-3.1,7.6-4.5c1.9-1,3.9-2,5.9-2.8c3.9-1.4,7.9-2.3,12.1-2.1
			c0.5,0,0.4-0.6,0-0.7c-2.5-0.7-5.4-1.5-7.6-3.2c0.1,0,0.1,0,0.2,0c2.7,0.1,5.3-0.5,8-0.9c2.4-0.4,4.9-0.4,7.4-0.2
			c3.5,0.3,6.8,1.3,9.9,2.8c-1-2-1.3-4.2-1.3-6.6c0.5,1.1,1.3,2.1,2.4,3c2.4,1.9,5.4,2.9,8.4,3.5c1.9,0.4,3.8,0.6,5.7,0.8
			c6.1,1.7,12.7,1.8,19,2.6c6.8,0.9,13.3,2.6,19.4,5.8c4.7,2.5,9,5.9,12.5,9.9c10.4,11.8,16.8,31.8,14.5,47
			c-2.6,17.5-14,32-29.7,41.3c-39.8,23.5-77.1,1.6-94.9-27.2c-3.1-5-5-10.6-7.8-15.7c-0.3-0.6-0.7-1.2-1.1-1.8
			c-0.2-0.2-0.4-0.3-0.7-0.5c-0.7-1.2-1.6-2.4-2.5-3.5c-1.9-2.2-4.3-3.9-6.9-5.1c1.1,0,2.4,0.3,3.3,0.6c1.6,0.6,3,1.4,4.3,2.4
			c-1.2-1.1-2.6-2.1-4.1-2.9c-5.5-3-12.6-2.4-18.5-1.2c-5.9,1.3-11.5,3.7-17.6,4.1c-5.9,0.3-11.6-0.9-17-3.3c-0.1,0-0.2-0.1-0.3-0.1
			c-1.3-0.7-2.5-1.5-3.6-2.4c-3.5-2.8-6.4-6.2-9-9.8c0,0,0-0.1-0.1-0.1c-0.6-0.9-1.3-1.8-1.9-2.7c-0.1-0.1-0.2-0.3-0.2-0.4
			c-0.5-1.2-1-2.5-1.3-3.8c-0.3-1.6-0.4-3.3-0.8-4.9c-0.4-1.9-1.2-3.3-2.5-4.6c1.1,0.6,2.1,1.3,3,2.2c2.8,2.8,3.5,7.1,6.8,9.5
			c0.2,0.2,0.7,0,0.5-0.3c-0.2-0.4-0.3-0.8-0.5-1.2c-3.3-8.5-6.7-18.9-17-20.6c-3.1-0.5-6.2-0.4-9.3,0.3c-3.2,0.7-6.5,1.7-9.8,1.7
			c-1.1,0-2.3-0.1-3.3-0.4c-0.3-0.1-0.7-0.3-1-0.5C99.3,31.6,96.4,28.8,95.8,25.8z"/>
		
			<linearGradient id="SVGID_2_" gradientUnits="userSpaceOnUse" x1="-82.7173" y1="172.3266" x2="92.4479" y2="1.5529" gradientTransform="matrix(-0.9558 0.294 0.294 0.9558 212.2178 -33.7886)">
			<stop  offset="0" style="stop-color:#E22013"/>
			<stop  offset="1" style="stop-color:#F4D099"/>
		</linearGradient>
		<path class="st1" d="M95.8,25.8c8,7,20.2-2,29.3-3.2c0.2,0,0.3-0.3,0.2-0.5c-1.1-1.3-2.3-2.5-3.8-3.4c-4.6-2.7-10-2.8-15.1-3.1
			c-3.3-0.2-7.3-0.3-10.7-1.5c-3.4-2.3-5.7-6.4-5.7-10.6c1.6,5.5,6.2,10,12.1,10.8c3.9,0.6,7.9-0.1,11.8-0.4c1.5,0.1,3,0.1,4.4,0.3
			c3.2,0.3,6.6,0.9,9.3,2.8c2.5,1.9,3.7,4.7,4.3,7.6c-1.2-0.3-2.4-0.4-3.7-0.5c-2.7-0.1-5.4,0.1-8,0.8c-2.5,0.6-5,1.5-6.4,3.8
			c-0.2,0.3,0.3,0.7,0.6,0.5c0.1-0.1,0.2-0.1,0.3-0.2c10.9-5.3,24,1.1,28.3,12.1c1.2,3.1,1.5,6.3,2,9.6c0.4,2.7,0.9,5.5,2.4,7.8
			c-1.3-0.6-2.5-1.4-3.6-2.3c-0.2-0.2-0.7-0.2-0.6,0.2c0.4,6.6,8,9.8,13.6,11.2c6.5,1.7,14.1,1.5,20.5-1.1c8.6-1.8,18-3.7,26,0.5
			c0.2,0.1,0.7,0.1,0.5-0.3c-0.3-0.9-0.8-1.6-1.3-2.3c4.5,1.8,8.8,4.3,12.3,7.7c2.1,2.1,4,4.4,5.5,7c0.9,1.5,1.6,3,2.2,4.6
			c0.5,1.5,0.9,3,1.6,4.4c0.1,0.2,0.7,0.5,0.8,0.1c0.3-1.9,0.2-3.9-0.5-5.7c3.4,3.7,4.4,9,5.7,13.8c0.7,2.6,1.4,5.2,2.6,7.6
			c0.8,1.6,1.9,3,3.1,4.4c2.7,3.1,5.8,6.1,9.4,8.2c2.9,1.7,6.6,3.1,9.9,1.5c0.2-0.1,0.2-0.4,0-0.5c-1.3-1.5-2.8-3-3.6-4.9
			c-0.1-0.2-0.2-0.5-0.3-0.7c3,3.5,7.6,5.8,11.7,7.5c6.3,2.7,13.1,4,20,3.4c0.4,0,0.2-0.5,0-0.6c-2.1-1.6-4.5-2.7-6.5-4.3
			c-1.1-0.9-2.2-2-2.8-3.4c-0.2-0.5-0.5-1-0.5-1.5c0-1.1,1.2-0.7,1.8-0.4c0.2,0.1,0.3,0,0.4-0.1c5.7,1.5,11.6,2.3,17.5,2.1
			c6.6-0.2,13.3-1.6,19.3-4.3c5.9-2.7,11.7-6.5,15.6-11.8c2-2.6,3.6-5.5,4.8-8.6c1.2-3.2,1.9-6.5,2.3-9.8c0.5-4,0.7-8.2-0.3-12
			c0.1,0,0.1-0.1,0.1-0.2c-0.9-5.4-2.2-10.8-4.7-15.7c-2.1-4-4.9-7.5-8.3-10.4c3,1.2,6.1,2.8,8.3,5.2c0.9,1.4,1.8,2.9,2.7,4.3
			c0.2,0.3,0.8,0.3,0.7-0.2c-0.6-1.7-1.5-3.2-2.7-4.5c-2.4-3.7-5.1-7.1-8.6-9.9c-4.9-3.8-10.9-6.5-16.8-8.3c-6-1.8-12-2.5-18.2-3.1
			c-3.2-0.3-6.4-0.6-9.4-1.6c-3.2-1.1-5.6-3.3-8.1-5.5c-0.2-0.1-0.6-0.3-0.6,0.1c-0.4,3.3,1.5,5.9,3,8.6c-5.8-4.3-12.4-9.5-20-7.8
			c-0.1,0-0.2,0.1-0.2,0.2c-0.2,0-0.5,0-0.7,0c-0.4,0-0.2,0.5,0,0.6c1.4,1.1,3.3,2.1,3.9,3.9c-1.4,0-2.8,0-4.2-0.1
			c-3.3-0.1-6.8-0.1-10,1c-3.4,1.1-6.6,2.7-9.8,4.5c-6.9,4-13.8,8.1-21.6,10.2c-7.3,2.1-15.3,3.1-22.9,2.5c-3.2-0.3-6.3-0.8-9.3-1.9
			c-2.8-1-5.8-2.3-7.5-4.9c-0.1-0.2-0.4-0.2-0.6-0.2c-0.2,0-0.4,0.2-0.2,0.5c1.3,2.2,3.1,4,5,5.6c-7,0.9-13.8-2.5-18.8-7.3
			c-2.8-2.7-5.3-5.8-6.9-9.3c-1.7-3.7-2-7.8-3.8-11.5c-0.1-0.2-0.7-0.5-0.8-0.1c-0.2,2.2-0.2,4.4-1.1,6.4c-0.1-0.6-0.3-1.2-0.4-1.9
			c-1-4-2.4-8.6-5.7-11.1c-4.6-3.5-10.7-0.9-15.3,1.1c-3.4,1.5-6.9,3.1-10.6,3.5c-1.2,0.1-2.5,0.2-3.7,0.1
			c-4.4-0.7-8.9-2.1-11.9-5.2c3.3,2.4,7.6,3.3,11.6,3.3c2.3,0,4.6-0.3,6.7-1.1c2.1-0.7,3.8-1.9,5.6-3.1c3.7-2.4,8.1-4.6,12.6-4.7
			c5.1-0.1,8.5,3.1,10.2,7.8c0.1,0.3,0.7,0.5,0.8,0c0.1-3-0.6-5.7-1.9-8.1c1,0.7,2,1.3,2.9,2c2.3,4.2,3.8,8.7,5.6,13.2
			c2.2,5.7,4.9,12.1,9.9,15.9c1.4,1,3.9,2.7,5.9,2.4c-0.6-0.7-1.2-1.4-1.8-2.1c-1.1-1.8-1.7-4.2-1.8-6.3c0-0.6,0-1.3,0.1-2
			c4.4,9.1,15.2,13.6,25.6,14.4c1.3,0.2,2.7,0.3,4,0.3c7.2,0.2,14.3-1.2,21-3.7c3.3-1.3,6.6-2.8,9.6-4.7c2.5-1.6,5-3.1,7.6-4.5
			c1.9-1,3.9-2,5.9-2.8c3.9-1.4,7.9-2.3,12.1-2.1c0.5,0,0.4-0.6,0-0.7c-2.5-0.7-5.4-1.5-7.6-3.2c0.1,0,0.1,0,0.2,0
			c2.7,0.1,5.3-0.5,8-0.9c2.4-0.4,4.9-0.4,7.4-0.2c3.5,0.3,6.8,1.3,9.9,2.8c-1-2-1.3-4.2-1.3-6.6c0.5,1.1,1.3,2.1,2.4,3
			c2.4,1.9,5.4,2.9,8.4,3.5c1.9,0.4,3.8,0.6,5.7,0.8c6.1,1.7,12.7,1.8,19,2.6c6.8,0.9,13.3,2.6,19.4,5.8c4.7,2.5,9,5.9,12.5,9.9
			c10.4,11.8,16.8,31.8,14.5,47c-2.6,17.5-14,32-29.7,41.3c-39.8,23.5-77.1,1.6-94.9-27.2c-3.1-5-5-10.6-7.8-15.7
			c-0.3-0.6-0.7-1.2-1.1-1.8c-0.2-0.2-0.4-0.3-0.7-0.5c-0.7-1.2-1.6-2.4-2.5-3.5c-1.9-2.2-4.3-3.9-6.9-5.1c1.1,0,2.4,0.3,3.3,0.6
			c1.6,0.6,3,1.4,4.3,2.4c-1.2-1.1-2.6-2.1-4.1-2.9c-5.5-3-12.6-2.4-18.5-1.2c-5.9,1.3-11.5,3.7-17.6,4.1c-5.9,0.3-11.6-0.9-17-3.3
			c-0.1,0-0.2-0.1-0.3-0.1c-1.3-0.7-2.5-1.5-3.6-2.4c-3.5-2.8-6.4-6.2-9-9.8c0,0,0-0.1-0.1-0.1c-0.6-0.9-1.3-1.8-1.9-2.7
			c-0.1-0.1-0.2-0.3-0.2-0.4c-0.5-1.2-1-2.5-1.3-3.8c-0.3-1.6-0.4-3.3-0.8-4.9c-0.4-1.9-1.2-3.3-2.5-4.6c1.1,0.6,2.1,1.3,3,2.2
			c2.8,2.8,3.5,7.1,6.8,9.5c0.2,0.2,0.7,0,0.5-0.3c-0.2-0.4-0.3-0.8-0.5-1.2c-3.3-8.5-6.7-18.9-17-20.6c-3.1-0.5-6.2-0.4-9.3,0.3
			c-3.2,0.7-6.5,1.7-9.8,1.7c-1.1,0-2.3-0.1-3.3-0.4c-0.3-0.1-0.7-0.3-1-0.5C99.3,31.6,96.4,28.8,95.8,25.8z"/>
		<g>
			<path class="st2" d="M270.4,28.5c0,0-8.9,0.3-15.8,6.7c-4.6,4.5-5.8,6-8.4,8.3c-2.6,2.3-6.3,8.5-9.6,12.7c-3.4,4.2-7,6.9-8,15.5
				c-0.3,1.4-1.1,2.4-1.9,3.4c-0.6,0.7-1.1,1.3-1.3,2c-0.5,1.6,0.6,3,2.8,3.5c2.2,0.5,2.6,4.4,2,5.2c-0.6,0.8-2,3.2-0.3,4.6
				c1.7,1.4,0.9,5.8,7.3,13.5c1.7,2.9,0.5,4.2,3,6.2c2.5,2,5.2,5.6,7.4,6.4c2.2,0.7,6.6,4.5,8.2,6.3c1.6,1.8,14.8,8.8,22.3,7.1
				c4.9-0.1,7.5-1.4,10.6-0.5c3.1,0.9,3.4-1.1,4.8,0c1.4,1.1,2.2,1,4.5-1.2c1.3-1,11.7-1.9,23.3-13.2c11.1-11,12-13.8,12.2-15.9
				c0.1-0.8,0.6-1.4,1.1-1.8c0.8-0.8,1.5-1.4,0.3-3.1c2-4,5.3-21-0.3-30.5c1.2-2.8-0.1-6.9-3.1-4.7c-0.1-3.7-1.2-9.9-12.2-18.9
				c-2.9-2.8-4-4.2-4.4-4.7c-0.3-0.5-1.6,0.5-2.7-1.1c-1-1.6-5.7-6.6-9-6.2c-3.4,0.4-5.5-0.8-5.9-2.4c-0.5-1.6-1.2-1-2.1,0.1
				c-0.9,1.1-10.7-1.9-19.1,1c-1.7-0.1-3.7-2.4-4.3-1.6C271.1,25.4,271.9,27.9,270.4,28.5z"/>
			<path class="st2" d="M266.6,42.9c2.2-1.6,5.4-2.3,8-2.8c0.3,0,0.3-0.2,0.2-0.4c1-0.3,2-0.6,3-0.6c1.1,0,2.4,0.5,2.1,1.8
				c-0.2,0.8-0.7,1.4-1.3,1.9c-2,1.6-4.4,2.2-6.9,2.5c-1.4,0.2-3.1,0.4-4.5,0C266.2,45,265.4,43.8,266.6,42.9z"/>
			<path class="st2" d="M252.4,93.2c1.6,1.5,2.9,3,2.4,5.4c-0.2,1.2-0.8,2.5-1.9,3.1c-1.3,0.7-2.5,0.2-3.5-0.7c1.6,0,3.3-1.4,3-3.1
				c-0.4-2.2-2.3-4-3.8-5.6c-1.4-1.5-3.1-3.3-5.1-4.1c-0.3-0.1-0.6-0.2-0.9-0.2C244.7,86.7,251.5,92.3,252.4,93.2z"/>
			<path class="st2" d="M256.1,65.4c0.1-1.3,0.4-3.1-0.1-4.5c2.4,1.9,2.6,6.5,1.7,9.1c-1.1,3-5.4,6-8.7,5.3c2.4-1.1,4.5-3,5.8-5.3
				C255.7,68.6,256,67.1,256.1,65.4z"/>
			<path class="st2" d="M277.1,87.8c2.2,0.6,4.4,0.1,6.4-0.8c1.7-0.9,3.5-2.5,3.5-4.6c0-0.8-0.2-1.4-0.6-1.9
				c1.2,0.2,2.9,0.6,2.9,1.9c0.1,1.6-1.2,3.6-2.3,4.6c-1,0.9-2.1,1.5-3.3,2c-2.5,1-5.7,1.5-8.3,0.5c-2.5-1-3-3.1-2.4-5.4
				C274,85.8,275.2,87.3,277.1,87.8z"/>
			<path class="st2" d="M285.3,46.7c1.2-0.2,2.4,0.1,3.6,0.5c0.8,0.2,1.6,0.5,2.3,0.9c-0.3,0.1-0.1,0.6,0.3,0.7c0.4,0,1,0.1,1.7,0.2
				c0.6,0.2,1.1,0.5,1.7,0.7c0.1,0,0.1,0,0.2,0c0.3,0.3,0.4,0.8-0.1,1.4c-0.9,1.2-2.5,1.5-3.9,1.6c-2.5,0.2-5.2-0.5-6.7-2.8
				C283.6,48.8,283.7,47,285.3,46.7z"/>
			<path class="st3" d="M229.8,90.2c1.7,1.4,0.9,5.8,7.3,13.5c1.7,2.9,0.5,4.2,3,6.2c2.5,2,5.2,5.6,7.4,6.4c2.2,0.7,6.6,4.5,8.2,6.3
				c1.6,1.8,14.8,8.8,22.3,7.1c4.9-0.1,7.5-1.4,10.6-0.5c3.1,0.9,3.4-1.1,4.8,0c1.4,1.1,2.2,1,4.5-1.2c1.3-1,11.7-1.9,23.3-13.2
				c11.1-11,12-13.8,12.2-15.9c0.1-0.8,0.6-1.4,1.1-1.8c0.8-0.8,1.5-1.4,0.3-3.1c2-4,5.3-21-0.3-30.5c1.2-2.8-0.1-6.9-3.1-4.7
				c-0.1-3.7-1.2-9.9-12.2-18.9c-2.9-2.8-4-4.2-4.4-4.7c-0.3-0.5-1.6,0.5-2.7-1.1c-1-1.6-5.7-6.6-9-6.2c-3.4,0.4-5.5-0.8-5.9-2.4
				c-0.5-1.6-1.2-1-2.1,0.1c-0.9,1.1-10.7-1.9-19.1,1c-1.7-0.1-3.7-2.4-4.3-1.6c-0.6,0.8,0.2,3.2-1.3,3.8c0,0-8.9,0.3-15.8,6.7
				c-4.6,4.5-5.8,6-8.4,8.3c-2.6,2.3-6.3,8.5-9.6,12.7c-3.4,4.2-7,6.9-8,15.5c-0.3,1.4-1.1,2.4-1.9,3.4c-0.6,0.7-1.1,1.3-1.3,2
				c-0.5,1.6,0.6,3,2.8,3.5c2.2,0.5,2.6,4.4,2,5.2C229.5,86.4,228.1,88.8,229.8,90.2z M235.7,87.5c-0.1-3.2-3-5.2-4-8
				c-0.8-2.4,1.1-4.1,1.5-6.4c0.5-2.9,0.2-5.8,1.2-8.6c1.1-3.1,3.3-6.1,5.2-8.7c1.9-2.6,4.1-4.9,6.3-7.3c1.8-1.8,3.4-3.8,5.3-5.4
				c1-0.9,2.1-1.6,3.2-2.2c1.1-0.5,1.8-0.4,2.8,0c0.9,0.4,1.6,0.6,2.7,0.5c1-0.1,1.9-0.5,2.8-0.9c2.1-0.8,3.9-2.3,5.5-3.8
				c3.3-3.1,7.6-9,12.7-7.9c3.2,0.5,6.5-0.2,9.6,0.6c1.1,0.3,2,0.8,3,1.4c1.7,0.9,3.2,1.3,5.1,1.4c2.9,0.1,5,0.8,7.2,2.6
				c2.1,1.7,4,3.9,5.7,5.9c0.7,0.8,1.3,1.8,1.6,2.9c0,0.2,0,0.4-0.1,0.6c-0.3,0.7-0.6,1.3-0.8,2c-0.8,2.4-0.8,4.7,0,7.1
				c1.1,3.3,2.6,6.6,4.6,9.4c0.7,0.9,2,2.8,3.4,2c1.6-0.9,0.3-3.5,1.9-4.3c1.4-0.7,3,1.9,3.5,2.8c1.2,1.9,2,4.1,2.6,6.3
				c0.7,2.7,1,5.8,0,8.5c-0.7,1.9-2.8,1.7-4.4,1.4c-1-0.2-2.3-0.7-3.2-0.1c-1.2,0.7-1.2,3.4-0.3,4.3c1.1,1.1,3.4,1.6,2.6,3.7
				c-0.5,1.2-1.4,2-1.7,3.3c-0.3,1.5,0.3,3.4,0.7,4.9c0.2,0.8,0.4,1.7,0.2,2.5c-0.3,0.9-1.3,1.2-2,1.4c-1,0.3-2,0-3,0.4
				c-1.6,0.7-1.8,3-2,4.5c-0.3,2.4-1.7,4.4-3.1,6.3c-1.1,1.5-2.4,3.4-4.5,3.2c-1.1-0.1-2.2-0.8-3.2-1.2c-1.4-0.6-3-0.6-4.5-0.3
				c-4.4,1.1-5.9,6.2-9.7,8.2c-1.7,0.9-3.7,1.1-5.5,1.5c-2.3,0.5-4.7,1-7.1,1.3c-3.2,0.4-9.6,0.7-10.6-3.5c-0.3-1.4-0.7-3.1-2.3-3.5
				c-1.1-0.2-2.3,0.3-3.4,0.4c-2.5,0.2-4.7-1.5-6.5-3c-1.2-1-2.4-1.9-3.9-2.5c-1.4-0.6-2.9-0.9-4.3-1.6c-2.7-1.4-4.4-4.7-5.8-7.3
				c-0.7-1.4-1.5-2.9-2.3-4.2c-0.8-1.3-1.9-2.4-2.6-3.8C234.9,92.4,235.7,89.8,235.7,87.5z"/>
			<path class="st4" d="M229.8,90.2c1.7,1.4,0.9,5.8,7.3,13.5c1.7,2.9,0.5,4.2,3,6.2c1.9,1.5,3.8,3.9,5.6,5.4c0.6,0.5,1.2,0.8,1.7,1
				c1.1,0.4,2.8,1.5,4.3,2.8c1.6,1.3,3.1,2.6,3.9,3.5c0.1,0.1,0.2,0.2,0.4,0.4c2.8,2.2,14.9,8.3,21.9,6.7c4.9-0.1,7.5-1.4,10.6-0.5
				c3.1,0.9,3.4-1.1,4.8,0c1.4,1.1,2.2,1,4.5-1.2c1.3-1,11.7-1.9,23.3-13.2l0.1-0.1l0,0c4.3-4.3,7-7.3,8.8-9.5l0,0l0,0
				c2.8-3.5,3.2-5,3.3-6.3l0,0l0,0l0,0l0,0l0,0l0,0c0.1-0.5,0.3-0.9,0.5-1.2l0,0l0,0c0.2-0.2,0.3-0.4,0.5-0.5l0,0l0,0l0,0
				c0.2-0.2,0.4-0.4,0.5-0.6c0.5-0.6,0.7-1.3-0.2-2.5l0,0l0,0l0,0c2-4,5.3-21-0.3-30.5c0.8-1.8,0.5-4.2-0.5-5
				c-0.6-0.5-1.5-0.5-2.5,0.3c-0.1-3.7-1.2-9.9-12.2-18.9c-2.9-2.8-4-4.2-4.4-4.7l-0.1-0.1c-0.4-0.3-1.2,0.2-2.1-0.5
				c-0.2-0.1-0.3-0.3-0.5-0.6c-0.5-0.8-2-2.5-3.8-4c-1.7-1.3-3.6-2.4-5.2-2.2c-2.2,0.3-3.9-0.2-4.9-1c-0.5-0.4-0.8-0.9-1-1.5
				c-0.1-0.5-0.3-0.7-0.5-0.9c-0.4-0.4-1,0.2-1.6,1c-0.9,1.1-10.7-1.9-19.1,1c-1.7-0.1-3.7-2.4-4.3-1.6c-0.2,0.3-0.3,0.7-0.3,1.2
				c0,0.8,0,1.7-0.5,2.2l0,0l0,0c-0.1,0.2-0.3,0.3-0.5,0.4l0,0l0,0c0,0-8.9,0.3-15.8,6.7c-4.6,4.5-5.8,6-8.4,8.3l0,0
				c-0.6,0.5-1.2,1.3-1.9,2.1l0,0l0,0c-0.4,0.4-0.7,0.9-1.1,1.4c-2.1,2.8-4.4,6.4-6.6,9.1c-0.6,0.7-1.2,1.4-1.7,2.1
				c-0.6,0.7-1.2,1.3-1.7,2l0,0l0,0c-2.1,2.6-3.9,5.7-4.6,11.3l0,0l0,0.1l0,0c-0.2,1.1-0.7,1.9-1.3,2.7l0,0l0,0
				c-0.2,0.2-0.4,0.5-0.6,0.7l-0.1,0.1l0,0c-0.2,0.2-0.3,0.4-0.5,0.5l0,0l0,0c-0.3,0.4-0.6,0.8-0.8,1.3l0,0c-0.3,1,0,2,0.9,2.6
				c0.5,0.4,1.2,0.7,1.9,0.9c0.3,0.1,0.6,0.2,0.8,0.4c1.4,1.1,1.7,4.1,1.1,4.7C229.5,86.4,228.1,88.8,229.8,90.2z M230,73.9
				c0.1-0.1,0.2-0.3,0.4-0.4l0.1-0.1c1-1.3,0.9-6.4,2.7-8.7c1.9-2.3,6.2-8.8,9.4-12.7c3.2-4,6.3-7.9,8.8-10.1
				c2.5-2.2,10.6-9.9,15.2-10c2.1,0,2.5,0.3,1.9,1c-0.8,0.9-3.2,2.6-6.1,5.2c-0.6,0.5-1.1,1-1.4,1.4c-0.2,0.2-0.3,0.4-0.4,0.6
				c3.3,0.8,7.2-3.7,9-5.7c2.6-3.2,3.9-4.4,6.6-5.4c0,0,14.3-2.7,17.1-0.4c2.8,2.2,5.7,1.9,8.9,1.3c3.1-0.6,12.3,7.1,13.6,9.3
				c1.3,2.2,11.7,11.2,10.8,14.7c-0.9,3.5,6.3,8.8,6.7,18.3c0.4,9.4,2.2,21.6-6.5,32.5c-0.1,0.2-0.3,0.3-0.4,0.5
				c-9.2,11-23.7,19.6-31.5,20.3c-7.8,0.7-13.3,2.3-19.7,0.7c-6.3-1.6-12.5-1.6-19.6-8.4c-7.1-6.8-11-5.3-16-13.9
				c-5-8.6-7.9-15.5-6.6-17.1c1.3-1.6-0.8-7.5-3-8.1C228.2,78.1,229,75.2,230,73.9z"/>
			<path class="st5" d="M271.9,35.9c0,0,9.5-9.5,22.2-1.7c12.7,7.9,14.5,5.6,17,16.5c2.5,10.9,10.1,19.6-5.6,41
				c-15.6,21.4-31.6,28.4-49,19.3c-17.4-9-18.1-15.2-19.1-24.6c-0.9-8-1.8-14.5-0.5-19.4c1.3-4.9,9.1-16.5,14.5-21.9
				c5.4-5.4,4.4,2.4,7.6-0.2C262.3,42.3,265.8,42.2,271.9,35.9z"/>
			<g>
				<path class="st6" d="M312.3,48c0.2-2.3,2.4-0.9,3.4-0.2c0.1,0.1,0.1,0.2-0.1,0.2c-0.5-0.2-1.7-1.1-2.1-0.5
					c-0.3,0.5-0.1,1.4-0.1,1.9c0.2,2.3,0.6,4.4,1.2,6.6c0.6,2,1.7,3.8,2.9,5.4c0.1,0.2,0.3,0.4,0.4,0.6c0.6,0.5,1.2,1,1.8,1.4
					c0.8,0.5,0.9,0,1-0.8c0.2-1.8-0.1-3.8-0.5-5.6c0-0.2,0.3-0.1,0.3,0c0.8,2.1,2,4.1,1.7,6.5c-0.2,1.1-0.9,1.6-2,1.3
					c-0.6-0.1-1.2-0.6-1.7-1c-2.4-1.7-4.1-4.3-5.2-7C312.3,54.1,312,50.9,312.3,48z"/>
				<path class="st6" d="M323.7,89.8c0.8-2.4,2.5-4.5,5.2-4.4c0.1,0,0.3,0.2,0.1,0.3c-2.2,0.4-3.3,3-3.9,4.9c-0.7,2.2-1.1,4.7-0.5,7
					c0.7-0.5,1.3-1.2,1.9-1.8c0.1-0.1,0.5,0.1,0.4,0.2c-0.5,0.9-1.4,1.6-2.2,2.1c-0.2,0.1-0.4,0-0.5-0.2
					C322.6,95.3,322.8,92.6,323.7,89.8z"/>
				<path class="st6" d="M273.6,85.5c0.9,2,3.3,3,5.4,3.2c2.1,0.2,4-0.6,5.7-1.8c1.5-1.1,3.1-2.5,3.3-4.4c0.2-2.1-1.4-3.2-3.3-3.8
					c-0.9-0.3-2.1-0.4-3.1-0.2c-2.2,0-4.4,0.9-6.3,2.3C273.9,81.9,272.7,83.6,273.6,85.5z M285.3,80.5c1.5,1.4-0.5,3.7-2,4.9
					c-1,0.7-1.9,1.6-3.1,1.9c-0.6,0.2-1.3,0.3-1.9,0.3c-1.9-0.2-4.5-1.2-4.3-3.5c0.1-1.7,2-2.4,3.4-3c1.5-0.7,3-1.6,4.7-1.5
					C283.3,79.6,284.3,80,285.3,80.5z"/>
				<path class="st6" d="M295.5,120.8c1.9,0.3,3.5-1.1,5.3-1.5c1.6-0.4,3.5-0.7,4.9-1.6c0.3-0.2,1.4-0.7,1.5-1.2
					c0.1-0.6-0.4-1.1-0.8-1.4c-0.1-0.1-0.2-0.1-0.3-0.2c-0.8-0.7-2.1-0.9-3-1.1c-2.5-0.5-4.6-0.1-6.7,1.4c-1.1,0.8-2.5,1.8-2.9,3.2
					C293.1,119.6,294.3,120.7,295.5,120.8z M295.3,118.6c0.5-0.9,1.3-1.6,2.1-2.2c1.3-1,2.6-1.8,4.4-1.8c0.1,0,0.3,0,0.4,0
					c0.9,0.4,1.8,0.6,2.6,0.9c0.3,0.1,0.7,0.2,0.9,0.4c0.2,0.2,0.1,0.5,0.3,0.3c-0.4,0.4-0.3,0.9-0.8,1.3c-1.2,0.9-2.7,1.4-4.1,1.6
					c-1.2,0.2-2.4,0.6-3.7,0.8C296.5,120,294.4,120.1,295.3,118.6z"/>
				<path class="st6" d="M242.7,88.3c1.2-0.1,2.3,1.2,3.1,1.9c2.2,1.8,5.5,4.3,5.9,7.4c0.2,1.8-0.5,3.8-2.7,3.4
					c-1.8-0.3-3.9-2.9-3.8-4.7c0-0.5,0.7-0.1,0.8,0.2c0.5,1.5,1.1,3.1,2.6,3.9c2.2,1.2,2.2-2,1.8-3.1c-0.6-1.9-2.6-3.6-4-4.9
					c-0.7-0.6-1.4-1.2-2.1-1.9c-0.3-0.3-0.7-0.5-1-0.8c-0.7-0.6-1.2,0.2-1.2,0.9c0,0.2-0.3,0-0.3-0.1
					C241.4,89.5,241.6,88.4,242.7,88.3z"/>
				<path class="st6" d="M247.9,72.5c0.1-0.3,0.6,0,0.7,0.1c0.2,0.4,0.3,0.7,0.3,1.1c0.1,0.7,0.9-0.1,1.2-0.3c1-0.8,2-1.7,2.8-2.8
					c0.6-0.8,1-1.7,1.4-2.6c0.1-0.3,0.1-0.7,0.2-1c0.2-1.5,0.5-3,0.5-4.6c0-0.3,0-1.8-0.1-1.9c-0.4-0.2-1.2,1.3-1.4,1.5
					c-0.6,1-1.1,2.1-1.6,3.2c-0.1,0.1-0.3,0-0.3-0.1c0.3-1.5,1.1-3.1,1.9-4.5c0.7-1.2,2.1-1.4,2.7,0.1c0.7,1.8,0.3,4.2,0,6
					c-0.1,0.7-0.4,1.4-0.7,2.2c0,0,0,0,0,0c-0.4,1.7-1.5,3.1-2.8,4.2c-1.1,0.9-2.3,1.9-3.8,1.6C247.9,74.7,247.5,73.3,247.9,72.5z"
					/>
				<path class="st6" d="M287.6,49.4c0-0.3,0-0.5,0.3-0.8c0.9-1,2.8-0.7,4-0.5c1.1,0.2,2.5,0.6,2.8,1.8c0.3,1-1,1.5-1.7,1.7
					c-1,0.3-2.2,0.4-3.2,0.2C288.8,51.6,287.4,50.5,287.6,49.4z"/>
				<path class="st6" d="M321.2,80.9c-0.1-0.4,0-0.8,0.1-1.2c0-0.1,0-0.1,0.1-0.2c0.1-0.2,0.3-0.4,0.4-0.5c0.4-0.3,1-0.1,1.3,0.3
					c0.3,0.5,0.5,0.8,0.3,1.3c0.2,0.6,0.2,1.2-0.4,1.5C322.2,82.4,321.3,81.6,321.2,80.9z"/>
				<path class="st6" d="M318.7,101.5c0.7-0.3,1.3-0.2,1.6,0.2c0.1,0,0.2,0.1,0.3,0.2c0.5,0.9,0.3,2.4,0,3.3c-0.3,1.1-0.9,2.2-2.2,2
					C315.8,106.8,316.9,102.3,318.7,101.5z"/>
				<path class="st6" d="M257.2,103.4c0.5,0.1,0.9,0.3,1.3,0.7c0.4,0.2,0.8,0.4,1.1,0.8c0.3,0.3,0.4,0.8,0.1,1.2
					c-0.3,0.4-0.9,0.4-1.4,0.3c-1-0.2-2-1.1-2.3-2C255.7,103.5,256.6,103.3,257.2,103.4z"/>
				<path class="st6" d="M243.2,73.4c0.2-0.4,0.9-0.1,1.1,0.1c0.6,0.6,1,1.6,0.6,2.4c0,0.3-0.1,0.5-0.2,0.8c-0.1,0.2-0.5,0.1-0.7,0
					C243.1,75.9,242.6,74.5,243.2,73.4z"/>
				<path class="st6" d="M262.6,117.7c0.1-0.1,0.2-0.2,0.3-0.2c0.1-0.1,0.3,0,0.5,0c0,0,0,0,0,0c0,0,0,0,0.1,0
					c0.3,0.1,0.6,0.2,0.8,0.4c0.2,0.1,0.3,0.3,0.3,0.5c0,0.2-0.1,0.3-0.3,0.3c-0.2,0.2-0.5,0.3-0.8,0.2c-0.4-0.1-0.8-0.5-0.9-0.9
					C262.6,117.9,262.6,117.8,262.6,117.7z"/>
				<path class="st6" d="M271,40.3c1.6-0.8,7.5-2.5,8,0.3c0.2,1.1-1,1.9-2.2,2.4c-1.9,1.1-4.4,1.9-6.5,0.7
					C268.4,42.5,269.4,41.1,271,40.3z"/>
			</g>
			<path class="st3" d="M289.5,45.7c0.7,0.6,1.9,0.7,2.7,0.9c1.1,0.3,2.2,0.6,3.2,1c1.9,0.8,3.1,2.3,1.8,4.2c-0.1,0.2-0.5,0-0.4-0.2
				c1-3.9-5.6-3.8-7.5-5.9C289.2,45.7,289.4,45.6,289.5,45.7z"/>
			<path class="st3" d="M322.8,65.4c-0.1-2.2-0.4-4.4-0.3-6.6c0-0.1,0.2,0,0.2,0c0.2,2.2,1.3,4.5,0.7,6.7
				C323.3,65.9,322.8,65.7,322.8,65.4z"/>
			<path class="st3" d="M323.4,89.4c0.9-2.1,2.3-6,5.3-5.1c0.1,0,0.2,0.3,0,0.2c-2.7-0.2-3.5,3.4-4.8,5.1
				C323.8,89.8,323.3,89.6,323.4,89.4z"/>
			<path class="st3" d="M280.3,77.2c2.6-0.7,6.1-0.2,7.9,2c0.2,0.2-0.1,0.3-0.2,0.2c-2.2-1.5-4.8-1.3-7.3-1.5
				C280.3,77.9,279.9,77.3,280.3,77.2z"/>
			<path class="st3" d="M256.1,58.3c0-0.1,0.2-0.1,0.2,0c0.7,1.4,1.6,2.8,1.6,4.4c0,0.2-0.4,0.1-0.5-0.1
				C257.2,61.1,256.7,59.7,256.1,58.3z"/>
			<path class="st3" d="M243.5,87.6c0.9,0.9,2.1,1.4,3.1,2.1c0.9,0.6,1.8,1.3,2.6,2.1c0.3,0.2-0.1,0.4-0.3,0.2c-1-0.7-2-1.5-3-2.3
				c-0.9-0.6-1.9-1.2-2.5-2.1C243.3,87.5,243.5,87.5,243.5,87.6z"/>
			<path class="st3" d="M301,112.3c2.4-0.2,4.5,1.1,6.5,2.1c0.1,0,0.1,0.2,0,0.1c-2.1-0.8-4.1-1.6-6.3-1.9
				C301,112.6,300.8,112.3,301,112.3z"/>
			<path class="st3" d="M262.6,115.6c1.1-0.1,2.4-0.3,3.5,0c1.1,0.3,2.3,1.6,2.2,2.8c0,0.3-0.5,0.1-0.6,0c-0.7-0.7-1-1.8-2-2.1
				c-1-0.3-2-0.2-3-0.6C262.6,115.8,262.4,115.6,262.6,115.6z"/>
			<path class="st3" d="M317.6,101.4c0.5-0.5,1.4-1.1,2.1-1c0.8,0.1,1.3,0.6,1.8,1.2c0.1,0.2-0.1,0.2-0.2,0.1
				c-0.4-0.4-0.9-0.8-1.5-0.8c-0.6,0-1.3,0.6-1.8,0.8C317.9,102,317.4,101.7,317.6,101.4z"/>
			<path class="st7" d="M295.6,38.8c3,2.1,6.9,2.6,9.4,5.4c2.3,2.4,3.2,6.1,3,9.3c-0.1,1.3-2,0.3-2.3-0.3c-1.7-2.6-2.3-5.7-4.1-8.2
				c-1.8-2.4-4.8-3.6-6.7-5.9C294.5,38.6,295.2,38.5,295.6,38.8z"/>
			<path class="st7" d="M318.6,71.2c-0.3-1.4-0.7-2.6-0.3-4c0.2-0.5,1.1,0,1.2,0.4c0.2,1,0.5,1.9,1,2.8c0.3,0.7,0.6,1.4,0.6,2.3
				c0,0.2-0.2,0.4-0.4,0.5C319.4,73.5,318.8,72.2,318.6,71.2z"/>
			<path class="st7" d="M318.2,88.2c-0.2-0.4,0.6-0.2,0.8,0c0.4,0.6,0.4,1.2,0.4,1.9c0,0.7,0,1.7-0.4,2.2c-0.4,0.6-1.4,0.1-1.6-0.5
				C317,90.5,318.7,89.5,318.2,88.2z"/>
			<path class="st7" d="M297.7,109.3c1.6-1.2,4-0.9,5.8-0.5c1,0.2,2,0.4,3,0.4c0.9,0,3.2-0.6,2.9-1.9c-0.1-0.5,0.7-0.2,0.8,0
				c1.4,2.2-1.5,4.1-3.4,4.1c-2.9,0-5.6-1.6-8.5-1.3C298.1,110,297.3,109.6,297.7,109.3z"/>
			<path class="st7" d="M287.1,117.1c0.7-0.8,1.9-1.3,2.8-1.9c1.1-0.7,2.4-1.5,3.2-2.6c0.2-0.3,1,0.1,0.8,0.4
				c-1.3,2.1-3.1,5.4-5.9,5.3C287.5,118.3,286.6,117.6,287.1,117.1z"/>
			<path class="st7" d="M275,119.5c0.6-0.1,1.3-0.2,1.9-0.3c0.4-0.1,1.2,0.6,0.6,0.9c-0.3,0.1-0.6,0.3-0.9,0.3
				c-0.4,0.1-0.8,0.1-1.3,0c-0.3,0-0.5-0.2-0.6-0.4C274.6,119.8,274.7,119.5,275,119.5z"/>
			<path class="st7" d="M256.3,112.5c1,0,1.8,0.5,2.5,1.1c0.1,0.1,0.3,0.3,0.1,0.5c-0.2,0.1-0.4,0-0.6-0.1c-0.5-0.4-1.1-0.6-1.7-0.6
				c-0.2,0-0.5-0.2-0.6-0.4C255.9,112.8,256,112.5,256.3,112.5z"/>
		</g>
		
			<linearGradient id="SVGID_3_" gradientUnits="userSpaceOnUse" x1="-0.8355" y1="94.8543" x2="98.7015" y2="53.3805" gradientTransform="matrix(-0.9558 0.294 0.294 0.9558 212.2178 -33.7886)">
			<stop  offset="0" style="stop-color:#E22013"/>
			<stop  offset="1" style="stop-color:#EFA200"/>
		</linearGradient>
		<path class="st8" d="M162.7,59.7c-3.5-1.2-6.2-3.6-8-7c-0.7-1.3-1.4-2.7-1.9-4.3c-0.1-0.6-0.3-1.2-0.3-1.9
			c-0.2-1.9-0.2-4.1,0.5-5.9c0.9,4.3,4.9,7.9,8.7,9.8c4.1,2.1,9.1,2.6,13.7,1.7c2.6-0.2,5.2-0.7,7.7-1.1c0.4-0.1,0.7-0.1,1.1-0.2
			l-0.1,0c-2.5-0.5-5.4-1.1-7.4-2.7c-0.4-0.6-0.6-1.3-0.8-2c2.3,0.6,4.6,1.1,7,1.2c2.7,0.1,5.4-0.3,8-0.9c5.3-1.1,10.5-2.6,15.8-3.8
			c5.2-1.1,10.5-2.1,15.8-2.3c2.5-0.1,5,0.1,7.4,0.6c1.6,0.3,3,0.9,4.5,1.4c0.3,0.2,0.5,0.4,0.8,0.6c0.5,0.4,1.7,1.1,2.4,1.9
			c-0.1,0-0.1,0-0.2,0c-6-1.2-12.1-1-18,0.4c3.6,0.4,7.3,2.1,10.2,3.9c0.2,0.1,0.3,0.3,0.4,0.4c-2.4-0.7-4.8-1.5-7.3-1.5
			c-2.2,0-4.3,0.3-6.4,0.7c-1.8,0.2-3.6,0.4-5.3,0.8c-3.1,0.7-5.9,1.9-8.8,3.2c1.4,0.2,2.8,0.5,4.2,0.9c2.9,0.9,5.6,2.3,7.9,4.2
			c0.3,0.3,0.7,0.6,1,0.8c1.6,1.7,2.9,3.6,3.9,5.7c-1.5-1.5-3.4-2.5-5.5-3.3c-3.7-2.2-8.1-3.5-12.4-3.7c0.9,0.6,1.6,1.5,2.2,2.5
			c0.1,0.2,0.1,0.4,0,0.5c-4.4-1.6-9.1-1.5-13.7-0.7c-5.4,0.5-10.9,1.9-16.2,2.8c-5,0.9-11.2,1.7-16.2-0.3c-1.3-0.8-2.5-1.9-3.5-3
			c-0.1-0.1-0.1-0.3-0.2-0.4C156.7,59.4,159.7,60,162.7,59.7z"/>
		
			<linearGradient id="SVGID_4_" gradientUnits="userSpaceOnUse" x1="118.1643" y1="47.4365" x2="37.2946" y2="107.0825" gradientTransform="matrix(-0.9558 0.294 0.294 0.9558 212.2178 -33.7886)">
			<stop  offset="0" style="stop-color:#E22013"/>
			<stop  offset="1" style="stop-color:#F4D099"/>
		</linearGradient>
		<path class="st9" d="M150.7,67.9c3.9,1.4,7.9,2.3,12.1,2.4c4.2,0.1,8.3-0.7,12.4-1.7c7.4-1.9,15.2-4.5,22.8-1.9
			c0.3,0.1,0.3,0.4,0,0.4c-8.1-2.3-16.2,1.3-23.9,3.4c-7.7,2.1-16.2,1.6-23.4-2.1C150.3,68.2,150.4,67.8,150.7,67.9z"/>
		
			<linearGradient id="SVGID_5_" gradientUnits="userSpaceOnUse" x1="87.5389" y1="5.9132" x2="6.6693" y2="65.5592" gradientTransform="matrix(-0.9558 0.294 0.294 0.9558 212.2178 -33.7886)">
			<stop  offset="0" style="stop-color:#E22013"/>
			<stop  offset="1" style="stop-color:#F4D099"/>
		</linearGradient>
		<path class="st10" d="M213.1,39.7c7.5-2.6,14.4-6.5,21.7-9.5c7.2-3,14.8-4.3,22.4-1.5c0.2,0.1,0.2,0.3,0,0.2
			c-7.7-2.2-15.3-0.2-22.4,3c-6.9,3.1-13.7,7.2-21.4,8.3C213.2,40.2,212.8,39.8,213.1,39.7z"/>
		
			<linearGradient id="SVGID_6_" gradientUnits="userSpaceOnUse" x1="101.0897" y1="24.2864" x2="20.22" y2="83.9324" gradientTransform="matrix(-0.9558 0.294 0.294 0.9558 212.2178 -33.7886)">
			<stop  offset="0" style="stop-color:#E22013"/>
			<stop  offset="1" style="stop-color:#F4D099"/>
		</linearGradient>
		<path class="st11" d="M144,17.5c0-0.2,0.4,0,0.4,0.1c-0.1,6.3,3.9,12.2,8.1,16.6c4.2,4.4,9.5,7.2,15.6,8.2
			c0.4,0.1,0.8,0.7,0.2,0.7c-6.5,0-12.6-3.3-16.8-8.1C147.2,30.3,143.2,24.1,144,17.5z"/>
		
			<linearGradient id="SVGID_7_" gradientUnits="userSpaceOnUse" x1="106.8062" y1="32.0368" x2="25.9364" y2="91.6829" gradientTransform="matrix(-0.9558 0.294 0.294 0.9558 212.2178 -33.7886)">
			<stop  offset="0" style="stop-color:#E22013"/>
			<stop  offset="1" style="stop-color:#F4D099"/>
		</linearGradient>
		<path class="st12" d="M131.2,27.1c6.3,3,11.7,7.5,13.1,14.6c0.1,0.5-0.7,0.3-0.8,0c-1.2-3-2.7-5.9-4.8-8.3c-2.2-2.5-4.8-4.4-7.6-6
			C130.9,27.2,131,27,131.2,27.1z"/>
		
			<linearGradient id="SVGID_8_" gradientUnits="userSpaceOnUse" x1="98.4655" y1="20.7285" x2="17.5959" y2="80.3745" gradientTransform="matrix(-0.9558 0.294 0.294 0.9558 212.2178 -33.7886)">
			<stop  offset="0" style="stop-color:#E22013"/>
			<stop  offset="1" style="stop-color:#F4D099"/>
		</linearGradient>
		<path class="st13" d="M116.1,12.2c3.1-0.1,6.6-0.1,9.4,1.3c2.7,1.3,4.4,3.3,5.9,5.8c0.1,0.1-0.1,0.1-0.2,0c-1.6-2.2-3.5-4.1-6-5.2
			c-2.8-1.2-5.8-0.8-8.8-1.3C116,12.9,115.5,12.2,116.1,12.2z"/>
		
			<linearGradient id="SVGID_9_" gradientUnits="userSpaceOnUse" x1="83.1683" y1="21.3367" x2="124.6198" y2="21.3367" gradientTransform="matrix(-0.9558 0.294 0.294 0.9558 212.2178 -33.7886)">
			<stop  offset="0" style="stop-color:#E22013"/>
			<stop  offset="1" style="stop-color:#F4D099"/>
		</linearGradient>
		<path class="st14" d="M95.2,8.5c4.1,2.2,8.4,3.3,13,2.8c5.6-0.7,10.9-3.1,16.3-4.3c5-1.2,9.7,1.5,13,5.1c3.3,3.5,4.6,9.1,5.1,13.8
			c0,0.4-0.5,0.2-0.6-0.1c-0.6-2.4-1.5-4.8-2.8-7c-1.3-2.2-3.1-4.1-4.8-5.9c-1.5-1.5-3.4-2.9-5.5-3.3c-2.4-0.5-5.1-0.1-7.5,0.3
			c-5.2,1-10.2,3.1-15.6,3c-4.2,0-7.7-1.7-11-4.1C94.7,8.6,95,8.4,95.2,8.5z"/>
		
			<linearGradient id="SVGID_10_" gradientUnits="userSpaceOnUse" x1="78.9411" y1="57.4932" x2="94.7398" y2="57.4932" gradientTransform="matrix(-0.9558 0.294 0.294 0.9558 212.2178 -33.7886)">
			<stop  offset="0" style="stop-color:#E22013"/>
			<stop  offset="1" style="stop-color:#F4D099"/>
		</linearGradient>
		<path class="st15" d="M132.2,26.9c3.3,1.9,6.7,3.6,9.5,6.4c3.1,3,5,7.2,6.5,11.2c1.6,4.1,1.9,8.6,3.6,12.6c1.6,3.9,4.4,7,8.3,8.8
			c0.3,0.2,0.4,0.8-0.1,0.7c-8.6-1.5-11.4-11.6-13.7-18.7c-1.4-4.4-3.2-8.4-5.5-12.4c-2.1-3.6-5.5-5.9-8.9-8.2
			C131.6,27,131.9,26.7,132.2,26.9z"/>
		
			<linearGradient id="SVGID_11_" gradientUnits="userSpaceOnUse" x1="25.114" y1="105.7989" x2="-37.3402" y2="162.886" gradientTransform="matrix(-0.9558 0.294 0.294 0.9558 212.2178 -33.7886)">
			<stop  offset="0" style="stop-color:#E22013"/>
			<stop  offset="1" style="stop-color:#EFA200"/>
		</linearGradient>
		<path class="st16" d="M251.6,85.6c6.1,6,13.1,11.2,20.7,15c3.5,1.8,7.1,3.3,10.9,4.4c3.9,1.2,8.1,1.7,12.2,2.1
			c0.6,0.1,2,1.3,0.9,1.7c-4,1.3-8.2,0.9-12.2-0.1c-4.3-1-8.5-2.9-12.4-5c-8.1-4.2-14.9-10.7-20.3-18
			C251,85.5,251.4,85.5,251.6,85.6z"/>
		<defs>
			<filter id="Adobe_OpacityMaskFilter" filterUnits="userSpaceOnUse" x="157.4" y="11.4" width="188.2" height="123.7">
				<feFlood  style="flood-color:white;flood-opacity:1" result="back"/>
				<feBlend  in="SourceGraphic" in2="back" mode="normal"/>
			</filter>
		</defs>
		<mask maskUnits="userSpaceOnUse" x="157.4" y="11.4" width="188.2" height="123.7" id="SVGID_12_">
			<g class="st17">
				<defs>
					<filter id="Adobe_OpacityMaskFilter_1_" filterUnits="userSpaceOnUse" x="157.4" y="11.4" width="188.2" height="123.7">
						<feFlood  style="flood-color:white;flood-opacity:1" result="back"/>
						<feBlend  in="SourceGraphic" in2="back" mode="normal"/>
					</filter>
				</defs>
				<mask maskUnits="userSpaceOnUse" x="157.4" y="11.4" width="188.2" height="123.7" id="SVGID_12_">
					<g class="st18">
					</g>
				</mask>
				
					<radialGradient id="SVGID_13_" cx="-87.1708" cy="196.9588" r="151.2928" gradientTransform="matrix(-0.9558 0.294 0.294 0.9558 212.2178 -33.7886)" gradientUnits="userSpaceOnUse">
					<stop  offset="0" style="stop-color:#FFFFFF"/>
					<stop  offset="1" style="stop-color:#000000"/>
				</radialGradient>
				<path class="st19" d="M172.4,68.9c4.1-1.7,8.1-3.4,12.4-4.5c4.8-1.2,9.8-1.6,14.7-1.5c0.4,0,0.4-0.4,0.1-0.6
					c-2.6-1.8-5.9-2.9-9.3-3.4c6.5-0.7,13.3-0.7,19.4,1.6c4.4,1.7,8.1,4.4,11.2,8c3.1,3.6,5.6,7.8,8.8,11.4c0.2,0.2,0.8,0.2,0.6-0.2
					c-1.9-5.2-4.8-9.9-8.2-14.2c4,3.6,7.4,7.8,10.9,11.9c2.8,3.3,5.8,6.4,8.9,9.5c3.2,3.1,6.5,6.2,10.3,8.6c2.9,1.8,6.5,3.6,10,2.8
					c0.2-0.1,0.3-0.3,0.2-0.5c-3.2-4.6-7.3-8.4-11.3-12.4c7.1,5.7,14.5,10.9,23.4,13.6c0.5,0.2,0.6-0.5,0.1-0.6
					c-8.8-3.5-14.7-12.1-20.6-19.1c-3.5-4.2-7.1-8.2-10.8-12.1c4.8,2.5,9.6,5.1,14.3,7.8c5.6,3.2,11.3,6.6,17.5,8.5
					c4,1.2,9.5,2.4,13.5,0.3c4.4-2.3,1.9-7.3-0.5-10.2c-3.7-4.5-8.7-7.3-13.2-10.9c3.4,1.1,6.7,2.8,10,4.2c3.3,1.4,7.1,3,10.8,2.4
					c0.3,0,0.3-0.3,0.2-0.5c-0.5-0.8-1-1.6-1.6-2.4c3.9,1.3,7.8,3.6,12.1,2.9c0.1,0,0.2-0.1,0.3-0.2c0.1-0.4,0.2-0.8,0.2-1.2
					c0.2-4.2-3-8.2-5.7-11.1c-3.2-3.4-6.8-6.4-10.5-9.2c-9.3-6.9-20.1-10.7-31.2-13.3c9.3,0.1,18.6,0.8,27.5,3.5
					c5.1,1.5,9.8,3.8,14.3,6.6c4.3,2.7,8.4,5.6,12.6,8.4c0.2,0.1,0.7,0,0.5-0.3c-4.9-10.6-15.5-17.6-26.6-20.9
					c13.3,2.3,26.1,8,35.5,18c0.2,0.2,0.8,0.2,0.6-0.2c-5.1-10.7-15.5-19.2-27.3-21.4c6.7-0.9,14.1,1.1,19.2,5.6
					c0.4,0.3,0.9,0,0.5-0.4c-8.2-7.7-19.1-9.4-29.7-10.9c-5-0.7-10.1-1.2-14.8-2.9c-3.6-1.4-7.1-3.6-8.5-7c0-0.2,0-0.5,0-0.7
					c0.5,1.1,1.3,2.1,2.4,3c2.4,1.9,5.4,2.9,8.4,3.5c1.9,0.4,3.8,0.6,5.7,0.8c6.1,1.7,12.7,1.8,19,2.6c6.8,0.9,13.3,2.6,19.4,5.8
					c4.7,2.5,9,5.9,12.5,9.9c10.4,11.8,16.8,31.8,14.5,47c-2.6,17.5-14,32-29.7,41.3c-39.8,23.5-77.1,1.6-94.9-27.2
					c-3.1-5-5-10.6-7.8-15.7c-0.3-0.6-0.7-1.2-1.1-1.8c-0.2-0.2-0.4-0.3-0.7-0.5c-0.7-1.2-1.6-2.4-2.5-3.5c-1.9-2.2-4.3-3.9-6.9-5.1
					c1.1,0,2.4,0.3,3.3,0.6c1.6,0.6,3,1.4,4.3,2.4c-1.2-1.1-2.6-2.1-4.1-2.9c-5.5-3-12.6-2.4-18.5-1.2c-5.9,1.3-11.5,3.7-17.6,4.1
					c-3.9,0.2-7.9-0.3-11.6-1.3C162.5,72.8,167.6,70.9,172.4,68.9z"/>
			</g>
		</mask>
		
			<radialGradient id="SVGID_14_" cx="-87.1708" cy="196.9588" r="151.2928" gradientTransform="matrix(-0.9558 0.294 0.294 0.9558 212.2178 -33.7886)" gradientUnits="userSpaceOnUse">
			<stop  offset="0" style="stop-color:#E8A192"/>
			<stop  offset="1" style="stop-color:#EFA200"/>
		</radialGradient>
		<path class="st20" d="M172.4,68.9c4.1-1.7,8.1-3.4,12.4-4.5c4.8-1.2,9.8-1.6,14.7-1.5c0.4,0,0.4-0.4,0.1-0.6
			c-2.6-1.8-5.9-2.9-9.3-3.4c6.5-0.7,13.3-0.7,19.4,1.6c4.4,1.7,8.1,4.4,11.2,8c3.1,3.6,5.6,7.8,8.8,11.4c0.2,0.2,0.8,0.2,0.6-0.2
			c-1.9-5.2-4.8-9.9-8.2-14.2c4,3.6,7.4,7.8,10.9,11.9c2.8,3.3,5.8,6.4,8.9,9.5c3.2,3.1,6.5,6.2,10.3,8.6c2.9,1.8,6.5,3.6,10,2.8
			c0.2-0.1,0.3-0.3,0.2-0.5c-3.2-4.6-7.3-8.4-11.3-12.4c7.1,5.7,14.5,10.9,23.4,13.6c0.5,0.2,0.6-0.5,0.1-0.6
			c-8.8-3.5-14.7-12.1-20.6-19.1c-3.5-4.2-7.1-8.2-10.8-12.1c4.8,2.5,9.6,5.1,14.3,7.8c5.6,3.2,11.3,6.6,17.5,8.5
			c4,1.2,9.5,2.4,13.5,0.3c4.4-2.3,1.9-7.3-0.5-10.2c-3.7-4.5-8.7-7.3-13.2-10.9c3.4,1.1,6.7,2.8,10,4.2c3.3,1.4,7.1,3,10.8,2.4
			c0.3,0,0.3-0.3,0.2-0.5c-0.5-0.8-1-1.6-1.6-2.4c3.9,1.3,7.8,3.6,12.1,2.9c0.1,0,0.2-0.1,0.3-0.2c0.1-0.4,0.2-0.8,0.2-1.2
			c0.2-4.2-3-8.2-5.7-11.1c-3.2-3.4-6.8-6.4-10.5-9.2c-9.3-6.9-20.1-10.7-31.2-13.3c9.3,0.1,18.6,0.8,27.5,3.5
			c5.1,1.5,9.8,3.8,14.3,6.6c4.3,2.7,8.4,5.6,12.6,8.4c0.2,0.1,0.7,0,0.5-0.3c-4.9-10.6-15.5-17.6-26.6-20.9
			c13.3,2.3,26.1,8,35.5,18c0.2,0.2,0.8,0.2,0.6-0.2c-5.1-10.7-15.5-19.2-27.3-21.4c6.7-0.9,14.1,1.1,19.2,5.6
			c0.4,0.3,0.9,0,0.5-0.4c-8.2-7.7-19.1-9.4-29.7-10.9c-5-0.7-10.1-1.2-14.8-2.9c-3.6-1.4-7.1-3.6-8.5-7c0-0.2,0-0.5,0-0.7
			c0.5,1.1,1.3,2.1,2.4,3c2.4,1.9,5.4,2.9,8.4,3.5c1.9,0.4,3.8,0.6,5.7,0.8c6.1,1.7,12.7,1.8,19,2.6c6.8,0.9,13.3,2.6,19.4,5.8
			c4.7,2.5,9,5.9,12.5,9.9c10.4,11.8,16.8,31.8,14.5,47c-2.6,17.5-14,32-29.7,41.3c-39.8,23.5-77.1,1.6-94.9-27.2
			c-3.1-5-5-10.6-7.8-15.7c-0.3-0.6-0.7-1.2-1.1-1.8c-0.2-0.2-0.4-0.3-0.7-0.5c-0.7-1.2-1.6-2.4-2.5-3.5c-1.9-2.2-4.3-3.9-6.9-5.1
			c1.1,0,2.4,0.3,3.3,0.6c1.6,0.6,3,1.4,4.3,2.4c-1.2-1.1-2.6-2.1-4.1-2.9c-5.5-3-12.6-2.4-18.5-1.2c-5.9,1.3-11.5,3.7-17.6,4.1
			c-3.9,0.2-7.9-0.3-11.6-1.3C162.5,72.8,167.6,70.9,172.4,68.9z"/>
		<defs>
			<filter id="Adobe_OpacityMaskFilter_2_" filterUnits="userSpaceOnUse" x="203.9" y="21.2" width="141.7" height="113.9">
				<feFlood  style="flood-color:white;flood-opacity:1" result="back"/>
				<feBlend  in="SourceGraphic" in2="back" mode="normal"/>
			</filter>
		</defs>
		<mask maskUnits="userSpaceOnUse" x="203.9" y="21.2" width="141.7" height="113.9" id="SVGID_15_">
			<g class="st21">
				<defs>
					<filter id="Adobe_OpacityMaskFilter_3_" filterUnits="userSpaceOnUse" x="203.9" y="21.2" width="141.7" height="113.9">
						<feFlood  style="flood-color:white;flood-opacity:1" result="back"/>
						<feBlend  in="SourceGraphic" in2="back" mode="normal"/>
					</filter>
				</defs>
				<mask maskUnits="userSpaceOnUse" x="203.9" y="21.2" width="141.7" height="113.9" id="SVGID_15_">
					<g class="st22">
					</g>
				</mask>
				
					<radialGradient id="SVGID_16_" cx="-87.1708" cy="196.959" r="151.2924" gradientTransform="matrix(-0.9558 0.294 0.294 0.9558 212.2178 -33.7886)" gradientUnits="userSpaceOnUse">
					<stop  offset="0" style="stop-color:#FFFFFF"/>
					<stop  offset="1" style="stop-color:#000000"/>
				</radialGradient>
				<path class="st23" d="M218.5,86.3c4,6.1,7.8,12.8,14.1,16.9c0.1,0.1,0.3,0,0.2-0.1c-2.4-4.6-6-8.6-7.5-13.6
					c6,6.5,10.2,15.3,18.6,19.1c0.1,0,0.3,0,0.2-0.2c-2.3-5.1-7.2-8.8-8.4-14.3c6.6,7.8,11.9,19,22.7,21.3c0.1,0,0.2-0.1,0.1-0.2
					c-1.4-2.3-3.9-3.8-4.9-6.3c2.6,1,5.1,2.4,7.5,3.7c3,1.6,6,3.2,9.1,4.6c4.9,2.1,11.6,4.4,16.2,0.5c0.1,0,0.1-0.1,0-0.2
					c-3.9-4.9-10.6-7-14-12.3c3.8,0.8,7.1,3.1,11,3.1c0.2,0,0.1-0.2,0.1-0.3c-1.9-2.1-4.4-3.5-6.3-5.5c9.1,2.3,18.3,7.3,27.9,5.4
					c0.1,0,0.1-0.1,0.1-0.1c-0.6-2.9-3.6-5-5.9-6.6c-2.8-2-6.1-3.7-8.4-6.3c6.2,1.1,11.4,6.4,18,5.5c0.1,0,0.2-0.1,0.1-0.2
					c-1-1.5-2.8-2.7-3.5-4.4c3.2,0.2,6.3,1.2,9.4,1.8c2.8,0.5,5.8,0.7,8.3-0.9c0.1,0,0-0.1,0-0.2c-5.1-8.2-15.2-11.3-20.7-19.1
					c5,3.6,10,8.2,16.3,9.2c0.1,0,0.2-0.1,0.1-0.2c-2-2.6-4.1-5.1-5.7-8c4,2.6,8.1,5.3,12.6,6.9c0.1,0,0.2,0,0.2-0.2
					c-2.4-7.4-8.1-13.3-13.1-19.1c6.8,3.9,12,10,16.7,16.2c0.1,0.2,0.4,0.1,0.3-0.1c-0.6-1-0.8-2.3-1.2-3.3c2.7,1.6,4.7,4.2,6.8,6.6
					c0.1,0.1,0.3,0.1,0.3-0.1c-0.3-6.1-1.9-12-5-17.4c-2.9-5.1-6.8-9.7-10.8-14c4.3,1.4,7.7,4.6,11.6,6.9c0.1,0.1,0.3,0,0.2-0.1
					c-0.8-1.7-1.8-3.4-3.1-4.9c2.7,1.2,4.8,3.4,6.9,5.5c0.1,0.1,0.3,0.1,0.3-0.1c-1.4-9.3-6.7-20-15.9-23.7c2.9,0.3,5.3,2.3,7.9,3.5
					c0.1,0.1,0.3,0,0.2-0.2c-2.6-6.5-8.9-10.7-14.9-13.6c-4.8-2.4-9.8-4.2-14.9-5.9c0.1,0,0.1,0,0.2,0c6.8,0.9,13.3,2.6,19.4,5.8
					c4.7,2.5,9,5.9,12.5,9.9c10.4,11.8,16.8,31.8,14.5,47c-2.6,17.5-14,32-29.7,41.3c-39.8,23.5-77.1,1.6-94.9-27.2
					c-3.1-5-5-10.6-7.8-15.7c-0.3-0.6-0.7-1.2-1.1-1.8c-0.2-0.2-0.4-0.3-0.7-0.5c-0.7-1.2-1.6-2.4-2.5-3.5c-1.3-1.6-2.9-2.8-4.6-3.9
					C210.5,74.8,214.8,80.6,218.5,86.3z"/>
			</g>
		</mask>
		
			<radialGradient id="SVGID_17_" cx="-87.1708" cy="196.959" r="151.2924" gradientTransform="matrix(-0.9558 0.294 0.294 0.9558 212.2178 -33.7886)" gradientUnits="userSpaceOnUse">
			<stop  offset="0" style="stop-color:#E8A192"/>
			<stop  offset="1" style="stop-color:#EFA200"/>
		</radialGradient>
		<path class="st24" d="M218.5,86.3c4,6.1,7.8,12.8,14.1,16.9c0.1,0.1,0.3,0,0.2-0.1c-2.4-4.6-6-8.6-7.5-13.6
			c6,6.5,10.2,15.3,18.6,19.1c0.1,0,0.3,0,0.2-0.2c-2.3-5.1-7.2-8.8-8.4-14.3c6.6,7.8,11.9,19,22.7,21.3c0.1,0,0.2-0.1,0.1-0.2
			c-1.4-2.3-3.9-3.8-4.9-6.3c2.6,1,5.1,2.4,7.5,3.7c3,1.6,6,3.2,9.1,4.6c4.9,2.1,11.6,4.4,16.2,0.5c0.1,0,0.1-0.1,0-0.2
			c-3.9-4.9-10.6-7-14-12.3c3.8,0.8,7.1,3.1,11,3.1c0.2,0,0.1-0.2,0.1-0.3c-1.9-2.1-4.4-3.5-6.3-5.5c9.1,2.3,18.3,7.3,27.9,5.4
			c0.1,0,0.1-0.1,0.1-0.1c-0.6-2.9-3.6-5-5.9-6.6c-2.8-2-6.1-3.7-8.4-6.3c6.2,1.1,11.4,6.4,18,5.5c0.1,0,0.2-0.1,0.1-0.2
			c-1-1.5-2.8-2.7-3.5-4.4c3.2,0.2,6.3,1.2,9.4,1.8c2.8,0.5,5.8,0.7,8.3-0.9c0.1,0,0-0.1,0-0.2c-5.1-8.2-15.2-11.3-20.7-19.1
			c5,3.6,10,8.2,16.3,9.2c0.1,0,0.2-0.1,0.1-0.2c-2-2.6-4.1-5.1-5.7-8c4,2.6,8.1,5.3,12.6,6.9c0.1,0,0.2,0,0.2-0.2
			c-2.4-7.4-8.1-13.3-13.1-19.1c6.8,3.9,12,10,16.7,16.2c0.1,0.2,0.4,0.1,0.3-0.1c-0.6-1-0.8-2.3-1.2-3.3c2.7,1.6,4.7,4.2,6.8,6.6
			c0.1,0.1,0.3,0.1,0.3-0.1c-0.3-6.1-1.9-12-5-17.4c-2.9-5.1-6.8-9.7-10.8-14c4.3,1.4,7.7,4.6,11.6,6.9c0.1,0.1,0.3,0,0.2-0.1
			c-0.8-1.7-1.8-3.4-3.1-4.9c2.7,1.2,4.8,3.4,6.9,5.5c0.1,0.1,0.3,0.1,0.3-0.1c-1.4-9.3-6.7-20-15.9-23.7c2.9,0.3,5.3,2.3,7.9,3.5
			c0.1,0.1,0.3,0,0.2-0.2c-2.6-6.5-8.9-10.7-14.9-13.6c-4.8-2.4-9.8-4.2-14.9-5.9c0.1,0,0.1,0,0.2,0c6.8,0.9,13.3,2.6,19.4,5.8
			c4.7,2.5,9,5.9,12.5,9.9c10.4,11.8,16.8,31.8,14.5,47c-2.6,17.5-14,32-29.7,41.3c-39.8,23.5-77.1,1.6-94.9-27.2
			c-3.1-5-5-10.6-7.8-15.7c-0.3-0.6-0.7-1.2-1.1-1.8c-0.2-0.2-0.4-0.3-0.7-0.5c-0.7-1.2-1.6-2.4-2.5-3.5c-1.3-1.6-2.9-2.8-4.6-3.9
			C210.5,74.8,214.8,80.6,218.5,86.3z"/>
		<g>
			
				<linearGradient id="SVGID_18_" gradientUnits="userSpaceOnUse" x1="-11.6319" y1="82.8212" x2="111.6854" y2="-13.7837" gradientTransform="matrix(-0.9558 0.294 0.294 0.9558 212.2178 -33.7886)">
				<stop  offset="0" style="stop-color:#E22013"/>
				<stop  offset="0.9987" style="stop-color:#D59900"/>
			</linearGradient>
			<path class="st25" d="M173.7,11.3c1.3,2,4.4,1.2,6.6,1.5c0.5,0.1,1.1,0.2,1.6,0.3c1.6,0.4,3.2,1,4.5,2c1.2,0.8,2.3,1.8,3.2,3
				c0.8,1.4,2.4,4.2,1.7,5.2c-0.3-0.7-0.8-1.3-1.3-1.8c-1.7-1.7-4-2.2-6.3-2.1c-3.1,0.2-6.6,0.5-8.5-2.5
				C174,15.1,173.7,13.2,173.7,11.3z"/>
			
				<linearGradient id="SVGID_19_" gradientUnits="userSpaceOnUse" x1="37.1245" y1="38.6071" x2="49.9593" y2="38.6071" gradientTransform="matrix(-0.9558 0.294 0.294 0.9558 212.2178 -33.7886)">
				<stop  offset="0" style="stop-color:#E22013"/>
				<stop  offset="1" style="stop-color:#F4D099"/>
			</linearGradient>
			<path class="st26" d="M174.3,12.2c0.7,0.3,1.3,0.7,2.1,1c0.9,0.3,1.8,0.2,2.7,0.2c1.5,0,2.7,0.2,4.1,0.7c2.7,1,5,2.8,6.5,5.3
				c0.3,0.5-0.5,0.4-0.7,0.2c-2.1-2.1-4.5-3.8-7.3-4.7c-1.4-0.4-2.9-0.5-4.3-0.8c-1.2-0.3-2.3-0.9-3.2-1.6
				C174,12.2,174.2,12.1,174.3,12.2z"/>
		</g>
		<g>
			
				<linearGradient id="SVGID_20_" gradientUnits="userSpaceOnUse" x1="55.299" y1="91.8741" x2="124.8199" y2="37.4125" gradientTransform="matrix(-0.9558 0.294 0.294 0.9558 212.2178 -33.7886)">
				<stop  offset="0" style="stop-color:#E22013"/>
				<stop  offset="0.9987" style="stop-color:#D59900"/>
			</linearGradient>
			<path class="st27" d="M125.1,47.7c-0.4-0.2-0.7-0.4-1-0.5c-1.9-1.2-3.2-2.4-4.1-4.5c3.8,0.7,6.6,2.6,8,6.3c0.2,0.5,0.4,1,0.5,1.5
				C128.3,49.4,126.4,48.4,125.1,47.7z"/>
			
				<linearGradient id="SVGID_21_" gradientUnits="userSpaceOnUse" x1="105.5751" y1="49.8324" x2="109.6966" y2="49.8324" gradientTransform="matrix(-0.9558 0.294 0.294 0.9558 212.2178 -33.7886)">
				<stop  offset="0" style="stop-color:#E22013"/>
				<stop  offset="1" style="stop-color:#F4D099"/>
			</linearGradient>
			<path class="st28" d="M121.4,43.6c1.9,0.7,3.9,1.7,5.2,3.3c0.3,0.4-0.3,0.6-0.5,0.3c-1.5-1.3-2.9-2.5-4.7-3.5
				C121.2,43.8,121.3,43.6,121.4,43.6z"/>
		</g>
		<g>
			
				<linearGradient id="SVGID_22_" gradientUnits="userSpaceOnUse" x1="51.8858" y1="118.5456" x2="121.4037" y2="64.0863" gradientTransform="matrix(-0.9558 0.294 0.294 0.9558 212.2178 -33.7886)">
				<stop  offset="0" style="stop-color:#E22013"/>
				<stop  offset="0.9987" style="stop-color:#D59900"/>
			</linearGradient>
			<path class="st29" d="M136.2,72.2c-0.4-0.2-0.7-0.4-1-0.5c-1.9-1.2-3.2-2.4-4.1-4.5c3.8,0.7,6.6,2.6,8,6.3c0.2,0.5,0.4,1,0.5,1.5
				C139.4,73.9,137.5,72.9,136.2,72.2z"/>
			
				<linearGradient id="SVGID_23_" gradientUnits="userSpaceOnUse" x1="102.1919" y1="76.2669" x2="106.4454" y2="76.2669" gradientTransform="matrix(-0.9558 0.294 0.294 0.9558 212.2178 -33.7886)">
				<stop  offset="0" style="stop-color:#E22013"/>
				<stop  offset="1" style="stop-color:#F4D099"/>
			</linearGradient>
			<path class="st30" d="M132.3,67.6c0.9,0.7,2.1,1,3.1,1.6c0.9,0.7,1.7,1.4,2.3,2.4c0.2,0.4-0.4,0.3-0.6,0.1
				c-0.9-0.9-1.8-1.8-2.8-2.6c-0.7-0.5-1.6-0.8-2.2-1.5C132,67.6,132.2,67.5,132.3,67.6z"/>
		</g>
		<g>
			
				<linearGradient id="SVGID_24_" gradientUnits="userSpaceOnUse" x1="34.9845" y1="119.7013" x2="118.5286" y2="54.2541" gradientTransform="matrix(-0.9558 0.294 0.294 0.9558 212.2178 -33.7886)">
				<stop  offset="0" style="stop-color:#E22013"/>
				<stop  offset="0.9987" style="stop-color:#D59900"/>
			</linearGradient>
			<path class="st31" d="M193.7,84.2c-0.9-1.2-1.5-2.5-2.6-3.5c-0.3-0.3-0.7-0.6-1-0.9c0.1,0,0.3,0,0.4,0.1c2.1,0.4,4.3,1.2,6.1,2.4
				c2,1.4,3.1,3.4,3.8,5.5C197.9,87.2,195.3,86.4,193.7,84.2z"/>
			
				<linearGradient id="SVGID_25_" gradientUnits="userSpaceOnUse" x1="47.9386" y1="107.061" x2="53.2604" y2="107.061" gradientTransform="matrix(-0.9558 0.294 0.294 0.9558 212.2178 -33.7886)">
				<stop  offset="0" style="stop-color:#E22013"/>
				<stop  offset="1" style="stop-color:#F4D099"/>
			</linearGradient>
			<path class="st32" d="M192,80.8c2.3,1.3,5.8,2.3,6.8,5c0.2,0.5-0.5,0.4-0.8,0.2c-1-1.1-1.9-2.1-3.2-2.9c-1-0.7-2.1-1.2-3-2
				C191.7,80.8,191.8,80.7,192,80.8z"/>
		</g>
		
			<linearGradient id="SVGID_26_" gradientUnits="userSpaceOnUse" x1="-107.8027" y1="132.223" x2="16.6115" y2="38.9124" gradientTransform="matrix(-0.9558 0.294 0.294 0.9558 212.2178 -33.7886)">
			<stop  offset="0" style="stop-color:#E22013"/>
			<stop  offset="1" style="stop-color:#EFA200"/>
		</linearGradient>
		<path class="st33" d="M308.2,26.4c2.2,0.8,4.5,1.3,6.6,2.3c2.4,1.2,4.7,2.4,6.9,3.9c4.1,2.8,7.9,6.7,10.8,10.7
			c6.4,9,9.4,20,9.2,31c0,0.5-0.9,0.1-0.9-0.2c-1.9-10.3-3.9-20.8-9.7-29.7c-2.6-4-5.8-7.7-9.5-10.8c-2-1.6-4.2-2.9-6.4-4.1
			c-2.3-1.2-4.8-1.9-7.2-2.9C308,26.6,308,26.3,308.2,26.4z"/>
		
			<linearGradient id="SVGID_27_" gradientUnits="userSpaceOnUse" x1="-97.4468" y1="146.031" x2="26.9678" y2="52.7201" gradientTransform="matrix(-0.9558 0.294 0.294 0.9558 212.2178 -33.7886)">
			<stop  offset="0" style="stop-color:#E22013"/>
			<stop  offset="1" style="stop-color:#EFA200"/>
		</linearGradient>
		<path class="st34" d="M303,35c6.1,0.8,11.4,3.9,16.1,7.7c5.5,4.3,10.2,9.5,13.5,15.7c3.4,6.3,5.7,13.1,6.2,20.2
			c0.5,6.9-0.4,13.9-3,20.3c-0.2,0.4-1,0-0.9-0.4c2.3-13.2,0.2-26.5-5.5-38.6c-2.7-5.8-6.4-10.8-11-15.2c-4.3-4.2-9.6-7.8-15.5-9.2
			C302.8,35.4,302.6,34.9,303,35z"/>
		
			<linearGradient id="SVGID_28_" gradientUnits="userSpaceOnUse" x1="-82.4871" y1="165.9772" x2="41.9275" y2="72.6663" gradientTransform="matrix(-0.9558 0.294 0.294 0.9558 212.2178 -33.7886)">
			<stop  offset="0" style="stop-color:#E22013"/>
			<stop  offset="1" style="stop-color:#EFA200"/>
		</linearGradient>
		<path class="st35" d="M294.4,119.4c11.9-2.4,23.6-7.8,30.3-18.4c3.6-5.7,5.3-12.3,5.5-19c0.1-3.6-0.1-7.2-0.5-10.7
			c-0.4-3.9-1.5-7.7-3.5-11.1c-0.1-0.2,0.3-0.2,0.4,0c4.1,6.2,4.8,13.8,5,21.1c0.2,6.8-1.1,13.4-4.4,19.4c-5.9,11-17.5,17-29.5,18.9
			c-1,0.2-2,0.3-3.1,0.4C294.4,120,293.9,119.5,294.4,119.4z"/>
		
			<linearGradient id="SVGID_29_" gradientUnits="userSpaceOnUse" x1="-65.3151" y1="188.8735" x2="59.0994" y2="95.5625" gradientTransform="matrix(-0.9558 0.294 0.294 0.9558 212.2178 -33.7886)">
			<stop  offset="0" style="stop-color:#E22013"/>
			<stop  offset="1" style="stop-color:#EFA200"/>
		</linearGradient>
		<path class="st36" d="M250.4,120.4c6.4,2.3,12.8,4.4,19.5,5.7c7.2,1.4,14.5,0.9,21.7-0.7c7.2-1.6,14.4-4.3,20.9-7.7
			c3.3-1.7,6.4-3.8,9.4-6c2.9-2.1,5.8-4.2,8-7.1c0.1-0.2,0.6,0,0.4,0.2c-1.8,2.8-4.3,5-6.8,7.1c-2.8,2.4-5.8,4.6-8.9,6.5
			c-6.4,3.9-13.6,6.7-20.9,8.6c-7.1,1.8-14.4,2.5-21.7,1.4c-7-1.1-13.6-3.7-20.2-6.4c-0.6-0.2-1.1-0.5-1.7-0.7
			C249.4,121.1,249.6,120.1,250.4,120.4z"/>
		
			<linearGradient id="SVGID_30_" gradientUnits="userSpaceOnUse" x1="-63.0816" y1="191.8513" x2="61.3328" y2="98.5405" gradientTransform="matrix(-0.9558 0.294 0.294 0.9558 212.2178 -33.7886)">
			<stop  offset="0" style="stop-color:#E22013"/>
			<stop  offset="1" style="stop-color:#EFA200"/>
		</linearGradient>
		<path class="st37" d="M211.3,73.2c2.3,2.8,4.8,5.3,6.9,8.3c2.3,3.4,3.9,7.4,5.8,11.1c3.5,7.1,7.8,13.7,12.2,20.3
			c0.2,0.3-0.4,0.3-0.5,0.1c-2.6-2.8-5-5.9-7.3-9c-2.3-3.2-4.1-6.8-5.9-10.4c-1.8-3.5-3.1-7.3-4.9-10.8c-1.7-3.5-4.3-6.3-6.6-9.4
			C210.8,73.1,211.2,73.1,211.3,73.2z"/>
		
			<linearGradient id="SVGID_31_" gradientUnits="userSpaceOnUse" x1="-62.8235" y1="192.1955" x2="61.5913" y2="98.8844" gradientTransform="matrix(-0.9558 0.294 0.294 0.9558 212.2178 -33.7886)">
			<stop  offset="0" style="stop-color:#E22013"/>
			<stop  offset="1" style="stop-color:#EFA200"/>
		</linearGradient>
		<path class="st38" d="M233.3,84.7c3.7,9.5,10,18.4,17.6,25.2c7.5,6.7,16.7,12.2,27.1,11.7c0.6,0,1.2-0.1,1.8-0.1
			c0.4,0,0.9,0.6,0.4,0.7c-9.9,2.1-19.8-2-27.5-8.1c-8-6.4-14-15.1-18-24.4c-0.7-1.6-1.3-3.3-1.9-5
			C232.7,84.4,233.2,84.5,233.3,84.7z"/>
		
			<linearGradient id="SVGID_32_" gradientUnits="userSpaceOnUse" x1="-69.9779" y1="96.5869" x2="-112.4853" y2="137.9377" gradientTransform="matrix(-0.9558 0.294 0.294 0.9558 212.2178 -33.7886)">
			<stop  offset="0" style="stop-color:#E22013"/>
			<stop  offset="1" style="stop-color:#F4D099"/>
		</linearGradient>
		<path class="st39" d="M297.9,22.5c2.7,0.8,5.4,1.3,8.1,2.1c2.7,0.8,5.3,1.9,7.7,3.3c5.1,2.9,9.5,6.7,13.6,10.9
			c7.3,7.7,12.9,18,13.1,28.8c0,0.3-0.7,0.1-0.7-0.1c-1-10.4-6.8-20.1-13.7-27.8c-3.7-4.2-8-7.9-12.8-10.9c-4.8-3-10.1-4.3-15.4-6.1
			C297.8,22.7,297.7,22.5,297.9,22.5z"/>
		
			<linearGradient id="SVGID_33_" gradientUnits="userSpaceOnUse" x1="-57.1176" y1="109.8068" x2="-99.6248" y2="151.1574" gradientTransform="matrix(-0.9558 0.294 0.294 0.9558 212.2178 -33.7886)">
			<stop  offset="0" style="stop-color:#E22013"/>
			<stop  offset="1" style="stop-color:#F4D099"/>
		</linearGradient>
		<path class="st40" d="M338,91.5c2.7-12.8-0.2-26.7-6.7-37.9c-0.1-0.2,0.2-0.2,0.3,0c7,11,10.8,25.3,6.9,38.1
			C338.5,92,338,91.8,338,91.5z"/>
		
			<linearGradient id="SVGID_34_" gradientUnits="userSpaceOnUse" x1="-20.2198" y1="147.7368" x2="-62.727" y2="189.0874" gradientTransform="matrix(-0.9558 0.294 0.294 0.9558 212.2178 -33.7886)">
			<stop  offset="0" style="stop-color:#E22013"/>
			<stop  offset="1" style="stop-color:#F4D099"/>
		</linearGradient>
		<path class="st41" d="M280.6,130.6c5.3,0.1,10.6-0.3,15.8-1.4c5.2-1.1,10.2-3.1,14.8-5.6c4.3-2.3,8.3-5.3,12-8.4
			c3.7-3.2,7-6.9,9.7-11.1c0.1-0.1,0.3,0,0.2,0.1c-4.8,8.4-12.3,15.3-20.6,20.1c-9.6,5.5-20.6,7.8-31.6,7.1
			C280.3,131.4,279.9,130.6,280.6,130.6z"/>
		
			<linearGradient id="SVGID_35_" gradientUnits="userSpaceOnUse" x1="112.0843" y1="39.1934" x2="31.215" y2="98.8392" gradientTransform="matrix(-0.9558 0.294 0.294 0.9558 212.2178 -33.7886)">
			<stop  offset="0" style="stop-color:#E22013"/>
			<stop  offset="1" style="stop-color:#F4D099"/>
		</linearGradient>
		<path class="st42" d="M204.1,59.5c1,0.5,2.2,0.7,3.3,1.1c1.1,0.4,2,1.1,2.9,1.7c2.2,1.4,4.1,3.1,5.9,5.1c3.7,4,6.4,9,7.5,14.4
			c0.1,0.3-0.5,0.2-0.6-0.1c-1.6-5.2-4.5-9.8-8-13.9c-1.6-1.9-3.4-3.6-5.4-5c-1.1-0.8-2.2-1.5-3.5-2c-0.8-0.3-1.6-0.6-2.4-1.1
			C203.9,59.6,204,59.5,204.1,59.5z"/>
		
			<linearGradient id="SVGID_36_" gradientUnits="userSpaceOnUse" x1="26.276" y1="107.07" x2="-36.1784" y2="164.1572" gradientTransform="matrix(-0.9558 0.294 0.294 0.9558 212.2178 -33.7886)">
			<stop  offset="0" style="stop-color:#E22013"/>
			<stop  offset="1" style="stop-color:#EFA200"/>
		</linearGradient>
		<path class="st43" d="M210.6,54.8c6.3,1.3,12,3.5,16.9,7.8c5.1,4.5,8.7,10.7,12.2,16.5c6.4,10.6,12.6,22.5,23.3,29.4
			c0.9,0.6,1.9,1.1,2.8,1.7c0.4,0.2,0.2,0.6-0.2,0.5c-6-2.6-11.2-6.4-15.8-11c-1.8-1.8-3.4-3.7-4.9-5.7c1.3,2.4,2.8,4.8,4.4,7
			c3.5,4.9,7.7,8.9,12.5,12.5c5.2,3.9,11.6,6,18.1,6.1c0.2,0,0.5,0.5,0.2,0.5c-6.5,0.4-12.5-1.5-18.4-4.2
			c-5.8-2.6-10.4-7.2-14.2-12.2c-4.2-5.6-7.4-11.8-10.3-18c-2.3-4.8-4.3-9.8-6.8-14.6c-0.8-1.2-1.5-2.4-2.3-3.5
			c-1.9-2.8-4.1-5.2-6.8-7.2c-2.6-1.9-5.6-3.2-8.7-4.3c-0.6-0.2-1.3-0.4-1.9-0.7C210.4,55.2,210.2,54.7,210.6,54.8z"/>
		
			<linearGradient id="SVGID_37_" gradientUnits="userSpaceOnUse" x1="-7.9817" y1="69.5916" x2="-70.4358" y2="126.6786" gradientTransform="matrix(-0.9558 0.294 0.294 0.9558 212.2178 -33.7886)">
			<stop  offset="0" style="stop-color:#E22013"/>
			<stop  offset="1" style="stop-color:#EFA200"/>
		</linearGradient>
		<path class="st44" d="M224.9,39.4c3.4,0,6.7-1.2,9.9-2.2c3.3-1.1,6.6-1.9,10-2.7c7.4-1.6,14.8-2.5,22.4-2.4
			c7.2,0.2,14.5,1.4,21.1,4.2c5.7,2.4,10.6,6.4,14.9,10.7c1.4,1.4,2.8,2.9,4.2,4.5c0.4,0.4-0.3,0.6-0.6,0.3
			c-4.7-4.3-9.2-8.7-15-11.5c-6.1-3-13.3-4.3-20.1-4.9c-7.4-0.7-15,0-22.4,0.9c-3.7,0.5-7.4,1.1-11.1,1.8c-3.4,0.7-6.8,1.5-10.2,1.7
			c-1,0.1-2,0-2.9-0.1C224.9,39.9,224.6,39.5,224.9,39.4z"/>
		
			<linearGradient id="SVGID_38_" gradientUnits="userSpaceOnUse" x1="-13.9339" y1="63.0798" x2="-76.3883" y2="120.1671" gradientTransform="matrix(-0.9558 0.294 0.294 0.9558 212.2178 -33.7886)">
			<stop  offset="0" style="stop-color:#E22013"/>
			<stop  offset="1" style="stop-color:#EFA200"/>
		</linearGradient>
		<path class="st45" d="M279,29.8c5.7,1.9,11.9,1.9,17.5,4.2c5.7,2.3,11,5.3,15.6,9.5c4.5,4,8.2,8.7,10.8,14.1
			c1.3,2.6,2.3,5.3,3.1,8.1c0.8,2.9,1.6,6,1.5,9c0,0.8-1.3,0.1-1.4-0.3c-0.9-2.7-1.6-5.5-2.6-8.2c-1-2.7-2.1-5.4-3.5-7.9
			c-2.7-5-6.2-9.5-10.3-13.4c-4.2-3.9-8.9-7-14-9.7c-5.2-2.7-11.3-3-16.8-5.1C278.8,30.1,278.7,29.7,279,29.8z"/>
		
			<linearGradient id="SVGID_39_" gradientUnits="userSpaceOnUse" x1="1.557" y1="80.0268" x2="-60.8976" y2="137.1143" gradientTransform="matrix(-0.9558 0.294 0.294 0.9558 212.2178 -33.7886)">
			<stop  offset="0" style="stop-color:#E22013"/>
			<stop  offset="1" style="stop-color:#EFA200"/>
		</linearGradient>
		<path class="st46" d="M221.6,45.2c6.1,1,12.3,0.2,18.5,0.3c5.4,0.1,10.8,0.7,16.1,1.8c10.3,2.1,21.2,6.6,27.5,15.4
			c0.7,1-0.7,1.1-1.3,0.5c-7.1-8-16.8-12.2-27.1-14.2c-5.1-1-10.3-1.5-15.4-1.8c-6.1-0.4-12.3,0.4-18.2-1.6
			C221.4,45.4,221.3,45.1,221.6,45.2z"/>
		
			<linearGradient id="SVGID_40_" gradientUnits="userSpaceOnUse" x1="13.9233" y1="93.556" x2="-48.5309" y2="150.6431" gradientTransform="matrix(-0.9558 0.294 0.294 0.9558 212.2178 -33.7886)">
			<stop  offset="0" style="stop-color:#E22013"/>
			<stop  offset="1" style="stop-color:#EFA200"/>
		</linearGradient>
		<path class="st47" d="M223.5,53.5c12.5,2.7,21.9,12.3,28.3,22.9c0.6,1-1.1,0.9-1.5,0.4c-3.8-4.5-7.3-9.3-11.3-13.5
			c-4.3-4.4-9.5-7.9-15.4-9.5C223.3,53.7,223.2,53.4,223.5,53.5z"/>
	</g>
	
		<linearGradient id="SVGID_41_" gradientUnits="userSpaceOnUse" x1="-20.967" y1="22.235" x2="-134.1697" y2="143.6784" gradientTransform="matrix(-0.9558 0.294 0.294 0.9558 212.2178 -33.7886)">
		<stop  offset="0" style="stop-color:#E22013"/>
		<stop  offset="1" style="stop-color:#F4D099"/>
	</linearGradient>
	<path class="st48" d="M287.2,14.8c10.1,0.9,20.3,2.2,29.7,5.9c4.6,1.8,8.8,4.2,12.7,7.2c4,3.1,7.8,7.2,9.9,11.9
		c0.3,0.7-0.7,0.6-1,0.2c-3.3-3.9-6.4-7.7-10.4-10.9c-3.6-2.9-7.8-5.2-12.1-7c-9.1-3.9-19-5.4-28.7-6.5
		C286.9,15.5,286.5,14.7,287.2,14.8z"/>
	
		<linearGradient id="SVGID_42_" gradientUnits="userSpaceOnUse" x1="66.9575" y1="104.1932" x2="-46.2448" y2="225.6362" gradientTransform="matrix(-0.9558 0.294 0.294 0.9558 212.2178 -33.7886)">
		<stop  offset="0" style="stop-color:#E22013"/>
		<stop  offset="1" style="stop-color:#F4D099"/>
	</linearGradient>
	<path class="st49" d="M226.6,109.2c5.9,8.1,14.1,14.6,22.9,19.3c8.9,4.7,18.6,8,28.6,9.3c0.4,0.1,0.8,0.7,0.2,0.7
		c-10.3-0.8-20.6-3.2-29.8-8c-9.4-4.9-17.1-11.9-22.3-21.2C226,109,226.5,109,226.6,109.2z"/>
	
		<linearGradient id="SVGID_43_" gradientUnits="userSpaceOnUse" x1="71.604" y1="108.5241" x2="-41.5983" y2="229.9671" gradientTransform="matrix(-0.9558 0.294 0.294 0.9558 212.2178 -33.7886)">
		<stop  offset="0" style="stop-color:#E22013"/>
		<stop  offset="1" style="stop-color:#F4D099"/>
	</linearGradient>
	<path class="st50" d="M244.7,130.7c2.4,1.3,4.8,2.6,7.4,3.4c0.8,0.3,0.9,1.3-0.1,1c-2.9-0.7-5.3-2.4-7.6-4.1
		C244,130.8,244.3,130.5,244.7,130.7z"/>
	
		<linearGradient id="SVGID_44_" gradientUnits="userSpaceOnUse" x1="-84.9381" y1="114.4676" x2="-110.0943" y2="137.0213" gradientTransform="matrix(-0.9558 0.294 0.294 0.9558 212.2178 -33.7886)">
		<stop  offset="0" style="stop-color:#E22013"/>
		<stop  offset="1" style="stop-color:#F4D099"/>
	</linearGradient>
	<path class="st51" d="M349,84.5c1.5-8.9,0.9-17.6-0.8-26.4c-0.9-4.6-2.1-9.1-3.8-13.5c-1.8-4.4-4.1-8.6-6.5-12.7
		c-0.2-0.3,0.4-0.3,0.5-0.1c2.6,4.1,5.2,8.2,7.3,12.6c2.1,4.4,3.4,9.1,4.4,13.8c1.8,8.7,3,18,0,26.6C349.9,85.4,348.9,84.9,349,84.5
		z"/>
	
		<linearGradient id="SVGID_45_" gradientUnits="userSpaceOnUse" x1="-16.4207" y1="26.4742" x2="-129.6219" y2="147.9159" gradientTransform="matrix(-0.9558 0.294 0.294 0.9558 212.2178 -33.7886)">
		<stop  offset="0" style="stop-color:#E22013"/>
		<stop  offset="1" style="stop-color:#F4D099"/>
	</linearGradient>
	<path class="st52" d="M341.3,45.4c-0.2-0.5,0.5-0.4,0.7-0.1c0.9,1.8,2,3.8,2.3,5.8c0.1,0.6-0.9,0.4-1,0
		C342.4,49.3,342.1,47.2,341.3,45.4z"/>
</g>
<g>
	<polygon class="st53" points="19.8,74.1 93.2,81.5 135.4,105.4 132.8,140.6 105.4,160.2 57.2,145.3 0,106 	"/>
	<polygon class="st54" points="135.4,105.4 132.8,140.6 105.4,160.2 103.1,157.5 106.5,143 108.4,138.7 122.9,123.6 	"/>
	<polygon class="st55" points="131.9,136.9 129.5,141.2 114.9,152.3 107.4,157.6 105.7,156.6 105.4,152.2 107.7,144.2 110.9,138.1 
		117.4,134.2 124.9,125.4 131.3,113.3 133.8,111.2 	"/>
	<polygon class="st56" points="132.2,116.6 131.4,135.5 128.2,141.4 111.1,154.1 108,155.8 109.8,147.9 118.2,141.4 125.8,127.5 
		129.7,125.6 	"/>
	<polygon class="st57" points="135.4,105.4 122.9,123.6 108.4,138.7 101,124.5 95.9,105.6 97.4,104.5 114,106.3 126.6,104.8 	"/>
	<path class="st55" d="M133,105.9l-1,2.3l-6.4,7.2l-3.3,6.8l-8.3,8.3l-4,4.8l-1.9-0.2l-3.1-5.6l-2.4-4.6l-1.3-7.4
		c0,0-2.3-8.5-2.6-9.4c-0.3-0.9,2.7-2.1,3.1-1.7c0.5,0.4,12.5,2.8,12.5,2.8l11.8-2.8L133,105.9z"/>
	<polygon class="st58" points="135.4,105.4 126.6,104.8 114,106.3 97.4,104.5 96,90.6 93.2,81.5 	"/>
	<polygon class="st59" points="129.3,102 97.4,83.9 96.1,84.1 95.2,85.2 98.3,101.3 101,103.9 114.9,105.6 126.6,103.2 131,103.7 	
		"/>
	<polygon class="st60" points="19.8,74.1 93.2,81.5 96,90.6 97.4,104.5 95.9,105.6 38.9,98.4 13.7,84.2 	"/>
	<polygon class="st61" points="38.9,98.4 41.4,119.2 57.2,145.3 105.4,160.2 103.1,157.5 106.5,143 108.4,138.7 101,124.5 
		95.9,105.6 	"/>
	<polygon class="st55" points="92.4,106.6 95.7,107.9 99.1,125.1 105.3,136.1 106,140.3 102.2,150.7 101.9,156.3 102.8,159.4 
		65.5,147.1 58.3,144.1 54.2,138.4 49.8,125 46.2,110.8 47.8,102.6 71.9,103.9 	"/>
	<polygon class="st62" points="54.2,138.4 58.3,144.1 65.5,147.1 88.2,154.6 87.8,145.8 79.2,138.2 73.6,124.3 78.1,109.6 67,103.6 
		47.8,102.6 46.2,110.8 49.8,125 	"/>
	<polygon class="st63" points="13.4,87.7 29.6,100.2 27.6,116.2 38.7,123.7 46.7,136.5 1.1,105.5 	"/>
	<polygon class="st64" points="90.6,83 94.7,89.6 95.7,101.4 92.6,104.1 56.8,97.7 42.2,97.3 33.9,94.5 15.3,83 19.9,75.2 
		59.8,80.9 	"/>
	<polygon class="st65" points="8.8,91.9 1.2,104.1 4.8,102.2 7.1,104.6 15.6,104.8 18.3,107.3 20.9,113.2 26.6,114.9 27.6,116.2 
		32.9,116.4 35.9,118 33.7,115.7 29.7,114.5 32.9,111.6 37.3,114.5 40.9,113.7 45.6,114.5 46.2,110.8 44.8,113.4 40,111.6 37.5,112 
		33.7,109.3 29,112.1 23.1,110.1 19.6,102.2 9.8,101.3 7.9,97.5 	"/>
	<polygon class="st66" points="46.2,110.8 45.2,113.7 40,112 37.6,112.5 33.5,109.7 29,112.6 23.1,110.1 28.9,111.7 33.6,108.4 
		37.5,112 40.2,111.3 44.6,113 	"/>
</g>
<g>
	<polygon class="st67" points="401.9,68.5 387.9,94.2 385.5,129.1 392,143.6 468.8,157 494.5,138.4 488.6,96.4 471.5,79.5 	"/>
	<polygon class="st54" points="408.9,86.1 401.9,68.5 471.5,79.5 488.6,96.4 472.8,100.8 	"/>
	<path class="st55" d="M405,72.8l4.8,9.3c0.5,1.1,1.4,2,2.5,2.3L471,98.5c1.2,0.3,2.5,0.4,3.7,0.1l8.6-1.8c1.4-0.3,1.8-2.3,0.7-3.3
		L473.5,84c-1.4-1.3-3.1-2.1-4.9-2.5l-62-11.2C405.4,70.1,404.4,71.6,405,72.8z"/>
	<polygon class="st61" points="408.9,86.1 473.9,101.1 479.9,120.3 480.2,141.1 468.8,157 392,143.6 390.3,126.1 395.5,111.9 
		394.6,97.8 	"/>
	<polygon class="st55" points="410.3,91.2 443.6,96.2 470.7,103.8 477.5,121.9 477.5,141.5 468.8,157 392.6,142.1 391.8,126.7 
		397.5,111.6 397.9,98.4 	"/>
	<polygon class="st57" points="401.9,68.5 408.9,86.1 394.6,97.8 387.9,94.2 	"/>
	<path class="st55" d="M400.7,73.7l-9.1,16.6c-0.7,1.2-0.3,2.8,0.8,3.6l2.9,2.1l9.7-8.6c1.2-1.1,1.6-2.9,1.1-4.4l-3.2-8.9
		C402.5,72.9,401.2,72.8,400.7,73.7z"/>
	<polygon class="st62" points="400.1,116.3 435.8,130.3 455.1,121.7 473.4,118.6 477.2,138.9 468.9,155.4 427.9,148.3 394.4,141.1 
		392.1,125.7 	"/>
	<polygon class="st56" points="407.9,72.6 449.9,83.1 471.4,96.9 412.3,83 	"/>
	<polygon class="st65" points="490.3,117.3 487.8,125.2 480.7,134.2 477.4,135.4 457.9,135 452,140.3 444.5,137 451.3,143 
		458.5,138.5 477.2,138.9 482.8,138.1 491,127.9 493.4,130.5 488.6,96.4 485.9,101.2 	"/>
	<polygon class="st66" points="444.5,137 451.3,143 458.5,138.5 477.2,138.9 482.8,138.1 477.5,140 458.8,140 451.1,144.9 	"/>
</g>
<g>
	<polygon class="st67" points="230,262.4 210.7,226.1 242.8,185.7 292.9,181.1 334.7,229.5 292.7,250.3 	"/>
	<polygon class="st60" points="210.7,226.1 242.8,185.7 256.2,191.5 259.6,195.8 267.5,197 272,201.7 275.9,229.3 281,230.7 
		334.7,229.5 292.7,249.6 230,262.4 	"/>
	<polygon class="st58" points="242.8,185.7 292.9,181.1 282.7,187.6 273.7,196.3 268.5,197.4 259.6,195.8 256.8,191.4 	"/>
	<polygon class="st59" points="248.6,186.1 248.2,187 257.8,189.8 260.5,193.7 266.9,196 273.2,194.3 279,189 288,183.3 
		285.8,182.6 266.5,183.9 	"/>
	<polygon class="st68" points="268.5,197.4 272,201.7 274.1,215.1 275.9,229.3 273.6,233.8 262.6,237.9 245.7,245.9 263.2,239.9 
		277.8,235.8 285.4,232.5 322.7,232.3 334.7,229.5 292.9,181.1 282.7,187.6 273.7,196.3 	"/>
	<polygon class="st55" points="274.7,201.7 275.7,196.2 282.5,191.3 287.8,186.1 293.6,183.7 320.9,214.5 309.6,219 303.4,229.5 
		281,230.7 276.5,217.1 	"/>
	<path class="st62" d="M298.7,203c0,0-12.1,7-12.7,7c-0.3,0-3.9,6.7-7.5,13.6l2.6,7.7l22.4-1.2l6.2-10.5l11.3-4.5l-18.4-20.7
		L298.7,203z"/>
	<polygon class="st64" points="216.2,221.9 217,224.3 261.3,229.7 270.6,231.9 273.6,228.2 271.8,215.9 271,203.8 267.7,199.7 
		257.6,198 254.8,193.3 243.9,189 234.8,198.9 	"/>
	<polygon class="st53" points="251.3,219.8 235.7,210.2 234.4,199.4 216.2,221.9 217,224.3 260.4,229.6 	"/>
	<polygon class="st69" points="213.9,228.2 242.9,230.1 269.7,232.9 258,237.7 242.2,247.9 230,262.4 	"/>
	<polygon class="st70" points="230,262.4 242.9,248.8 269.1,239.9 286.2,234.2 319.4,234.2 334.7,229.5 292.7,250.3 	"/>
</g>
</svg>
