<!-- Generator: Adobe Illustrator 21.1.0, SVG Export Plug-In  -->
<svg version="1.1"
	 xmlns="http://www.w3.org/2000/svg" xmlns:xlink="http://www.w3.org/1999/xlink" xmlns:a="http://ns.adobe.com/AdobeSVGViewerExtensions/3.0/"
	 x="0px" y="0px" width="52.6px" height="11.1px" viewBox="0 0 52.6 11.1" style="enable-background:new 0 0 52.6 11.1;"
	 xml:space="preserve">
<style type="text/css">
	.st0{fill:#FFFFFF;}
	.st1{fill:#231F20;}
</style>
<defs>
</defs>
<g>
	<g>
		<path class="st0" d="M2.6,0c0.1,0,0.1,0,0.3,0c0.1,0,0.2,0,0.3,0h0.2h0.2c0.1,0,0.1,0,0.1,0l0,0c0.1,0,0.1,0,0.2,0
			c0,0,0.1,0,0.1,0c0,0,0.1,0,0.1,0.1c0,0.1,0,0.1,0,0.2v0.1l0,0.1v0.1c0,0.1,0,0.2,0,0.2l0,0.1c0,0,0,0.1-0.1,0.1
			c-0.1,0-0.1,0.1-0.3,0c0,0-0.1,0-0.1,0H3.2l-0.2,0c-0.1,0-0.2,0-0.4,0l-0.2,0l-0.4,0c-0.1,0-0.2,0-0.3,0c-0.1,0-0.2,0-0.2,0
			L1.3,1.3L1.2,1.7L1.1,1.9l0,0.2l0,0.5c0,0.1,0,0.1,0,0.2c0,0.1,0,0.2,0,0.2c0,0,0,0.1,0,0.2c0,0.1,0,0.1,0,0.2c0,0.1,0,0.1,0,0.1
			v0.1l0.1,0h0h0l0.1,0l0.1,0l0.2,0c0.2,0,0.3-0.1,0.4-0.1l0.1,0h0l0.2,0c0.4,0,0.6-0.1,0.7,0l0.1,0c0,0,0.1,0,0.1,0
			c0,0,0.1,0,0.1,0.1c0,0,0,0.1,0.1,0.2c0,0,0,0.1,0,0.2c0,0.1,0,0.2,0,0.2l0,0.1c0,0.1,0,0.1,0,0.1c0,0,0,0.1-0.1,0.2
			c-0.1,0-0.1,0-0.2,0.1c0,0-0.1,0-0.1,0.1l0,0l0,0c-0.1,0-0.1,0.1-0.2,0.1C2.9,4.6,2.6,4.6,2.4,4.6h0l-0.1,0l-0.1,0L2,4.7l-0.1,0
			c0,0,0,0-0.1,0c0,0-0.1,0-0.1,0c0,0-0.1,0-0.1,0c-0.1,0-0.1,0-0.1,0h0c0,0.2,0,0.3,0,0.4c0,0.2,0,0.5,0,0.7l0,1.4l0,0.7
			c0,0.1,0,0.2,0,0.3c0,0.1,0,0.3,0,0.3s0,0.2,0,0.3c0,0.1,0,0.2,0,0.3c0,0.3,0,0.5-0.1,0.7c0,0.1-0.1,0.1-0.2,0.2
			c-0.1,0-0.2,0.1-0.3,0.1H0.8H0.7c-0.1,0-0.2,0-0.3,0c-0.1,0-0.1-0.1-0.1-0.2v0c0-0.2,0-0.3,0.1-0.6c0,0,0-0.1,0-0.2
			c0-0.1,0-0.1,0-0.2c0-0.1,0-0.1,0-0.2c0-0.2,0-0.4,0-0.5c0-0.3,0-0.5,0-0.5c0-0.1,0-0.2,0-0.3c0-0.1,0-0.2,0-0.3
			c0-0.1,0-0.3,0-0.6c0-0.6,0-1,0-1.1c0,0,0-0.2-0.1-0.7c0-0.1,0-0.2,0-0.3c0-0.2,0-0.3,0-0.3c0,0,0-0.1,0-0.3c0-0.1,0-0.3,0-0.3
			V3.4c0,0,0-0.1,0-0.1s0-0.1,0-0.1V2.9V2.2c0,0,0-0.1,0-0.3c0-0.2,0-0.3,0-0.4V0.9c0-0.1,0-0.2,0-0.3l0,0c0,0,0,0,0-0.1
			c0,0,0-0.1,0-0.1l0,0l0-0.1c0,0,0-0.1,0-0.1c0.1,0,0.1,0,0.1,0c0,0,0.1,0,0.1,0c0,0,0.1,0,0.2,0c0.1,0,0.2,0,0.2,0l0.4,0
			c0.3,0,0.5,0,0.8,0H2.6z"/>
		<path class="st0" d="M9.3,0.3L9.3,0.3c0,0.1,0,0.3,0,0.5c0,0.1,0,0.1,0,0.2c0,0,0,0.1,0,0.1c0,0.1,0,0.1,0,0.1v0.9
			c0,0.1,0,0.4,0,0.7v0.7c0,0.1,0,0.1,0,0.2v0.2c0,0.1,0,0.2,0,0.3c0,0,0,0.1,0,0.3c0,0.2,0,0.3,0,0.4v0.7c0,0.1,0,0.2,0,0.3
			s0,0.3,0,0.3c0,0.2,0,0.3,0,0.4c0,0.1,0,0.2-0.1,0.3l0,0.2v0.2c0,0.3,0,0.5,0,0.7c0,0,0,0.1,0,0.3c0,0.2,0,0.3,0,0.4
			c0,0.1,0,0.1,0,0.3c0,0.1,0,0.2,0,0.2c0,0.2-0.1,0.4-0.2,0.5C8.9,9.7,8.7,9.8,8.5,9.9l-0.1,0l-0.1,0c0,0,0,0-0.1,0
			c0,0-0.1,0-0.1,0c0,0,0,0-0.1,0c0,0-0.1,0-0.1,0c0,0,0,0-0.1,0c0,0-0.1,0-0.1,0c0,0,0,0-0.1,0c0,0-0.1,0-0.1,0c-0.2,0-0.4,0-0.7,0
			c0,0-0.1,0-0.1,0c-0.1,0-0.1,0-0.2,0c-0.1,0-0.1,0-0.2,0c0,0,0,0-0.1,0c0,0-0.1,0-0.2,0l-0.1,0c0,0,0,0-0.1,0
			C6.2,10.1,6.1,10,6,10C6,9.9,5.9,9.8,5.8,9.7L5.7,9.6c0,0,0,0,0,0l0,0C5.6,9.5,5.5,9.4,5.5,9.3V9.2c0,0,0-0.1-0.1-0.4L5.3,8.2
			L5.2,7.6c0-0.1,0-0.2,0-0.3c0-0.2,0-0.3,0-0.3c0-0.1,0-0.3,0-0.6c0,0,0-0.1,0-0.3c0-0.1,0-0.1,0-0.2c0,0,0-0.1,0-0.2s0-0.1,0-0.2
			v0.1c0,0,0-0.1,0-0.1c0,0,0-0.1,0-0.1c0,0,0-0.1,0-0.2V4.8c0,0,0-0.1,0-0.1c0-0.1,0-0.1,0-0.2c0,0,0-0.1,0-0.1c0-0.1,0-0.1,0-0.1
			c0-0.1,0-0.2,0-0.3c0-0.2,0-0.4,0-0.5c0,0,0-0.1,0-0.2c0-0.1,0-0.2,0-0.2c0-0.2,0-0.3,0-0.3V2.6c0-0.1,0-0.2,0-0.5
			c0-0.1,0-0.3,0-0.6c0,0,0-0.1,0-0.1c0-0.1,0-0.1,0-0.2V0.6c0-0.1,0-0.2,0-0.3c0,0,0,0,0-0.1c0-0.1,0.1-0.1,0.2-0.1
			c0.2,0,0.3,0,0.4,0h0.3c0,0,0.1,0,0.1,0c0.1,0,0.1,0,0.2,0.1l0.1,0.2c0,0,0,0,0,0.1c0,0,0,0.1,0,0.1c0,0,0,0.1,0,0.1
			c0,0.2,0.1,0.4,0.1,0.5c0,0.1,0,0.1,0,0.3c0,0.1,0,0.2,0,0.3v0.1c0,0.1,0,0.1,0,0.1c0,0,0,0.1,0,0.1c0,0.1,0,0.1,0,0.1
			c0,0.1,0,0.3,0,0.6c0,0.3,0,0.5,0,0.6c0,0.1,0,0.3,0,0.5c0,0.2,0,0.4,0,0.5c0,0,0,0,0,0.1c0,0,0,0.1,0,0.1v0.7c0,0.3,0,0.6,0,0.8
			c0,0,0,0.1,0,0.2c0,0.1,0,0.1,0,0.2v1.2l0,0.3c0,0.1,0,0.2,0,0.3c0,0,0,0.1,0,0.2c0,0,0,0.1,0,0.1c0,0,0,0,0,0c0,0,0,0,0,0
			c0,0,0,0,0.1,0.1c0,0,0,0,0.1,0c0,0,0.1,0,0.2,0h0.1c0.2,0,0.3,0,0.4,0s0.1,0,0.3,0c0.1,0,0.1,0,0.2-0.1c0,0,0,0,0-0.1
			c0-0.1,0-0.1,0-0.1c0,0,0,0,0,0c0,0,0,0,0,0V8.3l0-0.1l0-0.1C8,8.1,8,8,8,7.9c0-0.1,0-0.2,0-0.3c0-0.1,0-0.1,0-0.1v0
			c0-0.1,0-0.1,0-0.2l0,0V7.2c0,0,0-0.1,0-0.2c0,0,0,0,0-0.1c0,0,0-0.1,0-0.1c0,0,0,0,0-0.1c0,0,0,0,0,0c0,0,0-0.1,0-0.2
			s0-0.1,0-0.1c0,0,0-0.1,0-0.2V6.1c0,0,0-0.1,0-0.2c0-0.1,0-0.1,0-0.2V5.5c0,0,0,0,0,0c0,0,0,0,0-0.1c0,0,0,0,0-0.1V5.2
			c0-0.1,0-0.2,0-0.3c0-0.3,0-0.5,0-0.6c0,0,0-0.1,0-0.2c0-0.2,0-0.3,0-0.3V3c0-0.2,0-0.4,0-0.7c0-0.1,0-0.2,0-0.3
			c0-0.1,0-0.3,0-0.3V1.2c0-0.1,0-0.1,0-0.1c0-0.2,0-0.3,0-0.4c0-0.1,0-0.2,0-0.3c0,0,0-0.1,0-0.1c0,0,0-0.1,0-0.1
			c0-0.1,0.1-0.1,0.2-0.1h0l0,0h0.1l0.1,0h0.1c0,0,0,0,0,0c0,0,0,0,0,0c0.1,0,0.1,0,0.2,0c0,0,0,0,0,0c0,0,0,0,0.1,0c0,0,0,0,0,0
			C9.3,0.1,9.3,0.2,9.3,0.3z"/>
		<path class="st0" d="M12,0.4c0,0,0,0.1,0,0.2c0,0,0,0.1,0,0.1l0,0c0,0,0,0,0,0c0,0,0,0.1,0,0.1c0,0.1,0,0.1,0,0.1v0.3
			c0,0.3,0,0.4,0,0.5c0,0.2,0,0.4,0,0.7v0.7c0,0.4,0,0.6,0,0.6c0,0,0,0.1,0,0.3c0,0,0,0,0,0.1v0.1v0.1c0,0,0,0,0,0.1c0,0,0,0,0,0.1
			v0.1v0.2v0.3c0,0.1,0,0.2,0,0.3v0c0,0,0,0,0,0c0,0,0,0,0,0.1c0,0.1,0,0.1,0,0.2c0,0,0,0,0,0c0,0,0,0,0,0.1c0,0,0,0,0,0.1
			c0,0,0,0.1,0,0.1l0,0.2c0,0,0,0.1,0,0.2c0,0.1,0,0.2,0,0.2v0.5l0,0.2c0,0,0,0.1,0,0.1l0,0.1c0,0.2,0,0.5,0,0.9v0.4l0,0.1v0.2h0
			c0,0,0,0,0,0c0,0,0,0,0.1,0l0.1,0c0,0,0.1,0,0.2,0c0.1,0,0.2,0,0.2,0c0.1,0,0.1,0,0.2,0c0,0,0.1,0,0.2,0c0.1,0,0.1,0,0.1,0
			c0.1,0,0.2,0,0.3,0.1c0.1,0,0.2,0.1,0.3,0.1c0.1,0,0.2,0.1,0.2,0.1c0,0,0.1,0,0.1,0.1l0,0.1v0l0,0v0c0,0,0,0,0,0.1
			c0,0.1,0,0.2-0.1,0.3l0,0.1c0,0,0,0.1,0,0.1l0,0.1l-0.1,0.2c0,0.1-0.1,0.1-0.2,0.1c0,0-0.1,0-0.1,0c0,0,0,0-0.1,0c0,0,0,0-0.1,0
			c0,0,0,0,0,0l-0.1,0l0,0h0l0,0h0l-0.2,0c0,0-0.1,0-0.1,0c-0.1,0-0.1,0-0.2,0l0,0h0l0,0l0,0l0,0h-0.1l-0.4,0l-0.1,0l0,0h0l-0.1,0
			h-0.1l0,0l-0.4,0H11l-0.1,0c-0.1,0-0.2,0-0.2-0.1v0v0c0,0,0,0,0,0l0-0.1c0-0.1,0-0.2,0-0.3v0l0-0.1c0-0.2,0-0.4,0-0.4
			c0-0.4,0-0.6,0-0.7c0-0.3,0.1-0.4,0.1-0.4V7.5V7.1c0-0.1,0-0.2,0-0.3c0-0.1,0-0.2,0-0.3c0-0.1,0-0.3,0-0.7l0-0.7
			c0-0.4,0-0.6,0-0.7c0-0.1,0-0.3,0-0.3V3.8c0-0.1,0-0.2,0-0.4c0-0.2,0-0.3,0-0.4c0-0.3,0-0.5,0-0.7c0-0.3,0-0.5,0-0.6l0-0.2
			c0-0.2,0-0.3,0-0.5v0c0-0.1,0-0.1,0-0.1l0,0c0,0,0-0.1,0-0.1V0.7l0-0.1c0,0,0-0.1,0-0.1c0,0,0.1-0.1,0.1-0.1H11c0,0,0.1,0,0.2,0
			c0,0,0,0,0.1,0l0.1,0c0,0,0.1,0,0.1,0c0.2,0,0.4,0,0.5,0C11.9,0.3,12,0.4,12,0.4z"/>
		<path class="st0" d="M16.4,0.3c0,0.1-0.1,0.1-0.1,0.3l-0.1,0.3c0,0.1,0,0.1-0.1,0.2v0.2c0,0,0,0.1,0,0.1c0,0,0,0.1,0,0.1
			c0,0.1,0,0.2,0,0.2c0,0.1,0,0.2,0,0.2v0.2c0,0,0,0.2,0,0.4v0.4c0,0,0,0.1,0,0.2c0,0.1,0,0.2,0,0.2v0.2c0,0.1,0,0.1,0,0.2
			c0,0,0,0.1,0,0.1c0,0.1,0,0.1,0,0.2c0,0.1,0,0.3,0,0.5c0,0.2,0,0.3,0,0.3c0,0,0,0.1,0,0.1c0,0.1,0,0.1,0,0.2c0,0.1,0,0.2,0,0.3
			c0,0.2,0,0.3,0,0.3v0.2c0,0,0,0,0,0.1c0,0,0,0.1,0,0.1l0,0.3c0,0.1,0,0.2,0,0.3c0,0.1,0,0.2,0,0.3v0.7c0,0,0,0.1,0,0.2v0.2
			c0,0.1,0,0.2,0,0.3c0,0.2,0,0.3,0,0.3c0,0,0,0.1,0,0.2c0,0.1,0,0.1,0,0.1V9h0c0.1,0,0.3,0,0.5,0c0,0,0.1,0,0.2,0
			c0.1,0,0.1,0,0.1,0c0,0,0,0,0.1,0s0,0,0.1,0h0c0,0,0.1,0,0.1,0h0.3h0.4H18c0.1,0,0.2,0,0.3,0c0.1,0,0.1,0.1,0.1,0.1
			c0,0.2,0,0.3,0,0.3c0,0,0,0,0,0.1v0c0,0,0.1,0.1,0.1,0.1l0,0c0,0.1,0,0.1,0,0.1c0,0,0,0.1,0,0.2c0,0.1-0.1,0.1-0.2,0.2
			c-0.1,0-0.1,0-0.2,0c-0.1,0-0.1,0-0.2,0c-0.1,0-0.1,0-0.2,0h-0.2h-0.1h-0.1l-0.4,0c-0.3,0-0.4,0-0.5,0H16c0,0-0.1,0-0.2,0
			c-0.1,0-0.2,0-0.2,0h-0.1c0,0,0,0,0,0c0,0,0,0,0,0c0,0-0.1,0-0.1,0h0c0,0-0.1,0-0.1,0c0,0-0.1,0-0.1,0c-0.1,0-0.1,0-0.2,0
			c0,0,0,0,0-0.1c0,0,0,0,0,0c0,0,0-0.1,0-0.3c0,0,0-0.1,0-0.1c0,0,0-0.1,0-0.1c0-0.1,0-0.3,0-0.5c0-0.6,0-0.9,0-1c0-0.2,0-0.5,0-1
			c0-0.4,0-0.8,0-1c0-1.7,0-2.6,0.1-2.8c0,0,0-0.1,0-0.2c0-0.1,0-0.1,0-0.2c0-0.1,0-0.2,0-0.3c0-0.3-0.1-0.5-0.1-0.7
			c0-0.2,0-0.4,0-0.7c0-0.1,0-0.2,0-0.3c0-0.1,0-0.2,0-0.3c0-0.1,0-0.1,0-0.2c0,0,0-0.1,0-0.1c0,0,0-0.1,0-0.1c0-0.1,0-0.1,0-0.2
			c0,0,0.1-0.1,0.1-0.1c0,0,0.1,0,0.1,0c0.2,0,0.2,0,0.2,0c0.1,0,0.2,0,0.3,0c0,0,0.1,0,0.3,0H16h0h0c0,0,0,0,0.1,0c0,0,0.1,0,0.1,0
			c0.1,0,0.1,0,0.1,0C16.5,0.1,16.5,0.2,16.4,0.3z"/>
		<path class="st0" d="M24.2,0c0.4,0,0.7,0.2,1,0.5c0.1,0.1,0.1,0.1,0.2,0.2l0.1,0.1l0,0l0,0l0,0.1c0.1,0.1,0.1,0.1,0.1,0.2
			c0,0,0,0.1,0.1,0.1l0,0l0,0c0,0,0,0.1,0,0.1c0,0,0,0.1,0,0.1l0,0.2l0,0.2l0,0.2c0,0.2,0.1,0.3,0.1,0.3l0,0.1v0v0c0,0,0,0.1,0,0.2
			c0,0,0,0,0,0c0,0,0,0-0.1,0l-0.1,0l-0.1,0.1l-0.1,0L25.6,3c0,0,0,0-0.1,0c0,0,0,0-0.1,0c-0.1,0-0.2,0.1-0.2,0.1c0,0,0,0-0.1,0
			c0,0,0,0,0,0l0,0l0-0.1l0,0l0-0.1c0,0,0-0.1,0-0.1c0-0.1,0-0.1,0-0.1c0,0,0-0.1,0-0.1c0-0.1,0-0.1,0-0.1c0-0.1,0-0.2,0-0.2
			s0-0.1,0-0.2c0-0.1,0-0.2-0.1-0.2c-0.1-0.1-0.2-0.2-0.3-0.3l-0.2-0.1c-0.1-0.1-0.1-0.1-0.1-0.1c-0.1,0-0.3,0-0.4,0h0
			c0,0-0.1,0.1-0.1,0.1l-0.1,0.1l0,0l0,0c0,0,0,0,0,0l0,0c0,0,0,0.1-0.1,0.1l0,0.2c0,0.1,0,0.2,0,0.5c0,0.2,0,0.4,0,0.5
			c0,0.1,0,0.3,0.1,0.4c0.1,0.6,0.3,1,0.4,1.2c0,0,0,0,0.1,0.1c0,0.1,0.1,0.1,0.1,0.1l0.1,0.3c0.1,0.2,0.2,0.4,0.3,0.5
			c0.2,0.2,0.3,0.4,0.4,0.6L25,6c0,0,0,0,0.1,0.1c0,0.1,0.1,0.1,0.1,0.2c0.1,0.3,0.2,0.5,0.2,0.5c0.1,0.1,0.1,0.3,0.2,0.6
			c0,0.1,0.1,0.2,0.1,0.3c0,0.1,0,0.1,0,0.2c0,0.1,0.1,0.3,0.1,0.7c0,0.1,0,0.3,0,0.6c0,0.1-0.1,0.3-0.3,0.5
			c-0.1,0.2-0.3,0.3-0.4,0.4l-0.1,0.1c-0.1,0-0.1,0.1-0.1,0.1c0,0,0,0-0.1,0c0,0-0.1,0-0.1,0c-0.1,0-0.1,0-0.1,0h0l0,0l-0.1,0l0,0
			c-0.1,0-0.2,0-0.2,0c-0.1,0-0.2,0-0.3,0h-0.3l0,0c0,0-0.1,0-0.2,0c-0.2-0.1-0.3-0.1-0.4-0.2c-0.2-0.1-0.3-0.2-0.4-0.3
			c-0.1-0.1-0.1-0.2-0.2-0.5c-0.1-0.3-0.1-0.5-0.1-0.5c0,0,0-0.1,0-0.2c0-0.1,0-0.2,0-0.3c0,0,0-0.1,0-0.1c0-0.1,0-0.1,0-0.1
			c0,0,0-0.1,0-0.1c0-0.1,0-0.1,0-0.1c0,0,0-0.1,0-0.2c0-0.1,0-0.2,0-0.2c0,0,0,0,0-0.1c0,0,0,0,0,0l0-0.1c0,0,0-0.1,0-0.1
			c0,0,0.1,0,0.1,0c0.1,0,0.1,0,0.2,0c0.2,0,0.3,0,0.4,0l0.1,0c0.1,0,0.1,0,0.1,0c0,0,0,0,0,0c0,0,0.1,0,0.1,0.1c0,0,0,0.1,0,0.2
			c0,0.1,0,0.2,0,0.2c0,0,0,0.1,0,0.1s0,0.1,0,0.1c0,0,0,0.1,0,0.1c0,0,0,0.3,0.1,0.7c0,0.2,0.1,0.4,0.2,0.5c0,0,0.1,0,0.2,0.1
			c0.2,0,0.3,0,0.3,0c0.1,0,0.3,0,0.4-0.1l0.1,0c0.1-0.1,0.1-0.1,0.2-0.2l0-0.1l0,0v0c0-0.1,0-0.2,0-0.2c0-0.3,0-0.6-0.1-0.9
			c0,0,0-0.1,0-0.1c0,0,0-0.1-0.1-0.2l0-0.1l0-0.1c0,0,0-0.1,0-0.1l0-0.1l0-0.1c-0.1-0.2-0.3-0.4-0.3-0.5c-0.1-0.1-0.1-0.2-0.2-0.3
			c0,0,0-0.1-0.1-0.1c0-0.1-0.1-0.1-0.1-0.1l0-0.1l0-0.1l-0.1-0.1l-0.1-0.2c0,0-0.1-0.1-0.1-0.2c-0.1-0.1-0.1-0.1-0.1-0.1
			c-0.1-0.1-0.2-0.4-0.4-0.7c-0.1-0.2-0.1-0.3-0.2-0.4l0-0.1c-0.1-0.1-0.2-0.3-0.2-0.5c0-0.1,0-0.2-0.1-0.3c0-0.1,0-0.2-0.1-0.3
			c-0.1-0.3-0.1-0.5-0.1-0.7c0-0.2,0-0.4,0-0.7c0-0.1,0.1-0.3,0.2-0.7c0-0.1,0.1-0.2,0.1-0.3c0,0,0-0.1,0-0.1l0.1-0.2
			c0-0.1,0.1-0.1,0.1-0.2c0,0,0-0.1,0.1-0.1l0.1,0L23,0.3c0,0,0.1-0.1,0.3-0.2C23.3,0.1,23.4,0,23.5,0h0.2h0c0,0,0.1,0,0.3,0L24.2,0
			z"/>
		<path class="st0" d="M29.3,0c0.1,0,0.1,0,0.2,0c0.1,0,0.2,0,0.3,0.1l0.3,0.1l0.1,0.1l0.1,0c0.1,0,0.1,0.1,0.2,0.3
			c0.1,0.1,0.1,0.2,0.2,0.4c0,0.1,0.1,0.2,0.1,0.3c0,0.1,0.1,0.2,0.1,0.2C31,1.5,31,1.6,31,1.8l0.1,0.4c0,0.2,0,0.3,0,0.4l0,0.2
			c0,0,0,0,0,0.1c0,0,0,0.1,0,0.1c0,0.1-0.1,0.2-0.2,0.2c0,0-0.1,0-0.1,0c0,0-0.1,0-0.1,0c0,0-0.1,0-0.1,0c0,0-0.1,0-0.1,0
			c0,0-0.1,0-0.2,0h-0.1h0h0c-0.1,0-0.1,0-0.1-0.1c0,0,0,0,0-0.1c0,0,0,0,0-0.1c0,0,0,0,0-0.1c0,0,0,0,0,0c0,0,0,0,0-0.1l0-0.2V2.5
			V2.3l0-0.2l0-0.2c0,0,0,0,0,0c0-0.1-0.1-0.2-0.1-0.2l-0.1-0.2c-0.1-0.1-0.1-0.1-0.2-0.2c0,0-0.1-0.1-0.2-0.1c-0.1,0-0.1,0-0.2,0
			l-0.2,0.1l-0.1,0c0,0,0,0-0.1,0.1l0,0.1c0,0,0,0.1,0,0.2l0,0.2c0,0,0,0.1-0.1,0.3l0,0.2v0c0,0,0,0.1,0,0.1c0,0.1,0,0.1,0,0.1V3
			c0,0,0,0.1,0,0.2s0,0.1,0,0.1v0.4l0,0.1l0,0.2c0,0,0,0.1,0,0.4v0.1v0.1c0,0.6,0,1-0.1,1.3c0,0.1,0,0.4,0,0.7l0,0.7
			c0,0,0,0.1,0,0.3c0,0.2,0,0.3,0,0.3c0,0.2,0,0.4,0,0.6c0,0.1,0,0.2,0,0.2l0,0.1c0,0,0.1,0.1,0.1,0.1l0,0.1l0.1,0l0.1,0.1l0,0
			l0.1,0l0,0l0.1,0.1l0,0l0.1,0h0.1h0.1c0.1,0,0.1,0,0.2-0.1c0.1,0,0.1,0,0.1-0.1L29.6,9c0,0,0-0.1,0-0.1c0-0.1,0-0.1,0-0.1
			c0,0,0,0,0-0.1c0,0,0-0.1,0-0.1c0,0,0-0.1,0-0.1c0-0.1,0-0.1,0-0.2c0,0,0-0.1,0-0.1c0,0,0.1,0,0.1-0.1c0,0,0.1-0.1,0.2,0
			c0,0,0,0,0.1,0c0,0,0.1,0,0.1,0c0,0,0,0,0.1,0h0.1l0.1,0h0.2c0.1,0,0.2,0.1,0.2,0.2l0,0.6c0,0.1,0,0.2,0,0.2c0,0,0,0.1,0,0.1
			c0,0.1,0,0.1,0,0.1c0,0.3-0.1,0.5-0.3,0.6l0,0l0,0l-0.1,0.1l-0.1,0.1c0,0-0.1,0.1-0.3,0.1c-0.2,0.1-0.3,0.1-0.4,0.1h-0.3
			c-0.3,0-0.5,0-0.7-0.1c-0.2,0-0.4-0.1-0.5-0.2c-0.1,0-0.1,0-0.2-0.1c-0.1,0-0.1-0.1-0.2-0.2c0,0-0.1-0.1-0.2-0.3
			c-0.1-0.1-0.1-0.2-0.2-0.3c0-0.1,0-0.2,0-0.3l0-0.3c0-0.1,0-0.3,0-0.4c0-0.1,0-0.2,0-0.3V7.9l0-0.3l0-0.3c0-0.1,0-0.2,0-0.3
			c0-0.1,0-0.2,0-0.3c0-0.2,0-0.3,0-0.3c0-0.3,0-0.4,0-0.4l0-0.3V5.5V5.4c0-0.3,0-0.5,0-0.7c0-0.2,0-0.4,0-0.7c0-0.1,0-0.2,0-0.3
			c0-0.1,0-0.2,0-0.3l0-0.5c0-0.1,0-0.2,0-0.3c0-0.1,0-0.2,0-0.3c0-0.3,0.1-0.5,0.1-0.6c0,0,0-0.1,0.1-0.1c0-0.1,0-0.1,0.1-0.2
			c0-0.1,0.1-0.2,0.1-0.3c0.1-0.2,0.2-0.4,0.3-0.5l0,0c0-0.1,0.1-0.1,0.1-0.2c0.2-0.2,0.3-0.3,0.5-0.3l0.1,0c0,0,0,0,0,0h0
			c0.1,0,0.2-0.1,0.4-0.1h0C29.1,0.1,29.2,0.1,29.3,0L29.3,0z"/>
		<path class="st0" d="M33.2,0L33.2,0c0.1,0,0.2,0,0.2,0c0,0,0,0.1,0,0.1l0.5,0c0.2,0,0.3,0,0.5,0.1c0.1,0,0.2,0.1,0.4,0.1
			c0.2,0,0.3,0.1,0.4,0.1c0.2,0.1,0.3,0.2,0.5,0.4c0.2,0.2,0.3,0.4,0.3,0.6c0.1,0.2,0.1,0.4,0.2,0.6l0.1,0.3c0,0,0,0,0,0v0.1
			c0,0,0,0,0,0.1l0,0.1c0,0,0,0.1,0,0.2l0,0.2c0,0.1,0,0.3,0,0.3c0,0,0,0,0,0.1c0,0,0,0.1,0,0.1l0,0.2l0,0.3c0,0,0,0.2,0,0.3
			c0,0.1,0,0.2,0,0.3c-0.1,0.3-0.2,0.5-0.3,0.6c-0.1,0.1-0.2,0.2-0.2,0.2v0h0l-0.1,0.1l-0.1,0.1l-0.3,0.2C35.2,5.9,35.1,5.9,35,6
			L35,6c0,0,0.1,0.1,0.2,0.2c0,0,0,0,0,0.1c0,0,0,0.1,0.1,0.1c0.1,0.1,0.1,0.1,0.1,0.1c0,0,0,0,0.1,0.1c0,0,0,0.1,0.1,0.1
			c0,0,0,0.1,0,0.1c0.1,0.1,0.1,0.2,0.1,0.3c0.1,0.2,0.1,0.4,0.2,0.6c0,0,0,0.1,0.1,0.1c0,0.1,0,0.1,0.1,0.2c0,0,0,0.1,0.1,0.3
			c0,0.1,0,0.2,0,0.3c0,0.2,0,0.3,0,0.3l0.1,0.4l0.1,0.3l0.1,0.3c0,0.1,0,0.1,0,0.2l0,0c0,0.1,0,0.2,0,0.2c0,0.1-0.1,0.2-0.2,0.2
			h-0.1c0,0-0.1,0-0.2,0c0,0-0.1,0-0.1,0c0,0-0.1,0-0.1,0c0,0-0.1,0-0.1,0c0,0,0,0-0.1,0l-0.1,0c0,0,0,0-0.1,0c-0.1,0-0.1,0-0.1,0
			c-0.1,0-0.1-0.1-0.1-0.2v0l0-0.1v0v-0.1V10c0,0,0,0,0-0.1c0-0.1,0-0.1,0-0.1V9.7C35.1,9.4,35,9.2,35,9.1c0-0.2-0.1-0.4-0.1-0.6
			c0-0.1-0.1-0.3-0.1-0.6c-0.1-0.3-0.1-0.5-0.1-0.6c-0.1-0.2-0.2-0.4-0.2-0.5c0-0.1-0.1-0.1-0.2-0.2C34.1,6.6,34,6.6,34,6.6
			c0,0-0.1,0-0.2,0c-0.1,0-0.2,0-0.3,0h-0.1l0,0l0,0.1v0.1l0,0.3c0,0,0,0.1,0,0.1c0,0.1,0,0.1,0,0.1v0.3l0,0.6v0.3v0.3l0,0.5v0.1v0
			c0,0.1,0,0.2,0,0.2c0,0.1,0,0.2,0,0.3c0,0,0,0.1,0,0.1v0.1c0,0,0,0.1,0,0.1c0,0,0,0.1,0,0.1c0,0,0,0.1-0.1,0.1c-0.1,0-0.2,0-0.3,0
			c0,0-0.1,0-0.3,0h-0.3c0,0-0.1,0-0.1,0c-0.1,0-0.1,0-0.1,0l0,0c-0.1,0-0.1,0-0.1-0.1l0,0l0,0v-0.1c0,0,0-0.1,0-0.2
			c0-0.1,0-0.1,0-0.1c0-0.1,0-0.2,0-0.3c0,0,0-0.1,0-0.1c0-0.1,0-0.1,0-0.2c0,0,0-0.1,0-0.1c0-0.1,0-0.1,0-0.1V8.8V8.6
			c0-0.1,0-0.2,0-0.3c0-0.1,0-0.2,0-0.3c0,0,0-0.1,0-0.1l0-0.1c0,0,0-0.1,0-0.1c0-0.1,0-0.1,0-0.1l0-0.3V7l0-0.1c0,0,0-0.1,0-0.1
			V6.7V6.6c0-0.1,0-0.2,0-0.3c0-0.1,0-0.3,0-0.6V5.3c0,0,0-0.1,0-0.1l0-0.1c0,0,0-0.1,0-0.1V4.3V3.6c0-0.1,0-0.3,0-0.7l0-0.3
			c0,0,0-0.1,0-0.2c0-0.1,0-0.1,0-0.2c0-0.2,0-0.5,0-0.7c0-0.3,0-0.5,0-0.6l0-0.3c0-0.1,0-0.1,0-0.2c0,0,0,0,0-0.1v0l0-0.1
			c0,0,0,0,0,0s0,0,0,0c0,0,0.1-0.1,0.2-0.1c0.1,0,0.3,0,0.5,0H33.2z M33.5,1.2c0,0,0,0.1,0,0.1v0.1c0,0.1,0,0.1,0,0.2
			c0,0.1,0,0.1,0,0.2c0,0.1,0,0.1,0,0.2c0,0,0,0.1,0,0.2v0.1l0,0.3c0,0.2,0,0.2,0,0.3c0,0.1,0,0.2,0,0.3c0,0,0,0.1,0,0.1
			c0,0.1,0,0.1,0,0.1l0,0.1l0,0.1v0.6v0.6c0,0.1,0,0.2,0,0.3l0,0.1l0,0l0.1,0l0.4,0l0.1,0l0.2-0.1c0,0,0.1-0.1,0.1-0.1
			S34.5,5,34.5,5l0.2-0.1c0,0,0.1-0.1,0.1-0.2c0,0,0,0,0.1-0.1c0,0,0.1,0,0.1-0.1l0,0l0-0.2c0,0,0,0,0-0.1V4.2V4.2V4.1l0-0.3
			c0-0.1,0-0.3,0-0.6c0-0.2,0-0.4,0-0.6c0-0.2-0.1-0.4-0.1-0.6s-0.2-0.3-0.3-0.4c-0.1-0.1-0.2-0.2-0.4-0.3c0,0-0.2,0-0.4,0
			C33.7,1.3,33.6,1.2,33.5,1.2L33.5,1.2z"/>
		<path class="st0" d="M40.6,0.3c0.1,0,0.2,0,0.3,0l0,0c0,0,0,0,0.1,0c0,0.1,0,0.1,0,0.2v0.2v0.1C41,1,41,1,41,1c0,0.1,0,0.2,0,0.2
			c0,0.1-0.1,0.1-0.2,0.1h-0.1l-0.1,0c0,0,0,0-0.1,0c0,0-0.1,0-0.1,0l0,0c-0.1,0-0.1,0-0.2,0c-0.1,0-0.1,0-0.2,0h0l-0.1,0l0,0h-0.1
			h0c-0.1,0-0.2,0-0.4,0c-0.1,0-0.3,0-0.5,0h0l-0.1,0l-0.1,0.1l-0.1,0.2l0,0.2c0,0.5,0,1,0,1.4c0,0.2,0,0.4,0,0.7c0,0.3,0,0.5,0,0.7
			v0.2h0.1c0,0,0.1,0,0.2,0C39,5,39,5,39.1,5c0,0,0.1,0,0.2,0c0.1,0,0.2,0,0.2,0c0,0,0.1,0,0.2,0h0.1c0,0,0,0,0,0c0,0,0,0,0,0l0.1,0
			c0.1,0,0.1,0,0.1,0.1c0,0,0,0,0,0.1v0c0,0,0,0.1,0,0.1c0,0.1,0,0.1,0,0.2v0.3c0,0,0,0.1-0.1,0.1c-0.1,0-0.2,0-0.3,0l-0.1,0h-0.1
			l-0.1,0h-0.1c-0.1,0-0.2,0-0.2,0C39,6,39,6,38.9,6h-0.4v0.2l0,0.8c0,0,0,0.1,0,0.2c0,0.1,0,0.2,0,0.2v0l0,0.3V8v0.1l0.1,0.4
			c0,0,0,0.1,0,0.2c0,0.1,0,0.1,0,0.2c0,0.1,0,0.1,0,0.2c0,0,0,0,0,0.1c0,0.1,0,0.1,0,0.1l0.2,0h0.1l0.2,0l0.9,0h0.3
			c0.1,0,0.2,0,0.2,0l0.1,0l0,0c0.1,0,0.2,0,0.2,0.1v0.3c0,0,0,0.1,0,0.1c0,0,0,0.1,0,0.1c0,0.1-0.1,0.1-0.2,0.2l-0.1,0
			c0,0-0.1,0.1-0.3,0.1c-0.1,0-0.4,0-0.6,0l-0.7,0c0,0-0.1,0-0.1,0c-0.1,0-0.1,0-0.1,0c0,0,0,0-0.1,0l-0.1,0c-0.1,0-0.3,0-0.4,0
			c-0.1,0-0.1,0-0.2,0c0,0-0.1,0-0.1-0.1c-0.1,0-0.2-0.1-0.2-0.2c0-0.1,0-0.2,0-0.3s0-0.2,0-0.4c0-0.1,0-0.2,0-0.3l0-0.5
			c0-0.1,0-0.2,0-0.3l0-0.3c0-0.1,0-0.3-0.1-0.6c0-0.2,0-0.4-0.1-0.5c0-0.2,0-0.6,0-1.1V5.5c0-0.2,0-0.3,0-0.5c0-0.2,0-0.3,0-0.4
			c0,0,0-0.2,0-0.6l0-0.5l0-0.1c0,0,0-0.1,0-0.2c0-0.1,0-0.2,0-0.2c0-0.1,0-0.2,0-0.2l0-0.2c0-0.1,0-0.2,0-0.2V1.9
			c0-0.3,0-0.5,0-0.5c0-0.1,0-0.2,0-0.2V1.1V1l0-0.1l0-0.1l0-0.1c0,0,0-0.1,0-0.1c0,0,0.1-0.1,0.2-0.1c0.1,0,0.1-0.1,0.2,0
			c0,0,0.1,0,0.1,0s0.1,0,0.2,0l0.1,0h0.1c0.1,0,0.2,0,0.4,0c0.2,0,0.3,0,0.3,0l0.4,0c0.2,0,0.3,0,0.4,0c0,0,0.2,0,0.4,0l0.2,0
			L40.6,0.3L40.6,0.3z"/>
		<path class="st0" d="M45.6,0.1C45.6,0.1,45.7,0.1,45.6,0.1C45.7,0.1,45.7,0.1,45.6,0.1C45.7,0.2,45.7,0.2,45.6,0.1
			c0.1,0.1,0.1,0.1,0.1,0.1v0c0,0,0,0,0,0.1l0,0.1l0.1,0.2c0,0,0,0.1,0,0.2c0,0.1,0,0.1-0.1,0.1l0,0h0l0,0h0l-0.1,0h0
			c-0.1,0-0.2,0-0.2,0.1c-0.2,0-0.2,0-0.3,0c0,0-0.1,0-0.1,0h-0.1c0,0-0.1,0-0.1,0c0,0-0.1,0-0.1,0h-0.1h-0.2c0,0,0,0-0.1,0
			c0,0-0.1,0-0.1,0H44h-0.2c-0.1,0-0.2,0-0.3,0l-0.1,0c0,0-0.1,0-0.1,0l-0.1,0l0,0.5v0.2v0.1V2l0,0.3v0.6V3c0.1,0.3,0.1,0.5,0.1,0.7
			c0,0.1,0,0.2,0,0.4h0.1l0.2,0l0.2,0h0l0,0h0l0.2,0h0.1l0.2,0l0.1,0l0.1,0l0,0l0,0l0.1,0l0,0l0,0.1c0.1,0,0.2,0,0.3,0
			c0,0,0.1,0,0.1,0h0c0,0,0.1,0,0.2,0c0,0,0.1,0,0.1,0.1c0,0,0,0,0,0l0,0c0,0,0,0.1,0,0.1c0,0.1,0,0.1,0,0.2l0,0.2v0.2v0
			c0,0.1-0.1,0.1-0.1,0.1c-0.1,0-0.2,0-0.3,0c-0.1,0-0.2,0-0.3,0l-0.3,0c0,0-0.1,0-0.1,0c-0.1,0-0.1,0-0.1,0h-0.6l-0.2,0h-0.1h-0.1
			l0,0l0,0.2c0,0,0,0.1,0,0.2c0,0.1,0,0.1,0,0.2c0,0.1,0,0.4,0,0.7c0,0.2,0,0.4-0.1,0.7l0,0.4v0.2v0.2c0,0,0,0.1,0,0.1v0.1v0v0v0
			l0,0.2l0,0.2v0.1v0v0v0.1l0,0.2l0,0.1V9v0.2l0.2,0c0.1,0,0.2,0,0.3,0c0.1,0,0.1,0,0.2,0c0.1,0,0.2,0,0.2,0c0.1,0,0.2,0,0.2,0
			l0.1,0h0.1l0.1,0h0.2c0.1,0,0.3,0,0.3-0.1l0.1,0l0,0h0.1l0.3,0h0c0,0,0.1,0,0.1,0.1v0l0,0l0,0l0,0.1v0l0,0.2l0,0.4V10v0l0,0v0
			l0,0.1v0c0,0-0.1,0.1-0.1,0.1l0,0l-0.3,0l-0.2,0l-0.2,0c0,0-0.2,0-0.4,0c-0.2,0-0.3,0-0.4,0l-0.2,0l-0.1,0h0h0h0l-0.3,0.1h0
			c0,0-0.1,0-0.1,0c-0.2,0.1-0.3,0.1-0.3,0.1l-0.1,0c0,0-0.1,0-0.1,0c0,0-0.1,0-0.1,0c-0.1,0-0.2-0.1-0.3-0.1l-0.1-0.1l-0.1,0l0,0
			c0,0,0,0,0,0c-0.1,0-0.1,0-0.1-0.1c0,0,0,0,0,0c0-0.2,0-0.3,0-0.3c0,0,0-0.1,0-0.1c0,0,0-0.1,0-0.1l0-0.3c0-0.2,0-0.4,0-0.5
			c0,0,0-0.1,0-0.2c0-0.1,0-0.2,0-0.3c0-0.2,0-0.3,0.1-0.5c0-0.3,0.1-0.4,0.1-0.5l0-0.5c0-0.2,0-0.4,0-0.5V5.9l0,0V5.8v0l0-0.3
			c0-0.1,0-0.2,0-0.4c0-0.2,0-0.3,0-0.3c0-0.1,0-0.1,0-0.2c0-0.1,0-0.1,0-0.2c0-0.1,0-0.1,0-0.2c0-0.1,0-0.1,0-0.2
			c0-0.2,0-0.4,0-0.7c0-0.3-0.1-0.5-0.1-0.6c0-0.2,0-0.3,0-0.4c0,0,0-0.1,0-0.2c0-0.1,0-0.1,0-0.2l0-0.3c0,0,0-0.1,0-0.1V1.6
			c0-0.1,0-0.2,0-0.4V1c0-0.3,0-0.5,0.1-0.6c0-0.1,0.1-0.1,0.2-0.1c0.1,0,0.1-0.1,0.2-0.1c0.1,0,0.1,0,0.3,0c0.1,0,0.2,0,0.3,0
			c0.1,0,0.2,0,0.3,0l0.2,0c0.1,0,0.2,0,0.3,0l0.3,0h0l0.7,0h0.1l0.3-0.1l0.1,0h0h0h0.1H45.6L45.6,0.1z"/>
		<path class="st0" d="M51.3,0.3C51.4,0.3,51.4,0.3,51.3,0.3c0.1,0,0.1,0,0.1,0l0.1,0c0.1,0,0.1,0,0.2,0.1c0,0,0,0.1,0,0.1
			c0,0.1,0,0.1,0,0.2c0,0.1,0,0.1,0,0.1l0,0.5c0,0.1,0,0.3,0,0.5c0,0.2,0,0.4,0,0.5c0,0,0,0.2,0,0.4c0,0.3,0,0.4,0,0.6
			c0,0.4,0,0.7,0,1c0,0.2,0,0.6,0,1.4v0.7c0,0.1,0,0.3,0,0.4l0,0.3c0,0.3,0,0.7,0,1.4l0,0.7v0.4l0,0.1c0,0,0.1,0.1,0.1,0.1
			c0,0,0,0.1,0.1,0.1c0,0.1,0,0.1,0.1,0.1c0,0,0,0.1,0,0.1c0,0,0,0.1,0,0.1c0,0-0.1,0-0.1,0h-0.1v0c0,0.1,0,0.1-0.1,0.2
			c0,0-0.1,0-0.2,0h-0.3c-0.1,0-0.1,0-0.3,0c0,0-0.1,0-0.1,0h-0.1c-0.1,0-0.1-0.1-0.1-0.1c0,0,0-0.1,0-0.2c0,0,0-0.1,0-0.1l0,0
			l0-0.1l-0.1-0.1c-0.1-0.1-0.1-0.2-0.1-0.3c0,0,0-0.1-0.1-0.3c0-0.1-0.1-0.2-0.1-0.3c-0.1-0.2-0.2-0.4-0.2-0.5
			c0-0.1-0.1-0.3-0.2-0.6c0-0.1-0.1-0.2-0.1-0.3c0-0.2-0.1-0.2-0.1-0.3c-0.1-0.3-0.2-0.5-0.2-0.5C49.1,6.4,49,6.2,49,6.2
			S48.9,6,48.9,5.8c0-0.1-0.1-0.2-0.1-0.3c0-0.1-0.1-0.2-0.1-0.3c0-0.1-0.1-0.2-0.1-0.3l-0.2-0.6c-0.1-0.3-0.2-0.5-0.2-0.6l-0.1-0.5
			C48,3,48,2.8,47.9,2.7l0-0.1v0.6c0,0.1,0,0.3,0,0.4c0,0.2,0,0.3,0,0.5c0,0.2,0,0.3,0,0.4c0,0.1,0,0.4,0,0.7c0,0.3,0,0.5,0,0.7
			c0,0.1,0,0.4,0.1,0.7s0.1,0.5,0.1,0.7V8c0,0.2,0,0.4,0,0.7c0,0.2,0,0.5,0,0.7l0,0.5c0,0.1,0,0.2,0,0.2c0,0,0,0.1,0,0.3
			c0,0-0.1,0.1-0.2,0.1l-0.3,0c0,0-0.1,0-0.1,0h-0.1c-0.2,0-0.3,0-0.4,0c-0.2,0-0.2,0-0.3,0l0,0l0,0c0,0,0,0,0-0.1c0,0,0,0,0-0.1
			c0,0,0,0,0-0.1l0,0l0-0.1c0-0.1,0-0.1,0-0.2c0-0.1,0-0.3,0-0.6c0-0.1,0-0.2,0-0.3l0-0.3c0-0.1,0-0.3,0-0.6c0-0.6,0-0.9,0-1.1
			l0-1.1c0-0.4,0-0.9,0-1.4c0-0.1,0-0.2,0-0.4c0-0.2,0-0.3,0-0.3c0-0.1,0-0.3,0-0.7c0-0.2,0-0.4,0-0.7c0-0.3,0-0.5,0-0.7
			c0-0.2,0-0.4,0-0.6V0.7c0,0,0-0.1,0-0.1c0-0.1,0-0.1,0-0.1c0-0.1,0.1-0.1,0.2-0.1c0,0,0.1,0,0.1,0c0.1,0,0.2,0,0.3,0
			c0.2,0,0.4,0,0.5,0l0.3,0.1c0,0,0.1,0,0.1,0.1c0,0,0,0,0.1,0c0,0,0.1,0.1,0.1,0.1c0,0,0.1,0.1,0.1,0.1c0,0,0,0.1,0.1,0.2
			c0,0.1,0,0.1,0.1,0.2c0,0,0,0.1,0,0.2c0,0.1,0,0.1,0,0.1c0.1,0.3,0.2,0.5,0.2,0.5C49,2.2,49,2.4,49,2.4l0.3,1l0,0.1l0.1,0.2
			l0.1,0.1l0,0.1l0.1,0.2l0,0.1l0,0.1l0,0l0.1,0.3c0,0,0,0.1,0,0.1c0,0.1,0,0.1,0.1,0.2c0.1,0.2,0.1,0.5,0.2,0.6
			c0,0.1,0.1,0.3,0.2,0.6c0,0,0.1,0.2,0.2,0.5c0.1,0.3,0.2,0.5,0.3,0.8v0V7.1c0-0.1,0-0.2,0-0.4c0-0.2,0-0.3,0-0.5
			c0-0.1,0-0.3,0-0.4c0,0,0-0.2-0.1-0.6c0-0.2,0-0.4,0-0.7c0-0.6,0.1-1,0-1.3c0-0.1,0-0.3,0-0.4l0-0.5c0-0.2,0-0.3,0-0.4
			c0-0.1,0-0.2,0-0.3V1.2V1V0.8c0-0.2,0-0.3,0-0.3s0,0,0,0l0,0c0,0,0,0,0,0c0,0,0,0,0,0c0,0,0,0,0,0l0.1,0c0.1-0.1,0.2-0.1,0.3-0.1
			C51.2,0.3,51.3,0.3,51.3,0.3z"/>
	</g>
	<g>
		<g>
			<path class="st1" d="M4.3,4.6C4.3,4.6,4.3,4.6,4.3,4.6C4.3,4.7,4.3,4.7,4.3,4.6c0,0.1,0,0.1,0,0.1c0,0,0,0,0,0
				c0,0.1-0.1,0.1-0.2,0.1c0,0-0.1,0-0.1,0c0,0-0.1,0-0.1,0L3.6,5C3.5,5,3.3,5.1,3.2,5.1C3,5.1,2.9,5.1,2.8,5.1c0,0-0.1,0-0.1,0
				c-0.1,0-0.1,0-0.1,0c0,0-0.1,0-0.2,0c-0.1,0-0.2,0-0.3,0c0,0.2,0,0.4,0.1,0.6c0,0.2,0,0.4,0,0.5c0,0.1,0,0.3,0,0.6
				c0,0.3,0,0.5,0,0.6v0.5l0,0.3c0,0.1,0,0.2,0,0.3c0,0.1,0,0.2,0,0.2c0,0.1,0,0.1,0,0.2c0,0.1,0,0.2,0,0.2v0.3c0,0.1,0,0.3,0,0.4
				c0,0.1,0,0.2,0,0.3c0,0.2-0.2,0.2-0.5,0.2H1.2l-0.3,0c0,0,0,0-0.1,0c0,0-0.1,0-0.1,0c-0.1,0-0.2-0.1-0.3-0.2
				c0.6,0,0.9-0.1,1.1-0.3C1.6,10,1.6,9.8,1.7,9.4V8.7c0-0.1,0-0.2,0-0.5c0-0.2,0-0.4,0-0.5c0-0.1,0-0.3,0-0.5c0-0.2,0-0.4,0-0.5
				V5.9l0-0.5l0-0.2l0-0.1c0,0,0,0,0,0c0,0,0,0,0,0c0.3,0,0.5-0.1,0.9-0.1c0.4,0,0.6-0.1,0.8-0.2c0.3-0.1,0.4-0.1,0.5-0.3
				c0.1-0.1,0.1-0.2,0-0.3c0,0,0-0.1-0.1-0.3l0-0.1c0,0,0.1,0.1,0.2,0.2l0.1,0.1c0,0,0,0.1,0,0.1c0,0,0,0.1,0,0.1c0,0,0,0.1,0,0.1
				c0,0,0,0.1,0,0.1c0,0,0,0,0,0.1c0,0.1,0,0.1,0,0.1C4.3,4.5,4.3,4.6,4.3,4.6z M4.7,1.6c-0.1,0-0.1,0-0.2,0c-0.1,0-0.2,0-0.3,0
				c-0.1,0-0.2,0-0.3,0s-0.2,0-0.2,0c0,0-0.1,0-0.1,0c-0.1,0-0.1,0-0.1,0H3.1c-0.1,0-0.2,0-0.3,0c-0.2,0-0.4,0-0.6,0
				C2,1.6,2,1.6,2,1.6l0,0.1l0,0.1C1.8,2,1.8,2.2,1.8,2.2L1.7,2.3c0,0,0,0,0,0c0,0,0,0,0,0c0,0,0,0,0,0.1c0,0,0,0,0,0
				c0,0.1,0,0.2,0,0.4c0,0.2,0,0.3,0,0.4c-0.1,0-0.3,0-0.4,0.1L1.4,2.5c0,0,0-0.1,0-0.2c0-0.1,0-0.2,0-0.3c0-0.1,0-0.2,0-0.2
				c0,0,0-0.1,0-0.2c0-0.1,0-0.1,0-0.2c0,0,0-0.1,0.1-0.1h0.9c0.1,0,0.2,0,0.4,0c0.2,0,0.3,0,0.4,0c0,0,0.1,0,0.3,0
				c0.2,0,0.3,0,0.3,0c0.2-0.1,0.3-0.2,0.3-0.5c0,0,0-0.1,0-0.2c0-0.1,0-0.1,0-0.2c0-0.2,0-0.4,0-0.4c0,0,0.1,0.1,0.2,0.2l0.1,0
				c0,0,0.1,0.1,0.1,0.1c0,0,0,0,0,0c0,0,0,0,0,0.1c0,0,0,0,0,0.1l0,0.1v0.2l0,0.2c0,0,0,0.1,0,0.2s0,0.1,0,0.2
				C4.7,1.6,4.7,1.6,4.7,1.6z"/>
			<path class="st1" d="M6.6,6c0-0.1,0-0.3,0-0.4V5.3V4.9V4.5c0-0.2,0-0.6,0-1s0-0.7,0-0.9c0-0.1,0-0.3,0-0.6c0-0.3,0-0.5,0-0.7
				c0-0.2,0-0.4,0-0.6c0-0.2-0.1-0.3-0.1-0.4c0,0,0.1,0,0.1,0.1c0.1,0,0.1,0.1,0.1,0.1c0,0,0.1,0.1,0.1,0.1c0,0,0,0,0,0.1
				c0,0,0,0.1,0,0.1l0,0.1C6.9,1,7,1.2,7,1.4c0,0.1,0,0.4,0,0.9c0,0.5,0,0.8,0,0.9v1l0,0.5c0,0.3,0,0.5,0,0.5c0,0,0,0.2,0,0.3v0.4
				c0,0.3,0,0.6,0,0.7c0,0.1,0,0.2,0.1,0.5v0.1v0.9c0,0.2,0,0.4,0,0.6c0,0.2,0,0.3,0,0.3c-0.2,0-0.3,0-0.3,0c0,0-0.1-0.1-0.1-0.2
				c0-0.1,0-0.2,0-0.4c0-0.3-0.1-0.6-0.1-0.9c0-0.4,0-0.7,0-1C6.7,6.2,6.6,6.1,6.6,6z M10.1,6.1c0,0.5,0,0.8,0,0.9
				c0,0.1,0,0.2-0.1,0.3c0,0.1,0,0.2-0.1,0.3v0.2v0.4c0,0.5,0,0.8,0,0.9c0,0.1,0,0.2,0,0.3c0,0.1,0,0.2,0,0.3c0,0.1,0,0.2-0.1,0.3
				c-0.1,0.2-0.3,0.4-0.6,0.5c-0.3,0.2-0.6,0.3-0.9,0.3c-0.2,0-0.5,0-0.9,0c-0.1,0-0.2,0-0.4-0.1c-0.1,0-0.1,0-0.1,0h0
				c-0.1,0-0.2-0.1-0.3-0.2c1,0.1,1.8,0,2.4-0.5c0.3-0.2,0.5-0.6,0.5-1c0-0.4,0.1-0.8,0.1-1.4c0-0.3,0-0.4,0-0.5c0,0,0-0.1,0-0.2
				c0-0.1,0-0.2,0-0.2c0.1-0.3,0.1-0.6,0.1-1c0-0.1,0-0.3,0-0.5V4.7c0-0.2,0-0.5,0-1c0-0.3,0-0.9,0-1.8c0-0.4,0-0.8,0-0.9
				c0-0.2,0-0.3,0-0.5c0,0,0-0.1,0-0.1c0-0.1,0-0.1,0-0.1c0,0,0.1,0,0.1,0.1l0.1,0.1c0,0,0.1,0,0.1,0.1C10,0.5,10,0.6,10,0.7
				c0,0,0,0,0,0.1c0,0,0,0.1,0,0.1c0,0.1,0,0.2,0,0.3c0,0,0,0.1,0,0.1c0,0,0,0.1,0,0.1c0,0,0,0.1,0,0.1v0.3c0,0.1,0,0.2,0,0.4
				c0,0.2,0,0.3,0,0.4c0,0.2,0,0.4,0,0.7v0.4c0,0,0,0.1,0,0.1c0,0,0,0.1,0,0.1C10,4,10,4,10,4c0,0.1,0,0.1,0,0.2v0.2v0.2
				c0,0.1,0,0.2,0,0.2c0,0.1,0,0.2,0,0.2v0v0c0,0.1,0,0.2,0,0.4C10.1,5.9,10.1,6,10.1,6.1L10.1,6.1z"/>
			<path class="st1" d="M14.6,10.2l0,0.1c0,0.1,0,0.1,0,0.1l-0.1,0.4L14.4,11c0,0.1-0.1,0.1-0.2,0.1c0,0-0.1,0-0.1,0
				c0,0-0.1,0-0.1,0l-0.1,0c0,0-0.1,0-0.1,0c0,0-0.1,0-0.1,0c0,0-0.1,0-0.1,0c0,0-0.1,0-0.3,0c-0.1,0-0.1,0-0.1,0
				c-0.2,0-0.4,0-0.6-0.1h0c-0.1,0-0.3,0-0.6,0h-0.2c0,0-0.1,0-0.1,0c0,0,0,0,0,0l0,0c0,0,0,0-0.1,0c0,0,0,0-0.1-0.1l0,0
				c0,0-0.1-0.1-0.1-0.1c0.3,0,0.4,0,0.5,0c0.1,0,0.1,0,0.2,0c0.1,0,0.2,0,0.2,0.1c0.2,0,0.5,0.1,1,0.1c0,0,0.1,0,0.2,0.1
				s0.2,0.1,0.2,0.1c0.1,0,0.2,0,0.3-0.1c0.2-0.1,0.4-0.4,0.4-0.8c0-0.1,0-0.3,0-0.4c0,0,0,0,0.1,0.1c0,0,0.1,0.1,0.1,0.1
				c0.1,0,0.1,0.1,0.2,0.1C14.6,10,14.6,10.1,14.6,10.2L14.6,10.2z M12.1,8.9V8.7c0-0.4,0-1,0.1-1.9c0-0.9,0.1-1.5,0.1-2
				c0-0.2,0-0.6,0-1.1c0-0.5,0-0.8,0-0.8c0-0.4,0-0.7,0-1c0-0.6-0.1-0.9-0.1-0.9c0-0.1,0-0.3,0-0.3c0,0,0,0,0.1,0h0.1l0.1,0
				c0.1,0,0.1,0.1,0.1,0.1c0,0,0,0.1,0.1,0.2c0,0,0,0,0,0c0,0,0,0,0,0.1c0,0,0,0,0,0c0,0,0,0,0,0c0,0.1,0,0.2,0,0.2v0.2v0.2l0,0.3
				c0,0,0,0.1,0,0.1s0,0.1,0,0.1c0,0,0,0.1,0,0.1c0,0,0,0.1,0,0.1c0,0.1,0,0.5,0,0.9c0,0.2,0,0.5,0,1c0,0.3,0,0.4,0,0.5
				c0,0,0,0,0,0.1c0,0,0,0,0,0.1c0,0,0,0,0,0.1c0,0,0,0,0,0.1v0.3v0.2v0.1c0,0,0,0.1,0,0.1c0,0,0,0.1,0,0.1c0,0,0,0.1,0,0.1
				c0,0.1,0,0.2,0,0.2c0,0,0,0,0,0.1c0,0,0,0.1,0,0.1l0,0.2l0,0.3v0.2v0.2c0,0.2,0,0.4,0,0.5c0,0.2,0,0.5,0,1
				C12.4,8.9,12.2,8.9,12.1,8.9z"/>
			<path class="st1" d="M19.1,10.2L19.1,10.2c0,0.1,0,0.1,0,0.1c0,0,0,0.1,0,0.1c0,0.1-0.1,0.1-0.1,0.1c0,0-0.2,0.1-0.3,0.1h-0.1
				c0,0-0.1,0-0.1,0c0,0-0.1,0-0.1,0h-0.4c0,0,0,0-0.1,0c0,0-0.1,0-0.1,0c0,0-0.1,0-0.1,0c0,0-0.1,0-0.1,0c0,0-0.1,0-0.1,0
				c0,0-0.1,0-0.1,0c0,0-0.1,0-0.1,0c-0.1,0-0.3,0-0.5,0c-0.2,0-0.4,0-0.4,0c-0.1,0-0.2,0-0.2,0c0,0-0.1,0-0.1,0c-0.1,0-0.1,0-0.1,0
				c-0.1,0-0.2,0-0.2,0c0,0-0.1,0-0.1-0.1c-0.1-0.1-0.1-0.1-0.1-0.1c0-0.1-0.1-0.1-0.1-0.1c0.1,0,0.2,0,0.3,0c0.1,0,0.2,0,0.3,0
				c0.1,0,0.2,0,0.3,0c0.1,0,0.2,0,0.3,0c0.3,0,0.5,0,0.6,0c0.2,0,0.4,0,0.6,0h0.1h0.1c0,0,0.1,0,0.1,0c0.1,0,0.1,0,0.1,0
				c0,0,0.1,0,0.1,0c0.1,0,0.1,0,0.1,0c0,0,0.1,0,0.1-0.1c0,0,0.1-0.1,0.1-0.1c0-0.1,0.1-0.2,0.1-0.3c0-0.2,0-0.3,0-0.4
				c0-0.1,0-0.2,0-0.4c0,0,0.1,0,0.1,0.1c0.1,0,0.1,0.1,0.1,0.1c0,0,0,0,0.1,0.1c0,0,0,0,0.1,0c0,0,0,0.1,0,0.1v0.1l0,0.2
				c0,0.1,0,0.2,0,0.2c0,0,0,0,0,0c0,0,0,0,0,0C19.1,10.1,19.1,10.1,19.1,10.2z M16.3,8.4c0-0.2,0-0.3,0-0.4c0-0.1,0-0.2,0-0.4
				c0-0.2,0-0.3,0-0.4c0-0.4,0-1,0-1.8c0-0.3,0-0.7,0.1-0.9c0-0.4,0.1-0.6,0-0.8l0-0.1c0,0,0,0,0-0.1c0-0.1,0-0.1,0-0.2l0-0.4
				c0-0.4,0-0.7,0-0.9c0-0.2,0-0.5,0.1-0.9c0-0.2,0-0.3,0.1-0.4c0,0,0.1-0.1,0.1-0.3l0-0.1c0,0,0.1,0.1,0.1,0.1
				c0.1,0,0.1,0.1,0.1,0.1c0.1,0.1,0.2,0.1,0.2,0.2c0,0,0,0.1,0,0.1c0,0-0.1,0.1-0.1,0.1l0,0.2c0,0.1,0,0.1,0,0.2
				c-0.1,0.2-0.1,0.3-0.1,0.3v0.1c0,0.1,0,0.2,0,0.3c0,0,0,0,0,0.1c0,0,0,0.1,0,0.1c0,0,0,0.1,0,0.1c0,0,0,0.1,0,0.2s0,0.2,0,0.2V3
				c0,0.1,0,0.2,0,0.4c0,0.2,0,0.3,0,0.4c0,0.1,0,0.2,0,0.2c0,0,0,0.1,0,0.1v0.1c0,0.1,0,0.1,0,0.2c0,0.1,0,0.3,0,0.5
				c0,0,0,0.1,0,0.1c0,0,0,0.1,0,0.1c0,0,0,0.1,0,0.1c0,0,0,0.1,0,0.1c0,0.1,0,0.3,0,0.5c0,0,0,0.1,0,0.2c0,0.1,0,0.2,0,0.2
				c0,0,0,0.2,0,0.5c0,0.2,0,0.6,0,1.1c0,0.2,0,0.3,0,0.3c0,0.1,0,0.2,0,0.3c0,0.1,0,0.2,0,0.3c-0.2,0-0.4,0-0.4,0
				C16.3,8.7,16.3,8.5,16.3,8.4z"/>
			<path class="st1" d="M23.5,8.3c0-0.4,0-0.7-0.1-0.8c0,0,0,0,0.1,0.1l0.1,0.1c0.1,0,0.1,0.1,0.2,0.2c0.1,0,0.1,0.1,0.1,0.2v0.2
				c0,0.3,0,0.7,0.1,1.2c-0.2,0-0.3-0.1-0.4-0.3C23.5,8.9,23.5,8.7,23.5,8.3L23.5,8.3L23.5,8.3z M26.4,8.6c0,0.1,0,0.2,0,0.2
				c0,0.3,0.1,0.6,0.1,0.9c0,0.2-0.1,0.4-0.4,0.7c-0.1,0.1-0.2,0.2-0.5,0.4c-0.1,0-0.2,0.1-0.5,0.2c-0.2,0.1-0.4,0.1-0.6,0.1h-0.2
				h-0.1c0,0-0.1,0-0.2,0L23.8,11c-0.1,0-0.2-0.1-0.4-0.2c0.2,0,0.5,0,0.9,0c0.3,0,0.5-0.1,0.8-0.2c0.2-0.1,0.4-0.3,0.6-0.5
				c0.2-0.2,0.3-0.4,0.4-0.6c0.1-0.2,0.1-0.4,0.1-0.7c0-0.3-0.1-0.6-0.1-0.9c-0.1-0.6-0.3-1.2-0.6-1.6c-0.1-0.1-0.1-0.2-0.2-0.3
				C25.1,5.8,25,5.7,25,5.6c-0.1-0.1-0.2-0.2-0.2-0.3c-0.1-0.1-0.2-0.2-0.2-0.4c-0.4-0.7-0.6-1.2-0.7-1.5c-0.1-0.5-0.2-1-0.1-1.5
				c0-0.3,0.1-0.5,0.2-0.5c0.2-0.1,0.4,0,0.7,0.2c-0.1,0-0.2,0-0.2,0.1l-0.1,0.1c0,0,0,0-0.1,0.1c0,0-0.1,0.1-0.1,0.1
				c0,0,0,0.1,0,0.1l0,0.1c0,0.1,0,0.4,0,0.7c0,0.3,0,0.6,0.1,0.9c0.1,0.3,0.2,0.6,0.3,0.8c0,0,0,0.1,0.1,0.1l0.1,0.1L24.6,5
				c0,0,0,0.1,0.1,0.1c0,0,0,0.1,0.1,0.1c0.1,0.2,0.2,0.4,0.3,0.5c0,0.1,0.1,0.2,0.2,0.3c0.1,0.2,0.2,0.3,0.3,0.4
				c0,0,0.1,0.1,0.1,0.1c0,0.1,0.1,0.1,0.1,0.1c0,0,0.1,0.2,0.2,0.4c0.2,0.5,0.3,0.8,0.3,0.9c0.1,0.2,0.1,0.3,0.1,0.4
				C26.4,8.4,26.4,8.5,26.4,8.6z M26.7,3.2c0,0-0.1,0.1-0.2,0.1l-0.2,0.1l-0.2,0.1c-0.2,0.1-0.3,0.1-0.3,0.1c0,0-0.1,0-0.1-0.1
				c0,0,0,0-0.1-0.1l0,0c0,0-0.1-0.1-0.1-0.1c-0.1,0-0.1-0.1-0.1-0.1c0,0,0.1,0,0.1,0c0,0,0.1,0,0.1,0c0,0,0.1,0,0.1-0.1
				c0,0,0.1,0,0.1,0C26,3,26.1,3,26.2,2.9c0,0,0.1-0.1,0.1-0.1c0,0,0-0.1,0-0.2V2.5c0,0,0-0.1,0-0.2c0-0.1,0-0.1,0-0.1V2.1l0,0
				c-0.1-0.4-0.2-0.7-0.3-1c0,0,0.1,0.1,0.3,0.3c0.1,0.2,0.2,0.4,0.3,0.6c0,0.1,0.1,0.4,0.2,0.9l0,0.1C26.7,3.1,26.7,3.1,26.7,3.2z"
				/>
			<path class="st1" d="M31.4,8.8c0,0.1,0,0.3,0,0.7c0,0.4-0.1,0.7-0.1,0.8c0,0.1-0.1,0.2-0.3,0.4c-0.2,0.1-0.4,0.2-0.6,0.3
				c-0.1,0-0.3,0-0.5,0c-0.2,0-0.5,0-0.7-0.1c-0.2,0-0.3-0.1-0.4-0.1c0,0-0.1,0-0.1,0c0,0-0.1,0-0.1,0c-0.1,0-0.1-0.1-0.2-0.1
				c0.3,0.1,0.6,0.1,0.9,0.1s0.6-0.1,0.9-0.2c0.3-0.2,0.5-0.4,0.6-0.6c0.1-0.2,0.1-0.4,0.2-0.9c0-0.4,0-0.6,0.1-0.6l0.3,0.1
				C31.3,8.5,31.4,8.6,31.4,8.8z M28.5,8.3c0-0.5,0-1.1,0-1.9c0.1-0.8,0.1-1.4,0.1-1.9c0-1,0-1.7,0.1-1.9c0-0.1,0-0.2,0.1-0.4
				c0-0.2,0.1-0.3,0.1-0.4c0-0.1,0-0.2,0.1-0.2c0,0,0.1-0.1,0.2-0.1c0.2,0,0.3,0.1,0.4,0.3c-0.1,0-0.2,0.1-0.2,0.1
				c0,0.1,0,0.1-0.1,0.3c0,0.2,0,0.3-0.1,0.5c0,0.1,0,0.2-0.1,0.5c0,0.1,0,0.1,0,0.2c0,0.1,0,0.2,0,0.2c0,0.2,0,0.3,0,0.5
				c0,0.2,0,0.4,0,0.6c0,0.3,0,0.4,0,0.5c0,0.2,0,0.5,0,0.9c0,0.4,0,0.8,0,1c0,0.1,0,0.3,0,0.5c0,0.2,0,0.4,0,0.5c0,0.1,0,0.1,0,0.2
				c0,0.1,0,0.2,0,0.2c0,0.1,0,0.2,0,0.4c-0.2-0.1-0.3-0.2-0.3-0.3C28.6,8.7,28.6,8.5,28.5,8.3z M31.5,3.6c-0.2,0-0.3,0.1-0.3,0.1
				c0,0-0.1,0-0.2,0c-0.1,0-0.1,0-0.1,0h-0.3c-0.1,0-0.1,0-0.1,0c0,0-0.1,0-0.1,0c-0.1-0.1-0.2-0.1-0.2-0.2c0.3,0,0.6,0,0.8-0.1
				c0.3-0.1,0.4-0.3,0.4-0.6c0,0,0-0.2-0.1-0.5c0-0.3-0.1-0.5-0.1-0.5c0-0.1,0-0.2-0.1-0.3C31.1,1.3,31,1.2,31,1s-0.1-0.2-0.1-0.3
				c0.1,0,0.2,0.1,0.3,0.3c0.1,0.2,0.2,0.3,0.2,0.4c0,0.1,0,0.1,0.1,0.2c0,0.1,0.1,0.1,0.1,0.2c0,0.1,0.1,0.2,0.1,0.4
				c0.1,0.4,0.1,0.7,0.1,0.9C31.7,3.4,31.7,3.5,31.5,3.6z"/>
			<path class="st1" d="M34.1,10.1c0,0.1,0,0.2,0,0.2c0,0.1,0,0.2,0,0.3c0,0,0,0,0,0c0,0,0,0,0,0.1c0,0,0,0.1,0,0.1
				c0,0-0.1,0.1-0.2,0.1c-0.1,0-0.1,0-0.3,0h-0.2c-0.2,0-0.4,0-0.5,0c0,0-0.1,0-0.1,0c-0.1,0-0.1,0-0.2,0c0,0-0.1-0.1-0.1-0.1
				c-0.1-0.1-0.1-0.1-0.1-0.1c0.1,0,0.2,0,0.3,0c0.1,0,0.2,0,0.3,0c0.2,0,0.4,0,0.5-0.1c0.1-0.1,0.2-0.2,0.2-0.4c0-0.2,0-0.4,0-0.7
				c0-0.1,0-0.5,0-1.3c0,0,0-0.2,0-0.7V7.3V7.1V6.9c0-0.1,0-0.1,0-0.2l0,0c0.1,0,0.1,0,0.2,0.1c0,0,0.1,0.1,0.1,0.1
				C34,7,34,7.1,34,7.1l0,0.3c0,0.1,0,0.1,0,0.2c0,0.1,0,0.2,0,0.2l0,0.3c0,0.1,0,0.2,0,0.5c0,0.2,0,0.4,0,0.5c0,0.4,0,0.6,0,0.7
				C34.1,9.9,34.1,10,34.1,10.1z M34.5,1.8c-0.2,0-0.3,0-0.3,0c0,0.2,0,0.4,0,0.7c0,0.1,0,0.2,0,0.3c0,0.1,0,0.2,0,0.2
				C34,3.6,34,4,34,4.2v0.5v0.2c0,0,0,0.1-0.1,0.1l-0.1,0.1c-0.1,0-0.1,0.1-0.2,0.1c0-0.2-0.1-0.5,0-1c0-0.1,0-0.2,0-0.3V3.6
				c0-0.1,0-0.2,0-0.3c0-0.4,0-0.7,0.1-0.9c0.1-0.5,0.1-0.8,0.1-1C34,1.5,34.2,1.6,34.5,1.8z M35.5,6.3c-0.1-0.1-0.1-0.1-0.2-0.2
				c0.5-0.3,0.8-0.7,1-1.1c0.2-0.5,0.2-1.1,0.2-1.8c0-0.8-0.2-1.4-0.4-1.9c0.3,0.3,0.6,0.8,0.7,1.4c0.1,0.3,0.1,0.7,0.1,1
				c0,0.1,0,0.2,0,0.5c0,0.3,0,0.4,0,0.4c0,0.3-0.1,0.6-0.2,0.8c0,0.1-0.1,0.2-0.2,0.3c0,0.1-0.1,0.1-0.1,0.1l0,0
				C36.3,6,36.1,6.1,36,6.2c-0.1,0.1-0.2,0.2-0.3,0.2c0,0-0.1,0-0.1,0L35.5,6.3z M36.8,10.9L36.8,10.9c-0.1,0-0.2,0-0.2,0l-0.3,0
				c-0.2,0-0.3,0.1-0.3,0.1c0,0,0,0-0.1,0c0,0,0,0-0.1,0h-0.1l0-0.1c0,0,0,0-0.1-0.1c-0.1-0.1-0.2-0.2-0.2-0.2l0.2,0
				c0.2,0,0.3,0,0.4-0.1c0.2,0,0.4-0.1,0.4-0.2c0.1-0.1,0.1-0.3,0-0.6c0-0.1,0-0.2-0.1-0.3c0-0.1-0.1-0.2-0.1-0.3c0,0,0-0.1-0.1-0.3
				c0-0.2,0-0.3-0.1-0.3c0-0.1,0-0.2-0.1-0.3c0-0.2-0.1-0.3-0.1-0.3l-0.1-0.3c0-0.1-0.1-0.2-0.1-0.3c0-0.1-0.1-0.2-0.1-0.3
				s-0.1-0.2-0.1-0.3c0.3,0.3,0.4,0.5,0.4,0.6c0,0.1,0.1,0.1,0.1,0.2c0,0.1,0,0.2,0.1,0.3s0,0.2,0.1,0.2c0.1,0.4,0.2,0.7,0.2,0.7
				c0,0,0,0.1,0,0.1c0,0.1,0,0.1,0,0.1c0,0,0,0.1,0,0.1c0,0,0,0.1,0,0.1c0,0,0,0.1,0,0.1c0.1,0.5,0.2,0.9,0.2,1.2
				C37,10.8,37,10.9,36.8,10.9z"/>
			<path class="st1" d="M41.6,10.3c0,0.1,0,0.1,0,0.1c0,0.1,0,0.1-0.2,0.2c-0.2,0.1-0.4,0.1-0.5,0.1c-0.1,0-0.2,0-0.4,0
				c-0.2,0-0.4,0-0.5,0h-0.3c0,0-0.1,0-0.2,0l-0.1,0c0,0-0.1,0-0.2,0c-0.1,0-0.1,0-0.1,0c0,0-0.1,0-0.1,0c-0.1,0-0.1,0-0.1,0
				c0,0-0.1,0-0.2,0c0,0-0.1,0-0.1,0c0,0-0.1,0-0.1,0c-0.1,0-0.1,0-0.2,0c-0.1-0.1-0.2-0.1-0.3-0.3c0.2,0,0.3,0,0.5,0
				c0,0,0.1,0,0.1,0c0.1,0,0.1,0,0.2,0c0.1,0,0.1,0,0.1,0c0.1,0,0.2,0,0.3,0c0.1,0,0.3,0,0.4,0c0.1,0,0.3,0,0.3,0
				c0.4,0,0.7,0,0.9-0.1c0.1-0.1,0.2-0.2,0.2-0.3V9.7c0-0.1,0-0.2,0-0.3l0.3,0.2c0.1,0.1,0.2,0.2,0.2,0.2c0,0,0,0.1,0,0.3
				C41.6,10.2,41.6,10.3,41.6,10.3z M38.8,2.2c0-0.2,0-0.4,0-0.4c0-0.1,0-0.1,0.1-0.1h0.2c0.2,0,0.5,0,0.9,0c0.4,0,0.7-0.1,0.8-0.1
				c0.3-0.1,0.4-0.2,0.4-0.4c0-0.1,0-0.2,0-0.3V0.7c0,0,0-0.1,0-0.1s0-0.1,0-0.1l0.1,0.1l0,0c0,0,0,0,0,0c0.1,0.1,0.2,0.1,0.2,0.1
				c0,0,0.1,0.1,0.1,0.1c0,0,0,0,0,0.1c0,0,0,0,0,0.1c0,0.1,0,0.1,0,0.1c0,0.2,0,0.2,0,0.3c0,0.1,0,0.2-0.2,0.3c0,0-0.1,0-0.1,0
				c0,0-0.1,0-0.1,0c-0.2,0-0.3,0.1-0.3,0.1c0,0-0.1,0-0.1,0c0,0-0.1,0-0.1,0c0,0-0.1,0-0.1,0c0,0-0.1,0-0.1,0c-0.1,0-0.1,0-0.2,0
				c-0.1,0-0.3,0-0.5,0l-0.2,0l-0.1,0c-0.1,0-0.1,0.1-0.1,0.1l-0.1,0.1c0,0,0,0,0,0.1c0,0,0,0,0,0.1c0,0,0,0.1,0,0.1l0,0.4
				c0,0.5,0,1.2,0,2H39l-0.1,0c0,0,0,0,0,0l0-0.2c0-0.1,0-0.2,0-0.4v-1C38.8,2.7,38.8,2.4,38.8,2.2z M40.7,6.4
				c-0.1,0.1-0.2,0.1-0.3,0.1l-0.3,0c0,0,0,0-0.1,0c-0.1,0-0.2,0-0.2,0c-0.1,0-0.3,0-0.5,0c0,0.2,0,0.4,0,0.7c0,0.3,0,0.5,0,0.6v0
				c0,0.3,0,0.5,0,0.7c0,0.1,0,0.3,0.1,0.6h-0.2c-0.1,0-0.1,0-0.2,0C39,9,39,8.8,39,8.7c-0.1-0.4-0.1-0.7-0.1-0.8l-0.1-1.7
				c0.2,0,0.4,0,0.6,0.1c0.2,0,0.4,0,0.5,0c0.2,0,0.3-0.1,0.4-0.2c0.1-0.1,0.1-0.2,0.1-0.4c0-0.2,0-0.4,0-0.5
				c0.1,0.1,0.2,0.1,0.3,0.3c0,0,0.1,0.1,0.1,0.1c0,0,0,0,0,0.1c0,0.2,0,0.4,0,0.6C40.7,6.4,40.7,6.4,40.7,6.4L40.7,6.4z"/>
			<path class="st1" d="M46.5,10.1C46.5,10.1,46.5,10.1,46.5,10.1c0,0.1,0,0.1,0,0.1v0.1v0.1c0,0,0,0,0,0.1c0,0,0,0.1,0,0.1
				c0,0.1,0,0.1,0,0.1c0,0-0.1,0.1-0.2,0.1c-0.1,0-0.2,0-0.4,0c-0.2,0-0.3,0-0.4,0c-0.5,0-0.8,0-1,0c0,0-0.1,0-0.2,0
				c-0.1,0-0.1,0-0.2,0c0,0-0.1,0-0.1,0s-0.1,0-0.1,0.1c0,0-0.1,0-0.1,0c0,0-0.1,0-0.2,0c-0.1,0-0.1,0-0.2,0h-0.2c0,0,0,0-0.1,0
				c0,0-0.1,0-0.1,0c-0.1,0-0.2,0-0.3-0.1c0,0,0,0-0.1-0.1c0,0-0.1-0.1-0.1-0.1c0,0-0.1-0.1-0.1-0.1c-0.2-0.1-0.2-0.2-0.3-0.3
				c0.2,0.1,0.4,0.1,0.5,0.2c0.3,0.1,0.5,0.1,0.6,0c0.3-0.1,0.5-0.1,0.6-0.1c0.2,0,0.4,0,0.7,0h0.3c0.2,0,0.3,0,0.3,0h0.4
				c0.2,0,0.3-0.1,0.3-0.3c0-0.1,0-0.2,0-0.3c0-0.1,0-0.2,0-0.3V9.5c0-0.1,0-0.1,0-0.1c0.1,0,0.1,0.1,0.2,0.1c0.1,0,0.1,0.1,0.1,0.1
				c0,0,0,0,0,0s0,0,0,0l0,0c0,0,0,0,0,0.1c0,0,0,0.1,0,0.2V10.1z M43.6,3.5c0-0.1,0-0.3-0.1-0.7c0-0.2,0-0.4,0-0.8
				c0-0.3,0-0.5,0-0.6c0,0,0.3,0,0.8,0h0.2c0.1,0,0.1,0,0.2,0c0.1,0,0.2,0,0.2,0c0,0,0.1,0,0.2-0.1c0.1,0,0.2-0.1,0.3-0.1
				c0.3,0,0.4,0,0.5-0.1c0.1-0.1,0.1-0.4,0-0.8c0,0,0.1,0.1,0.2,0.2c0.1,0.1,0.1,0.1,0.1,0.2c0,0.1,0.1,0.3,0.1,0.4
				c0,0.1,0,0.2,0,0.3c0,0-0.1,0.1-0.1,0.1c0,0-0.1,0-0.1,0c-0.1,0-0.1,0-0.1,0c-0.1,0-0.2,0.1-0.3,0.1c0,0-0.1,0-0.1,0
				c-0.1,0-0.1,0-0.2,0c0,0-0.1,0-0.2,0c-0.1,0-0.1,0-0.2,0c-0.1,0-0.1,0-0.2,0c-0.3,0-0.5,0-0.6,0c0,0-0.1,0-0.2,0
				c-0.1,0-0.2,0-0.2,0c0,0.4,0,0.7,0,1l0,0.5v0.2c0,0,0,0.1,0,0.2c0,0.1,0,0.1,0,0.2c0,0.1,0,0.1,0,0.1l-0.4,0c0,0,0,0,0-0.1V3.7
				L43.6,3.5z M44,8.1c0,0.1,0,0.2,0,0.2l0,0.1l0,0.2l0,0.3v0c0,0,0,0,0,0.1c0,0,0,0-0.1,0c-0.1,0-0.2,0-0.3,0c0-0.8,0-1.4,0-1.8
				c0-0.1,0-0.3,0.1-0.5c0-0.2,0.1-0.5,0.1-0.6c0-0.2,0-0.4,0-0.5c0.1,0,0.5,0,0.9,0c0.3,0,0.6,0,0.9,0c0.2,0,0.3-0.1,0.4-0.2
				c0,0,0-0.1,0-0.1c0,0,0-0.1,0-0.1s0-0.1,0-0.1c0-0.1,0-0.1,0-0.1c0,0,0-0.1,0-0.1c0-0.1,0-0.1,0-0.1l0,0.1l0-0.1c0,0,0-0.1,0-0.1
				c0-0.1,0-0.1,0-0.2c0,0,0.1,0.1,0.3,0.2c0.1,0,0.1,0.1,0.1,0.1v0.1c0,0,0,0.1,0,0.1c0,0,0,0.1,0,0.1c0,0,0,0.1,0,0.1V5l0,0.1
				c0,0.2,0.1,0.3,0,0.4c0,0.1,0,0.1-0.1,0.2c0,0-0.1,0-0.3,0c-0.1,0-0.2,0-0.3,0c-0.1,0-0.2,0-0.3,0c-0.1,0-0.2,0-0.3,0l-0.6,0
				c0,0-0.1,0-0.1,0c-0.1,0-0.1,0-0.1,0c0,0-0.1,0-0.1,0c0,0.1,0,0.3,0,0.4c0,0.2,0,0.4,0,0.8c0,0.1,0,0.5-0.1,1V8.1z"/>
			<path class="st1" d="M48.7,9.2c0,0.3,0,0.6,0,0.8v0.1v0.1c0,0,0,0.1,0,0.1c0,0,0,0.1,0,0.1l0,0.1v0.1c0,0.1,0,0.2,0,0.2
				c0,0.1-0.1,0.1-0.3,0.1c0,0-0.1,0-0.2,0c-0.1,0-0.2,0-0.2,0h-0.2c-0.1,0-0.2,0-0.2,0c-0.1,0-0.2,0-0.2,0c0,0,0,0-0.1,0
				c0,0-0.1,0-0.1,0c-0.1,0-0.2-0.1-0.3-0.2h0.4c0,0,0.1,0,0.2,0c0.1,0,0.1,0,0.2,0c0.1,0,0.2,0,0.4,0c0.1-0.1,0.2-0.2,0.2-0.3
				c0,0,0-0.2,0-0.4c0-0.2,0-0.6,0-1c0-0.4,0-0.7,0-0.9c0-0.5,0-0.8,0-0.9c0-0.1,0-0.2,0-0.3c0-0.1,0-0.2,0-0.3s0-0.2,0-0.3
				c0-0.3,0-0.6,0-1.1s0-0.8,0-0.8l0.1,0.4l0.3,0.9v0.3v0.3c0,0.2,0,0.4,0,0.5c0,0.1,0,0.3,0,0.5c0,0.2,0,0.4,0,0.5c0,0.1,0,0.4,0,1
				C48.7,8.7,48.7,8.9,48.7,9.2z M50.3,4.8c0.1,0.2,0.1,0.4,0.1,0.4v1c0-0.1-0.1-0.3-0.2-0.6c-0.1-0.3-0.1-0.6-0.2-0.8
				c-0.1-0.2-0.1-0.4-0.2-0.6c0-0.1,0-0.1-0.1-0.2c0-0.1-0.1-0.1-0.1-0.2s-0.1-0.1-0.1-0.2s0-0.1-0.1-0.2c0-0.1-0.1-0.1-0.1-0.2
				c-0.1-0.2-0.2-0.5-0.3-1l0-0.1l-0.2-0.7c-0.1-0.3-0.2-0.6-0.2-0.7c0.1,0.1,0.2,0.2,0.2,0.2C49,0.9,49,1,49,1c0,0,0,0,0,0.1
				c0,0,0,0.1,0,0.1c0.1,0.1,0.1,0.3,0.2,0.6c0,0,0.1,0.1,0.1,0.3c0.1,0.2,0.1,0.3,0.1,0.4c0.1,0.3,0.1,0.5,0.1,0.5
				c0.2,0.7,0.3,1.2,0.4,1.3C50.2,4.5,50.3,4.7,50.3,4.8z M52.5,10.3c0,0,0,0.1,0,0.1c0,0.1,0.1,0.1,0.1,0.1c0,0,0,0.1,0,0.1
				c0,0.1,0,0.1,0,0.1c0,0-0.1,0.1-0.2,0.1c0,0.1,0,0.1-0.1,0.1c0,0-0.1,0.1-0.1,0.1c0,0-0.1,0-0.2,0h-0.3c-0.1,0-0.2,0-0.3,0h-0.2
				c0,0,0,0,0,0c0,0,0,0,0,0c0,0,0,0,0,0c0,0-0.1,0-0.1,0s-0.1,0-0.1,0c-0.1,0-0.1,0-0.2-0.1c0.1,0,0.3,0,0.5,0c0.2,0,0.3,0,0.4,0
				c0.1,0,0.1,0,0.2-0.1c0,0,0,0,0.1-0.1c0,0,0.1-0.1,0.1-0.1c0.2-0.1,0.2-0.2,0.2-0.3c0-0.1,0-0.3-0.2-0.5c0-0.1-0.1-0.2-0.1-0.2
				V9.2l0-1.2c0-0.4,0-0.7,0-1c0-0.5,0.1-0.8,0.1-1c0-0.9,0-1.5,0-1.9c0-0.7,0-1.4,0-2l0-0.9l0-0.5c0-0.2,0-0.3,0-0.4
				c0.1,0,0.2,0.1,0.2,0.2c0.1,0.1,0.1,0.1,0.1,0.2c0,0.1,0.1,0.2,0.1,0.3c0,0.1,0,0.2,0,0.2l0,0.3c0,0.1,0,0.4,0,1
				c0,0.1,0,0.3,0,0.5c0,0.2,0,0.4,0,0.5c0,0.2,0,0.3,0,0.5c0,0.2,0,0.4,0,0.7c0,0.3,0,0.5,0,0.7l0,1c0,0.4,0,0.7,0,0.8
				c-0.1,0.4-0.1,0.9-0.1,1.4l0,0.9v0.3V10C52.4,10.1,52.4,10.1,52.5,10.3L52.5,10.3z"/>
		</g>
	</g>
</g>
</svg>
