<!-- Generator: Adobe Illustrator 21.1.0, SVG Export Plug-In  -->
<svg version="1.1"
	 xmlns="http://www.w3.org/2000/svg" xmlns:xlink="http://www.w3.org/1999/xlink" xmlns:a="http://ns.adobe.com/AdobeSVGViewerExtensions/3.0/"
	 x="0px" y="0px" width="231.2px" height="461.9px" viewBox="0 0 231.2 461.9" style="enable-background:new 0 0 231.2 461.9;"
	 xml:space="preserve">
<style type="text/css">
	.st0{fill:url(#SVGID_1_);}
	.st1{fill:#AD7957;}
	.st2{fill:#C98A5B;}
	.st3{fill:#D1D3D4;}
	.st4{fill:#E6E7E8;}
	.st5{fill:#010101;}
	.st6{fill:#FFFFFF;}
	.st7{fill:#DB996B;}
	.st8{fill:#9E6E54;}
	.st9{fill:#939598;}
	.st10{fill:#6D6E71;}
	.st11{clip-path:url(#SVGID_3_);fill:#AD7957;}
	.st12{fill:#3C2415;}
	.st13{fill:#B2ADDD;}
	.st14{fill:#7742A8;}
	.st15{fill:#B065C5;}
	.st16{fill:#591189;}
	.st17{fill:#852AB4;}
	.st18{fill:none;}
	.st19{fill:#B670C8;}
	.st20{fill:#B5AFDF;}
	.st21{fill:none;stroke:#231F20;stroke-miterlimit:10;}
	.st22{fill:#921B90;}
	.st23{fill:#490562;}
	.st24{fill:#D8CEC4;}
	.st25{fill:#3B6E2B;}
	.st26{fill:#709D33;}
	.st27{fill:#ACBA46;}
	.st28{fill:#BACA84;}
	.st29{fill:#DFD9C3;}
	.st30{opacity:0.3;}
	.st31{fill:url(#SVGID_4_);}
	.st32{fill:url(#SVGID_5_);}
	.st33{fill:url(#SVGID_6_);}
	.st34{fill:url(#SVGID_7_);}
	.st35{fill:url(#SVGID_8_);}
	.st36{fill:url(#SVGID_9_);}
	.st37{fill:url(#SVGID_10_);}
	.st38{fill:url(#SVGID_11_);}
	.st39{fill:url(#SVGID_12_);}
	.st40{fill:url(#SVGID_13_);}
	.st41{fill:#6E2852;}
	.st42{fill:#9D249B;}
	.st43{fill:#8E34BA;}
	.st44{fill:#B871CA;}
	.st45{fill:#B4AEDF;}
	.st46{opacity:0.3;fill:url(#SVGID_14_);}
	.st47{opacity:0.3;fill:url(#SVGID_15_);}
	.st48{opacity:0.3;fill:url(#SVGID_16_);}
	.st49{opacity:0.3;fill:url(#SVGID_17_);}
	.st50{opacity:0.3;fill:url(#SVGID_18_);}
	.st51{fill:url(#SVGID_19_);}
	.st52{fill:url(#SVGID_20_);}
	.st53{fill:url(#SVGID_21_);}
	.st54{fill:url(#SVGID_22_);}
	.st55{fill:url(#SVGID_23_);}
	.st56{fill:#6E5F41;}
	.st57{fill:#9D6924;}
	.st58{fill:#BA6D34;}
	.st59{fill:#CA9B71;}
	.st60{fill:#DFB1AE;}
	.st61{fill:url(#SVGID_24_);}
	.st62{fill:url(#SVGID_25_);}
	.st63{fill:url(#SVGID_26_);}
	.st64{fill:url(#SVGID_27_);}
	.st65{fill:url(#SVGID_28_);}
	.st66{fill:url(#SVGID_29_);}
	.st67{fill:url(#SVGID_30_);}
	.st68{fill:url(#SVGID_31_);}
	.st69{fill:url(#SVGID_32_);}
	.st70{fill:url(#SVGID_33_);}
	.st71{fill:#FDD01F;}
	.st72{fill:#FCA81B;}
	.st73{fill:#FDD328;}
	.st74{fill:#E25900;}
	.st75{fill:#933442;}
	.st76{fill:#E07000;}
	.st77{fill:#FB9437;}
	.st78{fill:#FCB14A;}
	.st79{fill:#FB8A2C;}
	.st80{fill:#DA4301;}
	.st81{fill:#9C3C4B;}
	.st82{fill:#FB8E0F;}
	.st83{fill:#FCAE45;}
	.st84{fill:#FDD025;}
	.st85{fill:#FB7821;}
	.st86{fill:#DF6B02;}
	.st87{fill:#FCFDFC;}
	.st88{fill:#931A93;}
	.st89{fill:#350326;}
	.st90{fill:#EDF1F0;}
	.st91{fill:#BE1E2D;}
	.st92{fill:#FFCF14;}
	.st93{fill:#2B3990;}
	.st94{fill:#BE2086;}
	.st95{fill:#662D91;}
	.st96{fill:#27AAE1;}
	.st97{fill:url(#SVGID_34_);}
	.st98{clip-path:url(#SVGID_36_);fill:#AD7957;}
	.st99{fill:url(#SVGID_37_);}
	.st100{fill:url(#SVGID_38_);}
	.st101{fill:url(#SVGID_39_);}
	.st102{fill:url(#SVGID_40_);}
	.st103{fill:url(#SVGID_41_);}
	.st104{fill:url(#SVGID_42_);}
	.st105{fill:url(#SVGID_43_);}
	.st106{fill:url(#SVGID_44_);}
	.st107{fill:url(#SVGID_45_);}
	.st108{fill:url(#SVGID_46_);}
	.st109{opacity:0.3;fill:url(#SVGID_47_);}
	.st110{opacity:0.3;fill:url(#SVGID_48_);}
	.st111{opacity:0.3;fill:url(#SVGID_49_);}
	.st112{opacity:0.3;fill:url(#SVGID_50_);}
	.st113{opacity:0.3;fill:url(#SVGID_51_);}
	.st114{fill:url(#SVGID_52_);}
	.st115{fill:url(#SVGID_53_);}
	.st116{fill:url(#SVGID_54_);}
	.st117{fill:url(#SVGID_55_);}
	.st118{fill:url(#SVGID_56_);}
	.st119{fill:url(#SVGID_57_);}
	.st120{fill:url(#SVGID_58_);}
	.st121{fill:url(#SVGID_59_);}
	.st122{fill:url(#SVGID_60_);}
	.st123{fill:url(#SVGID_61_);}
	.st124{fill:url(#SVGID_62_);}
	.st125{fill:url(#SVGID_63_);}
	.st126{fill:url(#SVGID_64_);}
	.st127{fill:url(#SVGID_65_);}
	.st128{fill:url(#SVGID_66_);}
</style>
<defs>
</defs>
<g>
	<linearGradient id="SVGID_1_" gradientUnits="userSpaceOnUse" x1="72.1181" y1="408.8062" x2="72.1181" y2="440.8062">
		<stop  offset="0" style="stop-color:#C5C341"/>
		<stop  offset="7.994784e-02" style="stop-color:#B6B43B"/>
		<stop  offset="0.3206" style="stop-color:#8C8D2B"/>
		<stop  offset="0.5391" style="stop-color:#6F711F"/>
		<stop  offset="0.7263" style="stop-color:#5C5F18"/>
		<stop  offset="0.8602" style="stop-color:#565915"/>
	</linearGradient>
	<path class="st0" d="M84,442.8c0,0,55.7,4.3,58.2,8.6c2.5,4.3,4.7,7.5-6.1,7.5s-48.5-7.5-61.5-5.8s-18.3,2.9-31.3,6.1
		s-34.1,3.2-39.9,0.7s-4-7.5,2.9-10.1s32-7.5,49.2-7.9C72.8,441.8,84,442.8,84,442.8z"/>
	<path class="st1" d="M71.6,136.9c11.7,7.1,25.5,3.3,25.5,3.3l0,9.6C79.7,150,71.6,136.9,71.6,136.9z"/>
	<path class="st2" d="M55.8,157.5c6.7-1.9,15.8-3.4,15.8-3.4c1-2.4,0-17.2,0-17.2s8.1,13.1,25.6,12.9v4.5c0,0,4.7,0.4,11.4,1.3
		c6.7,1,17.3,6.2,17.3,6.2l2.9,31.2l-85.1,7.2v-38.3C43.6,161.8,49.1,159.4,55.8,157.5z"/>
	<path class="st1" d="M73.5,142.6c0,0-0.1,12.5,0.8,14.2c1,1.7,10.8,10.3,10.9,10.7c0.1,0.4-4.2-1.9-5.8-2.9s-7.1-8.3-7.1-8.3
		S72.2,138.3,73.5,142.6z"/>
	<path class="st3" d="M108.8,284.8c0,0,17.3-3.2,17.3-7.9c0-4.7-1.1-24.8-1.1-24.8s-20.1,10.1-29.1,12.2c-6.1,1.5-8.9,2.3-10,2.6
		c3.3-1.1,16.9-5.9,24.4-11.3c8.6-6.1,15.5-10.1,15.5-10.1l-0.4-9c0,0-11.5,9-19.4,12.6c-7.9,3.6-15.8,6.8-15.8,6.8
		s20.8-14.7,27.3-19.8c6.5-5,8.6-5.8,8.6-5.8s-1.8-52.1-1.1-53.9c0.7-1.8,3.6,6.5,3.6,10.8c0,4.3,0.4,12.9,0.4,12.9
		s0.7,61.1,0.7,67.2c0,4.4,2,11.5-0.5,15.8l-3.4-1.4C125.6,281.9,110.9,286.3,108.8,284.8z"/>
	<path class="st4" d="M85.8,267c-0.5,0.2-0.7,0.2-0.7,0.2S85.2,267.1,85.8,267z"/>
	<path class="st4" d="M13.1,247.1c1.4-25.5,6.8-53.2,12.9-62.9c6.1-9.7,15.8-23.4,19.8-25.2c4-1.8,9.9-1.5,9.9-1.5l11.3,1.1
		l15.5,12.2l3.5-1.1l24.4-13.9c0,0,17.4,3.2,19.9,7.9c2.5,4.7,16.9,27.7,19.1,30.9c2.2,3.2,9,19.8,11.5,18.7
		c2.5-1.1,26.6-34.5,29.8-34.9c3.2-0.4,7.2,2.5,10.1,6.8c2.9,4.3,3.2,6.8-1.4,11.5c-4.7,4.7-32,34.1-35.9,37.7
		c-4,3.6-8.6,1.4-12.2-1.8c-3.6-3.2-22.3-32.4-22.3-32.4s-0.4-8.6-0.4-12.9c0-4.3-2.9-12.6-3.6-10.8c-0.7,1.8,1.1,53.9,1.1,53.9
		s-2.2,0.7-8.6,5.8c-6.5,5-27.3,19.8-27.3,19.8s7.9-3.2,15.8-6.8c7.9-3.6,19.4-12.6,19.4-12.6l0.4,9c0,0-6.8,4-15.5,10.1
		c-7.5,5.3-21.1,10.1-24.4,11.3c-0.5,0.2-0.7,0.2-0.7,0.2s0.3-0.1,0.7-0.2c1.2-0.4,3.9-1.2,10-2.6c9-2.2,29.1-12.2,29.1-12.2
		s1.1,20.1,1.1,24.8c0,4.7-17.3,7.9-17.3,7.9c2.2,1.4,16.9-2.9,16.9-2.9l3.4,1.4c-1,1.7-2.7,2.9-5.6,3.3c-10.1,1.4-63.6,1.8-69,1.8
		c-5.4,0-10.4,1.4-10.4-3.2s-0.4-71.2,0-76.2s-0.5-8.8-0.5-8.8s-7.4,11.7-11.4,23.9c-4,12.2-1.8,37.7,0.7,45.7
		c2.5,7.9,6.5,13.7,7.2,18c0.7,4.3-1.1,4-3.6,5.8c-2.5,1.8-5.8,5.8-9,1.8C24.3,291.3,11.7,272.6,13.1,247.1z"/>
	<path class="st2" d="M200.8,185.2c0,0,3.2-5,6.1-6.1s5.8-0.4,9-0.7s11.9-8.3,14-10.8s1.4-6.1-0.7-8.6s-4.3,0.4-8.6,2.2
		c-4.3,1.8-8.6,4.7-10.8,5.8c-2.2,1.1-3.6-2.5-2.9-5s4.7-5,2.2-7.2s-4.3,4.3-7.9,7.2c-3.6,2.9-5,4.7-4,10.1c1.1,5.4-2.2,7.9-2.2,7.9
		s-2.5,6.5,0,7.9C197.5,189.2,200.8,185.2,200.8,185.2z"/>
	<path class="st4" d="M45.1,351.5c0-4.8,4.8-59.1,5.9-71.9l75-2.7c0,0-4.4,129.4-3.6,137.2c0.7,7.9,0,26.4,0,26.4s-10.3,0.7-16.9,1
		c0.2-1.7,0.2-3.6-0.3-4.8c-1.4-3,3.6-132.6,3.6-132.6l-14.9,2.4c-0.1-1.5-0.2-2.4-0.2-2.4l-11.9,1.1c0,0-24.1,77.6-27.3,98.3
		c-3.2,20.7-7.9,40.3-7.9,40.3l-14.4-2.5c0.8-0.8,1.5-1.7,1.5-2.4C33.6,437,45.1,357,45.1,351.5z"/>
	<path class="st3" d="M105.1,436.8c0.6,1.2,0.6,3.1,0.3,4.8c-2.8,0.1-5,0.2-5.4,0.1c-1.4-0.3-4.3-120.6-5-125
		c-0.5-2.9-0.9-7.3-1.2-10.1l14.9-2.4C108.7,304.2,103.7,433.8,105.1,436.8z"/>
	<path class="st3" d="M40.1,318c-0.4-4.9,0.7-21,1.4-23.7c0.7-2.7,5.4-14.7,5.4-14.7l4.1,0c-1.1,12.8-5.9,67.1-5.9,71.9
		c0,5.4-11.5,85.5-11.5,87.4c0,0.7-0.7,1.5-1.5,2.4l-5.7-1C26.4,440.3,40.4,322.9,40.1,318z"/>
	<path class="st5" d="M120.3,440.3c0,0,8.3,3.6,10.1,5c1.8,1.4,9,5,7.2,7.2c-1.8,2.2-7.5,4.7-12.2,3.6s-12.6-4.3-16.5-5.8
		s-7.9-3.2-7.9-5.4c0-2.2,0-4.3,0-4.3L120.3,440.3z"/>
	<path class="st5" d="M45.9,443.9c0,0-16.2-4.7-18.3-4.3c-2.2,0.4-8.6,5.4-11.5,7.5c-2.9,2.2-9,2.2-6.8,5.4s8.3,2.2,16.9,1.4
		c8.6-0.7,18.7-5.4,18.7-6.5C44.8,446.4,45.9,443.9,45.9,443.9z"/>
	<path class="st6" d="M116.3,158.3c0,0-19.8,44.6-26.2,46c-6.5,1.4-42.4-44.2-42.4-44.2l8.1-2.6c0,0,24.9,34.6,29.6,33.1
		c4.7-1.4,17.4-12.1,25-34.8L116.3,158.3z"/>
	<path class="st4" d="M74.2,176.4c-0.6-1.3-12.4-14.8-16.3-19.2c2.8-0.9,9.4-2.9,12.9-2.9c0,0,8.6,12.9,12.6,14.7
		C80.1,172.3,74.7,177.5,74.2,176.4z"/>
	<path class="st3" d="M98.8,176.4c0.8,1.6,11.7-20.5,11.7-20.5s-10.1,23.8-11.9,22.3c-1.1-0.9-4-4.3-7.1-6.5
		C94.6,173.1,98.2,175.3,98.8,176.4z"/>
	<g>
		<path class="st4" d="M93.2,164.1c2.5-2.9,6.2-9.5,6.2-9.5l11,1.2c0,0-10.8,22.2-11.7,20.5c-0.5-1.1-4.2-3.3-7.3-4.7
			c-2-1.4-3.9-2.4-5.5-1.9c-0.1,0-0.1,0-0.2,0.1c-0.2-0.2-0.4-0.4-0.5-0.6C88.3,169.1,90.9,166.6,93.2,164.1z"/>
		<path class="st3" d="M58,157.2c3.9,4.4,15.7,17.8,16.3,19.2c0.5,1.1,5.9-4.1,9.2-7.4c0.2,0.1,0.4,0.2,0.6,0.2
			c0.4,0.1,0.8,0.1,1.2,0.1c0.2,0.2,0.4,0.4,0.5,0.6c-4,1.3-10.4,8.6-12.8,7.4c-2.4-1.2-16.3-19.5-16.3-19.5S57.2,157.5,58,157.2z"
			/>
	</g>
	<path class="st2" d="M37.2,283.8c0,0,15.3,2.2,12.9,6c-2.4,3.8-5.5-4.5-7,0s10.4,10.5,7.9,14.3c-2.5,3.8-5.9,5.3-12.3,0
		c-6.4-5.3-11.7-17.7-6.6-19S37.2,283.8,37.2,283.8z"/>
	<g>
		<path class="st1" d="M116.5,70.7c0-8-1.6-20.6-2.8-28.3c5.2,4.3,4.5,12.1,5.3,20.7c0.8,8.9,2.1,25.2,2.1,25.2s-2.5,21-3.8,35.8
			c-0.7,7.8-5.8,12.1-12.1,14.4c1.9-4.2,4.2-10.9,5.7-21.2C114.4,95.3,116.5,83,116.5,70.7z"/>
		<path class="st2" d="M58.9,85.6c-1.7-5.1-6.8-24.6-3-30.9s7.1-5.1,17.8-13.1c2.2-1.6,3.8-3.1,5.1-4.3c3.6-0.5,7.4-0.8,11-1.2
			c16.9-1.7,17.4,1.7,23.3,5.9c0.2,0.2,0.4,0.3,0.6,0.5c1.1,7.7,2.8,20.3,2.8,28.3c0,12.3-2.1,24.6-5.5,46.6
			c-1.6,10.3-3.8,17-5.7,21.2c-5.6,2.1-12.1,2.5-17.1,2.5c-7.3,0-14.1-0.8-19.2-3c-1.7-3-3.3-7.3-4.5-13.5
			C60.6,105.1,60.6,90.7,58.9,85.6z"/>
		<path class="st7" d="M52.1,52.5c1.3-10.6,13.4-13.7,26.7-15.4c-1.3,1.3-3,2.7-5.1,4.3c-10.6,8-13.9,6.8-17.8,13.1s1.3,25.8,3,30.9
			c1.7,5.1,1.7,19.5,5.5,39c1.2,6.2,2.9,10.5,4.5,13.5c-2.3-1-4.2-2.2-5.8-3.8c-5.1-5.1-8.9-28-8.5-32.2c0.4-4.2-1.3-14-2.5-20.8
			C50.9,74.5,50.5,66.1,52.1,52.5z"/>
		<path class="st1" d="M101.3,63.1c0,0-6.2-1.7-15.2-1.7s-17.3,0.8-17.3,0.8s8.2,0.2,17.3,0.8C95.1,63.8,101.3,63.1,101.3,63.1z"/>
		<path class="st1" d="M92.8,67.1c0,0-2.8-1.7-5.3-1.9c-2.5-0.2-7.8,1-7.8,1s5.2-0.6,7.6-0.1C89.7,66.6,92.8,67.1,92.8,67.1z"/>
		<path class="st1" d="M91.3,128.2c0,0-2.3,1.3-4.4,1.5c-2.1,0.1-6.5-0.9-6.5-0.9s4.3,0.6,6.3,0.2C88.8,128.5,91.3,128.2,91.3,128.2
			z"/>
		<path class="st1" d="M95,70.1c0,0-4.8,0.2-8.8-0.3c-4-0.5-11.3-1.1-11.3-1.1s5,1.3,7.5,1.6C85,70.6,89.1,71.9,95,70.1z"/>
		<path class="st1" d="M84.8,86.1c0,0-0.7,8.8-2.2,10.3s-7.3,2.7-4.9,6.5c0,0-1.5-0.5-1.2-3.8c0.3-2.8,4.2-1.8,5.3-4.6
			C83,91.8,84.8,86.1,84.8,86.1z"/>
		<path class="st8" d="M85.5,84.4c0,0-2.1,11.2-4.4,12.2c-2.4,1-4.1,2.5-4.4,4.2c-0.3,1.7,1,4.5,3.6,4.7c2.6,0.2,4-0.1,5.9,0.5
			c1.9,0.6,5,0.4,5.2-0.7c0,0-2.1,0.6-3.6,0.7c-1.6,0-2.3-1.5-4.9-1c-2.6,0.5-5.2-0.6-4.9-2.6c0.3-2,1-2.3,3.8-4.9
			C84.6,95,85.5,84.4,85.5,84.4z"/>
		<path class="st1" d="M100.2,121c0,0-6.3,2.4-12.7,2.8c-6.4,0.5-12.2-1.6-12.2-1.6s5.9,3.8,12.8,2.8C95.1,124,100.2,121,100.2,121z
			"/>
		<path class="st9" d="M96.8,47.9c-2.8,1.4,0-9.8,0-9.8s-25.2,8.4-32.5,10.9c-7.3,2.4-6.4,12.2-11.6,9.8c-5.2-2.4,0-14.5,0-14.5
			s-6.6,14.9-8,12.1c-0.6-1.3-1.5-5.3-2.3-9.4c0-1.3,0.2-2.3,0.5-2.7c1.4-1.6,6.3-6.5,17.3-8.6c11-2.1,40.6-8.7,44.5-8.7
			s7,1.9,12.4,6.6c5.4,4.7,8.7,7.3,8.9,15c0.1,1.9,0,4.5-0.1,7.3l-9.5-15.7C116.5,40.2,99.6,46.5,96.8,47.9z"/>
		<path class="st10" d="M110,47.6c1.9-0.5,4.4,2.5,4.6,4c0.2,1.6,1.6,7.7,3.8,12.4s0,17.1,0,17.1s1.4,2.8,3,0s3.5-7,3.5-7
			s0.8-10,1.1-18.2l-9.5-15.7c0,0-16.9,6.3-19.7,7.7c-2.8,1.4,0-9.8,0-9.8s-25.2,8.4-32.5,10.9c-7.3,2.4-6.4,12.2-11.6,9.8
			c-5.2-2.4,0-14.5,0-14.5s-6.6,14.9-8,12.1c-0.6-1.3-1.5-5.3-2.3-9.4c-0.1,4.1,0.9,11.5,0.5,13.1c-0.4,2.1,2.4,19.8,4.9,19.6
			c2.5-0.2,3.3,5.5,3.3,5.5c0-4,3-17.4,4.5-21.1c1.4-3.8,0,0,1.4-5.9s12.9-6.8,18.8-7.5c5.9-0.7,15.2-3.1,15.2-3.1s-3.9,2.7,0.4,3.1
			S110,47.6,110,47.6z"/>
		<path class="st2" d="M122.8,82.1c2.5-0.8,3.8-0.8,3.8,8.4s-7.4,12.4-7.4,12.4s0.4-6.7,1.7-17.8L122.8,82.1z"/>
		<path class="st1" d="M124.9,94.7c0,0,0.6-7.3-1.3-6.6s-1.9,0.6-1.9,0.6s0.9-4.4,2.8-3.2C126.5,86.8,124.9,94.7,124.9,94.7z"/>
		<path class="st2" d="M52.9,85.2c0,0-0.4-2.7-0.7-4.5s-0.3-4.1-2.4-4.2s-3.5,1.1-3.8,4.4c-0.3,3.2-0.8,5.2,0.6,7.5
			c1.4,2.3,5.4,7.3,6.4,7.9c1,0.6,1.8,0.8,1.8,0.8L52.9,85.2z"/>
		<g>
			<defs>
				<path id="SVGID_2_" d="M50.9,85.6c0,0,0.6-3.7-1.2-3.4c-1.9,0.3-2.2,5,0.3,8.4c0,0-4.4-3.4-3.1-8.7S53.1,80,50.9,85.6z"/>
			</defs>
			<use xlink:href="#SVGID_2_"  style="overflow:visible;fill:#AD7957;"/>
			<clipPath id="SVGID_3_">
				<use xlink:href="#SVGID_2_"  style="overflow:visible;"/>
			</clipPath>
			<path class="st11" d="M53.7,97.1c-1.2-1-2.9-2.7-4.8-5c-3.3-4.2-3.3-7.1-2.9-12.5c0.3-4.1,3.9-3.4,5.7-2.9c0.5,2,0.8,3.2,0.8,3.2
				S53.1,89.4,53.7,97.1z"/>
		</g>
		<path class="st9" d="M112.8,79.4c0,0-3.5-3.5-9.8-2.8S94.2,79,94.2,79s0-6.3,8.1-6.3S113.8,76.2,112.8,79.4z"/>
		<path class="st9" d="M77.7,80.1c0,0-3.9-2.8-8.8-2.8c-4.9,0-9.8,2.5-9.8,2.5s1.4-5.3,9.1-6C76,73.1,77.7,80.1,77.7,80.1z"/>
		<circle class="st12" cx="103.8" cy="84.1" r="3.2"/>
		<circle class="st12" cx="68.2" cy="84.2" r="3.2"/>
		<path class="st1" d="M74.6,88.5c0,0-8.4,2.8-12.6-0.5C62,88,67.2,93.6,74.6,88.5z"/>
		<path class="st1" d="M110.3,87.5c0,0-7.5,2.8-12.6-0.9C97.6,86.5,104.2,93.6,110.3,87.5z"/>
		<ellipse class="st6" cx="102.6" cy="83.2" rx="1" ry="0.8"/>
		<ellipse class="st6" cx="66.9" cy="83.4" rx="1" ry="0.8"/>
	</g>
	<g>
		<path class="st13" d="M62.1,31.5c-0.3-0.9-0.7-1.7-1-2.4c-1.6-3.9-2.7-6.6-3.3-8.5c2,1.7,6.2,3.9,6.2,3.9l-0.6,4.1l0.3-0.6
			c-0.1,0.4-0.2,0.7-0.3,1C63.1,29.7,62.6,30.7,62.1,31.5z"/>
		<path class="st14" d="M63.3,34.7c-0.3-0.7-0.5-1.3-0.8-1.9c0.8-0.9,1.9-2.4,2.2-4.3C64.7,28.5,65.6,32.5,63.3,34.7z"/>
		<path class="st15" d="M63.4,28.9c0.1-0.3,0.2-0.6,0.3-1l1.2-2.8c0,0,0.8,1.3,2.6,6.4c0.1,0.2,0.1,0.3,0.2,0.5
			c-0.7,2.1-2.5,3.8-3.6,4.7c-0.3-0.7-0.5-1.3-0.7-2c2.2-2.2,1.4-6.2,1.4-6.2c-0.3,1.9-1.4,3.4-2.2,4.3c-0.2-0.4-0.3-0.8-0.5-1.2
			C62.6,30.7,63.1,29.7,63.4,28.9z"/>
		<path class="st16" d="M67.6,32c0.1,0.3,0.2,0.7,0.3,1c-0.2,1.8-1,4-3.2,5.5c-0.2-0.6-0.4-1.2-0.7-1.8C65.1,35.8,66.9,34.1,67.6,32
			z"/>
		<path class="st17" d="M67.9,33c1,4.2-0.4,6.9-0.4,6.9l-1.6,1.7c-0.4-1-0.8-2.1-1.2-3.1C66.9,37,67.7,34.7,67.9,33z"/>
		<path class="st18" d="M56,27.3c0.1,0.2,0.3,0.3,0.4,0.4c0,0.2,0,0.3,0,0.5C56.1,27.7,56,27.3,56,27.3z"/>
		<path class="st18" d="M57.1,37.2c0,0.1,0.1,0.2,0.1,0.4c-0.6-0.7-0.9-1.1-0.9-1.1C56.6,36.7,56.8,36.9,57.1,37.2z"/>
		<path class="st19" d="M56.5,28.2c0-0.2,0-0.3,0-0.5c1.1,0.8,2.9,0.4,4.1,0c0.2,0.4,0.4,0.9,0.6,1.3c0,0.1,0.1,0.2,0.1,0.3
			C58.7,30.8,57.2,29.3,56.5,28.2z"/>
		<path class="st20" d="M56.5,27.8c-0.2-3.3,0.3-8.3,0.3-8.3c0.1,0.3,0.5,0.7,1,1.2c0.6,1.6,1.5,4,2.9,7.1
			C59.4,28.1,57.6,28.6,56.5,27.8z"/>
		<path class="st21" d="M60.1,34.9l0.8,0.5C60.7,35.3,60.4,35.1,60.1,34.9z"/>
		<path class="st14" d="M60.1,34.9c-1.1-1-2.5-3.1-3.3-4.8c-0.2-0.4-0.3-1.1-0.4-1.8c0.7,1.1,2.2,2.6,4.7,1.1c0.9,2.1,1.8,4.5,2.8,7
			c-2.2-0.4-3-1-3-1L60.1,34.9z"/>
		<path class="st22" d="M62.8,42.8l0.6,0.2C63.2,43,63,42.9,62.8,42.8z"/>
		<path class="st23" d="M65.8,41.2c0.3,0.8,0.6,1.6,0.9,2.4c-2.1-0.1-3.3-0.6-3.3-0.6l-0.6-0.2c-2.3-0.9-4.4-2.7-5.4-4.9
			c-0.1-0.1-0.1-0.3-0.2-0.4C58.8,39.2,62,42.2,65.8,41.2z"/>
		<path class="st17" d="M64.9,39c0.3,0.7,0.6,1.5,0.8,2.2c-3.7,1-7-2-8.5-3.7c0-0.1-0.1-0.2-0.1-0.4C59.1,38.7,62.7,38.9,64.9,39z"
			/>
		<path class="st15" d="M56.4,33.3c0.2,0.7,4.5,2.1,4.5,2.1s0.8,0.6,3,1c0.3,0.9,0.7,1.7,1,2.6c-2.2,0-5.8-0.3-7.8-1.8
			C56.4,35.1,56.4,33.3,56.4,33.3z"/>
		<path class="st24" d="M50,40l2.8-3.6c0,0,1.1-2.3,1.6-4.4"/>
		<g>
			<g>
				<g>
					<path class="st25" d="M53.6,51.3c0-0.3,0.2-0.8,0.8-1.4c1-1,1.2-1.2,2.1-1.8c1.2-0.9,1.4-2,1.4-2s0.4,2.9-0.7,4.4
						c-0.7,0.9-1.2,2-1.6,2.8c0.5-0.9,1.3-1.4,1.3-1.4c-0.5,0.6-0.6,1.5-0.6,1.5c2-2.1,4.2-0.2,4.2-0.2c-3.5-1.4-4.5,2.1-4.5,2.1
						c0.9-1.2,2.7-0.4,2.7-0.4c-1.7,0-2.3,1-2.5,1.4C55.1,54.3,54.6,53.3,53.6,51.3z"/>
					<path class="st26" d="M52,47.5c0.3-0.3,1.2-1.1,2-2.6c1.3-2.1,2-4.9,2-4.9s0.9,1.7,0.7,3.6c-0.2,1.8-1.3,3.1-1.7,3.5
						c1.1-1,2.4-0.5,2.4-0.5c-1.7,0.7-2.4,2.8-2.4,2.8c0.8-1.7,1.7-1.2,1.7-1.2c-0.8,0.5-1.3,1.7-1.5,2.1c0,0.1,0,0.1,0,0.1
						c-0.2,0.8-0.4,2.2-0.4,3.4C53.6,51.3,53,50,52,47.5z"/>
					<path class="st27" d="M49.2,39.6c0.7-0.8,4.5-5.1,3.8-8.3c2.6,3.4,1.6,7.6,1.6,7.6c0.2-0.3,0.5-1,0.5-1c1.2,2.1,0.9,4.7-1,7.7
						c-0.8,1.2-1.6,2.4-1.8,2.7C50.9,44.9,50.2,43.1,49.2,39.6z"/>
					<path class="st28" d="M48.6,37.6c0.2-0.2,1.7-1.5,2.5-4.4c0.4-1.3-0.2-3.7-0.2-3.7s1.2,0.8,1.8,3c1,3.6-2.3,8.7-2.3,8.7
						c0.9-0.7,1.5-2.3,1.5-2.3c-0.1,1.7-1,3.5-1,3.5c1.9-2.3,2.4-5.3,2.4-5.3c0.1,3.5-2.1,6.7-2.6,7.4
						C49.8,41.8,49.4,40.4,48.6,37.6z"/>
					<path class="st29" d="M46.3,25.2c0.2,0.2,1,0.9,2.6,2.4c2.4,2.1,0.7,6.8,0.7,6.8c1.7-2.4,0.9-4.3,0.9-4.3
						c2.5,4.2-1.2,8-1.6,8.5C47.4,33.3,46.9,30.6,46.3,25.2z"/>
				</g>
				<g class="st30">
					<g>
						
							<linearGradient id="SVGID_4_" gradientUnits="userSpaceOnUse" x1="544.9942" y1="-2080.439" x2="555.8571" y2="-2080.439" gradientTransform="matrix(0 1 -1 0 -2023.3588 -498.9522)">
							<stop  offset="0" style="stop-color:#FFFFFF"/>
							<stop  offset="0.3963" style="stop-color:#9D9D9D"/>
							<stop  offset="1" style="stop-color:#000000"/>
						</linearGradient>
						<path class="st31" d="M53.6,51.3c0-0.3,0.2-0.8,0.8-1.4c1-1,1.2-1.2,2.1-1.8c1.2-0.9,1.4-2,1.4-2s0.4,2.9-0.7,4.4
							c-0.7,0.9-1.2,2-1.6,2.8c0.5-0.9,1.3-1.4,1.3-1.4c-0.5,0.6-0.6,1.5-0.6,1.5c2-2.1,4.2-0.2,4.2-0.2c-3.5-1.4-4.5,2.1-4.5,2.1
							c0.9-1.2,2.7-0.4,2.7-0.4c-1.7,0-2.3,1-2.5,1.4C55.1,54.3,54.6,53.3,53.6,51.3z"/>
						
							<linearGradient id="SVGID_5_" gradientUnits="userSpaceOnUse" x1="538.9271" y1="-2078.0276" x2="552.7562" y2="-2078.0276" gradientTransform="matrix(0 1 -1 0 -2023.3588 -498.9522)">
							<stop  offset="0" style="stop-color:#FFFFFF"/>
							<stop  offset="0.3963" style="stop-color:#9D9D9D"/>
							<stop  offset="1" style="stop-color:#000000"/>
						</linearGradient>
						<path class="st32" d="M52,47.5c0.3-0.3,1.2-1.1,2-2.6c1.3-2.1,2-4.9,2-4.9s0.9,1.7,0.7,3.6c-0.2,1.8-1.3,3.1-1.7,3.5
							c1.1-1,2.4-0.5,2.4-0.5c-1.7,0.7-2.4,2.8-2.4,2.8c0.8-1.7,1.7-1.2,1.7-1.2c-0.8,0.5-1.3,1.7-1.5,2.1c0,0.1,0,0.1,0,0.1
							c-0.2,0.8-0.4,2.2-0.4,3.4C53.6,51.3,53,50,52,47.5z"/>
						
							<linearGradient id="SVGID_6_" gradientUnits="userSpaceOnUse" x1="530.2308" y1="-2075.8494" x2="547.2242" y2="-2075.8494" gradientTransform="matrix(0 1 -1 0 -2023.3588 -498.9522)">
							<stop  offset="0" style="stop-color:#FFFFFF"/>
							<stop  offset="0.3963" style="stop-color:#9D9D9D"/>
							<stop  offset="1" style="stop-color:#000000"/>
						</linearGradient>
						<path class="st33" d="M49.2,39.6c0.7-0.8,4.5-5.1,3.8-8.3c2.6,3.4,1.6,7.6,1.6,7.6c0.2-0.3,0.5-1,0.5-1c1.2,2.1,0.9,4.7-1,7.7
							c-0.8,1.2-1.6,2.4-1.8,2.7C50.9,44.9,50.2,43.1,49.2,39.6z"/>
						
							<linearGradient id="SVGID_7_" gradientUnits="userSpaceOnUse" x1="528.3702" y1="-2074.3647" x2="547.0985" y2="-2074.3647" gradientTransform="matrix(0 1 -1 0 -2023.3588 -498.9522)">
							<stop  offset="0" style="stop-color:#FFFFFF"/>
							<stop  offset="0.3963" style="stop-color:#9D9D9D"/>
							<stop  offset="1" style="stop-color:#000000"/>
						</linearGradient>
						<path class="st34" d="M48.6,37.6c0.2-0.2,1.7-1.5,2.5-4.4c0.4-1.3-0.2-3.7-0.2-3.7s1.2,0.8,1.8,3c1,3.6-2.3,8.7-2.3,8.7
							c0.9-0.7,1.5-2.3,1.5-2.3c-0.1,1.7-1,3.5-1,3.5c1.9-2.3,2.4-5.3,2.4-5.3c0.1,3.5-2.1,6.7-2.6,7.4
							C49.8,41.8,49.4,40.4,48.6,37.6z"/>
						
							<linearGradient id="SVGID_8_" gradientUnits="userSpaceOnUse" x1="524.1043" y1="-2072.1677" x2="546.4285" y2="-2072.1677" gradientTransform="matrix(0 1 -1 0 -2023.3588 -498.9522)">
							<stop  offset="0" style="stop-color:#FFFFFF"/>
							<stop  offset="0.3963" style="stop-color:#9D9D9D"/>
							<stop  offset="1" style="stop-color:#000000"/>
						</linearGradient>
						<path class="st35" d="M46.3,25.2c0.2,0.2,1,0.9,2.6,2.4c2.4,2.1,0.7,6.8,0.7,6.8c1.7-2.4,0.9-4.3,0.9-4.3
							c2.5,4.2-1.2,8-1.6,8.5C47.4,33.3,46.9,30.6,46.3,25.2z"/>
					</g>
					<g>
						<path class="st25" d="M53.6,51.3c0-0.3,0.2-0.8,0.8-1.4c1-1,1.2-1.2,2.1-1.8c1.2-0.9,1.4-2,1.4-2s0.4,2.9-0.7,4.4
							c-0.7,0.9-1.2,2-1.6,2.8c0.5-0.9,1.3-1.4,1.3-1.4c-0.5,0.6-0.6,1.5-0.6,1.5c2-2.1,4.2-0.2,4.2-0.2c-3.5-1.4-4.5,2.1-4.5,2.1
							c0.9-1.2,2.7-0.4,2.7-0.4c-1.7,0-2.3,1-2.5,1.4C55.1,54.3,54.6,53.3,53.6,51.3z"/>
						<path class="st26" d="M52,47.5c0.3-0.3,1.2-1.1,2-2.6c1.3-2.1,2-4.9,2-4.9s0.9,1.7,0.7,3.6c-0.2,1.8-1.3,3.1-1.7,3.5
							c1.1-1,2.4-0.5,2.4-0.5c-1.7,0.7-2.4,2.8-2.4,2.8c0.8-1.7,1.7-1.2,1.7-1.2c-0.8,0.5-1.3,1.7-1.5,2.1c0,0.1,0,0.1,0,0.1
							c-0.2,0.8-0.4,2.2-0.4,3.4C53.6,51.3,53,50,52,47.5z"/>
						<path class="st27" d="M49.2,39.6c0.7-0.8,4.5-5.1,3.8-8.3c2.6,3.4,1.6,7.6,1.6,7.6c0.2-0.3,0.5-1,0.5-1c1.2,2.1,0.9,4.7-1,7.7
							c-0.8,1.2-1.6,2.4-1.8,2.7C50.9,44.9,50.2,43.1,49.2,39.6z"/>
						<path class="st28" d="M48.6,37.6c0.2-0.2,1.7-1.5,2.5-4.4c0.4-1.3-0.2-3.7-0.2-3.7s1.2,0.8,1.8,3c1,3.6-2.3,8.7-2.3,8.7
							c0.9-0.7,1.5-2.3,1.5-2.3c-0.1,1.7-1,3.5-1,3.5c1.9-2.3,2.4-5.3,2.4-5.3c0.1,3.5-2.1,6.7-2.6,7.4
							C49.8,41.8,49.4,40.4,48.6,37.6z"/>
						<path class="st29" d="M46.3,25.2c0.2,0.2,1,0.9,2.6,2.4c2.4,2.1,0.7,6.8,0.7,6.8c1.7-2.4,0.9-4.3,0.9-4.3
							c2.5,4.2-1.2,8-1.6,8.5C47.4,33.3,46.9,30.6,46.3,25.2z"/>
					</g>
				</g>
				<g>
					<path class="st29" d="M42.9,31c0.3,1.1,1.5,2.1,1.5,2.1c-0.7-0.7-1.5-3.1-0.4-4.8c0.9-1.4,1.8-2.8,1.9-3.1
						c0.6,5.4,1.1,8.1,2.6,13.3c-1.9,0-3.9-2-4.8-3.4C42.7,33.2,42.9,31,42.9,31z"/>
					<path class="st28" d="M42.4,35.1c0.4,0.6,1,0.7,1,0.7c-1-0.7-0.9-3-0.9-3c1.8,3.3,5.2,3.4,5.5,3.5c0.4,1.7,0.7,2.5,1.2,4.2
						c0.2,0.8,0.4,1.2,0.6,2.1C42.8,40.6,42.4,35.1,42.4,35.1z"/>
					<path class="st27" d="M45.9,43.4c-2.8-1.2-3.5-6.1-3.5-6.1c2.4,3.8,6.6,3.5,6.9,3.5c0.3,1,0.5,1.5,0.8,2.5c0.7,2,1.1,3,1.9,5
						c-5.4,0.1-8.4-5.7-8.4-5.7C44.5,43.3,45.9,43.4,45.9,43.4z"/>
					<path class="st26" d="M49.6,50.3C46.8,50,44,44.8,44,44.8c2.5,2.7,7,2,7.3,1.9c0.4,1,0.6,1.5,1.1,2.6c0.9,2,1.3,3,2.3,5
						c-1.6-2.3-5.4-2.3-5.4-2.3c0.5-0.6,1.4-0.7,1.4-0.7c-1.5-0.6-2.8-0.3-2.8-0.3C48.8,50.4,49.6,50.3,49.6,50.3z"/>
					<path class="st25" d="M49.2,52.8c-1.8-0.2-2.4-2.5-2.4-2.5c0.6,1.2,2.3,2.2,3.7,1.6c1.4-0.7,3,0,3,0c1.5,3.2,2.4,4.7,4.3,7.7
						c0.9,1.5,1.4,2.3,2.4,3.7c-0.4,0.3-0.9-0.3-2-2.2c-0.8-1.4-1.7-3.1-2.3-4.1c-1-1.6-3.1-1.1-3.9-0.5s-1.4,0-1.4,0
						c0.7,0.2,1.1-0.2,1.9-1c0.8-0.8,1.7-0.6,1.7-0.6c-0.8-0.8-2.9-0.6-2.9-0.6c1.1-0.7,2.1-0.4,2.1-0.4C52.5,53,51.1,53,49.2,52.8z
						"/>
				</g>
				<g class="st30">
					<g>
						
							<linearGradient id="SVGID_9_" gradientUnits="userSpaceOnUse" x1="517.3671" y1="-2069.115" x2="537.4888" y2="-2069.115" gradientTransform="matrix(0 1 -1 0 -2023.3588 -498.9522)">
							<stop  offset="0" style="stop-color:#000000"/>
							<stop  offset="0.6037" style="stop-color:#9D9D9D"/>
							<stop  offset="1" style="stop-color:#FFFFFF"/>
						</linearGradient>
						<path class="st36" d="M42.9,31c0.3,1.1,1.5,2.1,1.5,2.1c-0.7-0.7-1.5-3.1-0.4-4.8c0.9-1.4,1.8-2.8,1.9-3.1
							c0.6,5.4,1.1,8.1,2.6,13.3c-1.9,0-3.9-2-4.8-3.4C42.7,33.2,42.9,31,42.9,31z"/>
						
							<linearGradient id="SVGID_10_" gradientUnits="userSpaceOnUse" x1="529.9191" y1="-2069.4363" x2="541.4" y2="-2069.4363" gradientTransform="matrix(0 1 -1 0 -2023.3588 -498.9522)">
							<stop  offset="0" style="stop-color:#000000"/>
							<stop  offset="0.6037" style="stop-color:#9D9D9D"/>
							<stop  offset="1" style="stop-color:#FFFFFF"/>
						</linearGradient>
						<path class="st37" d="M42.4,35.1c0.4,0.6,1,0.7,1,0.7c-1-0.7-0.9-3-0.9-3c1.8,3.3,5.2,3.4,5.5,3.5c0.4,1.7,0.7,2.5,1.2,4.2
							c0.2,0.8,0.4,1.2,0.6,2.1C42.8,40.6,42.4,35.1,42.4,35.1z"/>
						
							<linearGradient id="SVGID_11_" gradientUnits="userSpaceOnUse" x1="535.7841" y1="-2070.5574" x2="547.3276" y2="-2070.5574" gradientTransform="matrix(0 1 -1 0 -2023.3588 -498.9522)">
							<stop  offset="0" style="stop-color:#000000"/>
							<stop  offset="0.6037" style="stop-color:#9D9D9D"/>
							<stop  offset="1" style="stop-color:#FFFFFF"/>
						</linearGradient>
						<path class="st38" d="M45.9,43.4c-2.8-1.2-3.5-6.1-3.5-6.1c2.4,3.8,6.6,3.5,6.9,3.5c0.3,1,0.5,1.5,0.8,2.5c0.7,2,1.1,3,1.9,5
							c-5.4,0.1-8.4-5.7-8.4-5.7C44.5,43.3,45.9,43.4,45.9,43.4z"/>
						
							<linearGradient id="SVGID_12_" gradientUnits="userSpaceOnUse" x1="543.7352" y1="-2072.7654" x2="553.2386" y2="-2072.7654" gradientTransform="matrix(0 1 -1 0 -2023.3588 -498.9522)">
							<stop  offset="0" style="stop-color:#000000"/>
							<stop  offset="0.6037" style="stop-color:#9D9D9D"/>
							<stop  offset="1" style="stop-color:#FFFFFF"/>
						</linearGradient>
						<path class="st39" d="M49.6,50.3C46.8,50,44,44.8,44,44.8c2.5,2.7,7,2,7.3,1.9c0.4,1,0.6,1.5,1.1,2.6c0.9,2,1.3,3,2.3,5
							c-1.6-2.3-5.4-2.3-5.4-2.3c0.5-0.6,1.4-0.7,1.4-0.7c-1.5-0.6-2.8-0.3-2.8-0.3C48.8,50.4,49.6,50.3,49.6,50.3z"/>
						
							<linearGradient id="SVGID_13_" gradientUnits="userSpaceOnUse" x1="547.7538" y1="-2076.894" x2="562.2822" y2="-2076.894" gradientTransform="matrix(0 1 -1 0 -2023.3588 -498.9522)">
							<stop  offset="0" style="stop-color:#000000"/>
							<stop  offset="0.6037" style="stop-color:#9D9D9D"/>
							<stop  offset="1" style="stop-color:#FFFFFF"/>
						</linearGradient>
						<path class="st40" d="M49.2,52.8c-1.8-0.2-2.4-2.5-2.4-2.5c0.6,1.2,2.3,2.2,3.7,1.6c1.4-0.7,3,0,3,0c1.5,3.2,2.4,4.7,4.3,7.7
							c0.9,1.5,1.4,2.3,2.4,3.7c-0.4,0.3-0.9-0.3-2-2.2c-0.8-1.4-1.7-3.1-2.3-4.1c-1-1.6-3.1-1.1-3.9-0.5s-1.4,0-1.4,0
							c0.7,0.2,1.1-0.2,1.9-1c0.8-0.8,1.7-0.6,1.7-0.6c-0.8-0.8-2.9-0.6-2.9-0.6c1.1-0.7,2.1-0.4,2.1-0.4C52.5,53,51.1,53,49.2,52.8
							z"/>
					</g>
					<g>
						<path class="st29" d="M42.9,31c0.3,1.1,1.5,2.1,1.5,2.1c-0.7-0.7-1.5-3.1-0.4-4.8c0.9-1.4,1.8-2.8,1.9-3.1
							c0.6,5.4,1.1,8.1,2.6,13.3c-1.9,0-3.9-2-4.8-3.4C42.7,33.2,42.9,31,42.9,31z"/>
						<path class="st28" d="M42.4,35.1c0.4,0.6,1,0.7,1,0.7c-1-0.7-0.9-3-0.9-3c1.8,3.3,5.2,3.4,5.5,3.5c0.4,1.7,0.7,2.5,1.2,4.2
							c0.2,0.8,0.4,1.2,0.6,2.1C42.8,40.6,42.4,35.1,42.4,35.1z"/>
						<path class="st27" d="M45.9,43.4c-2.8-1.2-3.5-6.1-3.5-6.1c2.4,3.8,6.6,3.5,6.9,3.5c0.3,1,0.5,1.5,0.8,2.5c0.7,2,1.1,3,1.9,5
							c-5.4,0.1-8.4-5.7-8.4-5.7C44.5,43.3,45.9,43.4,45.9,43.4z"/>
						<path class="st26" d="M49.6,50.3C46.8,50,44,44.8,44,44.8c2.5,2.7,7,2,7.3,1.9c0.4,1,0.6,1.5,1.1,2.6c0.9,2,1.3,3,2.3,5
							c-1.6-2.3-5.4-2.3-5.4-2.3c0.5-0.6,1.4-0.7,1.4-0.7c-1.5-0.6-2.8-0.3-2.8-0.3C48.8,50.4,49.6,50.3,49.6,50.3z"/>
						<path class="st25" d="M49.2,52.8c-1.8-0.2-2.4-2.5-2.4-2.5c0.6,1.2,2.3,2.2,3.7,1.6c1.4-0.7,3,0,3,0c1.5,3.2,2.4,4.7,4.3,7.7
							c0.9,1.5,1.4,2.3,2.4,3.7c-0.4,0.3-0.9-0.3-2-2.2c-0.8-1.4-1.7-3.1-2.3-4.1c-1-1.6-3.1-1.1-3.9-0.5s-1.4,0-1.4,0
							c0.7,0.2,1.1-0.2,1.9-1c0.8-0.8,1.7-0.6,1.7-0.6c-0.8-0.8-2.9-0.6-2.9-0.6c1.1-0.7,2.1-0.4,2.1-0.4C52.5,53,51.1,53,49.2,52.8
							z"/>
					</g>
				</g>
			</g>
		</g>
		<g>
			<g>
				<path class="st41" d="M99.8,50.5c-0.1-0.4-0.4-1-1.3-1.5c-1.4-0.9-1.8-1.1-3.1-1.6c-1.7-0.7-2.3-2.1-2.3-2.1s0.2,3.7,2,5.3
					c1,0.9,2,2.2,2.7,3c-0.9-1-1.9-1.4-1.9-1.4c0.8,0.6,1.1,1.7,1.1,1.7c-2.9-2-5.2,0.9-5.2,0.9c3.9-2.7,6.1,1.4,6.1,1.4
					c-1.4-1.2-3.4,0.2-3.4,0.2c2.1-0.5,3.1,0.6,3.5,1C98.7,54.6,99.1,53.3,99.8,50.5z"/>
				<path class="st42" d="M100.9,45.4c-0.4-0.2-1.7-1.1-3.2-2.7c-2.1-2.3-3.7-5.5-3.7-5.5s-0.7,2.3,0.1,4.6c0.7,2.2,2.4,3.4,3,3.8
					c-1.6-0.9-3.1,0-3.1,0c2.3,0.4,3.6,2.9,3.6,2.9c-1.4-1.9-2.4-1-2.4-1c1.1,0.4,2.1,1.7,2.4,2.2c0.1,0.1,0.1,0.1,0.1,0.1
					c0.5,0.9,1,2.6,1.3,4.1C99.8,50.6,100.2,48.8,100.9,45.4z"/>
				<path class="st43" d="M102.3,35c-1-0.8-6.9-5.1-6.8-9.2c-2.4,4.9,0,9.8,0,9.8c-0.3-0.3-0.9-1.1-0.9-1.1c-0.9,2.9,0.1,6,3.1,9.2
					c1.3,1.3,2.6,2.5,3,2.9C101.5,41.9,101.9,39.6,102.3,35z"/>
				<path class="st44" d="M102.4,32.4c-0.3-0.2-2.5-1.4-4.2-4.8c-0.8-1.6-0.7-4.7-0.7-4.7s-1.2,1.3-1.4,4.2
					c-0.3,4.7,5.1,10.1,5.1,10.1c-1.3-0.7-2.4-2.4-2.4-2.4c0.6,2.1,2.1,4.1,2.1,4.1c-2.9-2.3-4.3-5.8-4.3-5.8c0.8,4.3,4.3,7.6,5,8.5
					C102,37.9,102.2,36.1,102.4,32.4z"/>
				<path class="st45" d="M102.2,16.4c-0.2,0.3-0.9,1.4-2.6,3.6c-2.4,3.3,0.9,8.6,0.9,8.6c-2.8-2.5-2.3-5.1-2.3-5.1
					c-2.1,5.8,3.5,9.5,4.1,10C102.8,26.7,102.8,23.3,102.2,16.4z"/>
				
					<linearGradient id="SVGID_14_" gradientUnits="userSpaceOnUse" x1="544.2171" y1="-2119.1428" x2="556.3008" y2="-2119.1428" gradientTransform="matrix(0 1 -1 0 -2023.3588 -498.9522)">
					<stop  offset="0" style="stop-color:#FFFFFF"/>
					<stop  offset="0.3963" style="stop-color:#9D9D9D"/>
					<stop  offset="1" style="stop-color:#000000"/>
				</linearGradient>
				<path class="st46" d="M99.8,50.5c-0.1-0.4-0.4-1-1.3-1.5c-1.4-0.9-1.8-1.1-3.1-1.6c-1.7-0.7-2.3-2.1-2.3-2.1s0.2,3.7,2,5.3
					c1,0.9,2,2.2,2.7,3c-0.9-1-1.9-1.4-1.9-1.4c0.8,0.6,1.1,1.7,1.1,1.7c-2.9-2-5.2,0.9-5.2,0.9c3.9-2.7,6.1,1.4,6.1,1.4
					c-1.4-1.2-3.4,0.2-3.4,0.2c2.1-0.5,3.1,0.6,3.5,1C98.7,54.6,99.1,53.3,99.8,50.5z"/>
				
					<linearGradient id="SVGID_15_" gradientUnits="userSpaceOnUse" x1="536.2291" y1="-2120.6211" x2="552.8736" y2="-2120.6211" gradientTransform="matrix(0 1 -1 0 -2023.3588 -498.9522)">
					<stop  offset="0" style="stop-color:#FFFFFF"/>
					<stop  offset="0.3963" style="stop-color:#9D9D9D"/>
					<stop  offset="1" style="stop-color:#000000"/>
				</linearGradient>
				<path class="st47" d="M100.9,45.4c-0.4-0.2-1.7-1.1-3.2-2.7c-2.1-2.3-3.7-5.5-3.7-5.5s-0.7,2.3,0.1,4.6c0.7,2.2,2.4,3.4,3,3.8
					c-1.6-0.9-3.1,0-3.1,0c2.3,0.4,3.6,2.9,3.6,2.9c-1.4-1.9-2.4-1-2.4-1c1.1,0.4,2.1,1.7,2.4,2.2c0.1,0.1,0.1,0.1,0.1,0.1
					c0.5,0.9,1,2.6,1.3,4.1C99.8,50.6,100.2,48.8,100.9,45.4z"/>
				
					<linearGradient id="SVGID_16_" gradientUnits="userSpaceOnUse" x1="524.7225" y1="-2121.6042" x2="545.4378" y2="-2121.6042" gradientTransform="matrix(0 1 -1 0 -2023.3588 -498.9522)">
					<stop  offset="0" style="stop-color:#FFFFFF"/>
					<stop  offset="0.3963" style="stop-color:#9D9D9D"/>
					<stop  offset="1" style="stop-color:#000000"/>
				</linearGradient>
				<path class="st48" d="M102.3,35c-1-0.8-6.9-5.1-6.8-9.2c-2.4,4.9,0,9.8,0,9.8c-0.3-0.3-0.9-1.1-0.9-1.1c-0.9,2.9,0.1,6,3.1,9.2
					c1.3,1.3,2.6,2.5,3,2.9C101.5,41.9,101.9,39.6,102.3,35z"/>
				
					<linearGradient id="SVGID_17_" gradientUnits="userSpaceOnUse" x1="521.8826" y1="-2122.595" x2="540.4947" y2="-2122.595" gradientTransform="matrix(0 1 -1 0 -2023.3588 -498.9522)">
					<stop  offset="0" style="stop-color:#FFFFFF"/>
					<stop  offset="0.3963" style="stop-color:#9D9D9D"/>
					<stop  offset="1" style="stop-color:#000000"/>
				</linearGradient>
				<path class="st49" d="M102.4,32.4c-0.3-0.2-2.5-1.4-4.2-4.8c-0.8-1.6-0.7-4.7-0.7-4.7s-1.2,1.3-1.4,4.2
					c-0.3,4.7,5.1,10.1,5.1,10.1c-1.3-0.7-2.4-2.4-2.4-2.4c0.6,2.1,2.1,4.1,2.1,4.1c-2.9-2.3-4.3-5.8-4.3-5.8c0.8,4.3,4.3,7.6,5,8.5
					C102,37.9,102.2,36.1,102.4,32.4z"/>
				
					<linearGradient id="SVGID_18_" gradientUnits="userSpaceOnUse" x1="515.3799" y1="-2123.585" x2="532.4949" y2="-2123.585" gradientTransform="matrix(0 1 -1 0 -2023.3588 -498.9522)">
					<stop  offset="0" style="stop-color:#FFFFFF"/>
					<stop  offset="0.3963" style="stop-color:#9D9D9D"/>
					<stop  offset="1" style="stop-color:#000000"/>
				</linearGradient>
				<path class="st50" d="M102.2,16.4c-0.2,0.3-0.9,1.4-2.6,3.6c-2.4,3.3,0.9,8.6,0.9,8.6c-2.8-2.5-2.3-5.1-2.3-5.1
					c-2.1,5.8,3.5,9.5,4.1,10C102.8,26.7,102.8,23.3,102.2,16.4z"/>
				<g>
					<path class="st45" d="M107.7,22.7c0,1.5-1.3,2.9-1.3,2.9c0.6-1.1,1-4.2-0.8-6c-1.5-1.5-2.9-2.9-3.2-3.2
						c0.6,6.9,0.7,10.3,0.2,17.1c2.4-0.5,4.3-3.5,5-5.5C108.6,25.4,107.7,22.7,107.7,22.7z"/>
					<path class="st44" d="M109.5,27.6c-0.4,0.8-1,1.1-1,1.1c1-1.1,0.3-4,0.3-4c-1.3,4.5-5.5,5.6-5.9,5.7c-0.1,2.2-0.2,3.3-0.4,5.5
						c-0.1,1.1-0.1,1.6-0.3,2.7C110.4,34.5,109.5,27.6,109.5,27.6z"/>
					<path class="st43" d="M107.2,38.8c3.1-2.3,2.8-8.4,2.8-8.4c-2,5.3-7.2,6.1-7.6,6.1c-0.1,1.3-0.2,2-0.4,3.3
						c-0.3,2.7-0.5,4-1,6.6c6.7-1.4,8.8-9.3,8.8-9.3C108.9,38.3,107.2,38.8,107.2,38.8z"/>
					<path class="st42" d="M104.5,48.3c3.4-1.2,5.4-8.3,5.4-8.3c-2.4,4.1-8.1,4.3-8.5,4.3c-0.2,1.4-0.4,2.1-0.7,3.4
						c-0.5,2.7-0.9,4.1-1.6,6.8c1.3-3.3,6.1-4.2,6.1-4.2c-0.8-0.6-1.9-0.4-1.9-0.4c1.7-1.2,3.3-1.1,3.3-1.1
						C105.5,48.1,104.5,48.3,104.5,48.3z"/>
					<path class="st41" d="M105.6,51.2c2.2-0.7,2.3-3.7,2.3-3.7c-0.5,1.6-2.3,3.4-4.2,2.9c-1.9-0.5-3.7,0.8-3.7,0.8
						c-1.1,4.3-1.7,6.5-3.3,10.6c-0.8,2.1-1.2,3.1-2,5.2c0.6,0.2,1.1-0.6,1.9-3.2c0.7-2,1.3-4.3,1.8-5.6c0.9-2.3,3.5-2.2,4.7-1.7
						c1.1,0.5,1.7-0.4,1.7-0.4c-0.8,0.4-1.4,0-2.5-0.7c-1.2-0.7-2.2-0.3-2.2-0.3c0.8-1.2,3.4-1.5,3.4-1.5c-1.5-0.5-2.7,0.1-2.7,0.1
						C101.6,52.4,103.3,51.9,105.6,51.2z"/>
				</g>
				<g class="st30">
					<g>
						
							<linearGradient id="SVGID_19_" gradientUnits="userSpaceOnUse" x1="506.6686" y1="-2128.6704" x2="532.473" y2="-2128.6704" gradientTransform="matrix(0 1 -1 0 -2023.3588 -498.9522)">
							<stop  offset="0" style="stop-color:#000000"/>
							<stop  offset="0.6037" style="stop-color:#9D9D9D"/>
							<stop  offset="1" style="stop-color:#FFFFFF"/>
						</linearGradient>
						<path class="st51" d="M107.7,22.7c0,1.5-1.3,2.9-1.3,2.9c0.6-1.1,1-4.2-0.8-6c-1.5-1.5-2.9-2.9-3.2-3.2
							c0.6,6.9,0.7,10.3,0.2,17.1c2.4-0.5,4.3-3.5,5-5.5C108.6,25.4,107.7,22.7,107.7,22.7z"/>
						
							<linearGradient id="SVGID_20_" gradientUnits="userSpaceOnUse" x1="521.1532" y1="-2129.2415" x2="537.6021" y2="-2129.2415" gradientTransform="matrix(0 1 -1 0 -2023.3588 -498.9522)">
							<stop  offset="0" style="stop-color:#000000"/>
							<stop  offset="0.6037" style="stop-color:#9D9D9D"/>
							<stop  offset="1" style="stop-color:#FFFFFF"/>
						</linearGradient>
						<path class="st52" d="M109.5,27.6c-0.4,0.8-1,1.1-1,1.1c1-1.1,0.3-4,0.3-4c-1.3,4.5-5.5,5.6-5.9,5.7c-0.1,2.2-0.2,3.3-0.4,5.5
							c-0.1,1.1-0.1,1.6-0.3,2.7C110.4,34.5,109.5,27.6,109.5,27.6z"/>
						
							<linearGradient id="SVGID_21_" gradientUnits="userSpaceOnUse" x1="528.5868" y1="-2128.9019" x2="545.4861" y2="-2128.9019" gradientTransform="matrix(0 1 -1 0 -2023.3588 -498.9522)">
							<stop  offset="0" style="stop-color:#000000"/>
							<stop  offset="0.6037" style="stop-color:#9D9D9D"/>
							<stop  offset="1" style="stop-color:#FFFFFF"/>
						</linearGradient>
						<path class="st53" d="M107.2,38.8c3.1-2.3,2.8-8.4,2.8-8.4c-2,5.3-7.2,6.1-7.6,6.1c-0.1,1.3-0.2,2-0.4,3.3
							c-0.3,2.7-0.5,4-1,6.6c6.7-1.4,8.8-9.3,8.8-9.3C108.9,38.3,107.2,38.8,107.2,38.8z"/>
						
							<linearGradient id="SVGID_22_" gradientUnits="userSpaceOnUse" x1="538.9322" y1="-2127.8855" x2="553.5015" y2="-2127.8855" gradientTransform="matrix(0 1 -1 0 -2023.3588 -498.9522)">
							<stop  offset="0" style="stop-color:#000000"/>
							<stop  offset="0.6037" style="stop-color:#9D9D9D"/>
							<stop  offset="1" style="stop-color:#FFFFFF"/>
						</linearGradient>
						<path class="st54" d="M104.5,48.3c3.4-1.2,5.4-8.3,5.4-8.3c-2.4,4.1-8.1,4.3-8.5,4.3c-0.2,1.4-0.4,2.1-0.7,3.4
							c-0.5,2.7-0.9,4.1-1.6,6.8c1.3-3.3,6.1-4.2,6.1-4.2c-0.8-0.6-1.9-0.4-1.9-0.4c1.7-1.2,3.3-1.1,3.3-1.1
							C105.5,48.1,104.5,48.3,104.5,48.3z"/>
						
							<linearGradient id="SVGID_23_" gradientUnits="userSpaceOnUse" x1="544.2268" y1="-2124.6575" x2="566.0422" y2="-2124.6575" gradientTransform="matrix(0 1 -1 0 -2023.3588 -498.9522)">
							<stop  offset="0" style="stop-color:#000000"/>
							<stop  offset="0.6037" style="stop-color:#9D9D9D"/>
							<stop  offset="1" style="stop-color:#FFFFFF"/>
						</linearGradient>
						<path class="st55" d="M105.6,51.2c2.2-0.7,2.3-3.7,2.3-3.7c-0.5,1.6-2.3,3.4-4.2,2.9c-1.9-0.5-3.7,0.8-3.7,0.8
							c-1.1,4.3-1.7,6.5-3.3,10.6c-0.8,2.1-1.2,3.1-2,5.2c0.6,0.2,1.1-0.6,1.9-3.2c0.7-2,1.3-4.3,1.8-5.6c0.9-2.3,3.5-2.2,4.7-1.7
							c1.1,0.5,1.7-0.4,1.7-0.4c-0.8,0.4-1.4,0-2.5-0.7c-1.2-0.7-2.2-0.3-2.2-0.3c0.8-1.2,3.4-1.5,3.4-1.5c-1.5-0.5-2.7,0.1-2.7,0.1
							C101.6,52.4,103.3,51.9,105.6,51.2z"/>
					</g>
					<g>
						<path class="st45" d="M107.7,22.7c0,1.5-1.3,2.9-1.3,2.9c0.6-1.1,1-4.2-0.8-6c-1.5-1.5-2.9-2.9-3.2-3.2
							c0.6,6.9,0.7,10.3,0.2,17.1c2.4-0.5,4.3-3.5,5-5.5C108.6,25.4,107.7,22.7,107.7,22.7z"/>
						<path class="st44" d="M109.5,27.6c-0.4,0.8-1,1.1-1,1.1c1-1.1,0.3-4,0.3-4c-1.3,4.5-5.5,5.6-5.9,5.7c-0.1,2.2-0.2,3.3-0.4,5.5
							c-0.1,1.1-0.1,1.6-0.3,2.7C110.4,34.5,109.5,27.6,109.5,27.6z"/>
						<path class="st43" d="M107.2,38.8c3.1-2.3,2.8-8.4,2.8-8.4c-2,5.3-7.2,6.1-7.6,6.1c-0.1,1.3-0.2,2-0.4,3.3
							c-0.3,2.7-0.5,4-1,6.6c6.7-1.4,8.8-9.3,8.8-9.3C108.9,38.3,107.2,38.8,107.2,38.8z"/>
						<path class="st42" d="M104.5,48.3c3.4-1.2,5.4-8.3,5.4-8.3c-2.4,4.1-8.1,4.3-8.5,4.3c-0.2,1.4-0.4,2.1-0.7,3.4
							c-0.5,2.7-0.9,4.1-1.6,6.8c1.3-3.3,6.1-4.2,6.1-4.2c-0.8-0.6-1.9-0.4-1.9-0.4c1.7-1.2,3.3-1.1,3.3-1.1
							C105.5,48.1,104.5,48.3,104.5,48.3z"/>
						<path class="st41" d="M105.6,51.2c2.2-0.7,2.3-3.7,2.3-3.7c-0.5,1.6-2.3,3.4-4.2,2.9c-1.9-0.5-3.7,0.8-3.7,0.8
							c-1.1,4.3-1.7,6.5-3.3,10.6c-0.8,2.1-1.2,3.1-2,5.2c0.6,0.2,1.1-0.6,1.9-3.2c0.7-2,1.3-4.3,1.8-5.6c0.9-2.3,3.5-2.2,4.7-1.7
							c1.1,0.5,1.7-0.4,1.7-0.4c-0.8,0.4-1.4,0-2.5-0.7c-1.2-0.7-2.2-0.3-2.2-0.3c0.8-1.2,3.4-1.5,3.4-1.5c-1.5-0.5-2.7,0.1-2.7,0.1
							C101.6,52.4,103.3,51.9,105.6,51.2z"/>
					</g>
				</g>
			</g>
		</g>
		<g>
			<g>
				<g>
					<path class="st56" d="M115.5,52c-0.1-0.3-0.4-0.9-1.2-1.4c-1.3-0.8-1.6-1-2.8-1.5c-1.5-0.7-2-1.9-2-1.9s0.2,3.3,1.8,4.7
						c0.9,0.8,1.8,1.9,2.4,2.7c-0.8-0.9-1.7-1.2-1.7-1.2c0.7,0.5,1,1.5,1,1.5c-2.6-1.8-4.6,0.8-4.6,0.8c3.5-2.4,5.4,1.2,5.4,1.2
						c-1.3-1.1-3,0.1-3,0.1c1.9-0.4,2.8,0.5,3.1,0.9C114.6,55.7,114.9,54.4,115.5,52z"/>
					<path class="st57" d="M116.5,47.4c-0.4-0.2-1.5-1-2.8-2.4c-1.9-2.1-3.3-4.9-3.3-4.9s-0.6,2.1,0.1,4.2c0.6,2,2.2,3.1,2.7,3.4
						c-1.5-0.8-2.7,0-2.7,0c2.1,0.4,3.2,2.6,3.2,2.6c-1.3-1.7-2.2-0.9-2.2-0.9c1,0.4,1.9,1.5,2.1,1.9c0.1,0.1,0.1,0.1,0.1,0.1
						c0.4,0.8,0.9,2.3,1.2,3.6C115.6,52,115.9,50.5,116.5,47.4z"/>
					<path class="st58" d="M117.8,38.1c-0.9-0.7-6.2-4.5-6.1-8.2c-2.1,4.4,0,8.7,0,8.7c-0.3-0.2-0.8-1-0.8-1c-0.8,2.6,0,5.4,2.8,8.2
						c1.1,1.2,2.3,2.2,2.7,2.6C117.1,44.3,117.4,42.2,117.8,38.1z"/>
					<path class="st59" d="M117.9,35.8c-0.3-0.2-2.2-1.3-3.8-4.3c-0.7-1.4-0.7-4.2-0.7-4.2s-1.1,1.1-1.3,3.8c-0.3,4.2,4.5,9,4.5,9
						c-1.2-0.6-2.2-2.1-2.2-2.1c0.5,1.9,1.9,3.6,1.9,3.6c-2.6-2-3.8-5.2-3.8-5.2c0.7,3.9,3.9,6.8,4.5,7.6
						C117.6,40.7,117.7,39.1,117.9,35.8z"/>
					<path class="st60" d="M117.7,21.5c-0.2,0.2-0.8,1.2-2.3,3.2c-2.1,2.9,0.8,7.7,0.8,7.7c-2.5-2.3-2-4.5-2-4.5
						c-1.8,5.2,3.1,8.5,3.7,8.9C118.3,30.7,118.3,27.6,117.7,21.5z"/>
				</g>
				<g class="st30">
					<g>
						
							<linearGradient id="SVGID_24_" gradientUnits="userSpaceOnUse" x1="904.1473" y1="-2190.8201" x2="915.6441" y2="-2190.8201" gradientTransform="matrix(0 1 -1 0 -2078.8589 -856.8746)">
							<stop  offset="0" style="stop-color:#FFFFFF"/>
							<stop  offset="0.3963" style="stop-color:#9D9D9D"/>
							<stop  offset="1" style="stop-color:#000000"/>
						</linearGradient>
						<path class="st61" d="M115.5,52c-0.1-0.3-0.4-0.9-1.2-1.4c-1.3-0.8-1.6-1-2.8-1.5c-1.5-0.7-2-1.9-2-1.9s0.2,3.3,1.8,4.7
							c0.9,0.8,1.8,1.9,2.4,2.7c-0.8-0.9-1.7-1.2-1.7-1.2c0.7,0.5,1,1.5,1,1.5c-2.6-1.8-4.6,0.8-4.6,0.8c3.5-2.4,5.4,1.2,5.4,1.2
							c-1.3-1.1-3,0.1-3,0.1c1.9-0.4,2.8,0.5,3.1,0.9C114.6,55.7,114.9,54.4,115.5,52z"/>
						
							<linearGradient id="SVGID_25_" gradientUnits="userSpaceOnUse" x1="897.0023" y1="-2192.1465" x2="911.94" y2="-2192.1465" gradientTransform="matrix(0 1 -1 0 -2078.8589 -856.8746)">
							<stop  offset="0" style="stop-color:#FFFFFF"/>
							<stop  offset="0.3963" style="stop-color:#9D9D9D"/>
							<stop  offset="1" style="stop-color:#000000"/>
						</linearGradient>
						<path class="st62" d="M116.5,47.4c-0.4-0.2-1.5-1-2.8-2.4c-1.9-2.1-3.3-4.9-3.3-4.9s-0.6,2.1,0.1,4.2c0.6,2,2.2,3.1,2.7,3.4
							c-1.5-0.8-2.7,0-2.7,0c2.1,0.4,3.2,2.6,3.2,2.6c-1.3-1.7-2.2-0.9-2.2-0.9c1,0.4,1.9,1.5,2.1,1.9c0.1,0.1,0.1,0.1,0.1,0.1
							c0.4,0.8,0.9,2.3,1.2,3.6C115.6,52,115.9,50.5,116.5,47.4z"/>
						
							<linearGradient id="SVGID_26_" gradientUnits="userSpaceOnUse" x1="886.711" y1="-2193.0283" x2="905.2415" y2="-2193.0283" gradientTransform="matrix(0 1 -1 0 -2078.8589 -856.8746)">
							<stop  offset="0" style="stop-color:#FFFFFF"/>
							<stop  offset="0.3963" style="stop-color:#9D9D9D"/>
							<stop  offset="1" style="stop-color:#000000"/>
						</linearGradient>
						<path class="st63" d="M117.8,38.1c-0.9-0.7-6.2-4.5-6.1-8.2c-2.1,4.4,0,8.7,0,8.7c-0.3-0.2-0.8-1-0.8-1
							c-0.8,2.6,0,5.4,2.8,8.2c1.1,1.2,2.3,2.2,2.7,2.6C117.1,44.3,117.4,42.2,117.8,38.1z"/>
						
							<linearGradient id="SVGID_27_" gradientUnits="userSpaceOnUse" x1="884.1724" y1="-2193.9172" x2="904.7489" y2="-2193.9172" gradientTransform="matrix(0 1 -1 0 -2078.8589 -856.8746)">
							<stop  offset="0" style="stop-color:#FFFFFF"/>
							<stop  offset="0.3963" style="stop-color:#9D9D9D"/>
							<stop  offset="1" style="stop-color:#000000"/>
						</linearGradient>
						<path class="st64" d="M117.9,35.8c-0.3-0.2-2.2-1.3-3.8-4.3c-0.7-1.4-0.7-4.2-0.7-4.2s-1.1,1.1-1.3,3.8c-0.3,4.2,4.5,9,4.5,9
							c-1.2-0.6-2.2-2.1-2.2-2.1c0.5,1.9,1.9,3.6,1.9,3.6c-2.6-2-3.8-5.2-3.8-5.2c0.7,3.9,3.9,6.8,4.5,7.6
							C117.6,40.7,117.7,39.1,117.9,35.8z"/>
						
							<linearGradient id="SVGID_28_" gradientUnits="userSpaceOnUse" x1="878.358" y1="-2194.8044" x2="903.9674" y2="-2194.8044" gradientTransform="matrix(0 1 -1 0 -2078.8589 -856.8746)">
							<stop  offset="0" style="stop-color:#FFFFFF"/>
							<stop  offset="0.3963" style="stop-color:#9D9D9D"/>
							<stop  offset="1" style="stop-color:#000000"/>
						</linearGradient>
						<path class="st65" d="M117.7,21.5c-0.2,0.2-0.8,1.2-2.3,3.2c-2.1,2.9,0.8,7.7,0.8,7.7c-2.5-2.3-2-4.5-2-4.5
							c-1.8,5.2,3.1,8.5,3.7,8.9C118.3,30.7,118.3,27.6,117.7,21.5z"/>
					</g>
					<g>
						<path class="st56" d="M115.5,52c-0.1-0.3-0.4-0.9-1.2-1.4c-1.3-0.8-1.6-1-2.8-1.5c-1.5-0.7-2-1.9-2-1.9s0.2,3.3,1.8,4.7
							c0.9,0.8,1.8,1.9,2.4,2.7c-0.8-0.9-1.7-1.2-1.7-1.2c0.7,0.5,1,1.5,1,1.5c-2.6-1.8-4.6,0.8-4.6,0.8c3.5-2.4,5.4,1.2,5.4,1.2
							c-1.3-1.1-3,0.1-3,0.1c1.9-0.4,2.8,0.5,3.1,0.9C114.6,55.7,114.9,54.4,115.5,52z"/>
						<path class="st57" d="M116.5,47.4c-0.4-0.2-1.5-1-2.8-2.4c-1.9-2.1-3.3-4.9-3.3-4.9s-0.6,2.1,0.1,4.2c0.6,2,2.2,3.1,2.7,3.4
							c-1.5-0.8-2.7,0-2.7,0c2.1,0.4,3.2,2.6,3.2,2.6c-1.3-1.7-2.2-0.9-2.2-0.9c1,0.4,1.9,1.5,2.1,1.9c0.1,0.1,0.1,0.1,0.1,0.1
							c0.4,0.8,0.9,2.3,1.2,3.6C115.6,52,115.9,50.5,116.5,47.4z"/>
						<path class="st58" d="M117.8,38.1c-0.9-0.7-6.2-4.5-6.1-8.2c-2.1,4.4,0,8.7,0,8.7c-0.3-0.2-0.8-1-0.8-1
							c-0.8,2.6,0,5.4,2.8,8.2c1.1,1.2,2.3,2.2,2.7,2.6C117.1,44.3,117.4,42.2,117.8,38.1z"/>
						<path class="st59" d="M117.9,35.8c-0.3-0.2-2.2-1.3-3.8-4.3c-0.7-1.4-0.7-4.2-0.7-4.2s-1.1,1.1-1.3,3.8c-0.3,4.2,4.5,9,4.5,9
							c-1.2-0.6-2.2-2.1-2.2-2.1c0.5,1.9,1.9,3.6,1.9,3.6c-2.6-2-3.8-5.2-3.8-5.2c0.7,3.9,3.9,6.8,4.5,7.6
							C117.6,40.7,117.7,39.1,117.9,35.8z"/>
						<path class="st60" d="M117.7,21.5c-0.2,0.2-0.8,1.2-2.3,3.2c-2.1,2.9,0.8,7.7,0.8,7.7c-2.5-2.3-2-4.5-2-4.5
							c-1.8,5.2,3.1,8.5,3.7,8.9C118.3,30.7,118.3,27.6,117.7,21.5z"/>
					</g>
				</g>
				<g>
					<path class="st60" d="M122.7,27.1c0,1.3-1.2,2.6-1.2,2.6c0.6-1,0.9-3.8-0.7-5.4c-1.3-1.4-2.6-2.6-2.8-2.9
						c0.6,6.1,0.6,9.2,0.2,15.3c2.1-0.5,3.9-3.1,4.5-4.9C123.5,29.5,122.7,27.1,122.7,27.1z"/>
					<path class="st59" d="M124.2,31.5c-0.4,0.7-0.9,1-0.9,1c0.9-1,0.3-3.5,0.3-3.5c-1.2,4-4.9,5-5.3,5.1c-0.1,2-0.1,2.9-0.3,4.9
						c-0.1,1-0.1,1.5-0.2,2.4C125.1,37.6,124.2,31.5,124.2,31.5z"/>
					<path class="st58" d="M122.2,41.5c2.8-2,2.5-7.5,2.5-7.5c-1.8,4.7-6.4,5.4-6.8,5.5c-0.1,1.2-0.2,1.8-0.3,3
						c-0.3,2.4-0.5,3.6-0.9,5.9c6-1.2,7.9-8.3,7.9-8.3C123.7,41,122.2,41.5,122.2,41.5z"/>
					<path class="st57" d="M119.8,50c3-1.1,4.9-7.4,4.9-7.4c-2.2,3.6-7.3,3.9-7.6,3.9c-0.2,1.2-0.3,1.8-0.6,3.1
						c-0.5,2.4-0.8,3.7-1.4,6.1c1.2-3,5.4-3.8,5.4-3.8c-0.7-0.5-1.7-0.4-1.7-0.4c1.5-1,3-1,3-1C120.6,49.8,119.8,50,119.8,50z"/>
					<path class="st56" d="M120.7,52.6c2-0.6,2.1-3.3,2.1-3.3c-0.4,1.4-2.1,3-3.8,2.6s-3.3,0.7-3.3,0.7c-1,3.9-1.5,5.8-2.9,9.5
						c-0.7,1.9-1,2.8-1.8,4.7c0.5,0.2,1-0.6,1.7-2.9c0.6-1.8,1.1-3.8,1.6-5c0.8-2,3.2-2,4.2-1.5c1,0.5,1.6-0.4,1.6-0.4
						c-0.8,0.4-1.2,0-2.3-0.7c-1.1-0.6-2-0.2-2-0.2c0.7-1.1,3.1-1.4,3.1-1.4c-1.4-0.5-2.5,0.1-2.5,0.1
						C117.1,53.6,118.7,53.2,120.7,52.6z"/>
				</g>
				<g class="st30">
					<g>
						
							<linearGradient id="SVGID_29_" gradientUnits="userSpaceOnUse" x1="870.567" y1="-2199.3547" x2="893.6465" y2="-2199.3547" gradientTransform="matrix(0 1 -1 0 -2078.8589 -856.8746)">
							<stop  offset="0" style="stop-color:#000000"/>
							<stop  offset="0.6037" style="stop-color:#9D9D9D"/>
							<stop  offset="1" style="stop-color:#FFFFFF"/>
						</linearGradient>
						<path class="st66" d="M122.7,27.1c0,1.3-1.2,2.6-1.2,2.6c0.6-1,0.9-3.8-0.7-5.4c-1.3-1.4-2.6-2.6-2.8-2.9
							c0.6,6.1,0.6,9.2,0.2,15.3c2.1-0.5,3.9-3.1,4.5-4.9C123.5,29.5,122.7,27.1,122.7,27.1z"/>
						
							<linearGradient id="SVGID_30_" gradientUnits="userSpaceOnUse" x1="883.5253" y1="-2199.8606" x2="898.2342" y2="-2199.8606" gradientTransform="matrix(0 1 -1 0 -2078.8589 -856.8746)">
							<stop  offset="0" style="stop-color:#000000"/>
							<stop  offset="0.6037" style="stop-color:#9D9D9D"/>
							<stop  offset="1" style="stop-color:#FFFFFF"/>
						</linearGradient>
						<path class="st67" d="M124.2,31.5c-0.4,0.7-0.9,1-0.9,1c0.9-1,0.3-3.5,0.3-3.5c-1.2,4-4.9,5-5.3,5.1c-0.1,2-0.1,2.9-0.3,4.9
							c-0.1,1-0.1,1.5-0.2,2.4C125.1,37.6,124.2,31.5,124.2,31.5z"/>
						
							<linearGradient id="SVGID_31_" gradientUnits="userSpaceOnUse" x1="890.1743" y1="-2199.5547" x2="905.2852" y2="-2199.5547" gradientTransform="matrix(0 1 -1 0 -2078.8589 -856.8746)">
							<stop  offset="0" style="stop-color:#000000"/>
							<stop  offset="0.6037" style="stop-color:#9D9D9D"/>
							<stop  offset="1" style="stop-color:#FFFFFF"/>
						</linearGradient>
						<path class="st68" d="M122.2,41.5c2.8-2,2.5-7.5,2.5-7.5c-1.8,4.7-6.4,5.4-6.8,5.5c-0.1,1.2-0.2,1.8-0.3,3
							c-0.3,2.4-0.5,3.6-0.9,5.9c6-1.2,7.9-8.3,7.9-8.3C123.7,41,122.2,41.5,122.2,41.5z"/>
						
							<linearGradient id="SVGID_32_" gradientUnits="userSpaceOnUse" x1="899.4263" y1="-2198.6421" x2="912.4537" y2="-2198.6421" gradientTransform="matrix(0 1 -1 0 -2078.8589 -856.8746)">
							<stop  offset="0" style="stop-color:#000000"/>
							<stop  offset="0.6037" style="stop-color:#9D9D9D"/>
							<stop  offset="1" style="stop-color:#FFFFFF"/>
						</linearGradient>
						<path class="st69" d="M119.8,50c3-1.1,4.9-7.4,4.9-7.4c-2.2,3.6-7.3,3.9-7.6,3.9c-0.2,1.2-0.3,1.8-0.6,3.1
							c-0.5,2.4-0.8,3.7-1.4,6.1c1.2-3,5.4-3.8,5.4-3.8c-0.7-0.5-1.7-0.4-1.7-0.4c1.5-1,3-1,3-1C120.6,49.8,119.8,50,119.8,50z"/>
						
							<linearGradient id="SVGID_33_" gradientUnits="userSpaceOnUse" x1="904.1626" y1="-2195.751" x2="923.6691" y2="-2195.751" gradientTransform="matrix(0 1 -1 0 -2078.8589 -856.8746)">
							<stop  offset="0" style="stop-color:#000000"/>
							<stop  offset="0.6037" style="stop-color:#9D9D9D"/>
							<stop  offset="1" style="stop-color:#FFFFFF"/>
						</linearGradient>
						<path class="st70" d="M120.7,52.6c2-0.6,2.1-3.3,2.1-3.3c-0.4,1.4-2.1,3-3.8,2.6s-3.3,0.7-3.3,0.7c-1,3.9-1.5,5.8-2.9,9.5
							c-0.7,1.9-1,2.8-1.8,4.7c0.5,0.2,1-0.6,1.7-2.9c0.6-1.8,1.1-3.8,1.6-5c0.8-2,3.2-2,4.2-1.5c1,0.5,1.6-0.4,1.6-0.4
							c-0.8,0.4-1.2,0-2.3-0.7c-1.1-0.6-2-0.2-2-0.2c0.7-1.1,3.1-1.4,3.1-1.4c-1.4-0.5-2.5,0.1-2.5,0.1
							C117.1,53.6,118.7,53.2,120.7,52.6z"/>
					</g>
					<g>
						<path class="st60" d="M122.7,27.1c0,1.3-1.2,2.6-1.2,2.6c0.6-1,0.9-3.8-0.7-5.4c-1.3-1.4-2.6-2.6-2.8-2.9
							c0.6,6.1,0.6,9.2,0.2,15.3c2.1-0.5,3.9-3.1,4.5-4.9C123.5,29.5,122.7,27.1,122.7,27.1z"/>
						<path class="st59" d="M124.2,31.5c-0.4,0.7-0.9,1-0.9,1c0.9-1,0.3-3.5,0.3-3.5c-1.2,4-4.9,5-5.3,5.1c-0.1,2-0.1,2.9-0.3,4.9
							c-0.1,1-0.1,1.5-0.2,2.4C125.1,37.6,124.2,31.5,124.2,31.5z"/>
						<path class="st58" d="M122.2,41.5c2.8-2,2.5-7.5,2.5-7.5c-1.8,4.7-6.4,5.4-6.8,5.5c-0.1,1.2-0.2,1.8-0.3,3
							c-0.3,2.4-0.5,3.6-0.9,5.9c6-1.2,7.9-8.3,7.9-8.3C123.7,41,122.2,41.5,122.2,41.5z"/>
						<path class="st57" d="M119.8,50c3-1.1,4.9-7.4,4.9-7.4c-2.2,3.6-7.3,3.9-7.6,3.9c-0.2,1.2-0.3,1.8-0.6,3.1
							c-0.5,2.4-0.8,3.7-1.4,6.1c1.2-3,5.4-3.8,5.4-3.8c-0.7-0.5-1.7-0.4-1.7-0.4c1.5-1,3-1,3-1C120.6,49.8,119.8,50,119.8,50z"/>
						<path class="st56" d="M120.7,52.6c2-0.6,2.1-3.3,2.1-3.3c-0.4,1.4-2.1,3-3.8,2.6s-3.3,0.7-3.3,0.7c-1,3.9-1.5,5.8-2.9,9.5
							c-0.7,1.9-1,2.8-1.8,4.7c0.5,0.2,1-0.6,1.7-2.9c0.6-1.8,1.1-3.8,1.6-5c0.8-2,3.2-2,4.2-1.5c1,0.5,1.6-0.4,1.6-0.4
							c-0.8,0.4-1.2,0-2.3-0.7c-1.1-0.6-2-0.2-2-0.2c0.7-1.1,3.1-1.4,3.1-1.4c-1.4-0.5-2.5,0.1-2.5,0.1
							C117.1,53.6,118.7,53.2,120.7,52.6z"/>
					</g>
				</g>
			</g>
		</g>
		<g>
			<path class="st21" d="M81.4,31.2c0,0,0.7-0.7,1.5-1.9c0.1,0.3,0.2,0.5,0.3,0.8C82.6,30.6,82,31,81.4,31.2z"/>
			<path class="st71" d="M62.7,0c0.9,0.3,6.2,2,9.7,4c3.4,2,6.4,5.1,7.5,8.6c0.9,2.7,1.1,6.3,1.2,7.6l-0.7,2.2C73,5.1,62.7,0,62.7,0
				z"/>
			<path class="st72" d="M80.7,23.4c1.3-1.5,2.6-3.4,3.7-5.7c0.2,0.2,0.4,0.4,0.6,0.5c-0.7,2.3-1.7,5-3.3,7.8
				C81.4,25.1,81.1,24.3,80.7,23.4z"/>
			<path class="st73" d="M80.4,22.5l0.7-2.2c0,0.3,0,0.5,0,0.5l0.8-5.2c0.4,0.3,1.4,1.1,2.6,2.2c-1.1,2.3-2.4,4.2-3.7,5.7
				C80.6,23.1,80.5,22.8,80.4,22.5z"/>
			<path class="st74" d="M84.5,35.4c1.6-2.7,4.1-7.9,4.3-13.6c0.5,0.6,1.1,1.1,1.6,1.7c-0.9,6.9-4.7,13.1-5.4,14.2
				C84.9,36.9,84.7,36.1,84.5,35.4z"/>
			<path class="st75" d="M92.6,37l3.2-3.7c0,0-0.2,3.7-1.7,12.7c-1.5,9-5.4,9.6-5.4,9.6l-1.4-0.1c-0.2-4.1-0.6-7.9-1.1-11.5
				C89.4,41.7,91.4,39.1,92.6,37z"/>
			<path class="st76" d="M86.2,44c-0.3-2.2-0.7-4.3-1.1-6.3c0.7-1.1,4.5-7.3,5.4-14.2c0.3,0.3,0.5,0.6,0.8,0.9
				c3.3,3.9,2.2,7.6,2,9.7s-3.5,6.4-3.5,6.4l3-3.4C91.4,39.1,89.4,41.7,86.2,44z"/>
			<path class="st77" d="M83.8,32.4c-0.2-0.8-0.4-1.6-0.7-2.3c2.4-2.4,2.9-7,2.9-7C86.2,26.5,84.9,30.1,83.8,32.4z"/>
			<path class="st78" d="M83.8,32.4c1.1-2.3,2.5-5.9,2.2-9.4c0,0-0.5,4.7-2.9,7c-0.1-0.3-0.2-0.5-0.3-0.8c0.9-1.4,1.7-3.5,1.2-5.8
				c0,0-0.4,2.6-1.7,4.1c-0.2-0.5-0.4-1-0.5-1.6c1.6-2.8,2.6-5.5,3.3-7.8c1.2,1,2.5,2.3,3.8,3.6c-0.2,5.7-2.7,10.9-4.3,13.6
				C84.3,34.3,84,33.4,83.8,32.4z"/>
			<path class="st79" d="M82.8,29.3c-0.2-0.6-0.4-1.1-0.6-1.7c1.3-1.5,1.7-4.1,1.7-4.1C84.5,25.8,83.7,27.9,82.8,29.3z"/>
			<path class="st18" d="M80.5,45.8c0,0-4.5-1.5-4.8-1.8L80.5,45.8z"/>
			<path class="st18" d="M74.9,35.5c-0.4-0.5-0.8-1-1.2-1.5l5.2,3c0.5,0.3,0.9,0.5,1,0.6C79.9,37.5,76.8,36.5,74.9,35.5z"/>
			<path class="st80" d="M86.9,49.7c0.1,0.9,0.2,1.9,0.3,2.8c-5.1-1.1-6.6-6.7-6.6-6.7S81.6,48.2,86.9,49.7z"/>
			<path class="st81" d="M87.1,52.5c0.1,1,0.1,2,0.2,3l-0.2,0c0,0,0,0-0.7,0.1c-0.7,0.1-2,0.2-4.2-1.6c-2.3-1.8-6.8-10.3-6.5-10
				c0.3,0.3,4.8,1.8,4.8,1.8S82,51.4,87.1,52.5z"/>
			<path class="st21" d="M80.7,23.4c0.1,0.2,0.2,0.4,0.2,0.6c-0.3,0.1-0.6,0.1-0.8,0.1C80.3,23.9,80.5,23.7,80.7,23.4z"/>
			<path class="st82" d="M66.4,14.9c0,0,4.4,3.6,10.8,1.3c0.5,1,1.1,2,1.6,3.1C75.4,19.1,68.5,18.3,66.4,14.9z"/>
			<polygon class="st21" points="80.4,22.5 80.4,22.5 80.3,22.5 			"/>
			<path class="st83" d="M67.4,20.8c0.3,0.2,7.7,2.2,7.7,2.2s1.3,1.6,5,1.1c0.3,0,0.5-0.1,0.8-0.1c0.3,0.7,0.5,1.3,0.8,2
				c0.2,0.5,0.4,1,0.5,1.6c0.2,0.6,0.4,1.1,0.6,1.7c-0.7,1.2-0.1,0.6-0.1,0.6c0.7-0.2-0.1,0.7,0.4,0.2c0.2,0.8,0.4,1.5,0.7,2.3
				c0.3,1,0.5,1.9,0.8,3c0.2,0.8,0.4,1.5,0.5,2.3c0.1,0.6,0.2,1.2,0.4,1.8c-3.2-0.2-5.4-1.9-5.4-1.9l-1-0.6
				c-1.5-0.9-4.1-2.8-5.4-4.3C71.8,30.8,67.1,20.6,67.4,20.8z"/>
			<path class="st84" d="M64.2,9.2C62.9,5.6,62.7,0,62.7,0s7.8,3.8,14.6,16.2c-6.4,2.3-10.8-1.3-10.8-1.3c2.1,3.5,9,4.2,12.4,4.4
				c0.5,1,1,2.1,1.5,3.2l0,0c-1.4,0.6-3.5,1.2-5.2,0.5c0,0-2.8-1.3-4.9-2.3C68,19.7,65.5,12.7,64.2,9.2z"/>
			<path class="st85" d="M80.3,22.5L80.2,23L80.3,22.5C80.4,22.5,80.4,22.5,80.3,22.5c0.1,0.3,0.3,0.6,0.4,0.9
				c-0.2,0.2-0.4,0.5-0.6,0.7c-3.7,0.4-5-1.1-5-1.1C76.9,23.7,79,23.1,80.3,22.5z"/>
			<path class="st80" d="M85.4,39.5c0.2,1.2,0.4,2.4,0.6,3.6c-3.1-1.2-7.8-3.5-11.2-7.6c2,1,5.1,2,5.1,2S82.2,39.3,85.4,39.5z"/>
			<path class="st86" d="M86,43.1c0.1,0.3,0.1,0.6,0.1,1c-0.3,0.2-0.6,0.4-1,0.7c0.3-0.2,0.6-0.4,1-0.7c0.3,1.8,0.5,3.7,0.7,5.6
				c-5.3-1.4-6.3-3.9-6.3-3.9s-4.4-2.3-5.3-4.4c-0.9-2.1-1.8-6.9-1.8-6.9c0.3,0.3,0.8,0.7,1.4,1C78.3,39.6,82.9,41.9,86,43.1z"/>
			<path class="st87" d="M87.3,61.2l0.8,2.4c0,0,0.4-12.8-1-20.9s-7.8-24.9-12.6-31.2c-4.6-6.1-6.9-8.3-6.9-8.3l0.4,2.6
				c0,0,6.7,5.1,12.6,19.5S86.6,40.1,87.3,61.2z"/>
		</g>
		<path class="st23" d="M69.4,37.5c0,0,0.4,0.3,1,1.4c-0.6,2.4-2.4,4-3.7,5c-0.3-0.8-0.6-1.5-0.9-2.3l1.6-1.7L69.4,37.5z"/>
		<path class="st22" d="M70.4,38.9c0.3,0.5,0.6,1.1,0.9,1.8c0.1,2.5-0.5,5.3-3.3,6.5c-0.4-1.1-0.9-2.2-1.3-3.3
			C68.1,42.9,69.9,41.3,70.4,38.9z"/>
		<path class="st88" d="M73.1,46.6c0.2,3.7-1.7,6.4-2.2,6.9c-0.4-0.7-0.8-1.6-1.2-2.5C70.6,50.3,72.1,48.8,73.1,46.6z"/>
		<path class="st89" d="M71.3,40.7c0.4,0.9,0.8,2,1.2,3.3c0.3,0.9,0.4,1.7,0.5,2.5c-1,2.2-2.5,3.7-3.4,4.4c-0.5-1.1-1-2.4-1.6-3.8
			C70.8,46.1,71.4,43.2,71.3,40.7z"/>
		<path class="st18" d="M60.7,47.3c0,0,0.8,0.6,2.1,1.2c0.2,0.3,0.5,0.6,0.7,0.8C61.9,48.3,60.7,47.3,60.7,47.3z"/>
		<path class="st89" d="M69.1,49.6c0.3,0.7,0.6,1.4,0.9,2c-2,0.1-4.4-1.1-6.3-2.3c-0.2-0.3-0.5-0.6-0.7-0.8
			C64.5,49.2,66.8,50,69.1,49.6z"/>
		<path class="st22" d="M69.1,49.6c-2.2,0.3-4.6-0.4-6.2-1.2c-0.1-0.2-0.3-0.3-0.4-0.5c-1.9-2.4-3.2-5.9-3.2-5.9
			c0.8,1,4.1,0.9,4.1,0.9s1.2,0.5,3.3,0.6C67.5,45.8,68.3,47.9,69.1,49.6z"/>
		<path class="st22" d="M69.9,51.6c0.3,0.7,0.6,1.4,0.9,1.9c-0.1,0.1-0.1,0.1-0.1,0.1c-2.6,0.1-5.2-2.2-7.2-4.4
			C65.5,50.5,68,51.7,69.9,51.6z"/>
		<path class="st90" d="M71.4,60.6l0.9,1.4c0,0-1-9.3-4.5-17.6c-3.5-8.4-11-21.6-11.2-21.9l0.1,1.5c0,0,5.5,9.1,8.8,16.6
			C68.8,48.1,68.8,47.8,71.4,60.6z"/>
		<path class="st91" d="M42.5,62c0-1.9,0-3.4,0-3.4c5.2,3.8,46.4-1.4,53.4-1.4s29.5,0.5,29.5,0.5l0.1,3.2
			C108.5,60.8,60,60.7,42.5,62z"/>
		<path class="st92" d="M42.5,62c17.6-1.3,66-1.2,83-1.1l0.1,2c-15.8,0-65.2,0.1-83,0.2C42.5,62.7,42.5,62.3,42.5,62z"/>
		<path class="st93" d="M125.5,62.9l0.1,2.3C107.8,65.1,65,64.9,42.6,65c0-0.6-0.1-1.3-0.1-1.9C60.4,63,109.7,62.9,125.5,62.9z"/>
		<path class="st94" d="M42.7,67.3c-0.1-0.7-0.1-1.5-0.1-2.3c22.4-0.2,65.2,0.1,83.1,0.2l0.1,2.1C112.4,67.2,57.2,66.7,42.7,67.3z"
			/>
		<path class="st95" d="M125.7,67.3l0.1,1.9c0,0-25.3-1-31.8,0s-50.6,1.9-51-0.5c-0.1-0.4-0.1-0.8-0.2-1.4
			C57.2,66.7,112.4,67.2,125.7,67.3z"/>
		<g>
			<ellipse class="st91" cx="86.5" cy="64.1" rx="6.9" ry="7.1"/>
			<ellipse class="st92" cx="86.5" cy="64.1" rx="6.2" ry="6.3"/>
			<ellipse class="st96" cx="86.5" cy="64.1" rx="5.3" ry="5.4"/>
			<ellipse class="st95" cx="86.5" cy="64.1" rx="4.7" ry="4.8"/>
			<g>
				<ellipse class="st92" cx="86.5" cy="64.1" rx="1.7" ry="1.8"/>
				<polygon class="st92" points="86.6,66.3 85.7,66.3 86.1,67 86.6,67.8 87,67 87.4,66.3 				"/>
				<polygon class="st92" points="85,65.6 84.4,65 84.2,65.9 84,66.7 84.8,66.5 85.6,66.2 				"/>
				<polygon class="st92" points="84.4,64.1 84.4,63.2 83.6,63.7 82.9,64.1 83.6,64.5 84.4,64.9 				"/>
				<polygon class="st92" points="85,62.5 85.6,61.9 84.8,61.7 84,61.5 84.2,62.3 84.4,63.1 				"/>
				<polygon class="st92" points="86.5,61.8 87.3,61.8 86.9,61.1 86.5,60.4 86.1,61.1 85.7,61.8 				"/>
				<polygon class="st92" points="88.1,62.5 88.6,63.1 88.9,62.3 89.1,61.4 88.3,61.7 87.5,61.9 				"/>
				<polygon class="st92" points="88.7,64 88.7,64.9 89.4,64.5 90.1,64 89.4,63.6 88.7,63.2 				"/>
				<polygon class="st92" points="88.1,65.6 87.5,66.2 88.3,66.4 89.1,66.7 88.9,65.8 88.7,65 				"/>
			</g>
		</g>
	</g>
</g>
</svg>
