<!-- Generator: Adobe Illustrator 21.0.2, SVG Export Plug-In  -->
<svg version="1.1"
	 xmlns="http://www.w3.org/2000/svg" xmlns:xlink="http://www.w3.org/1999/xlink" xmlns:a="http://ns.adobe.com/AdobeSVGViewerExtensions/3.0/"
	 x="0px" y="0px" width="101.1px" height="145.6px" viewBox="0 0 101.1 145.6" style="enable-background:new 0 0 101.1 145.6;"
	 xml:space="preserve">
<style type="text/css">
	.st0{fill:#FFFFFF;}
</style>
<defs>
</defs>
<path class="st0" d="M49.8,0.3c-4.2,0.1-8.4,0.2-12.5,0.3C33,0.6,28.5,0.3,24.2,0.8c-0.2,0-0.4,0.1-0.6,0.2C22.9,0.9,22,1.3,22,2.2
	c-0.2,6.8-0.1,13.6,0,20.5c0,6.7-0.2,13.4,0.1,20.2c0.5,11.6,1.7,22.9,0.5,34.4c-2.9-0.6-6-0.9-8.9-1.2c-1.9-0.2-3.7-0.4-5.6-0.6
	c-1.3-0.2-2.6-0.6-3.9-0.3c-0.9-0.3-1.9-0.4-2.9-0.5c-0.5,0-1.1,0.4-1.2,0.9c-0.3,2,1.5,3.9,2.5,5.6c0,0,0,0,0,0.1
	c0,0.3,0.1,0.6,0.4,0.7c1.7,2.8,3.5,5.7,5.2,8.5c3.9,6.4,7.8,12.7,11.8,18.9c6.4,9.9,13,19.7,18.9,29.9c0,0,0,0,0,0
	c-0.3,0-0.3,0.5,0,0.5c0.1,0,0.2,0,0.3,0c1,1.7,2,3.5,2.9,5.2c0.4,0.7,1.1,0.6,1.5,0.1c0.1,0,0.3,0,0.4,0c2.6-0.8,4.6-3.5,6.4-5.5
	c2.4-2.6,4.7-5.5,6.9-8.3c5-6.4,10.2-12.3,16-18.1c5.4-5.4,10.6-11,16-16.5c4.2-4.2,10.1-8.8,11.5-14.9c0-0.2,0-0.3-0.1-0.4
	c0.4-0.7,0-1.7-1-1.7c-3.9-0.1-7.9-0.1-11.8-0.2c-3.5,0-7.1-0.2-10.6,0.2c3.3-13.3,2.3-27.5,1.1-41c-0.5-6.4-0.8-12.8-0.8-19.3
	c0-5.8,0.4-11.7-0.2-17.5C77.7,1.6,77.4,1.2,77,1c-0.1-0.3-0.4-0.6-0.9-0.7C67.4-0.3,58.6,0.1,49.8,0.3z M43.4,143
	c-0.4-1-0.9-2-1.4-3c1.4,0,2.8,0,4.2-0.1C45.2,140.8,44.1,141.9,43.4,143z M50,136.2c-0.9,1-1.9,1.9-3,2.9c-1.8,0.1-3.6,0.1-5.3,0.1
	c-0.4-0.8-0.8-1.7-1.3-2.5c3.3,0.1,6.5,0,9.7-0.7C50.1,136.1,50.1,136.1,50,136.2z M52.2,133.5c-0.5,0.6-1.1,1.3-1.6,1.9
	c-3.5,0.8-7.1,0.5-10.7,0.4c-0.5-0.9-1-1.8-1.5-2.8C42.7,134.5,47.9,133.9,52.2,133.5z M52.9,132.8c-5.2,0.3-10.1,0.2-15.2-1
	c-0.3-0.5-0.6-1-0.8-1.4c2.5,0.5,5.2,0.4,7.7,0.3c3.4-0.1,6.8-0.2,10.2-0.2C54.1,131.3,53.5,132,52.9,132.8z M56.7,128.1
	c-0.5,0.6-1,1.2-1.4,1.8c-3.2-0.2-6.4-0.1-9.6-0.1c-3.2,0-6.3-0.4-9.5-0.5c-0.4-0.7-0.9-1.4-1.3-2.1c3.5,0.8,7.4,0.8,10.7,0.9
	c4,0.1,7.9-0.2,11.8-0.9C57.2,127.5,56.9,127.8,56.7,128.1z M58,126.5c-4.1,0.5-8.3,0.5-12.4,0.3c-3.9-0.2-7.9-1.1-11.8-1.3
	c-0.5-0.7-0.9-1.5-1.4-2.2c8.9,1.1,18,1.2,27,1.4C59,125.3,58.5,125.9,58,126.5z M60,124c-9.5-0.6-18.9-1-28.4-1.9c-0.7-1-1.3-2-2-3
	c10.8,1.8,21.8,1.3,32.7,2.2C61.6,122.2,60.8,123.1,60,124z M62.9,120.7c-11.3-1.1-22.8-1.1-34.1-2.8c-0.8-1.3-1.7-2.5-2.5-3.8
	c13.2,0.4,26.3,3.4,39.5,3.3C64.9,118.5,63.9,119.6,62.9,120.7z M69.8,113.3c-1.1,1.1-2.2,2.2-3.3,3.4c-13.7-0.1-27.1-3.5-40.8-3.6
	c-0.5-0.8-1-1.5-1.5-2.3c-0.1-0.2-0.2-0.3-0.3-0.5C38.8,113.1,54.6,113.5,69.8,113.3z M70.9,112.2c-0.1,0.1-0.2,0.3-0.4,0.4
	c-7.8-0.3-15.7-0.5-23.5-1c-8-0.5-16-1.5-24-2.5c-0.6-0.9-1.2-1.8-1.8-2.8c17.2,1.8,34.9,3.7,52.2,3.3c0,0,0,0,0,0
	C72.6,110.5,71.7,111.4,70.9,112.2z M73.8,109.3c0-0.2-0.1-0.4-0.3-0.4c-17.7-0.9-35.3-2.5-52.9-3.7c-0.4-0.7-0.8-1.3-1.2-2
	c8.1,1.3,16.7,1,24.8,1.4c10.8,0.6,21.7,1.8,32.5,1.7C75.7,107.3,74.8,108.3,73.8,109.3z M77.4,105.6c-10.7-0.5-21.4-1.3-32-2
	c-8.8-0.6-18.1-0.1-26.8-1.6c-0.6-0.9-1.2-1.9-1.7-2.8c10.4,0.6,20.6,1.8,31,2.5c10.4,0.7,20.8,1,31.2,2.3
	C78.4,104.6,77.9,105.1,77.4,105.6z M79.6,103.4c-10.1-1.8-20.4-2-30.7-2.7C38,100,27,97.9,16,98c-0.8-1.3-1.7-2.7-2.5-4
	c23.1,3.1,46.3,5.6,69.6,5.9C81.9,101,80.8,102.2,79.6,103.4z M86.5,96.5c-0.9,0.8-1.7,1.7-2.6,2.5c-23.8-0.5-47.6-3.1-71.2-6.3
	c-0.3-0.5-0.6-1-0.9-1.5C36.7,91.7,61.5,96.8,86.5,96.5z M87.2,95.7C87.2,95.8,87.2,95.8,87.2,95.7c-25.5-1.3-50.7-5.2-76.1-5.7
	c-1-1.6-2-3.2-2.9-4.8c13.6,0.3,27.1,1.9,40.7,2.9c14.3,1,28.6,1,42.7,3.6C90.1,93.1,88.6,94.4,87.2,95.7z M92.1,91.2
	c-13.5-2.8-27.2-3.1-40.9-4c-14.6-1-29-2.7-43.7-3c0-0.1-0.1-0.2-0.1-0.2c-0.3-0.6-0.7-1.1-1-1.7c6.7,0.6,13.4,1.2,20.2,1.7
	c8.3,0.6,16.6,0.5,24.9,0.9c7.9,0.4,15.7,1.1,23.5,2.1c6.8,0.9,13.8,1.7,20.7,0.7C94.5,88.9,93.3,90.1,92.1,91.2z M96.2,86.9
	c-7.5,0.9-15,0-22.4-1c-7.5-1-14.9-1.7-22.4-2.1c-7.9-0.4-15.8-0.4-23.7-0.8c-7.4-0.4-14.8-1.4-22.2-2.1c-0.2-0.4-0.4-0.7-0.7-1.1
	c-0.2-0.3-0.4-0.6-0.6-0.9c8.4,1.5,17.1,2,25.6,2.6c9.5,0.6,19,1.5,28.5,1.9c8.5,0.4,17.1-0.4,25.6,0.8c3,0.4,6,0.9,9.1,1
	c1.5,0.1,3.5,0.2,4.9-0.5C97.4,85.5,96.8,86.2,96.2,86.9z M76,80.2c-0.4,0.2-0.3,0.9,0.2,1c3.5,0.8,7.2,0.7,10.8,0.8
	c4.2,0.1,8.4,0.2,12.5,0.2c-0.3,0.7-0.7,1.3-1.1,1.9c0,0-0.1,0-0.2,0c-4.7,1.4-10.9-0.4-15.6-1.1c-8.4-1.2-17-0.3-25.4-0.8
	c-9.1-0.5-18.2-1.4-27.3-2c-9-0.6-17.8-1.4-26.7-2.7C3.1,77.3,3,77.2,3,77.1c0.4,0,0.8,0.1,1.2,0.2c0.3,0.1,0.6,0,0.8-0.1
	c2.3,0.8,5.5,0.6,7.6,0.8c3.3,0.3,6.7,0.7,10.1,0.8c0.2,0.2,0.6,0.2,0.9,0c0.2,0,0.3,0,0.5,0c0.7,0,0.9-1.1,0.2-1.3
	c0.1-0.3,0.2-0.6,0.3-0.8c9.2,0.1,18.6-0.3,27.8,1c7.7,1,16.2,3.3,23.9,1.2C76.1,79.4,76.1,79.8,76,80.2z M76.2,78.3
	c-8.3,1.5-16.6-0.7-24.9-1.9c-8.7-1.2-17.7-0.7-26.4-0.8c0.4-1.4,0.6-2.8,0.8-4.2c8.1,0.8,16.4,0.6,24.6,1.2
	c8.7,0.6,17.5,1.4,26.2,2.4C76.3,76.1,76.2,77.2,76.2,78.3z M76.4,74.4c-8.3-1.3-16.7-2.3-25.1-3c-8.4-0.7-17.1-1.7-25.6-1.2
	c0.1-0.9,0.2-1.8,0.2-2.7c7.8,1.4,16,0.7,23.9,1.2c8.9,0.6,17.9,1.6,26.8,1.5C76.6,71.6,76.5,73,76.4,74.4z M76.7,69.4
	c-8.6-0.6-17.1-1.2-25.6-1.9c-4.1-0.3-8.2-0.6-12.3-0.7c-4.2-0.1-8.5,0.1-12.7-0.7c0-1.1,0-2.3,0-3.4c7.7,1.3,15.9,0.9,23.7,1.3
	c9.1,0.5,18,1.5,27,3C76.7,67.9,76.7,68.6,76.7,69.4z M76.9,62.8c0,1.2,0,2.4-0.1,3.6c-8-2.2-16.4-2.8-24.6-3.3
	c-4.3-0.3-8.7-0.5-13-0.7c-4.3-0.2-8.7-0.8-13.1-0.7c0-0.7-0.1-1.5-0.1-2.2c8.5,0.3,17,0.7,25.5,1.3C60,61.4,68.4,62.4,76.9,62.8z
	 M76.9,61.8c-8.4-1-16.9-1.6-25.4-2.3c-8.5-0.7-17.1-1.3-25.6-1.3c-0.1-0.8-0.1-1.7-0.2-2.5c17.1,0.2,34.2,0.6,51.2,2.9
	C76.9,59.7,76.9,60.7,76.9,61.8z M76.9,57.6c-16.9-2.7-34.1-2.9-51.3-3.1c-0.1-1.1-0.2-2.3-0.3-3.4c3.3,0.9,6.9,1,10.3,1.2
	c4.5,0.2,9.1,0.1,13.6,0c9.4-0.2,18.5-0.1,27.6,1.9C76.8,55.3,76.9,56.4,76.9,57.6z M76.8,53.4c-8.1-2.7-17.1-2.5-25.5-2.4
	c-4.6,0-9.1,0.1-13.7,0c-4.2-0.1-8.3-0.9-12.4-1.3c-0.1-0.9-0.1-1.7-0.2-2.6c7.8,2,16.3,2,24.3,2c9.1-0.1,18.2-0.6,27.3-0.8
	C76.7,50,76.8,51.7,76.8,53.4z M76.6,47.4c-17.3-0.6-34.4,1.7-51.6-1.5c0-0.7-0.1-1.4-0.1-2.1c0-0.1,0-0.2,0-0.3
	C42,44,59.2,44,76.4,43.7C76.4,44.9,76.5,46.2,76.6,47.4z M76.3,42.8c-17.2-0.7-34.4-0.4-51.6-0.4c-0.1-1.2-0.1-2.3-0.1-3.5
	c8.2,1.8,16.8,1.9,25.1,1.9c8.8,0,17.6-0.4,26.3-1C76.2,40.8,76.2,41.8,76.3,42.8z M75.9,37.7c0,0.3,0.1,0.6,0.1,0.9
	c-17.3,0.2-34.2,1.9-51.4-1.1c0-1.2-0.1-2.5-0.1-3.7c3.6,1.1,7.6,1.3,11.3,1.7c4.9,0.4,9.7,0.5,14.6,0.5c4.8,0,9.6-0.1,14.4-0.2
	c3.5-0.1,7.3,0.3,10.8-0.2C75.8,36.2,75.8,37,75.9,37.7z M75.6,34.3c-3.2-0.4-6.6,0-9.7,0c-4.8,0.1-9.6,0.1-14.3,0.1
	c-4.5,0-9.1-0.1-13.6-0.4c-4.5-0.3-8.9-1.2-13.4-1.7c0-1.1,0-2.2,0-3.3c8.4,1.7,17.1,2,25.7,2c8.4,0.1,16.9,0.2,25.3-0.3
	C75.5,32.1,75.6,33.2,75.6,34.3z M49.2,21.3c8.7-0.4,17.2-0.9,25.8,0.1c0.1,2.8,0.2,5.6,0.3,8.4c-8-0.6-16.1,0.1-24.1,0
	c-9-0.1-17.9-0.6-26.8-2c0-0.7,0-1.4,0-2.1c3.2,0.5,6.7,0.3,9.9,0.5c4.6,0.2,9.1,0.5,13.7,0.7c8.7,0.4,17.9,0.8,26.6-0.7
	c0.5-0.1,0.4-1-0.1-0.9c-8.8,0.5-17.6,0.6-26.4,0.2c-4.3-0.2-8.5-0.4-12.8-0.6c-3.5-0.2-7.3-0.7-10.9-0.3c0-1.5,0-2.9,0-4.4
	C32.4,22,41.2,21.7,49.2,21.3z M75,20.7c-7.5-2.2-16.2-1.1-23.8-0.7c-8.8,0.4-18,0.4-26.7-1.2c0-1.1,0-2.2,0-3.3c0,0,0,0,0,0
	c9,1.5,18.4,1.1,27.5,1.9c7.3,0.7,15.8,1.8,22.8-0.9C75,17.9,75,19.3,75,20.7z M75,15.5c-7.5,2-15.2,1.3-22.8,0.5
	c-9-0.9-18.2-0.5-27.1-2c-0.2,0-0.3,0-0.4,0.1c0-1.2,0-2.4,0-3.6c8.5,1.3,17.1,1.6,25.6,1.9c4.7,0.1,9.4,0.2,14.1,0.2
	c3.2,0,7.3,0.6,10.6,0.1C75,13.6,75,14.6,75,15.5z M75,11.5c-3-0.6-6.6-0.1-9.6-0.1c-4.7-0.1-9.4-0.2-14-0.3c-9-0.3-17.8-1-26.8-1.9
	c0-0.9,0-1.9,0-2.8c16.7-0.3,33.9,4.4,50.4,1C75,8.7,75,10.1,75,11.5z M75.1,6.4C58.2,8.3,41.6,4.5,24.7,4.8c0-0.6,0-1.2,0-1.9
	c3.7,0.5,7.7,0.1,11.5,0.1c4.6,0,9.1-0.2,13.7-0.3c8.5-0.2,17-0.2,25.4-0.5C75.2,3.6,75.1,5,75.1,6.4z"/>
</svg>
