<!-- Generator: Adobe Illustrator 21.0.2, SVG Export Plug-In  -->
<svg version="1.1"
	 xmlns="http://www.w3.org/2000/svg" xmlns:xlink="http://www.w3.org/1999/xlink" xmlns:a="http://ns.adobe.com/AdobeSVGViewerExtensions/3.0/"
	 x="0px" y="0px" width="1541.7px" height="255.5px" viewBox="0 0 1541.7 255.5" style="enable-background:new 0 0 1541.7 255.5;"
	 xml:space="preserve">
<style type="text/css">
	.st0{fill:#FFFFFF;}
	.st1{fill:#F0ED8E;}
</style>
<defs>
</defs>
<g>
	<g>
		<path class="st0" d="M1270.2,233.2c15-5.7-14.6-5-16.3-6.2c6.4-3.3-1.4-8.5-7.6-4.1c8.6-5-14.8-16.2-25.1-4.2
			c-8.2-21.4-39.1-8.4-42.1-2c3.1-10.2-5.3-7.6-9.5-3.5c9.8-23.8-81.5-24.9-46.1,7.5c-13.6-11.2-25.2-4.1-26.3,0.7
			c-3.3-12.1-38-5.9-14.4,6.9c-5.5-2.2-16.4-4.1-9.2,4.9c-13.6-14.9-22.3-3.7-10.6,2.1c0,0-17.5,2.8-16.3,7.6
			c1.7,6.5,10,9.6,12.7,6.1c-0.2,4.5,37,3.7,30.2-1.9c26.1,13.4,97,4.7,103.9-1.4c11.5,4.8,30.5,1.3,30.7-2.3
			c1.4,1.9,20.7,0.4,16.8-4.3C1280.4,251.7,1287.7,236.5,1270.2,233.2z"/>
		<path class="st1" d="M1276.6,235.5c9,12.8-33.8,4.2-39.8-0.6c3.9,4.6-13.4,11.2-12.6,1.7c-4.9,11.3-28.4,11.4-30.7,2.3
			c-6.3,13-79.6,15.8-105.6,2.4c6.8,5.6-23.8,14.6-28.8,3.3c-3.3,8.2-13.2,1.3-10.5-4.8c-1.4,0.9-3.4,2.8-3.1,3.9
			c1.7,6.4,11.3,8.8,14,5.2c-0.3,5.5,40.4,6.6,30.2-1.9c26,15.7,101.6,5.6,103.9-1.4c8.2,6.5,30.2,2.9,30.7-2.3
			c3.4,3.2,20.7,0.4,16.8-4.3C1274.2,249.7,1286.6,241.8,1276.6,235.5z"/>
	</g>
	<g>
		<path class="st0" d="M1504.1,72.2c6.1-10.2,1.3-20.2-27-6.9c23.9-10.5,5-18.7-3.6-19.6c-0.1,0-0.1,0-0.2,0
			c50.4-38.6-86.4-77.6-69.2-4.6c-10.6-22.3-33.1-8.5-31.9,0.4c-1.2-32.6-88.7-30-38.3,20.1c-7.6-8.1-25.5-10.1-19.4,3.7
			c-8.3-3.9-27-10.5-21.5,13.3c-12.9-27.8-76.1-1.2-28.8,14.9c-14,5.6-0.5,6.2,12.3,8.5c-1.2,14.9,11,15.7,25.2,3.6
			c-6.5,16.1,134.4,27.4,148.5,8.1c6.1,13.9,58.3,10.2,52.7,2.2C1567,112.3,1537,60.5,1504.1,72.2z"/>
		<g>
			<path class="st1" d="M1539.5,87.1c5.6,25.8-29.7,31.5-36.6,16.7c-4.2,22-46.6,11.7-52.7-2.2c-26.5,35.2-149,14.8-148.5-8.1
				c-3.3,16.6-15.5,14.1-23.1,4.7c-3.7,3.3-22.6,4.8-8.2-8.4c-8.9,4.6-29.5-2.8-20.5-16.2c-10.2,9.4-3,18.6,14.3,19.9
				c-17.3,4.7-0.3,12.1,12.3,8.5c-6.8,14.1,13.6,20.1,25.2,3.6c-0.9,22.9,134.4,27.4,148.5,8.1c5.9,18.6,58.3,10.2,52.7,2.2
				C1531.5,121.5,1548,103.1,1539.5,87.1z"/>
		</g>
	</g>
	<g>
		<path class="st0" d="M811.2,130.9c-2.3-3.8-0.5-7.5,10-2.5c-8.9-3.9-1.9-7,1.3-7.3c0,0,0,0,0.1,0c-18.7-14.3,32.1-28.8,25.7-1.7
			c3.9-8.3,12.3-3.1,11.8,0.2c0.5-12.1,32.9-11.1,14.2,7.5c2.8-3,9.5-3.7,7.2,1.4c3.1-1.4,10-3.9,8,4.9c4.8-10.3,28.3-0.4,10.7,5.5
			c5.2,2.1,0.2,2.3-4.6,3.1c0.4,5.5-4.1,5.8-9.4,1.3c2.4,6-49.9,10.2-55.1,3c-2.3,5.2-21.7,3.8-19.6,0.8
			C787.9,145.8,799,126.6,811.2,130.9z"/>
		<g>
			<path class="st1" d="M798.1,136.5c-2.1,9.6,11,11.7,13.6,6.2c1.6,8.2,17.3,4.3,19.6-0.8c9.8,13.1,55.3,5.5,55.1-3
				c1.2,6.2,5.8,5.2,8.6,1.7c1.3,1.2,8.4,1.8,3-3.1c3.3,1.7,11-1.1,7.6-6c3.8,3.5,1.1,6.9-5.3,7.4c6.4,1.8,0.1,4.5-4.6,3.1
				c2.5,5.2-5,7.5-9.4,1.3c0.4,8.5-49.9,10.2-55.1,3c-2.2,6.9-21.7,3.8-19.6,0.8C801.1,149.2,794.9,142.4,798.1,136.5z"/>
		</g>
	</g>
	<g>
		<path class="st0" d="M280,140.3c14.6-1.7,32.7-24-6.4-20.8c8-4.5-0.6-9.6-6.2-6.6c34-19.7-10.9-36.6-29.3-28.2
			c1.7-15.7-20.6-22-38.6-23.9c-18.6-1.9-36.7,0.5-53.2,6.5c-15.2,5.5-32.5,18.1,7.7,36.2c-29.6-9.4-19.9,9.1-20.1,10.1
			c-43.9-32.6-76.6-3-61.2,7.1c-11.3-5.8-40.7-1.8-19.9,18.3c-57.2-27.9-56.5,14.9-48,21.5c16.5,12.8,41.1,12.3,62.3,7.4
			c41.7,21,140.3,6.1,155.1,1.4c0.5,0.2,30.4,12.5,40-4.3C320.7,196.3,381.2,143.4,280,140.3z"/>
		<path class="st1" d="M262.2,156.5c-8.7,24.6-40,12.8-41-3.6c-10.7,19-151.1,28.8-153-1.7C55.4,162,2.6,171.6,1,144.3
			c-8.5,30.7,42.1,33,66.1,23.6c37.8,25,147.2,9.4,155.1,1.4c0.5,0.2,36.1,16.3,40-4.3c39.5,21.1,84.7,7.9,70.8-10.5
			C339.7,173.4,293.9,173.5,262.2,156.5z"/>
	</g>
</g>
</svg>
