<!-- Generator: Adobe Illustrator 21.1.0, SVG Export Plug-In  -->
<svg version="1.1"
	 xmlns="http://www.w3.org/2000/svg" xmlns:xlink="http://www.w3.org/1999/xlink" xmlns:a="http://ns.adobe.com/AdobeSVGViewerExtensions/3.0/"
	 x="0px" y="0px" width="241.7px" height="341.6px" viewBox="0 0 241.7 341.6" style="enable-background:new 0 0 241.7 341.6;"
	 xml:space="preserve">
<style type="text/css">
	.st0{fill:#010101;}
	.st1{fill:#D1D3D4;}
	.st2{fill:#E6E7E8;}
	.st3{fill:#C98A5B;}
	.st4{fill:#AD7957;}
	.st5{fill:#1F2F5E;}
	.st6{fill:#263669;}
	.st7{fill:#F6F7FC;}
	.st8{fill:#213162;}
	.st9{fill:#3C2415;}
	.st10{fill:#2F1A0A;}
	.st11{fill:#9E6E54;}
	.st12{fill:#BF835A;}
	.st13{fill:#DB9E75;}
	.st14{fill:#231F20;}
	.st15{fill:#FFFFFF;}
	.st16{fill:#F5A40B;}
	.st17{fill:#9D5908;}
	.st18{fill:#9C0C0E;}
	.st19{fill:#738093;}
	.st20{fill:#2B415B;}
	.st21{clip-path:url(#SVGID_2_);fill:#AD7957;}
	.st22{fill:#231F20;stroke:#231F20;stroke-miterlimit:10;}
	.st23{fill:none;}
	.st24{fill:#BE1E2D;}
	.st25{clip-path:url(#SVGID_4_);fill:#AD7957;}
</style>
<defs>
</defs>
<g>
	<g>
		<path class="st0" d="M86.5,320.7c0,0,13.5-3.9,15.3-3.6c1.8,0.3,7.2,4.5,9.6,6.3c2.4,1.8,7.5,1.8,5.7,4.5
			c-1.8,2.7-6.9,1.8-14.1,1.2c-7.2-0.6-15.6-4.5-15.6-5.4C87.4,322.8,86.5,320.7,86.5,320.7z"/>
		<path class="st1" d="M55.4,302.9c-1.5-5.2-5.9-62.1-5.9-62.1l-2.2-44.9L41,176.5c0.9,12.7,5.8,81.3,6.3,86.6
			c0.5,5.9,2.5,38.4,3.4,41.9s2,5.9,1,7.9s-1,3.4-1,3.4s2.4,0.8,5.6,1.7C56.3,312.9,56.2,306,55.4,302.9z"/>
		<path class="st2" d="M64.2,190.6c-2.2,4.4,0.7,22.2,0,31c-0.6,7.8,3.3,81.5,4.2,99.5c0.2,0,0.3,0,0.4,0.1c4.4,0.5,6.9-4.4,6.9-4.4
			s-2-4.9-2-8.4s1.5-7.4,1.5-7.4s-2.5-10.8-3-28.6c-0.5-17.7-3.4-67.5-3-72.9c0.5-5.4,1.5-7.4,1.5-7.4l0.3-0.1l-1.7-6.6
			C69.4,185.5,66.5,186.2,64.2,190.6z"/>
		<path class="st2" d="M96.7,305.1c0,0,1.4-2.9,7.1-6.5c0-12.8,0.3-47.4,1.5-55.7c1.5-10.3,1-37.9,1.5-41.4
			c0.5-3.4-1.5-23.1-1.5-23.1l-64.5-3.9c0,0,0.1,0.7,0.1,2l6.3,19.5l2.2,44.9c0,0,4.4,56.9,5.9,62.1c0.9,3,1,9.9,0.9,15.1
			c4.1,1.2,9.4,2.7,12.2,3.1c-1-18-4.9-91.7-4.2-99.5c0.7-8.9-2.2-26.6,0-31c2.2-4.4,5.2-5.2,5.2-5.2l1.7,6.6l10.1-4.3
			c0,0,1.5,29.1,1.5,37.4c0,8.4-1.5,71.4,0,76.8c1.5,5.4,2,6.4,2,8.9s-3.4,6.4-3,8.9s3,3,3,3s15.6-2.5,21.5-5
			c-0.3-0.8-1.2-2.4-3.5-5.2C99,308.1,96.7,305.1,96.7,305.1z"/>
		<path class="st1" d="M107.1,315.5c-0.8-3-4-7.6-4-7.6l-2.8-2l2.4-2.5c0,0,1.2-1.8,1.2-4.8c-5,2.4-7,6.5-7,6.5s1.8,3,4.7,7.4
			c1.8,2.7,4.2,4.9,4.5,5.7C107.4,317.6,107.2,316.1,107.1,315.5z"/>
		<path class="st3" d="M111.5,80.2c-2.5-0.5-16-5.2-18.5-5.9c-2.5-0.7-7.4-3.9-8.1-4.8c-0.3-0.4-0.6-2.1-0.8-4.1
			c-1.8,0.5-8.1,5.7-12.3,6.4c-4.2,0.7-6.4-3.7-6.4-3.7v3.2c0,0-10.6,5.7-12.6,6.2c-2,0.5-15.7,1.5-16,4.7
			c-0.2,3.2,1.2,38.9,1.2,38.9l74.1-1.2c0,0,2.2-35.2,2.2-36.2C114.5,82.6,114,80.7,111.5,80.2z"/>
		<path class="st4" d="M71.9,71.8c4.2-0.7,10.5-5.9,12.3-6.4c-0.3-2.6-0.4-5.4-0.4-5.4c-8.6,7.1-18.2,1.2-18.2,1.2v6.9
			C65.5,68.1,67.7,72.5,71.9,71.8z"/>
		<path class="st5" d="M97.1,186.8l-7.8,6.3l-12.1-2.2c0,0-5.5-8.9,2.7-9.2c8.2-0.4,15.2-0.4,15.6,1.1"/>
		<path class="st5" d="M55,180.8l-7.4,6.3l-11.4-2.2c0,0-5.2-8.9,2.6-9.2c7.8-0.4,14.4-0.4,14.8,1.1"/>
		<path class="st6" d="M42.2,100.6c0.6-0.9,0.6-1.4,0.6-1.4C42.6,99.7,42.4,100.2,42.2,100.6z"/>
		<path class="st6" d="M39.1,140.2c-0.3,0.8-0.1,0.6,0.4-0.6C39.3,139.8,39.2,140,39.1,140.2z"/>
		<path class="st7" d="M98.4,102.7c0,0,14.5,15.5,17.1,18.2s6.3,7,6,7.5c-0.3,0.4-2.5,0.2-1.4,0.7c1,0.5,2.9,1.6,2,1.7
			c-0.9,0.1-2.8-0.5-2.6,0c0.2,0.6,2.6-0.2,1,1.2s-6.6,5.6-9.7,6.6c-3.1,0.9-4.8,1.6-4.8,1.6s4.1,12.5,5,12.3
			c0.9-0.2,21.4-8.2,25.4-10.5c4-2.3,8-2.3,8.1-4.8c0.1-2.5-9.3-19.5-10.5-20.7c-0.9-0.9-16.5-33.7-17.4-35.5"/>
		<path class="st7" d="M31.7,87.8c2.2-2.4,3.7-4.1,3.7-4.1l0.7-3.4c0,0,1.8,0.7,6.4-1.9c4.6-2.6,13.8-5.7,13.8-5.7l15.2,12.2
			l15.2-12.2c0,0,9.2,3.1,13.8,5.7c4.6,2.6,13.1,2.3,13.1,2.3l0.7,3.4"/>
		<path class="st7" d="M33.3,81.5c0,0-22.9,34.2-24,35.5s-9.6,18.7-9.4,21.2c0.3,2.5,4.2,2.3,8.3,4.4c4.1,2.1,25,9,25.9,9.2
			c0.9,0.2,4.4-12.5,4.4-12.5s-2-1.8-5.1-2.6s-8.1-3.5-9.8-4.8c-1.7-1.3,0.8-0.7,0.9-1.2c0.1-0.6-1.7,0.1-2.6,0.1
			c-0.9,0,0.9-1.2,2-1.8c1-0.6-1.2-0.3-1.5-0.7c-0.3-0.4,3.1-4.9,5.6-7.8c1.7-2,8-13.8,11.6-20.6"/>
		<path class="st7" d="M111.5,116.9c-0.5-0.4-0.8-0.7-0.8-0.7s-5.9,32.3-5.3,40.1c0.7,7.7,1.1,15.9,1.1,15.9l-33.8,1.5h-2.4
			l-33.8-1.5c0,0,0.5-8.2,1.1-15.9c0.7-7.7,2.6-46.5,2.6-46.5"/>
		<path class="st6" d="M116.7,80.8c-0.4-1.5-5.4-0.4-11.2-2.3c-5.8-1.9-18.2-7.4-18.2-7.4L71.4,84.7L58.7,71.8
			c0,0-21.8,6.7-24.5,8.6c-2.7,1.9,1.9,8.9,1.9,16.3c0,2.2,0.1,5.2,0.3,8.6c0.3-0.1,0.6-0.3,0.8-0.5c1.8-1.3,2.8-2.3,3.3-3.1
			c0.2-0.5,0.4-1,0.6-1.5c0,0,0,0.6-0.6,1.5c-2,5-1.3,5-0.9,8.2c0.4,3.5,2.3,12.4,0.8,22.1c-0.9,5.5-2,9-2.7,10.6
			c1.9-1.9,8.5-4.4,8.5-4.4s-6.6,4.3-9.3,10.5c-2.7,6.2-9.3,38-9.3,38l-3.3,2.8c-0.4,1.5-0.6,2.4-0.6,2.7c-0.4,1.9,2.7,3.1,2.7,3.1
			s10.1,1.9,10.1-3.5s-0.4-5.8-1.2-8.5s10.1-0.4,13.2,0.4c3.1,0.8,0,2.7,0,2.7l-2.7,15.5l30.2,0.8c0,0,1.9-10.5,0.8-12.8
			c-1.2-2.3,10.8-0.8,15.5-0.8c4.6,0-3.5,2.7-3.5,2.7s0.8,9.3,2.7,10.1c1.9,0.8,18.6-0.4,20.5-0.4c1.9,0,2.7-3.1,1.2-7
			c-1.5-3.9-3.1-33.3-3.5-42.6c-0.4-9.3,5-32.9,5-34.1c0-1.2,0.8-17,0.8-23.6S117.1,82.4,116.7,80.8z"/>
		<polygon class="st5" points="71.3,85.2 80.3,81.2 86.1,87.4 94.3,72.7 86.5,68.8 		"/>
		<polygon class="st8" points="72.2,86.3 65.6,81.2 59.8,87.4 51.6,72.7 59.4,68.8 		"/>
		<path class="st5" d="M36.9,148.7c2.7-6.2,9.3-10.5,9.3-10.5s-6.6,2.5-8.5,4.4c-0.5,1.3-0.8,1.4-0.4,0.6c0.1-0.2,0.2-0.4,0.4-0.6
			c0.7-1.6,1.8-5.1,2.7-10.6c1.5-9.7-0.4-18.6-0.8-22.1c-0.4-3.2-1-3.1,0.9-8.2c-0.5,0.8-1.5,1.9-3.3,3.1c-0.3,0.2-0.5,0.3-0.8,0.5
			c0.5,8.2,1.2,18.4,1.2,22.8c0,5.5-10.6,49.8-13.3,61.3l3.3-2.8C27.6,186.6,34.2,154.9,36.9,148.7z"/>
		<path class="st0" d="M53.2,318.6c0,0-6.9,3-8.4,4.2c-1.5,1.2-7.5,4.2-6,6c1.5,1.8,6.3,3.9,10.2,3c3.9-0.9,10.5-3.6,13.8-4.8
			c3.3-1.2,6.6-2.7,6.6-4.5s0-3.6,0-3.6L53.2,318.6z"/>
	</g>
	<path class="st9" d="M63.9,61.6c0,0-1.5,4-0.5,6.2c1,2.2,2.7,2.9,2.7,2.9s-3.1,2.8-1,5.2c2.1,2.5,4.6,4.1,4.6,4.1s-4,2.4-1.6,6.2
		c2.4,3.7,3.9,2.3,3.9,2.3s-0.9,4.7,1.3,6.3s7.9,1.2,7.9,1.2s-3.4-2.4-3.9-3.7s2.2-3.1,0.8-6.2c-1.5-3.1-4.4-4.4-4.4-4.4
		s2.7-3.5,0.4-5.6c-2.3-2.2-3.8-2.9-3.8-2.9s3.5-2.3,1.1-5s-1.4-2.9-2.2-5.4C68.4,60.4,63.9,61.6,63.9,61.6z"/>
	<path class="st10" d="M65,61.6c0,0-0.1,5,1.9,6.4c2,1.5,2.8,2.5,2.8,2.5s-1.8,3.1-2,4c-0.2,1,3.8,2.4,4,4.5c0.2,2-1.7,3.8,0,5.3
		c1.7,1.6,3.8-0.2,3.7,3.2c0,3.4-0.8,4.5-0.2,5.2c0.5,0.7,2.4,3.1,2.4,3.1s-4.4-1.7-4.1-4.1c0.3-2.3,1.5-4.5,0.2-5.4
		c-1.3-0.9-2.6,0.2-3.1-1.1c-0.5-1.2,0.9-5.7-0.3-7c-1.2-1.3-5.6-3.2-4.3-4.2s3.2-3,2.5-3.6c-0.7-0.6-4.5-3.2-4.7-4.2
		C63.6,65.5,65,61.6,65,61.6z"/>
	<path class="st3" d="M52.2,33.3c-0.3-0.8-1.1-2.3-3-1.8c-2.6,0.7-1.4,5.7-0.8,6.9c0.6,1.2,3.3,5.1,5.9,4.8l-2-9.4L52.2,33.3z"/>
	<path class="st11" d="M48.9,35.5c0,0,1.2-1.7,2.3-0.5c0,0-1.5,1.3-1.2,2.6c0.3,1.3,1,2.5,2.9,2.6c0,0-1.3-0.6-1.6-2.4
		s0.7-1.7,0.7-1.7s0.1-2.9-1.7-2.8C48.5,33.4,48.9,35.5,48.9,35.5z"/>
	<path class="st12" d="M86.7,25.7c-1-4.8-5-16.6-6.9-22c3,0.7,5.4,2.1,5.7,3.6c0.5,2.4,1,3.6,1,3.6s4.4,25.4,5.1,28.8
		c0.7,3.3,0,3.3-1.1,7.6C89.9,39.7,87.6,30.1,86.7,25.7z"/>
	<path class="st12" d="M51.1,29.1c-1-4.7-1.5-12.4-1.4-14.6c0.1-1.4,1.5-4,3.5-5.7c0.8,8.7,2.4,24.4,3.5,29.3c1.4,6.8,3.7,12.1,9,21
		c1.7,2.8,3.1,4.9,4.2,6.5c-4.2-2.3-7.5-5-9.1-6.7c-2-2.1-3.1-2-4.6-6.3C54.8,48.3,52.1,33.8,51.1,29.1z"/>
	<path class="st3" d="M56.7,38.1c-1-4.9-2.6-20.6-3.5-29.3c0.9-0.8,2-1.5,3.1-1.8c3.4-0.9,13.3-3,18.1-3.6c1.8-0.2,3.7-0.1,5.4,0.3
		c1.9,5.5,5.8,17.3,6.9,22c0.9,4.4,3.2,13.9,3.8,21.6c-0.1,0.2-0.1,0.4-0.2,0.7c-1.2,5-7.6,16.1-8.6,17.8c-1,1.7-4.2,3.4-9.5,0.9
		c-0.8-0.4-1.5-0.8-2.3-1.2c-1.2-1.6-2.6-3.7-4.2-6.5C60.4,50.1,58.2,44.9,56.7,38.1z"/>
	<path class="st13" d="M74.7,29.6c0,0,5.8,5.9,6.4,9.8s0.7,4.4-1.7,4.4S73.9,42,73.9,42s4.3,1.4,4.5-1.5
		C78.6,37.6,74.7,29.6,74.7,29.6z"/>
	<path class="st4" d="M77.3,28.7c0,0,6.3,2.9,7.3,7.6c1,4.7,2,9.3,0.6,9.6c-1.4,0.3-4.4,0.7-4.4,0.7s1.8-0.3,2.5-1.9
		c0.7-1.7,0.3-4.7-0.5-6.4C81.2,34.9,77.3,28.7,77.3,28.7z"/>
	<path class="st11" d="M73.9,27.2c0,0,5.6,2.2,7.3,9s3,9.9-0.1,9.2c-3-0.8-6.2-2.1-8.6-1.6c0,0,12.9,6.7,11.6-0.5S82.2,30,73.9,27.2
		z"/>
	<path class="st4" d="M81,18.4c0,0-1.9-0.7-3.4-0.5c-1.6,0.2-4.6,1.6-4.6,1.6s3-1,4.6-1S81,18.4,81,18.4z"/>
	<path class="st4" d="M83.7,19.5c0,0-2.8,0.7-5.3,0.9c-2.5,0.2-7,0.8-7,0.8s3.2,0.1,4.7,0C77.7,21.1,80.3,21.3,83.7,19.5z"/>
	<path class="st4" d="M83.1,15.1c0,0-2.9,0-5.4,0.4c-2.5,0.4-6.9,0.9-6.9,0.9s3-0.9,4.6-1.1C76.9,15,79.4,14.2,83.1,15.1z"/>
	<g>
		<g>
			
				<ellipse transform="matrix(0.2193 -0.9757 0.9757 0.2193 39.8794 106.0022)" class="st9" cx="86.2" cy="28.1" rx="1.7" ry="1.7"/>
			
				<ellipse transform="matrix(0.2193 -0.9757 0.9757 0.2193 39.8794 106.0022)" class="st14" cx="86.2" cy="28.1" rx="1.2" ry="1.2"/>
			
				<ellipse transform="matrix(0.2193 -0.9757 0.9757 0.2193 40.9363 106.0403)" class="st15" cx="86.7" cy="27.4" rx="0.5" ry="0.5"/>
		</g>
		<path class="st10" d="M88.3,25c0,0-3.1-0.5-5.5,0.2c-2.4,0.7-4.2,1.8-4.2,1.8s-1.2-3.4,3.1-4.6C86.1,21.2,88.1,22.7,88.3,25z"/>
	</g>
	<g>
		<g>
			<ellipse transform="matrix(0.217 -0.9762 0.9762 0.217 15.1324 85.8283)" class="st9" cx="61.1" cy="33.5" rx="1.7" ry="1.7"/>
			<ellipse transform="matrix(0.217 -0.9762 0.9762 0.217 15.1324 85.8283)" class="st14" cx="61.1" cy="33.5" rx="1.2" ry="1.2"/>
			<ellipse transform="matrix(0.217 -0.9762 0.9762 0.217 16.191 85.8629)" class="st15" cx="61.6" cy="32.8" rx="0.5" ry="0.5"/>
		</g>
		<path class="st10" d="M65.1,29.6c0,0-3.1-0.5-5.5,0.2c-2.4,0.7-4.2,1.8-4.2,1.8s-1.2-3.4,3.1-4.6S64.9,27.2,65.1,29.6z"/>
	</g>
	<path class="st9" d="M76,6.1c0,0-9,17-26.3,18.6c0,0,0-0.1,0-0.1c-0.4-1.1-1.9-12.9,0.3-15.9C55.7,1,71.4-0.1,74.5,0
		c3.1,0.1,8.7,1.8,10.9,5c1.7,2.4,2.7,9.9,2.9,13.5C84.4,16.1,76,10.5,76,6.1z"/>
	<path class="st10" d="M76,6.1c0,4.4,8.4,10,12.3,12.4c0.1,1.2,0.1,1.9-0.1,1.9c-0.4,0-10.8-6.3-12.3-12.7c0,0-3.4,13.1-12.5,16.1
		s-12,1.6-12,1.6s0.8,6.9,0.5,6.6c-0.4-0.3-1.7-6.1-2.1-7.4C67,23.1,76,6.1,76,6.1z"/>
	<path class="st15" d="M81.2,54.5c0,0-0.7,0-3.3,0.1c-2.6,0.1-5.9,0.6-5.9,0.6s3.8,0.1,4.8,0.2C77.9,55.4,81.2,54.5,81.2,54.5z"/>
</g>
<g>
	<path class="st3" d="M207.7,311.5c0,0-1.6,10-2.9,16.1c-1.3,6.1-0.5,4.2,2.1,5.6s9.8,3.7,8.5,6.3s-4.2,2.6-7.1,1.1
		s-3.2-3.2-6.3-3.2c-3.2,0-5.8-1.6-4.5-5.6s2.4-10.8,2.4-10.8l0.8-13L207.7,311.5z"/>
	<path class="st3" d="M185.7,310.5c0,0,1.6,10,2.9,16.1c1.3,6.1,0.5,4.2-2.1,5.6s-9.8,3.7-8.5,6.3s4.2,2.6,7.1,1.1
		c2.9-1.6,3.2-3.2,6.3-3.2c3.2,0,4.8-1.6,3.4-5.6s-0.5-10.6-0.5-10.6l-1.6-13.2L185.7,310.5z"/>
	<path class="st3" d="M188.6,151.8c0-5-2.2-10.7-3.2-13.2c3.9,3.5,11.7,9.3,22.5,10.7c0.1,2.2-0.6,10.9,0.6,13.7
		c4.7,11.2-1.5,7-1.5,7s-2.6,9-11.2,5.4c-11.3-4.9-4.8-4.2-6.3-10.4S188.6,158.3,188.6,151.8z"/>
	<path class="st12" d="M226.1,184.1c0.8,3.1,0.8,9.3,1.2,13.2s7.4,20.2,7.4,26.1c0,0.7-0.1,1.3-0.2,1.8c-0.9-3.4-5.8-17.3-7.2-21.4
		c-1.5-4.3-3.9-7.6-3.1-13c0.7-5.4-1.5-12.3-1.7-10.7C222,175.7,225.4,180.9,226.1,184.1z"/>
	<path class="st3" d="M152,223.7c0-3.4,0.6-14.1,2.8-17.6c2.2-3.5,1.1-6.7,1.3-10.8c0.2-4.1,0.2-23.7,1.3-28
		c1.1-4.3,1.8-7.5,9.2-8.5c7.3-1,17.3-2.1,19.8-2.5c2.6-0.4,1.8-13.6,1.8-13.6l18.5-0.4c0,0,0.4,13.5,1.5,14.1
		c1.1,0.6,13.9,1.5,19.1,2.9c5.1,1.5,9.2,2.1,8.4,6.4c-0.7,4.4,2.2,28.7,2.2,32.8c0,4.1,2.6,8.2,1.8,12.6
		c-0.7,4.4,2.6,15.8,1.8,18.8c-0.7,2.9,0.7,5-0.6,7c-1.3,2.1-6.2,9.8-10.1,7.3c-3.9-2.5-0.6-6.6,1.1-8.4c1.7-1.8-0.9-2.8-1.8-1
		c-0.9,1.8-1.8,3.2-2.2,2.1c-0.4-1.2,2-5.6,3.5-6.6c1.5-1,3.5-2.5,3.1-4.7c0-0.1-0.1-0.3-0.1-0.5c0.1-0.5,0.2-1.1,0.2-1.8
		c0-5.8-7-22.2-7.4-26.1s-0.4-10.1-1.2-13.2c-0.8-3.1-4.2-8.4-3.6-4c0,0-2.6,2.8-3.8,3.6s-1.6,12.1-0.8,23.3
		c0.5,6.8-0.1,11.5-0.5,14.1l-46.9-1.1c0,0-0.6-11.3,0.7-17.7c1.3-6.4,0.6-10.8,0.2-13.8c-0.4-2.9-1.7-5-1.7-5s-4.1,12.7-5.2,16.8
		c-1.1,4.1-0.5,6.7-1.6,10.5c-1.1,3.8-5,13.9-4.7,17.1c0.4,3.2,5.1,5.7,4.6,7c-0.6,1.3-3.1-1-3.5-1.6c-0.4-0.6,0.6,4.3,2.2,5.9
		c1.7,1.6-0.4,4.3-2.2,4.3c-1.8,0-6.6-3.8-7.3-8.5C151.5,230.3,152,227.1,152,223.7z"/>
	<path class="st12" d="M218,207c-0.8-11.3-0.4-22.6,0.8-23.3s3.8-3.6,3.8-3.6c-0.2,1.6-1.8,6.4-1.1,10.8c0.7,4.4,0.6,24.2,0.4,25.7
		c-0.2,1.5,0.4,4.7,0.4,4.7l-4.7-0.1C217.9,218.5,218.4,213.8,218,207z"/>
	<path class="st16" d="M171.3,220.4c-0.3-1.6,0.1-2.7,0.4-3.2c0.3-0.1,0.8,0.6,1.8,1.2c1.4,1,1.6,1.4,2.1-0.2
		c0.6-1.6,1.4-0.2,2.1,0.8s1.6-0.2,2.7-0.4c1.2-0.2,1.8,1.6,2.7,0.2c1-1.4,0.6-0.6,1.2,0.2c0.6,0.8,1.8,0.8,2.3-0.4
		c0.6-1.2,0.8-0.8,1.9,0c1.2,0.8,1.6,1.2,2.5-0.2c1-1.4,1.6-0.2,2.5,0.6s1.4,0.8,3.1-0.8c1.8-1.6,1.6-0.2,2.5,0.8s1.9-0.2,2.9-0.6
		c1-0.4,1.6,0.8,2.3,0.2c0.8-0.6,0.4-0.8,1-0.2c0.6,0.6,2.5,0.8,3.5,0s2.1-0.6,3.3,0.6c1.2,1.2,1.4-0.2,2.5-0.6
		c1.2-0.4,0.4,1,2.7,0.8c2.3-0.2,0,0,1.4,0.4c1.3,0.4,0.9,0.9,1.7-0.3c0.2,1.1,0.3,2.5,0.2,3.6c-0.1,0.9,0.1,1.7,0.3,2.2
		c-0.3,0.5-0.6,1.3-0.7,1.7c-0.2,0.8-1.2,1.2-1.9-0.4c-0.8-1.6-0.8,0.2-1.2,1.4c-0.4,1.2-0.8,0-1.9-1.4c-1.2-1.4,0,0-0.4,1.2
		c-0.4,1.2-1,1-1.8-0.8s-0.8,1.2-1.8,0.6c-1-0.6-0.6-1-1.4,0.2c-0.8,1.2-1.2,0.8-1.6,0c-0.4-0.8-1.2-1.2-1.6-0.4
		c-0.4,0.8-1.4,1-2.1-0.4c-0.8-1.4-0.6,0-1,0.8c-0.4,0.8-1-0.2-1-1.4s-1.6-0.4-1.9,0.6c-0.4,1-1.4,0.2-1.6-0.6s-1.9-1.6-2.5,0
		c-0.6,1.6-1.8,1.6-2.1,0.2c-0.4-1.4-1.4-0.2-1.8,1.2c-0.4,1.4-1.9,1-2.1,0c-0.2-1-1-1-1.4,0c-0.4,1-1.4,0.6-1.4-0.4
		s-1.2-2.9-1.2-1.2s-2.1,1.6-2.5,0.4c-0.4-1.2-2.1,0-2.7,0.6c-0.6,0.6-1.6,1.6-1.6,0.8s-0.6-1.6-1-0.4c-0.4,1.2-1.6,0.2-2.1-0.8
		c-0.8-1.3-1.8,0.6-1.9-0.8c-0.2-1.4-1.2-1.4-2.1,0c-1,1.4-0.6,0-1.4-2.1c-0.1-0.3-0.2-0.4-0.2-0.6
		C171.5,222.3,171.4,221.3,171.3,220.4z"/>
	<path class="st17" d="M220.9,223c0.1-1.1,0-2.5-0.2-3.6c0.1-0.1,0.1-0.2,0.2-0.3c1.2-1.6,1.9,1.2,1.9,2.3c0,0,0.4,2.5,0.4,3.5
		s-0.8,2.1-1.2,0.4c-0.2-0.9-0.6-0.7-0.9-0.1C221,224.6,220.8,223.9,220.9,223z"/>
	<path class="st17" d="M169.7,221.6c0.2-1.9,0-1.9,0.4-3.5c0.4-1.6,0.8,1.2,1.2-0.2c0.1-0.4,0.2-0.6,0.4-0.7
		c-0.3,0.5-0.7,1.5-0.4,3.2c0.1,0.9,0.2,1.8,0.2,2.7c-0.4-1,0.1,0.7-0.9,1.8C169.3,226.1,169.5,223.5,169.7,221.6z"/>
	<path class="st18" d="M208.2,156.3c-0.5,2.1,0.3,1.6-0.9,3.8c-0.1,0.2-0.3,0.5-0.4,0.8c-1.8,3.1-3.5,2.1-5.1,7
		c-1.6,4.9-2.9,8-5.3,10.7c-2.3,2.7-5.8,8.9-7.6,13c-1.8,4.1-1.4,4.9-4.3,7.4s-4.1,6.2-6.6,10.7s-3.1,6.8-4.3,7.8
		c-1.2,1-3.7,1-2.1-0.3s1.8-2.1,3.5-4.2s2.1-2.9,3.3-5.4c1.2-2.5,1.4-4.5,3.3-7c1.9-2.5,3.1-2.1,4.3-4.1c1.2-1.9,1.6-4.9,2.5-6
		c1-1.2,3.7-7,4.3-8.6c0.6-1.6,1.9-2.3,3.3-4.1c1.4-1.8,2.7-5.3,3.5-7.6c0.8-2.3,1.2-4.7,2.9-6.4c1.8-1.8,5.1-8.2,5.1-8.2"/>
	<path class="st18" d="M187,156c0,0,1.6,6.4,4.3,11.1s0.8,3.9,3.9,7.4c3.1,3.5,7.8,10.7,8.6,13c0.8,2.3,1.9,6.6,5.8,10.7
		s2.9,6.6,4.1,9.9c0.1,0.2,0.2,0.4,0.2,0.6c1.2,2.8,3.1,3.8,4.2,5.4c1.2,1.8,3.3,5.6,3.3,5.6s-0.4,1-3.3-3.3
		c-2.9-4.3-5.8-10.7-6.6-12.8s-3.3-4.1-3.7-5.4c-0.4-1.4-4.9-8.4-5.3-9.9c-0.4-1.6-2.1-5.8-3.3-6.8s-2.9-4.9-4.1-5.6
		c-1.2-0.8-3.3-4.1-3.7-5.3c-0.4-1.2-2.7-5.8-3.7-7.6s-1.6-5.6-1.6-5.6l0.1-1.1L187,156z"/>
	<path class="st19" d="M200.6,259.9c1.4-3.2,1.6-25.4,1.7-35.9l6.8,0.3c0,5.9,0.1,14.6,0.6,18.4c0.8,6.1-6.3,32.5-6.9,34.9
		c-0.4,1.9,1.5,26.6,2.3,36.2c-3.5,0.5-6.7,1.2-9.6,1.6c-0.1-5.2-0.5-15.6-1.2-25.1C193.2,276.8,198.7,264.2,200.6,259.9z"/>
	<path class="st20" d="M202.7,277.6c0.5-2.4,7.7-28.8,6.9-34.9c-0.5-3.9-0.6-12.6-0.6-18.4l1.6,0.1c0,9.3-0.1,25.9-0.8,30.8
		c-1.1,6.9-5,20.9-5.6,24.1c-0.4,2.6,1.2,25,2.4,34.4c-0.6,0.1-1.1,0.2-1.7,0.2C204.2,304.3,202.2,279.6,202.7,277.6z"/>
	<path class="st19" d="M204.3,279.2c0.5-3.2,4.5-17.2,5.6-24.1c0.7-4.9,0.8-21.5,0.8-30.8l7.3,0.3c0.3,10.4,0.4,30.8,0.4,34.2
		c0,4.2-6.3,26.7-5.6,29.6c0.6,2.4,4.2,18.8,5.6,24.9c-1.6-0.3-3.5-0.4-5.8-0.3c-2,0.1-3.9,0.3-5.8,0.5
		C205.5,304.2,203.8,281.8,204.3,279.2z"/>
	<path class="st20" d="M218.3,258.9c0-3.4,0-23.8-0.4-34.2l1.3,0.1c0.3,6.7,0.9,18,0.9,22c0,5.8,0.5,11.1-1.6,18.2
		c-2.1,7.1-6.1,15.3-2.9,30.1c2,9.5,3.4,15.5,4.2,18.6c-0.5-0.1-1-0.2-1.5-0.3c-1.3-6.1-4.9-22.5-5.6-24.9
		C211.9,285.6,218.3,263.1,218.3,258.9z"/>
	<path class="st19" d="M218.5,264.9c2.1-7.1,1.6-12.4,1.6-18.2c0-4-0.6-15.3-0.9-22l4,0.2c0,0,2.4,35.6,0.3,41.1
		c-2.1,5.6-4.2,17.4-2.4,25.9c1.9,8.5,8.5,24.6,8.5,24.6s4,3.7,0,2.6c-2.9-0.8-4.6-4-9.9-5.4c-0.7-3.1-2.1-9.1-4.2-18.6
		C212.5,280.3,216.4,272.1,218.5,264.9z"/>
	<path class="st20" d="M178.4,291.1c0.8-2.9,3.2-10,6.3-19c3.2-9,4-23.3,4.5-28.3c0.4-3.5-0.1-14.1-0.4-20.3l1.9,0.1
		c0.2,2,0.4,3.9,0.6,4.9c0.5,3.2-0.8,23.3-1.9,31.2c-1.1,7.9-8.2,23.8-9.5,31.5c-1,5.8,3.1,17.7,5.2,23.2c-0.7-0.4-1.3-0.6-1.8-0.9
		C180.5,305.3,177.7,293.7,178.4,291.1z"/>
	<path class="st19" d="M156.7,309.1c2.1-5.7,9.5-69.5,11.4-75.3c1.9-5.8,1.9-11.1,1.9-11.1l8.5,0.4c0.1,3.5,0,8-0.8,11
		c-1.6,5.8-3.4,22.2-5.6,33.6c-2.1,11.4-4.5,26.4-4.5,33.6c0,4.5,0.6,10.1,1.1,13.6C160.8,316.5,153.2,318.6,156.7,309.1z"/>
	<path class="st20" d="M172,267.6c2.1-11.4,4-27.8,5.6-33.6c0.8-3.1,0.9-7.5,0.8-11l1.5,0.1c-0.2,5.3-0.8,11.8-2.4,15.7
		c-3.2,7.7-5.3,44.4-7.7,52.9c-1.8,6.3-0.2,17.5,0.8,22.7c-0.7,0.1-1.4,0.3-2,0.4c-0.5-3.5-1.1-9.1-1.1-13.6
		C167.5,294,169.9,279,172,267.6z"/>
	<path class="st19" d="M169.9,291.6c2.4-8.5,4.5-45.2,7.7-52.9c1.6-3.9,2.2-10.4,2.4-15.7l8.9,0.4c0.3,6.3,0.7,16.9,0.4,20.3
		c-0.5,5-1.3,19.3-4.5,28.3c-3.2,9-5.6,16.1-6.3,19c-0.7,2.6,2.1,14.2,5,22.4c-2.2-0.9-2.7-0.5-9.5,0.3c-1,0.1-2.1,0.3-3.2,0.5
		C169.7,309.1,168.1,297.9,169.9,291.6z"/>
	<path class="st19" d="M179.9,291.1c1.3-7.7,8.5-23.5,9.5-31.5c1.1-7.9,2.4-28,1.9-31.2c-0.2-1.1-0.4-2.9-0.6-4.9l10.1,0.4
		c-0.1,10.4-0.3,31.2-0.7,33.6c-0.5,3.2-6.3,16.1-7.1,21.1c-0.7,4.3,1,29.6,1.5,36.9c-3.2,0.4-5.9,0.4-8.1-0.7
		c-0.4-0.2-0.8-0.4-1.1-0.6C183.1,308.8,178.9,296.9,179.9,291.1z"/>
	<path class="st20" d="M192.9,278.7c0.8-5,6.6-18,7.1-21.1c0.4-2.4,0.7-23.2,0.7-33.6l1.4,0.1c0,10.5-0.3,32.7-1.7,35.9
		c-1.9,4.2-7.4,16.9-6.3,30.4c0.7,9.5,1.1,19.9,1.2,25.1c-0.4,0.1-0.7,0.1-1.1,0.1C193.9,308.3,192.2,283,192.9,278.7z"/>
	<path class="st4" d="M185.4,142c-0.3-0.9-1.6-3.1-1.6-3.1s18.5,3.5,24,0.9c0,0-0.7,4.4-0.2,12.3C197.5,150,189.1,146.4,185.4,142z"
		/>
	<g>
		<path class="st12" d="M173.5,120.4c-0.6-1.8-5.4-11.5-9.1-19.1c-0.2,1.5-0.2,3.1,0,4.9c0.6,8.9,5.2,15.3,5.2,15.3
			c4,13.2,12.5,16.9,16,20.2c1.4,1.4,3.5,2.3,5.9,2.9c-1.9-2.2-4.8-5.6-7.5-8.5C179.5,131.5,174.6,123.5,173.5,120.4z"/>
		<path class="st12" d="M221.1,104.5c-1.1-1.3-1.8-5.2-1.8-5.2s-0.4-1.8-2.2-5.4c0.1,4,2.2,10.4,2.7,12.3c1,3.8,2.2,7.4,2.7,17.5
			c0.2,3.5-1.1,8.9-0.9,10.4c0.5-0.5,0.9-1.1,1.2-1.6c2.5-3.9,2.7-12,1-15.4C222.2,113.5,224.2,107.9,221.1,104.5z"/>
		<path class="st3" d="M219.8,106.2c-0.5-2-2.6-8.4-2.7-12.3c-1.3-2.6-3.2-6.2-6.1-10.6c-7-10.7-21.9-3.6-33.4,2.3
			c-9.2,4.8-12.6,9.5-13.2,15.7c3.8,7.6,8.5,17.3,9.1,19.1c1.1,3.1,6,11.1,10.5,15.7c2.7,2.8,5.7,6.2,7.5,8.5
			c3.5,0.8,7.8,0.8,12.4-0.1c6.7-1.4,14.3-6.6,17.8-10.5c-0.3-1.5,1-6.9,0.9-10.4C222,113.6,220.7,109.9,219.8,106.2z"/>
		<path class="st3" d="M174.1,128c0,0-0.8-2.5-2.8-3.1c-1.1-0.4-1.2-2-2.8-1.4c-1.6,0.6-2.4,1.8-1.9,3.6c0.5,1.8,0.6,3,2.2,3.7
			c1.6,0.7,5.8,2,6.7,2c0.9,0,1.6-0.2,1.6-0.2L174.1,128z"/>
		<g>
			<defs>
				<path id="SVGID_1_" d="M171.5,127.8c0,0-0.4-2.2-1.7-1.4c-1.4,0.8-0.5,3.3,2.2,4.3c0,0-4.1-0.3-4.4-3.5
					C167.2,124.1,171.8,124.2,171.5,127.8z"/>
			</defs>
			<use xlink:href="#SVGID_1_"  style="overflow:visible;fill:#AD7957;"/>
			<clipPath id="SVGID_2_">
				<use xlink:href="#SVGID_1_"  style="overflow:visible;"/>
			</clipPath>
			<path class="st21" d="M176.2,132.9c-1.1-0.1-2.8-0.4-4.8-1c-3.5-1-4.2-2.6-5.1-5.5c-0.7-2.2,2.2-3.1,3.7-3.4
				c0.8,0.9,1.3,1.4,1.3,1.4S174,129.1,176.2,132.9z"/>
		</g>
		<g>
			<path class="st3" d="M215.4,116.3"/>
			<path class="st4" d="M214.4,113.5c0,0,4.8,2.4,6,1.7c1.2-0.7,3,1.6,2.9,2.7c-0.1,1.1-2.3,3.2-2.3,3.2s2-3.1-0.1-3.8
				c-2.1-0.7-2.9,0.2-4.2-0.8C215.4,115.5,214.4,113.5,214.4,113.5z"/>
			<path class="st11" d="M213,110.8c0,0,0.6,3.5,2.4,4.7s1.7,2,3.1,2s1.7-1.3,2.4-0.1c0.7,1.2-0.3,3.7-1.1,3.9
				c-0.8,0.2-2.6,0.1-3.5,1.1s-2.9,0.2-2.9,0.2s2.2,2,3.1,1.4c0.9-0.6,1.2-1.2,2.7-1.6c1.5-0.4,3.2-2.9,2.9-4.2s-2.2-2-3.9-1.9
				C216.5,116.4,216,115.2,213,110.8z"/>
			<path class="st13" d="M213.8,116.1c0,0,1.7,3.2,3.2,2.3c0,0,0.3,1.1-1,1.5C214.7,120.2,213.8,116.1,213.8,116.1z"/>
		</g>
		<path class="st9" d="M196.3,98.6l5.4,4.8l-1.1-7.7l2.9,2.2l2.3-2.5c0,0,6.4,5.3,5.5,3.7c-0.9-1.6-1.4-6.8-0.1-4.9s4.7,2.2,4.7,2.2
			s1-7.8-7.7-18.4s-20.9-5-32.2,0.5c-11.3,5.5-10.6,7.2-10.6,7.2c-2-4,2.1-3.9,2.1-3.9s-1.9-2.8-3.6-0.3c-1.7,2.5,0.3,4.1,0.3,4.1
			s-2-2.2-3.4-1.2c-1.8,1.2-1.5,2.6-1.5,2.6c2.5-2.3,4.7,0.3,4.7,0.3s-1.2,2.5-1.9,4.7c-0.7,2.1-1.5,11.2,0.2,16.7
			c1.7,5.6,4.3,12.8,7.8,15.9c0,0-2.3-5.5-0.8-3.9s1.6,0.9,1.6,0.9s-3.2-6.8-2-5.5c1.2,1.3,3.1,1.7,3.1,1.7l-1.6-4.3
			c0,0-0.3-0.8,1.9,1.5c2.2,2.2-0.3-3.5,1-1.8s3.7,4.9,3.4,2.7c-0.3-2.2-1.9-5.5-0.2-3.8c1.7,1.8,2.1,0.8,1.6-1.4
			c-0.6-2.1-1-5.6,1-3.1s4.1,5,3.4,2.5c-0.7-2.5-2.5-6.4-0.5-3.9c2,2.5,3.6,5.6,3.4,2.5c-0.3-3.1-0.6-5.5,0.8-3.7
			c1.4,1.9,2.6,6.1,2.8,3.3s-1.6-7.1,0.5-4s3.4,4.8,2.9,2.4c-0.5-2.4-1.2-6.4,0.3-3.3c1.5,3.1,3.9,4.4,2.9,2.2
			c-0.9-2.2-3.8-7-1.1-4.3c2.7,2.7,4,4.8,3.2,2.1C197,100.7,196.3,98.6,196.3,98.6z"/>
		<g>
			
				<ellipse transform="matrix(0.9473 -0.3204 0.3204 0.9473 -26.6073 69.67)" class="st9" cx="198.4" cy="115.7" rx="1.7" ry="1.7"/>
			
				<ellipse transform="matrix(0.9473 -0.3204 0.3204 0.9473 -26.6073 69.67)" class="st14" cx="198.4" cy="115.7" rx="1.2" ry="1.2"/>
			
				<ellipse transform="matrix(0.9473 -0.3204 0.3204 0.9473 -26.3868 69.8182)" class="st15" cx="199" cy="115.1" rx="0.5" ry="0.5"/>
		</g>
		<g>
			
				<ellipse transform="matrix(0.9473 -0.3204 0.3204 0.9473 -22.4632 75.3148)" class="st9" cx="217.6" cy="105.9" rx="1.7" ry="1.7"/>
			
				<ellipse transform="matrix(0.9473 -0.3204 0.3204 0.9473 -22.4632 75.3148)" class="st14" cx="217.6" cy="105.9" rx="1.2" ry="1.2"/>
			
				<ellipse transform="matrix(0.9473 -0.3204 0.3204 0.9473 -22.2426 75.463)" class="st15" cx="218.2" cy="105.3" rx="0.5" ry="0.5"/>
		</g>
		<g>
			<path class="st22" d="M193,100.4c2.2-0.2,1-0.7,1.5-1.8s1.7,0.3,2.4-0.8c0.7-1.1,1.1-0.5,2.5-0.9c1.4-0.4,1.2-1.2,1.9-1.3
				s1-0.4,2.6-1.7c1.6-1.3,2.3,0.5,4.9-0.5c2.5-1.1,4.4-1.7,5.3-2c0.4-0.2,1.2-0.7,2-1.2c0,0,0.1,0,0.1,0.1c0.7,0.4,0.5,0.6,0.2,1.2
				c0,0-0.4,0.2-0.9,0.7s-0.9,0.9-1.3,1.6c-0.4,0.7-2.2,0.8-3.6,1c-1.3,0.2-4.2,0.7-5.4,1.7c-1.2,1-1.8,1.1-3.8,1.9
				c-1.9,0.8-2.3,0.6-4.1,1.4c-1.8,0.8-2.7,2.4-3.8,2.1s-2.6,1.6-3.9,2.3c-0.3,0.2-0.6,0.2-0.8,0.2c0.1-0.2,0.1-0.3,0.2-0.5
				c0.3-1-0.4-1.3-0.5-2.2c0,0,0,0,0,0c0.4-0.3,0.7-0.5,1-0.7C190.3,100.1,190.8,100.6,193,100.4z"/>
			<g>
				<path class="st22" d="M187.5,103.1c-1.5,1.6-1.2,0.3-2.4,0.1s-0.8,1.5-2.1,1.4c-1.3-0.1-1,0.6-2.2,1.5c-1.2,0.9-1.7,0.3-2.2,0.7
					c-0.5,0.5-0.9,0.5-2.9,1c-2,0.5-1,2.2-3.4,3.6s-4,2.5-4.8,3c-0.4,0.2-1.3,0.5-2.2,0.8c0,0,0,0.1,0,0.1c-0.1,0.8,0.2,0.8,0.9,0.9
					c0,0,0.3-0.2,1.1-0.3s1.3-0.2,2.1-0.1c0.8,0.1,2-1.3,2.9-2.3c1-0.9,3.2-2.9,4.6-3.2c1.5-0.3,2-0.8,3.8-1.8
					c1.8-1.1,1.9-1.5,3.6-2.4s3.6-0.7,4-1.8s2.8-1.1,4.2-1.7c0.3-0.2,0.6-0.3,0.7-0.5c-0.2-0.1-0.3-0.1-0.5-0.2
					c-1-0.3-0.8-1.1-1.4-1.7c0,0,0,0,0,0c-0.4,0.1-0.8,0.3-1.2,0.4C188.9,100.8,188.9,101.5,187.5,103.1z"/>
				<g>
					<path class="st23" d="M183.3,93.9C183.3,93.9,183.3,93.9,183.3,93.9C183.4,94.1,183.4,94.1,183.3,93.9z"/>
					<path class="st23" d="M183.2,93.7l0.1,0.2c0,0,0,0,0.1,0C183.3,93.9,183.2,93.8,183.2,93.7z"/>
					<path class="st18" d="M189.4,97.3c-0.1-1.4,0,0-1.3-2.3c-1.3-2.3-1.2-0.5-2.4-0.4c-1,0.1-2.1-0.6-2.4-0.7
						c0.1,0.1,0.1,0.2-0.1,0c-0.7-0.9-2.1-1.1-2.2-0.7c-0.1,0.4,2.4,2.9,1.7,2.2c-0.7-0.7-1.3-0.5-0.5,0.7c0.8,1.1-0.7,1.7-1.5,1.3
						s-1.9-1.7-3-2.3s1.4,2.6,0.9,2.9s-1.9-1.7-2.9-2.4c-1-0.7,1,3.2-0.3,2.1c-1.2-1.1-1.7-0.6-1.4,0.8c0.4,1.4-0.6,2.1-1.7,1.3
						c-1.1-0.8-1.7-0.8-2.3-0.5c-0.6,0.3,0.3,2.5-0.5,1.7c-0.8-0.8-1.1-1.3-0.8-0.4c0.2,0.9,0.1,1.7-0.6,1.1
						c-0.7-0.7-0.8-2.6-0.8-2.6l-0.6,1.8c0,0-0.4-2.3-0.7-1.2c-0.3,1.1-0.1,2.7-0.1,2.7s-0.6-1.5-0.8-0.6c-0.3,0.9-0.8,1.7-0.8,1.7
						l-0.6-1.5c0,0-0.7,0.9-0.9,2.7c-0.2,1.7-0.4,2-0.9,1.8c0,0-0.7,1.3,0,2.7c0.8,1.3,1.9,2.8,1.2,2.5c-0.8-0.3-2-1.5-2-1.5
						s1.6,2.3,2.2,2.8c0.3,0.3,0.8,0.8,1.1,1.3c0.1,0,0.2,0,0.4-0.1c0.9-0.2,0.5,0.2,0.3,1c0.9-0.3,1.8-0.6,2.2-0.8
						c0.8-0.5,2.4-1.6,4.8-3s1.4-3.1,3.4-3.6c2-0.5,2.4-0.5,2.9-1c0.5-0.5,1,0.1,2.2-0.7c1.2-0.9,0.9-1.6,2.2-1.5
						c1.3,0.1,0.9-1.6,2.1-1.4s0.9,1.5,2.4-0.1c1.5-1.6,1.4-2.2,2.5-2.6l-0.5-1C189.5,99.6,189.4,98.7,189.4,97.3z"/>
					<path class="st18" d="M191.7,102.9c0.2-0.1,0.2-0.2,0.3-0.2c-1.4,0.5-3.4,0.5-3.8,1.6c-0.4,1.1-2.3,0.8-4,1.8
						c-0.8,0.5-1.3,0.8-1.7,1.2c0.1,0.2,0.1,0.5,0.2,0.7c0.2,0.8,0.3,0.9,0.3,1.2c0,0.3-0.6-0.7-0.6-0.5s0.1,1.3-0.1,0.8
						c-0.3-0.5-0.4-0.7-0.4-0.7s0.1,1.4-0.2,0.8c-0.3-0.6-0.5-0.3-0.6-0.1c-0.1,0.3,0.5,1.4,0.3,2.1c-0.2,0.6-0.7-1.6-1-2.8
						c-1.6,0.9-2.1,1.4-3.5,1.7c-1.5,0.3-3.7,2.3-4.6,3.2c-1,0.9-2.1,2.3-2.9,2.3c-0.8-0.1-1.3,0.1-2.1,0.1s-1.1,0.3-1.1,0.3
						c0.1,0,0.2,0.1,0.1,0.3c0.2,0.4,0.6,1,0.8,1.6c0.3,0.7,0.6,0.7,2.4,1.5c1.8,0.7,1.2,0,2.1,0.5c0.9,0.5,2.1,0.9,2.2,0.1
						c0.1-0.8-0.4-0.9,0.4-1.3c0.3-0.2,1,0.1,1.7,0.6c-0.1-0.9,0.6,0.1,2.2-0.6c1.9-0.7,2.5-1.7,3.9-3c1.4-1.3,2.5-2,4-2
						c1.5,0,2.9-0.5,4.7-1c0.3-0.1,0.6-0.1,0.8-0.2c0.2-0.4,0.4-0.8,0.7-1.2c1.6-2.7,1.6-3.5,1.2-4.5s0.4-1.3-0.6-2.5
						S191.1,103.3,191.7,102.9z"/>
					<path class="st24" d="M181.3,111.5c0.2-0.7-0.5-1.9-0.3-2.1c0.1-0.3,0.4-0.6,0.6,0.1c0.3,0.6,0.2-0.8,0.2-0.8s0.2,0.3,0.4,0.7
						c0.3,0.5,0.1-0.5,0.1-0.8s0.6,0.7,0.6,0.5c0-0.3-0.1-0.4-0.3-1.2c0-0.2-0.1-0.5-0.2-0.7c-0.5,0.4-0.9,0.7-1.9,1.3
						c-0.1,0.1-0.2,0.1-0.3,0.2C180.7,109.9,181.2,112.1,181.3,111.5z"/>
					<path class="st24" d="M173.7,115.1c0,0,0.1-1.2,0.5-0.6c0.4,0.6,0.5,0.1,0.6-0.3c0.1-0.4,0.3-0.4,0.6-0.1
						c0.3,0.3,0.2-0.3,0.6-0.4s0.4-0.4,0.7,0.2c0.4,0.6,0.9,1.3,0.7,1.4s-0.8-0.9-0.7-0.4c0,0.5,0.3,1.1-0.4,0.8s-1.2-0.5-1.2,0
						c0.1,0.5-0.6-0.8-0.6-0.4C174.4,115.8,173.7,115.1,173.7,115.1z"/>
					<path class="st24" d="M170.1,117c0,0-0.2,0.9,0.9,1s-0.6-1.1-0.3-0.8c0.3,0.3,1.3,1.5,1.4,0.8s-0.8-1.6-0.6-1.4
						c0.2,0.1,0-0.5,0.6-0.3c0.6,0.2-0.3-1.3,0.2-0.8s1.1,0.5,0.8-0.1s-0.8-0.9-0.9-0.5s-0.2,0.8-0.6,0.7c-0.4-0.1-0.9,0.3-0.7,0.7
						s-0.7-0.2-0.6,0.3C170.4,116.9,170,116.6,170.1,117z"/>
					<path class="st17" d="M167.6,119.3c-0.6-0.5-0.9-0.1-1.7-0.1c-0.3,0-0.6-0.2-0.7-0.5c0,0.1,0,0.1,0,0.2c-0.1,1.1-0.1,0.9,1,1.5
						s1.7,1.5,1.1,0.4s-0.1-1.2,0.8-0.1c0.7,0.8,1.4,1.2,1.7,0.9c-0.4-0.4-0.8-0.8-1.1-0.9C168.1,120.4,168.1,119.8,167.6,119.3z"/>
					<path class="st16" d="M174.3,118.8c-0.8,0.5-0.3,0.5-0.4,1.3c-0.1,0.8-1.3,0.4-2.2-0.1c-0.9-0.5-0.3,0.2-2.1-0.5
						c-1.8-0.7-2.1-0.7-2.4-1.5c-0.2-0.5-0.6-1.2-0.8-1.6c-0.1,0.4-1.1,1.4-1.3,2.2c0.2,0.3,0.4,0.5,0.7,0.5
						c0.9,0.1,1.2-0.4,1.7,0.1c0.6,0.5,0.5,1.1,1.2,1.3c0.3,0.1,0.7,0.5,1.1,0.9c0.1-0.1,0.2-0.2,0.2-0.4c0.3-0.9,1.3,0.9,2.4,2
						c1.1,1.1,0.8-0.5-0.1-2.1c-0.9-1.6,2.1,0.4,3.7,0.5c1.6,0.1,0.4-0.4,0.1-1.9c0-0.1,0-0.3,0-0.4
						C175.3,119,174.6,118.6,174.3,118.8z"/>
					<path class="st17" d="M162,113c-0.9-1-1.2-1.8-1.3-2.7c0-0.4-0.3-1.1-0.6-1.7c0,0.6,0.2,1.4,0.5,2.9c0.4,1.9,1.6,2.6,2.4,2.9
						C162.8,113.9,162.5,113.4,162,113z"/>
					<path class="st16" d="M161.5,104.5c0,0-0.5,0.3-1,2c-0.3,1-0.5,1.4-0.4,2.1c0.3,0.7,0.6,1.3,0.6,1.7c0.1,0.9,0.4,1.7,1.3,2.7
						c0.4,0.5,0.8,0.9,1,1.3c0.6,0.2,1.1,0.1,1.1,0.1s0,0,0.6-0.1c-0.4-0.5-0.8-1.1-1.1-1.3c-0.6-0.5-2.2-2.8-2.2-2.8s1.2,1.3,2,1.5
						c0.8,0.3-0.4-1.2-1.2-2.5c-0.8-1.3,0-2.7,0-2.7C161.5,106.2,161.5,104.5,161.5,104.5z"/>
					<path class="st24" d="M165.5,107.9c0,0-0.7-0.9-0.3-2.4s0.5-1.4,0.5-0.7s0.2,2.8,0.4,1.7s0.2-2.3,0.4-1.5s-0.4,1.2,0.1,2.2
						s-0.5,0.6-0.7,0.1c-0.2-0.4-0.2-0.4-0.2-0.4S166.2,109,165.5,107.9z"/>
					<path class="st24" d="M167.8,111.2c-0.5-0.9-0.5-1.2-0.5-2.1s0.2-1.4,0.2-1.4s-0.3,1.6,0.5,2.5c0.8,0.9,0.5,1.3,0.5,1.3
						L167.8,111.2z"/>
					<path class="st24" d="M183.4,100.3c0,0,0.4,2.6,0.7,2.1c0.3-0.5,0.1-1.5-0.4-2.5c-0.5-1.1-1.6-1.3-1.2-0.9s0.6,1.5,0.6,1.5
						S183.1,101.2,183.4,100.3z"/>
					<path class="st24" d="M173.4,102.1c-0.2-0.2-0.5-0.9,0.2-0.6c0.7,0.3-0.1-1,0.5-0.6c0.5,0.4,1.2,0.4,0.9-0.2
						c-0.3-0.5-0.5-1.1,0-0.7s0.4-0.3,0-0.7c-0.4-0.4-0.8-1.2,0-0.7c0.7,0.5,0.9,0.5,1.4,1.1c0.5,0.7,1.3,2.2,0.5,1.5
						c-0.8-0.7-1.4-1-1.1-0.3c0.3,0.7,1,1.7,0.1,1.2c-0.9-0.5-1.4-0.6-1.1-0.1c0.2,0.5-1.1-0.4-0.8,0.3
						C174.3,102.9,173.4,102.1,173.4,102.1z"/>
					<path class="st18" d="M187.2,98.4c-1.1-0.9,0,0-1-2.4s0.3-1.3,1.1-2.1c0.7-0.7,0.8-2,0.9-2.3c0.1,0.2,0.1,0.2,0-0.1
						c-0.3-1,0.4-2.4,0.8-2.2s0.8,3.7,0.7,2.7s0.4-1.4,0.8,0c0.4,1.3,1.7,0.4,1.9-0.5c0.2-0.9-0.2-2.6,0-3.8
						c0.2-1.3,1.3,2.7,1.7,2.5c0.5-0.2-0.2-2.6-0.2-3.8c0.1-1.2,2,2.7,1.9,1.1s0.6-1.7,1.5-0.6c0.9,1.1,2,0.8,2.1-0.5s0.4-1.8,1-2.1
						c0.6-0.3,1.9,1.7,1.7,0.6c-0.2-1.1-0.4-1.7,0.2-0.9c0.6,0.8,1.3,1.1,1.2,0.2s-1.6-2.2-1.6-2.2l1.8,0.6c0,0-1.6-1.7-0.5-1.3
						c1,0.4,2.2,1.6,2.2,1.6s-0.8-1.3,0-1c0.8,0.3,1.9,0.4,1.9,0.4l-0.8-1.3c0,0,1.1,0,2.7,0.9c1.5,0.9,1.8,0.9,2,0.3
						c0,0,1.5,0.2,2.1,1.6c0.6,1.4,1.1,3.2,1.3,2.5s0-2.5,0-2.5s0.8,2.7,0.9,3.5c0,0.4,0.2,1.1,0.4,1.7c-0.1,0.1-0.2,0.2-0.3,0.3
						c-0.7,0.6-0.1,0.5,0.6,0.8c-0.8,0.5-1.6,1.1-2,1.2c-0.8,0.4-2.7,1-5.3,2s-3.3-0.8-4.9,0.5c-1.6,1.3-1.9,1.6-2.5,1.7
						c-0.7,0.1-0.5,0.9-1.9,1.3c-1.4,0.4-1.8-0.2-2.5,0.9s-1.8-0.2-2.4,0.8c-0.5,1.1,0.7,1.6-1.5,1.8c-2.1,0.2-2.6-0.2-3.6,0.5
						l-0.5-1C188.9,99.8,188.3,99.2,187.2,98.4z"/>
					<path class="st18" d="M190.2,103.6c-0.2,0.1-0.3,0.1-0.4,0.1c1.2-0.8,2.5-2.4,3.5-2.1c1.1,0.4,2-1.3,3.8-2.1
						c0.9-0.4,1.4-0.5,2-0.7c0.2,0.2,0.3,0.4,0.5,0.6c0.5,0.6,0.5,0.8,0.8,0.9c0.2,0.2-0.2-0.9,0-0.7c0.2,0.2,0.9,0.9,0.7,0.4
						c-0.2-0.5-0.3-0.8-0.3-0.8s1.1,0.9,0.8,0.3c-0.3-0.6,0-0.6,0.3-0.6c0.3,0,0.8,1.3,1.5,1.6c0.6,0.3-0.8-1.5-1.7-2.5
						c1.7-0.7,2.3-0.8,3.4-1.8c1.2-1,4-1.5,5.4-1.8c1.3-0.2,3.1-0.3,3.6-1c0.4-0.7,0.8-1,1.3-1.6c0.5-0.5,0.8-0.7,0.8-0.7
						c-0.1,0.1,0,0.2,0.1,0.3c0.2,0.4,0.5,1.1,0.8,1.5c0.4,0.7,1,0.9,0.5,2.8c-0.5,1.9-0.2,1.2-0.3,2.2c-0.1,1.1-0.9,3.6-1.6,3.2
						c-0.7-0.4-1.3-2.3-2.2-2c-0.3,0.1-0.5,0.9-0.6,1.7c-0.7-0.6-0.3,0.5-1.8,1.4c-1.7,1-2.8,1-4.7,1.3c-1.9,0.3-3.1,0.8-4,2
						c-0.9,1.2-2.1,2.1-3.6,3.2c-0.2,0.2-0.4,0.4-0.6,0.5c-0.4-0.1-0.9-0.1-1.4-0.2c-3.1-0.4-3.7-0.8-4.3-1.7
						c-0.5-0.9-1.3-0.5-1.7-2C190.4,104,191,103.3,190.2,103.6z"/>
					<path class="st24" d="M203.4,100.5c-0.7-0.3-1.2-1.5-1.5-1.6c-0.3,0-0.7-0.1-0.3,0.6c0.3,0.6-0.8-0.3-0.8-0.3s0.1,0.3,0.3,0.8
						c0.2,0.5-0.5-0.2-0.7-0.4c-0.2-0.2,0.2,0.9,0,0.7c-0.2-0.2-0.2-0.3-0.8-0.9c-0.2-0.2-0.3-0.4-0.5-0.6c0.6-0.2,1.2-0.3,2.2-0.7
						c0.1-0.1,0.2-0.1,0.3-0.1C202.5,99,203.9,100.7,203.4,100.5z"/>
					<path class="st24" d="M210.8,96.6c0,0-1.1-0.6-0.8,0c0.3,0.6-0.2,0.5-0.6,0.3s-0.5,0-0.4,0.4c0.1,0.4-0.4,0-0.7,0.2
						s-0.5,0.1-0.3,0.7c0.3,0.6,0.5,1.5,0.7,1.4c0.2-0.1-0.3-1.1,0.2-0.8c0.4,0.3,0.7,0.9,0.8,0.1c0.1-0.7,0.3-1.3,0.7-1
						s-0.3-1,0.1-0.7C210.9,97.5,210.8,96.6,210.8,96.6z"/>
					<path class="st24" d="M214.6,94.8c0,0,0.9,0.4,0.2,1.3s-0.5-1.2-0.5-0.7s0.4,2-0.2,1.6c-0.6-0.4-0.7-1.6-0.8-1.4
						s-0.4-0.3-0.6,0.3s-0.8-1-0.8-0.3c0.1,0.7-0.2,1.2-0.6,0.6c-0.4-0.6-0.2-1.2,0.1-1.1c0.4,0.1,0.8,0.3,0.9-0.1
						c0.1-0.4,0.8-0.6,1-0.2c0.2,0.4,0.3-0.7,0.6-0.3C214.2,94.9,214.2,94.5,214.6,94.8z"/>
					<path class="st24" d="M210,85.6c0,0-0.3-1.1-1.7-1.7s-1.4-0.5-0.8,0c0.6,0.5,2.1,1.9,1.1,1.4c-1-0.5-2-1.3-1.4-0.6
						c0.6,0.7,1.2,0.4,1.7,1.4c0.5,1,0.8-0.1,0.5-0.5s-0.2-0.4-0.2-0.4S210.5,86.9,210,85.6z"/>
					<path class="st24" d="M211.3,89.5c-0.4-1-0.7-1.1-1.4-1.7s-1.3-0.6-1.3-0.6s1.4,0.7,1.7,1.9c0.3,1.1,0.8,1.2,0.8,1.2
						L211.3,89.5z"/>
					<path class="st24" d="M193.2,95.4c0,0,1.9,1.9,1.3,1.8c-0.6-0.1-1.2-0.8-1.8-1.9c-0.6-1-0.1-2.1-0.1-1.5c0,0.6,0.8,1.4,0.8,1.4
						S194.1,95.6,193.2,95.4z"/>
					<path class="st24" d="M200.6,88.4c-0.1-0.3-0.4-1-0.6-0.3c-0.2,0.7-0.8-0.7-0.8,0c0,0.7-0.4,1.2-0.7,0.6
						c-0.2-0.6-0.6-1.1-0.6-0.4c0,0.7-0.5,0.1-0.6-0.4s-0.5-1.3-0.5-0.4c-0.1,0.9-0.2,1,0.1,1.8c0.2,0.8,1,2.4,0.9,1.3
						c-0.1-1.1,0.1-1.7,0.4-1s0.8,1.9,0.9,0.8c0.1-1.1,0.3-1.5,0.6-1c0.3,0.5,0.3-1.1,0.7-0.4C200.7,89.7,200.6,88.4,200.6,88.4z"/>
					<path class="st16" d="M215.2,83.9c-0.3-0.2-0.7-0.6-1-1c0.1,0.4,0.1,0.8-0.3,0.5c-0.9-0.5-1-1.5-1.5-1.5
						c-0.4,0.1-0.9,1.1-1.9-0.1c-1-1.2-1.1-0.6-0.8,0.3s-0.3,0.9-1.6,0.1c-0.3-0.2-0.5-0.1-0.4,0l0.7,1.3c0.1,0.1,0.1,0.2,0.2,0.3
						c0.2,0.2,1.4,0.8,2.4,0.7c1.1-0.1,1-1.9,2.4,0.4c1.3,2.3,1.3,0.9,1.3,2.3c0.1,1.4,0.1,2.3,0.1,2.3l0.5,1c0,0,0,0,0.1,0
						c0.3-0.1,0.7-0.2,1.2-0.4c-0.5-0.5,1-1.1,1.9-2.6c-0.3-0.8-0.8-2-1.1-2.7C216.5,83.5,215.9,84.4,215.2,83.9z"/>
					<path class="st17" d="M217.7,84c-0.5-0.6-1.5-0.5-1.5-0.5s-0.8-0.8-1.8-1.5c-0.6-0.4-0.4,0.3-0.3,0.9c0.4,0.4,0.8,0.8,1,1
						c0.7,0.5,1.2-0.4,1.9,0.8c0.4,0.7,0.8,1.9,1.1,2.7c0.1-0.1,0.2-0.3,0.2-0.4C219.2,85.3,218.2,84.6,217.7,84z"/>
					<path class="st17" d="M219.3,92.9c-0.5-0.7-1-1.1-1.5-1.4c0.2,0.5,0.4,1.1,0.4,1.7c0.2,1.5-0.1,2.8,0.3,3.6l0.6,1.1
						c0.4-0.2,0.2-1-0.1-1.9C218.5,95,220.3,94.3,219.3,92.9z"/>
					<path class="st16" d="M218.3,93.2c-0.1-0.6-0.3-1.2-0.4-1.7c-0.4-0.2-0.7-0.4-1.1-0.5c-0.1,0.2-0.3,0.4-0.7,0.5
						c-0.1,0.1-0.3,0.1-0.4,0.1c0,0.1-0.1,0.1-0.3,0.2c-0.7,0.4,0.2,0.4,1.2,1.6c1,1.2,0.1,1.5,0.6,2.5c0.4,1,0.4,1.7-1.2,4.5
						c-0.3,0.4-0.2,0.3-0.4,0.7c1.2-0.2,1.4,0.8,2.4,0.7c1.1-0.1,0.6-1.6,0-2.9c-0.6-1.3-0.4-1.4,0.6-1.1c0.3,0.1,0.4,0.1,0.6,0
						l-0.6-1.1C218.2,96.1,218.4,94.7,218.3,93.2z"/>
				</g>
			</g>
		</g>
	</g>
</g>
</svg>
