<!-- Generator: Adobe Illustrator 21.1.0, SVG Export Plug-In  -->
<svg version="1.1"
	 xmlns="http://www.w3.org/2000/svg" xmlns:xlink="http://www.w3.org/1999/xlink" xmlns:a="http://ns.adobe.com/AdobeSVGViewerExtensions/3.0/"
	 x="0px" y="0px" width="1244.6px" height="694px" viewBox="0 0 1244.6 694" style="enable-background:new 0 0 1244.6 694;"
	 xml:space="preserve">
<style type="text/css">
	.st0{fill:url(#XMLID_67_);}
	.st1{opacity:0.2;fill:url(#XMLID_69_);}
	.st2{fill:#D16042;}
	.st3{fill:#E09686;}
	.st4{fill:#C98273;}
	.st5{fill:#BF6E5D;}
	.st6{fill:#AA6253;}
	.st7{fill:#804538;}
	.st8{fill:#FFFFFF;}
	.st9{fill:#F0ED8E;}
	.st10{fill:url(#XMLID_72_);}
	.st11{opacity:0.2;fill:url(#XMLID_73_);}
</style>
<defs>
</defs>
<linearGradient id="XMLID_67_" gradientUnits="userSpaceOnUse" x1="622.1476" y1="685.7676" x2="622.1476" y2="0.9231">
	<stop  offset="0" style="stop-color:#F0C57B"/>
	<stop  offset="0.1733" style="stop-color:#F0BE7A"/>
	<stop  offset="0.4233" style="stop-color:#F1AB76"/>
	<stop  offset="0.7182" style="stop-color:#F18C6F"/>
	<stop  offset="0.9956" style="stop-color:#F26868"/>
</linearGradient>
<rect id="XMLID_66_" x="1.8" class="st0" width="1240.7" height="689.4"/>
<g id="XMLID_54_">
	
		<linearGradient id="XMLID_69_" gradientUnits="userSpaceOnUse" x1="-1752.1034" y1="114.176" x2="-1752.1034" y2="309.7" gradientTransform="matrix(-1 0 0 1 -1126.929 0)">
		<stop  offset="0" style="stop-color:#FFFFFF"/>
		<stop  offset="0.8867" style="stop-color:#FFFFFF;stop-opacity:0.1133"/>
		<stop  offset="1" style="stop-color:#FFFFFF;stop-opacity:0"/>
	</linearGradient>
	<path id="XMLID_63_" class="st1" d="M1239.6,86.9c-21.5-70.3-158-22.2-194.9,9.3c-27,23.1-56.2,57.2-90.1,46.6
		c-11.9-3.7-21.3-12.6-31.7-19.7c-39.3-26.9-95.8-25.2-133.5,3.9c-23.5,18.2-43,47.1-72.8,48.5c-16.5,0.8-32.2-7.6-48.6-8.2
		c-39.1-1.5-65.6,37.6-98.4,58.9c-36.5,23.6-68.8,16.1-108.2,9.8c-34.9-5.6-71.8-0.6-107.1,3c-49.4,5.1-102.5,23.8-151.9,23.8
		c-9.3,0-196.7,31-196.7,31s147.2,24.8,224.6,17c77.4-7.7,39.1-8.3,109.7,0c70.5,8.3,149.8,29.4,181.2,26.3
		c31.4-3.1-16.3,0.6,97.4,0.3c113.7-0.3,121.6,16.9,233.9,16s123.3-31.8,192.1-42.6c68.8-10.8,197.4,4.2,197.4,4.2
		c0-41.6,0-83.3,0-124.9C1241.9,166.8,1249.2,118.4,1239.6,86.9C1239.6,86.9,1239.6,86.9,1239.6,86.9z"/>
	<g id="XMLID_55_">
		<g id="XMLID_59_">
			<path id="XMLID_62_" class="st2" d="M845.6,268.2l-1.5-2.2c-0.5-0.7-1.1-1.4-1.6-2.1l-1.7-2c-0.6-0.6-1.2-1.3-1.8-1.9
				c-0.6-0.6-1.2-1.2-1.9-1.7c-0.6-0.6-1.3-1-2-1.5c-0.7-0.4-1.4-0.9-2.1-1.2c-0.7-0.4-1.5-0.6-2.2-0.9l-1.1-0.3l-1.2-0.2
				c-0.8-0.1-1.6-0.1-2.3-0.1c-0.8,0-1.6,0.1-2.3,0.3c-0.8,0.2-1.5,0.4-2.3,0.6c-0.8,0.3-1.5,0.5-2.2,0.9c-0.7,0.3-1.5,0.7-2.2,1.1
				c-0.7,0.4-1.4,0.9-2,1.3c-0.6,0.5-1.3,1-1.8,1.5l-2.6,2.4l-1.2-3.3l-0.8-2.3l-0.9-2.2c-0.4-0.7-0.7-1.5-1.1-2.1
				c-0.4-0.7-0.8-1.4-1.2-2c-0.4-0.7-0.9-1.3-1.4-1.9c-0.5-0.6-1-1.2-1.6-1.7c-0.3-0.2-0.6-0.5-0.9-0.7c-0.3-0.2-0.6-0.4-0.9-0.7
				c-0.6-0.4-1.3-0.8-2-1.1c-0.3-0.2-0.7-0.3-1.1-0.5c-0.4-0.2-0.7-0.3-1.1-0.4c-0.4-0.1-0.7-0.2-1.1-0.3c-0.4-0.1-0.8-0.2-1.2-0.2
				c-1.6-0.2-3.2-0.3-4.8-0.1c-1.6,0.1-3.3,0.5-4.9,0.9c-1.6,0.4-3.3,1-4.9,1.7c2.7-2.2,5.9-3.8,9.4-4.8c0.9-0.2,1.8-0.4,2.7-0.5
				c0.9-0.1,1.8-0.2,2.8-0.2c0.9,0,1.9,0.1,2.8,0.3c0.5,0.1,0.9,0.2,1.4,0.3c0.5,0.1,0.9,0.2,1.4,0.4c0.9,0.3,1.8,0.7,2.6,1.2
				c0.8,0.5,1.6,1,2.4,1.6c0.8,0.6,1.4,1.3,2.1,1.9c0.6,0.7,1.3,1.4,1.8,2.2c0.6,0.7,1.1,1.5,1.6,2.3c0.5,0.8,0.9,1.6,1.3,2.4
				c0.4,0.8,0.7,1.7,1.1,2.5l0.9,2.6l-3.8-1c0.8-0.8,1.5-1.3,2.4-1.9c0.8-0.6,1.6-1.1,2.5-1.5c1.7-0.9,3.5-1.7,5.4-2.3
				c1-0.3,1.9-0.5,2.9-0.6c1-0.1,2-0.2,3-0.2c1,0,2,0.1,3,0.3l1.5,0.4l1.4,0.5c0.9,0.4,1.8,0.8,2.6,1.3c0.9,0.5,1.6,1.1,2.4,1.7
				c0.7,0.6,1.4,1.3,2,2c0.7,0.7,1.2,1.4,1.8,2.2c0.5,0.8,1,1.5,1.5,2.3c0.4,0.8,0.9,1.6,1.3,2.4c0.4,0.8,0.8,1.7,1.1,2.5
				L845.6,268.2z"/>
			<path id="XMLID_61_" class="st2" d="M788.1,357.2c0.7-1,1.5-1.9,2.4-2.8c0.4-0.4,0.9-0.8,1.4-1.2c0.5-0.4,1-0.7,1.6-1.1
				c0.5-0.4,1.1-0.6,1.7-0.9c0.6-0.3,1.2-0.4,1.8-0.6c0.6-0.2,1.3-0.2,1.9-0.4c0.7-0.1,1.3,0,2,0c0.7,0,1.3,0.2,2,0.3l1,0.2
				c0.3,0.1,0.6,0.3,0.9,0.4c0.6,0.3,1.2,0.5,1.8,0.9l1.6,1.1c0.6,0.3,1,0.8,1.5,1.3l1.4,1.4l2.3,3l-2.6,0.1
				c0.4-0.7,0.8-1.2,1.2-1.7c0.4-0.5,0.9-1,1.3-1.5c0.5-0.5,1-0.9,1.5-1.4c0.5-0.4,1.1-0.8,1.6-1.2c0.6-0.3,1.2-0.7,1.8-1
				c0.7-0.2,1.3-0.5,2-0.7c0.7-0.1,1.4-0.3,2.1-0.4l2.1,0c0.7,0.1,1.4,0.3,2,0.4c0.7,0.1,1.3,0.4,1.9,0.7c0.6,0.3,1.2,0.5,1.8,0.9
				l1.6,1.1c0.5,0.4,1,0.9,1.4,1.3c0.5,0.4,1,0.9,1.4,1.3c0.8,1,1.6,2,2.4,3c-1-0.8-2-1.5-2.9-2.3c-0.5-0.4-1-0.7-1.5-1
				c-0.5-0.3-1-0.7-1.5-1l-1.6-0.8c-0.5-0.3-1.1-0.4-1.7-0.6c-0.6-0.1-1.1-0.4-1.7-0.4c-0.6,0-1.1-0.1-1.7-0.2l-1.7,0.1l-1.6,0.4
				c-0.5,0.2-1,0.4-1.5,0.6l-1.4,0.9c-0.4,0.4-0.9,0.7-1.3,1c-0.4,0.4-0.9,0.8-1.2,1.2c-0.4,0.4-0.8,0.9-1.1,1.3
				c-0.3,0.4-0.7,1-1,1.4l-1.2,1.9l-1.4-1.8l-2.1-2.7l-1.2-1.2c-0.4-0.4-0.8-0.8-1.2-1.1l-1.3-1c-0.4-0.3-0.9-0.5-1.4-0.8
				c-0.2-0.1-0.5-0.3-0.7-0.4l-0.8-0.2c-0.5-0.2-1-0.4-1.6-0.4c-0.5,0-1.1-0.2-1.6-0.1c-0.5,0.1-1.1,0-1.6,0.1
				c-0.5,0.1-1.1,0.2-1.7,0.3c-0.5,0.2-1.1,0.3-1.6,0.6c-0.5,0.2-1.1,0.4-1.6,0.7c-0.5,0.3-1,0.5-1.5,0.9
				C790,355.7,789,356.4,788.1,357.2z"/>
			<path id="XMLID_60_" class="st2" d="M835.9,398.1c0.5-0.7,1-1.4,1.6-2.1c0.3-0.3,0.6-0.6,1-0.9c0.3-0.3,0.7-0.5,1.1-0.8
				c0.4-0.3,0.8-0.4,1.2-0.7c0.4-0.2,0.9-0.3,1.3-0.5c0.4-0.2,0.9-0.2,1.4-0.3c0.5-0.1,1,0,1.5,0c0.5,0,1,0.1,1.5,0.2
				c0.5,0.1,1,0.2,1.4,0.4c0.4,0.2,0.9,0.4,1.3,0.6l1.2,0.8c0.4,0.3,0.7,0.6,1.1,0.9l1,1l1.7,2.2l-2.6,0.1c0.3-0.5,0.6-0.9,0.9-1.3
				c0.3-0.4,0.6-0.8,1-1.1c0.7-0.7,1.5-1.3,2.3-1.9c0.4-0.2,0.9-0.5,1.4-0.7c0.5-0.2,1-0.4,1.5-0.5c0.5-0.1,1-0.2,1.5-0.3l1.6,0
				c0.5,0.1,1,0.2,1.5,0.3c0.5,0.1,0.9,0.3,1.4,0.5c0.4,0.2,0.9,0.4,1.3,0.7l1.2,0.8c0.4,0.3,0.7,0.6,1,1c0.3,0.3,0.7,0.6,1,1
				c0.6,0.7,1.1,1.5,1.6,2.2c-0.8-0.5-1.5-1-2.2-1.6l-1.1-0.7c-0.4-0.2-0.7-0.5-1.1-0.6l-1.1-0.5c-0.4-0.2-0.8-0.3-1.2-0.4
				c-0.4-0.1-0.8-0.3-1.2-0.3c-0.4,0-0.8-0.1-1.1-0.1l-1.1,0.1l-1.1,0.3l-1,0.5l-1,0.6c-0.6,0.5-1.2,0.9-1.7,1.5
				c-0.3,0.3-0.5,0.6-0.8,0.9c-0.2,0.3-0.5,0.7-0.6,0.9l-1.3,1.9l-1.3-1.8l-1.4-1.9l-0.8-0.8c-0.3-0.3-0.5-0.6-0.8-0.8l-0.9-0.7
				c-0.3-0.2-0.6-0.4-1-0.5c-0.3-0.2-0.7-0.3-1-0.4c-0.3-0.1-0.7-0.3-1-0.3c-0.4,0-0.7-0.2-1.1-0.1c-0.4,0-0.8,0-1.1,0
				c-0.4,0.1-0.8,0.1-1.1,0.2c-0.4,0.1-0.8,0.2-1.1,0.3c-0.4,0.2-0.8,0.3-1.1,0.5c-0.4,0.2-0.7,0.4-1.1,0.6
				C837.3,397.1,836.6,397.6,835.9,398.1z"/>
		</g>
		<g id="XMLID_56_">
			<path id="XMLID_58_" class="st2" d="M162.6,171.9c-1.6-0.7-3.3-1.3-4.9-1.7c-1.7-0.4-3.3-0.8-5-0.9c-1.7-0.2-3.3-0.2-4.9,0.1
				c-0.4,0-0.8,0.1-1.2,0.2c-0.4,0.1-0.8,0.2-1.2,0.3c-0.4,0.1-0.8,0.2-1.1,0.4c-0.4,0.1-0.7,0.3-1.1,0.5c-0.7,0.3-1.4,0.7-2,1.2
				l-0.9,0.7c-0.3,0.2-0.6,0.5-0.9,0.8c-0.6,0.5-1.1,1.1-1.6,1.7c-0.5,0.6-1,1.2-1.4,1.9c-0.5,0.6-0.8,1.4-1.2,2.1
				c-0.4,0.7-0.7,1.5-1.1,2.2l-0.9,2.3l-0.8,2.4l-1.1,3.3l-2.7-2.3c-0.5-0.4-1.2-1-1.9-1.5c-0.7-0.5-1.4-0.9-2.1-1.4
				c-1.4-0.8-2.9-1.5-4.5-2.1c-0.8-0.3-1.6-0.5-2.3-0.6c-0.8-0.1-1.6-0.2-2.4-0.3c-0.8,0-1.6,0-2.4,0.1l-1.2,0.2l-1.2,0.3
				c-0.8,0.2-1.5,0.5-2.3,0.9c-0.8,0.3-1.4,0.8-2.2,1.2c-0.7,0.5-1.4,0.9-2.1,1.5c-0.7,0.5-1.3,1.2-1.9,1.7
				c-0.6,0.6-1.2,1.3-1.8,1.9l-1.7,2.1c-1.1,1.4-2.1,2.9-3.2,4.4l0.9-2.6c0.4-0.8,0.8-1.7,1.1-2.5c0.4-0.8,0.9-1.6,1.3-2.5
				c0.5-0.8,1-1.6,1.6-2.4c0.6-0.7,1.1-1.5,1.8-2.2c0.6-0.7,1.3-1.4,2.1-2c0.8-0.6,1.5-1.2,2.4-1.7c0.8-0.5,1.8-1,2.7-1.4l1.4-0.5
				l1.5-0.4c1-0.2,2-0.3,3-0.3c1,0,2,0,3,0.2c1,0.1,2,0.3,3,0.6c1.9,0.6,3.7,1.4,5.5,2.3c0.9,0.5,1.7,1,2.5,1.6
				c0.8,0.6,1.6,1.1,2.4,1.9l-3.8,1l0.9-2.6l1.1-2.6c0.4-0.8,0.8-1.7,1.3-2.5c0.5-0.8,1-1.6,1.6-2.4c0.6-0.8,1.2-1.5,1.8-2.2
				c0.7-0.7,1.4-1.4,2.1-2c0.8-0.6,1.6-1.2,2.4-1.7c0.9-0.5,1.7-0.9,2.7-1.2c0.5-0.2,0.9-0.3,1.4-0.4c0.5-0.1,0.9-0.2,1.4-0.3
				c0.9-0.2,1.9-0.3,2.9-0.3c0.9,0,1.9,0,2.8,0.2c0.9,0.1,1.8,0.3,2.7,0.5C156.5,168.1,159.8,169.7,162.6,171.9z"/>
			<path id="XMLID_57_" class="st2" d="M180.7,226.1c0.6-0.9,1.4-1.8,2.2-2.6c0.4-0.4,0.9-0.8,1.3-1.1c0.4-0.4,0.9-0.7,1.4-1
				c0.5-0.3,1-0.5,1.6-0.8c0.5-0.3,1.1-0.4,1.7-0.6c0.6-0.2,1.2-0.2,1.8-0.3c0.6-0.1,1.2,0,1.8,0c0.6,0,1.2,0.1,1.8,0.3l0.9,0.2
				c0.3,0.1,0.6,0.2,0.9,0.4c0.6,0.3,1.2,0.5,1.7,0.8l1.5,1c0.5,0.3,0.9,0.8,1.4,1.2l1.3,1.3l2.2,2.8l-2.6,0.1
				c0.4-0.6,0.7-1.1,1.1-1.6c0.4-0.5,0.8-1,1.2-1.4c0.9-0.9,1.9-1.7,2.9-2.4c0.6-0.3,1.1-0.6,1.7-0.9c0.6-0.2,1.2-0.5,1.8-0.6
				c0.6-0.1,1.3-0.2,1.9-0.3l1.9,0c0.6,0.1,1.3,0.2,1.9,0.4c0.6,0.1,1.2,0.4,1.8,0.6c0.6,0.2,1.1,0.5,1.6,0.9l1.5,1
				c0.5,0.4,0.9,0.8,1.3,1.2c0.4,0.4,0.9,0.8,1.3,1.2c0.7,0.9,1.5,1.8,2.1,2.8c-0.9-0.7-1.8-1.4-2.7-2.1c-0.5-0.3-1-0.6-1.4-0.9
				c-0.5-0.3-0.9-0.6-1.4-0.9l-1.5-0.7c-0.5-0.3-1-0.4-1.5-0.5c-0.5-0.1-1-0.4-1.5-0.4c-0.5,0-1-0.1-1.5-0.1l-1.5,0.1l-1.4,0.4
				l-1.4,0.6l-1.3,0.8c-0.4,0.3-0.8,0.6-1.2,0.9c-0.4,0.4-0.8,0.7-1.1,1.1c-0.4,0.4-0.7,0.8-1,1.2c-0.3,0.4-0.6,0.9-0.9,1.2
				l-1.2,1.9l-1.4-1.8l-1.9-2.5l-1.1-1.1c-0.4-0.4-0.7-0.8-1.1-1l-1.2-0.9c-0.4-0.3-0.9-0.5-1.3-0.7c-0.2-0.1-0.4-0.2-0.7-0.3
				l-0.7-0.2c-0.5-0.1-0.9-0.3-1.4-0.4c-0.5,0-1-0.2-1.5-0.1c-0.5,0-1,0-1.5,0.1c-0.5,0.1-1,0.1-1.5,0.3c-0.5,0.2-1,0.3-1.5,0.5
				c-0.5,0.2-1,0.4-1.5,0.6c-0.5,0.2-1,0.5-1.4,0.8C182.5,224.8,181.6,225.4,180.7,226.1z"/>
		</g>
	</g>
</g>
<g id="XMLID_4_">
	<g id="XMLID_48_">
		<g>
			<path id="XMLID_51_" class="st3" d="M733.4,694c0,0-106.4-60.6-211.1-79.3c-52.3-9.4-71.5,33.2-120.5,0s-37.5-55.4-72.1-55.8
				c-34.6-0.4-51.9-23.5-109.6-23.5s-40.4,41.8-144.2,23.5c-25.2-4.4-53.4,0-53.4,0V694H733.4z"/>
			<path id="XMLID_50_" class="st3" d="M906.1,543.2c0,0-3.7,7.4-22.3,11.1c-18.5,3.7-44.5-20.7-48.2-18.4c-3.7,2.3-31,9.3-31,9.3
				s-8.6-5.7-14.8-9.5c-6.2-3.7-18.5,20.4-18.5,20.4s-24.7-6-37.1-1.4c-12.4,4.6-21,3.3-30.9,15.7c-9.9,12.4-48.2,3.7-59.3-6.2
				c-11.1-9.9-29.7-19-39.6-8.3c-9.9,10.7-21,20.6-23.5,26.8c-2.5,6.2-7.2,26-25.2,33.4c-18.1,7.4-17,28.4-17,28.4
				s-42.4,49.5-39,49.5s406.4,0,406.4,0V543.2z"/>
		</g>
	</g>
	<path id="XMLID_46_" class="st4" d="M0,456.2c0,0,48.1,5.2,60.5,14.5c20.5,15.3,55.8-15.5,65.1,0s37.2,83,37.2,83l90,140.4H0V456.2
		z"/>
	<path id="XMLID_44_" class="st4" d="M143.2,553.6c0,0,80.7,2.9,85.8,6c5.2,3.1,20.7,23.8,33.1,16.5c12.4-7.2,23.1-10.8,30-10.5
		c13.8,0.7,22.2,25,37.7,28.6c14.2,3.3,52.4,94.6,138.7,99.8H143.2V553.6z"/>
	<path id="XMLID_37_" class="st4" d="M375.4,694c0,0,76.5-51.2,94.4-43.4c22.2,9.6,35.4,0.9,42.3-7.3c3.9-4.6,9.7-7.2,15.7-7.2h70
		l46.5-27.4c0,0,18.8-17.1,37-17.1c18.2,0,99.3,17.1,99.3,17.1l71-17.1L876.3,694H375.4z"/>
	<g id="XMLID_26_">
		<g>
			<g id="XMLID_29_">
				<path class="st5" d="M0,523.4c0,0,1.6-20.7,43.9-20.7c12.6,0,13.4,10.3,25.9,15.5c12.4,5.2,13.4,4.1,19.6,5.2
					c6.2,1,20.7,4.1,20.7,13.4c0,9.3,14.5,21.7,21.7,23.8c7.2,2.1,11.4,12.2,11.4,12.2L375.4,694H0V523.4z"/>
			</g>
			<g id="XMLID_28_">
				<path class="st5" d="M1240.8,371.1h-28c0,0-2.7-8-21.3-16c-18.7-8-37.4,8-45.4,0c-3.2-3.2-8-1.3-12.6,2c-11,7.9-25.2,9.9-37.8,5
					c-0.1,0-0.2-0.1-0.3-0.1c-10.7-4.2-48-11.8-56,0c-8,11.8-56,14.5-61.4,27.8c-5.3,13.3-10.7,37.4-24,62.7
					c-13.3,25.4-38.6,22.1-45.4,54.7c-3.3,15.9-26.7,66.7-26.7,66.7s-20.4-13.3-35.5,0c-15.2,13.3-1.1,40-29.5,42.7
					c-28.4,2.7-93.3,0-93.3,0s-11.9-2.7-58.9,10.7c-47,13.3-97.9,39.7-97.9,39.7l-53.2,27h727.2V371.1z"/>
			</g>
		</g>
	</g>
	<path id="XMLID_21_" class="st6" d="M1240.8,413.3c0,0-7.8-21.7-29.5-9.3s14,29.5-21.7,24.8c-35.7-4.7-40.3-32.1-57.4-28.4
		c-17.1,3.6-26.4,34.7-49.6,29.2c-23.3-5.4-41.9,7-51.2,19.4c-9.3,12.4-9.3,34.1-40.3,57.4c-31,23.3-24.8,58.5-31,71.9
		c-6.2,13.4-9.3,11.9-24.8,30.5c-15.5,18.6-32.6,43.4-37.2,48.1c-4.7,4.7-94,15.5-92.7,20.2c1.2,4.7-89.9,17.1-89.9,17.1h525.4
		V413.3z"/>
	<path id="XMLID_7_" class="st7" d="M1221.4,579.1c-0.2-1.7-0.5-3.4-0.7-5.1c-0.2-1.5-0.5-3-1.3-4.3c-0.7-1.3-2-2.4-3.5-2.6
		c-1.6-0.2-3.3,0.7-4.3,2c-1,1.3-1.4,3-1.7,4.6c-0.1,1-0.2,2.8-0.4,4.4c-2.2,0-4.4,0.1-6.6,0.2c-0.5-1-0.9-2.1-1.2-3.2
		c-1.2-4.9-1.7-10-1.3-15.1c0.2-2.8,0.7-5.7-0.1-8.4c-0.8-2.7-3.3-5.2-6.1-4.8c-2.4,0.4-4.1,2.8-4.5,5.2c-0.4,2.4,0.2,4.9,0.7,7.3
		c1.4,7.1,1.1,14,0.7,21.1c-1.3,0.4-2.6,0.9-3.9,1.5c-0.5-0.1-0.9,0.1-1.3,0.6c-1.5,0.8-3,1.6-4.4,2.6c-0.2-0.6-0.4-1.2-0.5-1.8
		c-1-5-1.3-9.9-2-14.9c-0.3-1.9-1.5-4-3.4-4c-2.4-0.1-3.6,2.9-3.9,5.3c-0.9,7.2,0.2,14.4,0.8,21.6c-6.4,3.4-10.9,3-14.8,1.9
		c-0.4-3.2-0.6-6.4-1-8.1c-1.3-4.9-1.7-9.6-2.1-14.8c-0.2-2-0.7-4.6-2.7-5c-1.4-0.3-2.7,0.7-3.3,2c-0.6,1.2-0.6,2.7-0.6,4.1
		c0,6.3,0.3,12.8,0.3,19.2c-1.6-0.1-3.4,0-5.4,0.7c-4.9,1.6-8.2,4.1-11.4,6.7c0-3.9-0.5-7.8-1.9-11.4c-0.4-1-1.4-2.2-2.4-1.7
		c-0.6,0.3-0.8,0.9-0.9,1.5c-0.9,4.5,0.4,9.2-0.8,13.6c-0.2,0.7-0.5,1.5-1.2,1.7c-1.1,0.3-1.9-1.1-2.2-2.2c-0.5-1.7-1-3.5-1.5-5.2
		c-0.3-0.9-0.6-2-1.5-2.3c-0.8-0.3-1.7,0.2-2.2,1c-0.5,0.7-0.6,1.6-0.7,2.5c-0.3,2.3-0.6,4.5-0.9,6.8c-0.6,4.8-5.7,7.5-9.4,3.3
		c-1.9-2.2-2.3-5.3-2.2-8.2c0.2-2.9,0.8-5.8,0.6-8.7c-0.1-1.4-0.4-2.8-1.4-3.8c-1-1-2.8-1.2-3.7-0.1c-0.5,0.6-0.6,1.5-0.7,2.3
		c-0.1,1.4,0,5.9-1,6.9c-0.7,0.7-1.8-0.3-2.2-1.2c-4.1-9.2-2.1-19.9-3-30c-0.1-1.1-0.2-2.2-0.8-3.1c-0.6-0.9-1.8-1.5-2.8-1.1
		c-0.8,0.4-1.3,1.3-1.6,2.1c-0.8,2.2-1.4,4.4-1.7,6.7c-0.5,3.9-0.2,7.8-0.3,11.7c-0.1,3.4,0.6,7.3-0.8,10.4c-0.5,1-1.6,2.1-2.6,1.6
		c-0.6-0.3-0.9-1-1-1.7c-0.4-1.4-0.8-2.7-1.2-4.1c-0.4-1.3-1.2-3-2.6-2.7c-1,0.2-1.5,1.4-1.6,2.4c-0.4,3.3,0.6,6.6,1.2,9.9
		c0.5,3.2,0.5,6.6-0.1,9.8c-0.1,0.6-0.3,1.2-0.7,1.7c-0.4,0.4-1.2,0.6-1.6,0.2c-0.3-0.2-0.3-0.6-0.4-1c-0.3-1.4-0.5-2.7-0.8-4.1
		c-0.1-0.7-0.3-1.5-1-1.8c-1-0.5-2.1,0.7-2.3,1.9c-0.2,1.4,0.3,2.9,0,4.4c-0.7,3.3-4.2,2.2-5.3-0.1c-0.5-1.2-0.6-2.6-0.8-3.9
		c-0.3-2.9-0.8-5.8-1.5-8.7c-0.2-0.7-0.4-1.5-0.8-2c-1.3-1.6-4.1-0.9-5.3,0.8c-1.2,1.7-1.3,3.9-1.3,6c0,5.8-0.1,11.5-0.1,17.3
		c0,1-0.1,2.3-1,2.8c-0.9,0.6-2.1,0.2-2.8-0.6c-0.7-0.8-1-1.8-1.2-2.8c-0.6-2-1.3-4-2.1-6c-0.3-0.7-0.8-1.6-1.6-1.5
		c-0.3,0-0.6,0.2-0.9,0.5c-1.5,1.7-0.1,4.6-1.3,6.4c-0.7,1.1-2.5,1.5-3.6,0.8c-1.2-0.7-2.3-2.5-3.4-1.7c-0.5,0.3-0.6,0.9-0.7,1.5
		c-0.4,3.5,0.4,7.1-0.5,10.5c-1,3.6-5.7,6.5-7.8,1.8c-0.8-1.7-0.7-3.7-0.6-5.6c0.1-3.4-0.1-7-1.9-9.9c-0.4-0.6-0.9-1.2-1.6-1.1
		c-0.9,0.1-1.4,1.2-1.6,2.1c-0.3,1.6-0.7,3.1-1,4.7c-0.1,0.7-0.4,1.5-1,1.8c-1.3,0.6-2.3-1.2-2.6-2.5c-0.7-3.8-1.1-7.6-1.2-11.4
		c-0.1-3.8,0.1-8.1-2-11.4c-2.4-3.9-6.2-5.2-7.2,0.4c-1.2,7.1,0.6,14.3,0.5,21.4c0,1.6-0.4,3.5-1.1,4.9c-0.4,0.8-1.4,1.6-2.3,1.3
		c-1.2-0.3-1.4-1.8-1.6-3c-0.2-1.8-0.8-3.6-1.6-5.2c-0.3-0.6-0.7-1.1-1.3-1.2c-0.3,0-0.7,0.1-1,0.3c-1,0.7-1.4,2.1-1.6,3.3
		c-0.5,3.1,2.3,16.2-2.2,17.1c-1.5,0.3-3-0.9-3.5-2.3c-0.5-1.4-0.4-3-0.2-4.5c0.9-9.1,1.3-18.3,1.1-27.4c0-1.4-0.1-2.9-0.7-4.1
		c-0.6-1.3-2-2.3-3.4-2.1c-1.8,0.3-2.7,2.2-3.2,4c-2.9,10.4-1.2,21.4-1.3,32.2c0,0.4,0,0.8-0.2,1.2c-0.6,1.3-2.7,1.1-3.6,0
		c-0.9-1.1-1-2.7-1.1-4.1c-0.2-2.9-0.7-5.9-1.6-8.7c-0.5-1.7-1.9-3.7-3.5-2.9c-0.5,0.2-0.8,0.7-1.1,1.1c-2.5,4.3-1.4,8.9-1.4,13.6
		c0,3.5,0.8,8.8-2.6,11.2c-0.3,0.2-0.7,0.4-1.1,0.5c-1.2,0.1-2-1.2-2.3-2.3c-0.3-1.1-0.5-2.4-1.5-3.1c-1.4-1-3.5,0.1-4.2,1.7
		c-0.7,1.6-0.4,3.4-0.3,5.2c0.2,2.4,0.1,4.7-0.2,7.1c-0.1,0.9-0.8,2.1-1.6,1.8c-0.3-0.1-0.5-0.5-0.7-0.8c-0.6-1.1-1.1-2.3-1.4-3.5
		c-0.4-1.4-1.4-3.3-2.8-2.8c-0.7,0.3-1,1.2-1.2,2c-0.6,3-0.8,6-0.6,9c-1.5,0-3,0-4.4,0.1c-0.4-1.2-0.7-2.5-0.8-3.8
		c-0.1-0.6-0.1-1.3-0.6-1.8c-0.7-0.8-2.2-0.4-2.9,0.4c-0.7,0.9-0.8,2.1-0.8,3.2c0,0.8-0.1,1.6-0.1,2.3c-3.2,0.4-5.7,0.9-7.2,1.9
		c-8.3,5.2-21.7,16.5-26.9,18.6c-5.2,2.1-31,18.6-31,18.6h364.5V583.4C1240.8,583.4,1232.4,580.5,1221.4,579.1z"/>
	<path id="XMLID_5_" class="st7" d="M829.3,691c-6.2-3.6-10.8-10.3-11.3-17.5c-0.3-3.7-0.4-8.5-4-9.3c-2.9-0.7-5.4,2.5-5.7,5.5
		c-0.3,3,0.7,6,0.6,9c-0.1,3-2.1,6.4-5.1,6.3c-2.9-0.1-4.7-3.3-5.2-6.2c-0.5-2.9-0.6-6.1-2.5-8.2c-2.5-0.5-3.6,3-3.7,5.6
		c-0.1,4.3-4.2,8.2-7.6,3.6c-1-1.3-1.4-3-1.6-4.7c-0.5-3.4-0.2-6.9-0.5-10.3c-0.3-3.4-1.2-7-3.8-9.4c-0.3-0.3-0.7-0.6-1.1-0.7
		c-1.2-0.4-2.4,0.4-3,1.5c-0.5,1.1-0.5,2.4-0.5,3.6c0.1,3.8,0.2,7.6,0.3,11.4c0,1.4,0.1,2.9-0.4,4.3c-0.4,1.4-1.4,2.7-2.8,3.1
		c-7.8,2.2-4.4-11.7-9.2-12.1c-0.9-0.1-1.8,0.4-2.5,1.1c-0.6,0.7-1,1.6-1.4,2.4c-0.8,2-0.1,4.1-0.5,6.2c-0.3,1.5-1.3,2.9-2.7,3.2
		c-1.5,0.3-3-1-3.6-2.4c-0.6-1.5-0.5-3.1-0.5-4.6c0.1-3-0.1-6.1-0.5-9.1c-0.2-1.3-0.4-2.7-1.2-3.8c-0.8-1.1-2.4-1.7-3.6-1
		c-1.4,0.8-1.4,2.7-1.4,4.3c0,4.4-0.9,8.8-2.7,12.9c-0.4,0.9-1,1.9-2,2c-0.8,0.1-1.5-0.6-1.9-1.2c-0.9-1.4-1.1-3.1-1.6-4.7
		c-1.5-4.5-5.8-2.7-6.3,1.3c-0.1,1-0.2,2-0.4,2.9c-0.2,1.3-0.6,2.9-1.9,3.1c-4.7,0.6-1.4-13.2-6.1-14.2c-2.3-0.5-4,2.2-4.5,4.5
		c-0.5,2.3-1.1,5.1-3.3,5.9c-1.8,0.7-3.9-0.5-4.9-2.1c-1-1.6-1.3-3.6-1.5-5.5c-0.3-2.5-0.6-5.1-0.8-7.6c-0.4-3.9-1-8.2-3.8-11
		c-0.4-0.4-1-0.8-1.6-0.6c-0.4,0.1-0.7,0.5-0.8,0.9c-2.3,4.9,0,11.1-1.5,16.3c-0.2,0.6-0.3,1.2-0.7,1.7c-0.4,0.5-1.1,0.7-1.6,0.4
		c-0.4-0.3-0.6-0.8-0.7-1.3c-0.2-1-0.5-2-0.7-3.1c-0.1-0.6-0.3-1.2-0.7-1.6c-0.9-0.8-2.4,0-2.9,1.1c-0.5,1.1-0.3,2.3-0.3,3.5
		c0,1.8-0.3,3.6-1,5.2c-0.7,1.5-2,3.1-3.7,2.9c-1.8-0.2-2.6-2.3-2.9-4c-0.4-1.9-0.8-3.9-1-5.8c-0.1-0.9-0.2-1.9-0.6-2.7
		c-0.4-0.8-1.2-1.5-2.1-1.5c-1.4,0-2.3,1.6-2.5,2.9c-0.5,2.8-1.7,8.6-6.3,6.4c-1.8-0.8-2-3.2-2.2-5.1c-0.4-4-1.9-7.8-4.1-11.1
		c-0.3-0.4-0.6-0.8-1-1.1c-1-0.6-2.3-0.2-3,0.7c-0.7,0.8-1,2-1.2,3.1c-0.4,3-0.1,6.1,0.1,9.2c0.1,1.3,0.2,2.7-0.4,3.8
		c-0.6,1.2-2.1,2-3.2,1.4c-1.2-0.6-1.3-2.3-1.4-3.6c-0.1-2.5-0.6-5-1.3-7.4c-0.2-0.7-0.6-1.6-1.3-1.7c-0.9-0.1-1.5,0.9-1.7,1.8
		c-0.7,3.1,0.2,6.4-0.4,9.5c0,0.3-0.1,0.6-0.3,0.8c-0.5,0.5-1.4,0-1.6-0.6c-0.2-0.6-0.1-1.4,0-2c0-0.7-0.1-1.5-0.8-1.8
		c-0.6-0.3-1.4,0.1-1.7,0.7c-0.4,0.6-0.4,1.3-0.5,1.9c0,0.5,0,0.9,0,1.4l-6.5-1.7c0,0-35.2-17.4-50.7-20.3
		c-13.6-2.6-44.2,15.3-51.1,19.5c-0.4-1.7-0.5-3.6-0.5-5.6c0-4.4-0.5-8.9-1.6-13.1c-0.2-0.9-0.6-1.9-1.5-2.1c-1.1-0.2-1.9,1-2.2,2
		c-1.2,3.6-0.9,7.5-1.5,11.3c-0.2,1.3-0.5,2.6-1.4,3.5c-0.9,0.9-2.5,1.2-3.4,0.2c-0.5-0.6-0.6-1.4-0.8-2.2c-0.3-1.3-0.8-2.5-1.6-3.6
		c-0.3-0.4-0.7-0.9-1.2-1c-1.2-0.3-2.1,1.2-2.4,2.4c-0.4,1.4-0.8,2.9-1.2,4.3c-0.2,0.8-0.5,1.6-1.2,2.1c-2.4,1.7-2.5-3.7-2.7-4.8
		c-0.6-3.1-1.1-6.3-1.7-9.4c-0.2-1.1-0.4-2.3-1.1-3.2c-0.7-0.9-2.1-1.3-3-0.7c-0.8,0.6-1,1.7-1,2.7c-0.3,3.8,0.3,10.7-3.6,12.8
		c-0.3,0.2-0.7,0.3-1,0.3c-1.1-0.1-1.5-1.4-1.5-2.5c-0.1-1.1-0.2-2.4-1.2-2.8c-1.1-0.4-2.2,0.7-2.4,1.8c-0.2,1.1,0,2.3-0.2,3.4
		c-0.2,1.1-1.3,2.2-2.4,1.8c-0.7-0.3-1.1-1.1-1.8-1.3c-1.2-0.3-2,1.2-2.3,2.5c-0.1,0.5-0.2,1.1-0.3,1.6c-9.7-1.3-23.3-3.5-24.7-4.3
		c-1.3-0.8-4.8-3.2-6.3-2.5c-0.8,0.4-1.4,1.1-2.1,1.6c-0.7,0.6-1.6,1-2.4,0.6c-0.6-0.3-0.9-0.9-1.2-1.5c-0.5-1-1-2.1-1.4-3.1
		c-0.4-0.9-1.1-1.9-2-1.6c-0.8,0.2-0.9,1.2-1.1,2c-0.2,1-0.9,2-1.9,1.9c-3.6-0.3-1.4-9.2-1.8-11.1c-0.1-0.3-0.2-0.6-0.4-0.9
		c-0.5-0.5-1.4-0.4-2,0c-3.3,2-0.4,14.2-6.2,12.4c-1.5-0.5-2.5-2-2.7-3.6c-0.2-1.1-0.1-2.2-0.4-3.2c-0.3-1-1.2-2.1-2.3-2
		c-1.3,0.1-2,1.5-2.2,2.8c-0.2,1.3-0.2,2.6-1,3.6c-0.8,0.9-2.3,1.2-3.3,0.6c-1-0.6-1.4-1.7-1.7-2.8c-0.3-1.1-0.5-2.2-1.2-3.1
		c-0.7-0.9-2-1.4-2.9-0.8c-0.8,0.5-1,1.5-1.3,2.4c-0.3,0.9-1.1,1.8-2,1.5c-0.7-0.2-1-1-1.3-1.6c-0.2-0.4-0.6-0.7-1-0.8
		c1.2-7.8,2.1-15.6,2.5-23.4c0.1-1,0.1-2.1-0.7-2.7c-1.3-1.1-3.2,0.4-4,1.8c-1.9,3.4-2.2,7.3-2.3,11.1c0,3.2,0.8,7.3-0.8,10.2
		c-0.4,0.7-1.1,1.4-1.9,1.2c-1-0.3-0.8-1.7-0.7-2.7c0.5-2.8,0-5.9-1.5-8.3c-0.2-0.3-0.4-0.6-0.7-0.8c-0.8-0.5-1.9-0.1-2.5,0.6
		c-1.2,1.3-1.6,3.1-1.7,4.9c-0.1,1.8,0,3.6-0.6,5.2c-0.1,0.2-0.2,0.4-0.3,0.5c-0.4,0.3-1-0.1-1.2-0.6c-0.2-0.5-0.3-1-0.8-1.3
		c-0.5-0.3-1.3,0-1.6,0.5c-0.4,0.5-0.4,1.2-0.5,1.8c-0.1,1.3-0.2,2.5-0.3,3.8c0,0.1,0,0.3,0,0.4c-6.5-1.6-10.9-2.8-10.9-2.8
		s-34.9-29.1-49.4-45.5c-14.5-16.5-29.1-1-49.4,0c-20.3,1-75.6-59.1-84.3-59.1s-37.8,23.3-66.9,26.2c-24.7,2.5-32.6,15.4-50.4,24.6
		c-0.1-4.2-0.6-8.5-1.8-12.4c-0.3-0.8-0.6-1.6-1.3-2.1c-1.2-0.9-3-0.2-3.9,1.1c-0.8,1.2-0.9,2.8-0.9,4.3c0,1.5,0.2,3-0.4,4.4
		c-0.2,0.5-0.5,1-0.9,1.1c-1,0.4-1.9-0.7-2.4-1.7c-2-4.9-1.1-10.4-1.9-15.6c-0.1-0.9-0.4-1.9-1.1-2.6c-1.2-1.2-3.4-0.7-4.5,0.6
		s-1.5,3-1.7,4.7c-0.5,3.9-0.5,7.9-0.1,11.8c-1,0.6-2.2-0.6-2.4-1.8c-0.2-1.1-0.1-2.5-0.9-3.3c-1-1-2.9-0.4-3.7,0.9
		c-0.8,1.2-0.7,2.8-0.6,4.2c0.1,1.4,0.1,3-0.6,4.2c-0.2,0.3-0.4,0.6-0.8,0.7c-0.6,0.2-1.3-0.3-1.7-0.8c-3.4-4.1-1.7-10.1-1.7-15
		c0-6.2,0-12.5,0.1-18.7c0-3.3-0.1-6.9-2.2-9.3c-0.5-0.6-1.2-1.1-1.9-1.2c-2.2-0.3-3.4,2.6-3.8,4.8c-1.8,11.4-2.7,22.9-3,34.5
		c0,1.7-0.1,3.4-0.8,4.9c-0.7,1.5-2.3,2.7-4,2.4c-1.8-0.4-2.8-2.4-3-4.3c-0.2-1.9,0-3.8-0.6-5.6c-0.6-1.8-2.7-3.3-4.3-2.4
		c-1.4,0.7-1.7,2.6-1.7,4.3c-0.1,3.1-0.3,6.1-0.4,9.2c-0.1,2-0.6,4.5-2.6,4.8c-1.4,0.2-2.6-1-3.3-2.2c-2.7-4-4-9.3-3.1-14.1
		c0.9-4.8,0.8-9.3,0.2-14.2c-0.2-1.2-0.4-2.5-1.1-3.6c-0.7-1.1-1.9-1.9-3.1-1.7c-1.4,0.2-2.3,1.5-3,2.8c-3.5,6.7-3.5,14.5-3.4,22
		c0,3.4,0.1,6.7,0.1,10.1c-2.4-0.4-3.7-0.7-3.7-0.7V694h876.3L829.3,691z"/>
</g>
<g>
	<g>
		<path class="st8" d="M1062.2,157.9c3.6-5.9,0.7-11.8-15.8-4c14-6.1,2.9-10.9-2.1-11.5c0,0-0.1,0-0.1,0
			c29.4-22.5-50.4-45.3-40.4-2.7c-6.2-13-19.3-4.9-18.6,0.2c-0.7-19-51.8-17.5-22.4,11.7c-4.4-4.7-14.9-5.9-11.3,2.2
			c-4.8-2.3-15.8-6.1-12.5,7.8c-7.5-16.2-44.4-0.7-16.8,8.7c-8.2,3.3-0.3,3.6,7.2,4.9c-0.7,8.7,6.4,9.2,14.7,2.1
			c-3.8,9.4,78.4,16,86.7,4.7c3.6,8.1,34,6,30.8,1.3C1098.9,181.3,1081.4,151.1,1062.2,157.9z"/>
		<g>
			<path class="st9" d="M1082.8,166.6c3.3,15.1-17.4,18.4-21.4,9.8c-2.5,12.9-27.2,6.8-30.8-1.3c-15.5,20.5-86.9,8.7-86.7-4.7
				c-1.9,9.7-9,8.3-13.5,2.8c-2.1,1.9-13.2,2.8-4.8-4.9c-5.2,2.7-17.2-1.7-11.9-9.5c-5.9,5.5-1.7,10.8,8.4,11.6
				c-10.1,2.8-0.2,7,7.2,4.9c-4,8.2,7.9,11.7,14.7,2.1c-0.5,13.3,78.4,16,86.7,4.7c3.4,10.9,34,6,30.8,1.3
				C1078.2,186.7,1087.8,175.9,1082.8,166.6z"/>
		</g>
	</g>
	<g>
		<path class="st8" d="M347.8,197.7c8.5-1,19.1-14-3.7-12.1c4.7-2.6-0.4-5.6-3.6-3.8c19.8-11.5-6.4-21.4-17.1-16.5
			c1-9.2-12-12.9-22.5-13.9c-10.9-1.1-21.4,0.3-31.1,3.8c-8.8,3.2-19,10.5,4.5,21.1c-17.3-5.5-11.6,5.3-11.7,5.9
			c-25.6-19-44.7-1.8-35.7,4.2c-6.6-3.4-23.8-1-11.6,10.7c-33.4-16.3-33,8.7-28,12.6c9.6,7.5,24,7.2,36.4,4.3
			c24.3,12.2,81.9,3.5,90.5,0.8c0.3,0.1,17.7,7.3,23.3-2.5C371.6,230.4,406.9,199.5,347.8,197.7z"/>
		<path class="st9" d="M337.5,207.1c-5.1,14.3-23.3,7.4-23.9-2.1c-6.2,11.1-88.2,16.8-89.3-1c-7.5,6.3-38.3,11.9-39.2-4
			c-5,17.9,24.6,19.2,38.6,13.8c22,14.6,85.9,5.5,90.5,0.8c0.3,0.1,21.1,9.5,23.3-2.5c23,12.3,49.4,4.6,41.3-6.1
			C382.7,217,356,217,337.5,207.1z"/>
	</g>
</g>
</svg>
