<!-- Generator: Adobe Illustrator 21.1.0, SVG Export Plug-In  -->
<svg version="1.1"
	 xmlns="http://www.w3.org/2000/svg" xmlns:xlink="http://www.w3.org/1999/xlink" xmlns:a="http://ns.adobe.com/AdobeSVGViewerExtensions/3.0/"
	 x="0px" y="0px" width="82.3px" height="82.3px" viewBox="0 0 82.3 82.3" style="enable-background:new 0 0 82.3 82.3;"
	 xml:space="preserve">
<style type="text/css">
	.st0{fill:#BE1E2D;}
	.st1{fill:none;stroke:#BE1E2D;stroke-width:7;stroke-miterlimit:10;}
</style>
<defs>
</defs>
<path class="st0" d="M51.2,54.8c0.2-0.2,0.4-0.4,0.6-0.6c2.9-3,1.8-7.8,0.1-11.1c-1.7-3.2-5.9-3.6-8.9-2.9c-0.1,0-0.3,0.1-0.4,0.1
	c-1.4-2.2-2.7-4.4-3.9-6.7c0.1-0.1,0.1-0.2,0.2-0.3c1.4-2.3,1.7-5.3,2.2-7.9c1-4.9-1.3-10.6-5.8-12.9c-4.1-2.1-6.5,1.6-7.2,5.3
	c-0.9,5.3,4.8,8.7,6.8,13c0.1,0.1,0.1,0.3,0.2,0.4c-0.1,0.2-0.2,0.3-0.3,0.5c-2.8,4.6-4.7,8.3-5.2,13.8c-0.7,7.6,5.9,13.1,13,12.7
	c2.6-0.1,4.8-0.8,6.8-2.1c0,0.1,0.1,0.1,0.1,0.2c0.7,1.7,1.4,3.5,1.9,5.3c0.2,0.8,0.3,1.6,0.4,2.3c0.1,0.9,0.1,1.9-1.4,3
	c-0.8,0.2-1.4,0.3-2,0.2c0.8-0.7,1.1-1.9,0.6-3.1c-1-2.5-4.2-1.8-5.6-0.1c-1.9,2.4,1.2,4.9,3,5.8c3.1,1.5,6.1-0.7,7.3-3.4
	c1.4-3.1-1.2-8.1-2.3-10.9C51.4,55.3,51.3,55.1,51.2,54.8z M50.3,51.1c-0.1,0.4-0.3,0.8-0.5,1.1c-0.7-1.1-1.3-2.1-1.8-3.2
	c-0.9-2-2-3.6-3.1-5.4c0.5-0.1,1-0.1,1.6-0.1C49.3,43.8,50.9,48.7,50.3,51.1z M33.1,24.2c-0.4-0.6-0.9-1.7-1.4-2.2
	c-1.3-1.4-1.6-9.1,2.1-6.7C38,18,38,24.2,36.3,28.9C35.5,27.1,34.2,25.7,33.1,24.2z M46.3,54.9c-3.1,1.5-7.4,0.4-10-1.4
	c-3.1-2.1-2.8-6.9-2.2-10c0.6-3,1.9-5.4,3.4-7.8c1,1.9,2.1,3.7,3.3,5.6c-1.8,1.4-2.8,3.7-3.1,6.1c-0.4,3.1,3,6,5.9,6
	c0.8,0,0.8-1.4,0-1.5c-2.3-0.3-3.7-3.6-2.7-5.5c0.5-1,1.1-1.6,1.8-2.1c0.5,0.8,1.1,1.5,1.6,2.3c1.2,1.6,1.8,3.7,2.8,5.5
	c0.3,0.6,0.7,1.1,1,1.7C47.6,54.2,46.9,54.6,46.3,54.9z"/>
<circle class="st1" cx="41.1" cy="41.1" r="37.6"/>
<line class="st1" x1="70" y1="17" x2="13.9" y2="67.2"/>
</svg>
