<!-- Generator: Adobe Illustrator 21.1.0, SVG Export Plug-In  -->
<svg version="1.1"
	 xmlns="http://www.w3.org/2000/svg" xmlns:xlink="http://www.w3.org/1999/xlink" xmlns:a="http://ns.adobe.com/AdobeSVGViewerExtensions/3.0/"
	 x="0px" y="0px" width="341.2px" height="379.2px" viewBox="0 0 341.2 379.2" style="enable-background:new 0 0 341.2 379.2;"
	 xml:space="preserve">
<style type="text/css">
	.st0{fill:#F6F7FC;}
	.st1{fill:#D1D3D4;}
	.st2{fill:#9E6E54;}
	.st3{fill:#C98A5B;}
	.st4{fill:#BF835A;}
	.st5{clip-path:url(#SVGID_2_);fill:#AD7957;}
	.st6{fill:#AD7957;}
	.st7{fill:#DB9E75;}
	.st8{fill:#263669;}
	.st9{fill:#010101;}
	.st10{fill:#3C2415;}
	.st11{fill:#231F20;}
	.st12{fill:#FFFFFF;}
	.st13{fill:none;stroke:#231F20;stroke-miterlimit:10;}
	.st14{fill:none;}
	.st15{fill:#231F20;stroke:#231F20;stroke-miterlimit:10;}
	.st16{fill:#9C0C0E;}
	.st17{fill:#BE1E2D;}
	.st18{fill:#9D5908;}
	.st19{fill:#F5A40B;}
	.st20{fill:#27AAE1;}
	.st21{fill:#00AEEF;}
	.st22{fill:#5A6675;}
	.st23{fill:#203142;}
	.st24{fill:#2B415B;}
	.st25{fill:#738093;}
	.st26{fill:#E6E7E8;}
	.st27{fill:#213162;}
	.st28{fill:#2F1A0A;}
	.st29{clip-path:url(#SVGID_4_);fill:#AD7957;}
</style>
<defs>
</defs>
<g>
	<path class="st0" d="M207.7,149.9c0.7-1-2.3-5.5-3.1-12.5c-1.1-9.3,1.4-21.6,1.4-21.6s-10.1,7.3-16.3,18.3
		c0.8,5.1,1.4,9.9,1.1,11.9c-0.7,5-1.4,26.6-1.4,32.4c0,5.8,2.4,33.2,0.7,43.2c-1.1,6.8-2.7,25.8-3.6,37.2l17.3-0.5
		c0,0,0.7-23.8,2.2-40.3c1.4-16.6,2.2-33.8,1.4-44.6C206.8,162.7,203.9,155.3,207.7,149.9z"/>
	<path class="st1" d="M189.5,178.5c0-5.8,0.7-27.4,1.4-32.4c0.3-2-0.3-6.8-1.1-11.9c-2.7,4.8-4.6,10.3-4.6,16.2
		c0,10.8-4.3,55.4-3.6,67.7c0.7,12.2,0.7,12.2-1.4,23c-2.2,10.8-3.6,18-3.6,18l10.1-0.3c0.9-11.4,2.5-30.3,3.6-37.2
		C191.8,211.7,189.5,184.3,189.5,178.5z"/>
	<path class="st2" d="M68.8,188.1c7.2,1.5,12.9,0.5,16.1-0.4l-0.3-6.8l-24.3-8.6c0,0,0,4.6-0.2,8.4
		C61.8,184.1,64.4,187.2,68.8,188.1z"/>
	<path class="st3" d="M250.8,101.8l9.7,41c0,0-26.4,4.1-27.8-6.1l-3.5-34.6"/>
	<path class="st4" d="M51.7,138.6c0.4-2.5,0.8-16.6,1-27.8c-1.1,1.7-2.1,3.6-3,5.6c-4.7,10.7-3.3,21-3.3,21
		c-3.4,17.8,4.3,27.2,6.4,33.3c0.9,2.5,2.6,4.9,5.1,7c-0.8-3.7-2.1-9.5-3.6-14.4C51.9,155.2,51,142.9,51.7,138.6z"/>
	<path class="st4" d="M116.7,149c-0.6-2.2,1.1-7.2,1.1-7.2s0.6-2.4,0.7-7.6c-2.4,4.7-3.8,13.4-4.4,16c-1.2,5-1.9,10-7.4,22
		c-1.9,4.2-6.7,9.7-7.3,11.6c0.9-0.3,1.7-0.7,2.4-1.1c5.3-3,10.4-12.3,10.6-17.3C112.6,160.3,118.2,154.9,116.7,149z"/>
	<path class="st3" d="M114.2,150.2c0.6-2.6,2-11.3,4.4-16c0.1-3.8,0-9.1-0.7-16.1c-1.7-16.7-23.3-17.5-40.3-17.6
		c-13.6-0.1-20.4,3.4-24.9,10.3c-0.2,11.2-0.6,25.3-1,27.8c-0.7,4.3,0.3,16.6,2.6,24.7c1.5,4.9,2.8,10.7,3.6,14.4
		c3.6,3.1,8.6,5.7,14.5,7.4c8.6,2.4,20.7,1,27.1-1.3c0.6-1.9,5.4-7.4,7.3-11.6C112.3,160.1,113,155.1,114.2,150.2z"/>
	<path class="st3" d="M47.7,147.8c0,0,0.6-3.3-1.4-5.3c-1.1-1.1-0.1-3.1-2.4-3.3s-3.9,0.6-4.4,3c-0.5,2.4-1.2,3.8,0.3,5.6
		c1.4,1.8,5.5,5.9,6.6,6.3s2,0.8,2,0.8L47.7,147.8z"/>
	<g>
		<defs>
			<path id="SVGID_1_" d="M44.8,146c0,0,0.9-2.7-1.2-2.6c-2.1,0.1-2.6,3.6-0.1,6.3c0,0-4.6-2.9-3-6.7C42.1,139.1,47.4,142,44.8,146z
				"/>
		</defs>
		<use xlink:href="#SVGID_1_"  style="overflow:visible;fill:#AD7957;"/>
		<clipPath id="SVGID_2_">
			<use xlink:href="#SVGID_1_"  style="overflow:visible;"/>
		</clipPath>
		<path class="st5" d="M47.2,154.8c-1.2-0.8-3-2.2-5-4.1c-3.4-3.3-3.3-5.5-2.6-9.5c0.5-3,4.4-2.3,6.3-1.7c0.4,1.5,0.7,2.5,0.7,2.5
			S47,149,47.2,154.8z"/>
	</g>
	<g>
		<path class="st3" d="M102.9,159.4"/>
		<path class="st6" d="M103.4,155.5c0,0,4.1,5.7,5.9,5.7c1.8,0,2.5,3.7,1.8,4.9c-0.7,1.2-4.6,2.3-4.6,2.3s4.2-2.4,2.2-4.5
			c-2-2-3.5-1.5-4.4-3.5S103.4,155.5,103.4,155.5z"/>
		<path class="st2" d="M103.5,151.4c0,0-1.5,4.4,0,7c1.4,2.6,0.8,3.3,2.4,4.2c1.6,0.8,2.8-0.5,2.8,1.3s-2.5,4.1-3.6,3.9
			c-1.1-0.2-3.1-1.4-4.8-0.9s-3.5-1.5-3.5-1.5s1.4,3.7,2.8,3.6s2.2-0.6,4.1-0.2c1.9,0.4,5.5-1.4,5.9-3.1c0.4-1.7-1.4-3.7-3.4-4.6
			S104.3,158.4,103.5,151.4z"/>
		<path class="st7" d="M101.2,158.1c0,0,0,4.7,2.3,4.6c0,0-0.3,1.5-2.1,1.1C99.8,163.4,101.2,158.1,101.2,158.1z"/>
	</g>
	<path class="st6" d="M238.6,114c4.8-1.6,11.3-8.7,13.4-9.5c-0.8-3-2.2-6.4-2.2-6.4c-9,9.8-21.1,1.7-21.1,1.7l1.8,10.9
		C230.5,110.7,233.8,115.6,238.6,114z"/>
	<path class="st8" d="M258,119.1l-13.1,22c0,0-8.7-30.3-14.4-30.3s-25.9-0.6-28.8,11.6s5.8,20.9,9.4,33.8c3.6,13,14.4,77,17.3,84.2
		c2.9,7.2-6.5,14.4,0,17.3s7.9-5,17.3-5c9.4,0,8.6,6.5,20.9,5c12.2-1.4,27.4-10.1,38.2-8.6s22.3-2.9,20.9-10.1
		c-1.4-7.2-19.3-123.9-30.8-135.4s-27.4-1.6-31,1.3C260.1,107.7,258,119.1,258,119.1z"/>
	<path class="st1" d="M318.4,281.5c0,0,7.2-19.4,5.8-31l-1.4-6.5l-10.1,2.9L318.4,281.5z"/>
	<path class="st9" d="M260,260.6c0,0,11.5-2.9,13.7,4.3c2.2,7.2,13.7,56.9,14.4,63.4c0.7,6.5,0.7,17.3-6.5,14.4
		c-7.2-2.9-10.8-10.8-13.7-23c-2.9-12.2-2.9-23-6.5-25.2c-3.6-2.2-5.8-6.5-5.8-6.5L260,260.6z"/>
	<path class="st9" d="M293.2,318.2c0,0-2.2,19.4,3.6,30.2c5.8,10.8,23.8,34.6,30.2,30.2c6.5-4.3,18,0,13-15.8s-10.1-19.4-15.1-28.1
		s-6.5-21.6-6.5-21.6L293.2,318.2z"/>
	<path class="st10" d="M91.4,127.2l3.4,8.8l3.5-9.6l2.1,4.3l4.2-1.5c0,0,4.2,10,4.2,7.6c0-2.4,2.5-8.7,2.9-5.7
		c0.3,3,4.1,5.4,4.1,5.4s5.9-8.5,2.3-26.1S96.7,91.9,80.2,91.5c-16.5-0.4-16.7,2-16.7,2c0.1-5.9,4.9-3.3,4.9-3.3s-0.5-4.4-4-2.5
		c-3.5,1.9-2.2,5-2.2,5s-1-3.7-3.2-3.4c-2.8,0.4-3.3,2.2-3.3,2.2c4.3-1.2,5.2,3.2,5.2,3.2s-2.9,2.2-5,4.3c-2.1,2.1-8.6,12-9.9,19.6
		c-1.4,7.5-2.8,17.5-0.6,23.2c0,0,0.7-7.8,1.4-5s1.3,2,1.3,2s0.3-9.8,1-7.6c0.6,2.2,2.6,3.9,2.6,3.9l0.7-6c0,0,0.2-1,1.3,2.9
		c1.2,3.9,1.8-4.3,2.2-1.5c0.4,2.7,1.3,8,2.4,5.2c1-2.8,1.2-7.6,2.1-4.5c0.9,3.1,2,2.2,2.7-0.7c0.6-2.8,2.3-7.1,3-3
		c0.7,4.1,1.7,8.3,2.4,4.9c0.7-3.4,1-8.9,1.7-4.8s0.8,8.7,2.4,4.9s2.6-6.8,3.2-3.8c0.5,3-0.8,8.7,1.3,5.6c2.1-3.2,2.4-9.3,3-4.3
		s1,7.6,1.9,4.6c0.9-3.1,2.5-8.2,2.3-3.6c-0.1,4.5,1.8,7.5,2.1,4.3c0.3-3.2-0.2-10.5,1.3-5.7c1.4,4.8,1.7,8,2.5,4.4
		S91.4,127.2,91.4,127.2z"/>
	<g>
		
			<ellipse transform="matrix(0.1546 -0.988 0.988 0.1546 -75.8998 207.8467)" class="st10" cx="83.5" cy="148.3" rx="2.2" ry="2.2"/>
		
			<ellipse transform="matrix(0.1546 -0.988 0.988 0.1546 -75.8998 207.8467)" class="st11" cx="83.5" cy="148.3" rx="1.6" ry="1.6"/>
		<ellipse transform="matrix(0.1546 -0.988 0.988 0.1546 -74.693 208.5511)" class="st12" cx="84.5" cy="147.9" rx="0.6" ry="0.6"/>
	</g>
	<g>
		
			<ellipse transform="matrix(0.1546 -0.988 0.988 0.1546 -52.2766 236.0879)" class="st10" cx="111.8" cy="148.6" rx="2.2" ry="2.2"/>
		
			<ellipse transform="matrix(0.1546 -0.988 0.988 0.1546 -52.2766 236.0879)" class="st11" cx="111.8" cy="148.6" rx="1.6" ry="1.6"/>
		
			<ellipse transform="matrix(0.1546 -0.988 0.988 0.1546 -51.0698 236.7923)" class="st12" cx="112.8" cy="148.2" rx="0.6" ry="0.6"/>
	</g>
	<path class="st13" d="M87,189.6"/>
	<path class="st14" d="M48.2,228c-0.4,1.9-0.5,8.1,0.4,12c0.2-7.1,0.5-13.6,0.5-14.3C49.1,224.1,48.7,225.3,48.2,228z"/>
	<path class="st14" d="M48.6,240c0,0.1,0,0.2,0,0.2l-0.2,5.8l0.4-5.3C48.7,240.5,48.6,240.2,48.6,240z"/>
	<path class="st4" d="M92.7,198.2c5.8,0,13.3,0.7,16.2,8.3c2.9,7.6,6.8,23.4,7.2,26.6c0.4,3.2,7.9,41,9.7,42.8
		c0.5,0.5,1.7,0.9,3.2,1.1c-0.9-1.7-1.3-4.4-2.3-8.7c-2.2-8.6-10.2-44.2-14-59.9c-3.8-15.6-20.5-13.5-22.7-14
		c-1.5-0.4-3.3-1.3-4.2-1.8l-1,1.3C84.8,193.9,87,198.2,92.7,198.2z"/>
	<path class="st4" d="M120.4,280.9c-0.4-3.6-1.4-11.5-2.9-17.6c-1.3-5.6-10.1-24.8-11.5-32.4c-1.4-7.6-3.2-12.6-5.4-14
		c-0.9-0.6-1.1,0.7-0.9,2.5c1,0.6,3.2,4.5,3.2,9.1c0,5.9,11,32.5,12.4,36c1.8,4.3,2.9,16.5,2.9,16.5c-1.6,2.2-5,5.8-4.5,7.4
		c0.3,0.8,1.9,0.4,4.2-0.3C119.4,285.6,120.7,283.1,120.4,280.9z"/>
	<path class="st14" d="M48.8,240.7c-0.1-0.2-0.1-0.5-0.2-0.7c0,0.1,0,0.2,0,0.2l0,1.2c0,0.2,0.1,0.3,0.1,0.5L48.8,240.7z"/>
	<path class="st14" d="M48.5,241.4l-0.1,4.6l0.3-4.1C48.6,241.8,48.6,241.6,48.5,241.4z"/>
	<path class="st3" d="M48.7,241.9l-0.3,4.1L48,257.4c1.1,0.3,2.1,0.5,2.9,0.7c-0.8-0.2-1.8-0.4-2.9-0.7l-0.1,1.8
		c0,3.2,2.2,7.6,5.9,13.5c3.8,5.9,11.3,8.1,19.4,8.6c8.1,0.5,17.8-1.1,22.1-6.5c4.3-5.4,5.9-14,5.4-20.5s-1.6-32.4-1.6-34.5
		c0-0.5,0.2-0.6,0.5-0.4c-0.2-1.7,0-3.1,0.9-2.5c2.2,1.4,4,6.5,5.4,14c1.4,7.6,10.2,26.7,11.5,32.4c1.4,6.1,2.5,14,2.9,17.6
		c0.2,2.2-1.1,4.7-2.4,7.1c2.4-0.7,5.4-1.9,8.2-2.4c5.4-1.1,14.6,2.7,20,1.6c5.4-1.1-5.9-7-11.9-7.6c-3-0.3-4.3-1-5.2-2.7
		c-1.5-0.3-2.7-0.6-3.2-1.1c-1.8-1.8-9.3-39.5-9.7-42.8c-0.4-3.2-4.3-19.1-7.2-26.6c-2.9-7.6-10.4-8.3-16.2-8.3
		c-5.8,0-7.9-4.3-7.9-4.3l1-1.3c-0.4-0.2-0.6-0.3-0.6-0.3l-0.2-4.5c-3.2,0.9-9,1.9-16.1,0.4c-4.4-0.9-7-4-8.6-7.4
		c-0.1,1.7-0.2,3.2-0.4,4c-0.5,2.7-2.7,4.9-8.1,5.9c-5.4,1.1-15.1,8.6-17.3,14c-0.2,0.6-0.5,1.3-0.7,2.1c1.6,16.1,4.6,44.2,5.4,46.5
		c0.5,1.5,4.8,3.1,8.4,4.1l0.8-11.2l0.1-4.6c-1.2-4.2-2.8-10.6-2.3-13.1c0.8-3.6,2.2-5.2,2.4-4.9c0.2,0.3,0.2,1.3,0.2,1.6
		c0.1-0.2,0.2-0.1,0.2,0.6c0,0.7-0.2,7.2-0.5,14.3c0.1,0.2,0.1,0.5,0.2,0.7L48.7,241.9"/>
	<path class="st2" d="M48.8,240.7c-0.9-3.9-1-10.8-0.6-12.7c0.3-1.6,0.6-2.6,0.7-3c0-0.3,0-1.3-0.2-1.6c-0.3-0.4-1.6,1.3-2.4,4.9
		c-0.6,2.5,1.1,11.2,2.3,15.4l0.2-2.7C48.8,240.8,48.8,240.8,48.8,240.7z"/>
	<path class="st2" d="M106.8,249.2c2.3-1.1,3.8-3.4,4.7-5.8c-0.1,0.2-0.3,0.4-0.4,0.6c-1.6,2.7-10.8,3.8-13.5,3.2
		c-0.3-0.1-0.5-0.2-0.6-0.4C95.3,250,102.4,251.3,106.8,249.2z"/>
	<path class="st3" d="M83.4,256.4c2.9,1.1,9.7,2.2,15.8,2.5c6.1,0.4,15.1-0.7,16.5-4c1.1-2.6,1.8-8.1,1.2-13c-1.6-1.7-4-0.6-5.5,1.5
		c-0.9,2.3-2.4,4.7-4.7,5.8c-4.3,2-11.5,0.8-9.8-2.4c-0.5-1.4,4.5-5.5,4.9-8.8c0.1-0.9-0.2-1.1-0.9-0.9c-0.5,1.2-1.5,2.7-3.2,4.5
		c-5.8,6.1-7.6,5.7-19.4,4.9c-12-0.9-22.1,0-25.7-1.4c-2-0.8-3.3-1.7-4.1-2l-0.9,14.5c1.5,0.2,3.2,0.3,4.9,0.3
		C58.9,257.9,80.5,255.3,83.4,256.4z"/>
	<path class="st4" d="M117.6,242.9c-0.2-0.4-0.4-0.7-0.6-1c0.7,4.9,0,10.4-1.2,13c-1.4,3.2-10.4,4.3-16.5,4
		c-6.1-0.4-12.9-1.4-15.8-2.5c-2.9-1.1-24.4,1.4-30.9,1.4c-1.7,0-3.4-0.1-4.9-0.3l-0.1,1.9c8.7,0.4,22.6-0.1,27-0.9
		c5.9-1.1,9.7,0.5,15.1,2.2c5.4,1.6,24.8-2.2,27.5-3.8C119.7,255.3,119.2,246.2,117.6,242.9z"/>
	<path class="st3" d="M47.6,257.3c0.1,0,0.3,0.1,0.4,0.1l0.4-11.4L47.6,257.3z"/>
	<path class="st4" d="M39.2,253.2c-0.8-2.3-3.7-30.4-5.4-46.5c-1.8,6.6-3.2,20.2-0.8,30.3c2.7,11.3,3.8,20,7.6,21.6
		c1,0.4,3.6,0.7,6.8,0.9l0.2-2.2C44,256.3,39.7,254.7,39.2,253.2z"/>
	<path class="st2" d="M78.4,246.5c11.8,0.9,13.7,1.3,19.4-4.9c1.7-1.8,2.6-3.3,3.2-4.5c-2.3,0.7-8.3,6.1-12,7.3
		c-4.9,1.6-10.8,0.5-17.8,0c-7-0.5-18.2-0.4-20.9-1.4c-0.7-0.3-1.2-1.2-1.6-2.4l-0.2,3c0.8,0.4,2.1,0.6,4.1,1.4
		C56.3,246.5,66.3,245.6,78.4,246.5z"/>
	<path class="st12" d="M89.2,176.9c0,0,1.5-0.4,4.2-0.3c2.7,0.1,4.9,0.9,4.9,0.9s-3.5-0.7-5-0.1C91.8,178,89.2,176.9,89.2,176.9z"/>
	<path class="st6" d="M92.2,142.5c0,0,3,0,4.9,0.8c1.9,0.8,3.2,0.6,4.3,0.6s4.3-0.6,4.3-0.6s-3.2,1.7-5.1,1.7s-2.7,0.4-4.9-0.6
		C93.6,143.5,92.2,142.5,92.2,142.5z"/>
	<path class="st6" d="M92.7,139c0,0,3,0,4.9,0.8c1.9,0.8,3.2,0.6,4.3,0.6s4.3-0.6,4.3-0.6s-3.2,1.7-5.1,1.7c-1.9,0-2.7,0.4-4.9-0.6
		C94.1,140,92.7,139,92.7,139z"/>
	<g>
		<path class="st15" d="M86.5,127.1c2.7,1.1,1.6-0.3,2.9-1.2c1.3-0.9,1.8,1.4,3.2,0.5c1.5-0.9,1.5,0.1,3.4,0.5
			c1.9,0.4,2.1-0.6,3-0.3c0.8,0.3,1.4,0.1,4-0.5c2.6-0.6,2.4,2,6,2.4c3.6,0.3,6.2,0.8,7.4,0.9c0.5,0,1.8-0.1,3-0.3
			c0,0,0.1,0.1,0.1,0.1c0.6,0.9,0.3,1-0.5,1.6c0,0-0.5,0-1.4,0.3c-0.9,0.3-1.6,0.5-2.5,1c-0.9,0.5-3.1-0.5-4.7-1
			c-1.7-0.6-5.4-1.7-7.3-1.3c-1.9,0.4-2.8,0.2-5.5-0.1c-2.7-0.2-3.1-0.7-5.6-0.9c-2.6-0.2-4.6,1.2-5.7,0.1c-1.1-1.1-4,0.3-5.9,0.3
			c-0.5,0-0.8-0.1-1.1-0.2c0.2-0.2,0.3-0.3,0.5-0.5c0.9-0.9,0.3-1.8,0.8-2.8c0,0,0,0,0,0c0.6-0.1,1.1-0.1,1.6-0.2
			C83.6,125.2,83.8,126.1,86.5,127.1z"/>
		<g>
			<path class="st15" d="M78.4,127c-2.7,0.9-1.6-0.3-2.8-1.3c-1.3-1-1.8,1.3-3.3,0.4c-1.4-0.9-1.5,0.1-3.4,0.4s-2.1-0.7-3-0.5
				s-1.4,0.1-4-0.6c-2.6-0.7-2.5,1.9-6.1,2.1s-6.2,0.5-7.4,0.6c-0.5,0-1.8-0.2-3-0.4c0,0-0.1,0.1-0.1,0.1c-0.6,0.8-0.3,1,0.4,1.6
				c0,0,0.5,0,1.4,0.3c0.9,0.4,1.6,0.5,2.5,1.1s3.1-0.3,4.8-0.8c1.7-0.5,5.4-1.5,7.4-1s2.8,0.3,5.5,0.1s3.1-0.6,5.7-0.7
				c2.6-0.1,4.5,1.4,5.7,0.3s4,0.4,5.9,0.5c0.5,0,0.8,0,1.1-0.2c-0.2-0.2-0.3-0.3-0.4-0.5c-0.9-1-0.3-1.8-0.7-2.8c0,0,0,0,0,0
				c-0.6-0.1-1.1-0.2-1.6-0.3C81.4,125.2,81.1,126,78.4,127z"/>
			<g>
				<path class="st14" d="M79.2,113.8C79.2,113.7,79.2,113.7,79.2,113.8C79.2,114,79.2,114,79.2,113.8z"/>
				<path class="st14" d="M79.2,113.4l0,0.3c0,0,0,0,0,0.1C79.2,113.7,79.2,113.6,79.2,113.4z"/>
				<path class="st16" d="M84.2,121.4c0.8-1.7,0,0-0.2-3.4c-0.2-3.4-1.1-1.4-2.5-1.9c-1.2-0.5-2.1-1.9-2.3-2.3c0,0.2,0,0.3,0-0.1
					c-0.2-1.4-1.8-2.6-2.2-2.1c-0.3,0.4,1.1,4.8,0.7,3.6c-0.4-1.2-1.3-1.4-1,0.5s-1.8,1.5-2.6,0.5c-0.7-1-1.2-3.2-2.1-4.6
					s0,3.9-0.7,3.9s-1.2-3.2-1.9-4.6c-0.8-1.4-0.8,4.3-1.6,2.3c-0.8-2-1.6-1.8-2.1,0.1s-2,2.1-2.7,0.5s-1.5-2-2.3-1.9
					s-1.2,3.1-1.6,1.7c-0.4-1.4-0.5-2.2-0.7-1c-0.3,1.2-0.9,2.1-1.3,0.9c-0.4-1.2,0.7-3.5,0.7-3.5l-1.8,1.7c0,0,0.9-2.9-0.1-1.8
					s-1.7,3.1-1.7,3.1s0.2-2-0.6-1.2s-2,1.5-2,1.5l0.2-2c0,0-1.3,0.7-2.6,2.6c-1.3,1.9-1.6,2.1-2.2,1.5c0,0-1.7,1.1-1.6,3.1
					c0.1,2,0.6,4.4-0.2,3.7c-0.7-0.8-1.3-3-1.3-3s0.5,3.6,0.9,4.6c0.2,0.5,0.4,1.4,0.5,2.3c0.1,0,0.3,0.1,0.5,0.1
					c1.2,0.3,0.5,0.6-0.2,1.3c1.2,0.2,2.5,0.4,3,0.4c1.2-0.1,3.8-0.4,7.4-0.6s3.5-2.8,6.1-2.1c2.6,0.7,3.1,0.9,4,0.6s1.1,0.8,3,0.5
					s2-1.3,3.4-0.4c1.4,0.9,2-1.3,3.3-0.4c1.3,1,0.1,2.2,2.8,1.3c2.7-0.9,3-1.7,4.5-1.5l0-1.4C82.9,124.1,83.4,123.1,84.2,121.4z"/>
				<path class="st16" d="M83.5,129.4c0.3,0,0.4-0.1,0.5-0.1c-1.9-0.3-4.3-1.4-5.3-0.5c-1.2,1.1-3.1-0.5-5.7-0.3
					c-1.3,0.1-2,0.2-2.7,0.3c-0.1,0.3-0.2,0.6-0.3,0.9c-0.3,1-0.2,1.2-0.4,1.5c-0.2,0.3-0.2-1.2-0.4-0.9s-0.6,1.6-0.6,0.8
					c0-0.7-0.1-1.1-0.1-1.1s-0.8,1.7-0.7,0.7c0-0.9-0.4-0.7-0.7-0.5c-0.3,0.2-0.3,1.9-0.9,2.7c-0.6,0.6,0.2-2.2,0.6-3.9
					c-2.4,0.1-3.2,0.3-5-0.2c-1.9-0.5-5.7,0.5-7.4,1c-1.7,0.5-3.9,1.4-4.8,0.8s-1.6-0.7-2.5-1.1c-0.9-0.4-1.4-0.3-1.4-0.3
					c0.2,0.1,0.1,0.2,0,0.4c0,0.5,0,1.6-0.1,2.3c-0.1,1,0.2,1.2,1.9,3.2c1.6,2,1.4,0.7,2.2,1.9c0.7,1.2,1.8,2.4,2.5,1.5
					c0.6-0.8,0.1-1.2,1.3-1.3c0.5,0,1.1,0.8,1.6,1.7c0.4-1.1,0.6,0.4,3,0.7c2.6,0.3,3.9-0.4,6.3-1.1c2.4-0.7,4.1-0.8,5.9,0.1
					c1.8,0.9,3.7,1.3,6.1,1.7c0.4,0.1,0.7,0.2,1,0.3c0.5-0.3,1-0.7,1.5-1c3.5-2.2,4-3,4.1-4.5c0.1-1.4,1.3-1.3,0.9-3.3
					C83.6,130,82.5,129.4,83.5,129.4z"/>
				<path class="st17" d="M66.2,133c0.7-0.7,0.6-2.5,0.9-2.7c0.3-0.2,0.8-0.4,0.7,0.5c0,0.9,0.7-0.7,0.7-0.7s0,0.4,0.1,1.1
					c0,0.7,0.5-0.5,0.6-0.8s0.2,1.2,0.4,0.9c0.2-0.3,0.1-0.5,0.4-1.5c0.1-0.3,0.2-0.6,0.3-0.9c-0.8,0.1-1.5,0.3-3,0.4
					c-0.2,0-0.3,0-0.5,0C66.4,130.8,65.6,133.7,66.2,133z"/>
				<path class="st17" d="M55.2,132.6c0,0,0.9-1.4,0.9-0.5s0.5,0.5,0.9,0.1c0.3-0.4,0.6-0.2,0.7,0.3s0.4-0.2,0.9-0.1
					c0.5,0.1,0.7-0.2,0.7,0.7s0.3,2-0.1,2c-0.3,0-0.3-1.5-0.6-0.9c-0.3,0.6-0.4,1.4-0.9,0.7c-0.6-0.8-1.1-1.4-1.3-0.8
					c-0.2,0.6-0.1-1.3-0.5-0.8C55.6,133.8,55.2,132.6,55.2,132.6z"/>
				<path class="st17" d="M49.7,132.6c0,0-0.8,1,0.5,1.7c1.3,0.7,0-1.7,0.2-1.1c0.2,0.6,0.6,2.6,1.1,1.8c0.5-0.8,0-2.3,0.1-2.1
					c0.2,0.3,0.4-0.6,0.9,0.1c0.5,0.6,0.4-1.7,0.8-0.8s0.9,1.3,1,0.3c0.1-0.9-0.4-1.6-0.8-1.2c-0.4,0.4-0.8,0.8-1.1,0.4
					s-1.3-0.2-1.2,0.3c0,0.6-0.7-0.6-0.9-0.1C50.2,132.6,49.9,132.1,49.7,132.6z"/>
				<path class="st18" d="M45.4,133.8c-0.4-0.9-1-0.6-2-1.2c-0.4-0.2-0.5-0.6-0.5-1c-0.1,0.1-0.1,0.1-0.1,0.2
					c-0.8,1.3-0.6,1,0.3,2.4c0.9,1.4,1,2.8,1.1,1.2s0.6-1.5,1.1,0.4c0.3,1.4,0.9,2.2,1.5,2.1c-0.2-0.7-0.4-1.4-0.7-1.7
					C45.3,135.4,45.8,134.7,45.4,133.8z"/>
				<path class="st19" d="M53.6,137.3c-1.2,0.1-0.7,0.4-1.3,1.3c-0.6,0.8-1.7-0.3-2.5-1.5c-0.7-1.2-0.5,0-2.2-1.9
					c-1.6-2-2-2.1-1.9-3.2c0.1-0.7,0.1-1.7,0.1-2.3c-0.4,0.4-2.1,0.9-2.9,1.8c0,0.4,0.2,0.8,0.5,1c1,0.6,1.6,0.3,2,1.2
					c0.4,0.9-0.1,1.6,0.6,2.2c0.3,0.3,0.5,1,0.7,1.7c0.2,0,0.3-0.1,0.5-0.3c0.8-0.9,0.9,1.8,1.6,3.8c0.6,2,1.2-0.1,1.1-2.5
					c-0.1-2.4,2.2,1.7,3.9,2.9c1.8,1.1,0.7-0.2,1.3-2.1c0.1-0.2,0.1-0.3,0.2-0.4C54.7,138.1,54,137.3,53.6,137.3z"/>
				<path class="st18" d="M42.8,123c-0.5-1.7-0.3-2.8,0.1-3.9c0.2-0.5,0.3-1.4,0.3-2.4c-0.3,0.7-0.7,1.7-1.2,3.7
					c-0.7,2.5,0.2,4,1.1,4.8C43.2,124.6,43.1,123.8,42.8,123z"/>
				<path class="st19" d="M47.4,112.8c0,0-0.7,0-2.3,1.7c-0.9,0.9-1.4,1.3-1.8,2.2c0,1-0.1,1.9-0.3,2.4c-0.4,1.1-0.6,2.3-0.1,3.9
					c0.2,0.8,0.3,1.6,0.3,2.2c0.6,0.6,1.2,0.8,1.2,0.8s0,0,0.7,0.2c-0.1-0.8-0.3-1.8-0.5-2.3c-0.4-1-0.9-4.6-0.9-4.6s0.6,2.2,1.3,3
					c0.7,0.8,0.3-1.6,0.2-3.7c-0.1-2,1.6-3.1,1.6-3.1C46.3,114.9,47.4,112.8,47.4,112.8z"/>
				<path class="st17" d="M49.9,119.2c0,0-0.2-1.5,1.1-3c1.3-1.5,1.4-1.4,1-0.5c-0.4,0.9-1.5,3.4-0.6,2.3c0.9-1.2,1.6-2.6,1.3-1.5
					c-0.3,1.1-1.2,1.2-1.2,2.6s-0.9,0.3-0.9-0.3c0.1-0.6,0.1-0.6,0.1-0.6S50.1,121,49.9,119.2z"/>
				<path class="st17" d="M50.6,124.5c-0.1-1.4,0.2-1.7,0.7-2.8c0.6-1,1.1-1.5,1.1-1.5s-1.3,1.7-1,3.2c0.3,1.5-0.3,1.8-0.3,1.8
					L50.6,124.5z"/>
				<path class="st17" d="M75.4,121.3c0,0-1.1,3.3-0.5,2.9c0.7-0.4,1-1.7,1.1-3.2c0.1-1.5-1.1-2.5-0.8-1.8c0.3,0.7-0.2,2.1-0.2,2.1
					S74.5,122.1,75.4,121.3z"/>
				<path class="st17" d="M62.7,117.2c-0.1-0.4-0.1-1.4,0.6-0.6c0.6,0.8,0.5-1.2,0.9-0.5c0.4,0.8,1.2,1.2,1.1,0.4
					c0-0.8,0.1-1.6,0.5-0.8c0.4,0.8,0.7-0.1,0.5-0.8c-0.2-0.7-0.2-1.8,0.4-0.8c0.6,1,0.7,1.1,1,2.2c0.2,1.1,0.2,3.3-0.3,2
					c-0.5-1.3-1-2-1.1-1c0,1,0.1,2.6-0.6,1.5c-0.7-1.2-1.2-1.6-1.2-0.9c-0.1,0.7-1-1.2-1-0.2S62.7,117.2,62.7,117.2z"/>
				<path class="st16" d="M81,121.3c-0.7-1.7,0,0,0.3-3.4c0.3-3.4,1.1-1.3,2.6-1.8c1.3-0.4,2.2-1.8,2.4-2.2c0,0.2,0,0.3,0-0.1
					c0.3-1.4,1.9-2.5,2.2-2.1s-1.3,4.8-0.8,3.6c0.4-1.2,1.3-1.3,1,0.5s1.8,1.6,2.5,0.6s1.3-3.2,2.3-4.5c1-1.3-0.2,3.9,0.5,3.9
					s1.3-3.2,2.1-4.5c0.8-1.4,0.7,4.3,1.5,2.4s1.7-1.7,2.1,0.2s1.9,2.2,2.7,0.6c0.8-1.6,1.5-1.9,2.4-1.8c0.9,0.1,1.1,3.2,1.6,1.8
					c0.5-1.4,0.5-2.2,0.8-1c0.2,1.2,0.9,2.1,1.3,0.9c0.4-1.2-0.6-3.5-0.6-3.5l1.7,1.8c0,0-0.8-2.9,0.2-1.8s1.6,3.2,1.6,3.2
					s-0.2-2.1,0.6-1.2s1.9,1.6,1.9,1.6l-0.2-2.1c0,0,1.3,0.7,2.5,2.7c1.2,1.9,1.5,2.2,2.1,1.6c0,0,1.6,1.2,1.5,3.2
					c-0.2,2-0.7,4.4,0,3.7c0.8-0.8,1.5-2.9,1.5-2.9s-0.7,3.6-1.1,4.6c-0.2,0.5-0.4,1.4-0.6,2.2c-0.1,0-0.3,0.1-0.5,0.1
					c-1.2,0.3-0.5,0.6,0.1,1.3c-1.2,0.2-2.5,0.3-3,0.3c-1.2-0.1-3.8-0.5-7.4-0.8c-3.6-0.3-3.4-2.9-6-2.3c-2.6,0.6-3.2,0.8-4,0.5
					c-0.8-0.3-1.1,0.7-3,0.4s-2-1.4-3.4-0.5s-2-1.4-3.2-0.5c-1.3,0.9-0.2,2.2-2.9,1.2c-2.6-1-2.9-1.8-4.4-1.6l0-1.4
					C82.1,124,81.7,123,81,121.3z"/>
				<path class="st16" d="M81.3,129.3c-0.3,0-0.4-0.1-0.5-0.1c1.9-0.2,4.3-1.3,5.3-0.3c1.1,1.1,3.1-0.3,5.7-0.1
					c1.2,0.1,2,0.3,2.7,0.4c0.1,0.3,0.1,0.6,0.2,0.9c0.3,1,0.2,1.2,0.3,1.6c0.1,0.3,0.3-1.2,0.4-0.9s0.6,1.6,0.6,0.9
					c0.1-0.7,0.1-1.1,0.1-1.1s0.7,1.7,0.7,0.8c0-0.9,0.4-0.7,0.7-0.4c0.3,0.2,0.2,2,0.8,2.7c0.5,0.7-0.1-2.2-0.5-3.9
					c2.4,0.2,3.2,0.4,5,0c1.9-0.4,5.6,0.7,7.3,1.2s3.8,1.5,4.8,1c0.9-0.5,1.6-0.7,2.5-1s1.4-0.3,1.4-0.3c-0.2,0.1-0.1,0.2,0,0.4
					c0,0.5-0.1,1.5,0,2.3c0.1,1,0.5,1.6-1.2,3.5c-1.7,1.9-0.9,1.2-1.7,2.4c-0.8,1.2-3.2,3.6-3.8,2.7c-0.6-0.9-0.1-3.5-1.3-3.6
					c-0.5,0-1.1,0.7-1.7,1.7c-0.4-1.1-0.6,0.4-3,0.6c-2.6,0.2-3.9-0.5-6.3-1.3c-2.4-0.8-4.1-1-5.9-0.1c-1.8,0.9-3.7,1.1-6.2,1.5
					c-0.4,0.1-0.7,0.2-1,0.2c-0.4-0.3-0.9-0.7-1.5-1.1c-3.4-2.3-3.9-3.2-3.9-4.6c-0.1-1.4-1.3-1.3-0.8-3.3S82.4,129.4,81.3,129.3z"
					/>
				<path class="st17" d="M98.5,133.6c-0.6-0.8-0.5-2.5-0.8-2.7c-0.3-0.2-0.7-0.5-0.7,0.4c0,0.9-0.7-0.8-0.7-0.8s0,0.4-0.1,1.1
					c-0.1,0.7-0.5-0.5-0.6-0.9s-0.3,1.2-0.4,0.9c-0.1-0.3,0-0.5-0.3-1.6c-0.1-0.3-0.2-0.6-0.2-0.9c0.8,0.2,1.5,0.3,2.9,0.5
					c0.2,0,0.3,0,0.5,0C98.4,131.3,99.1,134.2,98.5,133.6z"/>
				<path class="st17" d="M109.6,133.6c0,0-0.8-1.4-0.9-0.5c-0.1,0.9-0.6,0.5-0.9,0s-0.6-0.3-0.7,0.2s-0.4-0.2-0.9-0.2
					c-0.5,0.1-0.7-0.3-0.7,0.7c-0.1,0.9-0.3,2,0,2s0.4-1.5,0.7-0.9c0.3,0.6,0.3,1.5,0.9,0.7s1.1-1.3,1.4-0.7
					c0.2,0.6,0.2-1.3,0.5-0.8C109.1,134.8,109.6,133.6,109.6,133.6z"/>
				<path class="st17" d="M115,133.8c0,0,0.8,1-0.5,1.6c-1.3,0.6,0.1-1.7-0.1-1.1s-0.7,2.6-1.2,1.8c-0.5-0.8,0.1-2.3-0.1-2.1
					c-0.2,0.3-0.3-0.6-0.9,0s-0.3-1.7-0.7-0.8s-1,1.2-1.1,0.3c-0.1-0.9,0.4-1.6,0.8-1.1c0.4,0.4,0.7,0.8,1.1,0.5
					c0.3-0.3,1.3-0.2,1.2,0.4c0,0.6,0.8-0.6,0.9,0S114.8,133.2,115,133.8z"/>
				<path class="st17" d="M115.3,120.3c0,0,0.3-1.5-1-3c-1.3-1.5-1.3-1.4-1-0.5c0.4,0.9,1.3,3.5,0.5,2.3c-0.8-1.2-1.5-2.7-1.3-1.5
					c0.2,1.1,1.1,1.2,1.1,2.6c0,1.4,0.9,0.4,0.9-0.2s0-0.6,0-0.6S115,122.1,115.3,120.3z"/>
				<path class="st17" d="M114.4,125.6c0.1-1.4-0.1-1.7-0.6-2.8c-0.5-1.1-1.1-1.5-1.1-1.5s1.2,1.7,0.8,3.2c-0.4,1.5,0.2,1.9,0.2,1.9
					L114.4,125.6z"/>
				<path class="st17" d="M89.8,121.5c0,0,1,3.3,0.4,2.9c-0.7-0.5-0.9-1.7-0.9-3.2c0-1.5,1.2-2.5,0.8-1.8c-0.3,0.7,0.1,2.1,0.1,2.1
					S90.7,122.3,89.8,121.5z"/>
				<path class="st17" d="M102.6,117.9c0.1-0.4,0.1-1.4-0.5-0.7s-0.5-1.3-0.9-0.5c-0.4,0.8-1.2,1.1-1.1,0.3c0.1-0.8,0-1.6-0.4-0.9
					c-0.4,0.8-0.7-0.2-0.4-0.9c0.2-0.7,0.2-1.8-0.4-0.8c-0.6,1-0.8,1.1-1,2.2c-0.3,1.1-0.3,3.3,0.3,2.1c0.5-1.3,1.1-1.9,1.1-0.9
					c0,1-0.2,2.6,0.6,1.5s1.3-1.5,1.3-0.8c0,0.7,1-1.1,1-0.1C102,119.4,102.6,117.9,102.6,117.9z"/>
				<path class="st19" d="M122.4,121.5c-0.2-0.4-0.4-1.1-0.6-1.8c-0.2,0.5-0.3,0.9-0.7,0.4c-0.7-1.2-0.3-2.4-0.8-2.6
					s-1.7,0.7-2.1-1.3c-0.4-2-0.9-1.4-1-0.2c-0.1,1.2-0.8,0.9-1.9-0.9c-0.3-0.4-0.4-0.4-0.5-0.2l-0.1,2c0,0.2,0,0.3,0,0.4
					c0.2,0.3,1.1,1.8,2.3,2.3c1.4,0.5,2.3-1.5,2.5,1.9c0.2,3.4,0.9,1.8,0.2,3.4c-0.8,1.7-1.3,2.7-1.3,2.7l0,1.4c0,0,0.1,0,0.1,0
					c0.4,0.1,1,0.2,1.6,0.3c-0.3-0.9,1.8-0.7,3.7-1.8c0.2-1.2,0.3-2.8,0.3-3.9C124.1,121.8,122.9,122.5,122.4,121.5z"/>
				<path class="st18" d="M125.3,123.2c-0.2-1-1.5-1.6-1.5-1.6s-0.4-1.4-1.2-2.8c-0.4-0.8-0.6,0.1-0.8,0.9c0.2,0.7,0.4,1.4,0.6,1.8
					c0.5,1,1.7,0.3,1.7,2.1c0,1.1-0.2,2.7-0.3,3.9c0.2-0.1,0.3-0.2,0.5-0.3C126.3,125.6,125.5,124.2,125.3,123.2z"/>
				<path class="st18" d="M121.7,134.5c-0.1-1.1-0.5-1.8-0.9-2.5c-0.1,0.7-0.2,1.5-0.5,2.2c-0.7,1.8-1.8,3.3-1.8,4.4l0,1.7
					c0.5-0.1,0.9-1,1-2.2C119.5,136.4,121.9,136.7,121.7,134.5z"/>
				<path class="st19" d="M120.3,134.2c0.3-0.8,0.4-1.6,0.5-2.2c-0.3-0.5-0.6-0.9-1-1.2c-0.3,0.1-0.6,0.2-1.1,0.2
					c-0.2,0-0.4,0-0.6-0.1c-0.1,0.1-0.2,0.1-0.5,0.1c-1,0,0,0.6,0.5,2.6s-0.8,1.9-0.9,3.3c-0.1,1.4-0.6,2.3-4.1,4.5
					c-0.6,0.4-0.4,0.2-0.9,0.6c1.5,0.5,1.2,1.8,2.4,2.2c1.4,0.5,1.7-1.5,1.7-3.3c0.1-1.8,0.4-1.9,1.3-0.9c0.2,0.3,0.5,0.4,0.7,0.3
					l0-1.7C118.5,137.5,119.6,136,120.3,134.2z"/>
			</g>
		</g>
	</g>
	<path class="st20" d="M83.8,153.7c0,0-1.9,3.5-0.5,3.8C84.7,157.7,83.8,153.7,83.8,153.7z"/>
	<path class="st21" d="M112.2,153.4c0,0-1.9,3.5-0.5,3.8C113,157.5,112.2,153.4,112.2,153.4z"/>
	<path class="st14" d="M78.1,275.8c-0.1,1.2-0.1,2.4,0.1,3.5c0.5-0.1,1-0.2,1.4-0.3C79.1,278,78.6,276.9,78.1,275.8z"/>
	<path class="st22" d="M13.9,289.3c7.2-6.8,15.6-12,24-17.1c4.3-2.6,8.5-5.2,12.8-7.9c-1-2.1-1.5-3.6-1.5-3.6S6.1,288.1,2.1,292
		c-2.3,2.3-3,8.5-0.8,14.5C4.2,300,8.7,294.2,13.9,289.3z"/>
	<path class="st23" d="M30,320.6c-0.3,1.3-0.6,2.6-0.8,3.9c1.5,0.2,3.1,0.2,4.7,0.1c0.1-1.1,0.3-2.1,0.6-3.2
		C32.9,321.3,31.4,321,30,320.6z"/>
	<path class="st24" d="M43.7,301.5c-2,1.8-4.2,3.5-6.1,5.5c-3.7,3.8-6.3,8.5-7.7,13.6c1.4,0.4,2.9,0.7,4.5,0.8
		c0.7-2.6,1.9-5.2,3.3-7.5c3.1-4.9,7.3-8.9,11.3-13c6.4-6.7,12.6-14.1,15.6-22.7c-1.1-0.4-2.1-0.9-3-1.4
		C57.6,286.2,51.4,294.7,43.7,301.5z"/>
	<path class="st22" d="M38.3,321.1c-1.4,0.2-2.6,0.3-3.8,0.2c-0.3,1-0.5,2.1-0.6,3.2c1.6-0.1,3.3-0.3,5-0.7c4.2-1,8.7-2.3,13.1-3.6
		C47.5,320,42.6,320.5,38.3,321.1z"/>
	<path class="st25" d="M72.9,279.8c-3.1-0.1-5.8-0.6-8.2-1.6c-3,8.7-9.2,16.1-15.6,22.7c-4,4.1-8.2,8.1-11.3,13
		c-1.5,2.3-2.6,4.8-3.3,7.5c1.2,0.1,2.4,0,3.8-0.2c4.3-0.7,9.3-1.1,13.7-0.9c2-0.6,3.9-1.1,5.7-1.7c0.6-1.9,1.6-3.8,2.6-5.6
		C66,302.5,72.8,291.6,72.9,279.8z"/>
	<path class="st22" d="M21,317.4c-2.2-0.7-4.9-1.1-7.5-1.3c-0.3,0.9-0.6,1.8-1,2.6c3.8,2,9.7,5.1,16.7,5.8c0.2-1.3,0.5-2.6,0.8-3.9
		C27.3,319.8,24.7,318.5,21,317.4z"/>
	<path class="st25" d="M16.7,302.6c-0.9,2.1-1.1,4.4-1.5,6.6c-0.4,2.3-1,4.6-1.7,6.9c2.6,0.2,5.3,0.7,7.5,1.3c3.7,1.1,6.3,2.4,9,3.2
		c1.4-5.1,4-9.8,7.7-13.6c1.9-2,4-3.6,6.1-5.5c7.7-6.8,13.8-15.3,18-24.7c-2.3-1.3-4.3-3-5.9-4.8c-10.7,7.8-21.4,15.6-32.2,23.3
		C21,297.3,18.1,299.5,16.7,302.6z"/>
	<path class="st23" d="M9.4,315.8c0,0.3-0.1,0.7-0.1,1c0.6,0.4,1.2,0.8,1.8,1.1c0.4,0.2,0.9,0.5,1.4,0.7c0.4-0.9,0.7-1.7,1-2.6
		C12.1,315.9,10.7,315.8,9.4,315.8z"/>
	<path class="st24" d="M17.5,294.5c-5.3,5.6-7.2,13.4-8.1,21.3c1.3,0,2.7,0.1,4.1,0.3c0.8-2.2,1.3-4.5,1.7-6.9
		c0.4-2.2,0.6-4.5,1.5-6.6c1.4-3.1,4.3-5.2,7-7.2c10.7-7.8,21.4-15.6,32.2-23.3c-0.9-1-1.7-2-2.4-3c-8,6.6-16.6,12.6-25.5,18
		C24.3,289.2,20.5,291.4,17.5,294.5z"/>
	<path class="st24" d="M65.7,309c5.3-8.9,7.9-19.1,10.2-29.3c-0.9,0.1-1.7,0.1-2.6,0.1c-0.2,0-0.3,0-0.4,0
		c-0.1,11.8-6.9,22.7-12.6,33.2c-1,1.8-1.9,3.7-2.6,5.6c1.1-0.3,2.2-0.6,3.3-0.9c0-0.1,0.1-0.3,0.1-0.4
		C62.2,314.3,64.1,311.7,65.7,309z"/>
	<path class="st25" d="M17.5,294.5c3-3.1,6.8-5.3,10.4-7.5c8.9-5.4,17.4-11.4,25.5-18c-1.2-1.7-2.1-3.3-2.7-4.6
		c-4.3,2.6-8.5,5.2-12.8,7.9c-8.4,5.2-16.9,10.4-24,17.1c-5.2,4.9-9.7,10.7-12.6,17.2c1.2,3.3,3.3,6.6,6.5,9.2c0.5,0,1.1,0,1.6,0
		C10.4,307.9,12.2,300.1,17.5,294.5z"/>
	<path class="st22" d="M7.8,315.7c0.5,0.4,1,0.7,1.5,1.1c0-0.3,0.1-0.7,0.1-1C8.9,315.7,8.3,315.7,7.8,315.7z"/>
	<path class="st24" d="M125.7,319.6c0.7-0.3,1.5-0.5,2.2-0.8c-0.7-5.8-2.5-11.5-5.1-16.8c-3.9-7.7-9.7-14.2-15.4-20.6
		c-3.8-4.3-7.6-8.6-11.4-12.8c-0.4,0.5-0.8,0.9-1.3,1.4c8.3,12.4,21.5,21.6,27.4,35.3C124,309.9,125.1,314.7,125.7,319.6z"/>
	<path class="st23" d="M125.7,319.6c0.2,1.8,0.4,3.7,0.6,5.5c0.7-0.2,1.4-0.4,2-0.6c0-1.9-0.1-3.9-0.4-5.8
		C127.2,319.1,126.5,319.4,125.7,319.6z"/>
	<path class="st22" d="M127.9,318.8c0.2,1.9,0.4,3.8,0.4,5.8c2.8-1,5.2-2.3,6.9-4.1c-0.5-1.6-1.1-3.2-1.7-4.7
		C131.8,317,129.9,318,127.9,318.8z"/>
	<path class="st25" d="M122.8,302c2.7,5.2,4.4,10.9,5.1,16.8c2-0.8,3.9-1.9,5.6-3c-4.9-12.3-13.4-23.3-21.7-33.8
		c-4.4-5.6-8.9-11.2-13.3-16.8c-0.7,1-1.6,2.2-2.6,3.5c3.8,4.3,7.6,8.6,11.4,12.8C113.1,287.9,118.9,294.4,122.8,302z"/>
	<path class="st22" d="M115.4,321.7c-1.2,0.1-2.5,0.2-3.7,0.3c0,1.1,0,2.2,0,3.2c3.8,0.7,6.9,1.2,8.8,1c2.1-0.2,4-0.5,5.9-1
		c-0.2-1.9-0.3-3.7-0.6-5.5C122.3,320.8,118.7,321.5,115.4,321.7z"/>
	<path class="st25" d="M111.7,321.9c1.2-0.1,2.5-0.2,3.7-0.3c3.3-0.2,6.9-0.9,10.3-2c-0.6-4.9-1.7-9.8-3.7-14.3
		c-5.9-13.7-19.1-23-27.4-35.3c-1.7,1.8-3.7,3.6-6.1,5.2c5,10.9,15.7,18.8,20.3,30.1C111,310.5,111.6,316.2,111.7,321.9z"/>
	<path class="st22" d="M133.5,315.8c0.6,1.6,1.2,3.1,1.7,4.7c1.1-1.1,1.9-2.3,2.3-3.7c0.4-1.2,0.3-2.8-0.1-4.7
		C136.4,313.5,135,314.7,133.5,315.8z"/>
	<path class="st22" d="M133.5,315.8c1.5-1.1,2.9-2.3,3.9-3.6c-1.4-6.8-7.1-16.9-11.6-20.9c-5.8-5-20.5-26.6-22.3-27.3
		s-3.2-1.8-3.2-1.8s-0.6,1.2-1.8,2.9c4.4,5.6,8.9,11.2,13.3,16.8C120.1,292.5,128.6,303.5,133.5,315.8z"/>
	<path class="st24" d="M78.2,279.4c0.6,5.4,3,10.5,4.8,15.7c2.8,7.7,4.2,15.9,4.3,24.2c1,0.3,2,0.5,3.1,0.8c-1.4-14.1-5-28-10.8-41
		C79.1,279.2,78.7,279.3,78.2,279.4z"/>
	<path class="st25" d="M78.2,279.4c-0.7,0.1-1.5,0.2-2.2,0.3c-2.3,10.2-4.9,20.4-10.2,29.3c-1.6,2.7-3.5,5.3-4.6,8.3
		c0,0.1-0.1,0.3-0.1,0.4c4.7-1.3,8.7-2.1,11.2-2c2.2,0.1,8.1,1.6,15.1,3.5c-0.1-8.2-1.6-16.4-4.3-24.2
		C81.2,289.9,78.7,284.7,78.2,279.4z"/>
	<path class="st25" d="M96.9,290.9c-2.3-2.8-4.9-5.3-7.3-8c-1.6-1.8-3.1-3.8-4.6-5.7c-1.7,0.8-3.5,1.4-5.4,1.9
		c5.8,12.9,9.4,26.8,10.8,41c3.7,1,7.6,2,11.4,2.9c2.1-0.3,4.6-0.6,7.3-0.8C108.6,310.8,104.2,299.6,96.9,290.9z"/>
	<path class="st22" d="M101.8,323c2.6,0.6,5,1.2,7.4,1.7c0-0.8,0-1.7,0-2.5C106.5,322.4,104,322.7,101.8,323z"/>
	<path class="st23" d="M111.7,321.9c-0.9,0.1-1.7,0.1-2.5,0.2c0,0.8,0.1,1.7,0,2.5c0.9,0.2,1.7,0.4,2.5,0.5
		C111.7,324.1,111.7,323,111.7,321.9z"/>
	<path class="st24" d="M96.9,290.9c7.3,8.7,11.7,19.9,12.2,31.2c0.8-0.1,1.7-0.2,2.5-0.2c-0.1-5.7-0.7-11.4-2.8-16.7
		c-4.5-11.2-15.3-19.1-20.3-30.1c-1.1,0.7-2.3,1.4-3.6,2c1.4,2,3,3.9,4.6,5.7C92,285.6,94.6,288.2,96.9,290.9z"/>
	<path class="st26" d="M315.5,261.3c-1.4-10.8-5-37.4-7.9-44.6c-2.9-7.2-6.5-11.5-20.9-11.5c-8.2,0-14.2,2.8-17.6,8.3
		c0.8,6.5,5.3,13.5,5.3,18.3c0,7.9,5.8,17.3,7.2,27.4c1.4,10.1,8.6,43.9,10.1,50.4c0.8,3.4-0.3,8.3-1.4,12.3l35.2-3.6
		C325.6,318.2,316.9,272.1,315.5,261.3z"/>
	<path class="st1" d="M291.7,309.5c-1.4-6.5-8.6-40.3-10.1-50.4c-1.4-10.1-7.2-19.4-7.2-27.4c0-4.8-4.6-11.8-5.3-18.3
		c-2.6,4.2-3.5,10.1-2.6,17.6c2.2,17.3,11.5,54.7,13,61.9c1.4,7.2,4.3,29.5,4.3,29.5l6.5-0.7C291.5,317.9,292.5,312.9,291.7,309.5z"
		/>
	<path class="st1" d="M191.6,259.1c4.3,2.2,9.4,0.7,18,0c7-0.6,33-4.5,44.4-6.3c-1.1-1.1-2.3-2.2-3.5-3.2
		C237.3,251.7,187.7,257.2,191.6,259.1z"/>
	<path class="st26" d="M168.6,284.3c5,6.5,38.2,4.3,53.3,5c8.3,0.4,19.7,3.4,28.3,6c6.1-0.4,11.3-1,11.3-1s-1.4-30.2-1.4-33.8
		c0-1.5-2.8-4.7-6-7.8c-11.5,1.8-37.4,5.7-44.4,6.3c-8.6,0.7-13.7,2.2-18,0c-3.9-2,45.6-7.4,59-9.5c-3.1-2.7-5.7-4.9-5.7-4.9
		l-15.8-9.4c0,0-52.6-0.7-61.2,4.3c-8.6,5-11.5,20.2-10.8,31c0.1,1.3,0.3,2.7,0.6,4.1C161.4,277.4,166,281,168.6,284.3z"/>
	<path class="st1" d="M221.9,289.4c-15.1-0.7-48.2,1.4-53.3-5c-2.6-3.4-7.2-6.9-11-9.6c2,9.7,9.2,19.7,26.8,20.4
		c20.2,0.7,46.8,0.7,55.4,0.7c3.1,0,6.8-0.2,10.3-0.4C241.6,292.8,230.2,289.8,221.9,289.4z"/>
	<path class="st1" d="M224,189.3c17.3-1.4,38.2-7.2,44.6-6.5c6.5,0.7,16.6,0,16.6,0l-7.9-2.2c0,0,5-7.2,7.9-8.6s7.9-21.6,7.9-31.7
		s-2.2-20.2-2.9-26.6c-0.4-3.5-5.9-9.9-7.7-15.6c-3.8,0.1-3.1-0.2-3.1-0.2c13,10.8,7.2,46.1,5,59.8c-2.2,13.7-7.2,18-13,20.2
		c-4.1,1.6-39.5,3.5-59.1,4.4C211.5,185,211.1,190.4,224,189.3z"/>
	<path class="st1" d="M310.4,108.7c-2-3.5-8.8-10.1-14.4-10.8c8.8,9.5,10.2,18.3,12.3,24.5c2.2,6.5,3.6,55.4,3.6,64.1
		c0,3.6-1.8,7.5-3.8,10.8c3.4-1.6,5.9-3.3,6.7-5C318.4,185,315.5,117.3,310.4,108.7z"/>
	<path class="st0" d="M308.3,122.3c-2.1-6.2-3.5-14.9-12.3-24.5c-3.5-0.4-10.5,0.1-13.4,0.2c1.8,5.7,7.3,12.1,7.7,15.6
		c0.7,6.5,2.9,16.6,2.9,26.6s-5,30.2-7.9,31.7s-7.9,8.6-7.9,8.6l7.9,2.2c0,0-10.1,0.7-16.6,0c-6.5-0.7-27.4,5-44.6,6.5
		c-13,1.1-12.6-4.3-11.5-7.1c-7.7,0.4-12.9,0.6-12.9,0.6l2.9,29.5l63.4-5.8c8.9,0.6,30.9-4,42.3-9.4c2.1-3.3,3.8-7.1,3.8-10.8
		C311.9,177.8,310.4,128.8,308.3,122.3z"/>
	<path class="st6" d="M196.8,206.8c0,0-8.9,6.8-19.1,7.4s-27.1-12.4-17.3-13c9.8-0.6,21.8-5.1,20.4-6.8c-1.3-1.7-6.2-9.1-3.6-9.1
		c2.7,0,9.8,4,13.3,4s10.7,0,10.7,0l-0.4,14.7L196.8,206.8z"/>
	<path class="st27" d="M245.8,143.5c0,0-5.4-23-7.4-25.9c-1.9-2.9-8-6.9-8-6.9s-9.6,16.5-6.4,14.9s9.6-2.9,9.6-1
		c0,1.9-4.5,4.2-3.8,6.1C230.4,132.7,245.8,143.5,245.8,143.5z"/>
	<path class="st27" d="M244.9,141.1c0,0,9.5-17,10.2-19.3s3.8-12.3,5.1-13.2c1.3-0.9,3.2,8.1,5.5,10c2.2,1.9-0.6,2.6-3.2,3.8
		c-2.6,1.3,2.9,1.9,3.5,3.2C266.6,126.9,248.2,139.2,244.9,141.1z"/>
	<path class="st10" d="M256.6,89.1c0,0,4.4,5.1,4.1,8.8s-2.5,5.6-2.5,5.6s6,2.4,4.3,7.1c-1.8,4.7-4.5,8.4-4.5,8.4s7.1,1.4,5.6,8.2
		c-1.5,6.7-4.5,5.5-4.5,5.5s3.8,6.4,1.4,10c-2.4,3.6-11,6-11,6s3.7-5.4,3.8-7.5s-5-3.4-4.5-8.7c0.5-5.4,4.1-8.7,4.1-8.7
		s-5.8-3.7-3.6-8.1c2.2-4.4,4-6.3,4-6.3s-6.3-1.6-4.2-6.7c2.1-5.2,0.5-5,0.4-9C249.4,89.7,256.6,89.1,256.6,89.1z"/>
	<path class="st28" d="M254.9,89.6c0,0,2.8,7.3,0.6,10.5s-2.8,5.1-2.8,5.1s4.3,3.5,5.1,4.9c0.8,1.4-4.2,5.6-3.5,8.7
		c0.7,3.1,4.5,4.7,2.9,7.8c-1.6,3.2-5.6,1.7-3.8,6.7c1.9,5,3.5,6.3,3.1,7.5s-1.8,5.8-1.8,5.8s5.5-4.9,3.8-8.2
		c-1.6-3.3-4.6-5.8-3.1-7.8c1.5-2,4-1.1,4-3.2s-4.3-7.9-3.2-10.4s6.6-7.7,4.1-8.5c-2.5-0.8-6.2-2.7-5.5-3.9c0.7-1.3,4.9-7.1,4.7-8.6
		C259.1,94.6,254.9,89.6,254.9,89.6z"/>
	<path class="st3" d="M258.8,41.3c0-1.4,0.3-3.9,3.4-4.2c4.3-0.3,5.1,7.7,4.9,9.7c-0.2,2.1-2.1,9.2-6.2,10.2l-2.1-14.8L258.8,41.3z"
		/>
	<path class="st2" d="M264.7,42.8c0,0-2.6-1.8-3.6,0.5c0,0,2.8,1.1,3.1,3.1c0.3,2-0.2,4.2-2.8,5.3c0,0,1.6-1.5,1-4.4
		c-0.5-2.8-1.9-2.1-1.9-2.1s-1.7-4.2,1-5S264.7,42.8,264.7,42.8z"/>
	<path class="st4" d="M204,48.5c-1.1-7.5-1.5-27-1.7-36c-4,2.6-6.8,6-6.5,8.4c0.5,3.7,0.5,5.8,0.5,5.8s7,39.6,7.8,45.1
		c0.7,5.2,1.7,4.8,5.7,10.6C206.7,70.7,205,55.5,204,48.5z"/>
	<path class="st4" d="M258,34.5c-1.1-7.5-4.4-19.1-5.7-22.1c-0.9-2.1-4.4-5-8.2-6.5c3.4,13.2,9.4,37.2,10.5,44.9
		c1.5,10.8,1,19.7-2.1,35.6c-1,5-1.9,8.8-2.7,11.8c4.9-5.6,8.3-11.3,9.8-14.7c1.8-4.1,3.5-4.6,3.4-11.6
		C262.8,64.7,259.1,42,258,34.5z"/>
	<path class="st3" d="M254.6,50.7c-1.1-7.7-7.1-31.7-10.5-44.9c-1.8-0.7-3.7-1.1-5.5-1c-5.5,0.5-21.1,2.7-28.5,4.3
		c-2.7,0.6-5.4,1.8-7.8,3.3c0.2,9,0.6,28.5,1.7,36c1,7,2.7,22.2,5.9,33.8c0.2,0.3,0.4,0.6,0.6,0.9c4.5,6.7,19.8,19.6,22.1,21.6
		c2.3,2,8,2.7,14.5-3.8c0.9-1,1.8-1.9,2.7-2.9c0.8-3,1.8-6.9,2.7-11.8C255.6,70.4,256.1,61.5,254.6,50.7z"/>
	<path class="st7" d="M223.7,47.8c0,0-5.4,11.8-4.1,17.8s1.4,6.9,4.7,5.5c3.3-1.3,7.2-5.4,7.2-5.4s-5.6,4.3-7.5,0.2
		S223.7,47.8,223.7,47.8z"/>
	<path class="st6" d="M219.4,47.9c0,0-7.7,7.7-6.7,15c1,7.4,2.1,14.7,4.2,14.4c2.2-0.3,6.9-1.4,6.9-1.4s-2.8,0.5-4.6-1.4
		c-1.9-2.1-2.9-6.7-2.7-9.7C216.9,59.1,219.4,47.9,219.4,47.9z"/>
	<path class="st2" d="M223.6,43.8c0,0-7.1,6.3-6,17.1s0.9,16.2,5,13.4c4-2.8,7.9-6.4,11.8-6.9c0,0-15.3,16.7-17.3,5.5
		S212.9,52.4,223.6,43.8z"/>
	<path class="st6" d="M208.4,34.8c0,0,2.4-2,4.8-2.5c2.4-0.5,7.6-0.1,7.6-0.1s-5,0.1-7.3,0.9C211.3,33.9,208.4,34.8,208.4,34.8z"/>
	<path class="st6" d="M205.1,37.7c0,0,4.6-0.4,8.3-1.5c3.8-1,10.6-2.5,10.6-2.5s-4.6,1.9-6.9,2.5C214.8,36.9,211,38.7,205.1,37.7z"
		/>
	<path class="st6" d="M203.7,31.1c0,0,4.3-1.6,8.1-2.3c3.8-0.7,10.7-2.4,10.7-2.4s-4.9,0.3-7.3,0.8
		C212.7,27.6,208.6,27.7,203.7,31.1z"/>
	<g>
		<g>
			<ellipse transform="matrix(0.9903 -0.1388 0.1388 0.9903 -5.1827 29.0942)" class="st10" cx="206" cy="51.7" rx="2.7" ry="2.7"/>
			<ellipse transform="matrix(0.9903 -0.1388 0.1388 0.9903 -5.1827 29.0942)" class="st11" cx="206" cy="51.7" rx="1.9" ry="1.9"/>
			<ellipse transform="matrix(0.9903 -0.1388 0.1388 0.9903 -5.301 28.9534)" class="st12" cx="205" cy="52.5" rx="0.8" ry="0.8"/>
		</g>
		<path class="st28" d="M201.3,48.3c0,0,4.3-2.3,8.2-2.6c3.9-0.3,7.2,0.5,7.2,0.5s-0.1-5.6-7.1-5.1
			C202.5,41.6,200.3,44.8,201.3,48.3z"/>
	</g>
	<g>
		<g>
			
				<ellipse transform="matrix(0.9903 -0.1388 0.1388 0.9903 -4.0446 34.5553)" class="st10" cx="245.8" cy="46.3" rx="2.7" ry="2.7"/>
			
				<ellipse transform="matrix(0.9903 -0.1388 0.1388 0.9903 -4.0446 34.5553)" class="st11" cx="245.8" cy="46.3" rx="1.9" ry="1.9"/>
			
				<ellipse transform="matrix(0.9903 -0.1388 0.1388 0.9903 -4.1629 34.4145)" class="st12" cx="244.7" cy="47.1" rx="0.8" ry="0.8"/>
		</g>
		<path class="st28" d="M237.8,42.6c0,0,4.3-2.3,8.2-2.6s7.2,0.5,7.2,0.5s-0.1-5.6-7.1-5.1C239.1,35.9,236.8,39.1,237.8,42.6z"/>
	</g>
	<path class="st10" d="M209.3,14c0,0,22.2,20.2,48.5,13.4c0-0.1,0-0.1,0-0.2c0-1.8-4.1-19.9-8.9-23.1c-12.4-8.3-36.1-1.6-40.6,0.2
		c-4.5,1.8-11.8,7.3-13.4,13.2c-1.2,4.4,1.3,16,3,21.3C202.3,33.2,211.6,20.5,209.3,14z"/>
	<path class="st28" d="M209.3,14c2.3,6.5-6.9,19.1-11.4,24.8c0.5,1.8,1,2.9,1.1,2.8c0.6-0.2,12.6-15,11.4-25.1c0,0,12,17.4,27,17
		c15-0.4,18.5-4.1,18.5-4.1s2.4,10.5,2.8,9.9c0.4-0.6-0.7-9.8-0.8-12C231.5,34.2,209.3,14,209.3,14z"/>
	<path class="st12" d="M227.3,87.8c0,0,1-0.4,4.9-1.6c3.9-1.2,8.9-2.2,8.9-2.2s-5.5,2.2-6.9,2.8C232.8,87.4,227.3,87.8,227.3,87.8z"
		/>
</g>
</svg>
