<!-- Generator: Adobe Illustrator 21.1.0, SVG Export Plug-In  -->
<svg version="1.1"
	 xmlns="http://www.w3.org/2000/svg" xmlns:xlink="http://www.w3.org/1999/xlink" xmlns:a="http://ns.adobe.com/AdobeSVGViewerExtensions/3.0/"
	 x="0px" y="0px" width="248.4px" height="376.9px" viewBox="0 0 248.4 376.9" style="enable-background:new 0 0 248.4 376.9;"
	 xml:space="preserve">
<style type="text/css">
	.st0{fill:#C98A5B;}
	.st1{fill:#738093;}
	.st2{fill:#2B415B;}
	.st3{fill:#AD7957;}
	.st4{fill:#BF835A;}
	.st5{fill:#F5A40B;}
	.st6{fill:#9D5908;}
	.st7{fill:#9C0C0E;}
	.st8{clip-path:url(#SVGID_2_);fill:#AD7957;}
	.st9{fill:#9E6E54;}
	.st10{fill:#DB9E75;}
	.st11{fill:#3C2415;}
	.st12{fill:#231F20;}
	.st13{fill:#FFFFFF;}
	.st14{fill:#231F20;stroke:#231F20;stroke-miterlimit:10;}
	.st15{fill:none;}
	.st16{fill:#BE1E2D;}
	.st17{fill:#603913;}
	.st18{clip-path:url(#SVGID_4_);fill:#AD7957;}
</style>
<defs>
</defs>
<g>
	<path class="st0" d="M37.7,318.3c0,0-0.7,20.2-1.9,32.5c-1.1,12.4,0,8.5,5.5,10.5c5.6,2,20.3,4.9,18.3,10.5s-7.7,6.3-13.9,3.8
		s-7.1-5.5-13.3-4.7s-9.8-2-8.2-10.2s-1.5-21.1-1.5-21.1l-0.1-26.6L37.7,318.3z"/>
	<path class="st0" d="M68.5,310.2c0,0-1,20.2-2.3,32.5c-1.3,12.3-0.1,8.5,5.4,10.6s20.2,5.2,18.2,10.8s-7.8,6.2-13.9,3.6
		c-6.1-2.5-7-5.6-13.3-4.9c-6.3,0.7-11.9-1.9-10.1-10c1.8-8.2,2.4-22,2.4-22l-1.2-25.9L68.5,310.2z"/>
	<path class="st1" d="M58.9,247.1c1.9-4.3,2.9-31.9,3.3-45l8.6-1.4c-0.2,7.3-0.4,18.1,0.1,22.7c0.8,7.3-9.2,42-10,45.1
		c-0.6,2.5,1.1,32.6,1.7,44.2c-4.5,1.6-8.6,3.2-12.2,4.5c0-6.4-0.1-19.2-0.7-30.8C48.8,270,56.4,252.8,58.9,247.1z"/>
	<path class="st2" d="M60.9,268.5c0.8-3.1,10.8-37.7,10-45.1c-0.5-4.6-0.3-15.4-0.1-22.7l2.1-0.4c-0.3,11.5-1,32.2-2.1,38.4
		c-1.6,8.8-7.1,27.2-7.9,31.3c-0.6,3.3,0.7,30.7,1.9,42c-0.7,0.2-1.5,0.5-2.2,0.7C62,301.1,60.3,270.9,60.9,268.5z"/>
	<path class="st1" d="M62.9,270c0.8-4.1,6.3-22.5,7.9-31.3c1.1-6.2,1.8-26.8,2.1-38.4l9.3-1.5c0.1,12.8-0.6,38.1-0.7,42.3
		c-0.1,5.2-9,34.8-8.1,38.2c0.7,2.8,4.8,22.1,6.3,29.4c-2.1,0.1-4.5,0.4-7.4,1.1c-2.6,0.6-5,1.4-7.4,2.2
		C63.6,300.7,62.3,273.3,62.9,270z"/>
	<path class="st2" d="M81.5,241.1c0.1-4.2,0.8-29.5,0.7-42.3l1.7-0.3c0.2,8.2,0.5,22,0.4,27c-0.2,7.2,0.3,13.6-2.6,23
		c-2.9,9.4-8.3,20.6-4.7,38.1c2.3,11.3,3.8,18.4,4.7,22c-0.6,0-1.2,0-1.9,0c-1.5-7.3-5.5-26.7-6.3-29.4
		C72.5,275.8,81.3,246.3,81.5,241.1z"/>
	<path class="st1" d="M81.6,248.5c2.9-9.4,2.4-15.8,2.6-23c0.1-5-0.2-18.8-0.4-27l5.1-0.9c0,0,1.9,43.4-1,50.9
		c-2.9,7.4-6,22.7-3.9,32.7c2.1,10,9.9,28.2,9.9,28.2s4.9,3.5-0.1,3.3c-3.7-0.2-5.7-3.7-12.4-4.1c-0.8-3.6-2.4-10.7-4.7-22
		C73.3,269.1,78.7,257.9,81.6,248.5z"/>
	<path class="st2" d="M29.5,291.6c1.1-3.8,4.4-13.3,8.7-25.3c4.4-12,5.9-29.9,6.7-36.2c0.6-4.4,0.4-17.4,0.2-25.1l2.4-0.4
		c0.2,2.4,0.4,4.7,0.6,6c0.6,3.8-1.8,29-3.4,39.2c-1.6,10.1-11.3,31.7-13.2,41.5c-1.5,7.4,3.4,21.1,5.8,27.4
		c-0.9-0.3-1.7-0.4-2.3-0.6C31.7,308.7,28.5,295,29.5,291.6z"/>
	<path class="st1" d="M1.2,319.6c2.8-7.6,14.5-88.7,17.1-96.4C20.8,215.5,21,209,21,209l10.8-1.8c0,4.3-0.3,9.9-1.5,13.9
		c-2.2,7.6-5.1,28.4-8.2,43.1c-3.1,14.6-6.6,34-6.9,42.8c-0.2,5.6,0.5,12.4,0.9,16.6C6.3,327.6-3.5,332.3,1.2,319.6z"/>
	<path class="st2" d="M22.2,264.1c3.1-14.6,6-35.5,8.2-43.1c1.2-4,1.4-9.5,1.5-13.9l2-0.3c-0.4,6.7-1.4,14.8-3.6,20.1
		c-4.3,10.3-8.3,56.4-11.6,67.6c-2.5,8.3-0.8,21.7,0.2,28c-0.9,0.3-1.7,0.7-2.6,1.1c-0.5-4.2-1.1-11-0.9-16.6
		C15.6,298.1,19.1,278.8,22.2,264.1z"/>
	<path class="st1" d="M18.7,294.5c3.3-11.1,7.3-57.2,11.6-67.6c2.2-5.3,3.2-13.4,3.6-20.1l11.3-1.9c0.2,7.7,0.3,20.7-0.2,25.1
		c-0.8,6.4-2.3,24.3-6.7,36.2c-4.4,12-7.6,21.5-8.7,25.3c-1,3.4,2.2,17.1,5.6,26.4c-2.8-0.6-3.4,0.1-12.1,2.9
		c-1.3,0.4-2.7,0.9-4.1,1.5C17.9,316.2,16.2,302.8,18.7,294.5z"/>
	<path class="st1" d="M31.5,291.2c1.9-9.9,11.6-31.4,13.2-41.5c1.6-10.1,4-35.4,3.4-39.2c-0.2-1.3-0.4-3.5-0.6-6l12.8-2.1
		c-0.5,12.9-1.5,38.7-2.1,41.8c-0.8,4.1-8.6,21.7-9.8,28.1c-1,5.5,0.2,36.4,0.6,45.3c-4.1,1.3-7.5,2-10.3,1.3
		c-0.5-0.1-1-0.3-1.4-0.4C34.9,312.3,30,298.6,31.5,291.2z"/>
	<path class="st2" d="M48.4,272.4c1.2-6.4,9-24,9.8-28.1c0.6-3.1,1.6-28.9,2.1-41.8l1.8-0.3c-0.4,13.1-1.4,40.6-3.3,45
		c-2.5,5.7-10,22.9-9.1,39.4c0.6,11.6,0.7,24.3,0.7,30.8c-0.5,0.2-1,0.3-1.4,0.5C48.7,308.8,47.4,277.8,48.4,272.4z"/>
	<path class="st0" d="M38.4,98.5c0-6.6-2.9-14.3-4.3-17.5c5.1,4.7,15.5,12.3,30,14.2c0.1,3-0.8,14.5,0.8,18.2c6.3,14.9-2,9.3-2,9.3
		s-3.5,12-14.9,7.1c-15.1-6.5-6.4-5.6-8.4-13.8C37.7,107.7,38.4,107,38.4,98.5z"/>
	<path class="st0" d="M66.9,119.9c0,0,30-15.2,35.3-18.6c5.3-3.4,17.3-29.7,19.7-31.2c2.4-1.5,16.7-4,16.7-4s-6.5,17.2-9.8,27.5
		c-3.6,11.5-4.8,12.2-7.5,16c-4.8,6.9-33.1,25.2-37.8,24.6c-4.7-0.6-9.4,3.3-9.4,3.3L66.9,119.9z"/>
	<path class="st0" d="M83.4,136l6.3-27.7c-6.8-1.9-23.9-3.1-25.4-3.9c-1.5-0.8-2-18.7-2-18.7l-24.6,0.6c0,0,1,17.5-2.4,18.1
		c-2.8,0.5-13.3-4.4-21,2.6l-1,33.6c0,0,0.4,7,0.9,10.9c0.5,3.9,0.8,8.6,1.1,14.1c0.5,8.7,2,34,2,34l65.8-4.4
		c0.6-3.5-5.1-14.3-5.8-23.3c-1-15-0.5-30,1-31C80,139.8,83.4,136,83.4,136"/>
	<path class="st3" d="M41.6,84c-0.3-0.8-1.8-2.9-1.8-2.9s22.5,2.5,29.4-0.2c0,0-3.7,4.4-3.4,11.8C53.4,91.1,46,88,41.6,84z"/>
	<path class="st4" d="M77.4,171.8c-1-15-0.5-30,1-31c1.6-1,5-4.8,5-4.8c-0.2,2.1-2.4,8.6-1.5,14.4c1,5.8,0.7,32.1,0.5,34.1
		c-0.2,1.9,0.5,6.2,0.5,6.2l-6.3-0.1C77.3,187.1,78,180.8,77.4,171.8z"/>
	<path class="st5" d="M17.7,202.9c-0.6-2.1-0.2-3.6,0.1-4.3c0.4-0.2,1.1,0.7,2.5,1.4c1.9,1.1,2.2,1.6,2.8-0.5
		c0.6-2.1,1.8-0.4,2.9,0.8c1.1,1.2,2-0.4,3.6-0.8c1.5-0.4,2.5,1.8,3.6-0.1c1.1-1.9,0.7-0.8,1.6,0.1c0.9,1,2.4,0.8,3-0.8
		c0.6-1.6,0.9-1.1,2.6-0.2s2.2,1.4,3.3-0.6s2-0.4,3.4,0.5s1.9,0.9,4-1.4c2.1-2.3,2-0.4,3.4,0.7c1.4,1.2,2.6-0.5,3.8-1.1
		c1.2-0.6,2.2,0.8,3.1,0c1-0.9,0.4-1.1,1.3-0.4c0.8,0.7,3.4,0.7,4.6-0.4s2.8-1,4.4,0.4s1.8-0.4,3.3-1.1c1.5-0.7,0.6,1.2,3.7,0.7
		c3.1-0.5,0,0,1.8,0.4c1.7,0.3,1.2,1.1,2.3-0.6c0.4,1.5,0.7,3.2,0.7,4.7c0,1.2,0.3,2.2,0.6,2.9c-0.3,0.7-0.6,1.8-0.7,2.3
		c-0.2,1.1-1.4,1.7-2.6-0.3c-1.2-2-1,0.4-1.4,1.9s-1,0.1-2.7-1.6s0,0-0.4,1.6c-0.4,1.6-1.2,1.4-2.4-0.8c-1.2-2.2-0.9,1.6-2.2,1
		c-1.4-0.7-0.9-1.2-1.8,0.4c-0.9,1.6-1.5,1.2-2.1,0.2c-0.6-1-1.7-1.4-2.1-0.3s-1.7,1.5-2.9-0.3c-1.2-1.7-0.8,0.1-1.2,1.1
		s-1.3-0.1-1.5-1.7c-0.1-1.5-2.1-0.3-2.5,1c-0.4,1.3-1.8,0.4-2.1-0.6c-0.4-1-2.8-1.8-3.3,0.3c-0.6,2.1-2.1,2.3-2.8,0.5
		c-0.7-1.8-1.8-0.1-2.2,1.8s-2.5,1.5-2.8,0.3c-0.4-1.3-1.4-1.2-1.8,0.2c-0.4,1.3-1.7,0.9-1.8-0.4c-0.1-1.3-1.9-3.7-1.7-1.4
		s-2.6,2.3-3.3,0.8c-0.7-1.5-2.8,0.3-3.5,1.1c-0.7,0.8-1.9,2.2-2,1.2s-1-2-1.3-0.4c-0.4,1.6-2,0.4-2.9-0.8c-1.2-1.6-2.2,1-2.7-0.8
		c-0.4-1.8-1.7-1.7-2.8,0.3c-1.1,1.9-0.8,0.1-2.1-2.7c-0.2-0.3-0.3-0.6-0.4-0.8C18.1,205.3,18,204,17.7,202.9z"/>
	<path class="st6" d="M83.6,200.3c0-1.5-0.4-3.2-0.7-4.7c0.1-0.1,0.2-0.3,0.2-0.4c1.4-2.2,2.7,1.3,2.9,2.9c0,0,0.8,3.3,0.9,4.6
		c0.1,1.3-0.8,2.9-1.5,0.7c-0.4-1.2-0.8-0.8-1.2-0.1C83.9,202.4,83.6,201.5,83.6,200.3z"/>
	<path class="st6" d="M15.7,204.6c0-2.6-0.2-2.6,0.1-4.7c0.3-2.1,1.2,1.5,1.5-0.4c0.1-0.6,0.2-0.8,0.4-0.9c-0.3,0.7-0.7,2.1-0.1,4.3
		c0.3,1.1,0.5,2.4,0.6,3.6c-0.7-1.3,0.2,1-1,2.4C15.8,210.6,15.7,207.2,15.7,204.6z"/>
	<path class="st7" d="M64.4,104.6c-0.6,3.2,0.3,2.5-1.1,5.9c-0.1,0.3-0.3,0.7-0.5,1.2c-2.1,4.8-4.2,3.3-6,10.8
		c-1.9,7.5-3.5,12.3-6.3,16.5c-2.8,4.2-7,13.8-9,20.1c-2.1,6.3-1.6,7.5-5.1,11.4c-3.5,3.9-4.9,9.6-7.9,16.5c-3,6.9-3.7,10.5-5.1,12
		c-1.4,1.5-4.4,1.6-2.6-0.4c1.9-2,2.1-3.2,4.2-6.5s2.6-4.5,3.9-8.4c1.4-3.9,1.6-6.9,3.9-10.8s3.7-3.3,5.1-6.3c1.4-3,1.9-7.5,3-9.3
		c1.2-1.8,4.4-10.8,5.1-13.2c0.7-2.4,2.3-3.6,3.9-6.3c1.6-2.7,3.2-8.1,4.2-11.7c0.9-3.6,1.4-7.2,3.5-9.9s6-12.6,6-12.6"/>
	<path class="st7" d="M36.3,104.1c0,0,2.1,8.5,5.7,14.7s1,5.2,5.2,9.8s10.3,14.2,11.4,17.3c1,3.1,2.6,8.8,7.8,14.2
		c5.2,5.4,3.9,8.8,5.4,13.2c0.1,0.3,0.2,0.5,0.3,0.8c1.6,3.8,4.2,5,5.6,7.2c1.6,2.3,4.4,7.5,4.4,7.5s-0.5,1.3-4.4-4.4
		c-3.9-5.7-7.8-14.2-8.8-17.1c-1-2.8-4.4-5.4-4.9-7.2s-6.5-11.1-7-13.2s-2.8-7.8-4.4-9c-1.6-1.3-3.9-6.5-5.4-7.5
		c-1.6-1-4.4-5.4-4.9-7c-0.5-1.6-3.6-7.8-4.9-10.1c-1.3-2.3-2.1-7.5-2.1-7.5l0.1-1.5L36.3,104.1z"/>
	<path class="st4" d="M65.8,92.7c0,0-4.6,10.8-15.3,9.5s-11.1-8.1-11.1-8.1l8.4-6.5L65.8,92.7z"/>
	<g>
		<path class="st4" d="M19.8,59.7c-0.5-2.5-5.2-15.8-8.9-26.4c-0.4,2-0.7,4.1-0.8,6.3c-0.6,11.6,4.4,20.8,4.4,20.8
			c3.2,17.9,13.6,24,17.7,28.9c1.7,2,4.2,3.6,7.3,4.8c-2.1-3.2-5.4-8.1-8.5-12.2C25.9,75.1,20.7,64,19.8,59.7z"/>
		<path class="st4" d="M84.3,46.5c-1.3-1.8-1.5-7.1-1.5-7.1s-0.3-2.4-2-7.4c-0.5,5.2,1.2,13.9,1.6,16.5c0.7,5.1,1.7,10,0.8,23.2
			c-0.3,4.6-2.9,11.5-2.7,13.4c0.7-0.6,1.4-1.3,1.8-1.8c3.9-4.7,5.4-15.2,3.7-20C84.4,58.5,87.8,51.5,84.3,46.5z"/>
		<path class="st0" d="M82.4,48.5C82,45.8,80.2,37.2,80.8,32c-1.2-3.6-3.2-8.5-6.3-14.8c-7.5-15-28-8.1-43.9-2.2
			c-12.8,4.8-17.9,10.4-19.7,18.4c3.7,10.6,8.4,23.9,8.9,26.4C20.7,64,25.9,75.1,31,81.9c3.1,4.1,6.4,9,8.5,12.2
			c4.5,1.6,10.1,2.3,16.1,1.8c8.9-0.8,19.7-6.3,24.9-10.8c-0.1-2,2.4-8.8,2.7-13.4C84.1,58.5,83,53.5,82.4,48.5z"/>
		<path class="st0" d="M19.4,69.7c0,0-0.6-3.3-3.2-4.5c-1.4-0.7-1.2-2.8-3.4-2.3s-3.5,1.9-3,4.3c0.4,2.4,0.3,4,2.2,5.2
			c2,1.2,7.2,3.5,8.4,3.6c1.2,0.1,2.1,0,2.1,0L19.4,69.7z"/>
		<g>
			<defs>
				<path id="SVGID_1_" d="M16,69.2c0,0-0.2-2.9-2.1-2.1s-1.2,4.3,2.2,5.9c0,0-5.3-1.1-5.2-5.2S17,64.4,16,69.2z"/>
			</defs>
			<use xlink:href="#SVGID_1_"  style="overflow:visible;fill:#AD7957;"/>
			<clipPath id="SVGID_2_">
				<use xlink:href="#SVGID_1_"  style="overflow:visible;"/>
			</clipPath>
			<path class="st8" d="M21.4,76.5c-1.4-0.4-3.6-1-6.1-2.1c-4.4-1.9-5-4-5.8-8c-0.6-3,3.3-3.7,5.3-3.9c0.9,1.2,1.5,2.1,1.5,2.1
				S19.1,71.2,21.4,76.5z"/>
		</g>
		<g>
			<path class="st0" d="M75.1,61.1"/>
			<path class="st3" d="M74.2,57.2c0,0,5.8,3.9,7.5,3.2s3.7,2.6,3.4,4c-0.3,1.4-3.5,3.8-3.5,3.8s3-3.7,0.5-4.9
				c-2.6-1.2-3.8-0.2-5.3-1.7C75.2,60,74.2,57.2,74.2,57.2z"/>
			<path class="st9" d="M72.8,53.4c0,0,0.2,4.6,2.4,6.5c2.2,1.9,1.9,2.8,3.7,3c1.8,0.2,2.5-1.4,3.1,0.2c0.7,1.7-0.9,4.8-2,4.9
				c-1.1,0.1-3.4-0.2-4.8,0.9c-1.4,1.1-3.8-0.2-3.8-0.2s2.6,3,3.9,2.4s1.8-1.3,3.8-1.6s4.7-3.3,4.4-5c-0.2-1.7-2.6-3-4.8-3.1
				C76.5,61.3,76,59.6,72.8,53.4z"/>
			<path class="st10" d="M73,60.5c0,0,1.7,4.4,3.8,3.5c0,0,0.2,1.5-1.5,1.8C73.5,65.9,73,60.5,73,60.5z"/>
		</g>
		<path class="st11" d="M52.9,35l6.3,7L59,31.8l3.5,3.3l3.4-2.9c0,0,7.4,7.9,6.6,5.6c-0.9-2.2-0.7-9,0.7-6.3s5.8,3.6,5.8,3.6
			s2.5-10-7.1-25.2s-26.4-9.8-42-4.4s-14.9,7.7-14.9,7.7c-2-5.5,3.4-4.8,3.4-4.8s-2-3.9-4.6-0.9s-0.2,5.5-0.2,5.5S11.2,10,9.2,11
			c-2.5,1.3-2.3,3.2-2.3,3.2c3.6-2.7,6,1.2,6,1.2s-1.9,3.1-3.2,5.8S5.9,35.5,7.3,43s3.5,17.4,7.7,21.9c0,0-2.1-7.6-0.4-5.2
			c1.7,2.3,2,1.4,2,1.4s-3.2-9.3-1.8-7.5c1.4,1.9,3.8,2.7,3.8,2.7l-1.4-5.9c0,0-0.2-1,2.3,2.2c2.5,3.3,0.2-4.6,1.5-2.2
			c1.3,2.4,4.1,7,4,4c0-3-1.6-7.5,0.4-4.9c1.9,2.6,2.7,1.3,2.3-1.6s-0.4-7.5,1.8-3.9s4.5,7.2,4,3.8s-2.2-8.7-0.1-5.1s3.8,7.8,4,3.8
			s0.1-7.3,1.6-4.7s2.4,8.4,3.2,4.7c0.8-3.7-1-9.5,1.3-5.1c2.3,4.4,3.6,6.8,3.4,3.6c-0.3-3.2-0.6-8.5,0.9-4.2s4.3,6.4,3.5,3.3
			c-0.8-3.1-3.8-9.7-0.8-5.8c3,4,4.4,6.9,3.9,3.2C53.5,37.8,52.9,35,52.9,35z"/>
		<g>
			<ellipse transform="matrix(0.9788 -0.2049 0.2049 0.9788 -10.6653 12.0779)" class="st11" cx="53" cy="57.5" rx="2.2" ry="2.2"/>
			<ellipse transform="matrix(0.9788 -0.2049 0.2049 0.9788 -10.6653 12.0779)" class="st12" cx="53" cy="57.5" rx="1.6" ry="1.6"/>
			
				<ellipse transform="matrix(0.9788 -0.2049 0.2049 0.9788 -10.5066 12.2323)" class="st13" cx="53.8" cy="56.8" rx="0.6" ry="0.6"/>
		</g>
		<g>
			<ellipse transform="matrix(0.9788 -0.2049 0.2049 0.9788 -8.1095 17.321)" class="st11" cx="79.6" cy="47.8" rx="2.2" ry="2.2"/>
			<ellipse transform="matrix(0.9788 -0.2049 0.2049 0.9788 -8.1095 17.321)" class="st12" cx="79.6" cy="47.8" rx="1.6" ry="1.6"/>
			
				<ellipse transform="matrix(0.9788 -0.2049 0.2049 0.9788 -7.9508 17.4753)" class="st13" cx="80.4" cy="47.1" rx="0.6" ry="0.6"/>
		</g>
		<g>
			<path class="st14" d="M48.3,36.7c2.9,0,1.4-0.8,2.3-2.1c0.9-1.3,2.2,0.7,3.2-0.7c1.1-1.3,1.5-0.4,3.4-0.7
				c1.9-0.3,1.8-1.3,2.7-1.4c0.9,0,1.3-0.4,3.6-1.8s3,1.1,6.5,0.1s6-1.5,7.2-1.8c0.5-0.1,1.7-0.7,2.7-1.3c0,0,0.1,0.1,0.1,0.1
				c0.9,0.6,0.6,0.9,0.1,1.7c0,0-0.5,0.1-1.2,0.8c-0.7,0.6-1.3,1-2,1.8s-3,0.6-4.8,0.7c-1.8,0.1-5.6,0.3-7.3,1.4
				c-1.7,1.1-2.5,1.1-5.2,1.9c-2.7,0.7-3.1,0.4-5.6,1.1c-2.5,0.7-3.9,2.8-5.3,2.1s-3.7,1.7-5.4,2.4c-0.5,0.2-0.8,0.2-1.1,0.2
				c0.1-0.2,0.2-0.4,0.3-0.6c0.6-1.2-0.3-1.8-0.3-2.9c0,0,0,0,0,0c0.5-0.3,1-0.5,1.4-0.8C44.9,36,45.5,36.7,48.3,36.7z"/>
			<g>
				<path class="st14" d="M40.7,39.4c-2.2,1.8-1.6,0.2-3.1-0.2c-1.5-0.5-1.3,1.9-2.9,1.5c-1.7-0.4-1.4,0.6-3.1,1.6
					c-1.7,0.9-2.2,0.1-2.9,0.6c-0.7,0.5-1.3,0.5-4,0.8s-1.6,2.7-5,4.1c-3.3,1.4-5.6,2.6-6.7,3.1c-0.5,0.2-1.7,0.5-3,0.7
					c0,0,0,0.1,0,0.1c-0.3,1,0.1,1.1,1,1.4c0,0,0.5-0.2,1.4-0.2c1,0,1.7-0.1,2.7,0.2s2.8-1.4,4.2-2.5c1.4-1.1,4.6-3.3,6.6-3.5
					s2.7-0.7,5.2-1.8c2.5-1.1,2.7-1.6,5.1-2.6c2.4-1,4.8-0.3,5.5-1.7c0.7-1.4,3.9-1,5.7-1.6c0.5-0.1,0.8-0.3,1-0.5
					c-0.2-0.1-0.4-0.2-0.6-0.3c-1.2-0.6-0.9-1.6-1.6-2.4c0,0,0,0,0,0c-0.6,0.1-1.1,0.2-1.6,0.3C42.9,36.7,42.9,37.6,40.7,39.4z"/>
				<g>
					<path class="st15" d="M36.8,26.8C36.7,26.8,36.7,26.8,36.8,26.8C36.9,27,36.9,27,36.8,26.8z"/>
					<path class="st15" d="M36.6,26.4l0.1,0.3c0,0,0,0,0.1,0.1C36.7,26.7,36.7,26.6,36.6,26.4z"/>
					<path class="st7" d="M44.1,32.2c0.1-1.8,0,0-1.4-3.2s-1.5-0.9-3-0.9c-1.3,0-2.7-1-3-1.3c0.1,0.2,0.1,0.2-0.1-0.1
						c-0.7-1.2-2.6-1.7-2.8-1.2c-0.2,0.5,2.7,4.1,1.9,3.1c-0.8-1-1.7-0.8-0.8,0.8c0.9,1.6-1.2,2.1-2.2,1.4c-1-0.7-2.2-2.6-3.6-3.5
						c-1.4-1,1.4,3.6,0.7,3.9c-0.6,0.3-2.2-2.6-3.4-3.6c-1.2-1,0.7,4.3-0.7,2.7c-1.4-1.6-2.1-1.1-1.9,0.8c0.3,1.9-1.1,2.7-2.4,1.5
						c-1.3-1.2-2.1-1.3-2.9-1C18,32,18.7,35,17.8,33.8c-0.9-1.2-1.2-1.9-1-0.7c0.2,1.3-0.1,2.3-0.9,1.3S15.3,31,15.3,31l-1.1,2.2
						c0,0-0.2-3-0.7-1.7c-0.5,1.3-0.5,3.5-0.5,3.5s-0.5-2-1-0.9s-1.3,2.1-1.3,2.1l-0.5-2c0,0-1,1.1-1.6,3.3
						c-0.5,2.2-0.8,2.5-1.5,2.2c0,0-1.2,1.6-0.4,3.5s2.1,4,1.1,3.5s-2.3-2.3-2.3-2.3s1.8,3.2,2.5,4c0.4,0.4,0.8,1.2,1.3,1.9
						c0.1,0,0.3,0,0.5,0c1.2-0.1,0.6,0.4,0.3,1.3c1.2-0.2,2.5-0.5,3-0.7c1.1-0.5,3.4-1.7,6.7-3.1c3.3-1.4,2.3-3.9,5-4.1
						s3.2-0.3,4-0.8c0.7-0.5,1.3,0.3,2.9-0.6c1.7-0.9,1.4-1.9,3.1-1.6c1.7,0.4,1.4-1.9,2.9-1.5c1.5,0.5,0.9,2,3.1,0.2
						c2.2-1.8,2.2-2.7,3.7-2.9l-0.5-1.3C43.9,35.1,44,34,44.1,32.2z"/>
					<path class="st7" d="M46.3,39.9c0.2-0.1,0.3-0.2,0.4-0.3c-1.8,0.4-4.5,0.2-5.2,1.4c-0.7,1.4-3.1,0.7-5.5,1.7
						c-1.1,0.5-1.8,0.9-2.4,1.3c0,0.3,0.1,0.6,0.1,1c0.1,1.1,0.2,1.2,0.2,1.6s-0.6-1-0.7-0.7s0,1.7-0.3,1s-0.4-1-0.4-1
						s-0.1,1.8-0.4,1c-0.3-0.9-0.6-0.5-0.8-0.2c-0.2,0.3,0.5,1.9,0.1,2.8c-0.3,0.8-0.6-2.1-0.8-3.9c-2.2,1-2.9,1.4-4.8,1.6
						c-2,0.2-5.1,2.4-6.6,3.5c-1.4,1.1-3.1,2.7-4.2,2.5S13.4,53,12.4,53c-1,0-1.4,0.2-1.4,0.2c0.2,0.1,0.2,0.2,0.1,0.3
						c0.2,0.5,0.6,1.4,0.7,2.1c0.2,1,0.6,1,2.9,2.3s1.6,0.2,2.7,1c1.1,0.8,2.5,1.6,2.9,0.5c0.3-1-0.3-1.2,0.8-1.7
						c0.4-0.2,1.3,0.3,2.1,1c0-1.2,0.7,0.2,3-0.4c2.5-0.7,3.6-1.8,5.5-3.3s3.5-2.2,5.5-2c2,0.2,3.9-0.1,6.3-0.5
						c0.4-0.1,0.8-0.1,1.1-0.1c0.3-0.5,0.7-1,1.1-1.5c2.5-3.3,2.7-4.3,2.3-5.6c-0.4-1.4,0.8-1.7-0.3-3.4
						C46.6,40.4,45.4,40.3,46.3,39.9z"/>
					<path class="st16" d="M31.4,49.4c0.3-0.9-0.3-2.5-0.1-2.8c0.2-0.3,0.5-0.7,0.8,0.2c0.3,0.9,0.4-1,0.4-1s0.2,0.4,0.4,1
						s0.3-0.7,0.3-1s0.6,1,0.7,0.7s-0.1-0.5-0.2-1.6c0-0.3-0.1-0.7-0.1-1c-0.7,0.4-1.3,0.8-2.6,1.4c-0.2,0.1-0.3,0.1-0.4,0.2
						C30.8,47.3,31.1,50.2,31.4,49.4z"/>
					<path class="st16" d="M20.9,52.9c0,0,0.3-1.6,0.7-0.7c0.4,0.8,0.7,0.3,0.8-0.2c0.2-0.5,0.5-0.4,0.8,0s0.3-0.4,0.8-0.5
						c0.5-0.1,0.6-0.5,0.9,0.4c0.4,0.8,1,1.8,0.6,1.9c-0.3,0.1-0.8-1.3-0.9-0.6c-0.1,0.7,0.2,1.5-0.6,0.9c-0.8-0.5-1.5-0.9-1.5-0.2
						c0,0.7-0.6-1.2-0.7-0.6S20.9,52.9,20.9,52.9z"/>
					<path class="st16" d="M15.8,54.9c0,0-0.4,1.2,1,1.4s-0.6-1.6-0.2-1.1c0.4,0.4,1.5,2.2,1.7,1.3s-0.9-2.2-0.6-2
						c0.3,0.2,0.1-0.7,0.8-0.3c0.7,0.4-0.2-1.7,0.4-1c0.7,0.7,1.3,0.9,1.1-0.1s-0.9-1.3-1.1-0.8c-0.2,0.5-0.4,1-0.9,0.8
						s-1.3,0.2-1,0.8s-0.9-0.3-0.8,0.3C16.3,54.7,15.8,54.3,15.8,54.9z"/>
					<path class="st6" d="M12.2,57.5c-0.7-0.7-1.1-0.2-2.3-0.4c-0.4-0.1-0.7-0.4-0.9-0.8c0,0.1,0,0.1-0.1,0.2
						c-0.3,1.5-0.2,1.2,1.1,2.2c1.4,1,1.9,2.3,1.4,0.7s0.1-1.6,1.1,0c0.8,1.2,1.6,1.8,2.1,1.4c-0.4-0.6-0.9-1.2-1.3-1.4
						C12.7,59,12.9,58.2,12.2,57.5z"/>
					<path class="st5" d="M21.1,57.9c-1.1,0.5-0.5,0.6-0.8,1.7c-0.3,1-1.7,0.3-2.9-0.5c-1.1-0.8-0.5,0.2-2.7-1s-2.6-1.3-2.9-2.3
						c-0.2-0.7-0.5-1.6-0.7-2.1c-0.2,0.6-1.7,1.6-2,2.7c0.2,0.4,0.5,0.7,0.9,0.8c1.1,0.2,1.6-0.3,2.3,0.4c0.7,0.7,0.5,1.5,1.3,1.9
						c0.4,0.2,0.9,0.8,1.3,1.4c0.1-0.1,0.3-0.3,0.4-0.5c0.5-1.1,1.5,1.3,2.8,3c1.3,1.7,1.1-0.5,0.1-2.7c-1-2.2,2.6,0.9,4.7,1.3
						s0.6-0.5,0.5-2.4c0-0.2,0-0.3,0-0.5C22.4,58.2,21.5,57.7,21.1,57.9z"/>
					<path class="st6" d="M6,48.3c-1-1.4-1.3-2.5-1.3-3.7c0-0.5-0.3-1.4-0.6-2.3c-0.1,0.8,0,1.9,0.2,3.9c0.3,2.6,1.6,3.7,2.7,4.1
						C6.9,49.6,6.5,48.9,6,48.3z"/>
					<path class="st5" d="M6.7,37.1c0,0-0.6,0.3-1.6,2.4c-0.5,1.2-0.8,1.7-0.9,2.7c0.3,0.9,0.6,1.8,0.6,2.3c0,1.2,0.2,2.3,1.3,3.7
						c0.5,0.7,0.8,1.3,1.1,1.9c0.8,0.3,1.4,0.3,1.4,0.3s0,0,0.8-0.1c-0.4-0.7-0.9-1.5-1.3-1.9c-0.7-0.8-2.5-4-2.5-4s1.4,1.8,2.3,2.3
						s-0.3-1.6-1.1-3.5s0.4-3.5,0.4-3.5C6.4,39.4,6.7,37.1,6.7,37.1z"/>
					<path class="st16" d="M11.3,42.2c0,0-0.8-1.3-0.1-3.2c0.7-1.9,0.8-1.8,0.8-0.8c0,1-0.2,3.7,0.3,2.3s0.6-3,0.7-1.9
						c0.1,1.2-0.7,1.5-0.2,2.8c0.5,1.3-0.7,0.7-0.9,0.1C11.7,41,11.7,41,11.7,41S12.1,43.8,11.3,42.2z"/>
					<path class="st16" d="M13.8,46.9c-0.6-1.3-0.4-1.7-0.3-2.9c0.1-1.2,0.5-1.8,0.5-1.8s-0.6,2,0.2,3.3c0.8,1.3,0.4,1.8,0.4,1.8
						L13.8,46.9z"/>
					<path class="st16" d="M35.9,35.2c0,0,0.1,3.5,0.6,2.8c0.5-0.6,0.3-1.9-0.1-3.4s-1.9-2-1.4-1.4c0.5,0.5,0.6,2.1,0.6,2.1
						S35.3,36.2,35.9,35.2z"/>
					<path class="st16" d="M22.5,35.9c-0.2-0.3-0.6-1.3,0.3-0.8c0.9,0.5,0.1-1.4,0.7-0.7c0.6,0.6,1.5,0.7,1.2-0.1
						c-0.3-0.7-0.5-1.6,0.2-1c0.6,0.6,0.6-0.4,0.2-1c-0.4-0.6-0.8-1.6,0.1-0.9s1.1,0.8,1.7,1.7c0.6,1,1.3,3.1,0.4,2
						c-0.9-1-1.7-1.5-1.4-0.5c0.3,1,1.1,2.4-0.1,1.6c-1.1-0.8-1.7-1-1.5-0.4c0.2,0.7-1.4-0.7-1,0.2S22.5,35.9,22.5,35.9z"/>
					<path class="st7" d="M41.1,33.2c-1.3-1.3,0,0-0.9-3.3c-0.9-3.3,0.6-1.7,1.8-2.6c1-0.8,1.4-2.5,1.5-2.9c0.1,0.2,0.1,0.2,0-0.1
						c-0.2-1.4,0.9-3,1.4-2.7c0.4,0.3,0.5,4.9,0.5,3.7c0-1.3,0.8-1.7,1.1,0.1c0.3,1.8,2.2,0.8,2.6-0.3c0.4-1.2,0.1-3.4,0.5-5
						s1.2,3.7,1.9,3.5c0.7-0.2,0.1-3.4,0.4-5c0.3-1.6,2.2,3.8,2.3,1.7c0.1-2.1,1-2.2,2-0.6c1,1.6,2.5,1.4,2.8-0.4s0.8-2.3,1.6-2.6
						c0.8-0.2,2.2,2.6,2.1,1.1c-0.1-1.5-0.3-2.2,0.4-1.2c0.7,1.1,1.5,1.7,1.5,0.4s-1.8-3.1-1.8-3.1l2.3,1c0,0-1.8-2.5-0.5-1.8
						c1.3,0.7,2.7,2.4,2.7,2.4s-0.9-1.9,0.2-1.3c1,0.5,2.4,0.8,2.4,0.8l-0.9-1.9c0,0,1.5,0.2,3.3,1.6s2.2,1.5,2.5,0.8
						c0,0,1.9,0.5,2.5,2.5c0.6,2,0.9,4.4,1.3,3.4s0.3-3.3,0.3-3.3s0.7,3.6,0.6,4.7c0,0.5,0.1,1.5,0.3,2.3c-0.1,0.1-0.3,0.2-0.4,0.3
						c-1,0.7-0.2,0.7,0.6,1.2c-1.1,0.6-2.2,1.2-2.7,1.3c-1.2,0.3-3.7,0.8-7.2,1.8c-3.5,1-4.2-1.5-6.5-0.1c-2.3,1.5-2.7,1.8-3.6,1.9
						c-0.9,0-0.8,1.1-2.6,1.4s-2.3-0.6-3.4,0.7c-1,1.4-2.3-0.6-3.2,0.7s0.6,2.1-2.3,2.1c-2.8,0-3.4-0.7-4.7,0.1l-0.5-1.3
						C43.1,35.3,42.4,34.5,41.1,33.2z"/>
					<path class="st7" d="M44.3,40.5c-0.2,0.1-0.4,0.1-0.5,0c1.7-0.9,3.6-2.7,4.9-2.1c1.4,0.6,2.8-1.4,5.3-2.1
						c1.2-0.3,1.9-0.5,2.7-0.6c0.2,0.3,0.4,0.5,0.5,0.8c0.6,0.9,0.6,1.1,0.8,1.3c0.2,0.2-0.2-1.2,0.1-1c0.2,0.2,1.1,1.3,0.9,0.6
						s-0.3-1.1-0.3-1.1s1.3,1.3,0.9,0.5c-0.3-0.9,0.1-0.8,0.5-0.7c0.4,0.1,0.9,1.8,1.7,2.3c0.7,0.4-0.9-2-1.8-3.5
						c2.3-0.6,3.2-0.7,4.7-1.8c1.7-1.1,5.5-1.4,7.3-1.4c1.8-0.1,4.1,0.1,4.8-0.7s1.3-1.2,2-1.8c0.7-0.6,1.2-0.8,1.2-0.8
						c-0.1,0.2-0.1,0.3,0.1,0.4c0.2,0.5,0.5,1.5,0.8,2.1c0.4,0.9,1.1,1.3,0.2,3.7s-0.4,1.5-0.7,2.8c-0.3,1.4-1.7,4.5-2.6,3.9
						c-0.9-0.6-1.4-3.2-2.5-2.9c-0.5,0.1-0.8,1.1-1,2.2c-0.8-0.9-0.4,0.6-2.6,1.6c-2.4,1.1-3.9,0.9-6.3,1c-2.5,0.1-4.1,0.5-5.5,2
						c-1.4,1.4-3.1,2.4-5.2,3.6c-0.4,0.2-0.6,0.4-0.9,0.6c-0.5-0.2-1.1-0.3-1.8-0.5c-4-1-4.8-1.6-5.3-2.9c-0.6-1.3-1.7-0.8-1.9-2.8
						C44.4,41.1,45.2,40.2,44.3,40.5z"/>
					<path class="st16" d="M61.8,38.5c-0.9-0.5-1.3-2.2-1.7-2.3c-0.4-0.1-0.9-0.2-0.5,0.7c0.3,0.9-0.9-0.5-0.9-0.5s0.1,0.4,0.3,1.1
						s-0.6-0.3-0.9-0.6c-0.2-0.2,0.2,1.2-0.1,1c-0.2-0.2-0.2-0.5-0.8-1.3c-0.2-0.3-0.4-0.5-0.5-0.8c0.8-0.1,1.6-0.2,2.9-0.6
						c0.2,0,0.3-0.1,0.5-0.1C61,36.4,62.6,38.9,61.8,38.5z"/>
					<path class="st16" d="M72.2,34.6c0,0-1.3-1-1-0.1c0.2,0.9-0.4,0.6-0.8,0.3c-0.4-0.3-0.6,0-0.6,0.5c0.1,0.5-0.5-0.1-0.9,0.2
						c-0.5,0.2-0.7,0-0.5,0.9c0.2,0.9,0.4,2,0.7,1.9c0.3-0.1-0.2-1.5,0.3-1c0.5,0.5,0.8,1.2,1.1,0.3c0.3-0.9,0.6-1.7,1-1.1
						c0.4,0.5-0.3-1.3,0.2-0.9S72.2,34.6,72.2,34.6z"/>
					<path class="st16" d="M77.4,32.8c0,0,1.1,0.7,0.1,1.7s-0.5-1.6-0.5-1c0,0.6,0.3,2.6-0.5,2.1c-0.7-0.6-0.7-2.2-0.8-1.9
						c-0.1,0.3-0.5-0.4-0.8,0.3s-0.9-1.5-1-0.5c0,1-0.5,1.5-0.9,0.6c-0.4-0.9-0.1-1.6,0.4-1.4c0.5,0.3,1,0.5,1.2,0.1
						c0.2-0.4,1.1-0.6,1.3-0.1s0.5-0.8,0.8-0.3C76.9,33,77,32.4,77.4,32.8z"/>
					<path class="st16" d="M72.8,20.1c0,0-0.3-1.5-2-2.5c-1.7-1-1.8-0.9-1.1-0.1c0.7,0.8,2.5,2.8,1.3,2c-1.2-0.8-2.3-2-1.7-1
						c0.6,1,1.5,0.7,1.9,2.1c0.5,1.3,1,0,0.7-0.5s-0.2-0.6-0.2-0.6S73.2,21.9,72.8,20.1z"/>
					<path class="st16" d="M73.9,25.4c-0.4-1.4-0.7-1.6-1.6-2.4c-0.9-0.8-1.5-1-1.5-1s1.8,1.2,1.9,2.7c0.2,1.5,0.8,1.7,0.8,1.7
						L73.9,25.4z"/>
					<path class="st16" d="M49.4,30.3c0,0,2.1,2.8,1.4,2.6c-0.8-0.2-1.4-1.3-2-2.7c-0.6-1.4,0.2-2.7,0.2-1.9c-0.1,0.8,0.8,2,0.8,2
						S50.5,30.7,49.4,30.3z"/>
					<path class="st16" d="M60.1,22.4c0-0.4-0.4-1.4-0.7-0.4c-0.4,0.9-0.9-1-1-0.1s-0.7,1.5-1,0.7c-0.2-0.8-0.6-1.5-0.7-0.6
						S56,22,56,21.2c0-0.7-0.4-1.8-0.6-0.7S55,21.8,55.1,23c0.1,1.1,0.9,3.2,1,1.8s0.4-2.2,0.7-1.3c0.4,1,0.7,2.5,1.1,1.2
						s0.6-1.9,0.9-1.2c0.3,0.7,0.6-1.4,0.9-0.5C60.1,24,60.1,22.4,60.1,22.4z"/>
					<path class="st5" d="M79.9,18.7c-0.3-0.3-0.8-0.9-1.2-1.5c0,0.6,0,1-0.5,0.6c-1.1-0.8-1.1-2.2-1.7-2.1c-0.6,0-1.3,1.2-2.5-0.5
						c-1.1-1.7-1.4-1-1,0.2c0.3,1.2-0.5,1.1-2.1-0.2c-0.4-0.3-0.6-0.3-0.6,0l0.6,1.9c0.1,0.1,0.1,0.3,0.2,0.4c0.3,0.2,1.6,1.3,3,1.3
						c1.5,0,1.6-2.3,3,0.9s1.5,1.3,1.4,3.2c-0.1,1.8-0.2,3-0.2,3l0.5,1.3c0,0,0.1,0,0.1,0c0.4-0.1,1-0.2,1.6-0.3
						c-0.6-0.7,1.5-1.3,2.8-3c-0.3-1.1-0.7-2.8-1-3.8C81.6,18.4,80.8,19.5,79.9,18.7z"/>
					<path class="st6" d="M83.2,19.3c-0.6-0.9-1.9-0.9-1.9-0.9s-0.9-1.2-2.1-2.2c-0.7-0.6-0.5,0.3-0.5,1.1c0.4,0.6,0.9,1.2,1.2,1.5
						c0.8,0.8,1.7-0.3,2.3,1.3c0.4,1,0.8,2.6,1,3.8c0.1-0.2,0.2-0.3,0.4-0.5C84.9,21.2,83.7,20.1,83.2,19.3z"/>
					<path class="st6" d="M83.8,31.1c-0.5-1-1.1-1.6-1.7-2c0.2,0.6,0.3,1.4,0.3,2.3c0,1.9-0.6,3.7-0.2,4.7l0.6,1.6
						c0.5-0.2,0.5-1.3,0.1-2.4C82.5,33.7,84.8,33.1,83.8,31.1z"/>
					<path class="st5" d="M82.4,31.4c0-0.8-0.1-1.6-0.3-2.3c-0.4-0.3-0.9-0.6-1.3-0.8c-0.2,0.2-0.5,0.4-1,0.5
						c-0.2,0.1-0.4,0.1-0.5,0.1c-0.1,0.1-0.2,0.2-0.4,0.3c-0.9,0.4,0.2,0.6,1.4,2.3c1.1,1.7-0.1,2,0.3,3.4c0.4,1.4,0.3,2.3-2.3,5.6
						c-0.4,0.5-0.3,0.4-0.6,0.8c1.6,0,1.7,1.2,3,1.2c1.5,0,1-2,0.4-3.7s-0.3-1.9,0.9-1.3c0.3,0.2,0.6,0.2,0.7,0.1l-0.6-1.6
						C81.9,35.1,82.4,33.3,82.4,31.4z"/>
				</g>
			</g>
		</g>
	</g>
	<polygon class="st17" points="100.5,75.5 248.4,39.5 245.5,27.5 100.9,64.1 92.4,68.7 71.9,75.3 73.7,83.7 	"/>
	<g>
		<path class="st4" d="M60.1,122c8.3-1.7,16.7-28.8,19.5-36.4c1.8-4.9,3.9-15.7,5.1-22.8c-1.6,0.1-2.8,0.2-3.4,0.5
			C78.9,64.5,77,78.7,77,82.4c0,3.7-7.4,17.3-13,24.1c-5.6,6.8-5.6,13-13,13.6c-7.4,0.6-12.4-4.3-20.4-6.2c-8-1.9-11.8-6.8-16.1-5
			c-0.1,0-0.2,0.1-0.2,0.1c4.4,3.8,9.6,8,13.3,9.7C35.2,122.3,51.8,123.7,60.1,122z"/>
		<path class="st4" d="M101.8,63.2c-1,0-2.6-0.1-4.6-0.2c0,4,0.4,8.5,0.4,11.4c0-8,0.1,8.2-5.6,13.9c-3.5,3.5-7.6,11.8-9.7,18
			c-2.1,6.2-18.7,32.6-25,36.1s-18-4.9-25-9c-4-2.4-14.4-3.7-22.3-4.3c0.4,0.7,0.7,1,0.7,1s35.3,22.3,45.8,18
			c10.5-4.3,19.8-20.4,24.8-29.7c5-9.3,8-21,10.5-23.5c2.5-2.5,7.6-11.2,8.3-16.2c0.6-5-1.4-5.5,1-8
			C103.6,68.2,105.5,63.2,101.8,63.2z"/>
		<path class="st0" d="M57.4,142.4c6.2-3.5,22.9-29.8,25-36.1c2.1-6.2,6.2-14.6,9.7-18c5.7-5.7,5.6-21.8,5.6-13.9
			c0-2.9-0.5-7.4-0.4-11.4c-3.9-0.2-9-0.5-12.5-0.3c-1.3,7.1-3.4,17.9-5.1,22.8c-2.8,7.6-11.2,34.7-19.5,36.4
			c-8.3,1.7-25,0.3-32.6-3.1c-3.7-1.7-8.9-5.9-13.3-9.7c-4.2,1.8-7.2,3.7-6.6,11c0.4,4.9,1.6,7.6,2.4,8.9c8,0.6,18.3,1.9,22.3,4.3
			C39.3,137.6,51.1,145.9,57.4,142.4z"/>
	</g>
	<path class="st0" d="M120.1,59.2c0,0,3,5.4,8.1,3.8c5.1-1.6,15-8,9.6-7.7C132.4,55.5,120.1,59.2,120.1,59.2z"/>
</g>
</svg>
