<!-- Generator: Adobe Illustrator 21.1.0, SVG Export Plug-In  -->
<svg version="1.1"
	 xmlns="http://www.w3.org/2000/svg" xmlns:xlink="http://www.w3.org/1999/xlink" xmlns:a="http://ns.adobe.com/AdobeSVGViewerExtensions/3.0/"
	 x="0px" y="0px" width="177.5px" height="116.6px" viewBox="0 0 177.5 116.6" style="enable-background:new 0 0 177.5 116.6;"
	 xml:space="preserve">
<style type="text/css">
	.st0{fill:url(#SVGID_1_);}
	.st1{fill:url(#SVGID_2_);}
	.st2{fill:url(#SVGID_3_);}
	.st3{fill:url(#SVGID_4_);}
</style>
<defs>
</defs>
<g>
	<g>
		<g>
			<g>
				<g>
					<linearGradient id="SVGID_1_" gradientUnits="userSpaceOnUse" x1="55.7205" y1="8.0739" x2="121.543" y2="117.621">
						<stop  offset="0" style="stop-color:#FFFFFF"/>
						<stop  offset="0.4907" style="stop-color:#E0E0DF"/>
						<stop  offset="0.7729" style="stop-color:#CECECD"/>
						<stop  offset="1" style="stop-color:#C5C5C4"/>
					</linearGradient>
					<path class="st0" d="M149.3,35c-0.8,0-1.6,0-2.3,0.1c-1.4-12-12.7-21.1-26.5-21.1c-3.9,0-7.7,0.7-11.2,2.2
						C103.4,6.2,92.3,0,80,0C65.1,0,52.2,9.2,48,22.6c-2.5-1-5.2-1.5-7.9-1.5c-8.9,0-17,5.6-20.4,13.9C8,38.8,0,49.9,0,62.4
						C0,78.2,12.6,91,28.2,91c1.6,0,3.2-0.1,4.9-0.4c3.7,9.4,13.8,15.8,25.2,15.8c6.8,0,13.3-2.3,18.2-6.3
						c5.8,10.1,17.1,16.6,29.4,16.6c10.6,0,20.5-4.7,26.8-12.7c1.5,0.3,3.1,0.5,4.7,0.5c8.8,0,16.6-5.2,20.2-13.3
						c11.8-3.7,19.9-14.8,19.9-27.4C177.5,47.9,164.9,35,149.3,35z"/>
					
						<radialGradient id="SVGID_2_" cx="75.1547" cy="72.5406" r="187.2482" gradientTransform="matrix(0.9472 0 0 0.9621 -70.5608 -41.3135)" gradientUnits="userSpaceOnUse">
						<stop  offset="0" style="stop-color:#C5C5C4"/>
						<stop  offset="0.2271" style="stop-color:#CECECD"/>
						<stop  offset="0.5093" style="stop-color:#E0E0DF"/>
						<stop  offset="1" style="stop-color:#FFFFFF"/>
					</radialGradient>
					<path class="st1" d="M175.8,63.7c0-14.9-11.9-27-26.5-27c-1.3,0-2.6,0.1-3.9,0.3c-0.4-11.8-11.4-21.3-25-21.3
						c-4.3,0-8.3,0.9-11.9,2.6C103.4,8.5,92.6,1.7,80,1.7c-15.1,0-27.7,9.9-31,23.2c-2.7-1.4-5.7-2.1-9-2.1
						c-8.8,0-16.3,5.7-19.2,13.6C9.8,39.6,1.7,50,1.7,62.4c0,14.9,11.9,27,26.5,27c2,0,4-0.2,5.9-0.7c2.9,9.3,12.6,16.1,24.1,16.1
						c7.4,0,14.1-2.8,18.7-7.3c5,10.4,16.1,17.6,29,17.6c10.9,0,20.4-5.1,26.2-12.9c1.7,0.5,3.5,0.7,5.4,0.7c8.6,0,15.9-5.4,18.9-13
						C167.6,86.6,175.8,76.1,175.8,63.7z M122.7,59.5c0.2,0,0.3,0,0.5,0c0,0.1,0,0.2,0,0.3C123,59.6,122.8,59.5,122.7,59.5z"/>
				</g>
			</g>
		</g>
	</g>
</g>
</svg>
