<!-- Generator: Adobe Illustrator 21.1.0, SVG Export Plug-In  -->
<svg version="1.1"
	 xmlns="http://www.w3.org/2000/svg" xmlns:xlink="http://www.w3.org/1999/xlink" xmlns:a="http://ns.adobe.com/AdobeSVGViewerExtensions/3.0/"
	 x="0px" y="0px" width="118.8px" height="116.7px" viewBox="0 0 118.8 116.7" style="enable-background:new 0 0 118.8 116.7;"
	 xml:space="preserve">
<style type="text/css">
	.st0{fill:#59584E;}
	.st1{fill:#A3A18D;}
	.st2{fill:#878574;}
	.st3{fill:#8F8D7B;}
	.st4{fill:#999784;}
	.st5{fill:#737263;}
	.st6{fill:#69675A;}
	.st7{fill:#4F4E45;}
	.st8{fill:#6D6C5E;}
	.st9{fill:#828070;}
	.st10{fill:#525147;}
	.st11{fill:#545349;}
	.st12{fill:#42423A;}
	.st13{fill:#969482;}
</style>
<defs>
</defs>
<g>
	<polygon class="st0" points="32.8,0 93.4,41.9 118.8,83.2 99.5,112.8 66.1,116.7 31.1,80.4 0,18.3 	"/>
	<polygon class="st1" points="118.8,83.2 99.5,112.8 66.1,116.7 65.4,113.2 75.4,102.2 79.1,99.3 99.2,93.1 	"/>
	<polygon class="st2" points="100.6,109.1 96.4,111.7 78.2,114.4 69.1,115.4 68.1,113.7 70,109.7 75.9,103.8 81.6,100.1 89.2,99.7 
		100,95.7 111.4,88.2 114.7,87.5 	"/>
	<polygon class="st3" points="110.6,91.4 100.8,107.6 95.2,111.3 74.1,114.1 70.5,114.1 75.9,108.1 86.4,106.4 99.7,97.9 
		104.1,98.2 	"/>
	<polygon class="st4" points="118.8,83.2 99.2,93.1 79.1,99.3 79.5,83.4 84.1,64.3 86,64.1 99.7,73.7 111.5,78.5 	"/>
	<path class="st2" d="M116.5,82.5l-1.9,1.5l-9,3.2l-6.2,4.4l-11.3,3.3l-5.8,2.3L80.7,96l0-6.4l0.1-5.2l2.4-7.1c0,0,2.1-8.5,2.3-9.5
		c0.2-0.9,3.3-0.5,3.6,0c0.2,0.5,9.6,8.5,9.6,8.5l11.7,3.3L116.5,82.5z"/>
	<polygon class="st5" points="118.8,83.2 111.5,78.5 99.7,73.7 86,64.1 91.5,51.2 93.4,41.9 	"/>
	<polygon class="st6" points="115.2,77.3 96,46 94.7,45.6 93.4,46.1 88.4,61.7 89.4,65.3 100.8,73.5 112.2,77 115.8,79.6 	"/>
	<polygon class="st7" points="32.8,0 93.4,41.9 91.5,51.2 86,64.1 84.1,64.3 37.7,30.5 22.5,5.9 	"/>
	<polygon class="st8" points="37.7,30.5 29.9,50 31.1,80.4 66.1,116.7 65.4,113.2 75.4,102.2 79.1,99.3 79.5,83.4 84.1,64.3 	"/>
	<polygon class="st2" points="80.6,63.5 82.9,66.2 77.5,82.9 77.7,95.5 76.3,99.6 67.9,106.8 64.9,111.6 64.2,114.8 37.5,86 
		32.6,79.8 31.8,72.9 34.4,59 38.2,44.9 43.5,38.4 64,51.2 	"/>
	<polygon class="st9" points="31.8,72.9 32.6,79.8 37.5,86 53.8,103.5 57.6,95.6 53.8,84.8 55.6,69.9 66.7,59.2 59.8,48.7 
		43.5,38.4 38.2,44.9 34.4,59 	"/>
	<polygon class="st10" points="20.6,8.8 28.7,27.6 19.2,40.6 25.4,52.6 26.2,67.6 1.1,18.5 	"/>
	<polygon class="st11" points="90.4,42 90.9,49.7 86,60.5 82,61.4 53.7,38.5 41.1,31.2 35.2,24.7 24.5,5.6 32.3,1 64.5,25.2 	"/>
	<polygon class="st12" points="14.5,10.2 2,17.2 6,17.3 6.9,20.6 14.2,24.9 15.4,28.4 14.8,34.7 19,39 19.2,40.6 23.8,43.3 
		25.6,46.2 24.8,43.1 21.9,40.2 26.1,39.2 28.5,43.8 32.1,44.9 35.8,47.8 38.2,44.9 35.6,46.5 32.3,42.6 29.9,41.7 27.9,37.5 
		22.4,37.7 18.2,33.1 19,24.5 10.8,19 11,14.8 	"/>
	<polygon class="st13" points="38.2,44.9 35.8,46.9 32.1,42.9 29.8,42.2 27.5,37.8 22.2,38.2 18.2,33.1 22.6,37.3 28.2,36.7 
		29.9,41.7 32.7,42.4 35.7,46 	"/>
</g>
</svg>
