<!-- Generator: Adobe Illustrator 21.1.0, SVG Export Plug-In  -->
<svg version="1.1"
	 xmlns="http://www.w3.org/2000/svg" xmlns:xlink="http://www.w3.org/1999/xlink" xmlns:a="http://ns.adobe.com/AdobeSVGViewerExtensions/3.0/"
	 x="0px" y="0px" width="359.6px" height="493.2px" viewBox="0 0 359.6 493.2" style="enable-background:new 0 0 359.6 493.2;"
	 xml:space="preserve">
<style type="text/css">
	.st0{fill:#C98A5B;}
	.st1{fill:#AD7957;}
	.st2{fill:#AD776F;}
	.st3{fill:#C32227;}
	.st4{fill:#D12130;}
	.st5{fill:#C9C9C9;}
	.st6{fill:#A31925;}
	.st7{fill:#BE1E2D;}
	.st8{fill:#274A2F;}
	.st9{fill:#436542;}
	.st10{fill:#2D1012;}
	.st11{fill:#860E19;}
	.st12{fill:#281A1A;}
	.st13{fill:#170606;}
	.st14{fill:#423D3A;}
	.st15{fill:#2F2B29;}
	.st16{fill:#1A2267;}
	.st17{fill:#2B3990;}
	.st18{fill:#FFFFFF;}
	.st19{fill:#231F20;}
	.st20{fill:#9E6E54;}
	.st21{fill:#3C2415;}
	.st22{fill:#2F1A0A;}
	.st23{fill:#BF835A;}
	.st24{fill:#DB9E75;}
</style>
<defs>
</defs>
<g>
	<g>
		<path class="st0" d="M230.4,173.8c-3.6-0.7-8-10.5-11.6-11.6c-3.6-1.1-17.2-20.8-18.3-22.1c-0.5-0.5-0.9-3.1-1.2-5.9
			c-2.6,0.7-11.8,8.3-17.9,9.4s-9.4-5.4-9.4-5.4v4.7c0,0-15.5,8.3-18.4,9c-2.9,0.7-23,2.2-23.4,6.8c-0.4,4.7,45.9,43.4,45.9,43.4
			l64.1,11.6c0,0,3.2-51.4,3.2-52.9C243.6,159.4,234,174.6,230.4,173.8z"/>
		<path class="st1" d="M181.4,143.6c6.1-1.1,15.3-8.6,17.9-9.4c-0.4-3.8-0.6-7.9-0.6-7.9c-12.6,10.4-26.4-1.7-26.4-1.7l-0.2,13.6
			C172,138.2,175.3,144.7,181.4,143.6z"/>
	</g>
	<g>
		<g>
			<path class="st2" d="M142,328.3c0,0-1.3,35.4,4,49.6c5.3,14.2,23.6,37.8,23,45.5c-0.6,7.7,1.8,8.9,0,13.6
				c-1.8,4.7,12.1,6.5,14,4.7c1.9-1.8-1-18.3-3.4-31.3c-2.4-13-3.3-24.3-4.5-34.8c-1.1-10.5-5-47.2-5-47.2H142z"/>
			<path class="st2" d="M229.2,336c0,0,8.9,22.4,2.4,37.2c-6.5,14.8-1.8,28.9-2.4,36s5.4,30.1,1.8,36.6s-2.9,16-2.9,16
				s0,9.1,5.9,8.3c5.9-0.7,10-14.3,11.2-22.6c1.2-8.3,5.9-40.7,11.8-54.3c5.9-13.6,2.4-49,0-57.3C254.6,327.7,229.2,336,229.2,336z"
				/>
			<path class="st3" d="M241.6,204.9c0,0,15.4,9,16,18.7c0.5,9.7-2.3,10.8,0,16.2c2.3,5.3,5.6-2.8,3.9,11.2c-1.8,14,1.7,17.7,6,23
				c4.3,5.3,11.4,5.3,8.7,14.2s-9.7,21.3-4.4,21.8s4.4-7.1,11.1-6.5c6.7,0.6,11.4,0.6,13.8-4.7c2.4-5.3,7.9-20.7,6.9-27.2
				c-1-6.5-10.4-12.1-12.2-26.7c-1.8-14.6-9.6-36-14-46.6c-4.3-10.6-3.4-12.9-9.8-20c-6.4-7.1-16.6-14.3-16.6-14.3
				s-21.1-5.9-25.5-6.1c-4.4-0.2-9.2-4.5-13.3,0c-4.1,4.5-11.2,9.2-19.4,8.6c-8.3-0.6-20.1-11.1-24.8-15.3
				c-4.7-4.2-22.4-7.1-37.2-5.4c-14.8,1.8-31.3,8.2-42.5,7.6c-11.2-0.6-24.3-8.2-35.5-15.9s-13.8-9.4-13.8-9.4s-0.4,20.1-8.1,21.8
				s-8.2,7.1-8.2,7.1s10,18.8,13.6,26.8c3.5,8,11.2,14.5,11.2,14.5s6.4-18.1,10.9-16.4c4.5,1.7,47.5,6.4,57.3,5.8
				c9.8-0.6,27.7-0.6,27.7-0.6s5.1,19.4,11,30.4c5.9,10.9,7.9,26.5,4.8,37.9c-3.1,11.4-1.8,23.9-1.8,23.9s5-11.8,25.8-12.4
				s36.6-5.3,46.1-4.1c9.5,1.2,28.6,13,28.6,13L241.6,204.9z"/>
			<path class="st4" d="M132.9,319.8c0,0,3,52.8,5.4,59.9l3.7-39.6l10.1,34.8l16.9-31.3c0,0,7.7,16.5,0,25.4s-6.8,10.6-6.8,10.6
				s8.1-3.5,10.4-8.3c2.3-4.7,1.4-24.2,10.4-36c9-11.8,6.2-14.2,12.6-18.9c6.4-4.7,7.6-13.6,7.6-13.6s2.4,15.9,4.7,21.3
				s12.4,8.3,12.4,21.8c0,13.6,1.8,21.8,4.7,27.8s6.5,10.6,6.5,10.6v-11.2c0,0-5.9-8.9-6.5-14.2c-0.6-5.3,0-11.2,0-11.2
				s6.5,5.3,6.5,15.4c0,10,4.7,16.5,4.7,16.5s3.5-12.4,5.9-15.4c2.4-3,12.4-20.7,12.4-20.7s3.2,31.3,3.1,35.4
				c-0.1,4.1,4-9.4,4.6-14.8s-1.8-45.5,0-57.9c1.8-12.4-1.3-16.8-4.5-30.7c-3.2-13.9-28-23.6-28-23.6l-39.6,5l-30.1,18.1l-14.8,12
				L132.9,319.8z"/>
			<path d="M222.7,461.8c0,0,5.9,0.4,10-4.3c4.1-4.6,3.5-5.7,8.9-4.3c5.3,1.4,7.7,12.9,11.8,16.9c4.1,4,8.8,5.6,6.8,11.9
				c-2.1,6.3-5.6,12.2-11.5,11c-5.9-1.2-11.2,2.1-16.5-9.3C226.8,472.4,222.7,461.8,222.7,461.8z"/>
			<path d="M162.2,426.3c0,0,9.3-4.7,10.4,2.4c1.1,7.1,9.8,12.4,10.4,10c0.6-2.3,3.9-6.7,3.9-6.7s6.9,9.6,3.4,15
				c-3.5,5.3-13,12.8-20.7,17.6c-7.7,4.8-17.1,10.4-24.8,5.5s-6.5-7.8,2.4-16.7c8.9-8.8,15.4-7.1,15.1-14.7
				C161.9,431.1,162.2,426.3,162.2,426.3z"/>
			<path d="M38.8,132.3c0,0-8.1-3.3-6.7-13.5c1.4-10.1-1.6-17.2-9.6-18s-16.3-7.1-19.2,0c-2.9,7.1,0,13,0,13s-2.7-3.7-2.8,5.1
				s2.4,11.2,0,16.4s3.8,9.7,8.5,8.9s4.9-6.3,10.3-7.1s3.1-5.5,3.1-5.5s-5,5.7,0,12.7s8.2,5.8,8.2,5.8S45.5,145.8,38.8,132.3z"/>
			<path d="M152.1,165.4c0,0,3.3,38.8,8,45.1c4.7,6.3,19.2,24,26.7,27.5s15.1,0.7,25.2-14.4c10.1-15.1,17.5-31.2,19.4-39.7
				c1.9-8.5,2.5-26,2.5-26l20.6,7.4c0,0-14.2,32.5-13,39.6s6.5,13.1,10,18.7c3.5,5.5,2,24.5,6,35.4c4,10.9,9.8,33.9,9.8,33.9
				s-12.8-21.3-33.5-23s-23-6.5-30.1-3.5c-7.1,3-23,11-40.4,19.6c-17.4,8.7-34.3,35.3-32.6,42.9c1.6,7.7-0.1,11.2-0.1,11.2l1.7-3.5
				c0,0-6.8-13,9.6-43.1s17.6-34.1,17-38c-0.6-3.9-4.7-16.8-3-19.8s1.8-3,1.8-3s-12.2-28.9-15-38.4c-2.7-9.4-4.5-19.5-3.9-27.2
				c0.6-7.7,3.9-13.6,3.9-13.6L152.1,165.4z"/>
		</g>
	</g>
	<rect x="7.1" y="25.4" class="st5" width="7.5" height="436.5"/>
	<g>
		<g>
			<path class="st6" d="M281.8,299v-7.1l-4,5.2c0,0-19.7,9.4-22.1,11.7c-0.1,0.1-0.2,0.2-0.3,0.3C259.6,310.6,273.3,314.2,281.8,299
				z"/>
			<path class="st7" d="M255.5,309.1c-2.4,2.7-6.9,10.8-6.9,10.8l0.4,55.6c0,0,9.9,1.9,12.2,7.2c1.3,3,1.6,16.9,12.6,16.9
				c6.4,0,8-3.5,8-3.5V299C273.3,314.2,259.6,310.6,255.5,309.1z"/>
			<path class="st8" d="M219.7,345.5c-8.3-9-9.2-21.7-8.8-29.5c-0.2-0.5-0.3-0.7-0.3-0.7c-5.1,10.6-6.7,23.7,6.8,40.8
				c13.7,17.4,33.2,19.8,33.1,19.7l-0.5-10.8C243.5,362.4,229.3,355.9,219.7,345.5z"/>
			<path class="st9" d="M219.7,345.5c9.6,10.4,23.8,16.9,30.3,19.5l-0.9-20.7c0,0-4.7-1.2-17.1-4.9c-11-3.3-19.3-19.8-21-23.4
				C210.5,323.8,211.4,336.5,219.7,345.5z"/>
			<polygon class="st10" points="281.8,353.2 271.5,354.8 281.8,342.6 			"/>
			<polygon class="st11" points="279.5,343.7 279.5,323.2 278.1,324.6 278.1,344.4 			"/>
			<g>
				<path class="st12" d="M249,344.4C249.3,344.4,248.7,344.4,249,344.4v-24.5c0,0-17.6,0.7-22.5-10.1c-4.9-10.8-6.1-17.6-5.6-23.5
					c0.5-5.9-8.9-18.3-8.9-18.3s1.2,17.4-1.4,22.8c-1.7,3.6-2,13.3-0.5,21.7C214.3,322.8,225.2,336.5,249,344.4z"/>
				<path class="st13" d="M210,312.5c0.7,4.2,1.9,8.1,3.6,10.7c4.9,7.6,17.8,22.1,35.4,21.2C225.2,336.5,214.3,322.8,210,312.5z"/>
			</g>
			<path class="st14" d="M254.9,306.6c2,0.4,3.2,0.5,3.2,0.5l3.2-24c0,0-7.1,6.1-12.3,3.1c-5.2-3.1-9.9-6.1-8.9-13.6
				c0.9-7.5-2.6-11-9.9-17.1c0,0,4.5,13.8,1.6,20.4c-0.7,1.7-1.2,3.6-1.4,5.6C232.6,288.8,238.5,299.4,254.9,306.6z"/>
			<path class="st15" d="M230.5,281.4c-0.5,5.8,1.7,12.5,8.4,17.8c6,4.7,12.3,6.6,16,7.4C238.5,299.4,232.6,288.8,230.5,281.4z"/>
			<g>
				<path class="st16" d="M263,282.7c-5.9,2.2-8.4,4.8-8.6,14.6c-0.3,10.6,8.2,12.1,13.1,11.3C261.4,305.8,251.6,298.4,263,282.7z"
					/>
				<path class="st17" d="M281.1,286.6c0,0-9.1-6.8-16.3-4.5c-0.6,0.2-1.2,0.4-1.8,0.6c-11.4,15.6-1.6,23.1,4.5,25.9
					c0.1,0,0.2,0,0.3,0c4.8-0.9,11.8-7.3,13.4-11.5C282.7,292.9,281.1,286.6,281.1,286.6z"/>
			</g>
			<polygon class="st11" points="252.7,330.2 260.9,335.9 271.5,330.2 262.1,340.5 251.8,332.7 			"/>
			<path class="st18" d="M252.7,330.2c0,0,7-5.2,8.5-4.9c1.5,0.2,10.2,4.2,10.2,4.9c0,0.7-8.7,6.3-9.4,6.6s-0.7,0.7-4-1.2
				c-3.3-1.9-6.3-3.9-6.3-4.5S252.7,330.2,252.7,330.2z"/>
			<path class="st19" d="M260.7,325.4c0,0-0.8,8.6,0.5,11.7l0.8-0.2c0,0,1-10.2,0.7-11C262.8,325.8,261.8,324.9,260.7,325.4z"/>
			<polygon class="st6" points="250.1,375.8 265.4,353.1 249,344.3 			"/>
			<path class="st6" d="M249,344.3l0-24c0,0,0.5,14.5,3.9,16.7C252.9,337,249.4,341.2,249,344.3z"/>
			<path class="st11" d="M282.1,375.5c0,0-12-4.5-12.8-4.2s-3.8,0-5,0.8s-1.9,2.5,0,3.4s17.8,9.9,17.8,9.9V375.5z"/>
			<path class="st10" d="M282.1,375.5v-7.4c0,0-1.1-2.7-3.7-1.4s-7.5,4.8-7.5,4.8L282.1,375.5z"/>
		</g>
		<g>
			<path class="st6" d="M284.6,299v-7.1l4,5.2c0,0,19.7,9.4,22.1,11.7c0.1,0.1,0.2,0.2,0.3,0.3C306.9,310.6,293.1,314.2,284.6,299z"
				/>
			<path class="st7" d="M310.9,309.1c2.4,2.7,6.9,10.8,6.9,10.8l-0.4,55.6c0,0-9.9,1.9-12.2,7.2c-1.3,3-1.6,16.9-12.6,16.9
				c-6.4,0-8-3.5-8-3.5V299C293.1,314.2,306.9,310.6,310.9,309.1z"/>
			<path class="st8" d="M346.8,345.5c8.3-9,9.2-21.7,8.8-29.5c0.2-0.5,0.3-0.7,0.3-0.7c5.1,10.6,6.7,23.7-6.8,40.8
				c-13.7,17.4-33.2,19.8-33.1,19.7l0.5-10.8C323,362.4,337.2,355.9,346.8,345.5z"/>
			<path class="st9" d="M346.8,345.5c-9.6,10.4-23.8,16.9-30.3,19.5l0.9-20.7c0,0,4.7-1.2,17.1-4.9c11-3.3,19.3-19.8,21-23.4
				C356,323.8,355.1,336.5,346.8,345.5z"/>
			<polygon class="st10" points="284.6,353.2 294.9,354.8 284.6,342.6 			"/>
			<polygon class="st11" points="286.9,343.7 286.9,323.2 288.4,324.6 288.4,344.4 			"/>
			<g>
				<path class="st12" d="M317.5,344.4C317.2,344.4,317.8,344.4,317.5,344.4v-24.5c0,0,17.6,0.7,22.5-10.1
					c4.9-10.8,6.1-17.6,5.6-23.5c-0.5-5.9,8.9-18.3,8.9-18.3s-1.2,17.4,1.4,22.8c1.7,3.6,2,13.3,0.5,21.7
					C352.2,322.8,341.3,336.5,317.5,344.4z"/>
				<path class="st13" d="M356.5,312.5c-0.7,4.2-1.9,8.1-3.6,10.7c-4.9,7.6-17.8,22.1-35.4,21.2
					C341.3,336.5,352.2,322.8,356.5,312.5z"/>
			</g>
			<path class="st14" d="M311.6,306.6c-2,0.4-3.2,0.5-3.2,0.5l-3.2-24c0,0,7.1,6.1,12.3,3.1c5.2-3.1,9.9-6.1,8.9-13.6
				s2.6-11,9.9-17.1c0,0-4.5,13.8-1.6,20.4c0.7,1.7,1.2,3.6,1.4,5.6C333.9,288.8,328,299.4,311.6,306.6z"/>
			<path class="st15" d="M336,281.4c0.5,5.8-1.7,12.5-8.4,17.8c-6,4.7-12.3,6.6-16,7.4C328,299.4,333.9,288.8,336,281.4z"/>
			<g>
				<path class="st16" d="M303.5,282.7c5.9,2.2,8.4,4.8,8.6,14.6c0.3,10.6-8.2,12.1-13.1,11.3C305.1,305.8,314.9,298.4,303.5,282.7z
					"/>
				<path class="st17" d="M285.3,286.6c0,0,9.1-6.8,16.3-4.5c0.6,0.2,1.2,0.4,1.8,0.6c11.4,15.6,1.6,23.1-4.5,25.9
					c-0.1,0-0.2,0-0.3,0c-4.8-0.9-11.8-7.3-13.4-11.5C283.7,292.9,285.3,286.6,285.3,286.6z"/>
			</g>
			<polygon class="st11" points="313.7,330.2 305.5,335.9 294.9,330.2 304.3,340.5 314.6,332.7 			"/>
			<path class="st18" d="M313.7,330.2c0,0-7-5.2-8.5-4.9c-1.5,0.2-10.2,4.2-10.2,4.9c0,0.7,8.7,6.3,9.4,6.6s0.7,0.7,4-1.2
				s6.3-3.9,6.3-4.5S313.7,330.2,313.7,330.2z"/>
			<path class="st19" d="M305.7,325.4c0,0,0.8,8.6-0.5,11.7l-0.8-0.2c0,0-1-10.2-0.7-11C303.6,325.8,304.7,324.9,305.7,325.4z"/>
			<polygon class="st6" points="316.4,375.8 301,353.1 317.5,344.3 			"/>
			<path class="st6" d="M317.5,344.3l0-24c0,0-0.5,14.5-3.9,16.7C313.6,337,317.1,341.2,317.5,344.3z"/>
			<path class="st11" d="M284.4,375.5c0,0,12-4.5,12.8-4.2c0.8,0.3,3.8,0,5,0.8c1.3,0.8,1.9,2.5,0,3.4c-1.9,0.9-17.8,9.9-17.8,9.9
				V375.5z"/>
			<path class="st10" d="M284.4,375.5v-7.4c0,0,1.1-2.7,3.7-1.4c2.7,1.3,7.5,4.8,7.5,4.8L284.4,375.5z"/>
		</g>
	</g>
	<g>
		<path class="st0" d="M147.4,58.4c-0.2-1.7-1.1-4.9-5-4.6c-5.4,0.3-5.1,10.5-4.5,13.1c0.6,2.5,4.2,11.1,9.6,11.7v-19L147.4,58.4z"
			/>
		<path class="st20" d="M140.1,61.2c0,0,3-2.7,4.6,0c0,0-3.3,1.9-3.3,4.5s1,5.3,4.5,6.2c0,0-2.2-1.6-2.1-5.3c0.2-3.6,2.1-3,2.1-3
			s1.4-5.6-2.1-6.1C140.3,57.1,140.1,61.2,140.1,61.2z"/>
		<path class="st0" d="M221.5,56.2c0.2-1.7,1.1-4.9,5-4.6c5.4,0.3,5.1,10.5,4.5,13.1s-4.2,11.1-9.6,11.7v-19L221.5,56.2z"/>
		<path class="st20" d="M228.7,59c0,0-3-2.7-4.6,0c0,0,3.3,1.9,3.3,4.5c0,2.5-1,5.3-4.5,6.2c0,0,2.2-1.6,2.1-5.3
			c-0.2-3.6-2.1-3-2.1-3s-1.4-5.6,2.1-6.1C228.6,54.9,228.7,59,228.7,59z"/>
		<path class="st21" d="M214.5,109c0,0,4.6,7.2,3.6,11.8c-1,4.6-4.1,6.6-4.1,6.6s7.2,4.1,4.1,9.7c-3.1,5.6-7.2,9.7-7.2,9.7
			s8.7,3.1,5.6,11.2c-3.1,8.2-6.6,6.1-6.6,6.1s3.6,8.7,0,12.8c-3.6,4.1-14.8,5.6-14.8,5.6s5.6-6.1,6.1-8.7s-5.6-5.1-4.1-11.8
			c1.5-6.6,6.6-10.2,6.6-10.2s-6.6-5.6-3.1-10.7s6.1-7.2,6.1-7.2s-7.7-3.1-4.1-9.2s1.5-6.1,2-11.2S214.5,109,214.5,109z"/>
		<path class="st22" d="M212.2,109.4c0,0,2.2,9.6-1.1,13.3c-3.3,3.7-4.4,5.9-4.4,5.9s4.8,5.2,5.5,7c0.7,1.8-6.3,6.3-5.9,10.3
			c0.4,4.1,4.8,6.6,2.2,10.3c-2.6,3.7-7.4,1.1-5.9,7.7c1.5,6.6,3.3,8.5,2.6,10s-3.3,7-3.3,7s7.7-5.2,6.3-9.6
			c-1.5-4.4-4.8-8.1-2.6-10.3c2.2-2.2,5.2-0.7,5.5-3.3c0.4-2.6-4.1-10.7-2.2-13.6s9.6-8.5,6.6-10s-7.4-4.4-6.3-5.9
			c1.1-1.5,7.4-8.1,7.4-10C216.6,116.4,212.2,109.4,212.2,109.4z"/>
		<path class="st23" d="M151.5,55.6c0-9.6,2.8-34.1,4.2-45.5c-5.5,2.5-9.6,6.3-9.6,9.3c0,4.8-0.4,7.4-0.4,7.4s1.8,50.9,1.8,57.9
			c0,6.7,1.3,6.3,5.3,14.3C151,83.9,151.5,64.5,151.5,55.6z"/>
		<path class="st23" d="M221.8,47.5c0-9.6-2.2-24.7-3.3-28.8c-0.8-2.8-4.6-7.1-9.2-9.6c1.9,17.1,5.3,48.3,5.3,58.1
			c0,13.8-2.2,24.9-8.8,44.2c-2.1,6.1-3.9,10.8-5.5,14.4c7.2-6.2,12.4-12.7,14.9-16.8c2.9-4.8,5.2-5.2,6.3-14
			C222.5,86.2,221.8,57.1,221.8,47.5z"/>
		<path class="st0" d="M214.6,67.2c0-9.8-3.4-41-5.3-58.1c-2.1-1.2-4.4-2-6.7-2.2c-7-0.4-26.9-0.4-36.5,0.4
			c-3.5,0.3-7.2,1.3-10.3,2.8c-1.4,11.4-4.2,35.8-4.2,45.5c0,8.9-0.5,28.3,1.4,43.4c0.2,0.4,0.4,0.8,0.6,1.2c4.4,9.2,21.4,28,24,31
			c2.6,2.9,9.6,4.8,18.8-2.2c1.4-1,2.6-2.1,3.9-3.1c1.6-3.6,3.4-8.3,5.5-14.4C212.4,92.1,214.6,81,214.6,67.2z"/>
		<path class="st24" d="M189.7,52.3c0,0-8.8,13.8-8.3,21.6s0.6,8.8,5,7.7c4.4-1.1,10-5.5,10-5.5s-7.7,4.4-9.4-1.1
			S189.7,52.3,189.7,52.3z"/>
		<path class="st1" d="M184.2,51.7c0,0-11.1,8.3-11.1,17.7s0,18.8,2.8,18.8c2.8,0,8.8-0.6,8.8-0.6s-3.6,0.1-5.5-2.6
			c-2.1-2.9-2.5-8.9-1.7-12.6C179.2,65.3,184.2,51.7,184.2,51.7z"/>
		<path class="st20" d="M190.2,47.3c0,0-10,6.6-10.5,20.5s-1.7,20.5,3.9,17.7c5.5-2.8,11.1-6.6,16-6.6c0,0-22.1,18.2-22.7,3.9
			S175.3,56.1,190.2,47.3z"/>
		<path class="st1" d="M165.1,28.2c0,0,7.5-2.1,18.5-2.1c10.9,0,21,1,21,1s-10,0.3-21,1C172.6,29,165.1,28.2,165.1,28.2z"/>
		<path class="st1" d="M175.4,33.1c0,0,3.4-2.1,6.4-2.3c3.1-0.3,9.5,1.2,9.5,1.2s-6.3-0.8-9.3-0.1S175.4,33.1,175.4,33.1z"/>
		<path class="st1" d="M172.7,36.7c0,0,5.8,0.3,10.7-0.4s13.8-1.3,13.8-1.3s-6.1,1.5-9.2,1.9C185,37.4,180,38.9,172.7,36.7z"/>
		<path class="st22" d="M219.3,34c-2.8-5.8-11.1-8.6-18.8-11.3c-7.7-2.8-14.1-11.9-14.9-13.5s-3.3-3.6-5.8,3.9
			c-2.5,7.5-8.6,4.4-16.9,9.1s-13.3,7.2-16,16.3c-1.6,5.2-1.3,10.9-0.7,14.8c0.1,0.5,0.3,1,0.4,1.5c0,0,0.6-20.9,10.2-24.4
			c9.6-3.6,25.4-8.7,26.6-16.9c0,0,6.8,8.7,18.1,14.8c11.3,6.1,15.3,6.1,17,10.8c1,2.8,2.2,9.9,2.9,15
			C221.4,49.2,221.4,38.5,219.3,34z"/>
		<path class="st21" d="M204.2,3.7c-21.9-6.5-45.1-4.3-53,5.5c-7.7,9.4-9.7,27.1-5.1,44.1c-0.6-3.9-0.9-9.6,0.7-14.8
			c2.8-9.1,7.7-11.6,16-16.3s14.4-1.7,16.9-9.1c2.5-7.5,5-5.5,5.8-3.9s7.2,10.8,14.9,13.5c7.7,2.8,16,5.5,18.8,11.3
			c2.1,4.4,2.1,15.1,2,20c0.5,3.1,0.7,5.5,0.7,5.5S230.1,11.4,204.2,3.7z"/>
		<g>
			<g>
				<circle class="st21" cx="163.3" cy="60.1" r="3.4"/>
				<circle class="st19" cx="163.3" cy="60.1" r="2.5"/>
				<circle class="st18" cx="161.8" cy="60.9" r="1"/>
			</g>
			<path class="st22" d="M154,54.1c0,0,5.8-2.1,10.7-1.8c4.9,0.3,8.9,1.8,8.9,1.8s0.9-7-8-7.7S153.4,49.5,154,54.1z"/>
		</g>
		<g>
			<g>
				<circle class="st21" cx="204.3" cy="60.1" r="3.4"/>
				<circle class="st19" cx="204.3" cy="60.1" r="2.5"/>
				<circle class="st18" cx="202.8" cy="60.9" r="1"/>
			</g>
			<path class="st22" d="M195,54.1c0,0,5.8-2.1,10.7-1.8c4.9,0.3,8.9,1.8,8.9,1.8s0.9-7-8-7.7S194.4,49.5,195,54.1z"/>
		</g>
		<path class="st18" d="M174.4,101.3c0,0,1.4,1,8.7,0.5c7.4-0.4,11.9-1.3,11.9-1.3s-3.6,3.6-10.1,3.6
			C178.5,104.2,174.4,101.3,174.4,101.3z"/>
	</g>
</g>
</svg>
