<!-- Generator: Adobe Illustrator 21.1.0, SVG Export Plug-In  -->
<svg version="1.1"
	 xmlns="http://www.w3.org/2000/svg" xmlns:xlink="http://www.w3.org/1999/xlink" xmlns:a="http://ns.adobe.com/AdobeSVGViewerExtensions/3.0/"
	 x="0px" y="0px" width="486.4px" height="403.7px" viewBox="0 0 486.4 403.7" style="enable-background:new 0 0 486.4 403.7;"
	 xml:space="preserve">
<style type="text/css">
	.st0{fill:#AD7957;}
	.st1{fill:#C98A5B;}
	.st2{fill:#D1D3D4;}
	.st3{fill:#E6E7E8;}
	.st4{fill:#010101;}
	.st5{fill:#FFFFFF;}
	.st6{fill:#DB996B;}
	.st7{fill:#9E6E54;}
	.st8{fill:#939598;}
	.st9{fill:#6D6E71;}
	.st10{clip-path:url(#SVGID_2_);fill:#AD7957;}
	.st11{fill:#3C2415;}
	.st12{fill:#B2ADDD;}
	.st13{fill:#7742A8;}
	.st14{fill:#B065C5;}
	.st15{fill:#591189;}
	.st16{fill:#852AB4;}
	.st17{fill:none;}
	.st18{fill:#B670C8;}
	.st19{fill:#B5AFDF;}
	.st20{fill:none;stroke:#231F20;stroke-miterlimit:10;}
	.st21{fill:#921B90;}
	.st22{fill:#490562;}
	.st23{fill:#D8CEC4;}
	.st24{fill:#3B6E2B;}
	.st25{fill:#709D33;}
	.st26{fill:#ACBA46;}
	.st27{fill:#BACA84;}
	.st28{fill:#DFD9C3;}
	.st29{opacity:0.3;}
	.st30{fill:url(#SVGID_3_);}
	.st31{fill:url(#SVGID_4_);}
	.st32{fill:url(#SVGID_5_);}
	.st33{fill:url(#SVGID_6_);}
	.st34{fill:url(#SVGID_7_);}
	.st35{fill:url(#SVGID_8_);}
	.st36{fill:url(#SVGID_9_);}
	.st37{fill:url(#SVGID_10_);}
	.st38{fill:url(#SVGID_11_);}
	.st39{fill:url(#SVGID_12_);}
	.st40{fill:#6E2852;}
	.st41{fill:#9D249B;}
	.st42{fill:#8E34BA;}
	.st43{fill:#B871CA;}
	.st44{fill:#B4AEDF;}
	.st45{opacity:0.3;fill:url(#SVGID_13_);}
	.st46{opacity:0.3;fill:url(#SVGID_14_);}
	.st47{opacity:0.3;fill:url(#SVGID_15_);}
	.st48{opacity:0.3;fill:url(#SVGID_16_);}
	.st49{opacity:0.3;fill:url(#SVGID_17_);}
	.st50{fill:url(#SVGID_18_);}
	.st51{fill:url(#SVGID_19_);}
	.st52{fill:url(#SVGID_20_);}
	.st53{fill:url(#SVGID_21_);}
	.st54{fill:url(#SVGID_22_);}
	.st55{fill:#6E5F41;}
	.st56{fill:#9D6924;}
	.st57{fill:#BA6D34;}
	.st58{fill:#CA9B71;}
	.st59{fill:#DFB1AE;}
	.st60{fill:url(#SVGID_23_);}
	.st61{fill:url(#SVGID_24_);}
	.st62{fill:url(#SVGID_25_);}
	.st63{fill:url(#SVGID_26_);}
	.st64{fill:url(#SVGID_27_);}
	.st65{fill:url(#SVGID_28_);}
	.st66{fill:url(#SVGID_29_);}
	.st67{fill:url(#SVGID_30_);}
	.st68{fill:url(#SVGID_31_);}
	.st69{fill:url(#SVGID_32_);}
	.st70{fill:#FDD01F;}
	.st71{fill:#FCA81B;}
	.st72{fill:#FDD328;}
	.st73{fill:#E25900;}
	.st74{fill:#933442;}
	.st75{fill:#E07000;}
	.st76{fill:#FB9437;}
	.st77{fill:#FCB14A;}
	.st78{fill:#FB8A2C;}
	.st79{fill:#DA4301;}
	.st80{fill:#9C3C4B;}
	.st81{fill:#FB8E0F;}
	.st82{fill:#FCAE45;}
	.st83{fill:#FDD025;}
	.st84{fill:#FB7821;}
	.st85{fill:#DF6B02;}
	.st86{fill:#FCFDFC;}
	.st87{fill:#931A93;}
	.st88{fill:#350326;}
	.st89{fill:#EDF1F0;}
	.st90{fill:#BE1E2D;}
	.st91{fill:#FFCF14;}
	.st92{fill:#2B3990;}
	.st93{fill:#BE2086;}
	.st94{fill:#662D91;}
	.st95{fill:#27AAE1;}
	.st96{fill:#1F2F5E;}
	.st97{fill:#263669;}
	.st98{fill:#F6F7FC;}
	.st99{fill:#213162;}
	.st100{fill:#2F1A0A;}
	.st101{fill:#BF835A;}
	.st102{fill:#DB9E75;}
	.st103{fill:#231F20;}
	.st104{clip-path:url(#SVGID_34_);fill:#AD7957;}
	.st105{fill:url(#SVGID_35_);}
	.st106{fill:url(#SVGID_36_);}
	.st107{fill:url(#SVGID_37_);}
	.st108{fill:url(#SVGID_38_);}
	.st109{fill:url(#SVGID_39_);}
	.st110{fill:url(#SVGID_40_);}
	.st111{fill:url(#SVGID_41_);}
	.st112{fill:url(#SVGID_42_);}
	.st113{fill:url(#SVGID_43_);}
	.st114{fill:url(#SVGID_44_);}
	.st115{opacity:0.3;fill:url(#SVGID_45_);}
	.st116{opacity:0.3;fill:url(#SVGID_46_);}
	.st117{opacity:0.3;fill:url(#SVGID_47_);}
	.st118{opacity:0.3;fill:url(#SVGID_48_);}
	.st119{opacity:0.3;fill:url(#SVGID_49_);}
	.st120{fill:url(#SVGID_50_);}
	.st121{fill:url(#SVGID_51_);}
	.st122{fill:url(#SVGID_52_);}
	.st123{fill:url(#SVGID_53_);}
	.st124{fill:url(#SVGID_54_);}
	.st125{fill:url(#SVGID_55_);}
	.st126{fill:url(#SVGID_56_);}
	.st127{fill:url(#SVGID_57_);}
	.st128{fill:url(#SVGID_58_);}
	.st129{fill:url(#SVGID_59_);}
	.st130{fill:url(#SVGID_60_);}
	.st131{fill:url(#SVGID_61_);}
	.st132{fill:url(#SVGID_62_);}
	.st133{fill:url(#SVGID_63_);}
	.st134{fill:url(#SVGID_64_);}
</style>
<defs>
</defs>
<g>
	<path class="st0" d="M54.2,118.1c10.1,6.1,22,2.8,22,2.8l0,8.3C61.2,129.3,54.2,118.1,54.2,118.1z"/>
	<path class="st1" d="M40.6,135.8c5.8-1.7,13.6-2.9,13.6-2.9c0.8-2.1,0-14.9,0-14.9s7,11.3,22,11.1v3.9c0,0,4,0.3,9.8,1.1
		s14.9,5.4,14.9,5.4l2.5,26.9L30,172.6v-33.1C30,139.5,34.8,137.5,40.6,135.8z"/>
	<path class="st0" d="M55.9,123c0,0-0.1,10.8,0.7,12.3s9.3,8.8,9.4,9.2s-3.6-1.7-5-2.5c-1.3-0.8-6.1-7.2-6.1-7.2
		S54.7,119.3,55.9,123z"/>
	<path class="st2" d="M86.2,245.6c0,0,14.9-2.8,14.9-6.8s-0.9-21.4-0.9-21.4s-17.4,8.7-25.1,10.5c-5.3,1.3-7.7,2-8.7,2.3
		c2.8-1,14.6-5.1,21.1-9.7c7.4-5.3,13.3-8.7,13.3-8.7l-0.3-7.7c0,0-9.9,7.7-16.7,10.8c-6.8,3.1-13.6,5.9-13.6,5.9s18-12.7,23.6-17
		c5.6-4.3,7.4-5,7.4-5s-1.5-44.9-0.9-46.5c0.6-1.5,3.1,5.6,3.1,9.3c0,3.7,0.3,11.2,0.3,11.2s0.6,52.7,0.6,58c0,3.8,1.7,9.9-0.4,13.6
		l-3-1.2C100.8,243.1,88.1,246.8,86.2,245.6z"/>
	<path class="st3" d="M66.4,230.2c-0.4,0.1-0.6,0.2-0.6,0.2S65.9,230.3,66.4,230.2z"/>
	<path class="st3" d="M3.8,213C5,191,9.7,167.2,15,158.8c5.3-8.4,13.6-20.1,17-21.7c3.4-1.5,8.6-1.3,8.6-1.3l9.7,1l13.3,10.5l3-1
		l21.1-12c0,0,15,2.7,17.2,6.8s14.6,23.9,16.4,26.7c1.9,2.8,7.7,17,9.9,16.1c2.2-0.9,22.9-29.8,25.7-30.1c2.8-0.3,6.2,2.2,8.7,5.9
		c2.5,3.7,2.8,5.9-1.2,9.9s-27.6,29.4-31,32.5c-3.4,3.1-7.4,1.2-10.5-1.5c-3.1-2.8-19.2-27.9-19.2-27.9s-0.3-7.4-0.3-11.2
		c0-3.7-2.5-10.8-3.1-9.3c-0.6,1.5,0.9,46.5,0.9,46.5s-1.9,0.6-7.4,5c-5.6,4.3-23.6,17-23.6,17s6.8-2.8,13.6-5.9
		c6.8-3.1,16.7-10.8,16.7-10.8l0.3,7.7c0,0-5.9,3.4-13.3,8.7c-6.5,4.6-18.2,8.7-21.1,9.7c-0.5,0.1-0.6,0.2-0.6,0.2s0.2-0.1,0.6-0.2
		c1-0.3,3.4-1,8.7-2.3c7.7-1.9,25.1-10.5,25.1-10.5s0.9,17.4,0.9,21.4s-14.9,6.8-14.9,6.8c1.9,1.2,14.6-2.5,14.6-2.5l3,1.2
		c-0.9,1.4-2.4,2.5-4.8,2.8c-8.7,1.2-54.9,1.5-59.5,1.5c-4.6,0-9,1.2-9-2.8s-0.3-61.4,0-65.7s-0.4-7.6-0.4-7.6s-6.4,10.1-9.8,20.6
		c-3.4,10.5-1.5,32.5,0.6,39.4c2.2,6.8,5.6,11.8,6.2,15.5c0.6,3.7-0.9,3.4-3.1,5c-2.2,1.5-5,5-7.7,1.5C13.4,251.2,2.6,235,3.8,213z"
		/>
	<path class="st1" d="M165.6,159.7c0,0,2.8-4.3,5.3-5.3c2.5-0.9,5-0.3,7.7-0.6s10.2-7.1,12.1-9.3c1.9-2.2,1.2-5.3-0.6-7.4
		s-3.7,0.3-7.4,1.9s-7.4,4-9.3,5c-1.9,0.9-3.1-2.2-2.5-4.3s4-4.3,1.9-6.2c-2.2-1.9-3.7,3.7-6.8,6.2s-4.3,4-3.4,8.7
		c0.9,4.6-1.9,6.8-1.9,6.8s-2.2,5.6,0,6.8S165.6,159.7,165.6,159.7z"/>
	<path class="st3" d="M31.3,303.1c0-4.1,4.1-51,5.1-62l64.7-2.3c0,0-3.8,111.5-3.1,118.3c0.6,6.8,0,22.8,0,22.8s-8.9,0.6-14.6,0.8
		c0.2-1.5,0.2-3.1-0.3-4.1c-1.2-2.6,3.1-114.3,3.1-114.3l-12.8,2.1c-0.1-1.3-0.2-2.1-0.2-2.1L63,263.2c0,0-20.8,66.9-23.6,84.8
		c-2.8,17.8-6.8,34.7-6.8,34.7l-12.5-2.2c0.7-0.7,1.3-1.5,1.3-2C21.4,376.8,31.3,307.8,31.3,303.1z"/>
	<path class="st2" d="M83.1,376.6c0.5,1.1,0.5,2.6,0.3,4.1c-2.4,0.1-4.3,0.2-4.6,0.1c-1.2-0.2-3.7-104-4.3-107.8
		c-0.4-2.5-0.8-6.3-1-8.7l12.8-2.1C86.2,262.3,81.9,374,83.1,376.6z"/>
	<path class="st2" d="M27,274.2c-0.3-4.2,0.6-18.1,1.2-20.4c0.6-2.3,4.6-12.7,4.6-12.7l3.5,0c-1,11-5.1,57.9-5.1,62
		c0,4.7-9.9,73.7-9.9,75.4c0,0.6-0.6,1.3-1.3,2l-4.9-0.9C15.2,379.6,27.3,278.5,27,274.2z"/>
	<path class="st4" d="M96.2,379.7c0,0,7.1,3.1,8.7,4.3s7.7,4.3,6.2,6.2s-6.5,4-10.5,3.1c-4-0.9-10.8-3.7-14.3-5
		c-3.4-1.2-6.8-2.8-6.8-4.6s0-3.7,0-3.7L96.2,379.7z"/>
	<path class="st4" d="M32,382.8c0,0-13.9-4-15.8-3.7c-1.9,0.3-7.4,4.6-9.9,6.5s-7.7,1.9-5.9,4.6s7.1,1.9,14.6,1.2s16.1-4.6,16.1-5.6
		S32,382.8,32,382.8z"/>
	<path class="st5" d="M92.7,136.5c0,0-17,38.4-22.6,39.7c-5.6,1.2-36.6-38.1-36.6-38.1l7-2.2c0,0,21.5,29.8,25.5,28.6
		s15-10.4,21.6-30L92.7,136.5z"/>
	<path class="st3" d="M56.5,152.1c-0.5-1.2-10.7-12.7-14-16.5c2.4-0.8,8.1-2.5,11.1-2.5c0,0,7.5,11.1,10.9,12.6
		C61.6,148.6,56.9,153,56.5,152.1z"/>
	<path class="st2" d="M77.6,152.1c0.7,1.4,10-17.7,10-17.7s-8.7,20.6-10.2,19.2c-0.9-0.8-3.5-3.7-6.1-5.6
		C74,149.2,77.2,151.2,77.6,152.1z"/>
	<g>
		<path class="st3" d="M72.8,141.5c2.2-2.5,5.4-8.2,5.4-8.2l9.5,1c0,0-9.3,19.1-10,17.7c-0.5-0.9-3.6-2.8-6.3-4.1
			c-1.7-1.2-3.4-2-4.7-1.6c0,0-0.1,0-0.1,0c-0.2-0.2-0.3-0.3-0.5-0.5C68.6,145.8,70.9,143.7,72.8,141.5z"/>
		<path class="st2" d="M42.4,135.6c3.3,3.8,13.5,15.4,14,16.5c0.4,1,5.1-3.5,8-6.4c0.2,0.1,0.4,0.1,0.5,0.2c0.4,0.1,0.7,0.1,1,0.1
			c0.2,0.2,0.3,0.3,0.5,0.5c-3.4,1.2-9,7.4-11,6.4c-2.1-1-14.1-16.8-14.1-16.8S41.8,135.8,42.4,135.6z"/>
	</g>
	<path class="st1" d="M24.6,244.7c0,0,13.2,1.9,11.1,5.2s-4.7-3.9-6.1,0s9,9.1,6.8,12.4c-2.1,3.3-5.1,4.5-10.6,0
		c-5.5-4.5-10.1-15.3-5.7-16.4S24.6,244.7,24.6,244.7z"/>
	<g>
		<path class="st0" d="M92.9,61c0-6.9-1.4-17.7-2.4-24.4c4.5,3.7,3.9,10.5,4.6,17.8c0.7,7.7,1.8,21.7,1.8,21.7s-2.2,18.1-3.3,30.9
			c-0.6,6.7-5,10.4-10.4,12.4c1.7-3.6,3.6-9.4,5-18.3C91.1,82.2,92.9,71.6,92.9,61z"/>
		<path class="st1" d="M43.3,73.8c-1.5-4.4-5.8-21.2-2.6-26.7c3.3-5.5,6.2-4.4,15.3-11.3c1.9-1.4,3.3-2.7,4.4-3.7
			c3.1-0.4,6.4-0.7,9.5-1c14.6-1.5,15,1.5,20.1,5.1c0.2,0.1,0.4,0.3,0.5,0.4c1,6.7,2.4,17.5,2.4,24.4c0,10.6-1.8,21.2-4.7,40.2
			c-1.4,8.9-3.3,14.6-5,18.3c-4.8,1.8-10.5,2.2-14.8,2.2c-6.3,0-12.1-0.7-16.5-2.6c-1.4-2.6-2.9-6.3-3.9-11.7
			C44.7,90.6,44.7,78.2,43.3,73.8z"/>
		<path class="st6" d="M37.4,45.3c1.1-9.2,11.5-11.8,23-13.2c-1.1,1.1-2.5,2.3-4.4,3.7c-9.2,6.9-12,5.8-15.3,11.3
			c-3.3,5.5,1.1,22.3,2.6,26.7c1.5,4.4,1.5,16.8,4.7,33.6c1,5.4,2.5,9.1,3.9,11.7c-2-0.8-3.7-1.9-5-3.3c-4.4-4.4-7.7-24.1-7.3-27.8
			S38.5,76,37.4,70.1C36.3,64.2,36,57,37.4,45.3z"/>
		<path class="st0" d="M79.8,54.4c0,0-5.3-1.5-13.1-1.5s-14.9,0.7-14.9,0.7s7.1,0.2,14.9,0.7C74.5,55,79.8,54.4,79.8,54.4z"/>
		<path class="st0" d="M72.5,57.9c0,0-2.4-1.5-4.6-1.6s-6.8,0.8-6.8,0.8s4.5-0.5,6.6-0.1C69.8,57.4,72.5,57.9,72.5,57.9z"/>
		<path class="st0" d="M71.2,110.5c0,0-2,1.2-3.8,1.3c-1.8,0.1-5.6-0.8-5.6-0.8s3.7,0.5,5.4,0.2C69,110.8,71.2,110.5,71.2,110.5z"/>
		<path class="st0" d="M74.4,60.5c0,0-4.1,0.2-7.6-0.3c-3.5-0.5-9.8-0.9-9.8-0.9s4.3,1.1,6.5,1.4C65.7,60.9,69.3,62,74.4,60.5z"/>
		<path class="st0" d="M65.6,74.3c0,0-0.6,7.6-1.9,8.9s-6.3,2.3-4.3,5.6c0,0-1.3-0.5-1-3.3c0.3-2.4,3.6-1.5,4.6-3.9
			C64,79.1,65.6,74.3,65.6,74.3z"/>
		<path class="st7" d="M66.2,72.8c0,0-1.8,9.6-3.8,10.5c-2,0.9-3.5,2.2-3.8,3.6c-0.3,1.4,0.9,3.9,3.1,4c2.2,0.2,3.4-0.1,5.1,0.4
			c1.7,0.5,4.3,0.4,4.5-0.6c0,0-1.8,0.5-3.1,0.6c-1.4,0-2-1.3-4.2-0.8c-2.2,0.4-4.5-0.5-4.2-2.2s0.9-2,3.3-4.2
			C65.4,81.9,66.2,72.8,66.2,72.8z"/>
		<path class="st0" d="M78.8,104.3c0,0-5.5,2-11,2.5s-10.5-1.4-10.5-1.4s5.1,3.3,11.1,2.4C74.4,107,78.8,104.3,78.8,104.3z"/>
		<path class="st8" d="M75.9,41.3c-2.4,1.2,0-8.5,0-8.5s-21.7,7.3-28,9.4c-6.3,2.1-5.5,10.5-10,8.5c-4.5-2.1,0-12.5,0-12.5
			S32.3,51,31.1,48.6c-0.5-1.1-1.3-4.6-2-8.1c0-1.1,0.2-2,0.4-2.3c1.2-1.4,5.4-5.6,14.9-7.4c9.5-1.8,35-7.5,38.4-7.5
			c3.4,0,6.1,1.6,10.7,5.7s7.5,6.3,7.7,12.9c0.1,1.7,0,3.9-0.1,6.3l-8.2-13.5C92.9,34.6,78.4,40.1,75.9,41.3z"/>
		<path class="st9" d="M87.3,41c1.6-0.4,3.8,2.2,4,3.4c0.2,1.4,1.4,6.7,3.2,10.7s0,14.8,0,14.8s1.2,2.4,2.6,0c1.4-2.4,3-6.1,3-6.1
			s0.7-8.6,0.9-15.7l-8.2-13.5c0,0-14.6,5.5-17,6.7c-2.4,1.2,0-8.5,0-8.5s-21.7,7.3-28,9.4c-6.3,2.1-5.5,10.5-10,8.5
			c-4.5-2.1,0-12.5,0-12.5S32.3,51,31.1,48.6c-0.5-1.1-1.3-4.6-2-8.1c-0.1,3.6,0.7,9.9,0.4,11.3c-0.4,1.8,2,17,4.2,16.9
			c2.1-0.2,2.9,4.7,2.9,4.7c0-3.4,2.6-15,3.8-18.2s0,0,1.2-5.1s11.1-5.9,16.2-6.5C62.8,43,70.9,41,70.9,41s-3.3,2.3,0.3,2.7
			S87.3,41,87.3,41z"/>
		<path class="st1" d="M98.3,70.8c2.2-0.7,3.3-0.7,3.3,7.3s-6.4,10.7-6.4,10.7s0.3-5.8,1.5-15.3L98.3,70.8z"/>
		<path class="st0" d="M100.1,81.7c0,0,0.5-6.3-1.1-5.7c-1.6,0.5-1.6,0.5-1.6,0.5s0.8-3.8,2.5-2.7C101.5,74.8,100.1,81.7,100.1,81.7
			z"/>
		<path class="st1" d="M38,73.4c0,0-0.4-2.3-0.6-3.9c-0.2-1.6-0.2-3.5-2.1-3.7c-1.8-0.1-3,1-3.3,3.8s-0.7,4.5,0.5,6.5
			c1.2,1.9,4.6,6.3,5.5,6.8c0.9,0.5,1.6,0.7,1.6,0.7L38,73.4z"/>
		<g>
			<defs>
				<path id="SVGID_1_" d="M36.3,73.8c0,0,0.5-3.2-1.1-3c-1.6,0.3-1.9,4.3,0.3,7.3c0,0-3.8-3-2.7-7.5C33.9,66,38.2,68.9,36.3,73.8z"
					/>
			</defs>
			<use xlink:href="#SVGID_1_"  style="overflow:visible;fill:#AD7957;"/>
			<clipPath id="SVGID_2_">
				<use xlink:href="#SVGID_1_"  style="overflow:visible;"/>
			</clipPath>
			<path class="st10" d="M38.7,83.7c-1-0.9-2.5-2.3-4.1-4.3c-2.9-3.6-2.9-6.1-2.5-10.8c0.3-3.5,3.4-3,4.9-2.5
				c0.4,1.7,0.7,2.8,0.7,2.8S38.2,77.1,38.7,83.7z"/>
		</g>
		<path class="st8" d="M89.7,68.4c0,0-3-3-8.5-2.4s-7.6,2.1-7.6,2.1s0-5.4,7-5.4C87.6,62.7,90.6,65.7,89.7,68.4z"/>
		<path class="st8" d="M59.5,69.1c0,0-3.3-2.4-7.6-2.4s-8.5,2.1-8.5,2.1s1.2-4.5,7.9-5.1S59.5,69.1,59.5,69.1z"/>
		<circle class="st11" cx="82" cy="72.5" r="2.8"/>
		<circle class="st11" cx="51.3" cy="72.6" r="2.8"/>
		<path class="st0" d="M56.8,76.3c0,0-7.3,2.4-10.9-0.4C45.9,75.9,50.4,80.7,56.8,76.3z"/>
		<path class="st0" d="M87.6,75.4c0,0-6.5,2.4-10.9-0.8C76.7,74.6,82.3,80.7,87.6,75.4z"/>
		<ellipse class="st5" cx="80.9" cy="71.8" rx="0.9" ry="0.7"/>
		<ellipse class="st5" cx="50.2" cy="71.9" rx="0.9" ry="0.7"/>
	</g>
	<g>
		<path class="st12" d="M46,27.2c-0.3-0.7-0.6-1.4-0.9-2.1c-1.4-3.3-2.3-5.7-2.8-7.3c1.7,1.5,5.3,3.3,5.3,3.3l-0.5,3.5l0.2-0.5
			c-0.1,0.3-0.2,0.6-0.3,0.8C46.9,25.6,46.4,26.4,46,27.2z"/>
		<path class="st13" d="M47.1,29.9c-0.2-0.6-0.4-1.1-0.6-1.7c0.7-0.7,1.6-2,1.9-3.7C48.3,24.6,49,28,47.1,29.9z"/>
		<path class="st14" d="M47.1,24.9c0.1-0.2,0.2-0.5,0.3-0.8l1-2.5c0,0,0.7,1.1,2.2,5.5c0.1,0.1,0.1,0.3,0.1,0.4
			c-0.6,1.8-2.2,3.3-3.1,4c-0.2-0.6-0.4-1.1-0.6-1.7c1.9-1.9,1.2-5.4,1.2-5.4c-0.3,1.6-1.2,2.9-1.9,3.7c-0.1-0.4-0.3-0.7-0.4-1
			C46.4,26.4,46.9,25.6,47.1,24.9z"/>
		<path class="st15" d="M50.8,27.6c0.1,0.3,0.2,0.6,0.2,0.9c-0.2,1.5-0.8,3.5-2.8,4.7c-0.2-0.5-0.4-1-0.6-1.5
			C48.6,30.9,50.2,29.4,50.8,27.6z"/>
		<path class="st16" d="M51,28.4c0.9,3.7-0.4,6-0.4,6l-1.4,1.4c-0.3-0.9-0.7-1.8-1-2.7C50.2,31.9,50.8,29.9,51,28.4z"/>
		<path class="st17" d="M40.7,23.6c0.1,0.1,0.2,0.3,0.4,0.3c0,0.1,0,0.3,0,0.4C40.9,23.9,40.7,23.6,40.7,23.6z"/>
		<path class="st17" d="M41.7,32.1c0,0.1,0.1,0.2,0.1,0.3c-0.5-0.6-0.8-1-0.8-1C41.2,31.6,41.5,31.8,41.7,32.1z"/>
		<path class="st18" d="M41.1,24.3c0-0.1,0-0.3,0-0.4c1,0.7,2.5,0.3,3.5,0c0.2,0.4,0.3,0.8,0.5,1.2c0,0.1,0.1,0.1,0.1,0.2
			C43.1,26.6,41.8,25.3,41.1,24.3z"/>
		<path class="st19" d="M41.2,24c-0.2-2.9,0.2-7.2,0.2-7.2c0.1,0.3,0.4,0.6,0.8,1c0.5,1.4,1.3,3.4,2.5,6.1
			C43.7,24.3,42.2,24.6,41.2,24z"/>
		<path class="st20" d="M44.3,30.1l0.7,0.4C44.8,30.4,44.5,30.3,44.3,30.1z"/>
		<path class="st13" d="M44.3,30.1c-1-0.8-2.1-2.6-2.8-4.2c-0.2-0.4-0.3-0.9-0.3-1.6c0.6,0.9,1.9,2.2,4.1,1c0.7,1.8,1.6,3.9,2.4,6
			C45.7,31,45,30.5,45,30.5L44.3,30.1z"/>
		<path class="st21" d="M46.6,36.9l0.5,0.2C47,37.1,46.8,37,46.6,36.9z"/>
		<path class="st22" d="M49.2,35.5c0.3,0.7,0.5,1.4,0.8,2.1c-1.8-0.1-2.8-0.5-2.8-0.5l-0.5-0.2c-2-0.8-3.8-2.4-4.6-4.2
			c-0.1-0.1-0.1-0.2-0.1-0.4C43.2,33.8,46,36.4,49.2,35.5z"/>
		<path class="st16" d="M48.4,33.6c0.2,0.6,0.5,1.3,0.7,1.9c-3.2,0.9-6-1.7-7.3-3.2c0-0.1-0.1-0.2-0.1-0.3
			C43.4,33.3,46.5,33.6,48.4,33.6z"/>
		<path class="st14" d="M41.1,28.7c0.2,0.6,3.9,1.8,3.9,1.8s0.7,0.5,2.6,0.8c0.3,0.7,0.6,1.5,0.8,2.2c-1.9,0-5-0.2-6.7-1.5
			C41.1,30.3,41.1,28.7,41.1,28.7z"/>
		<path class="st23" d="M35.6,34.5l2.4-3.1c0,0,0.9-2,1.4-3.8"/>
		<g>
			<g>
				<g>
					<path class="st24" d="M38.7,44.2c0-0.3,0.2-0.7,0.7-1.2c0.8-0.8,1.1-1,1.8-1.5c1-0.7,1.2-1.7,1.2-1.7s0.4,2.5-0.6,3.8
						c-0.6,0.8-1.1,1.7-1.4,2.4c0.5-0.8,1.1-1.2,1.1-1.2c-0.5,0.5-0.5,1.3-0.5,1.3c1.7-1.8,3.6-0.2,3.6-0.2c-3-1.2-3.9,1.8-3.9,1.8
						c0.8-1,2.3-0.4,2.3-0.4c-1.5,0-2,0.8-2.2,1.2C40,46.8,39.5,46,38.7,44.2z"/>
					<path class="st25" d="M37.3,40.9c0.2-0.2,1-1,1.8-2.3c1.1-1.8,1.7-4.2,1.7-4.2s0.8,1.4,0.6,3.1c-0.2,1.6-1.1,2.7-1.5,3
						c1-0.9,2.1-0.5,2.1-0.5c-1.5,0.6-2,2.4-2,2.4c0.7-1.5,1.5-1,1.5-1c-0.7,0.4-1.1,1.5-1.3,1.8c0,0.1,0,0.1,0,0.1
						c-0.2,0.7-0.3,1.9-0.3,2.9C38.7,44.2,38.2,43.1,37.3,40.9z"/>
					<path class="st26" d="M34.9,34.1c0.6-0.7,3.9-4.4,3.3-7.2c2.3,2.9,1.3,6.5,1.3,6.5c0.2-0.2,0.5-0.8,0.5-0.8
						c1,1.8,0.8,4-0.8,6.6c-0.7,1.1-1.4,2-1.6,2.4C36.3,38.7,35.8,37.2,34.9,34.1z"/>
					<path class="st27" d="M34.4,32.4c0.2-0.2,1.5-1.3,2.1-3.8c0.3-1.2-0.1-3.2-0.1-3.2s1,0.7,1.6,2.6c0.9,3.1-2,7.5-2,7.5
						c0.8-0.6,1.3-2,1.3-2c-0.1,1.5-0.8,3-0.8,3c1.6-1.9,2.1-4.5,2.1-4.5c0.1,3-1.8,5.7-2.2,6.4C35.4,36.1,35,34.9,34.4,32.4z"/>
					<path class="st28" d="M32.3,21.7c0.2,0.1,0.8,0.8,2.2,2.1c2.1,1.9,0.6,5.9,0.6,5.9c1.5-2.1,0.8-3.7,0.8-3.7
						c2.2,3.6-1,6.9-1.4,7.3C33.3,28.7,32.9,26.4,32.3,21.7z"/>
				</g>
				<g class="st29">
					<g>
						
							<linearGradient id="SVGID_3_" gradientUnits="userSpaceOnUse" x1="33.8844" y1="-6778.6323" x2="43.2512" y2="-6778.6323" gradientTransform="matrix(0 1 -1 0 -6736.9512 5.8153)">
							<stop  offset="0" style="stop-color:#FFFFFF"/>
							<stop  offset="0.3963" style="stop-color:#9D9D9D"/>
							<stop  offset="1" style="stop-color:#000000"/>
						</linearGradient>
						<path class="st30" d="M38.7,44.2c0-0.3,0.2-0.7,0.7-1.2c0.8-0.8,1.1-1,1.8-1.5c1-0.7,1.2-1.7,1.2-1.7s0.4,2.5-0.6,3.8
							c-0.6,0.8-1.1,1.7-1.4,2.4c0.5-0.8,1.1-1.2,1.1-1.2c-0.5,0.5-0.5,1.3-0.5,1.3c1.7-1.8,3.6-0.2,3.6-0.2c-3-1.2-3.9,1.8-3.9,1.8
							c0.8-1,2.3-0.4,2.3-0.4c-1.5,0-2,0.8-2.2,1.2C40,46.8,39.5,46,38.7,44.2z"/>
						
							<linearGradient id="SVGID_4_" gradientUnits="userSpaceOnUse" x1="28.6532" y1="-6776.5527" x2="40.5773" y2="-6776.5527" gradientTransform="matrix(0 1 -1 0 -6736.9512 5.8153)">
							<stop  offset="0" style="stop-color:#FFFFFF"/>
							<stop  offset="0.3963" style="stop-color:#9D9D9D"/>
							<stop  offset="1" style="stop-color:#000000"/>
						</linearGradient>
						<path class="st31" d="M37.3,40.9c0.2-0.2,1-1,1.8-2.3c1.1-1.8,1.7-4.2,1.7-4.2s0.8,1.4,0.6,3.1c-0.2,1.6-1.1,2.7-1.5,3
							c1-0.9,2.1-0.5,2.1-0.5c-1.5,0.6-2,2.4-2,2.4c0.7-1.5,1.5-1,1.5-1c-0.7,0.4-1.1,1.5-1.3,1.8c0,0.1,0,0.1,0,0.1
							c-0.2,0.7-0.3,1.9-0.3,2.9C38.7,44.2,38.2,43.1,37.3,40.9z"/>
						
							<linearGradient id="SVGID_5_" gradientUnits="userSpaceOnUse" x1="21.1547" y1="-6774.6748" x2="35.8073" y2="-6774.6748" gradientTransform="matrix(0 1 -1 0 -6736.9512 5.8153)">
							<stop  offset="0" style="stop-color:#FFFFFF"/>
							<stop  offset="0.3963" style="stop-color:#9D9D9D"/>
							<stop  offset="1" style="stop-color:#000000"/>
						</linearGradient>
						<path class="st32" d="M34.9,34.1c0.6-0.7,3.9-4.4,3.3-7.2c2.3,2.9,1.3,6.5,1.3,6.5c0.2-0.2,0.5-0.8,0.5-0.8
							c1,1.8,0.8,4-0.8,6.6c-0.7,1.1-1.4,2-1.6,2.4C36.3,38.7,35.8,37.2,34.9,34.1z"/>
						
							<linearGradient id="SVGID_6_" gradientUnits="userSpaceOnUse" x1="19.5504" y1="-6773.3945" x2="35.699" y2="-6773.3945" gradientTransform="matrix(0 1 -1 0 -6736.9512 5.8153)">
							<stop  offset="0" style="stop-color:#FFFFFF"/>
							<stop  offset="0.3963" style="stop-color:#9D9D9D"/>
							<stop  offset="1" style="stop-color:#000000"/>
						</linearGradient>
						<path class="st33" d="M34.4,32.4c0.2-0.2,1.5-1.3,2.1-3.8c0.3-1.2-0.1-3.2-0.1-3.2s1,0.7,1.6,2.6c0.9,3.1-2,7.5-2,7.5
							c0.8-0.6,1.3-2,1.3-2c-0.1,1.5-0.8,3-0.8,3c1.6-1.9,2.1-4.5,2.1-4.5c0.1,3-1.8,5.7-2.2,6.4C35.4,36.1,35,34.9,34.4,32.4z"/>
						
							<linearGradient id="SVGID_7_" gradientUnits="userSpaceOnUse" x1="15.8722" y1="-6771.5005" x2="35.1214" y2="-6771.5005" gradientTransform="matrix(0 1 -1 0 -6736.9512 5.8153)">
							<stop  offset="0" style="stop-color:#FFFFFF"/>
							<stop  offset="0.3963" style="stop-color:#9D9D9D"/>
							<stop  offset="1" style="stop-color:#000000"/>
						</linearGradient>
						<path class="st34" d="M32.3,21.7c0.2,0.1,0.8,0.8,2.2,2.1c2.1,1.9,0.6,5.9,0.6,5.9c1.5-2.1,0.8-3.7,0.8-3.7
							c2.2,3.6-1,6.9-1.4,7.3C33.3,28.7,32.9,26.4,32.3,21.7z"/>
					</g>
					<g>
						<path class="st24" d="M38.7,44.2c0-0.3,0.2-0.7,0.7-1.2c0.8-0.8,1.1-1,1.8-1.5c1-0.7,1.2-1.7,1.2-1.7s0.4,2.5-0.6,3.8
							c-0.6,0.8-1.1,1.7-1.4,2.4c0.5-0.8,1.1-1.2,1.1-1.2c-0.5,0.5-0.5,1.3-0.5,1.3c1.7-1.8,3.6-0.2,3.6-0.2c-3-1.2-3.9,1.8-3.9,1.8
							c0.8-1,2.3-0.4,2.3-0.4c-1.5,0-2,0.8-2.2,1.2C40,46.8,39.5,46,38.7,44.2z"/>
						<path class="st25" d="M37.3,40.9c0.2-0.2,1-1,1.8-2.3c1.1-1.8,1.7-4.2,1.7-4.2s0.8,1.4,0.6,3.1c-0.2,1.6-1.1,2.7-1.5,3
							c1-0.9,2.1-0.5,2.1-0.5c-1.5,0.6-2,2.4-2,2.4c0.7-1.5,1.5-1,1.5-1c-0.7,0.4-1.1,1.5-1.3,1.8c0,0.1,0,0.1,0,0.1
							c-0.2,0.7-0.3,1.9-0.3,2.9C38.7,44.2,38.2,43.1,37.3,40.9z"/>
						<path class="st26" d="M34.9,34.1c0.6-0.7,3.9-4.4,3.3-7.2c2.3,2.9,1.3,6.5,1.3,6.5c0.2-0.2,0.5-0.8,0.5-0.8
							c1,1.8,0.8,4-0.8,6.6c-0.7,1.1-1.4,2-1.6,2.4C36.3,38.7,35.8,37.2,34.9,34.1z"/>
						<path class="st27" d="M34.4,32.4c0.2-0.2,1.5-1.3,2.1-3.8c0.3-1.2-0.1-3.2-0.1-3.2s1,0.7,1.6,2.6c0.9,3.1-2,7.5-2,7.5
							c0.8-0.6,1.3-2,1.3-2c-0.1,1.5-0.8,3-0.8,3c1.6-1.9,2.1-4.5,2.1-4.5c0.1,3-1.8,5.7-2.2,6.4C35.4,36.1,35,34.9,34.4,32.4z"/>
						<path class="st28" d="M32.3,21.7c0.2,0.1,0.8,0.8,2.2,2.1c2.1,1.9,0.6,5.9,0.6,5.9c1.5-2.1,0.8-3.7,0.8-3.7
							c2.2,3.6-1,6.9-1.4,7.3C33.3,28.7,32.9,26.4,32.3,21.7z"/>
					</g>
				</g>
				<g>
					<path class="st28" d="M29.5,26.7c0.2,1,1.3,1.8,1.3,1.8c-0.6-0.6-1.3-2.7-0.3-4.2c0.8-1.2,1.5-2.4,1.7-2.6
						c0.5,4.7,1,7,2.2,11.5c-1.7,0-3.4-1.7-4.1-2.9C29.3,28.6,29.5,26.7,29.5,26.7z"/>
					<path class="st27" d="M29,30.3c0.4,0.5,0.8,0.6,0.8,0.6c-0.8-0.6-0.8-2.6-0.8-2.6c1.5,2.8,4.5,3,4.8,3c0.4,1.5,0.6,2.2,1,3.6
						c0.2,0.7,0.3,1.1,0.6,1.8C29.3,35,29,30.3,29,30.3z"/>
					<path class="st26" d="M32.1,37.4c-2.4-1.1-3.1-5.2-3.1-5.2c2.1,3.3,5.7,3,5.9,3c0.3,0.9,0.4,1.3,0.7,2.2
						c0.6,1.7,0.9,2.6,1.6,4.3c-4.7,0.1-7.2-4.9-7.2-4.9C30.9,37.3,32.1,37.4,32.1,37.4z"/>
					<path class="st25" d="M35.2,43.4c-2.4-0.3-4.8-4.8-4.8-4.8c2.2,2.4,6,1.7,6.3,1.7c0.4,0.9,0.5,1.3,0.9,2.2
						c0.8,1.8,1.2,2.6,2,4.3c-1.3-2-4.7-2-4.7-2c0.4-0.5,1.2-0.6,1.2-0.6c-1.3-0.5-2.4-0.3-2.4-0.3C34.6,43.4,35.2,43.4,35.2,43.4z"
						/>
					<path class="st24" d="M34.9,45.5c-1.6-0.1-2.1-2.2-2.1-2.2c0.5,1,2,1.9,3.2,1.3c1.2-0.6,2.6,0,2.6,0c1.3,2.7,2.1,4.1,3.7,6.7
						c0.8,1.3,1.2,1.9,2.1,3.2c-0.4,0.2-0.8-0.3-1.7-1.9c-0.7-1.2-1.4-2.7-2-3.5c-0.9-1.4-2.7-1-3.4-0.4c-0.7,0.5-1.2,0-1.2,0
						c0.6,0.2,0.9-0.2,1.6-0.9c0.7-0.7,1.4-0.5,1.4-0.5c-0.7-0.7-2.5-0.5-2.5-0.5c1-0.6,1.9-0.3,1.9-0.3
						C37.8,45.7,36.5,45.7,34.9,45.5z"/>
				</g>
				<g class="st29">
					<g>
						
							<linearGradient id="SVGID_8_" gradientUnits="userSpaceOnUse" x1="10.0631" y1="-6768.8682" x2="27.413" y2="-6768.8682" gradientTransform="matrix(0 1 -1 0 -6736.9512 5.8153)">
							<stop  offset="0" style="stop-color:#000000"/>
							<stop  offset="0.6037" style="stop-color:#9D9D9D"/>
							<stop  offset="1" style="stop-color:#FFFFFF"/>
						</linearGradient>
						<path class="st35" d="M29.5,26.7c0.2,1,1.3,1.8,1.3,1.8c-0.6-0.6-1.3-2.7-0.3-4.2c0.8-1.2,1.5-2.4,1.7-2.6
							c0.5,4.7,1,7,2.2,11.5c-1.7,0-3.4-1.7-4.1-2.9C29.3,28.6,29.5,26.7,29.5,26.7z"/>
						
							<linearGradient id="SVGID_9_" gradientUnits="userSpaceOnUse" x1="20.8862" y1="-6769.145" x2="30.7853" y2="-6769.145" gradientTransform="matrix(0 1 -1 0 -6736.9512 5.8153)">
							<stop  offset="0" style="stop-color:#000000"/>
							<stop  offset="0.6037" style="stop-color:#9D9D9D"/>
							<stop  offset="1" style="stop-color:#FFFFFF"/>
						</linearGradient>
						<path class="st36" d="M29,30.3c0.4,0.5,0.8,0.6,0.8,0.6c-0.8-0.6-0.8-2.6-0.8-2.6c1.5,2.8,4.5,3,4.8,3c0.4,1.5,0.6,2.2,1,3.6
							c0.2,0.7,0.3,1.1,0.6,1.8C29.3,35,29,30.3,29,30.3z"/>
						
							<linearGradient id="SVGID_10_" gradientUnits="userSpaceOnUse" x1="25.943" y1="-6770.1118" x2="35.8965" y2="-6770.1118" gradientTransform="matrix(0 1 -1 0 -6736.9512 5.8153)">
							<stop  offset="0" style="stop-color:#000000"/>
							<stop  offset="0.6037" style="stop-color:#9D9D9D"/>
							<stop  offset="1" style="stop-color:#FFFFFF"/>
						</linearGradient>
						<path class="st37" d="M32.1,37.4c-2.4-1.1-3.1-5.2-3.1-5.2c2.1,3.3,5.7,3,5.9,3c0.3,0.9,0.4,1.3,0.7,2.2
							c0.6,1.7,0.9,2.6,1.6,4.3c-4.7,0.1-7.2-4.9-7.2-4.9C30.9,37.3,32.1,37.4,32.1,37.4z"/>
						
							<linearGradient id="SVGID_11_" gradientUnits="userSpaceOnUse" x1="32.799" y1="-6772.0156" x2="40.9933" y2="-6772.0156" gradientTransform="matrix(0 1 -1 0 -6736.9512 5.8153)">
							<stop  offset="0" style="stop-color:#000000"/>
							<stop  offset="0.6037" style="stop-color:#9D9D9D"/>
							<stop  offset="1" style="stop-color:#FFFFFF"/>
						</linearGradient>
						<path class="st38" d="M35.2,43.4c-2.4-0.3-4.8-4.8-4.8-4.8c2.2,2.4,6,1.7,6.3,1.7c0.4,0.9,0.5,1.3,0.9,2.2
							c0.8,1.8,1.2,2.6,2,4.3c-1.3-2-4.7-2-4.7-2c0.4-0.5,1.2-0.6,1.2-0.6c-1.3-0.5-2.4-0.3-2.4-0.3C34.6,43.4,35.2,43.4,35.2,43.4z
							"/>
						
							<linearGradient id="SVGID_12_" gradientUnits="userSpaceOnUse" x1="36.2643" y1="-6775.5757" x2="48.7912" y2="-6775.5757" gradientTransform="matrix(0 1 -1 0 -6736.9512 5.8153)">
							<stop  offset="0" style="stop-color:#000000"/>
							<stop  offset="0.6037" style="stop-color:#9D9D9D"/>
							<stop  offset="1" style="stop-color:#FFFFFF"/>
						</linearGradient>
						<path class="st39" d="M34.9,45.5c-1.6-0.1-2.1-2.2-2.1-2.2c0.5,1,2,1.9,3.2,1.3c1.2-0.6,2.6,0,2.6,0c1.3,2.7,2.1,4.1,3.7,6.7
							c0.8,1.3,1.2,1.9,2.1,3.2c-0.4,0.2-0.8-0.3-1.7-1.9c-0.7-1.2-1.4-2.7-2-3.5c-0.9-1.4-2.7-1-3.4-0.4c-0.7,0.5-1.2,0-1.2,0
							c0.6,0.2,0.9-0.2,1.6-0.9c0.7-0.7,1.4-0.5,1.4-0.5c-0.7-0.7-2.5-0.5-2.5-0.5c1-0.6,1.9-0.3,1.9-0.3
							C37.8,45.7,36.5,45.7,34.9,45.5z"/>
					</g>
					<g>
						<path class="st28" d="M29.5,26.7c0.2,1,1.3,1.8,1.3,1.8c-0.6-0.6-1.3-2.7-0.3-4.2c0.8-1.2,1.5-2.4,1.7-2.6
							c0.5,4.7,1,7,2.2,11.5c-1.7,0-3.4-1.7-4.1-2.9C29.3,28.6,29.5,26.7,29.5,26.7z"/>
						<path class="st27" d="M29,30.3c0.4,0.5,0.8,0.6,0.8,0.6c-0.8-0.6-0.8-2.6-0.8-2.6c1.5,2.8,4.5,3,4.8,3c0.4,1.5,0.6,2.2,1,3.6
							c0.2,0.7,0.3,1.1,0.6,1.8C29.3,35,29,30.3,29,30.3z"/>
						<path class="st26" d="M32.1,37.4c-2.4-1.1-3.1-5.2-3.1-5.2c2.1,3.3,5.7,3,5.9,3c0.3,0.9,0.4,1.3,0.7,2.2
							c0.6,1.7,0.9,2.6,1.6,4.3c-4.7,0.1-7.2-4.9-7.2-4.9C30.9,37.3,32.1,37.4,32.1,37.4z"/>
						<path class="st25" d="M35.2,43.4c-2.4-0.3-4.8-4.8-4.8-4.8c2.2,2.4,6,1.7,6.3,1.7c0.4,0.9,0.5,1.3,0.9,2.2
							c0.8,1.8,1.2,2.6,2,4.3c-1.3-2-4.7-2-4.7-2c0.4-0.5,1.2-0.6,1.2-0.6c-1.3-0.5-2.4-0.3-2.4-0.3C34.6,43.4,35.2,43.4,35.2,43.4z
							"/>
						<path class="st24" d="M34.9,45.5c-1.6-0.1-2.1-2.2-2.1-2.2c0.5,1,2,1.9,3.2,1.3c1.2-0.6,2.6,0,2.6,0c1.3,2.7,2.1,4.1,3.7,6.7
							c0.8,1.3,1.2,1.9,2.1,3.2c-0.4,0.2-0.8-0.3-1.7-1.9c-0.7-1.2-1.4-2.7-2-3.5c-0.9-1.4-2.7-1-3.4-0.4c-0.7,0.5-1.2,0-1.2,0
							c0.6,0.2,0.9-0.2,1.6-0.9c0.7-0.7,1.4-0.5,1.4-0.5c-0.7-0.7-2.5-0.5-2.5-0.5c1-0.6,1.9-0.3,1.9-0.3
							C37.8,45.7,36.5,45.7,34.9,45.5z"/>
					</g>
				</g>
			</g>
		</g>
		<g>
			<g>
				<path class="st40" d="M78.5,43.6c-0.1-0.3-0.4-0.8-1.1-1.3c-1.2-0.8-1.6-0.9-2.7-1.4c-1.5-0.6-2-1.8-2-1.8s0.2,3.2,1.8,4.5
					c0.9,0.8,1.8,1.9,2.3,2.6C76,45.3,75.1,45,75.1,45c0.7,0.5,0.9,1.5,0.9,1.5c-2.5-1.7-4.4,0.8-4.4,0.8c3.4-2.3,5.2,1.2,5.2,1.2
					c-1.2-1-2.9,0.1-2.9,0.1c1.8-0.4,2.7,0.5,3,0.9C77.6,47.1,77.9,45.9,78.5,43.6z"/>
				<path class="st41" d="M79.4,39.2c-0.4-0.2-1.5-0.9-2.7-2.3c-1.8-2-3.2-4.7-3.2-4.7s-0.6,2,0.1,4c0.6,1.9,2.1,3,2.6,3.3
					c-1.4-0.8-2.6,0-2.6,0c2,0.4,3.1,2.5,3.1,2.5c-1.2-1.6-2.1-0.9-2.1-0.9c1,0.3,1.8,1.5,2,1.9c0,0.1,0.1,0.1,0.1,0.1
					c0.4,0.8,0.9,2.2,1.1,3.5C78.5,43.6,78.9,42.1,79.4,39.2z"/>
				<path class="st42" d="M80.6,30.1c-0.9-0.7-5.9-4.4-5.9-7.9c-2,4.2,0,8.4,0,8.4c-0.2-0.2-0.8-0.9-0.8-0.9c-0.8,2.5,0,5.2,2.7,7.9
					c1.1,1.1,2.2,2.1,2.6,2.5C80,36.1,80.3,34.1,80.6,30.1z"/>
				<path class="st43" d="M80.8,27.9c-0.3-0.1-2.2-1.2-3.6-4.1c-0.7-1.3-0.6-4-0.6-4s-1.1,1.1-1.2,3.6c-0.3,4.1,4.4,8.7,4.4,8.7
					c-1.2-0.6-2.1-2.1-2.1-2.1c0.5,1.8,1.8,3.5,1.8,3.5c-2.5-2-3.7-5-3.7-5c0.7,3.7,3.7,6.6,4.4,7.3C80.4,32.7,80.6,31.1,80.8,27.9z
					"/>
				<path class="st44" d="M80.6,14.2c-0.2,0.2-0.8,1.2-2.2,3.1c-2.1,2.8,0.8,7.4,0.8,7.4c-2.4-2.2-2-4.4-2-4.4c-1.8,5,3,8.2,3.6,8.6
					C81.1,23,81.1,20.1,80.6,14.2z"/>
				
					<linearGradient id="SVGID_13_" gradientUnits="userSpaceOnUse" x1="33.2145" y1="-6812.0049" x2="43.6339" y2="-6812.0049" gradientTransform="matrix(0 1 -1 0 -6736.9512 5.8153)">
					<stop  offset="0" style="stop-color:#FFFFFF"/>
					<stop  offset="0.3963" style="stop-color:#9D9D9D"/>
					<stop  offset="1" style="stop-color:#000000"/>
				</linearGradient>
				<path class="st45" d="M78.5,43.6c-0.1-0.3-0.4-0.8-1.1-1.3c-1.2-0.8-1.6-0.9-2.7-1.4c-1.5-0.6-2-1.8-2-1.8s0.2,3.2,1.8,4.5
					c0.9,0.8,1.8,1.9,2.3,2.6C76,45.3,75.1,45,75.1,45c0.7,0.5,0.9,1.5,0.9,1.5c-2.5-1.7-4.4,0.8-4.4,0.8c3.4-2.3,5.2,1.2,5.2,1.2
					c-1.2-1-2.9,0.1-2.9,0.1c1.8-0.4,2.7,0.5,3,0.9C77.6,47.1,77.9,45.9,78.5,43.6z"/>
				
					<linearGradient id="SVGID_14_" gradientUnits="userSpaceOnUse" x1="26.3268" y1="-6813.2793" x2="40.6786" y2="-6813.2793" gradientTransform="matrix(0 1 -1 0 -6736.9512 5.8153)">
					<stop  offset="0" style="stop-color:#FFFFFF"/>
					<stop  offset="0.3963" style="stop-color:#9D9D9D"/>
					<stop  offset="1" style="stop-color:#000000"/>
				</linearGradient>
				<path class="st46" d="M79.4,39.2c-0.4-0.2-1.5-0.9-2.7-2.3c-1.8-2-3.2-4.7-3.2-4.7s-0.6,2,0.1,4c0.6,1.9,2.1,3,2.6,3.3
					c-1.4-0.8-2.6,0-2.6,0c2,0.4,3.1,2.5,3.1,2.5c-1.2-1.6-2.1-0.9-2.1-0.9c1,0.3,1.8,1.5,2,1.9c0,0.1,0.1,0.1,0.1,0.1
					c0.4,0.8,0.9,2.2,1.1,3.5C78.5,43.6,78.9,42.1,79.4,39.2z"/>
				
					<linearGradient id="SVGID_15_" gradientUnits="userSpaceOnUse" x1="16.4052" y1="-6814.127" x2="34.267" y2="-6814.127" gradientTransform="matrix(0 1 -1 0 -6736.9512 5.8153)">
					<stop  offset="0" style="stop-color:#FFFFFF"/>
					<stop  offset="0.3963" style="stop-color:#9D9D9D"/>
					<stop  offset="1" style="stop-color:#000000"/>
				</linearGradient>
				<path class="st47" d="M80.6,30.1c-0.9-0.7-5.9-4.4-5.9-7.9c-2,4.2,0,8.4,0,8.4c-0.2-0.2-0.8-0.9-0.8-0.9c-0.8,2.5,0,5.2,2.7,7.9
					c1.1,1.1,2.2,2.1,2.6,2.5C80,36.1,80.3,34.1,80.6,30.1z"/>
				
					<linearGradient id="SVGID_16_" gradientUnits="userSpaceOnUse" x1="13.9564" y1="-6814.9814" x2="30.0048" y2="-6814.9814" gradientTransform="matrix(0 1 -1 0 -6736.9512 5.8153)">
					<stop  offset="0" style="stop-color:#FFFFFF"/>
					<stop  offset="0.3963" style="stop-color:#9D9D9D"/>
					<stop  offset="1" style="stop-color:#000000"/>
				</linearGradient>
				<path class="st48" d="M80.8,27.9c-0.3-0.1-2.2-1.2-3.6-4.1c-0.7-1.3-0.6-4-0.6-4s-1.1,1.1-1.2,3.6c-0.3,4.1,4.4,8.7,4.4,8.7
					c-1.2-0.6-2.1-2.1-2.1-2.1c0.5,1.8,1.8,3.5,1.8,3.5c-2.5-2-3.7-5-3.7-5c0.7,3.7,3.7,6.6,4.4,7.3C80.4,32.7,80.6,31.1,80.8,27.9z
					"/>
				
					<linearGradient id="SVGID_17_" gradientUnits="userSpaceOnUse" x1="8.3495" y1="-6815.835" x2="23.1071" y2="-6815.835" gradientTransform="matrix(0 1 -1 0 -6736.9512 5.8153)">
					<stop  offset="0" style="stop-color:#FFFFFF"/>
					<stop  offset="0.3963" style="stop-color:#9D9D9D"/>
					<stop  offset="1" style="stop-color:#000000"/>
				</linearGradient>
				<path class="st49" d="M80.6,14.2c-0.2,0.2-0.8,1.2-2.2,3.1c-2.1,2.8,0.8,7.4,0.8,7.4c-2.4-2.2-2-4.4-2-4.4c-1.8,5,3,8.2,3.6,8.6
					C81.1,23,81.1,20.1,80.6,14.2z"/>
				<g>
					<path class="st44" d="M85.4,19.6c0,1.3-1.1,2.5-1.1,2.5c0.5-0.9,0.9-3.7-0.6-5.2c-1.3-1.3-2.5-2.5-2.7-2.8
						c0.6,5.9,0.6,8.9,0.2,14.8c2-0.5,3.7-3,4.3-4.7C86.1,21.9,85.4,19.6,85.4,19.6z"/>
					<path class="st43" d="M86.9,23.8c-0.3,0.7-0.9,0.9-0.9,0.9c0.9-0.9,0.3-3.4,0.3-3.4c-1.1,3.9-4.7,4.8-5.1,4.9
						c-0.1,1.9-0.1,2.8-0.3,4.7c-0.1,0.9-0.1,1.4-0.2,2.3C87.7,29.7,86.9,23.8,86.9,23.8z"/>
					<path class="st42" d="M84.9,33.5c2.7-2,2.4-7.2,2.4-7.2c-1.8,4.6-6.2,5.3-6.5,5.3c-0.1,1.2-0.2,1.7-0.3,2.9
						c-0.3,2.3-0.5,3.4-0.9,5.7c5.7-1.2,7.6-8,7.6-8C86.4,33,84.9,33.5,84.9,33.5z"/>
					<path class="st41" d="M82.6,41.6c2.9-1,4.7-7.2,4.7-7.2c-2.1,3.5-7,3.7-7.4,3.7c-0.2,1.2-0.3,1.8-0.6,3
						c-0.5,2.4-0.8,3.5-1.4,5.9c1.1-2.8,5.2-3.7,5.2-3.7c-0.7-0.5-1.6-0.4-1.6-0.4c1.5-1,2.9-1,2.9-1C83.4,41.5,82.6,41.6,82.6,41.6
						z"/>
					<path class="st40" d="M83.5,44.2c1.9-0.6,2-3.2,2-3.2c-0.4,1.4-2,2.9-3.6,2.5c-1.6-0.4-3.2,0.7-3.2,0.7
						c-0.9,3.7-1.5,5.6-2.8,9.2c-0.7,1.8-1,2.7-1.8,4.5c0.5,0.2,0.9-0.5,1.7-2.8c0.6-1.7,1.1-3.7,1.5-4.9c0.7-2,3-1.9,4-1.4
						c1,0.5,1.5-0.4,1.5-0.4c-0.7,0.4-1.2,0-2.2-0.6c-1-0.6-1.9-0.2-1.9-0.2c0.7-1.1,2.9-1.3,2.9-1.3c-1.3-0.4-2.4,0.1-2.4,0.1
						C80,45.2,81.6,44.8,83.5,44.2z"/>
				</g>
				<g class="st29">
					<g>
						
							<linearGradient id="SVGID_18_" gradientUnits="userSpaceOnUse" x1="0.8382" y1="-6820.2202" x2="23.088" y2="-6820.2202" gradientTransform="matrix(0 1 -1 0 -6736.9512 5.8153)">
							<stop  offset="0" style="stop-color:#000000"/>
							<stop  offset="0.6037" style="stop-color:#9D9D9D"/>
							<stop  offset="1" style="stop-color:#FFFFFF"/>
						</linearGradient>
						<path class="st50" d="M85.4,19.6c0,1.3-1.1,2.5-1.1,2.5c0.5-0.9,0.9-3.7-0.6-5.2c-1.3-1.3-2.5-2.5-2.7-2.8
							c0.6,5.9,0.6,8.9,0.2,14.8c2-0.5,3.7-3,4.3-4.7C86.1,21.9,85.4,19.6,85.4,19.6z"/>
						
							<linearGradient id="SVGID_19_" gradientUnits="userSpaceOnUse" x1="13.3274" y1="-6820.7124" x2="27.5106" y2="-6820.7124" gradientTransform="matrix(0 1 -1 0 -6736.9512 5.8153)">
							<stop  offset="0" style="stop-color:#000000"/>
							<stop  offset="0.6037" style="stop-color:#9D9D9D"/>
							<stop  offset="1" style="stop-color:#FFFFFF"/>
						</linearGradient>
						<path class="st51" d="M86.9,23.8c-0.3,0.7-0.9,0.9-0.9,0.9c0.9-0.9,0.3-3.4,0.3-3.4c-1.1,3.9-4.7,4.8-5.1,4.9
							c-0.1,1.9-0.1,2.8-0.3,4.7c-0.1,0.9-0.1,1.4-0.2,2.3C87.7,29.7,86.9,23.8,86.9,23.8z"/>
						
							<linearGradient id="SVGID_20_" gradientUnits="userSpaceOnUse" x1="19.7373" y1="-6820.4199" x2="34.3087" y2="-6820.4199" gradientTransform="matrix(0 1 -1 0 -6736.9512 5.8153)">
							<stop  offset="0" style="stop-color:#000000"/>
							<stop  offset="0.6037" style="stop-color:#9D9D9D"/>
							<stop  offset="1" style="stop-color:#FFFFFF"/>
						</linearGradient>
						<path class="st52" d="M84.9,33.5c2.7-2,2.4-7.2,2.4-7.2c-1.8,4.6-6.2,5.3-6.5,5.3c-0.1,1.2-0.2,1.7-0.3,2.9
							c-0.3,2.3-0.5,3.4-0.9,5.7c5.7-1.2,7.6-8,7.6-8C86.4,33,84.9,33.5,84.9,33.5z"/>
						
							<linearGradient id="SVGID_21_" gradientUnits="userSpaceOnUse" x1="28.6576" y1="-6819.543" x2="41.2199" y2="-6819.543" gradientTransform="matrix(0 1 -1 0 -6736.9512 5.8153)">
							<stop  offset="0" style="stop-color:#000000"/>
							<stop  offset="0.6037" style="stop-color:#9D9D9D"/>
							<stop  offset="1" style="stop-color:#FFFFFF"/>
						</linearGradient>
						<path class="st53" d="M82.6,41.6c2.9-1,4.7-7.2,4.7-7.2c-2.1,3.5-7,3.7-7.4,3.7c-0.2,1.2-0.3,1.8-0.6,3
							c-0.5,2.4-0.8,3.5-1.4,5.9c1.1-2.8,5.2-3.7,5.2-3.7c-0.7-0.5-1.6-0.4-1.6-0.4c1.5-1,2.9-1,2.9-1
							C83.4,41.5,82.6,41.6,82.6,41.6z"/>
						
							<linearGradient id="SVGID_22_" gradientUnits="userSpaceOnUse" x1="33.2229" y1="-6816.7598" x2="52.0332" y2="-6816.7598" gradientTransform="matrix(0 1 -1 0 -6736.9512 5.8153)">
							<stop  offset="0" style="stop-color:#000000"/>
							<stop  offset="0.6037" style="stop-color:#9D9D9D"/>
							<stop  offset="1" style="stop-color:#FFFFFF"/>
						</linearGradient>
						<path class="st54" d="M83.5,44.2c1.9-0.6,2-3.2,2-3.2c-0.4,1.4-2,2.9-3.6,2.5c-1.6-0.4-3.2,0.7-3.2,0.7
							c-0.9,3.7-1.5,5.6-2.8,9.2c-0.7,1.8-1,2.7-1.8,4.5c0.5,0.2,0.9-0.5,1.7-2.8c0.6-1.7,1.1-3.7,1.5-4.9c0.7-2,3-1.9,4-1.4
							c1,0.5,1.5-0.4,1.5-0.4c-0.7,0.4-1.2,0-2.2-0.6c-1-0.6-1.9-0.2-1.9-0.2c0.7-1.1,2.9-1.3,2.9-1.3c-1.3-0.4-2.4,0.1-2.4,0.1
							C80,45.2,81.6,44.8,83.5,44.2z"/>
					</g>
					<g>
						<path class="st44" d="M85.4,19.6c0,1.3-1.1,2.5-1.1,2.5c0.5-0.9,0.9-3.7-0.6-5.2c-1.3-1.3-2.5-2.5-2.7-2.8
							c0.6,5.9,0.6,8.9,0.2,14.8c2-0.5,3.7-3,4.3-4.7C86.1,21.9,85.4,19.6,85.4,19.6z"/>
						<path class="st43" d="M86.9,23.8c-0.3,0.7-0.9,0.9-0.9,0.9c0.9-0.9,0.3-3.4,0.3-3.4c-1.1,3.9-4.7,4.8-5.1,4.9
							c-0.1,1.9-0.1,2.8-0.3,4.7c-0.1,0.9-0.1,1.4-0.2,2.3C87.7,29.7,86.9,23.8,86.9,23.8z"/>
						<path class="st42" d="M84.9,33.5c2.7-2,2.4-7.2,2.4-7.2c-1.8,4.6-6.2,5.3-6.5,5.3c-0.1,1.2-0.2,1.7-0.3,2.9
							c-0.3,2.3-0.5,3.4-0.9,5.7c5.7-1.2,7.6-8,7.6-8C86.4,33,84.9,33.5,84.9,33.5z"/>
						<path class="st41" d="M82.6,41.6c2.9-1,4.7-7.2,4.7-7.2c-2.1,3.5-7,3.7-7.4,3.7c-0.2,1.2-0.3,1.8-0.6,3
							c-0.5,2.4-0.8,3.5-1.4,5.9c1.1-2.8,5.2-3.7,5.2-3.7c-0.7-0.5-1.6-0.4-1.6-0.4c1.5-1,2.9-1,2.9-1
							C83.4,41.5,82.6,41.6,82.6,41.6z"/>
						<path class="st40" d="M83.5,44.2c1.9-0.6,2-3.2,2-3.2c-0.4,1.4-2,2.9-3.6,2.5c-1.6-0.4-3.2,0.7-3.2,0.7
							c-0.9,3.7-1.5,5.6-2.8,9.2c-0.7,1.8-1,2.7-1.8,4.5c0.5,0.2,0.9-0.5,1.7-2.8c0.6-1.7,1.1-3.7,1.5-4.9c0.7-2,3-1.9,4-1.4
							c1,0.5,1.5-0.4,1.5-0.4c-0.7,0.4-1.2,0-2.2-0.6c-1-0.6-1.9-0.2-1.9-0.2c0.7-1.1,2.9-1.3,2.9-1.3c-1.3-0.4-2.4,0.1-2.4,0.1
							C80,45.2,81.6,44.8,83.5,44.2z"/>
					</g>
				</g>
			</g>
		</g>
		<g>
			<g>
				<g>
					<path class="st55" d="M92.1,44.8c-0.1-0.3-0.3-0.8-1-1.2c-1.1-0.7-1.4-0.8-2.4-1.3c-1.3-0.6-1.8-1.6-1.8-1.6s0.2,2.8,1.6,4.1
						c0.8,0.7,1.6,1.7,2.1,2.3c-0.7-0.8-1.5-1.1-1.5-1.1c0.6,0.4,0.8,1.3,0.8,1.3c-2.3-1.6-4,0.7-4,0.7c3-2.1,4.7,1.1,4.7,1.1
						c-1.1-0.9-2.6,0.1-2.6,0.1c1.6-0.4,2.4,0.4,2.7,0.8C91.3,48,91.6,46.9,92.1,44.8z"/>
					<path class="st56" d="M92.9,40.9c-0.3-0.2-1.3-0.8-2.4-2.1c-1.6-1.8-2.9-4.2-2.9-4.2s-0.5,1.8,0,3.6c0.5,1.7,1.9,2.7,2.3,2.9
						c-1.3-0.7-2.4,0-2.4,0c1.8,0.3,2.8,2.2,2.8,2.2c-1.1-1.5-1.9-0.8-1.9-0.8c0.9,0.3,1.6,1.3,1.8,1.7c0,0.1,0.1,0.1,0.1,0.1
						c0.3,0.7,0.8,2,1,3.1C92.1,44.8,92.4,43.5,92.9,40.9z"/>
					<path class="st57" d="M94,32.8c-0.8-0.6-5.3-3.9-5.3-7.1c-1.8,3.8,0,7.5,0,7.5c-0.2-0.2-0.7-0.8-0.7-0.8
						c-0.7,2.2,0,4.6,2.4,7.1c1,1,2,1.9,2.3,2.2C93.5,38.2,93.7,36.4,94,32.8z"/>
					<path class="st58" d="M94.1,30.8c-0.3-0.1-1.9-1.1-3.2-3.7c-0.6-1.2-0.6-3.6-0.6-3.6s-1,1-1.1,3.3c-0.3,3.7,3.9,7.8,3.9,7.8
						c-1-0.5-1.9-1.8-1.9-1.8c0.5,1.6,1.6,3.1,1.6,3.1c-2.2-1.8-3.3-4.5-3.3-4.5c0.6,3.3,3.3,5.9,3.9,6.5
						C93.8,35.1,94,33.7,94.1,30.8z"/>
					<path class="st59" d="M93.9,18.5c-0.1,0.2-0.7,1.1-2,2.8c-1.8,2.5,0.7,6.6,0.7,6.6c-2.1-2-1.7-3.9-1.7-3.9
						c-1.6,4.5,2.7,7.3,3.2,7.7C94.5,26.5,94.4,23.8,93.9,18.5z"/>
				</g>
				<g class="st29">
					<g>
						
							<linearGradient id="SVGID_23_" gradientUnits="userSpaceOnUse" x1="392.8681" y1="-6881.4536" x2="402.7812" y2="-6881.4536" gradientTransform="matrix(0 1 -1 0 -6792.4512 -352.1071)">
							<stop  offset="0" style="stop-color:#FFFFFF"/>
							<stop  offset="0.3963" style="stop-color:#9D9D9D"/>
							<stop  offset="1" style="stop-color:#000000"/>
						</linearGradient>
						<path class="st60" d="M92.1,44.8c-0.1-0.3-0.3-0.8-1-1.2c-1.1-0.7-1.4-0.8-2.4-1.3c-1.3-0.6-1.8-1.6-1.8-1.6s0.2,2.8,1.6,4.1
							c0.8,0.7,1.6,1.7,2.1,2.3c-0.7-0.8-1.5-1.1-1.5-1.1c0.6,0.4,0.8,1.3,0.8,1.3c-2.3-1.6-4,0.7-4,0.7c3-2.1,4.7,1.1,4.7,1.1
							c-1.1-0.9-2.6,0.1-2.6,0.1c1.6-0.4,2.4,0.4,2.7,0.8C91.3,48,91.6,46.9,92.1,44.8z"/>
						
							<linearGradient id="SVGID_24_" gradientUnits="userSpaceOnUse" x1="386.7072" y1="-6882.5972" x2="399.5875" y2="-6882.5972" gradientTransform="matrix(0 1 -1 0 -6792.4512 -352.1071)">
							<stop  offset="0" style="stop-color:#FFFFFF"/>
							<stop  offset="0.3963" style="stop-color:#9D9D9D"/>
							<stop  offset="1" style="stop-color:#000000"/>
						</linearGradient>
						<path class="st61" d="M92.9,40.9c-0.3-0.2-1.3-0.8-2.4-2.1c-1.6-1.8-2.9-4.2-2.9-4.2s-0.5,1.8,0,3.6c0.5,1.7,1.9,2.7,2.3,2.9
							c-1.3-0.7-2.4,0-2.4,0c1.8,0.3,2.8,2.2,2.8,2.2c-1.1-1.5-1.9-0.8-1.9-0.8c0.9,0.3,1.6,1.3,1.8,1.7c0,0.1,0.1,0.1,0.1,0.1
							c0.3,0.7,0.8,2,1,3.1C92.1,44.8,92.4,43.5,92.9,40.9z"/>
						
							<linearGradient id="SVGID_25_" gradientUnits="userSpaceOnUse" x1="377.8337" y1="-6883.3579" x2="393.8117" y2="-6883.3579" gradientTransform="matrix(0 1 -1 0 -6792.4512 -352.1071)">
							<stop  offset="0" style="stop-color:#FFFFFF"/>
							<stop  offset="0.3963" style="stop-color:#9D9D9D"/>
							<stop  offset="1" style="stop-color:#000000"/>
						</linearGradient>
						<path class="st62" d="M94,32.8c-0.8-0.6-5.3-3.9-5.3-7.1c-1.8,3.8,0,7.5,0,7.5c-0.2-0.2-0.7-0.8-0.7-0.8
							c-0.7,2.2,0,4.6,2.4,7.1c1,1,2,1.9,2.3,2.2C93.5,38.2,93.7,36.4,94,32.8z"/>
						
							<linearGradient id="SVGID_26_" gradientUnits="userSpaceOnUse" x1="375.6447" y1="-6884.1245" x2="393.3869" y2="-6884.1245" gradientTransform="matrix(0 1 -1 0 -6792.4512 -352.1071)">
							<stop  offset="0" style="stop-color:#FFFFFF"/>
							<stop  offset="0.3963" style="stop-color:#9D9D9D"/>
							<stop  offset="1" style="stop-color:#000000"/>
						</linearGradient>
						<path class="st63" d="M94.1,30.8c-0.3-0.1-1.9-1.1-3.2-3.7c-0.6-1.2-0.6-3.6-0.6-3.6s-1,1-1.1,3.3c-0.3,3.7,3.9,7.8,3.9,7.8
							c-1-0.5-1.9-1.8-1.9-1.8c0.5,1.6,1.6,3.1,1.6,3.1c-2.2-1.8-3.3-4.5-3.3-4.5c0.6,3.3,3.3,5.9,3.9,6.5
							C93.8,35.1,94,33.7,94.1,30.8z"/>
						
							<linearGradient id="SVGID_27_" gradientUnits="userSpaceOnUse" x1="370.6313" y1="-6884.8892" x2="392.7131" y2="-6884.8892" gradientTransform="matrix(0 1 -1 0 -6792.4512 -352.1071)">
							<stop  offset="0" style="stop-color:#FFFFFF"/>
							<stop  offset="0.3963" style="stop-color:#9D9D9D"/>
							<stop  offset="1" style="stop-color:#000000"/>
						</linearGradient>
						<path class="st64" d="M93.9,18.5c-0.1,0.2-0.7,1.1-2,2.8c-1.8,2.5,0.7,6.6,0.7,6.6c-2.1-2-1.7-3.9-1.7-3.9
							c-1.6,4.5,2.7,7.3,3.2,7.7C94.5,26.5,94.4,23.8,93.9,18.5z"/>
					</g>
					<g>
						<path class="st55" d="M92.1,44.8c-0.1-0.3-0.3-0.8-1-1.2c-1.1-0.7-1.4-0.8-2.4-1.3c-1.3-0.6-1.8-1.6-1.8-1.6s0.2,2.8,1.6,4.1
							c0.8,0.7,1.6,1.7,2.1,2.3c-0.7-0.8-1.5-1.1-1.5-1.1c0.6,0.4,0.8,1.3,0.8,1.3c-2.3-1.6-4,0.7-4,0.7c3-2.1,4.7,1.1,4.7,1.1
							c-1.1-0.9-2.6,0.1-2.6,0.1c1.6-0.4,2.4,0.4,2.7,0.8C91.3,48,91.6,46.9,92.1,44.8z"/>
						<path class="st56" d="M92.9,40.9c-0.3-0.2-1.3-0.8-2.4-2.1c-1.6-1.8-2.9-4.2-2.9-4.2s-0.5,1.8,0,3.6c0.5,1.7,1.9,2.7,2.3,2.9
							c-1.3-0.7-2.4,0-2.4,0c1.8,0.3,2.8,2.2,2.8,2.2c-1.1-1.5-1.9-0.8-1.9-0.8c0.9,0.3,1.6,1.3,1.8,1.7c0,0.1,0.1,0.1,0.1,0.1
							c0.3,0.7,0.8,2,1,3.1C92.1,44.8,92.4,43.5,92.9,40.9z"/>
						<path class="st57" d="M94,32.8c-0.8-0.6-5.3-3.9-5.3-7.1c-1.8,3.8,0,7.5,0,7.5c-0.2-0.2-0.7-0.8-0.7-0.8
							c-0.7,2.2,0,4.6,2.4,7.1c1,1,2,1.9,2.3,2.2C93.5,38.2,93.7,36.4,94,32.8z"/>
						<path class="st58" d="M94.1,30.8c-0.3-0.1-1.9-1.1-3.2-3.7c-0.6-1.2-0.6-3.6-0.6-3.6s-1,1-1.1,3.3c-0.3,3.7,3.9,7.8,3.9,7.8
							c-1-0.5-1.9-1.8-1.9-1.8c0.5,1.6,1.6,3.1,1.6,3.1c-2.2-1.8-3.3-4.5-3.3-4.5c0.6,3.3,3.3,5.9,3.9,6.5
							C93.8,35.1,94,33.7,94.1,30.8z"/>
						<path class="st59" d="M93.9,18.5c-0.1,0.2-0.7,1.1-2,2.8c-1.8,2.5,0.7,6.6,0.7,6.6c-2.1-2-1.7-3.9-1.7-3.9
							c-1.6,4.5,2.7,7.3,3.2,7.7C94.5,26.5,94.4,23.8,93.9,18.5z"/>
					</g>
				</g>
				<g>
					<path class="st59" d="M98.2,23.4c0,1.1-1,2.3-1,2.3c0.5-0.8,0.8-3.3-0.6-4.7c-1.2-1.2-2.2-2.3-2.4-2.5
						c0.5,5.3,0.5,7.9,0.2,13.2c1.8-0.4,3.3-2.7,3.9-4.2C98.9,25.4,98.2,23.4,98.2,23.4z"/>
					<path class="st58" d="M99.6,27.1c-0.3,0.6-0.8,0.8-0.8,0.8c0.8-0.8,0.3-3.1,0.3-3.1c-1,3.4-4.2,4.3-4.6,4.4
						c-0.1,1.7-0.1,2.5-0.3,4.2c-0.1,0.8-0.1,1.3-0.2,2.1C100.3,32.5,99.6,27.1,99.6,27.1z"/>
					<path class="st57" d="M97.8,35.8c2.4-1.8,2.2-6.5,2.2-6.5c-1.6,4.1-5.5,4.7-5.9,4.7c-0.1,1-0.2,1.6-0.3,2.6
						c-0.3,2.1-0.4,3.1-0.8,5.1c5.1-1,6.8-7.2,6.8-7.2C99.1,35.4,97.8,35.8,97.8,35.8z"/>
					<path class="st56" d="M95.7,43.1c2.6-0.9,4.2-6.4,4.2-6.4C98,39.8,93.7,40,93.3,40c-0.2,1.1-0.3,1.6-0.5,2.7
						c-0.4,2.1-0.7,3.2-1.2,5.2c1-2.5,4.7-3.3,4.7-3.3c-0.6-0.4-1.4-0.3-1.4-0.3c1.3-0.9,2.6-0.9,2.6-0.9
						C96.5,43,95.7,43.1,95.7,43.1z"/>
					<path class="st55" d="M96.5,45.4c1.7-0.5,1.8-2.9,1.8-2.9c-0.3,1.2-1.8,2.6-3.2,2.2c-1.5-0.3-2.8,0.6-2.8,0.6
						c-0.8,3.3-1.3,5-2.5,8.2c-0.6,1.6-0.9,2.4-1.6,4c0.5,0.2,0.8-0.5,1.5-2.5c0.5-1.5,1-3.3,1.4-4.3c0.7-1.8,2.7-1.7,3.6-1.3
						c0.9,0.4,1.3-0.3,1.3-0.3c-0.6,0.3-1,0-2-0.6c-0.9-0.6-1.7-0.2-1.7-0.2c0.6-1,2.6-1.2,2.6-1.2c-1.2-0.4-2.1,0.1-2.1,0.1
						C93.5,46.2,94.8,45.9,96.5,45.4z"/>
				</g>
				<g class="st29">
					<g>
						
							<linearGradient id="SVGID_28_" gradientUnits="userSpaceOnUse" x1="363.9134" y1="-6888.813" x2="383.8139" y2="-6888.813" gradientTransform="matrix(0 1 -1 0 -6792.4512 -352.1071)">
							<stop  offset="0" style="stop-color:#000000"/>
							<stop  offset="0.6037" style="stop-color:#9D9D9D"/>
							<stop  offset="1" style="stop-color:#FFFFFF"/>
						</linearGradient>
						<path class="st65" d="M98.2,23.4c0,1.1-1,2.3-1,2.3c0.5-0.8,0.8-3.3-0.6-4.7c-1.2-1.2-2.2-2.3-2.4-2.5
							c0.5,5.3,0.5,7.9,0.2,13.2c1.8-0.4,3.3-2.7,3.9-4.2C98.9,25.4,98.2,23.4,98.2,23.4z"/>
						
							<linearGradient id="SVGID_29_" gradientUnits="userSpaceOnUse" x1="375.0866" y1="-6889.249" x2="387.7695" y2="-6889.249" gradientTransform="matrix(0 1 -1 0 -6792.4512 -352.1071)">
							<stop  offset="0" style="stop-color:#000000"/>
							<stop  offset="0.6037" style="stop-color:#9D9D9D"/>
							<stop  offset="1" style="stop-color:#FFFFFF"/>
						</linearGradient>
						<path class="st66" d="M99.6,27.1c-0.3,0.6-0.8,0.8-0.8,0.8c0.8-0.8,0.3-3.1,0.3-3.1c-1,3.4-4.2,4.3-4.6,4.4
							c-0.1,1.7-0.1,2.5-0.3,4.2c-0.1,0.8-0.1,1.3-0.2,2.1C100.3,32.5,99.6,27.1,99.6,27.1z"/>
						
							<linearGradient id="SVGID_30_" gradientUnits="userSpaceOnUse" x1="380.8199" y1="-6888.9854" x2="393.8493" y2="-6888.9854" gradientTransform="matrix(0 1 -1 0 -6792.4512 -352.1071)">
							<stop  offset="0" style="stop-color:#000000"/>
							<stop  offset="0.6037" style="stop-color:#9D9D9D"/>
							<stop  offset="1" style="stop-color:#FFFFFF"/>
						</linearGradient>
						<path class="st67" d="M97.8,35.8c2.4-1.8,2.2-6.5,2.2-6.5c-1.6,4.1-5.5,4.7-5.9,4.7c-0.1,1-0.2,1.6-0.3,2.6
							c-0.3,2.1-0.4,3.1-0.8,5.1c5.1-1,6.8-7.2,6.8-7.2C99.1,35.4,97.8,35.8,97.8,35.8z"/>
						
							<linearGradient id="SVGID_31_" gradientUnits="userSpaceOnUse" x1="388.7975" y1="-6888.1982" x2="400.0302" y2="-6888.1982" gradientTransform="matrix(0 1 -1 0 -6792.4512 -352.1071)">
							<stop  offset="0" style="stop-color:#000000"/>
							<stop  offset="0.6037" style="stop-color:#9D9D9D"/>
							<stop  offset="1" style="stop-color:#FFFFFF"/>
						</linearGradient>
						<path class="st68" d="M95.7,43.1c2.6-0.9,4.2-6.4,4.2-6.4C98,39.8,93.7,40,93.3,40c-0.2,1.1-0.3,1.6-0.5,2.7
							c-0.4,2.1-0.7,3.2-1.2,5.2c1-2.5,4.7-3.3,4.7-3.3c-0.6-0.4-1.4-0.3-1.4-0.3c1.3-0.9,2.6-0.9,2.6-0.9
							C96.5,43,95.7,43.1,95.7,43.1z"/>
						
							<linearGradient id="SVGID_32_" gradientUnits="userSpaceOnUse" x1="392.8814" y1="-6885.7056" x2="409.7009" y2="-6885.7056" gradientTransform="matrix(0 1 -1 0 -6792.4512 -352.1071)">
							<stop  offset="0" style="stop-color:#000000"/>
							<stop  offset="0.6037" style="stop-color:#9D9D9D"/>
							<stop  offset="1" style="stop-color:#FFFFFF"/>
						</linearGradient>
						<path class="st69" d="M96.5,45.4c1.7-0.5,1.8-2.9,1.8-2.9c-0.3,1.2-1.8,2.6-3.2,2.2c-1.5-0.3-2.8,0.6-2.8,0.6
							c-0.8,3.3-1.3,5-2.5,8.2c-0.6,1.6-0.9,2.4-1.6,4c0.5,0.2,0.8-0.5,1.5-2.5c0.5-1.5,1-3.3,1.4-4.3c0.7-1.8,2.7-1.7,3.6-1.3
							c0.9,0.4,1.3-0.3,1.3-0.3c-0.6,0.3-1,0-2-0.6c-0.9-0.6-1.7-0.2-1.7-0.2c0.6-1,2.6-1.2,2.6-1.2c-1.2-0.4-2.1,0.1-2.1,0.1
							C93.5,46.2,94.8,45.9,96.5,45.4z"/>
					</g>
					<g>
						<path class="st59" d="M98.2,23.4c0,1.1-1,2.3-1,2.3c0.5-0.8,0.8-3.3-0.6-4.7c-1.2-1.2-2.2-2.3-2.4-2.5
							c0.5,5.3,0.5,7.9,0.2,13.2c1.8-0.4,3.3-2.7,3.9-4.2C98.9,25.4,98.2,23.4,98.2,23.4z"/>
						<path class="st58" d="M99.6,27.1c-0.3,0.6-0.8,0.8-0.8,0.8c0.8-0.8,0.3-3.1,0.3-3.1c-1,3.4-4.2,4.3-4.6,4.4
							c-0.1,1.7-0.1,2.5-0.3,4.2c-0.1,0.8-0.1,1.3-0.2,2.1C100.3,32.5,99.6,27.1,99.6,27.1z"/>
						<path class="st57" d="M97.8,35.8c2.4-1.8,2.2-6.5,2.2-6.5c-1.6,4.1-5.5,4.7-5.9,4.7c-0.1,1-0.2,1.6-0.3,2.6
							c-0.3,2.1-0.4,3.1-0.8,5.1c5.1-1,6.8-7.2,6.8-7.2C99.1,35.4,97.8,35.8,97.8,35.8z"/>
						<path class="st56" d="M95.7,43.1c2.6-0.9,4.2-6.4,4.2-6.4C98,39.8,93.7,40,93.3,40c-0.2,1.1-0.3,1.6-0.5,2.7
							c-0.4,2.1-0.7,3.2-1.2,5.2c1-2.5,4.7-3.3,4.7-3.3c-0.6-0.4-1.4-0.3-1.4-0.3c1.3-0.9,2.6-0.9,2.6-0.9
							C96.5,43,95.7,43.1,95.7,43.1z"/>
						<path class="st55" d="M96.5,45.4c1.7-0.5,1.8-2.9,1.8-2.9c-0.3,1.2-1.8,2.6-3.2,2.2c-1.5-0.3-2.8,0.6-2.8,0.6
							c-0.8,3.3-1.3,5-2.5,8.2c-0.6,1.6-0.9,2.4-1.6,4c0.5,0.2,0.8-0.5,1.5-2.5c0.5-1.5,1-3.3,1.4-4.3c0.7-1.8,2.7-1.7,3.6-1.3
							c0.9,0.4,1.3-0.3,1.3-0.3c-0.6,0.3-1,0-2-0.6c-0.9-0.6-1.7-0.2-1.7-0.2c0.6-1,2.6-1.2,2.6-1.2c-1.2-0.4-2.1,0.1-2.1,0.1
							C93.5,46.2,94.8,45.9,96.5,45.4z"/>
					</g>
				</g>
			</g>
		</g>
		<g>
			<path class="st20" d="M62.6,26.9c0,0,0.6-0.6,1.3-1.7c0.1,0.2,0.1,0.5,0.2,0.7C63.7,26.4,63.2,26.7,62.6,26.9z"/>
			<path class="st70" d="M46.5,0c0.8,0.3,5.4,1.7,8.3,3.5c3,1.7,5.5,4.4,6.5,7.4c0.7,2.4,1,5.5,1,6.6l-0.6,1.9
				C55.4,4.4,46.5,0,46.5,0z"/>
			<path class="st71" d="M62.1,20.2c1.1-1.3,2.3-2.9,3.2-4.9c0.2,0.1,0.4,0.3,0.5,0.5c-0.6,2-1.5,4.3-2.8,6.7
				C62.7,21.7,62.4,20.9,62.1,20.2z"/>
			<path class="st72" d="M61.7,19.4l0.6-1.9c0,0.3,0,0.5,0,0.5l0.7-4.5c0.4,0.3,1.2,1,2.2,1.9c-0.9,2-2.1,3.7-3.2,4.9
				C62,19.9,61.9,19.6,61.7,19.4z"/>
			<path class="st73" d="M65.3,30.5c1.4-2.3,3.6-6.8,3.7-11.7c0.5,0.5,0.9,1,1.4,1.5c-0.7,6-4,11.3-4.6,12.2
				C65.6,31.8,65.5,31.1,65.3,30.5z"/>
			<path class="st74" d="M72.3,31.9l2.8-3.2c0,0-0.2,3.2-1.4,11S69,47.9,69,47.9l-1.2-0.1c-0.2-3.5-0.5-6.8-1-9.9
				C69.5,36,71.2,33.7,72.3,31.9z"/>
			<path class="st75" d="M66.8,38c-0.3-1.9-0.6-3.7-1-5.5c0.6-1,3.9-6.3,4.6-12.2c0.2,0.3,0.5,0.5,0.7,0.8c2.8,3.4,1.9,6.5,1.7,8.3
				c-0.2,1.8-3.1,5.5-3.1,5.5l2.6-3C71.2,33.7,69.5,36,66.8,38z"/>
			<path class="st76" d="M64.7,27.9c-0.2-0.7-0.4-1.3-0.6-2c2-2.1,2.5-6.1,2.5-6.1C66.8,22.9,65.6,26,64.7,27.9z"/>
			<path class="st77" d="M64.7,27.9c1-2,2.1-5.1,1.9-8.1c0,0-0.4,4-2.5,6.1c-0.1-0.2-0.1-0.5-0.2-0.7c0.7-1.2,1.4-3,1-5
				c0,0-0.4,2.2-1.5,3.5c-0.2-0.5-0.3-0.9-0.5-1.3c1.4-2.4,2.3-4.7,2.8-6.7c1,0.9,2.2,2,3.3,3.1c-0.2,4.9-2.4,9.4-3.7,11.7
				C65.1,29.6,64.9,28.8,64.7,27.9z"/>
			<path class="st78" d="M63.9,25.2c-0.2-0.5-0.3-1-0.5-1.5c1.1-1.3,1.5-3.5,1.5-3.5C65.3,22.2,64.6,24,63.9,25.2z"/>
			<path class="st17" d="M61.9,39.5c0,0-3.9-1.3-4.2-1.6L61.9,39.5z"/>
			<path class="st17" d="M57,30.6c-0.4-0.4-0.7-0.9-1-1.3l4.5,2.6c0.4,0.3,0.7,0.5,0.9,0.5C61.4,32.3,58.7,31.5,57,30.6z"/>
			<path class="st79" d="M67.4,42.8c0.1,0.8,0.2,1.6,0.2,2.4c-4.4-1-5.7-5.8-5.7-5.8S62.8,41.6,67.4,42.8z"/>
			<path class="st80" d="M67.6,45.3c0.1,0.8,0.1,1.7,0.2,2.6l-0.1,0c0,0,0,0-0.6,0.1c-0.6,0.1-1.7,0.2-3.7-1.4
				c-2-1.6-5.9-8.9-5.6-8.6c0.3,0.3,4.2,1.6,4.2,1.6S63.2,44.3,67.6,45.3z"/>
			<path class="st20" d="M62.1,20.2c0.1,0.2,0.1,0.3,0.2,0.5c-0.3,0-0.5,0.1-0.7,0.1C61.7,20.6,61.9,20.4,62.1,20.2z"/>
			<path class="st81" d="M49.8,12.8c0,0,3.8,3.1,9.4,1.1c0.5,0.8,0.9,1.7,1.4,2.6C57.5,16.4,51.5,15.8,49.8,12.8z"/>
			<polygon class="st20" points="61.7,19.4 61.8,19.4 61.7,19.4 			"/>
			<path class="st82" d="M50.6,17.9c0.3,0.2,6.6,1.9,6.6,1.9s1.1,1.3,4.3,1c0.2,0,0.5-0.1,0.7-0.1c0.2,0.6,0.5,1.2,0.7,1.8
				c0.2,0.4,0.3,0.9,0.5,1.3c0.2,0.5,0.3,1,0.5,1.5c-0.6,1-0.1,0.5-0.1,0.5c0.6-0.2-0.1,0.6,0.3,0.2c0.2,0.6,0.4,1.3,0.6,2
				c0.2,0.8,0.4,1.7,0.6,2.5c0.2,0.7,0.3,1.3,0.5,2c0.1,0.5,0.2,1,0.3,1.5c-2.8-0.2-4.7-1.7-4.7-1.7l-0.9-0.5
				c-1.3-0.8-3.5-2.4-4.7-3.7C54.3,26.5,50.3,17.7,50.6,17.9z"/>
			<path class="st83" d="M47.8,7.9c-1.1-3-1.3-7.9-1.3-7.9s6.7,3.3,12.6,13.9c-5.5,2-9.4-1.1-9.4-1.1c1.8,3,7.7,3.6,10.7,3.8
				c0.4,0.9,0.9,1.8,1.3,2.8l0,0c-1.2,0.5-3,1.1-4.5,0.4c0,0-2.4-1.1-4.2-2C51.1,17,48.9,11,47.8,7.9z"/>
			<path class="st84" d="M61.7,19.4l-0.1,0.5L61.7,19.4C61.7,19.4,61.8,19.4,61.7,19.4c0.1,0.3,0.2,0.5,0.3,0.8
				c-0.2,0.2-0.4,0.4-0.5,0.6c-3.2,0.4-4.3-1-4.3-1C58.7,20.5,60.6,19.9,61.7,19.4z"/>
			<path class="st79" d="M66.1,34c0.2,1,0.4,2,0.5,3.1c-2.7-1-6.7-3-9.6-6.5c1.7,0.9,4.4,1.8,4.4,1.8S63.3,33.9,66.1,34z"/>
			<path class="st85" d="M66.6,37.1c0,0.3,0.1,0.6,0.1,0.8c-0.3,0.2-0.5,0.4-0.8,0.6c0.3-0.2,0.6-0.4,0.8-0.6
				c0.2,1.6,0.4,3.2,0.6,4.9c-4.5-1.2-5.5-3.3-5.5-3.3s-3.8-2-4.6-3.8c-0.8-1.8-1.5-5.9-1.5-5.9c0.2,0.3,0.7,0.6,1.2,0.9
				C59.9,34.1,64,36.1,66.6,37.1z"/>
			<path class="st86" d="M67.8,52.8l0.7,2.1c0,0,0.4-11-0.8-18S60.8,15.3,56.8,10c-3.9-5.2-6-7.2-6-7.2L51.2,5
				c0,0,5.7,4.4,10.8,16.8S67.2,34.6,67.8,52.8z"/>
		</g>
		<path class="st22" d="M52.3,32.3c0,0,0.3,0.2,0.9,1.2c-0.5,2.1-2,3.5-3.2,4.3c-0.2-0.7-0.5-1.3-0.8-2l1.4-1.4L52.3,32.3z"/>
		<path class="st21" d="M53.2,33.5c0.2,0.4,0.5,0.9,0.8,1.6c0.1,2.1-0.4,4.6-2.8,5.6c-0.4-0.9-0.7-1.9-1.1-2.9
			C51.2,37,52.7,35.6,53.2,33.5z"/>
		<path class="st87" d="M55.5,40.2c0.2,3.2-1.5,5.5-1.9,6c-0.3-0.6-0.7-1.4-1.1-2.2C53.3,43.4,54.6,42.1,55.5,40.2z"/>
		<path class="st88" d="M54,35.1c0.3,0.8,0.7,1.7,1.1,2.9c0.2,0.8,0.4,1.5,0.4,2.2c-0.8,1.9-2.2,3.2-2.9,3.8c-0.4-1-0.9-2.1-1.4-3.3
			C53.5,39.7,54.1,37.3,54,35.1z"/>
		<path class="st17" d="M44.8,40.8c0,0,0.7,0.5,1.8,1c0.2,0.2,0.4,0.5,0.6,0.7C45.9,41.6,44.8,40.8,44.8,40.8z"/>
		<path class="st88" d="M52,42.8c0.3,0.6,0.5,1.2,0.8,1.7c-1.7,0.1-3.8-1-5.5-2c-0.2-0.2-0.4-0.5-0.6-0.7
			C48.1,42.4,50.1,43.1,52,42.8z"/>
		<path class="st21" d="M52,42.8c-1.9,0.3-3.9-0.4-5.3-1c-0.1-0.1-0.2-0.3-0.3-0.4c-1.7-2.1-2.7-5.1-2.7-5.1
			c0.7,0.9,3.5,0.8,3.5,0.8s1,0.5,2.8,0.5C50.7,39.5,51.4,41.3,52,42.8z"/>
		<path class="st21" d="M52.8,44.5c0.3,0.6,0.6,1.2,0.8,1.7c-0.1,0.1-0.1,0.1-0.1,0.1c-2.3,0.1-4.5-1.9-6.2-3.8
			C48.9,43.5,51.1,44.6,52.8,44.5z"/>
		<path class="st89" d="M54,52.3l0.8,1.2c0,0-0.9-8-3.9-15.2s-9.4-18.6-9.7-18.9l0.1,1.3c0,0,4.7,7.9,7.6,14.3
			C51.8,41.4,51.8,41.2,54,52.3z"/>
		<path class="st90" d="M29.1,53.4c0-1.6,0-2.9,0-2.9c4.4,3.3,40-1.2,46-1.2c6.1,0,25.4,0.4,25.4,0.4l0.1,2.8
			C86,52.4,44.2,52.3,29.1,53.4z"/>
		<path class="st91" d="M29.1,53.4c15.1-1.1,56.9-1,71.5-0.9l0.1,1.7c-13.6,0-56.2,0.1-71.6,0.2C29.1,54.1,29.1,53.8,29.1,53.4z"/>
		<path class="st92" d="M100.7,54.2l0.1,2c-15.4-0.1-52.3-0.3-71.6-0.2c0-0.5,0-1.1-0.1-1.6C44.5,54.3,87.1,54.3,100.7,54.2z"/>
		<path class="st93" d="M29.3,58c-0.1-0.6-0.1-1.3-0.1-2c19.3-0.1,56.2,0.1,71.6,0.2l0.1,1.8C89.4,57.9,41.8,57.5,29.3,58z"/>
		<path class="st94" d="M100.8,58l0.1,1.6c0,0-21.8-0.8-27.5,0s-43.6,1.7-44-0.4c-0.1-0.3-0.1-0.7-0.2-1.2
			C41.8,57.5,89.4,57.9,100.8,58z"/>
		<g>
			<ellipse class="st90" cx="67.1" cy="55.2" rx="6" ry="6.1"/>
			<ellipse class="st91" cx="67.1" cy="55.2" rx="5.3" ry="5.4"/>
			<ellipse class="st95" cx="67.1" cy="55.2" rx="4.6" ry="4.7"/>
			<ellipse class="st94" cx="67.1" cy="55.2" rx="4.1" ry="4.1"/>
			<g>
				<ellipse class="st91" cx="67.1" cy="55.2" rx="1.5" ry="1.5"/>
				<polygon class="st91" points="67.1,57.1 66.4,57.1 66.7,57.8 67.1,58.4 67.5,57.8 67.8,57.1 				"/>
				<polygon class="st91" points="65.8,56.6 65.3,56.1 65.1,56.8 64.9,57.5 65.6,57.3 66.3,57.1 				"/>
				<polygon class="st91" points="65.2,55.3 65.2,54.5 64.6,54.9 64,55.3 64.6,55.6 65.2,56 				"/>
				<polygon class="st91" points="65.7,53.9 66.3,53.4 65.6,53.2 64.9,53 65.1,53.7 65.2,54.4 				"/>
				<polygon class="st91" points="67.1,53.3 67.8,53.3 67.4,52.7 67.1,52 66.7,52.7 66.3,53.3 				"/>
				<polygon class="st91" points="68.4,53.9 68.9,54.4 69.1,53.7 69.3,53 68.6,53.2 67.9,53.3 				"/>
				<polygon class="st91" points="68.9,55.2 68.9,56 69.6,55.6 70.2,55.2 69.6,54.8 68.9,54.5 				"/>
				<polygon class="st91" points="68.4,56.6 67.9,57.1 68.6,57.3 69.3,57.5 69.1,56.8 68.9,56.1 				"/>
			</g>
		</g>
	</g>
</g>
<g>
	<path class="st4" d="M378.6,390.7c0,0,15.5-4.5,17.5-4.1c2.1,0.3,8.2,5.2,11,7.2c2.7,2.1,8.6,2.1,6.5,5.2
		c-2.1,3.1-7.9,2.1-16.1,1.4c-8.2-0.7-17.9-5.2-17.9-6.2S378.6,390.7,378.6,390.7z"/>
	<path class="st2" d="M343,370.3c-1.7-5.9-6.8-71.1-6.8-71.1l-2.6-51.5l-7.2-22.3c1,14.5,6.7,93.1,7.2,99.2c0.6,6.8,2.8,44,3.9,47.9
		s2.3,6.8,1.1,9c-1.1,2.3-1.1,3.9-1.1,3.9s2.8,0.9,6.4,2C344.1,381.7,344,373.8,343,370.3z"/>
	<path class="st3" d="M353.1,241.8c-2.5,5.1,0.8,25.4,0,35.5c-0.7,8.9,3.7,93.4,4.8,113.9c0.2,0,0.4,0,0.5,0.1
		c5.1,0.6,7.9-5.1,7.9-5.1s-2.3-5.6-2.3-9.6s1.7-8.5,1.7-8.5s-2.8-12.4-3.4-32.7c-0.6-20.3-3.9-77.2-3.4-83.5s1.7-8.5,1.7-8.5
		l0.3-0.1l-2-7.6C359,235.9,355.7,236.7,353.1,241.8z"/>
	<path class="st3" d="M390.3,372.9c0,0,1.6-3.3,8.2-7.4c0-14.7,0.3-54.2,1.7-63.8c1.7-11.8,1.1-43.4,1.7-47.4
		c0.6-3.9-1.7-26.5-1.7-26.5l-73.9-4.5c0,0,0.1,0.8,0.2,2.3l7.2,22.3l2.6,51.5c0,0,5.1,65.1,6.8,71.1c1,3.5,1.1,11.4,1,17.3
		c4.7,1.4,10.8,3.1,13.9,3.6c-1.1-20.6-5.6-105-4.8-113.9c0.8-10.2-2.5-30.5,0-35.5c2.5-5.1,5.9-5.9,5.9-5.9l2,7.6l11.5-4.9
		c0,0,1.7,33.3,1.7,42.9c0,9.6-1.7,81.8,0,88c1.7,6.2,2.3,7.3,2.3,10.1s-3.9,7.3-3.4,10.1c0.6,2.8,3.4,3.4,3.4,3.4
		s17.9-2.9,24.6-5.7c-0.4-1-1.4-2.8-4-5.9C392.9,376.3,390.3,372.9,390.3,372.9z"/>
	<path class="st2" d="M402.1,384.8c-0.9-3.4-4.6-8.7-4.6-8.7l-3.2-2.3l2.7-2.8c0,0,1.4-2.1,1.4-5.5c-5.7,2.8-8,7.4-8,7.4
		s2,3.4,5.4,8.5c2.1,3.1,4.9,5.6,5.2,6.6C402.5,387.2,402.3,385.4,402.1,384.8z"/>
	<path class="st1" d="M407.2,115.3c-2.8-0.6-18.3-5.9-21.1-6.8c-2.8-0.8-8.5-4.5-9.3-5.5c-0.4-0.4-0.7-2.5-0.9-4.6
		c-2,0.6-9.2,6.5-14,7.3c-4.8,0.8-7.3-4.2-7.3-4.2v3.7c0,0-12.1,6.5-14.4,7c-2.2,0.6-18,1.7-18.3,5.4c-0.3,3.7,1.4,44.5,1.4,44.5
		l84.9-1.4c0,0,2.5-40.3,2.5-41.4C410.6,118.1,410.1,115.8,407.2,115.3z"/>
	<path class="st0" d="M361.8,105.7c4.8-0.8,12-6.8,14-7.3c-0.3-3-0.5-6.2-0.5-6.2c-9.9,8.2-20.9,1.4-20.9,1.4v7.9
		C354.5,101.5,357.1,106.5,361.8,105.7z"/>
	<path class="st96" d="M390.8,237.4l-8.9,7.2l-13.9-2.5c0,0-6.3-10.1,3.1-10.6c9.4-0.4,17.4-0.4,17.9,1.3"/>
	<path class="st96" d="M342.5,230.5l-8.5,7.2l-13.1-2.5c0,0-5.9-10.1,3-10.6c8.9-0.4,16.5-0.4,16.9,1.3"/>
	<path class="st97" d="M327.9,138.7c0.7-1,0.7-1.6,0.7-1.6C328.3,137.6,328.1,138.2,327.9,138.7z"/>
	<path class="st97" d="M324.3,184c-0.4,0.9-0.1,0.7,0.5-0.6C324.6,183.6,324.4,183.8,324.3,184z"/>
	<path class="st98" d="M360.1,222.3l-38.7-1.7c0,0,0.6-9.4,1.3-18.2s3-53.3,3-53.3s-14.9,12.7-15.8,14.4c-0.9,1.7-16.2,17.9-19,18.6
		s-4.1-3.6-8.1-7.1c-3.9-3.6-19.7-23.1-20.3-24.1s11.7-9.8,11.7-9.8s2.7,1.4,4.8,4.4c2.1,3,7,7.3,9.1,8.6c2.1,1.3,0.4-1.1,0.9-1.5
		c0.6-0.4,0.6,1.9,0.9,2.8c0.4,0.9,0.9-1.5,1.1-2.8s0.8,1.1,1.3,1.3c0.6,0.2,4-5.3,6.1-9.1s21.7-25.4,21.7-25.4l0.8-3.9
		c0,0,2.1,0.8,7.3-2.2s15.8-6.6,15.8-6.6l17.4,14l17.4-14c0,0,10.5,3.6,15.8,6.6c5.3,3,15,2.6,15,2.6l0.8,3.9c0,0,11.8,21.2,13.9,25
		s5.5,9.3,6.1,9.1c0.6-0.2,1.1-2.6,1.3-1.3s0.8,3.8,1.1,2.8s0.4-3.2,0.9-2.8s-1.1,2.8,0.9,1.5c2.1-1.3,8.5-5.3,10.5-8.3
		c2.1-3,3.4-4.7,3.4-4.7s12.2,8.8,11.7,9.8c-0.6,0.9-16.4,20.5-20.3,24.1c-3.9,3.6-5.3,7.9-8.1,7.1s-18-16.9-19-18.6
		c-0.9-1.7-6.8-7-6.8-7s-6.8,37-6,45.9c0.8,8.8,1.3,18.2,1.3,18.2l-38.7,1.7H360.1z"/>
	<path class="st97" d="M413.2,116c-0.4-1.8-6.2-0.4-12.9-2.7c-6.7-2.2-20.9-8.4-20.9-8.4l-18.2,15.5l-14.5-14.7c0,0-25,7.6-28.1,9.9
		c-3.1,2.2,2.2,10.2,2.2,18.6c0,2.5,0.2,6,0.4,9.9c0.3-0.2,0.7-0.3,1-0.6c2-1.4,3.1-2.7,3.7-3.6c0.2-0.5,0.4-1.1,0.7-1.7
		c0,0,0,0.6-0.7,1.7c-2.3,5.8-1.5,5.7-1.1,9.4c0.4,4,2.7,14.2,0.9,25.3c-1,6.3-2.3,10.3-3.1,12.2c2.1-2.2,9.7-5.1,9.7-5.1
		s-7.5,4.9-10.6,12c-3.1,7.1-10.6,43.5-10.6,43.5l-3.7,3.2c-0.4,1.7-0.7,2.8-0.7,3c-0.4,2.2,3.1,3.5,3.1,3.5s11.5,2.2,11.5-4
		s-0.4-6.7-1.3-9.8s11.5-0.4,15.1,0.4c3.5,0.9,0,3.1,0,3.1l-3.1,17.7l34.6,0.9c0,0,2.2-12,0.9-14.6c-1.3-2.7,12.4-0.9,17.7-0.9
		s-4,3.1-4,3.1s0.9,10.6,3.1,11.5s21.3-0.4,23.5-0.4s3.1-3.5,1.3-8c-1.8-4.4-3.5-38.2-4-48.8c-0.4-10.6,5.8-37.7,5.8-39
		c0-1.3,0.9-19.5,0.9-27.1S413.7,117.8,413.2,116z"/>
	<polygon class="st96" points="361.2,121 371.5,116.5 378.2,123.6 387.5,106.7 378.6,102.3 	"/>
	<polygon class="st99" points="362.2,122.3 354.7,116.5 348,123.6 338.7,106.7 347.6,102.3 	"/>
	<path class="st96" d="M321.8,193.7c3.1-7.1,10.6-12,10.6-12s-7.6,2.9-9.7,5.1c-0.6,1.4-0.9,1.6-0.5,0.7c0.1-0.2,0.3-0.4,0.5-0.7
		c0.8-1.9,2.1-5.9,3.1-12.2c1.8-11.1-0.4-21.3-0.9-25.3c-0.4-3.7-1.2-3.6,1.1-9.4c-0.6,0.9-1.7,2.2-3.7,3.6c-0.3,0.2-0.6,0.4-1,0.6
		c0.5,9.4,1.4,21,1.4,26.1c0,6.3-12.2,57-15.3,70.2l3.7-3.2C311.2,237.2,318.7,200.8,321.8,193.7z"/>
	<path class="st1" d="M450.4,143c0,0,2.5-2.1,3.4-5.5c0.8-3.4,0.4-6.8,5.1-9.7s6.8-8,9.3-5.5c2.5,2.5-4.2,4.7-4.2,6.8
		s0.8,5.1,5.1,3.4s10.1-3.8,13.1-2.5c3,1.3,5.9,3,3.4,6.3c-2.5,3.4-7.2,5.9-12.7,7.2s-6.3-0.4-9.7,0.4c-3.4,0.8-6.3,4.7-6.3,4.7
		L450.4,143z"/>
	<path class="st1" d="M271.6,144.1c0,0-2.5-2.1-3.4-5.5c-0.8-3.4-0.4-6.8-5.1-9.7c-4.7-3-6.8-8-9.3-5.5c-2.5,2.5,4.2,4.7,4.2,6.8
		s-0.8,5.1-5.1,3.4c-4.2-1.7-10.1-3.8-13.1-2.5c-3,1.3-5.9,3-3.4,6.3c2.5,3.4,7.2,5.9,12.7,7.2c5.5,1.3,6.3-0.4,9.7,0.4
		c3.4,0.8,6.3,4.7,6.3,4.7L271.6,144.1z"/>
	<path class="st4" d="M340.4,388.3c0,0-7.9,3.4-9.6,4.8c-1.7,1.4-8.6,4.8-6.9,6.9c1.7,2.1,7.2,4.5,11.7,3.4c4.5-1,12-4.1,15.8-5.5
		c3.8-1.4,7.6-3.1,7.6-5.2c0-2.1,0-4.1,0-4.1L340.4,388.3z"/>
</g>
<g>
	<path class="st0" d="M361.1,103.7c4.1-0.7,10.2-5.8,12-6.2c-0.3-2.5-1-5.4-1-5.4c-8.4,7-17.1,1.4-17.1,1.4v6.7
		C354.8,100.1,357,104.4,361.1,103.7z"/>
	<path class="st1" d="M337.7,48.3c-0.1-1.1-0.7-3.2-3.3-3c-3.5,0.2-3.3,6.8-2.9,8.5c0.4,1.7,2.7,7.2,6.2,7.6V49L337.7,48.3z"/>
	<path class="st7" d="M333,50.1c0,0,2-1.8,3,0c0,0-2.2,1.2-2.2,2.9s0.6,3.4,2.9,4c0,0-1.4-1.1-1.3-3.4c0.1-2.4,1.3-2,1.3-2
		s0.9-3.6-1.3-3.9C333.1,47.4,333,50.1,333,50.1z"/>
	<path class="st1" d="M385.8,46.9c0.1-1.1,0.7-3.2,3.3-3c3.5,0.2,3.3,6.8,2.9,8.5c-0.4,1.7-2.7,7.2-6.2,7.6V47.6L385.8,46.9z"/>
	<path class="st7" d="M390.5,48.7c0,0-2-1.8-3,0c0,0,2.2,1.2,2.2,2.9s-0.6,3.4-2.9,4c0,0,1.4-1.1,1.3-3.4c-0.1-2.4-1.3-2-1.3-2
		s-0.9-3.6,1.3-3.9C390.4,46,390.5,48.7,390.5,48.7z"/>
	<path class="st11" d="M381.2,81.2c0,0,3,4.6,2.3,7.6s-2.7,4.3-2.7,4.3s4.6,2.7,2.7,6.3s-4.6,6.3-4.6,6.3s5.6,2,3.6,7.3
		c-2,5.3-4.3,4-4.3,4s2.3,5.6,0,8.3c-2.3,2.7-9.6,3.6-9.6,3.6s3.6-4,4-5.6c0.3-1.7-3.6-3.3-2.7-7.6s4.3-6.6,4.3-6.6s-4.3-3.6-2-7
		s4-4.6,4-4.6s-5-2-2.7-6c2.3-4,1-4,1.3-7.3C375.3,80.8,381.2,81.2,381.2,81.2z"/>
	<path class="st100" d="M379.7,81.4c0,0,1.4,6.2-0.7,8.6s-2.9,3.8-2.9,3.8s3.1,3.3,3.6,4.5c0.5,1.2-4.1,4.1-3.8,6.7s3.1,4.3,1.4,6.7
		s-4.8,0.7-3.8,5s2.2,5.5,1.7,6.5c-0.5,1-2.2,4.5-2.2,4.5s5-3.3,4.1-6.2s-3.1-5.3-1.7-6.7c1.4-1.4,3.3-0.5,3.6-2.2
		c0.2-1.7-2.6-6.9-1.4-8.9c1.2-1.9,6.2-5.5,4.3-6.5s-4.8-2.9-4.1-3.8c0.7-1,4.8-5.3,4.8-6.5C382.6,86,379.7,81.4,379.7,81.4z"/>
	<path class="st101" d="M340.4,46.5c0-6.2,1.8-22.1,2.7-29.5c-3.5,1.7-6.2,4.1-6.2,6.1c0,3.1-0.2,4.8-0.2,4.8s1.2,33,1.2,37.6
		c0,4.3,0.9,4.1,3.4,9.3C340,64.8,340.4,52.3,340.4,46.5z"/>
	<path class="st101" d="M386,41.2c0-6.2-1.4-16-2.2-18.7c-0.5-1.8-3-4.6-6-6.3c1.3,11.1,3.4,31.3,3.4,37.7c0,9-1.4,16.1-5.7,28.7
		c-1.3,3.9-2.6,7-3.6,9.3c4.7-4,8-8.2,9.7-10.9c1.9-3.1,3.3-3.3,4.1-9.1C386.4,66.3,386,47.4,386,41.2z"/>
	<path class="st1" d="M381.3,54c0-6.4-2.2-26.6-3.4-37.7c-1.4-0.8-2.9-1.3-4.3-1.4c-4.5-0.2-17.5-0.2-23.7,0.2
		c-2.3,0.2-4.6,0.9-6.7,1.8c-0.9,7.4-2.7,23.3-2.7,29.5c0,5.8-0.4,18.4,0.9,28.2c0.1,0.2,0.2,0.5,0.4,0.8c2.9,6,13.9,18.2,15.5,20.1
		c1.7,1.9,6.2,3.1,12.2-1.4c0.9-0.7,1.7-1.4,2.5-2c1-2.3,2.2-5.4,3.6-9.3C379.9,70.2,381.3,63,381.3,54z"/>
	<path class="st102" d="M365.1,44.3c0,0-5.7,9-5.4,14s0.4,5.7,3.2,5c2.9-0.7,6.5-3.6,6.5-3.6s-5,2.9-6.1-0.7S365.1,44.3,365.1,44.3z
		"/>
	<path class="st0" d="M361.6,44c0,0-7.2,5.4-7.2,11.5s0,12.2,1.8,12.2c1.8,0,5.7-0.4,5.7-0.4s-2.3,0.1-3.6-1.7
		c-1.3-1.9-1.6-5.8-1.1-8.2C358.3,52.8,361.6,44,361.6,44z"/>
	<path class="st7" d="M365.5,41.1c0,0-6.5,4.3-6.8,13.3s-1.1,13.3,2.5,11.5s7.2-4.3,10.4-4.3c0,0-14.4,11.8-14.7,2.5
		S355.8,46.8,365.5,41.1z"/>
	<path class="st0" d="M349.2,28.7c0,0,4.9-1.3,12-1.3s13.6,0.7,13.6,0.7s-6.5,0.2-13.6,0.7C354.1,29.2,349.2,28.7,349.2,28.7z"/>
	<path class="st0" d="M355.9,31.9c0,0,2.2-1.3,4.2-1.5c2-0.2,6.2,0.8,6.2,0.8s-4.1-0.5-6-0.1S355.9,31.9,355.9,31.9z"/>
	<path class="st0" d="M354.1,34.2c0,0,3.8,0.2,6.9-0.3c3.2-0.4,9-0.8,9-0.8s-3.9,1-5.9,1.3C362.1,34.7,358.8,35.7,354.1,34.2z"/>
	<path class="st100" d="M384.3,32.5c-1.8-3.8-7.2-5.6-12.2-7.4c-5-1.8-9.1-7.7-9.7-8.8c-0.5-1.1-2.2-2.3-3.8,2.5
		c-1.6,4.8-5.6,2.9-10.9,5.9c-5.4,3-8.6,4.7-10.4,10.6c-1,3.4-0.8,7.1-0.5,9.6c0.1,0.3,0.2,0.7,0.3,1c0,0,0.4-13.5,6.6-15.9
		c6.2-2.3,16.5-5.6,17.2-11c0,0,4.4,5.6,11.7,9.6c7.3,4,9.9,4,11,7c0.7,1.8,1.4,6.4,1.9,9.7C385.7,42.3,385.7,35.4,384.3,32.5z"/>
	<path class="st11" d="M374.6,12.8c-14.2-4.2-29.2-2.8-34.4,3.5c-5,6.1-6.3,17.6-3.3,28.6c-0.4-2.5-0.6-6.2,0.5-9.6
		c1.8-5.9,5-7.5,10.4-10.6c5.4-3,9.3-1.1,10.9-5.9c1.6-4.8,3.2-3.6,3.8-2.5c0.5,1.1,4.7,7,9.7,8.8c5,1.8,10.4,3.6,12.2,7.4
		c1.4,2.9,1.4,9.8,1.3,13c0.3,2,0.5,3.6,0.5,3.6S391.3,17.8,374.6,12.8z"/>
	<g>
		<g>
			<circle class="st11" cx="348" cy="49.4" r="2.2"/>
			<circle class="st103" cx="348" cy="49.4" r="1.6"/>
			<circle class="st5" cx="347.1" cy="49.9" r="0.6"/>
		</g>
		<path class="st100" d="M342,45.5c0,0,3.8-1.4,7-1.2c3.2,0.2,5.8,1.2,5.8,1.2s0.6-4.6-5.2-5C343.8,40.2,341.6,42.6,342,45.5z"/>
	</g>
	<g>
		<g>
			<circle class="st11" cx="374.6" cy="49.4" r="2.2"/>
			<circle class="st103" cx="374.6" cy="49.4" r="1.6"/>
			<circle class="st5" cx="373.7" cy="49.9" r="0.6"/>
		</g>
		<path class="st100" d="M368.6,45.5c0,0,3.8-1.4,7-1.2c3.2,0.2,5.8,1.2,5.8,1.2s0.6-4.6-5.2-5C370.4,40.2,368.2,42.6,368.6,45.5z"
			/>
	</g>
	<path class="st5" d="M355.2,76.2c0,0,0.9,0.6,5.7,0.4c4.8-0.3,7.7-0.8,7.7-0.8s-2.4,2.3-6.5,2.3C357.9,78,355.2,76.2,355.2,76.2z"
		/>
</g>
</svg>
