<!-- Generator: Adobe Illustrator 21.1.0, SVG Export Plug-In  -->
<svg version="1.1"
	 xmlns="http://www.w3.org/2000/svg" xmlns:xlink="http://www.w3.org/1999/xlink" xmlns:a="http://ns.adobe.com/AdobeSVGViewerExtensions/3.0/"
	 x="0px" y="0px" width="136.9px" height="396.8px" viewBox="0 0 136.9 396.8" style="enable-background:new 0 0 136.9 396.8;"
	 xml:space="preserve">
<style type="text/css">
	.st0{fill:#010101;}
	.st1{fill:#C98A5B;}
	.st2{fill:#AD7957;}
	.st3{fill:#F6F7FC;}
	.st4{fill:#361213;}
	.st5{fill:#E6E7E8;}
	.st6{fill:#53383B;}
	.st7{fill:#D1D3D4;}
	.st8{fill:#AEB9BD;}
	.st9{fill:#C6CDCF;}
	.st10{fill:#263669;}
	.st11{fill:#1F2F5E;}
	.st12{fill:#213162;}
	.st13{fill:#9E6E54;}
	.st14{fill:#3C2415;}
	.st15{fill:#2F1A0A;}
	.st16{fill:#BF835A;}
	.st17{fill:#DB9E75;}
	.st18{fill:#231F20;}
	.st19{fill:#FFFFFF;}
</style>
<defs>
</defs>
<g>
	<path class="st0" d="M89.6,383.5c0,0,20.6-4.4,23.3-4.1c2.7,0.3,11,5.1,14.6,7.2c3.7,2,11.4,2,8.7,5.1c-2.7,3.1-10.5,2-21.5,1.4
		c-11-0.7-23.8-5.1-23.8-6.1S89.6,383.5,89.6,383.5z"/>
	<path class="st0" d="M28.2,382.5c0,0-9.9,3.2-12,4.5s-10.7,4.5-8.6,6.4s9,4.2,14.6,3.2c5.6-1,15-3.8,19.7-5.1s9.4-2.9,9.4-4.8
		c0-1.9,0-3.8,0-3.8L28.2,382.5z"/>
	<path class="st1" d="M107.2,104.9c-2.8-0.6-21.1-4.4-23.9-5.3c-2.8-0.8-5.7-6-6.5-7c-0.4-0.4-0.7-2.5-0.9-4.6
		c-2,0.6-9.2,6.5-14,7.3s-7.3-4.2-7.3-4.2v3.7c0,0-12.1,6.5-14.4,7c-2.2,0.6-18,1.7-18.3,5.4s8.3,30.8,8.3,30.8l68-4.5
		c0,0,12.5-23.5,12.5-24.6C110.5,107.7,110,105.4,107.2,104.9z"/>
	<path class="st2" d="M61.8,95.3c4.8-0.8,12-6.8,14-7.3c-0.3-3-0.5-6.2-0.5-6.2c-9.9,8.2-20.9,1.4-20.9,1.4v7.9
		C54.4,91.1,57,96.1,61.8,95.3z"/>
	<path class="st3" d="M79.5,102.3c4.8,0.7,10.2,6.2,11.8,10.1c2.7,6.2,0.7,14.2,0.9,20.4c0.2,12.4-1.1,24.4-0.7,36.5
		c0.2,9.1,0.4,18.2,0.7,27.2c0.2,4.4,0,8.4-1.1,12.8c-0.4,1.9-0.7,6.1-1.9,7.2l1.2,0l0.1,0.9c3.7-0.3,6.6-0.6,8.4-1
		c0.3-2.9,1.4-6.2,2.9-9.9c-0.7-11.3-1.1-48.6-1.8-76.8c-0.2-6.2-0.3-11.9-0.5-16.9c-0.2-4.2-0.3-7.8-0.5-10.7
		c-6-1.5-11.9-2.8-17.8-5C81.2,98.8,80.6,100.6,79.5,102.3z"/>
	<path class="st4" d="M97,223.6c0-0.2,0.1-0.4,0.1-0.6c0,0,0,0,0,0c0-0.1,0.1-0.2,0.1-0.3c0.4-1.6,0.9-3.5,1.5-4.6
		c0-0.1,0-0.2,0-0.3c0-0.4,0-0.9,0.1-1.3c-1.8,0.4-4.7,0.7-8.4,1l0.3,7.2C93.6,224.3,95.8,224,97,223.6z"/>
	<path class="st5" d="M94.7,228.7c0.1-1.9,1.8-3.4,2.4-5c-1.2,0.3-3.4,0.5-6.3,0.7l0.1,1.1l-2,0.1l15.5,155.1
		c0.2-0.1,0.4-0.1,0.6-0.2c2.6-0.9,5.3-1.6,8.3-1.7c0.1,0.1,0.2,0.3,0.2,0.4c0.4,0.5,0.7,1,1,1.5h0c2.6-29.2-2.2-110.3-5.4-145.8
		c-2.6-1.1-5.3-2.1-8-3.1C98.9,230.7,96.7,229.8,94.7,228.7z"/>
	<polygon class="st6" points="90.7,224.6 90.4,217.4 90.3,216.6 89.2,216.6 86.3,216.7 86.4,217.7 86.7,224.9 86.8,226.2 
		88.8,226.1 90.8,226 	"/>
	<path class="st7" d="M102,381.5c-3-3.7-6.9-7-9.2-11.2c-3.5-7.6-4.4-16.1-5.8-24.1c-2.2-11.2-8-32.6,4-41.2c-2.2-0.7-4.4-1.7-6.6-2
		c1.8-0.3,4-2,5.3-2.6c-1.8-0.7-4.4-1-6.6-0.7c1.3-17.3-12-35.2-13.6-52.5l-1.5,0.1c3.9,45.3,13.9,97.2,18.8,139.6v0
		c0.1,0,0.1,0,0.2,0c1.5-0.1,3-0.4,4.5-0.9C94.8,384.9,98.2,383.1,102,381.5z"/>
	<path class="st4" d="M80.6,218l0,7.2c2.1-0.1,4.2-0.2,6.1-0.3l-0.3-7.2C84.6,217.8,82.7,217.9,80.6,218z"/>
	<polygon class="st6" points="80.6,216.7 76.6,216.7 76.6,218.1 76.6,225.3 76.6,226.2 80.7,226.2 80.7,225.2 80.6,218 	"/>
	<path class="st4" d="M73.6,218.2c0,2.3,0,4.8,0,7.2c1,0,2.1,0,3.1-0.1l0-7.2C75.6,218.1,74.6,218.2,73.6,218.2z"/>
	<path class="st8" d="M67.2,218.3c-2.1,0-4.2,0-6.2,0c0,0.9,0,1.8,0,2.7c1.6-0.4,3.9-0.2,6.2,0.6c2.4,0.8,4.8,2.2,5.9,3.8
		c0.2,0,0.3,0,0.5,0c0-2.4,0-4.8,0-7.2C71.4,218.2,69.3,218.3,67.2,218.3z"/>
	<path class="st5" d="M83.1,299.7c2.2-0.3,4.9,0,6.6,0.7c-1.3,0.7-3.5,2.3-5.3,2.6c2.2,0.3,4.4,1.3,6.6,2c-12,8.6-6.2,30-4,41.2
		c1.3,7.9,2.2,16.5,5.8,24.1c2.3,4.2,6.1,7.5,9.2,11.2c0.6-0.2,1.1-0.5,1.7-0.7c0.2-0.1,0.4-0.1,0.5-0.2L88.8,225.5l-2,0.1l0-1
		c-1.9,0.1-3.9,0.2-6.1,0.2v0.7l-4,0v-0.7c-1,0-2,0-3.1,0c-0.2,0-0.3,0-0.5,0c-0.6,0-1.1,0-1.7,0v0.5c-0.2,4.5,0.8,8.9,0.9,13.4
		c-1.3,1-3.2,3.2-4.6,4.3c0.1,1.4,0.2,2.8,0.3,4.2l1.5-0.1C71.1,264.6,84.4,282.5,83.1,299.7z"/>
	<path class="st5" d="M71.4,226v-0.6c-2,0-4.1,0-6.1,0c1.2,5.8,2.2,16.2,2.2,23c0,0.6,0,1.2,0,1.7c0.1-0.1,0.1-0.1,0.2-0.2
		c1.4-1.5,3.3-4.5,4.6-5.8C72.2,238,71.1,232,71.4,226z"/>
	<path class="st9" d="M67.2,221.5c-2.3-0.8-4.6-1-6.2-0.6c0,1.4,0,2.9,0,4.4c1.4,0,2.8,0.1,4.3,0.1h0c2,0,4.1,0,6.1,0
		c0.6,0,1.1,0,1.7,0C71.9,223.7,69.6,222.3,67.2,221.5z"/>
	<path class="st4" d="M60.9,225.3c0-1.5,0-2.9,0-4.4c0-0.9,0-1.8,0-2.7c-0.8,0-1.6,0-2.4,0l-0.2,7C59.2,225.2,60.1,225.3,60.9,225.3
		z"/>
	<path class="st5" d="M60.9,224.8c-0.9,0-1.7,0-2.6-0.1l0,0.8l-4-0.1l0-0.8c-2-0.1-3.9-0.2-5.7-0.3c-0.1,0-0.2,0-0.4,0l-0.1,0.8
		L34.9,381.1c0.2,0.1,0.3,0.1,0.5,0.2c1.8,0.6,3.5,1.4,5.2,2.1c0.2,0.1,0.3,0.1,0.5,0.2c9.2-10,10.1-27.4,11-38.7
		c0.4-5.9,5.3-34.9-0.9-37.2c3.5-1.3,11.5-6.3,2.2-4.9c10.6-5.6,8-20.4,8.4-29.7c0.9-10.2,2.2-21.1,4.9-31l0.7,0
		c0-5.1-1.1-12.8-2.2-17.1h0C63.8,224.9,62.3,224.9,60.9,224.8z"/>
	<polygon class="st6" points="54.3,226.2 58.4,226.3 58.4,225.2 58.6,218.2 58.6,216.9 54.6,216.7 54.5,218.1 54.4,225.1 	"/>
	<path class="st4" d="M54.4,225.1l0.2-6.9c-1.8-0.1-3.6-0.1-5.2-0.2l-0.6,6.8C50.4,224.8,52.3,225,54.4,225.1z"/>
	<path class="st7" d="M66.7,242c-2.7,9.9-4,20.8-4.9,31c-0.4,9.2,2.2,24.1-8.4,29.7c9.3-1.3,1.3,3.6-2.2,4.9
		c6.2,2.3,1.3,31.3,0.9,37.2c-0.9,11.3-1.8,28.7-11,38.7c3.4,1.4,6.8,2.8,10.2,3.4c1.1,0.2,2.1,0.3,3.1,0.3c0-0.5-0.1-0.9-0.1-1.4h0
		c5-44.6,9.8-95.4,13.2-142.2c0-0.1,0-0.2,0-0.3c0-0.4,0-0.8,0-1.3L66.7,242z"/>
	<path class="st6" d="M48.7,224.7l0.6-6.8l0.1-1.5l-0.9-0.1l-3-0.3l-0.2,1.6l-0.6,6.7l-0.1,1l3.7,0.4l0.1-1.1
		C48.4,224.7,48.6,224.7,48.7,224.7z"/>
	<path class="st4" d="M40.1,216.8c0,0.1,0.1,0.2,0.1,0.3c0.1,0.3,0.2,0.7,0.3,1.1c0.5,1.2,1,2.5,1.8,3.7c-0.2,0.1-0.5,0.2-0.7,0.4
		c0.2,0.6,0.4,1.2,0.7,1.8c0.7,0.1,1.5,0.2,2.4,0.3l0.6-6.7C43.1,217.4,41.3,217.1,40.1,216.8z"/>
	<path class="st7" d="M36.7,225c1.6-1,3.3-1.9,4.8-2.7c0.2-0.1,0.5-0.2,0.7-0.4c-0.8-1.2-1.3-2.5-1.8-3.7c-0.1-0.4-0.2-0.7-0.3-1.1
		c-0.4,0.2-0.6,0.2-0.8,0.4c-1.6,0.4-3.3,1-5.1,1.8c-1.3,0.6-2.7,1.3-4,2c-1.7,0.9-3.3,1.9-4.6,2.9c-0.1,0-0.1,0.1-0.1,0.1l0.1,0.1
		c0.6,2.1,1.3,4.4,2.2,6.6c0.5-0.4,1.1-0.9,1.7-1.3c0,0,0.1-0.1,0.1-0.1c1.5-1.1,3-2.1,4.7-3.2C35.1,225.9,35.9,225.4,36.7,225z"/>
	<path class="st3" d="M22.6,123.7c-5.1,11.3-8.4,23-10.6,35.2c-0.7,4.9-1.3,9.5-2.7,14.2c2-0.4,4.2-1.3,6.2-0.4c-2,2-4.9,4-6.2,6.4
		c3.1-0.7,4.9,0.9,7.5,2.4c-10,1.3-0.2,18.6,2.7,23.7c2,3.8,4.4,7.1,6.2,11.3c1.5,3.3,3,4.6,6.6,4.2c0,0.1,0,0.1,0,0.2
		c1.7-0.8,3.5-1.4,5.1-1.8c0.2-0.2,0.4-0.2,0.8-0.4c0-0.1-0.1-0.2-0.1-0.3c-1.6-5.6-3.7-10.8-6.1-15.8c-3.6-7.5-7.6-14.8-10.7-23
		c-1.1-3.3-0.6-11.2-0.2-14.6c1.2-8.3,5.6-20.6,7.5-29.9c0,0.1,0,0.1,0,0.2l0.4,0c0.2,6.7,2,13.5,2.6,20.2
		c0.7,7.3,0.5,14.8,1.3,22.1c1.3,12.8,3.1,24.4,9.3,35.7c1.1,1.9,2.5,3.4,4.2,4.6l0.9,0.1l-0.1,1.5c1.6,0.1,3.4,0.2,5.2,0.2l0-1.4
		l4,0.1l0,1.4c0.8,0,1.6,0,2.4,0c2,0,4.1,0,6.2,0v-12.5c-2.4-4.9-5.1-9.5-8-14.2c-0.2-14,0.1-28.3,0.7-42.3
		c0.6-11.9,0.3-25.8,3-37.3c-0.1,0-0.3,0-0.4-0.1c-0.9-1.8-1.3-3.6-1.9-5.4c-0.2-0.8-0.5-1.6-0.9-2.4c-1.6,1.8-3.1,3.6-3.9,5.3
		c-1.5-1.3-3.2-3-4.8-4.9c-1.9-2.2-3.6-4.7-4.8-7c-5.2,1.9-11.2,2.7-16.4,4.3c0,3.2,0.1,7.1,0.2,11.4
		C25.8,117.1,24.1,120.2,22.6,123.7z"/>
	<path class="st7" d="M45.5,216l3,0.3c-1.7-1.3-3.1-2.8-4.2-4.6c-6.2-11.3-8-22.8-9.3-35.7c-0.9-7.3-0.7-14.8-1.3-22.1
		c-0.6-6.7-2.4-13.5-2.6-20.2l-0.4,0c1,24.3,2.6,52.9,3.3,67.4c2.4,5,4.5,10.2,6.1,15.8c1.3,0.3,3.1,0.6,5.2,0.8L45.5,216z"/>
	<path class="st7" d="M32.3,220.8c0-0.1,0-0.1,0-0.2c-3.6,0.4-5.1-1-6.6-4.2c-1.8-4.2-4.2-7.5-6.2-11.3c-2.9-5.1-12.6-22.4-2.7-23.7
		c-2.7-1.5-4.4-3.1-7.5-2.4c1.3-2.4,4.2-4.4,6.2-6.4c-2-0.9-4.2,0-6.2,0.4c1.3-4.6,2-9.3,2.7-14.2c2.2-12.2,5.5-23.9,10.6-35.2
		c1.5-3.5,6.5-7.5,8.7-10c-0.1-4.4-1.6-8.8-1.6-12c-1.8,0.5-5.5,2.7-7,3.5c-11.2,6.6-11.7,10.9-13,21.5c0,0,0,0.1,0,0.1
		c-1.5,8.5-10.5,45.5-9.7,52.9c2.9,14.1,16.3,38.4,23.5,45.7l0.2,0.3c1.3-1,2.9-2,4.6-2.9C29.6,222.1,31,221.4,32.3,220.8z"/>
	<path class="st5" d="M34.9,381.1l13.3-155.9l-3.7-0.3l0.1-0.8c-0.9-0.1-1.7-0.2-2.4-0.2c0.9,1.3,2.1,2.5,2.6,4.2
		c-2.2,1.8-4.9,3.3-7.6,4.9c-2,1.1-4,2.3-5.9,3.5c-1.1-1.8-1.6-5.3-1.7-7.6c-2.9,31.4-7.2,121.4-4.3,152.6c0.3,0,1.3-0.4,1.8-0.5
		C30.1,380.5,32.1,380.3,34.9,381.1z"/>
	<path class="st10" d="M33,119.9"/>
	<path class="st7" d="M105.4,219.2L105.4,219.2c5.3-2.9,6.9-12.7,8.2-18.2c1.1-4.4,2.4-8.9,3.8-13.3c1.3-4.2,1.1-9.3,7.1-9.3
		c-1.8-1.6-4.2-2-6.4-2.9c1.6-1.6,4.2-2.7,5.8-4c-0.8-0.5-1.7-0.6-2.7-0.7c-0.9-0.1-1.9-0.2-2.7-0.7c-2.2-4.6-2.2-10.8-3.1-15.9
		c-1.3-6-3.3-11.7-5.1-17.5c-2.5-8.3-7.6-16.1-10.9-24c0.2,5,0.4,10.7,0.5,16.9h0.3c1.4,7.1,11.4,36.8,13.4,46.1
		c-2,10.5-8.1,21.6-11.8,30.7c-1.5,3.7-2.6,7-2.9,9.9c-0.1,0.5-0.1,0.9-0.1,1.3C100.8,218,103.1,218.5,105.4,219.2z"/>
	<path class="st3" d="M110.3,136.8c1.8,5.8,3.8,11.5,5.1,17.5c0.9,5.1,0.9,11.3,3.1,15.9c0.8,0.5,1.7,0.6,2.7,0.7
		c0.9,0.1,1.9,0.2,2.7,0.7c-1.6,1.3-4.2,2.4-5.8,4c2.2,0.9,4.6,1.3,6.4,2.9c-6,0-5.8,5.1-7.1,9.3c-1.3,4.4-2.7,8.8-3.8,13.3
		c-1.3,5.5-2.9,15.3-8.2,18.1l0,0.1c0.1,0,0.1,0,0.2,0.1c0.7,0.2,1.4,0.4,2,0.6c1.7,0.6,3.3,1.2,4.6,1.9l0.1-0.3
		c7.8-4.9,19.1-30.8,19.2-45.2c-0.7-7.5-11.6-47.6-14.7-55.5c0,0,0,0,0-0.1c-2-8.1-5.1-15-11.9-17c-2-0.6-4-1.1-6-1.6
		c0.2,2.8,0.4,6.5,0.5,10.7C102.7,120.7,107.8,128.4,110.3,136.8z"/>
	<path class="st7" d="M105.6,219.3c-0.1,0-0.1,0-0.2-0.1c-2.3-0.7-4.6-1.2-6.7-1.5c0,0.1,0,0.2,0,0.3c-0.6,1.1-1.2,3.1-1.5,4.6
		c0,0.1-0.1,0.2-0.1,0.3c0,0,0,0,0,0c1.6,0.4,3.2,0.9,4.8,1.4c2.1,0.7,4.3,1.4,6.3,2.3c0.4,0.2,0.9,0.4,1.3,0.6
		c0.7-1.8,1.8-3.4,2.8-5.3l0.1-0.1c-0.1,0-0.1-0.1-0.2-0.1c-1.4-0.7-3-1.3-4.6-1.9C107,219.7,106.3,219.5,105.6,219.3z"/>
	<path class="st10" d="M29.2,203.6c-1,0.8-3,22.1-3,22.9c0,3.6-3.2,20.7,1.8,20.7s20.5,0.4,22-4.9c1.5-5.4,1-15.6,5.5-17
		s12.5-3.6,17-1.3c4.5,2.2,5,7.1,7.5,13.8c2.5,6.7,9,6.3,13.5,5.8S96,233,96,229.4s12.5-3.6,11.5,0s-2,12.9,1.5,13.4s4.5-5.8,5-9.8
		c0.5-4-10-29-9.5-36.6s-4.5-33.9-4-44.2s0-26.8,0-34.4c0-7.6,1-16.5-6-18.3c-7-1.8-12.2-3.3-12.2-3.3l-16.4,20L58,101.7L52,97
		l-5.9,0.2c0,0-15.2,3.2-16.4,3.8s0.3,5.6,0.8,13.6s0,19.2,0.5,25.4c0.5,6.3-4.8,24.3-1.8,41.1c0.6,3.1-0.8,19.8,0.2,23.4"/>
	<polygon class="st11" points="65.9,116.2 75.3,110.4 81.9,117.5 91.2,100.6 82.4,96.2 	"/>
	<polygon class="st12" points="65.9,116.2 58.4,110.4 51.7,117.5 42.4,100.6 51.3,96.2 	"/>
	<g>
		<path class="st2" d="M61,93.3c4.1-0.7,10.2-5.8,12-6.2c-0.3-2.5-1-5.4-1-5.4c-8.4,7-17.3-1-17.3-1l0.2,9.1
			C54.7,89.7,56.9,94,61,93.3z"/>
		<path class="st1" d="M37.6,37.9c-0.1-1.1-0.7-3.2-3.3-3c-3.5,0.2-3.3,6.8-2.9,8.5s2.7,7.2,6.2,7.6V38.6L37.6,37.9z"/>
		<path class="st13" d="M32.9,39.7c0,0,2-1.8,3,0c0,0-2.2,1.2-2.2,2.9s0.6,3.4,2.9,4c0,0-1.4-1.1-1.3-3.4s1.3-2,1.3-2
			s0.9-3.6-1.3-3.9C33,37,32.9,39.7,32.9,39.7z"/>
		<path class="st1" d="M85.7,36.5c0.1-1.1,0.7-3.2,3.3-3c3.5,0.2,3.3,6.8,2.9,8.5c-0.4,1.7-2.7,7.2-6.2,7.6V37.2L85.7,36.5z"/>
		<path class="st13" d="M90.4,38.3c0,0-2-1.8-3,0c0,0,2.2,1.2,2.2,2.9s-0.6,3.4-2.9,4c0,0,1.4-1.1,1.3-3.4s-1.3-2-1.3-2
			s-0.9-3.6,1.3-3.9C90.3,35.6,90.4,38.3,90.4,38.3z"/>
		<path class="st14" d="M81.1,70.8c0,0,3,4.6,2.3,7.6s-2.7,4.3-2.7,4.3s4.6,2.7,2.7,6.3s-4.6,6.3-4.6,6.3s5.6,2,3.6,7.3
			c-2,5.3-4.3,4-4.3,4s2.3,5.6,0,8.3c-2.3,2.7-9.6,3.6-9.6,3.6s3.6-4,4-5.6c0.3-1.7-3.6-3.3-2.7-7.6c1-4.3,4.3-6.6,4.3-6.6
			s-4.3-3.6-2-7c2.3-3.3,4-4.6,4-4.6s-5-2-2.7-6c2.3-4,1-4,1.3-7.3C75.2,70.4,81.1,70.8,81.1,70.8z"/>
		<path class="st15" d="M79.7,71c0,0,1.4,6.2-0.7,8.6s-2.9,3.8-2.9,3.8s3.1,3.3,3.6,4.5c0.5,1.2-4.1,4.1-3.8,6.7s3.1,4.3,1.4,6.7
			c-1.7,2.4-4.8,0.7-3.8,5s2.2,5.5,1.7,6.5c-0.5,1-2.2,4.5-2.2,4.5s5-3.3,4.1-6.2c-1-2.9-3.1-5.3-1.7-6.7c1.4-1.4,3.3-0.5,3.6-2.2
			s-2.6-6.9-1.4-8.9c1.2-1.9,6.2-5.5,4.3-6.5c-1.9-1-4.8-2.9-4.1-3.8c0.7-1,4.8-5.3,4.8-6.5C82.5,75.5,79.7,71,79.7,71z"/>
		<path class="st16" d="M40.3,36.1c0-6.2,1.8-22.1,2.7-29.5c-3.5,1.7-6.2,4.1-6.2,6.1c0,3.1-0.2,4.8-0.2,4.8s1.2,33,1.2,37.6
			c0,4.3,0.9,4.1,3.4,9.3C40,54.4,40.3,41.9,40.3,36.1z"/>
		<path class="st16" d="M85.9,30.8c0-6.2-1.4-16-2.2-18.7c-0.5-1.8-3-4.6-6-6.3C79,17,81.2,37.2,81.2,43.6c0,9-1.4,16.1-5.7,28.7
			c-1.3,3.9-2.6,7-3.6,9.3c4.7-4,8-8.2,9.7-10.9c1.9-3.1,3.3-3.3,4.1-9.1C86.4,55.9,85.9,37,85.9,30.8z"/>
		<path class="st1" d="M81.2,43.6c0-6.4-2.2-26.6-3.4-37.7c-1.4-0.8-2.9-1.3-4.3-1.4C68.9,4.3,56,4.3,49.8,4.7
			c-2.3,0.2-4.6,0.9-6.7,1.8c-0.9,7.4-2.7,23.3-2.7,29.5c0,5.8-0.4,18.4,0.9,28.2c0.1,0.2,0.2,0.5,0.4,0.8
			c2.9,6,13.9,18.2,15.5,20.1c1.7,1.9,6.2,3.1,12.2-1.4c0.9-0.7,1.7-1.4,2.5-2c1-2.3,2.2-5.4,3.6-9.3C79.8,59.8,81.2,52.6,81.2,43.6
			z"/>
		<path class="st17" d="M65.1,33.9c0,0-5.7,9-5.4,14c0.4,5,0.4,5.7,3.2,5c2.9-0.7,6.5-3.6,6.5-3.6s-5,2.9-6.1-0.7
			C62.2,45,65.1,33.9,65.1,33.9z"/>
		<path class="st2" d="M61.5,33.6c0,0-7.2,5.4-7.2,11.5s0,12.2,1.8,12.2c1.8,0,5.7-0.4,5.7-0.4s-2.3,0.1-3.6-1.7
			c-1.3-1.9-1.6-5.8-1.1-8.2C58.2,42.4,61.5,33.6,61.5,33.6z"/>
		<path class="st13" d="M65.4,30.7c0,0-6.5,4.3-6.8,13.3c-0.4,9-1.1,13.3,2.5,11.5c3.6-1.8,7.2-4.3,10.4-4.3c0,0-14.4,11.8-14.7,2.5
			C56.5,44.3,55.7,36.4,65.4,30.7z"/>
		<path class="st2" d="M49.1,18.3c0,0,4.9-1.3,12-1.3s13.6,0.7,13.6,0.7s-6.5,0.2-13.6,0.7C54,18.8,49.1,18.3,49.1,18.3z"/>
		<path class="st2" d="M55.8,21.5c0,0,2.2-1.3,4.2-1.5c2-0.2,6.2,0.8,6.2,0.8s-4.1-0.5-6-0.1S55.8,21.5,55.8,21.5z"/>
		<path class="st2" d="M54.1,23.8c0,0,3.8,0.2,6.9-0.3s9-0.8,9-0.8S66,23.8,64,24C62,24.3,58.7,25.3,54.1,23.8z"/>
		<path class="st15" d="M84.3,22.1c-1.8-3.8-7.2-5.6-12.2-7.4S62.9,7,62.4,5.9c-0.5-1.1-2.2-2.3-3.8,2.5c-1.6,4.8-5.6,2.9-10.9,5.9
			S39.1,19,37.3,25c-1,3.4-0.8,7.1-0.5,9.6c0.1,0.3,0.2,0.7,0.3,1c0,0,0.4-13.5,6.6-15.9c6.2-2.3,16.5-5.6,17.2-11
			c0,0,4.4,5.6,11.7,9.6c7.3,4,9.9,4,11,7c0.7,1.8,1.4,6.4,1.9,9.7C85.6,31.9,85.6,25,84.3,22.1z"/>
		<path class="st14" d="M74.5,2.4C60.3-1.8,45.3-0.4,40.1,5.9c-5,6.1-6.3,17.6-3.3,28.6c-0.4-2.5-0.6-6.2,0.5-9.6
			c1.8-5.9,5-7.5,10.4-10.6s9.3-1.1,10.9-5.9c1.6-4.8,3.2-3.6,3.8-2.5c0.5,1.1,4.7,7,9.7,8.8s10.4,3.6,12.2,7.4
			c1.4,2.9,1.4,9.8,1.3,13c0.3,2,0.5,3.6,0.5,3.6S91.3,7.4,74.5,2.4z"/>
		<g>
			<g>
				<circle class="st14" cx="47.9" cy="39" r="2.2"/>
				<circle class="st18" cx="47.9" cy="39" r="1.6"/>
				<circle class="st19" cx="47" cy="39.5" r="0.6"/>
			</g>
			<path class="st15" d="M41.9,35.1c0,0,3.8-1.4,7-1.2c3.2,0.2,5.8,1.2,5.8,1.2s0.6-4.6-5.2-5S41.5,32.2,41.9,35.1z"/>
		</g>
		<g>
			<g>
				<circle class="st14" cx="74.5" cy="39" r="2.2"/>
				<circle class="st18" cx="74.5" cy="39" r="1.6"/>
				<circle class="st19" cx="73.6" cy="39.5" r="0.6"/>
			</g>
			<path class="st15" d="M68.5,35.1c0,0,3.8-1.4,7-1.2c3.2,0.2,5.8,1.2,5.8,1.2s0.6-4.6-5.2-5C70.3,29.8,68.1,32.2,68.5,35.1z"/>
		</g>
		<path class="st19" d="M55.2,65.8c0,0,0.9,0.6,5.7,0.4c4.8-0.3,7.7-0.8,7.7-0.8s-2.4,2.3-6.5,2.3S55.2,65.8,55.2,65.8z"/>
	</g>
</g>
</svg>
