<!-- Generator: Adobe Illustrator 21.1.0, SVG Export Plug-In  -->
<svg version="1.1"
	 xmlns="http://www.w3.org/2000/svg" xmlns:xlink="http://www.w3.org/1999/xlink" xmlns:a="http://ns.adobe.com/AdobeSVGViewerExtensions/3.0/"
	 x="0px" y="0px" width="157.9px" height="167.5px" viewBox="0 0 157.9 167.5" style="enable-background:new 0 0 157.9 167.5;"
	 xml:space="preserve">
<style type="text/css">
	.st0{fill:#A31925;}
	.st1{fill:#BE1E2D;}
	.st2{fill:#274A2F;}
	.st3{fill:#436542;}
	.st4{fill:#2D1012;}
	.st5{fill:#860E19;}
	.st6{fill:#281A1A;}
	.st7{fill:#170606;}
	.st8{fill:#423D3A;}
	.st9{fill:#2F2B29;}
	.st10{fill:#1A2267;}
	.st11{fill:#2B3990;}
	.st12{fill:#FFFFFF;}
	.st13{fill:#231F20;}
</style>
<defs>
</defs>
<g>
	<g>
		<g>
			<path class="st0" d="M75.9,40.4v-6.5l-3.7,4.8c0,0-18.2,8.7-20.4,10.9c-0.1,0.1-0.2,0.2-0.2,0.3C55.3,51.1,68,54.4,75.9,40.4z"/>
			<path class="st1" d="M51.5,49.7c-2.2,2.5-6.3,9.9-6.3,9.9l0.4,51.4c0,0,9.2,1.8,11.3,6.7c1.2,2.8,1.5,15.6,11.6,15.6
				c5.9,0,7.4-3.3,7.4-3.3V40.4C68,54.4,55.3,51.1,51.5,49.7z"/>
			<path class="st2" d="M18.4,83.3C10.7,75,9.9,63.3,10.3,56c-0.2-0.4-0.3-0.7-0.3-0.7c-4.7,9.8-6.2,21.9,6.2,37.7
				c12.6,16.1,30.6,18.3,30.6,18.2l-0.4-9.9C40.4,98.9,27.2,92.9,18.4,83.3z"/>
			<path class="st3" d="M18.4,83.3c8.9,9.6,22,15.6,28,18l-0.9-19.1c0,0-4.4-1.1-15.8-4.6c-10.2-3-17.8-18.3-19.4-21.7
				C9.9,63.3,10.7,75,18.4,83.3z"/>
			<polygon class="st4" points="75.9,90.5 66.3,91.9 75.9,80.6 			"/>
			<polygon class="st5" points="73.7,81.6 73.7,62.7 72.4,64 72.4,82.3 			"/>
			<g>
				<path class="st6" d="M45.5,82.3C45.7,82.3,45.2,82.3,45.5,82.3V59.6c0,0-16.3,0.7-20.8-9.3S19,34.1,19.5,28.6
					c0.4-5.4-8.2-16.9-8.2-16.9s1.1,16.1-1.3,21c-1.6,3.3-1.8,12.3-0.5,20C13.4,62.4,23.5,75,45.5,82.3z"/>
				<path class="st7" d="M9.4,52.8c0.7,3.9,1.8,7.5,3.3,9.9c4.5,7,16.5,20.5,32.8,19.6C23.5,75,13.4,62.4,9.4,52.8z"/>
			</g>
			<path class="st8" d="M51,47.4c1.8,0.4,2.9,0.4,2.9,0.4l3-22.2c0,0-6.6,5.7-11.4,2.8c-4.8-2.8-9.1-5.6-8.2-12.6S34.9,5.6,28.1,0
				c0,0,4.1,12.8,1.5,18.9c-0.7,1.6-1.1,3.3-1.3,5.2C30.3,30.9,35.8,40.7,51,47.4z"/>
			<path class="st9" d="M28.4,24.1c-0.5,5.3,1.5,11.5,7.8,16.5c5.5,4.4,11.4,6.1,14.8,6.8C35.8,40.7,30.3,30.9,28.4,24.1z"/>
			<g>
				<path class="st10" d="M58.4,25.3c-5.5,2-7.7,4.4-8,13.5c-0.2,9.8,7.6,11.2,12.1,10.5C56.9,46.6,47.9,39.8,58.4,25.3z"/>
				<path class="st11" d="M75.2,28.8c0,0-8.4-6.3-15.1-4.1c-0.6,0.2-1.1,0.4-1.7,0.6c-10.5,14.5-1.5,21.3,4.1,24c0.1,0,0.2,0,0.3,0
					c4.4-0.9,10.9-6.7,12.4-10.6C76.7,34.7,75.2,28.8,75.2,28.8z"/>
			</g>
			<polygon class="st5" points="49,69.2 56.5,74.4 66.3,69.2 57.6,78.7 48.1,71.5 			"/>
			<path class="st12" d="M49,69.2c0,0,6.5-4.8,7.9-4.6c1.4,0.2,9.5,3.9,9.5,4.6s-8,5.9-8.7,6.1c-0.7,0.2-0.7,0.7-3.7-1.1
				c-3-1.7-5.8-3.6-5.8-4.1C48.1,69.5,49,69.2,49,69.2z"/>
			<path class="st13" d="M56.3,64.7c0,0-0.7,7.9,0.5,10.8l0.8-0.2c0,0,1-9.4,0.7-10.2C58.3,65.1,57.3,64.3,56.3,64.7z"/>
			<polygon class="st0" points="46.5,111.3 60.7,90.4 45.5,82.2 			"/>
			<path class="st0" d="M45.5,82.2l0-22.2c0,0,0.5,13.4,3.6,15.5C49.1,75.5,45.8,79.3,45.5,82.2z"/>
			<path class="st5" d="M76.1,111c0,0-11.1-4.2-11.8-3.9c-0.7,0.3-3.5,0-4.6,0.7s-1.7,2.3,0,3.2c1.7,0.9,16.5,9.1,16.5,9.1V111z"/>
			<path class="st4" d="M76.1,111v-6.8c0,0-1-2.5-3.5-1.3s-6.9,4.5-6.9,4.5L76.1,111z"/>
		</g>
		<g>
			<path class="st0" d="M78.4,40.4v-6.5l3.7,4.8c0,0,18.2,8.7,20.4,10.9c0.1,0.1,0.2,0.2,0.2,0.3C99,51.1,86.3,54.4,78.4,40.4z"/>
			<path class="st1" d="M102.7,49.7c2.2,2.5,6.3,9.9,6.3,9.9l-0.4,51.4c0,0-9.2,1.8-11.3,6.7c-1.2,2.8-1.5,15.6-11.6,15.6
				c-5.9,0-7.4-3.3-7.4-3.3V40.4C86.3,54.4,99,51.1,102.7,49.7z"/>
			<path class="st2" d="M135.9,83.3c7.7-8.3,8.5-20.1,8.1-27.3c0.2-0.4,0.3-0.7,0.3-0.7c4.7,9.8,6.2,21.9-6.2,37.7
				c-12.6,16.1-30.6,18.3-30.6,18.2l0.4-9.9C113.9,98.9,127,92.9,135.9,83.3z"/>
			<path class="st3" d="M135.9,83.3c-8.9,9.6-22,15.6-28,18l0.9-19.1c0,0,4.4-1.1,15.8-4.6c10.2-3,17.8-18.3,19.4-21.7
				C144.4,63.3,143.5,75,135.9,83.3z"/>
			<polygon class="st4" points="78.4,90.5 88,91.9 78.4,80.6 			"/>
			<polygon class="st5" points="80.6,81.6 80.6,62.7 81.9,64 81.9,82.3 			"/>
			<g>
				<path class="st6" d="M108.8,82.3C108.5,82.3,109,82.3,108.8,82.3V59.6c0,0,16.3,0.7,20.8-9.3s5.6-16.3,5.2-21.7
					c-0.4-5.4,8.2-16.9,8.2-16.9s-1.1,16.1,1.3,21c1.6,3.3,1.8,12.3,0.5,20C140.9,62.4,130.8,75,108.8,82.3z"/>
				<path class="st7" d="M144.8,52.8c-0.7,3.9-1.8,7.5-3.3,9.9c-4.5,7-16.5,20.5-32.8,19.6C130.8,75,140.9,62.4,144.8,52.8z"/>
			</g>
			<path class="st8" d="M103.3,47.4c-1.8,0.4-2.9,0.4-2.9,0.4l-3-22.2c0,0,6.6,5.7,11.4,2.8c4.8-2.8,9.1-5.6,8.2-12.6
				s2.4-10.2,9.1-15.8c0,0-4.1,12.8-1.5,18.9c0.7,1.6,1.1,3.3,1.3,5.2C124,30.9,118.5,40.7,103.3,47.4z"/>
			<path class="st9" d="M125.9,24.1c0.5,5.3-1.5,11.5-7.8,16.5c-5.5,4.4-11.4,6.1-14.8,6.8C118.5,40.7,124,30.9,125.9,24.1z"/>
			<g>
				<path class="st10" d="M95.8,25.3c5.5,2,7.7,4.4,8,13.5c0.2,9.8-7.6,11.2-12.1,10.5C97.3,46.6,106.4,39.8,95.8,25.3z"/>
				<path class="st11" d="M79.1,28.8c0,0,8.4-6.3,15.1-4.1c0.6,0.2,1.1,0.4,1.7,0.6c10.5,14.5,1.5,21.3-4.1,24c-0.1,0-0.2,0-0.3,0
					c-4.4-0.9-10.9-6.7-12.4-10.6C77.6,34.7,79.1,28.8,79.1,28.8z"/>
			</g>
			<polygon class="st5" points="105.3,69.2 97.7,74.4 88,69.2 96.6,78.7 106.1,71.5 			"/>
			<path class="st12" d="M105.3,69.2c0,0-6.5-4.8-7.9-4.6C96,64.9,88,68.5,88,69.2s8,5.9,8.7,6.1s0.7,0.7,3.7-1.1
				c3-1.7,5.8-3.6,5.8-4.1C106.1,69.5,105.3,69.2,105.3,69.2z"/>
			<path class="st13" d="M97.9,64.7c0,0,0.7,7.9-0.5,10.8l-0.8-0.2c0,0-1-9.4-0.7-10.2C96,65.1,97,64.3,97.9,64.7z"/>
			<polygon class="st0" points="107.8,111.3 93.6,90.4 108.8,82.2 			"/>
			<path class="st0" d="M108.8,82.2l0-22.2c0,0-0.5,13.4-3.6,15.5C105.2,75.5,108.4,79.3,108.8,82.2z"/>
			<path class="st5" d="M78.2,111c0,0,11.1-4.2,11.8-3.9c0.7,0.3,3.5,0,4.6,0.7s1.7,2.3,0,3.2c-1.7,0.9-16.5,9.1-16.5,9.1V111z"/>
			<path class="st4" d="M78.2,111v-6.8c0,0,1-2.5,3.5-1.3s6.9,4.5,6.9,4.5L78.2,111z"/>
		</g>
	</g>
	<g>
		<path class="st12" d="M9.8,167.1v-13.4L0,139.9h6.3l6.1,8.6l6.1-8.6h6.2l-9.8,13.7v13.4H9.8z"/>
		<path class="st12" d="M41.6,167.1l-2.8-7.3h-9l-2.8,7.3h-5.5L32,139.9h4.6l10.5,27.1H41.6z M36.9,154.7l-2.5-6.6l-2.5,6.6H36.9z"
			/>
		<path class="st12" d="M56.6,166.4c-1.7-0.7-3.2-1.8-4.5-3.1c-1.3-1.3-2.4-2.8-3.1-4.5c-0.8-1.8-1.1-3.6-1.1-5.5
			c0-7.8,6.4-14.2,14.2-14.2c2.2,0,4.4,0.5,6.4,1.5c1.9,1,3.7,2.4,5,4.2l0.6,0.8l-4.1,3l-0.6-0.8c-1.7-2.3-4.4-3.7-7.3-3.7
			c-5,0-9.2,4.1-9.2,9.1c0,5.1,4.1,9.2,9.2,9.2c2.9,0,5.6-1.3,7.3-3.7l0.6-0.7l4,3l-0.6,0.8c-1.3,1.8-3,3.2-5,4.2
			c-1.9,1-4.1,1.5-6.3,1.5C60.2,167.5,58.4,167.1,56.6,166.4z"/>
		<path class="st12" d="M94.5,167.1v-13.2h-11v13.2h-5.1v-27.1h5.1v9h11v-9h5.1v27.1H94.5z"/>
		<path class="st12" d="M122.9,167.1l-2.8-7.3h-9l-2.8,7.3h-5.5l10.4-27.1h4.6l10.5,27.1H122.9z M118.2,154.7l-2.5-6.6l-2.5,6.6
			H118.2z"/>
		<path class="st12" d="M151.6,167.1l-10.1-14.2l-4.3,4.1v10.1H132v-27.1h5.1v10.2l10.8-10.2h7.3l-10,9.4l12.6,17.7H151.6z"/>
	</g>
</g>
</svg>
