<!-- Generator: Adobe Illustrator 21.1.0, SVG Export Plug-In  -->
<svg version="1.1"
	 xmlns="http://www.w3.org/2000/svg" xmlns:xlink="http://www.w3.org/1999/xlink" xmlns:a="http://ns.adobe.com/AdobeSVGViewerExtensions/3.0/"
	 x="0px" y="0px" width="302.2px" height="147.9px" viewBox="0 0 302.2 147.9" style="enable-background:new 0 0 302.2 147.9;"
	 xml:space="preserve">
<style type="text/css">
	.st0{fill:#8DC63F;}
	.st1{fill:#EF4136;}
	.st2{fill:#27AAE1;}
	.st3{fill:#EC008C;}
	.st4{fill:#FBB040;}
	.st5{fill:#FFFFFF;}
	.st6{fill:#2B3990;}
	.st7{fill:url(#SVGID_1_);}
	.st8{fill:#ACEAFD;}
	.st9{fill:#81B0BE;}
	.st10{fill:url(#SVGID_2_);}
</style>
<defs>
</defs>
<g>
	<path class="st0" d="M11.7,1c0.1,0,0.2,0,0.3,0h0.5c0.1,0,0.3,0,0.4,0c0.4,0,0.8,0.1,1.2,0.2c0.3,0,0.7,0.1,1.1,0.2
		C15.9,1.8,16.6,2.3,17,3c0.2,0.3,0.3,0.5,0.5,0.8l0.1,0.2c0.2,0.2,0.3,0.5,0.3,0.7c0.2,0.5,0.5,1,0.6,1.6c0.1,0.5,0.2,1.1,0.2,1.7
		c0,0.6,0.1,1.3,0,1.8c-0.1,0.5,0,1,0,1.5c0,0.5,0,1-0.3,1.5c-0.2,0.3-0.3,0.5-0.6,0.8c-0.1,0.2-0.2,0.3-0.3,0.5
		c-0.3,0.5-0.8,0.8-1.3,1c-0.2,0.2-0.5,0.3-0.7,0.4c0,0,0,0,0,0c0.1,0,0.1,0.1,0.2,0.1l0.1,0.1c0.1,0.1,0.2,0.2,0.3,0.3
		c0.1,0.1,0.2,0.2,0.3,0.3c0,0,0.1,0,0.1,0.1l0.9,0.7c0.8,0.7,1.1,1.9,1.2,3c0,1.2,0.2,2.3,0.1,3.5c0,0.6-0.2,1.2-0.4,1.7L18,25.8
		c-0.1,0.4-0.3,0.7-0.5,1.1c-0.2,0.3-0.4,0.5-0.7,0.7c-0.1,0.1-0.2,0.2-0.3,0.2c-0.1,0.1-0.2,0.1-0.3,0.2h-0.1
		c-0.3,0.2-0.7,0.4-1,0.5c0,0-0.2,0-0.1,0l-0.3,0.1c-0.2,0-0.5,0.1-0.7,0.1h-0.5c0.2,0,0,0,0,0h-0.6l-0.4,0c-0.7,0.1-1.3,0.1-2,0
		c-0.1,0-0.2,0-0.3-0.1c-0.2,0-0.5,0-0.7,0H8.2c-0.2,0-0.5-0.1-0.5-0.3c0-0.1,0-0.3,0-0.4c0-0.1,0-0.2,0-0.3
		c0.1-0.2,0.1-0.4,0.2-0.6v-0.5c0-0.5-0.1-0.9-0.1-1.4c0-0.5,0-1,0-1.5c0-0.5,0-0.9-0.1-1.4c-0.1-2,0-4,0.1-6.1c0-1.2,0-2.5,0-3.6
		c0-0.5,0-1,0.1-1.4c0-0.1,0-0.3,0-0.4V10c0-0.2,0-0.4,0-0.6C7.8,8.5,7.7,7.6,7.7,6.7c0-0.4,0-0.9,0-1.3c0-0.2,0-0.5,0-0.7
		c0-0.2,0-0.4,0-0.7C7.4,3.6,7.5,3.2,7.4,2.8c0-0.4,0-0.8-0.1-1.1c0-0.1,0.1-0.2,0.2-0.3c0.1-0.1,0.2-0.2,0.3-0.2c0.1,0,0.2,0,0.3,0
		h0.3c0.1,0,0.2,0,0.2,0c0,0,0.1,0,0.2,0L10,1c0.4,0,0.8,0,1.2,0C11.4,1,11.5,1,11.7,1z M11.2,4c0,0.1,0,0.2,0,0.3c0,0.5,0,1,0,1.5
		c0,0.5,0,0.9,0,1.4c0,1,0.1,2,0.1,3.1c0,1,0,2,0.1,3.1v0.2c0.1,0.1,0.2,0.2,0.2,0.3c0,0,0,0,0,0c0.4,0,0.8,0,1.2,0
		c0.2,0,0.5,0,0.7,0H14l0,0c0,0,0.1,0,0.1,0c0.1,0,0.1,0,0.2-0.1l0.2-0.2c0,0,0.1-0.2,0-0.1c0.1-0.2,0.2-0.3,0.3-0.4
		c0-0.1,0.1-0.1,0.1-0.2l0,0c0.1-0.3,0.2-0.6,0.2-0.9c0-0.6,0.1-1.2,0.1-1.8c0-0.6,0-1.3,0-1.9c0-1.2,0-2.4-0.3-3.5c0,0,0,0,0,0
		l-0.5-0.5c-0.1-0.1-0.2-0.2-0.3-0.3l0,0c0,0-0.1-0.1-0.2-0.1c0,0-0.1-0.1-0.2-0.1c0,0,0,0-0.1,0l-0.4-0.1c-0.1,0-0.3-0.1-0.4-0.1
		l-0.2,0h-0.8l-0.4,0.2C11.5,3.7,11.3,3.8,11.2,4z M11.5,16.9C11.4,16.9,11.4,16.9,11.5,16.9l-0.1,0.3c0,1.3-0.2,2.5-0.2,3.7v1.8
		c0,0.3,0,0.6,0,0.9c0,0.2,0,0.5,0.1,0.7c0,0.2,0.1,0.3,0.1,0.5c0,0.2,0,0.3,0,0.4c0,0.3,0.2,0.5,0.2,0.8c0,0,0,0.1,0,0.2l0,0v0.2
		c0,0.1,0,0.2,0,0.2c0,0,0.1,0.1,0.2,0.2c0,0,0,0,0.1,0.1c0,0,0.1,0,0.2,0h1.1c0.3,0,0.5-0.1,0.8-0.1h0.2c0,0,0,0,0.1,0c0,0,0,0,0,0
		c0,0,0.1-0.1,0.1,0l0.1-0.1c0.1-0.1,0.2-0.1,0.2-0.2c0.3-0.3,0.7-0.6,0.8-1c0.1-0.3,0.1-0.6,0.1-0.9c0-0.3,0-0.5,0-0.8
		c0-0.3,0-0.6,0-0.8c0-0.3,0-0.5,0-0.8c-0.1-0.6-0.1-1.2-0.2-1.7L15,18.8l-0.2-0.3c-0.2-0.4-0.5-0.9-0.9-1.2
		c-0.2-0.2-0.4-0.3-0.7-0.4c-0.2-0.1-0.4-0.1-0.6-0.1c-0.3,0-0.7,0-1-0.1C11.5,16.8,11.5,16.9,11.5,16.9z"/>
	<path class="st0" d="M31.8,0.5c0,0,0.1,0,0.1,0.1c0,0.1,0.1,0.1,0.2,0.1c0,0.1,0,0.2,0.1,0.3c0,0.1,0,0.2,0,0.3l0.1,0.2
		c0,0.2,0.1,0.4,0.2,0.6c0.1,0.2,0.1,0.4,0.1,0.6c0,0.2-0.1,0.3-0.3,0.3l-0.1,0l-0.1,0l-0.1,0h-0.1l-0.3,0l-0.1,0
		c-0.2,0.1-0.4,0.1-0.6,0.1c-0.2,0-0.5,0-0.7,0.1c-0.2,0.1-0.5,0-0.7,0.1c-0.2,0-0.5,0-0.7,0.1l-0.5,0c-0.1,0-0.2,0-0.4,0
		c-0.3,0-0.6,0-0.8,0c-0.3,0-0.6,0-0.8,0c-0.2,0-0.3,0.1-0.5,0.1l-0.2,0l0.1,1.3l0,0.4l0,0.2v0.2l0,0.9l0,1.7l0,0.3
		c0.1,0.6,0.2,1.2,0.2,1.8c0,0.3,0,0.7,0,1l0.2,0l0.6,0.1l0.5,0.1h0.1l0.1,0l0.1,0l0.6,0l0.3,0l0.4,0l0.4-0.1l0.3-0.1l0.1,0l0.1,0
		l0.2-0.1l0.1,0.1l0.1,0.1c0.3,0,0.5,0,0.8,0c0.1,0,0.2,0,0.4,0.1l0.1,0c0.1,0.1,0.3,0,0.5,0c0.1,0,0.2,0.1,0.3,0.2
		c0,0.1,0.1,0.1,0.1,0.2c0,0.1,0,0.2,0,0.3c0,0.2,0,0.4,0.1,0.6l0.1,0.7c0,0.2,0,0.4,0,0.6l0,0.1c0,0.2-0.2,0.3-0.3,0.3
		c-0.5,0-1,0-1.6,0l-0.8,0c-0.2,0-0.5,0.1-0.7,0.1c-0.5,0-1.1,0-1.6,0l-0.6,0c-0.2,0-0.3,0-0.4,0l-0.1,0l0,0.4
		c0,0.3-0.1,0.6-0.1,0.9c-0.1,0.6-0.1,1.2-0.1,1.9c0,0.6-0.1,1.2-0.1,1.9l-0.1,1c0,0.3,0,0.6,0,0.9c0,0.1,0,0.1-0.1,0.2v0.2v0.1v0.1
		v0.1l0,0.6l0,0.5l0,0.4v0.1v0.1l0,0.2l0.1,0.5l0,0.3l0,0.3l0,0.4l0.5-0.1c0.2,0,0.5-0.1,0.7-0.1c0.4,0,0.8,0.1,1.2,0.1
		c0.2,0,0.4,0,0.6,0.1l0.4,0.1h0.3l0.2,0l0.4,0c0.3,0,0.6-0.1,0.9-0.1L31,25l0.1,0l0.2,0l0.7-0.1l0.1,0c0.1,0,0.2,0,0.3,0.1l0,0l0,0
		l0,0.1l0,0.2v0.1l-0.1,0.4l0.1,1.1v0.3v0.1l0,0.1l0,0.1l-0.1,0.2l0,0c-0.1,0.1-0.2,0.2-0.3,0.2l-0.1,0l-0.7,0l-0.5,0l-0.5,0
		c-0.4,0-0.8-0.1-1.2-0.1c-0.4,0-0.7-0.1-1.1-0.1l-0.5,0l-0.2,0l-0.1,0l0,0l-0.1,0L26.2,28h-0.1c-0.1,0-0.1,0.1-0.2,0.1
		c-0.2,0.1-0.6,0.3-0.8,0.3c-0.3-0.1-0.6-0.2-0.9-0.2c-0.3-0.1-0.6-0.2-0.9-0.3l-0.4-0.1l-0.2-0.1l-0.1,0c0,0-0.1,0-0.1-0.1
		c-0.1,0-0.2-0.1-0.2-0.2c0,0,0-0.1,0-0.1c0-0.3-0.1-0.6,0-0.9c0-0.2,0.1-0.4,0.1-0.6l0.1-0.7c0-0.5,0.1-0.9,0.1-1.4
		c0-0.5,0-0.9,0-1.4c0-0.5,0.1-0.9,0.1-1.4c0.1-0.5,0.2-0.9,0.2-1.4l0.1-1.4c0-0.5,0.1-0.9,0.1-1.4c0-0.1,0-0.3,0-0.4l0-0.1l0-0.2
		l0,0l0.1-0.8c0-0.6-0.1-1.2-0.1-1.8c0-0.6,0.1-1.2,0.1-1.9c0.1-1.1-0.3-2.3-0.3-3.4c0-0.3,0-0.6-0.1-1c0-0.3-0.1-0.6-0.1-0.9
		l-0.1-0.9c0-0.3,0-0.5-0.1-0.8c0-0.3,0-0.6,0-0.9l0-0.7c0-0.5,0-1.1,0.2-1.6c0.1-0.2,0.3-0.3,0.6-0.3c0.2-0.1,0.4-0.2,0.5-0.2
		c0.5,0,1-0.1,1.5-0.1c0.3,0,0.5,0,0.8,0.1l0.6,0.1c0.2,0,0.4,0,0.7,0l0.9,0l0.1,0l1.9-0.1l0.1,0l0.7-0.1l0.3,0l0.1,0h0h0.2l0.2,0
		L31.8,0.5L31.8,0.5z"/>
	<path class="st0" d="M41,0c0.5,0.1,1.1,0.2,1.6,0.3c0.5,0.1,0.9,0.3,1.3,0.6C44.4,1.2,44.7,1.6,45,2c0.2,0.2,0.4,0.5,0.5,0.8
		l0.1,0.3l0.1,0.2l0,0.1l0.1,0.2l0,0.1L45.9,4c0.1,0.2,0.2,0.5,0.3,0.8c0.1,0.2,0.1,0.5,0.1,0.8l0,0.1c0,0.1,0.1,0.2,0.1,0.3
		c0,0.1,0,0.2,0.1,0.3c0,0.1,0,0.2,0,0.3c0,0.1-0.1,0.2-0.2,0.3C46,6.8,45.8,6.9,45.5,7c-0.3,0.1-0.6,0.1-0.9,0.2l-0.4,0.1
		c-0.1,0-0.3,0.1-0.4,0c-0.1-0.1-0.1-0.2-0.1-0.3l0-0.2c-0.2-0.3-0.2-0.7-0.3-1l-0.2-0.6l0-0.1L43,5l-0.1-0.2
		c-0.1-0.2-0.1-0.4-0.2-0.7l-0.1-0.2l0-0.1l-0.1-0.2l-0.1-0.1l-0.1-0.1l-0.1-0.1l-0.1-0.1c0.1,0.1-0.1,0-0.1,0L42,3.3l-0.1,0l-0.1,0
		c-0.2-0.1-0.4-0.1-0.6-0.2L41,3l-0.2,0c-0.2,0-0.4,0-0.5,0l-0.1,0l-0.1,0l-0.3,0.1c0,0-0.2,0.1-0.1,0l-0.1,0l-0.2,0.1l-0.1,0.1
		l-0.2,0.2l-0.1,0.1l0,0.1L39,3.9l-0.3,0.5l-0.2,0.4l-0.1,0.1l0,0.1l-0.1,0.4c0,0,0,0.2,0,0.1l0,0.2c0,0.4-0.1,0.7-0.1,1
		c0-0.1,0,0.1,0,0.1l0,0.2l0,0.4l0,0.3c0,0.2,0,0.2,0,0.1v0.1v0.4l0,0.8c0,0.3,0,0.6,0,0.9c0,0.3,0,0.6,0,0.9c0,0.3-0.1,0.6-0.1,0.9
		c0,0.3-0.1,0.6-0.2,0.9l0,0.1l0,0.2v0.4l0,0.9l0,1l-0.1,0.6l0,0.2l0,0.1c-0.1,0.6,0,1.2,0,1.8l0,0.1l0.1,0.5
		c0.1,0.4,0.2,0.7,0.2,1.1l0.1,0.6l0,0.3l0,0.2l0,0.1c0.1,0.4,0.2,0.9,0.3,1.3c0.1,0.3,0.1,0.6,0.2,0.9l0,0.2l0.1,0.4
		c0.1,0.4,0.1,0.8,0.3,1.2l0.1,0.2l0.1,0.1l0.1,0.1l0.2,0.1l0.2,0.2l0.1,0.1l0.2,0.1l0.1,0l0.4,0l0.3,0c0.3-0.1,0.5-0.2,0.8-0.2
		l0.1,0l0.2-0.1l0.3-0.2l0.3-0.2l0.1-0.1c0.2-0.1,0.3-0.3,0.4-0.5l0.1-0.1l0.1-0.1l0.2-0.3l0.2-0.3l0,0l0-0.1l0-0.1l0-0.2l0-0.3
		c0-1.1,0.1-2.1,0.1-3.2c0-0.5,0-1.1,0-1.6l0-0.6c-0.1,0-0.1-0.1-0.2-0.1l0-0.1l-0.1-0.1l-0.1,0l-0.2,0l-0.6-0.1l-0.1,0l-0.3,0
		l-0.5-0.1c-0.1,0-0.1,0-0.2,0c0.1,0.1-0.1,0-0.1,0c-0.1,0-0.1-0.1-0.2-0.1c-0.1,0-0.3-0.1-0.3-0.3c0-0.1,0-0.3,0-0.4l0-0.4
		c0-0.1,0-0.2-0.1-0.4c0-0.1,0-0.2,0-0.4v-0.5c0-0.1,0-0.2,0-0.3c0.1-0.3,0.4-0.2,0.6-0.2l0.1,0.1l0.2,0c0.3,0,0.5,0.1,0.8,0.2
		c0.3,0.1,0.5,0.1,0.8,0.1c0.3,0,0.6,0.1,0.9,0.2l0.4,0.1l0.1,0c0.3,0,0.5,0.1,0.8,0.2l0.8,0.3l0,0.1l0,0.2l0,0.2
		c0.2,0.4,0.2,0.8,0.3,1.2c0.1,0.5,0.1,1,0.1,1.5c0,0.9,0,1.9,0,2.8c0,0.5,0.1,1,0,1.5c0,0.5-0.2,1-0.3,1.5
		c-0.2,0.4-0.4,0.9-0.6,1.3c-0.1,0.3-0.4,0.6-0.6,0.8l-0.2,0.3L44.4,27l-0.2,0.2l-0.1,0L44,27.3l-0.1,0.1c-0.2,0.2-0.5,0.3-0.7,0.4
		c-0.2,0.1-0.4,0.2-0.6,0.3l-0.2,0.1h-0.1l-0.1,0l-0.3,0.1c-0.2,0-0.5,0.1-0.7,0.1c-0.3,0-0.5,0-0.8,0h-0.3l-0.1,0h-0.1l-0.1,0
		l-0.6,0l-0.3-0.1h-0.2l-0.1,0h-0.1c-0.3-0.1-0.5-0.2-0.8-0.3c-0.3-0.1-0.5-0.3-0.8-0.4l-0.3-0.2l-0.1,0c-0.3-0.2-0.4-0.4-0.6-0.7
		c-0.1-0.2-0.2-0.4-0.3-0.7c-0.2-0.4-0.3-0.8-0.3-1.2c-0.1-0.3-0.1-0.6-0.2-0.9l0-0.6l0-0.1l0-0.1c-0.1-0.3-0.1-0.6-0.2-0.9
		l-0.1-0.4l0-0.3c0,0.2,0,0,0-0.1l-0.1-0.6l0-0.1l0-0.1c0-0.3-0.1-0.6-0.1-1l0-0.5l0-0.2l0-0.1c0-0.3-0.1-0.6-0.1-0.9
		c0-0.6,0-1.2,0-1.8l-0.1-0.9c0-0.3,0-0.6,0-0.8c0-0.3,0-0.6,0-1l0.1-0.9c0-0.2,0.1-0.4,0.1-0.6l0.1-0.4l0-0.6l0-0.5
		c0-0.1,0-0.3,0-0.3c-0.1-0.3,0-0.5,0-0.8l0-1.9c0-0.6,0-1.2,0.2-1.8c0.1-0.5,0.3-1.1,0.5-1.6c0.1-0.3,0.2-0.6,0.4-0.8l0.5-0.6
		c0.2-0.2,0.3-0.4,0.5-0.6c0.2-0.2,0.3-0.4,0.5-0.6c0.4-0.4,0.9-0.7,1.4-0.8l0.6-0.1l0.2,0C39.7,0.1,40,0.1,40.3,0
		C40.5,0,40.8,0,41,0L41,0z"/>
	<path class="st0" d="M50.7,0.4c0.3,0,0.5,0,0.8,0.1c0.3,0,0.5,0.1,0.8,0.1c0.2,0,0.5,0,0.7,0.1l0.4,0.1c0.1,0,0.4,0.1,0.4,0.2
		l0,0.2c0,0,0.1,0.1,0.1,0.1c0,0.3,0,0.6,0,0.9c0,0.3,0,0.6,0,0.9c0,0.7,0,1.3,0,2l0,1.9c0,0.6,0,1.2,0,1.8l0,0.9
		c0,0.3-0.1,0.6-0.1,0.9c0,0.6-0.1,1.2-0.1,1.8l0,0.9c0,0.3,0,0.6,0,0.9c-0.1,0.3-0.1,0.6-0.1,0.9l0,0.8l0,1.8c0,0.3,0,0.7-0.1,1
		c0,0.9,0.1,1.8,0.2,2.6c0,0.9,0.1,1.9,0.1,2.8c0,0.9,0.1,1.8,0.1,2.6l0,0.1c0,0.1,0.1,0.2,0.1,0.3c0,0.1,0,0.2,0,0.3l0,0.1
		c0,0.1,0,0.1-0.1,0.1c-0.2,0.2-0.4,0.2-0.6,0.2c-0.2,0-0.5,0-0.7,0.1c-0.2,0-0.5,0.1-0.7,0.1c-0.2,0-0.5,0-0.7,0
		c-0.2-0.1-0.4,0-0.6-0.2c-0.1-0.1-0.1-0.2-0.1-0.3c0-0.1,0-0.2,0-0.3c0-0.1,0-0.1,0.1-0.2l0-0.2l0-0.4v-0.2v-0.2v-0.8
		c-0.1-0.1-0.2-0.2-0.2-0.3c0.1-0.2,0.2-0.4,0.2-0.7l0-0.7c0-0.5,0.1-1,0.1-1.5c0-0.5,0-1,0-1.6c0-0.5,0-1,0-1.5
		c0-1.1,0.1-2.1,0.1-3.2c0-0.8,0.1-1.6,0.3-2.4l-0.1-1.4c0-0.6,0-1.2-0.1-1.8c-0.1-0.6-0.2-1.2-0.2-1.8c-0.1-1.2,0-2.5,0-3.7
		c0-0.6,0-1.2-0.1-1.7c0-0.3-0.1-0.6-0.1-0.9c0-0.3,0-0.6,0-0.9c0-0.1,0.1-0.2,0.2-0.3l0-0.1C50.4,0.5,50.5,0.4,50.7,0.4L50.7,0.4z"
		/>
	<path class="st0" d="M69.9,0.8c0.2,0,0.4,0,0.6,0c0.2,0,0.5,0,0.7,0.1c0.2,0,0.4,0,0.6,0c0.1,0,0.3,0.1,0.3,0.3
		c0,0.1,0,0.2-0.1,0.3c0,0.1,0,0.2,0,0.3c0,0.1,0,0.2-0.1,0.3l0,0.4c0,0.3,0,0.5-0.1,0.8l-0.3,1.5c-0.1,0.5-0.1,1-0.2,1.5
		c0,0.2-0.1,0.5-0.1,0.7c0,0.2,0,0.4-0.1,0.7c-0.1,0.4,0,0.9-0.1,1.3c0,0.3-0.1,0.5-0.1,0.8l0,0.3c0,0.1,0,0.2,0,0.3
		c0,0.2,0,0.3-0.1,0.4c0,0.1,0,0.2-0.1,0.3c0,0.2,0,0.4-0.1,0.7c0,0.2-0.1,0.5-0.1,0.7c0,0.2-0.1,0.4-0.2,0.6c0,0.2,0,0.4,0,0.7
		c0,0.1,0,0.3,0,0.4l0,0.4c0,0.3,0,0.5,0,0.8l-0.1,0.9c0,0.3-0.1,0.6-0.1,0.8c0,0.3,0,0.6-0.1,1l0,0.8l0,0.8c0,0.3,0,0.5-0.1,0.8
		c-0.1,0.5,0,0.9-0.1,1.4c-0.1,0.5-0.1,1-0.1,1.5c0,0.2,0,0.4,0,0.6l0,0.5c0,0.3,0,0.6,0,0.9c0,0.1,0,0.1,0,0.2c0,0.5,0.1,1,0.1,1.6
		l0,0.3l0,0.1v0.3c0,0.2-0.1,0.4-0.3,0.5l-0.3,0l-0.4,0l-0.6,0l-0.5,0h-0.2c-0.2,0-0.3,0-0.5,0l-0.1,0c-0.2,0-0.3,0-0.4-0.2
		c-0.1-0.1-0.1-0.3-0.2-0.5c-0.1-0.1-0.1-0.2-0.1-0.4c0-0.1-0.1-0.2-0.1-0.3l-0.1-0.4c-0.2-0.4-0.3-0.8-0.5-1.2
		c-0.2-0.4-0.4-0.9-0.5-1.3c-0.2-0.5-0.4-1.1-0.6-1.6c-0.2-0.6-0.3-1.1-0.5-1.7c-0.1-0.3-0.3-0.6-0.4-0.9c-0.1-0.3-0.1-0.5-0.2-0.8
		c-0.1-0.3-0.2-0.6-0.3-0.9c-0.1-0.3-0.2-0.5-0.3-0.8l-0.6-1.7L62,14.8c-0.1-0.3-0.2-0.6-0.3-0.9c-0.1-0.3-0.2-0.6-0.2-0.9
		c0-0.3-0.1-0.6-0.1-0.9c0-0.2-0.1-0.4-0.2-0.7v0.2v1.4l0.1,0.7c0.1,0.6,0.1,1.2,0.1,1.8c0,0.3,0,0.6,0.1,1c0,0.3,0,0.6,0,0.9
		l-0.1,0.9c0,0.3,0,0.6,0,0.8c0,0.3,0,0.6,0,0.9l0,0.8c0,0.3,0,0.6,0,0.9l0,0.4c0,0.1,0,0.2,0,0.4c0,0.6,0,1.2-0.1,1.7
		c0,0.3-0.1,0.6-0.1,0.9c0,0.3,0,0.5,0,0.8c0,0.3,0,0.6-0.1,0.8c0,0.1,0,0.2,0,0.3l0,0.3c0,0.1,0,0.2-0.1,0.2c0,0.1-0.1,0.2-0.2,0.2
		c-0.2,0.1-0.4,0-0.6,0l-0.6,0c-0.3,0-0.6,0-1,0H58c-0.1,0-0.2-0.1-0.3-0.2c0-0.1,0-0.3,0-0.4l0-0.3c0-0.4,0.2-0.8,0.3-1.3
		c0.1-0.4,0.1-0.8,0.1-1.2c0-0.4,0-0.9,0-1.3c0.1-0.4,0.1-0.8,0.1-1.3c0-0.9,0.1-1.8,0.1-2.6c0-0.4,0.1-0.9,0.1-1.3l0-0.6
		c0-0.1,0-0.2,0-0.3c0-0.3,0-0.7-0.1-1c-0.1-0.5,0-1,0-1.5c0-0.2,0-0.3,0-0.5c0-0.1,0-0.3,0-0.4c0-0.3,0-0.5,0-0.8
		c0-0.3,0-0.6,0.1-0.9c0-0.3,0-0.5,0-0.8l-0.1-1.6c0-0.6-0.1-1.2-0.1-1.8c-0.2-1.2-0.2-2.4-0.2-3.5c0-0.6,0-1.2,0-1.8
		c0-0.2,0-0.4,0-0.6l0-0.1l0-0.1c0-0.2-0.1-0.4,0-0.6C58.2,1,58.4,1,58.5,1l0.6,0l0.6,0c0.2,0,0.4-0.1,0.6-0.1
		c0.2,0,0.3,0.3,0.3,0.5c0,0.1,0,0.3,0,0.4l0,0.1l0,0.3l0.1,0c0.1-0.1,0.2-0.1,0.3,0.1c0,0.1,0.1,0.2,0.1,0.4L61.3,3
		c0.1,0.3,0.2,0.5,0.3,0.8c0.1,0.3,0.2,0.5,0.3,0.8L62,4.9L62,5l0.1,0.3c0.1,0.3,0.2,0.6,0.3,0.9L62.7,7c0.2,0.6,0.3,1.1,0.5,1.7
		c0.4,1.1,0.8,2.2,1,3.4c0.1,0.6,0.2,1.2,0.3,1.7c0.1,0.6,0.4,1.1,0.6,1.7c0.1,0.4,0.2,0.8,0.4,1.2l0.3,0.8l0.2,0.5l0.1,0.2l0,0.1
		c0.1,0.2,0.1,0.3,0.2,0.5l0,0.1l0.2,0.5c0.2,0.6,0.3,1.2,0.5,1.8l0.1,0.3v-0.1v-0.1v-0.1l0.1-0.8l0.1-0.8l0-0.3
		c0-0.4-0.1-0.8,0-1.2l0.1-0.6c0-0.2,0.1-0.4,0.1-0.6c0-0.4,0-0.8,0-1.1c0.1-0.8,0-1.6,0.2-2.4c0-0.2,0.1-0.4,0.1-0.6
		c0-0.2,0-0.4,0-0.6c0-0.3,0.1-0.5,0.1-0.7c0-0.2,0-0.4,0-0.6l0-0.6c0-0.2,0-0.4,0-0.6c0-0.2,0.1-0.4,0.1-0.7C68,8.9,68,8.7,68,8.5
		c0-0.2,0.1-0.4,0.1-0.7c0-0.4,0.1-0.9,0.2-1.3c0.1-0.5,0-0.9,0.1-1.4c0-0.2,0.1-0.4,0.1-0.7c0-0.2,0.1-0.4,0.1-0.6
		c0.1-0.5,0.2-0.9,0.3-1.4c0-0.2,0.1-0.4,0.1-0.7l0-0.3c0-0.1,0.1-0.2,0.1-0.3V1.1c0-0.1,0.1-0.3,0.3-0.3
		C69.4,0.9,69.7,0.8,69.9,0.8L69.9,0.8z"/>
	<path class="st1" d="M23.5,30.9c0.1,0,0.3,0,0.4,0c0.1,0,0.3,0,0.4,0c0.3,0.1,0.7,0,1,0c0.2,0,0.7-0.1,0.8,0.2c0.1,0.1,0,0.3,0,0.4
		l0,0.2c0,0.1,0,0.1,0,0.2c0,0.2-0.1,0.4-0.1,0.5c0,0.1-0.1,0.3-0.1,0.4c-0.1,0.2-0.2,0.4-0.3,0.5l0,0.3c-0.1,0.5-0.2,1-0.3,1.6
		c-0.2,1.2-0.8,2.2-1,3.3c-0.1,0.3-0.2,0.6-0.3,0.8c-0.1,0.3-0.2,0.5-0.3,0.8c-0.1,0.3-0.2,0.6-0.4,0.9l-0.1,0.2l0,0.1L23.1,42
		l0,0.1L23,42.3l-0.1,0.4l-0.1,0.8l-0.2,0.9c0,0.3-0.1,0.5-0.1,0.8c-0.2,0.5-0.3,1.1-0.6,1.6L21.7,47l-0.1,0.1c0,0.1,0,0.2-0.1,0.3
		c0,0.1-0.1,0.3-0.1,0.4l-0.1,0.1c0,0.1-0.1,0.2-0.1,0.2c0,0.3,0,0.5,0,0.8c0,0.4,0,0.8,0,1.2c0,0.3,0,0.7,0,1
		c0,0.4,0.1,0.8,0.1,1.2l0,2.3l0,1.2v0.6v0.1c0.1,0.3,0.2,0.6,0.2,0.8c0,0.1,0,0.3-0.2,0.4c-0.2,0-0.3,0-0.5-0.1l-0.5-0.1l-0.1,0
		l-0.2,0l-1.1,0h-0.4c-0.2,0-0.3-0.1-0.4-0.3c0-0.1,0-0.3,0-0.4c0-0.2,0-0.4,0-0.6v-0.1l0-0.3l0-0.3l0-0.2v-0.1l0-0.5l0-0.4
		c0-0.2-0.1-0.3-0.1-0.5c0-0.2,0-0.3,0-0.5c0-0.2,0.1-0.4,0-0.5l-0.1-0.6l-0.1-0.6c0-0.4,0-0.8,0-1.2c0-0.2,0-0.4,0-0.6l0-0.6
		c0-0.2-0.1-0.4-0.1-0.5c0-0.1,0-0.2,0.1-0.3l-0.5,0c-0.1,0-0.2-0.1-0.2-0.3l0-0.2l0,0c-0.1-0.1-0.1-0.1-0.1-0.2
		c0-0.1-0.1-0.2-0.1-0.3c0-0.1,0-0.3-0.1-0.4l-0.2-0.3c-0.1-0.1-0.1-0.3-0.2-0.4c-0.1-0.1-0.1-0.2-0.2-0.4c-0.1-0.3-0.2-0.6-0.2-0.8
		c-0.2-0.6-0.5-1.1-0.7-1.7c-0.1-0.3-0.2-0.6-0.2-0.8c-0.1-0.3-0.2-0.5-0.2-0.7c-0.1-0.3-0.2-0.5-0.3-0.8c-0.1-0.2-0.2-0.5-0.3-0.8
		c-0.2-0.6-0.3-1.1-0.5-1.7c-0.1-0.3-0.2-0.6-0.3-0.9c-0.1-0.2-0.3-0.5-0.3-0.7l-0.2-0.8c-0.1-0.2-0.2-0.5-0.2-0.7
		c0-0.3-0.1-0.6-0.2-0.9c-0.1-0.3-0.2-0.5-0.3-0.8c-0.1-0.2-0.1-0.3-0.1-0.5L12.4,33l-0.2-0.4l0-0.1l-0.1-0.2c0,0,0-0.1,0-0.1
		l-0.2-0.4c-0.1-0.3-0.2-0.6,0.2-0.7c0.2-0.1,0.5,0,0.7,0l1.2,0c0.1,0,0.1,0,0.2,0.1l0.1,0c0.1,0,0.2,0,0.2,0c0.1,0,0.3,0,0.4,0
		c0.3,0.1,0.5,0.5,0.6,0.8l0.2,0.9c0.1,0.3,0.1,0.5,0.2,0.8c0.1,0.3,0.2,0.5,0.2,0.8c0,0.3,0.1,0.6,0.1,0.8c0.1,0.6,0.2,1.1,0.4,1.7
		c0.2,0.6,0.4,1.1,0.6,1.7c0.1,0.3,0.2,0.6,0.3,0.9c0.1,0.3,0.2,0.5,0.3,0.8c0.2,0.5,0.2,1.1,0.5,1.6c0.2,0.5,0.4,1.1,0.6,1.6
		c0.1,0.3,0.2,0.6,0.2,0.9l0,0.5l0.1,0.3l0.1-0.2l0-0.2c0-0.1,0-0.2,0.1-0.3c0,0.1,0.1-0.2,0.1-0.2l0-0.1l0-0.2
		c0,0.1,0.1-0.1,0.1-0.2l0.1-0.3l0.2-0.4l0,0l0-0.1l0-0.1l0,0l0-0.1l0-0.1l0.1-0.4c0.1-0.4,0.3-0.8,0.4-1.2c0.3-1,0.5-2,0.9-2.9
		c0.1-0.2,0.2-0.5,0.3-0.7c0.1-0.3,0.1-0.6,0.2-0.8c0.2-0.6,0.4-1.1,0.5-1.7c0.1-0.6,0.2-1.2,0.4-1.7c0.1-0.4,0.3-0.9,0.5-1.3
		l0.1-0.5C23.3,31.1,23.4,31,23.5,30.9L23.5,30.9z"/>
	<path class="st1" d="M33.1,30.8c0.5,0,1-0.1,1.5,0.2l0.1,0.1l0.4,0c0.6,0.1,1,0.3,1.5,0.6c0.3,0.3,0.6,0.7,0.8,1
		c0.2,0.4,0.5,0.8,0.6,1.2c0.2,0.5,0.4,1,0.6,1.5c0.2,0.5,0.3,1,0.4,1.6c0.1,0.6,0.1,1.2,0.2,1.8l0,0.1l0,0l0,0.2l0.1,0.4
		c0.1,0.3,0.1,0.6,0.1,1c0,0.6,0,1.2,0,1.7v1c0,0.3,0,0.5,0,0.8l0,1.2l0,0.2c0,1.2,0,2.5,0.1,3.7c0,0.3,0,0.5,0,0.8l0,0.8
		c0,0.6,0,1.2-0.1,1.7c0,0.3-0.1,0.6-0.1,0.9c-0.1,0.3-0.2,0.5-0.2,0.8c0,0.1,0,0.3-0.1,0.5c0,0.1-0.1,0.2-0.1,0.3
		c0,0.3-0.2,0.5-0.3,0.7c-0.2,0.2-0.3,0.4-0.5,0.6l-0.1,0c-0.2,0.2-0.3,0.4-0.6,0.6c-0.2,0.2-0.3,0.3-0.5,0.4l-0.1,0.1l-0.1,0.1
		c-0.3,0.2-0.6,0.3-0.9,0.4h0l-0.2,0.1l-0.5,0.2c-0.3,0.2-0.7,0.2-1,0.2c-0.4,0-0.7,0-1.1-0.1l-0.7-0.1c0,0-0.3,0,0,0
		c-0.6-0.1-1.3-0.2-1.8-0.5l-0.3-0.2c-0.1,0-0.2-0.1-0.2-0.2c-0.2-0.2-0.4-0.4-0.5-0.6c-0.3-0.4-0.6-0.8-0.7-1.3
		c-0.1-0.3-0.2-0.5-0.3-0.8c-0.1-0.3-0.2-0.5-0.2-0.8c0-0.3,0-0.5-0.1-0.8c0-0.2-0.1-0.5-0.1-0.7c0-0.1,0-0.3,0-0.4v-0.4
		c0-0.3,0-0.6,0-0.8c0-0.1,0-0.3,0-0.4l-0.1-0.4c0-0.3,0-0.6,0-0.9c0-0.6,0-1.2,0-1.8c0-0.3-0.1-0.6-0.1-0.9l0-0.9l0-1
		c0-0.3,0-0.5,0-0.8c0-0.6,0-1.1,0.1-1.7c0-0.1,0-0.3,0-0.4l0.1-0.2l0.1-0.2c0-0.1,0-0.2,0-0.2c0-0.2,0-0.3,0-0.5l0-0.5
		c0-0.2,0-0.4,0.1-0.5l0.1-0.5c0-0.1,0.1-0.3,0.1-0.5c0-0.4,0.1-0.7,0.2-1.1c0-0.4,0.1-0.7,0.2-1.1c0.1-0.2,0.1-0.4,0.2-0.6l0.2-0.5
		l0.2-0.5c0.1-0.1,0.2-0.2,0.2-0.4c0.1-0.5,0.3-0.9,0.6-1.3c0.4-0.5,0.8-0.9,1.3-1.2c0.3-0.2,0.5-0.3,0.9-0.5
		C32.5,30.8,32.8,30.8,33.1,30.8L33.1,30.8z M33.2,34l-0.4,0.2l-0.1,0.1l-0.1,0.1l-0.4,0.4l0,0.1l0,0.1l-0.3,0.8
		c-0.1,0.3-0.2,0.6-0.3,0.9l-0.1,0.8l-0.2,0.9l-0.1,0.4l0,0.1l0,0.1c-0.1,0.6-0.1,1.2-0.2,1.8c0,0.6,0,1.2-0.1,1.7
		c-0.1,1.2-0.1,2.4,0,3.7c0.1,1.2,0,2.4,0,3.7c0,0.6,0,1.2,0.1,1.8l0,0.3l0,0.1l0,0.3l0.2,0.8c0.1,0.3,0.1,0.5,0.2,0.8l0,0.1
		l0.1,0.3l0.1,0.1l0.1,0.1l0.3,0.3l0.4,0.4l0.1,0.1l0.1,0l0.2,0l0.4,0l0.2,0c0.3,0,0.6-0.1,0.9-0.2L35,55l0.1,0l0.1-0.1l0.1-0.1
		l0.2-0.2l0.3-0.3l0.1-0.1c0.1-0.2,0.2-0.3,0.3-0.5l0.1-0.1l0,0l0.1-0.3l0.1-0.3l0-0.1l0-0.1c0.1-0.5,0.1-1,0.1-1.5
		c0-0.5,0.1-1,0.1-1.5l0.1-0.7l0-0.7c0-0.6,0-1.1,0-1.7c0-0.3,0-0.6,0-0.9l0-0.1l0,0c0-0.2-0.1-0.4-0.1-0.6c0-0.6-0.1-1.2,0-1.8
		c0-0.6,0-1.2,0-1.8l0-0.5l0-0.2l0-0.1L36.3,40l0-0.1l0-0.2c-0.1-0.4-0.1-0.9-0.2-1.3c-0.1-0.4-0.2-0.7-0.3-1.1
		c-0.1-0.4-0.1-0.8-0.2-1.1c0-0.2-0.1-0.4-0.2-0.6c-0.1-0.1-0.1-0.3-0.1-0.5l0-0.2L35,34.5l-0.2-0.3L34.6,34L34.5,34l0,0l-0.1,0
		l-0.2-0.1l0,0l-0.2,0l-0.4,0l-0.1,0L33.2,34z"/>
	<path class="st1" d="M45.8,30.5c0.2,0,0.4,0.1,0.6,0.3l0,0.1c0.1,0.1,0.1,0.2,0.1,0.3l-0.1,0.5c0,0.2,0,0.3,0,0.5
		c0,0.4,0,0.8,0,1.2c0,0.4,0,0.8-0.1,1.1c0,0.3,0,0.6,0,1c0,0.2-0.1,0.5-0.1,0.7c0,0.5,0,1,0,1.5l0,0.8c0,0.2,0,0.5,0,0.7
		c0,0.5-0.1,1-0.1,1.6c0,0.3,0,0.6,0,0.8c0,0.3,0.1,0.6,0.1,0.9c0,0.3,0.1,0.5,0.1,0.8c0,0.2,0,0.4,0.1,0.7c0.1,0.6,0,1.2,0,1.8
		l0,0.5c0,0.1,0,0.2,0,0.3c0.1,0.3,0.1,0.5,0.1,0.8l0,0.4c0,0.1,0,0.3,0,0.4c0,0.3,0,0.5,0,0.8l0,1.8l0,1l0.2,0.5
		c0.1,0.3,0.2,0.5,0.3,0.8c0.1,0.2,0.1,0.4,0.2,0.6c0.1,0.2,0.2,0.5,0.4,0.6l0.5,0.5l0.3,0.3l0.3,0.1c0.2,0.1,0.3,0.2,0.5,0.2
		c0.1,0,0.1,0,0.2,0l0.1,0c0.1-0.1,0.3-0.1,0.5-0.1c0.3,0,0.5-0.1,0.7-0.2c0.2-0.1,0.3-0.1,0.5-0.2c0.1-0.2,0.3-0.3,0.3-0.5
		c0-0.2,0.1-0.5,0.1-0.7c0-0.2,0.1-0.4,0.1-0.7c0-0.3,0-0.5,0-0.8l0-0.8c0-0.5,0-1,0.1-1.5c0.1-0.6,0.1-1.2,0.1-1.7
		c0-0.3,0-0.6,0.1-0.8c0-0.3,0-0.6,0-0.9c0-0.6,0-1.2,0-1.8l0-1.8c0-0.3,0-0.6,0-1c0-0.1,0.1-0.2,0.1-0.4l0-0.4
		c0-0.3,0.1-0.6,0.1-0.9l0.1-0.9l0-0.9c0-0.3,0.1-0.5,0.1-0.8c0-0.6,0-1.2,0-1.8c0-0.6,0-1.2,0.1-1.8l0.1-0.9c0-0.1,0-0.2,0.1-0.4
		c0-0.1,0-0.3,0-0.4c0-0.3,0.1-0.6,0.2-0.9c0.1-0.2,0.2-0.4,0.2-0.7c0.1-0.2,0.2-0.2,0.3-0.2c0.3-0.1,0.5-0.1,0.8,0
		c0.3,0,0.5,0,0.8,0l0,0l0.1,0c0.1,0,0.2-0.1,0.4-0.1l0.3,0c0.1,0,0.4,0,0.5,0.2c0.1,0.1,0,0.2-0.1,0.4l0,0l0,0l0,0
		c-0.1,0.4-0.3,0.8-0.3,1.2c0,0.2-0.1,0.4-0.1,0.6l0,0.6c0,0.4,0,0.8,0,1.2l-0.1,1.3c0,0.3,0,0.6,0,0.9c0,0.3,0,0.5,0,0.8
		c0,0.6,0,1.1,0,1.7c0,0.5,0,1.1-0.1,1.6c0,0.6-0.1,1.1-0.2,1.6c0,0.6-0.1,1.2-0.1,1.8c0,0.3,0,0.5,0,0.8c0,0.3,0,0.5,0,0.8
		c0,0.3-0.1,0.5-0.1,0.8c0,0.3,0,0.5,0,0.8c0,0.3-0.1,0.5-0.1,0.8c0,0.2,0,0.5-0.1,0.8c0,0.1-0.1,0.3-0.1,0.4v0.4l0,0.8
		c0,0.6-0.1,1.2-0.2,1.8l-0.1,1c0,0.3-0.1,0.5-0.1,0.8c0,0.2,0,0.3,0,0.4c0,0.1-0.1,0.3-0.1,0.4c-0.1,0.3-0.1,0.5-0.2,0.8
		c-0.2,0.5-0.6,0.9-0.9,1.2c-0.2,0.2-0.4,0.4-0.7,0.5c-0.2,0.1-0.4,0.2-0.7,0.3c-0.3,0.1-0.6,0.2-0.9,0.2h-0.5l-0.7,0
		c-0.1,0-0.3,0-0.4,0c-0.2,0-0.4,0-0.5,0l-0.5-0.1c-0.4,0-0.9-0.1-1.3-0.3c-0.4-0.2-0.7-0.5-1-0.7c-0.3-0.3-0.6-0.6-0.9-0.9
		c-0.3-0.3-0.6-0.6-0.8-0.9c-0.1-0.2-0.2-0.3-0.3-0.5c-0.1-0.2-0.2-0.3-0.3-0.5l-0.2-0.5l-0.1-0.2l-0.1-0.3l0,0l0-0.1l0-0.2
		c0-0.5-0.1-0.9-0.1-1.4c0-0.5,0-1,0-1.4c0-0.3-0.1-0.6-0.2-0.8c-0.1-0.4,0-0.7-0.1-1.1c-0.1-0.7-0.1-1.5-0.1-2.2c0-0.3,0-0.7,0-1
		c0-0.2-0.1-0.4-0.1-0.6l0-0.5c0-0.3-0.1-0.7-0.1-1c0-0.3,0-0.7,0-1c0-0.5,0-1,0-1.5c0-0.2,0.1-0.5,0.1-0.7c0-0.5,0.1-1.1,0.1-1.6
		c0-0.6,0-1.1,0.1-1.7c0.1-0.6,0-1.2,0.1-1.8c0.1-0.6,0.2-1.1,0.2-1.7c0-0.3,0-0.6,0-0.9c0-0.1,0-0.2,0-0.3l0-0.1
		c0,0-0.1-0.1-0.1-0.1c0-0.1,0-0.3,0-0.4c0-0.2,0.1-0.3,0.3-0.2l0.2,0l0.7,0l0.7,0C45.3,30.5,45.5,30.4,45.8,30.5L45.8,30.5z"/>
	<path class="st1" d="M62.1,30.4l0.6,0l0.3,0c0.1,0,0.2,0,0.3,0.1c0.1,0.1,0.1,0.2,0.1,0.3l1.2,0c0.4,0,0.8,0.1,1.3,0.2
		c0.3,0.1,0.6,0.2,0.9,0.3c0.4,0.1,0.8,0.2,1.2,0.4c0.5,0.3,0.9,0.6,1.2,1c0.4,0.5,0.7,1,0.9,1.5c0.2,0.5,0.3,1,0.4,1.6l0.2,0.9
		c0,0.1,0,0.3,0,0.4c0,0.1,0.1,0.3,0.1,0.4c0,0.2,0,0.3,0.1,0.4l0,0.4c0,0.3,0.1,0.6,0.1,0.8c0,0.2,0,0.3-0.1,0.5l0,0.4l0,0.8
		c0,0.3,0,0.6-0.1,0.9c0,0.3-0.1,0.5-0.1,0.8c-0.2,0.5-0.3,1.2-0.7,1.6c-0.2,0.3-0.4,0.5-0.6,0.6c0,0-0.1,0.1-0.1,0L69.1,45
		l-0.3,0.3l-0.7,0.5c-0.2,0.2-0.4,0.3-0.7,0.4l-0.1,0c0.2,0.2,0.4,0.4,0.5,0.6c0.1,0.1,0.2,0.2,0.3,0.4c0.1,0.1,0.2,0.2,0.3,0.3
		c0.2,0.2,0.4,0.4,0.5,0.7c0.1,0.2,0.2,0.5,0.3,0.7c0.1,0.5,0.3,1.1,0.5,1.6c0.1,0.3,0.2,0.5,0.3,0.8c0.1,0.3,0.1,0.5,0.2,0.8
		c0.1,0.6,0.2,1.2,0.3,1.8l0.2,0.9l0.2,0.9l0.2,0.8c0,0.1,0.1,0.3,0.1,0.4l0,0.1c0,0.2,0.1,0.4,0,0.7c-0.1,0.3-0.4,0.5-0.7,0.4h-0.1
		c-0.2,0-0.3,0-0.4,0.1c-0.3,0-0.6,0-0.8,0.1c-0.1,0-0.3,0-0.4,0.1c-0.1,0-0.3,0.1-0.4,0c-0.2-0.1-0.3-0.4-0.3-0.6l0-0.1l0-0.3
		c0,0.1,0-0.1,0-0.1v-0.1l0-0.4c0-0.2-0.1-0.4-0.1-0.6l0-0.1c-0.2-0.5-0.3-1-0.4-1.5c0-0.5-0.2-1-0.3-1.5c-0.2-0.5-0.3-1.1-0.4-1.6
		c-0.1-0.5-0.2-1.1-0.4-1.6c-0.2-0.4-0.3-0.8-0.6-1.2c-0.1-0.2-0.3-0.3-0.5-0.5c-0.2-0.1-0.3-0.3-0.5-0.4c-0.2-0.1-1.2-0.1-1.4-0.1
		l-0.3,0c0,0,0,0-0.1,0.1l0,0.2l0,0.3l0,0.7c0,0.2,0,0.5,0,0.7l0,0.7l0.1,1.5c0,0.5,0,1,0,1.6l0.1,1.4v0.3c0,0,0,0.2,0,0.1
		c0,0.2,0.1,0.4,0.1,0.6c0,0.2,0,0.5,0.1,0.7c0,0.1,0,0.2,0,0.4v0.3c0,0.1,0,0.3,0,0.4c0,0.1,0,0.2,0,0.3c0,0.1-0.1,0.2-0.3,0.2
		c-0.2,0-0.5,0-0.7,0c-0.2,0.1-0.5,0-0.7,0h-0.9c-0.2,0-0.4,0-0.7,0l-0.1,0c-0.1,0-0.2-0.1-0.2-0.2l0-0.1l0-0.1c0-0.1,0-0.1,0-0.3
		c0-0.3,0-0.5,0.1-0.8c0-0.3,0-0.5,0-0.7c0-0.3-0.1-0.5-0.1-0.8c0-0.2,0-0.4,0-0.7c0-0.5,0-0.9,0-1.4c0-0.5,0.1-1,0.1-1.5
		c0-0.3,0.1-0.5,0.1-0.8c0-0.3,0.1-0.5,0.1-0.8l0-0.8l0-0.4l0-0.3c0-0.3,0-0.6-0.1-0.8c0-0.3,0-0.5,0-0.8c0-0.5,0-1.1,0-1.6
		c0-0.3,0-0.6,0-1c0-0.3,0.1-0.6,0.1-0.9c0-0.6,0-1.2,0-1.8V40c0-0.6,0.1-1.2,0.1-1.8l0-0.9c0-0.3,0.1-0.6,0.1-0.9
		c0.1-0.6,0-1.3,0-1.9c0-0.6-0.1-1.2-0.1-1.7l0-0.9c0-0.2,0-0.3,0-0.4c0,0,0-0.1,0-0.1v-0.1l0.1-0.3c0-0.1,0-0.2,0.1-0.2
		c0.1-0.1,0.3-0.2,0.4-0.2C61.2,30.5,61.7,30.5,62.1,30.4L62.1,30.4z M63.5,33.6L63.5,33.6c0,0.3,0,0.6,0,0.8c0,0.5-0.1,1-0.2,1.5
		c0,0.3,0,0.5,0,0.8l-0.1,0.8c0,0.2-0.1,0.5-0.1,0.7c0,0.3,0,0.5-0.1,0.8c0,0.2,0,0.5-0.1,0.7c0,0.2,0,0.5,0,0.7l0,1.6
		c0,0.5,0,1,0,1.6c0,0.2,0,0.5,0.1,0.7l0.1,0.4l0.1,0l0.2,0.1l1.2-0.1l0.3,0l0.4-0.2c0.3-0.2,0.6-0.5,0.9-0.7l0.5-0.3
		c0.2-0.1,0.3-0.3,0.4-0.4c0.1-0.1,0.3-0.2,0.4-0.4l0.1-0.1l0.1-0.5c0-0.1,0-0.3,0-0.4c0-0.1,0-0.2,0-0.3l0.1-0.7
		c0.1-0.5,0.1-1.1,0.1-1.6c0-0.5,0-1.1-0.1-1.6c-0.1-0.5-0.2-1.1-0.4-1.6c-0.2-0.4-0.4-0.8-0.7-1.1c-0.3-0.3-0.7-0.5-1.2-0.7
		C65.1,33.8,63.9,33.7,63.5,33.6z"/>
	<g>
		<path class="st2" d="M88.3,2.9c0.2,0,0.4,0.1,0.6,0.2l1,0.4l0.5,0.3l0.5,0.2c0.4,0.2,1.2,0.3,1.4,0.7c0.1,0,0.3,0.1,0.1,0.1
			c0.2,0,0.3,0.1,0.4,0.3c0.2,0.4-0.3,0.6-0.4,0.9L92.3,6C92.1,6.4,92,6.9,92,7.3l0,0.2l0,0.1l-0.1,0.5l-0.1,1.2v0.2
			c0.1,0.3,0.2,0.7,0.3,1c0.2,1.5,0.2,3,0.3,4.5c0.1,1.6-0.1,3.2-0.1,4.8c-0.1,1.5,0.1,3,0.2,4.5c0.1,1.2,0,2.3,0.1,3.5
			c0,0.6,0,1.1,0,1.7c0,0.5-0.2,1.1-0.2,1.6c-0.1,0.6-0.1,1.1-0.1,1.7l0.1,1.5l0,1.3c0,2.1,0,4.1,0,6.2c0.2,1.1,0.4,2.2,0.3,3.3
			c-0.1,0.6-0.1,1.2-0.2,1.7c-0.1,0.5-0.3,0.9-0.3,1.4c-0.1,0.5,0,1-0.1,1.5c-0.1,0.5-0.3,1-0.4,1.5c-0.1,0.5-0.3,1-0.5,1.5
			c-0.2,0.5-0.5,0.9-0.8,1.3c-0.4,0.5-0.9,0.8-1.5,1l-0.9,0.4h-0.1L87,55.8c-1.1,0.2-2.1,0.1-3.3-0.1c-0.6,0-1.2,0-1.8-0.1
			c-0.6-0.1-1.1-0.4-1.6-0.7c-0.5-0.3-0.9-0.5-1.3-0.9c-0.4-0.4-0.7-0.8-1-1.3c-0.2-0.3-0.3-0.5-0.4-0.8c-0.1-0.2-0.1-0.5-0.2-0.7
			c-0.3-0.5-0.5-1-0.6-1.5c-0.1-0.5-0.1-1.1-0.2-1.6l-0.1-0.3L76.5,47c-0.1-0.6-0.2-1.3-0.2-1.9c0-1-0.3-2-0.1-3
			c-0.1-0.2-0.1-0.4-0.1-0.6c0-0.5-0.1-1-0.1-1.5c0-0.6,0.1-1.1,0.2-1.7c0.1-0.6,0-1.3,0.1-1.9c0-0.1,0.1-0.2,0.1-0.3
			c0-0.1,0.1-0.2,0.3-0.2c0.7-0.1,1.4,0,2.1,0.2l1.8-0.1h0.5l0.3,0l0.1,0l0.1,0.1c0.1,0.1,0.3,0.2,0.3,0.4l0.1,0.1l0,0.2V37l0.1,0.2
			c0,0.5,0,1,0,1.5c0,0.2,0,0.5,0.1,0.7c0.1,0.3,0.1,0.5,0.1,0.8c0,0.5,0,0.9,0,1.4c-0.1,0.5,0,1,0,1.5l0,0.2l0.1,1.2l0,0.3v0.3v0.5
			v0.9c0,0.6,0,1.1,0.1,1.5c0.1,0.5,0.1,0.8,0.3,1.2c0.1,0.3,0.3,0.6,0.4,0.8l0.2,0.2l0.1,0.1l0.1,0.1l0.2,0.1l0.3,0l0.2,0l0.3-0.1
			l0.7-0.1l0.5-0.1l0.3-0.1l0-0.1l0.2-0.4c0.1-0.3,0.2-0.7,0.2-1.1c0.1-0.8,0.2-1.7,0.2-2.7l0.1-0.8l0-0.4l0-0.1l0-0.1l0-0.1l0-0.1
			c0-0.3,0-0.6,0-0.9c0-0.5,0-0.9-0.1-1.4v-0.9l-0.1-0.6l0-1.7c0-1.1,0.1-2.3,0.1-3.4c0-1.1,0-2.2,0-3.3c0-1.2-0.1-2.3-0.1-3.5
			c0-1.2-0.1-2.3,0-3.5c0-1.1,0.1-2.3,0-3.4c0-1.1-0.1-2.3,0-3.4c0.1-0.6,0.2-1.2,0.2-1.8l0-0.2l0-0.7l0-1.4v-0.4v-0.2l0-0.1
			l-0.3-1.9c-0.1-0.6-0.1-1.2-0.1-1.7c0-0.5-0.1-1-0.2-1.5c0-0.7,0-1.4,0-2V6.1l0.1-1.4l0-0.1l0-0.1c0-0.3,0.1-0.5,0.2-0.7
			c0.1-0.1,0.1-0.3,0.2-0.4l0.3-0.3C87.4,3,87.7,2.8,88,2.9L88.3,2.9L88.3,2.9z"/>
		<path class="st2" d="M109.2,4.1c1,0,2-0.1,2.9,0.4l0.2,0.1l0.7,0c1.1,0.1,2,0.5,2.8,1.2c0.6,0.6,1.1,1.3,1.5,2
			c0.4,0.7,0.9,1.5,1.2,2.3c0.4,1,0.8,2,1.1,2.9c0.4,1,0.6,1.9,0.8,3c0.2,1.1,0.2,2.3,0.3,3.4l0,0.1l0,0.1l0.1,0.4l0.1,0.7
			c0.1,0.6,0.2,1.2,0.2,1.8c0,1.1,0,2.2,0,3.3v2c0,0.5,0,1,0,1.5l0,2.3l0,0.4c0.1,2.4,0.1,4.7,0.1,7.1c0,0.5-0.1,1-0.1,1.6l0,1.6
			c0,1.1,0,2.2-0.2,3.3c-0.1,0.6-0.1,1.2-0.3,1.7c-0.1,0.5-0.3,1-0.4,1.6c0,0.3-0.1,0.6-0.1,0.9c0,0.2-0.1,0.3-0.2,0.5
			c-0.1,0.5-0.3,0.9-0.6,1.3c-0.3,0.4-0.6,0.8-1,1.2l-0.1,0.1c-0.3,0.4-0.7,0.7-1.1,1.1c-0.3,0.3-0.6,0.6-1,0.8l-0.3,0.1l-0.2,0.1
			c-0.5,0.3-1.1,0.5-1.6,0.7h-0.1l-0.3,0.1l-1,0.4c-0.6,0.3-1.2,0.4-1.9,0.4c-0.7,0-1.4-0.1-2.1-0.2l-1.2-0.1
			c-0.1-0.1-0.5-0.1-0.1-0.1c-1.1-0.1-2.4-0.4-3.4-1l-0.5-0.4c-0.2-0.1-0.3-0.2-0.4-0.3c-0.3-0.4-0.7-0.7-1-1.1
			c-0.6-0.8-1.1-1.5-1.4-2.5c-0.2-0.5-0.3-1-0.5-1.5c-0.2-0.5-0.3-1-0.4-1.6c-0.1-0.5-0.1-1-0.2-1.5c-0.1-0.5-0.3-0.9-0.3-1.4
			c0-0.3-0.1-0.5-0.1-0.8v-0.8c0-0.5,0-1.1,0-1.6c0-0.2,0-0.5-0.1-0.7L99.2,40c-0.1-0.6,0-1.1,0-1.7c0-1.1,0-2.3,0-3.4
			c0-0.6-0.2-1.1-0.2-1.7l0-1.7l0-1.9c0-0.5,0.1-1,0.1-1.5c0.1-1.1,0-2.1,0.1-3.2c0-0.3,0-0.5,0.1-0.8l0.2-0.3l0.1-0.3
			c0-0.1,0-0.3,0-0.5c0-0.3,0-0.7,0-1l0.1-0.9c0-0.3,0.1-0.7,0.1-1l0.2-1c0-0.3,0.1-0.6,0.1-0.9c0-0.7,0.3-1.4,0.3-2.2
			c0.1-0.7,0.2-1.4,0.4-2.1c0.1-0.4,0.2-0.8,0.3-1.2l0.4-1l0.4-1c0.1-0.3,0.3-0.5,0.4-0.7c0.2-0.9,0.5-1.8,1.1-2.5
			c0.7-1,1.5-1.7,2.5-2.3c0.5-0.3,1-0.7,1.6-0.9C108,4.2,108.6,4.1,109.2,4.1L109.2,4.1z M109.4,10.1l-0.7,0.4l-0.3,0.2l-0.2,0.2
			l-0.8,0.8l-0.1,0.2l-0.1,0.2l-0.5,1.5c-0.2,0.5-0.4,1.1-0.5,1.7l-0.3,1.6l-0.3,1.7l-0.1,0.8l0,0.2l0,0.2c-0.1,1.2-0.2,2.3-0.3,3.5
			c0,1.1-0.1,2.2-0.2,3.3c-0.2,2.3-0.3,4.7-0.1,7c0.2,2.3,0,4.6,0,7c0,1.1,0,2.3,0.1,3.4l0.1,0.5l0,0.2l0.1,0.6l0.3,1.6
			c0.1,0.5,0.2,1,0.4,1.5l0.1,0.3l0.3,0.5l0.2,0.3l0.3,0.3l0.5,0.5l0.8,0.7l0.3,0.2l0.1,0l0.3,0l0.8,0l0.4-0.1
			c0.6-0.1,1.1-0.3,1.7-0.5l0.7-0.3l0.2-0.1l0.1-0.1l0.2-0.2l0.4-0.4l0.5-0.5l0.1-0.2c0.2-0.3,0.4-0.7,0.6-1l0.1-0.2l0-0.1l0.2-0.6
			l0.1-0.6l0-0.1l0-0.3c0.1-1,0.2-2,0.3-2.9c0.1-1,0.1-2,0.2-2.9l0.1-1.2l-0.1-1.3c0-1.1,0-2.1,0-3.2c0-0.6,0-1.1,0-1.7l0-0.3l0-0.1
			c0-0.4-0.1-0.8-0.1-1.1c0-1.1-0.1-2.3-0.1-3.4c0-1.2,0-2.3,0-3.5l-0.1-1l0-0.3l0-0.2l-0.2-1.2l0-0.1l0-0.3
			c-0.1-0.8-0.3-1.6-0.5-2.5c-0.2-0.7-0.5-1.4-0.6-2.1c-0.1-0.7-0.2-1.5-0.4-2.2c-0.1-0.4-0.2-0.8-0.3-1.1c-0.1-0.3-0.1-0.6-0.2-0.9
			l-0.1-0.4l-0.5-0.9l-0.4-0.6l-0.4-0.3l-0.2-0.1l-0.1,0l-0.1,0L111,10l-0.1,0l-0.4,0l-0.7,0l-0.2,0L109.4,10.1z"/>
		<path class="st2" d="M133.2,3.5c0.3,0,0.8,0.2,1,0.5l0.1,0.1c0.2,0.1,0.3,0.3,0.2,0.6l-0.3,1c-0.1,0.3,0,0.6,0,1
			c0,0.8,0,1.5,0,2.3c-0.1,0.7-0.1,1.4-0.2,2.2c-0.1,0.6,0,1.2,0,1.8c0,0.5-0.1,0.9-0.2,1.4c0,1,0,1.9,0,2.9l0,1.5
			c0,0.5-0.1,0.9-0.1,1.4c0,1-0.1,2-0.1,3c0,0.5,0,1.1,0,1.6c0.1,0.6,0.2,1.1,0.2,1.7c0,0.5,0.1,1,0.2,1.5c0.1,0.4,0,0.8,0.1,1.2
			c0.2,1.1,0,2.3,0,3.5l0,0.9c0,0.2-0.1,0.4,0,0.6c0.1,0.5,0.1,0.9,0.2,1.4l0.1,0.8c0,0.3,0,0.5,0,0.8c0.1,0.5,0.1,1,0.1,1.6l0,3.4
			l0,1.9l0.4,1c0.2,0.5,0.4,0.9,0.6,1.4c0.1,0.4,0.3,0.8,0.4,1.2c0.2,0.4,0.4,0.9,0.7,1.2l1,1l0.6,0.6l0.6,0.3
			c0.3,0.2,0.7,0.3,1,0.5c0.1,0,0.2,0,0.4,0l0.2,0.1c0.3-0.1,0.6-0.1,0.9-0.1c0.5,0,0.9-0.1,1.3-0.3c0.4-0.1,0.6-0.2,0.9-0.4
			c0.3-0.3,0.5-0.5,0.6-0.9c0.1-0.5,0.3-0.9,0.3-1.4c0-0.5,0.1-0.8,0.1-1.3c0-0.5,0.1-1,0.1-1.5l0-1.6c0-1,0.1-1.9,0.2-2.9
			c0.1-1.1,0.1-2.2,0.2-3.3c0-0.5,0.1-1.1,0.1-1.6c0-0.6,0-1.1,0-1.7c0-1.1-0.1-2.3-0.1-3.4l0-3.5c0-0.6,0-1.2,0.1-1.9
			c0-0.2,0.1-0.5,0.1-0.7l0-0.7c0.1-0.6,0.2-1.2,0.3-1.7l0.2-1.7l0.1-1.8c0-0.5,0.1-1,0.1-1.5c0-1.1,0-2.3,0-3.4
			c0-1.1,0-2.3,0.1-3.4l0.1-1.6c0-0.2,0.1-0.5,0.1-0.7c0-0.3,0-0.5,0-0.8c0.1-0.6,0.1-1.2,0.3-1.7c0.1-0.4,0.3-0.8,0.5-1.3
			c0.1-0.3,0.4-0.4,0.7-0.3c0.5-0.1,0.9-0.1,1.4-0.1c0.5,0,1,0,1.5,0l0.1,0l0.3,0c0.2,0,0.5-0.1,0.7-0.1l0.6,0
			c0.3,0,0.7,0.1,0.9,0.4c0.1,0.2-0.1,0.5-0.2,0.7l0,0.1l0,0.1l0,0.1c-0.2,0.7-0.5,1.5-0.6,2.3c0,0.4-0.1,0.8-0.1,1.2l0.1,1.2
			c0,0.8,0,1.5-0.1,2.3l-0.2,2.4c0,0.6,0,1.1,0,1.7c0,0.5-0.1,1-0.1,1.5c0,1.1,0.1,2.2,0.1,3.2c0,1-0.1,2-0.1,3.1
			c-0.1,1.1-0.3,2.1-0.3,3.1c-0.1,1.1-0.2,2.2-0.2,3.4c0,0.5-0.1,1-0.1,1.5c0,0.5,0,1,0,1.6c-0.1,0.5-0.1,1-0.1,1.5c0,0.5,0,1,0,1.5
			c-0.1,0.5-0.2,1-0.2,1.6c0,0.5,0,1-0.1,1.4c0,0.3-0.1,0.5-0.1,0.8V41l0,1.6c0,1.1-0.2,2.3-0.3,3.4l-0.2,1.8
			c-0.1,0.5-0.1,1-0.1,1.4c0,0.3-0.1,0.5-0.1,0.8c0,0.3-0.1,0.6-0.2,0.8c-0.1,0.5-0.1,1-0.3,1.5c-0.4,0.9-1.1,1.6-1.8,2.2
			c-0.4,0.4-0.8,0.7-1.3,1c-0.4,0.2-0.9,0.4-1.3,0.5c-0.6,0.1-1.1,0.3-1.6,0.3h-0.9l-1.3-0.1c-0.3,0.1-0.5,0.1-0.8,0.1
			c-0.3,0-0.7,0-1-0.1l-1-0.1c-0.9-0.1-1.7-0.2-2.5-0.6c-0.7-0.3-1.4-0.9-1.9-1.4c-0.6-0.5-1.2-1.1-1.8-1.7
			c-0.6-0.6-1.1-1.1-1.5-1.8c-0.2-0.3-0.4-0.6-0.6-1c-0.2-0.3-0.4-0.7-0.5-1l-0.3-1l-0.1-0.5l-0.1-0.6l0-0.1l0-0.2l0-0.3
			c0-0.9-0.2-1.8-0.2-2.7c0-0.9-0.1-1.8-0.1-2.7c-0.1-0.5-0.3-1.1-0.3-1.6c-0.1-0.7-0.1-1.4-0.2-2.1c-0.3-1.4-0.2-2.8-0.2-4.2
			c0-0.7,0.1-1.3,0-2c0-0.4-0.1-0.7-0.2-1.1l-0.1-1c-0.1-0.6-0.2-1.3-0.3-1.9c0-0.6,0-1.2,0-1.9c0-1-0.1-1.9-0.1-2.9
			c0-0.5,0.1-0.9,0.1-1.4c0.1-1,0.2-2,0.2-3c0-1.1,0-2.2,0.1-3.3c0.1-1.2,0.1-2.3,0.2-3.5c0.1-1.1,0.3-2.2,0.4-3.3
			c0-0.6-0.1-1.1-0.1-1.7c0-0.2,0-0.5,0-0.6L128.4,5c-0.1-0.1-0.1-0.1-0.2-0.2c0-0.3,0-0.5,0-0.7c0-0.3,0.3-0.5,0.6-0.4l0.3,0l1.3,0
			l1.4-0.1C132.3,3.5,132.8,3.4,133.2,3.5L133.2,3.5z"/>
		<path class="st2" d="M164.2,3.4l1.2,0l0.5,0c0.2,0,0.4,0,0.5,0.2c0.1,0.1,0.2,0.3,0.2,0.5l2.3,0c0.8,0,1.6,0.2,2.4,0.4
			c0.6,0.2,1.2,0.4,1.8,0.6c0.8,0.1,1.5,0.3,2.2,0.7c0.9,0.5,1.7,1.1,2.3,1.9c0.7,0.9,1.3,1.9,1.7,2.9c0.4,1,0.6,2,0.8,3l0.3,1.7
			c0.1,0.3,0,0.5,0.1,0.8c0,0.3,0.1,0.5,0.1,0.8c0,0.3,0.1,0.5,0.1,0.8l0.1,0.8c0.1,0.5,0.1,1.1,0.1,1.6c0,0.3-0.1,0.6-0.1,0.9
			l0,0.8l-0.1,1.5c0,0.6-0.1,1.1-0.1,1.7c-0.1,0.5-0.1,1-0.3,1.5c-0.3,1-0.6,2.2-1.3,3.1c-0.4,0.5-0.7,0.9-1.2,1.2
			c0,0-0.2,0.2-0.1,0.1l-0.3,0.3l-0.6,0.5l-1.4,1c-0.4,0.3-0.8,0.6-1.3,0.8l-0.3,0.1c0.4,0.3,0.7,0.7,1,1.1c0.2,0.2,0.4,0.5,0.6,0.7
			c0.2,0.2,0.4,0.4,0.5,0.6c0.3,0.4,0.7,0.8,0.9,1.3c0.2,0.4,0.4,0.9,0.6,1.4c0.2,1,0.5,2.1,0.9,3c0.2,0.5,0.4,1,0.6,1.5
			c0.1,0.5,0.2,1,0.3,1.5c0.2,1.1,0.4,2.3,0.6,3.4l0.4,1.8l0.3,1.7l0.3,1.6c0.1,0.3,0.1,0.5,0.1,0.9l0,0.1c0.1,0.4,0.1,0.8,0,1.3
			c-0.1,0.5-0.7,0.9-1.3,0.8h-0.2c-0.3,0-0.6,0.1-0.8,0.1c-0.5,0.1-1.1,0.1-1.6,0.2c-0.3,0.1-0.6,0.1-0.8,0.2
			c-0.3,0.1-0.5,0.1-0.8,0.1c-0.4-0.1-0.6-0.8-0.6-1.2l0-0.1l0-0.6c0,0.3,0-0.2,0-0.2v-0.3l0-0.7c0-0.4-0.1-0.8-0.1-1.2l0-0.2
			c-0.3-1-0.6-1.9-0.7-2.9c-0.1-1-0.3-2-0.7-2.9c-0.3-1-0.5-2-0.7-3.1c-0.2-1-0.3-2-0.7-3c-0.3-0.8-0.6-1.6-1.1-2.3
			c-0.2-0.4-0.5-0.6-0.9-0.9c-0.3-0.3-0.7-0.6-1-0.8c-0.4-0.2-2.2-0.3-2.6-0.2l-0.6,0c0,0-0.1,0-0.1,0.1l0,0.3l0,0.6l0,1.4
			c0,0.4,0.1,0.9,0.1,1.3l0,1.4l0.1,2.9c0,1,0,2,0,3l0.2,2.7v0.6c0,0.1,0,0.4,0,0.1c0.1,0.4,0.1,0.8,0.1,1.2c0,0.5,0.1,0.9,0.1,1.4
			c0,0.2,0,0.5,0,0.7v0.5c0,0.3,0,0.5,0,0.8c0,0.2,0.1,0.4,0,0.6c0,0.2-0.3,0.4-0.5,0.4c-0.5,0-0.9,0-1.4,0.1
			c-0.4,0.1-0.9,0.1-1.3,0.1h-1.6c-0.4,0-0.9,0.1-1.3,0.1l-0.2-0.1c-0.2,0-0.5-0.1-0.5-0.4l0-0.1l0-0.2c0-0.1,0-0.2,0-0.5
			c0-0.5,0.1-1,0.1-1.5c0-0.5,0-0.9,0-1.4c0-0.5-0.1-1-0.1-1.5c0-0.4-0.1-0.8-0.1-1.2c0-0.9,0-1.8,0-2.6c0-1,0.2-1.9,0.2-2.9
			c0-0.5,0.1-1,0.2-1.5c0-0.5,0.1-1,0.2-1.5l0.1-1.5l0-0.8l-0.1-0.5c-0.1-0.5-0.1-1.1-0.1-1.6c0-0.5-0.1-0.9-0.1-1.4
			c0-1,0-2.1-0.1-3.1c0-0.6,0-1.2,0-1.8c0-0.6,0.2-1.1,0.2-1.7c0.1-1.2,0-2.3-0.1-3.5v-3.4c0-1.1,0.1-2.2,0.2-3.3l0.1-1.8
			c0-0.6,0.2-1.1,0.2-1.7c0.1-1.2,0.1-2.4,0-3.5c-0.1-1.1-0.2-2.2-0.1-3.3l0.1-1.6c0-0.3,0-0.6,0.1-0.8c0-0.1-0.1-0.2,0-0.3V5
			l0.1-0.5c0-0.2,0-0.3,0.1-0.4c0.2-0.3,0.5-0.3,0.8-0.4C162.6,3.5,163.4,3.4,164.2,3.4L164.2,3.4z M166.9,9.4l0,0.1
			c0.1,0.5,0,1,0,1.5c0,0.9-0.2,1.8-0.4,2.8c-0.1,0.5,0,1-0.1,1.5l-0.1,1.5c-0.1,0.5-0.1,0.9-0.1,1.4c0,0.5-0.1,1-0.1,1.5
			c-0.1,0.5,0,0.9-0.1,1.4c-0.1,0.4,0,0.9,0,1.3l0,3c0,1,0,2,0,3c0,0.5,0.1,0.9,0.2,1.4l0.1,0.7l0.1,0l0.5,0.2l2.2-0.1l0.5-0.1
			l0.7-0.5c0.6-0.4,1.1-0.9,1.7-1.3l1-0.6c0.3-0.2,0.5-0.5,0.7-0.8c0.2-0.3,0.5-0.5,0.8-0.7l0.2-0.1l0.2-0.9c0.1-0.2,0-0.5,0-0.8
			c0-0.2,0-0.4,0-0.6l0.1-1.4c0.1-1,0.1-2.1,0.1-3.1c0-1,0-2-0.2-3c-0.2-1-0.4-2.1-0.8-3c-0.3-0.7-0.7-1.6-1.3-2.2
			c-0.6-0.6-1.3-1-2.2-1.2C169.9,9.8,167.6,9.6,166.9,9.4z"/>
		<path class="st2" d="M209.7,4.2c0.4,0,0.8,0,1.2,0c0.4,0,0.9,0.1,1.3,0.1c0.4,0.1,0.7,0.1,1.1,0.1c0.3,0,0.5,0.2,0.5,0.5
			c0,0.2-0.1,0.4-0.2,0.7c-0.1,0.2-0.1,0.3-0.1,0.5c0,0.2,0,0.4-0.1,0.6l-0.1,0.8c0,0.5,0,0.9-0.1,1.4l-0.5,2.8
			c-0.2,0.9-0.2,1.8-0.3,2.8c-0.1,0.5-0.2,0.9-0.2,1.4c0,0.4,0,0.8-0.1,1.2c-0.1,0.8,0,1.7-0.1,2.5c-0.1,0.5-0.2,1-0.3,1.4l-0.1,0.6
			c0,0.2-0.1,0.4-0.1,0.6c0,0.3-0.1,0.6-0.2,0.8c-0.1,0.2-0.1,0.4-0.1,0.5c-0.1,0.4-0.1,0.8-0.1,1.2c0,0.4-0.1,0.9-0.2,1.3
			c0,0.4-0.1,0.8-0.3,1.2c-0.1,0.4,0,0.8,0,1.2c0,0.2-0.1,0.5-0.1,0.8l-0.1,0.7c0,0.5,0,1-0.1,1.5l-0.2,1.7c-0.1,0.5-0.2,1-0.2,1.6
			c0,0.6,0,1.2-0.1,1.8l0.1,1.4l0,1.4c0,0.5,0,0.9-0.2,1.5c-0.2,0.9,0,1.8-0.1,2.6c-0.1,0.9-0.1,1.9-0.2,2.8c0,0.4,0,0.7,0,1.1
			l0,0.9c0,0.6-0.1,1.1,0,1.7c0,0.1,0,0.3-0.1,0.4c0.1,0.9,0.2,1.9,0.1,3l0,0.5l0,0.2v0.5c0,0.4-0.2,0.8-0.7,0.9l-0.5,0.1l-0.7,0.1
			l-1.2,0.1l-0.9-0.1h-0.3c-0.3,0.1-0.6,0.1-0.9,0.1l-0.2-0.1c-0.3,0-0.6-0.1-0.8-0.3c-0.2-0.3-0.3-0.6-0.3-0.9
			c-0.1-0.2-0.2-0.5-0.2-0.7c0-0.1-0.1-0.4-0.2-0.5l-0.2-0.7c-0.3-0.8-0.6-1.5-0.9-2.2c-0.4-0.8-0.7-1.7-1-2.5c-0.4-1-0.8-2-1.1-3.1
			c-0.3-1.1-0.6-2.2-1-3.2c-0.3-0.5-0.5-1.1-0.7-1.7c-0.1-0.5-0.2-1-0.4-1.5c-0.2-0.6-0.4-1.1-0.6-1.6c-0.2-0.5-0.5-0.9-0.6-1.4
			l-1-3.1l-0.5-1.7c-0.2-0.5-0.3-1.1-0.5-1.6c-0.2-0.6-0.3-1.1-0.4-1.7c-0.1-0.5-0.2-1.1-0.2-1.6c-0.1-0.5-0.2-0.8-0.4-1.3v0.4v2.7
			l0.2,1.3c0.1,1.1,0.2,2.3,0.2,3.4c0,0.6,0.1,1.2,0.1,1.8c0,0.5,0,1.1,0,1.6l-0.1,1.6c0,0.5,0,1,0,1.6c0,0.6-0.1,1.1-0.1,1.7
			l0.1,1.5c0,0.6,0,1.2,0,1.7l-0.1,0.8c0,0.2,0,0.5,0,0.7c0,1.1,0,2.2-0.1,3.3c-0.1,0.5-0.2,1.1-0.1,1.6c0,0.5,0,1,0,1.5
			c0,0.5,0,1.1-0.2,1.6c0,0.1,0,0.3,0,0.5l-0.1,0.6c0,0.1,0,0.3-0.1,0.4c0,0.2-0.2,0.4-0.4,0.4c-0.3,0.1-0.7,0.1-1,0.1l-1.2-0.1
			c-0.6,0-1.2,0.1-1.8,0.1h-1.1c-0.2-0.1-0.4-0.2-0.5-0.4c-0.1-0.2,0.1-0.5,0.1-0.8l0-0.5c0-0.8,0.3-1.6,0.5-2.4
			c0.2-0.7,0.2-1.5,0.2-2.2c0-0.8,0-1.6,0.1-2.5c0.1-0.8,0.1-1.6,0.1-2.4c0-1.7,0.2-3.3,0.1-5c0-0.8,0.1-1.6,0.1-2.4l0.1-1.2
			c0-0.2,0-0.4,0-0.6c0-0.6,0-1.3-0.1-1.9c-0.2-0.9,0-1.9,0-2.9c0-0.3,0-0.6,0-0.9c0-0.3,0-0.5,0-0.8c0-0.5,0-1,0.1-1.5
			c0.1-0.6,0.1-1.1,0.1-1.7c0-0.5,0-1,0-1.5l-0.2-3c0-1.1-0.1-2.2-0.3-3.4c-0.3-2.2-0.3-4.4-0.4-6.7c0-1.1,0-2.3-0.1-3.4
			c0-0.4,0-0.8,0-1.2l0-0.2l0-0.1c0-0.4-0.1-0.8,0.1-1.1c0.2-0.3,0.6-0.3,0.9-0.3l1.2-0.1l1.2-0.1c0.4,0,0.7-0.2,1.1-0.1
			c0.4,0.1,0.5,0.6,0.5,1c0,0.2,0,0.5-0.1,0.8l0,0.2l0.1,0.6l0.2,0.1c0.2-0.1,0.4-0.1,0.6,0.1c0.1,0.2,0.1,0.4,0.2,0.7l0.3,0.7
			c0.2,0.5,0.4,1,0.6,1.4c0.2,0.5,0.3,1,0.5,1.5l0.2,0.6l0.1,0.2l0.2,0.6c0.2,0.6,0.4,1.2,0.5,1.7l0.5,1.4c0.4,1,0.6,2.1,1,3.2
			c0.8,2.1,1.5,4.2,2,6.3c0.2,1.1,0.4,2.2,0.6,3.2c0.3,1.1,0.8,2,1.1,3.1c0.2,0.7,0.4,1.5,0.7,2.2l0.6,1.5l0.3,1l0.1,0.4l0.1,0.2
			c0.1,0.3,0.3,0.6,0.3,0.9l0,0.2l0.3,1c0.3,1.2,0.6,2.3,1,3.3l0.2,0.6v-0.1v-0.1v-0.1l0.1-1.5l0.1-1.5l0-0.5c0-0.7-0.1-1.5,0-2.2
			l0.2-1c0.1-0.4,0.1-0.7,0.1-1.1c0-0.7,0-1.4,0-2.2c0.1-1.5,0-3,0.3-4.4c0.1-0.4,0.2-0.8,0.2-1.2c0-0.4,0.1-0.7,0.1-1.1
			c0-0.5,0.1-0.9,0.2-1.4c-0.1-0.4,0-0.8,0-1.2l0.1-1.2c0-0.4,0-0.7,0-1.1c0-0.4,0.1-0.8,0.2-1.2c0.1-0.4,0.2-0.8,0.2-1.2
			c0-0.4,0.1-0.8,0.1-1.3c0-0.8,0.2-1.6,0.3-2.5c0.1-0.9,0.1-1.8,0.2-2.6c0-0.4,0.1-0.8,0.1-1.2c0-0.4,0.1-0.8,0.2-1.2
			c0.2-0.9,0.4-1.7,0.6-2.5c0.1-0.4,0.1-0.8,0.2-1.3l0.1-0.6c0-0.2,0.2-0.4,0.1-0.6V4.7c-0.1-0.3,0.1-0.6,0.5-0.5
			C208.8,4.3,209.3,4.2,209.7,4.2L209.7,4.2z"/>
		<path class="st2" d="M237.4,3.6c0.1,0,0.1,0.1,0.2,0.1c0.1,0.1,0.2,0.1,0.3,0.3c0.1,0.1,0.1,0.3,0.1,0.5c0,0.1,0.1,0.4,0.1,0.5
			l0.1,0.4c0.1,0.4,0.2,0.7,0.4,1.1c0.1,0.4,0.1,0.8,0.1,1.2c0,0.4-0.3,0.6-0.6,0.6l-0.2,0.1l-0.1,0l-0.1,0h-0.2l-0.5,0l-0.1,0
			c-0.4,0.1-0.8,0.2-1.2,0.3c-0.4,0.1-0.9,0.1-1.3,0.2c-0.4,0.1-0.9,0-1.4,0.1c-0.4,0.1-0.9,0.1-1.4,0.1l-0.8,0
			c-0.2,0-0.5,0.1-0.7,0.1c-0.5,0-1.1,0-1.6,0c-0.5-0.1-1-0.1-1.6,0c-0.3,0-0.6,0.1-0.9,0.1l-0.4-0.1l0.1,2.4l0,0.8l0,0.4v0.4l0,1.6
			l0,3.2l0,0.5c0.2,1.1,0.4,2.3,0.4,3.4c0,0.6,0,1.3-0.1,1.9l0.4,0l1.1,0.1l1,0.1h0.2l0.2,0l0.1,0l1.1-0.1l0.6,0l0.8-0.1l0.7-0.1
			l0.6-0.1l0.2-0.1l0.1-0.1l0.3-0.1l0.1,0.1l0.2,0.2c0.5,0,1-0.1,1.5-0.1c0.2,0,0.5,0.1,0.7,0.2l0.1,0c0.3,0.1,0.6,0.1,0.9,0
			c0.2,0,0.4,0.2,0.5,0.4c0,0.1,0.2,0.2,0.2,0.4c0,0.2,0.1,0.4,0.1,0.6c0,0.4,0,0.7,0.1,1.1l0.2,1.2c0.1,0.4,0,0.8,0.1,1.2l0,0.2
			c0,0.3-0.3,0.6-0.6,0.6c-1,0-1.9,0-2.9,0l-1.5,0.1c-0.4,0-0.9,0.1-1.3,0.1c-1,0-2,0-3,0l-1.1,0c-0.3,0-0.6,0-0.8,0l-0.1-0.1l0,0.8
			c-0.1,0.6-0.2,1.1-0.2,1.6c-0.1,1.2-0.1,2.3-0.2,3.5c0,1.2-0.1,2.3-0.2,3.5L226,41c0,0.6,0,1.1-0.1,1.7c0,0.1-0.1,0.3-0.2,0.3v0.3
			v0.2v0.1v0.1l-0.1,1.1l-0.1,0.9l0,0.7v0.1v0.2l0,0.3l0.1,0.9l0,0.6l0,0.5l0,0.8l0.9-0.1c0.5-0.1,0.9-0.1,1.4-0.1
			c0.7,0,1.5,0.2,2.2,0.2c0.4,0,0.8,0.1,1.2,0.1l0.7,0.1h0.5l0.4,0.1l0.8,0c0.6,0,1.1-0.1,1.7-0.2l0.4-0.1l0.1,0l0.4,0l1.3-0.1
			l0.1,0c0.2,0,0.4,0.1,0.5,0.3l0,0.1l0,0.1l0.1,0.2l0.1,0.3v0.1l-0.1,0.8l0.1,2.1v0.6v0.1l0,0.1l0,0.2l-0.1,0.3l0,0.1
			c-0.1,0.2-0.3,0.3-0.5,0.3l-0.1-0.1l-1.3,0l-1,0l-0.9,0.1c-0.8,0-1.6-0.1-2.3-0.1c-0.7-0.1-1.4-0.1-2.1-0.1l-0.9,0l-0.4,0l-0.2,0
			l-0.1,0l-0.1,0l-1.8,0.3h-0.2c-0.1,0.1-0.3,0.1-0.4,0.1c-0.5,0.2-1.1,0.6-1.6,0.5c-0.6-0.2-1.2-0.3-1.8-0.4
			c-0.6-0.1-1.1-0.4-1.7-0.6l-0.7-0.3l-0.3-0.2l-0.2,0c-0.1,0-0.2-0.1-0.2-0.1c-0.3,0-0.4-0.2-0.4-0.4c0,0-0.1-0.1-0.1-0.2
			c0-0.5-0.2-1.1,0-1.6c0-0.4,0.1-0.7,0.2-1.1l0.1-1.4c0.1-0.9,0.2-1.7,0.2-2.6c0-0.9-0.1-1.8,0-2.6c0-0.9,0.1-1.7,0.3-2.6
			c0.1-0.9,0.3-1.8,0.4-2.7l0.1-2.6c0.1-0.9,0.1-1.7,0.1-2.6c0-0.3,0-0.5,0-0.8l-0.1-0.1l0-0.3l0-0.1l0.1-1.4
			c0.1-1.1-0.3-2.3-0.2-3.4c0-1.2,0.2-2.3,0.2-3.5c0.1-2.2-0.5-4.3-0.6-6.4c0-0.6,0-1.2-0.1-1.8c-0.1-0.6-0.2-1.1-0.2-1.7l-0.2-1.6
			c-0.1-0.5,0-1-0.1-1.4c-0.1-0.6,0-1.2,0-1.8l0-1.2c0-1,0-2.1,0.3-3.1c0.1-0.3,0.6-0.6,1.1-0.6c0.3-0.2,0.7-0.3,1-0.3
			c0.9,0,1.8-0.1,2.8-0.2c0.5,0,0.9,0,1.4,0.1l1,0.1c0.4,0.1,0.8,0.1,1.2,0l1.7-0.1l0.1,0l3.6-0.1l0.2,0l1.3-0.3l0.6-0.1l0.2,0h0.1
			h0.4l0.4,0L237.4,3.6L237.4,3.6z"/>
		<path class="st2" d="M263.7,4.4c0.2-0.1,0.5,0,0.8,0c0.3,0,0.6,0,0.8,0.1c0.6,0.1,1.3,0,2,0c0.5,0,1.3-0.2,1.6,0.3
			c0.1,0.2,0.1,0.5,0,0.8l0,0.4c0,0.1-0.1,0.3-0.1,0.4c0,0.3-0.1,0.7-0.2,1c-0.1,0.3-0.2,0.5-0.3,0.8c-0.1,0.3-0.3,0.7-0.5,1
			l-0.1,0.6c-0.2,1-0.4,2-0.6,3c-0.5,2.2-1.4,4.1-2,6.3c-0.1,0.5-0.3,1.1-0.5,1.6c-0.1,0.5-0.3,1-0.5,1.5c-0.2,0.6-0.4,1.1-0.7,1.7
			l-0.1,0.3l-0.1,0.2l-0.4,1l-0.1,0.2l-0.1,0.4l-0.2,0.7l-0.3,1.5l-0.4,1.6c-0.1,0.5-0.1,1-0.3,1.4c-0.3,1-0.6,2.1-1.1,3.1l-0.2,0.4
			l-0.1,0.2c0,0.2-0.1,0.4-0.1,0.6c-0.1,0.2-0.1,0.5-0.2,0.7l-0.2,0.3c-0.1,0.1-0.1,0.3-0.2,0.4c0,0.5,0.1,1,0.1,1.6
			c0,0.8,0,1.5,0,2.3c0,0.6,0,1.2,0,1.9c0,0.8,0.1,1.5,0.1,2.3l0.1,4.4l0,2.3v1.1v0.2c0.2,0.5,0.3,1,0.4,1.6c0,0.3-0.1,0.6-0.4,0.7
			c-0.3,0.1-0.6,0-0.9-0.1l-0.9-0.1l-0.2,0l-0.3,0l-2,0h-0.8c-0.4,0-0.6-0.2-0.7-0.6c-0.1-0.2,0-0.5,0-0.8c0-0.4,0-0.8,0-1.1v-0.1
			l0-0.5l0-0.6l0-0.3v-0.3l0-1l0-0.7c-0.1-0.3-0.1-0.6-0.1-1c0-0.3,0-0.6-0.1-1c0-0.3,0.1-0.7,0.1-1l-0.1-1.1l-0.2-1.1
			c-0.1-0.7-0.1-1.5,0-2.3c0-0.4,0-0.7-0.1-1.1l-0.1-1.1c0-0.3-0.1-0.7-0.1-1c0-0.2,0.1-0.4,0.1-0.6l-0.9,0c-0.3,0-0.4-0.3-0.4-0.5
			L252,37l-0.1-0.1c-0.1-0.1-0.2-0.3-0.1-0.4c0-0.2-0.1-0.4-0.2-0.6c-0.1-0.3-0.1-0.6-0.2-0.8l-0.3-0.6c-0.1-0.3-0.2-0.6-0.3-0.8
			c-0.1-0.2-0.3-0.5-0.4-0.7c-0.2-0.5-0.3-1.1-0.5-1.6c-0.3-1.1-0.9-2.1-1.3-3.1c-0.2-0.5-0.3-1.1-0.4-1.6c-0.1-0.5-0.3-0.9-0.4-1.4
			c-0.1-0.6-0.3-1-0.5-1.6c-0.2-0.5-0.3-0.9-0.5-1.4c-0.3-1.1-0.6-2.1-0.9-3.2c-0.2-0.6-0.3-1.1-0.5-1.7c-0.2-0.5-0.5-0.9-0.6-1.4
			l-0.4-1.5c-0.1-0.5-0.3-0.9-0.4-1.4c-0.1-0.5-0.2-1.1-0.5-1.6c-0.2-0.5-0.3-1-0.5-1.5c-0.1-0.3-0.1-0.6-0.2-0.9l-0.3-0.7l-0.4-0.7
			l-0.1-0.1l-0.2-0.5c0-0.1,0-0.1,0-0.2l-0.3-0.7c-0.2-0.5-0.3-1.1,0.3-1.4c0.4-0.1,0.9,0,1.3,0l2.3,0c0.1,0,0.3,0,0.3,0.1l0.1,0
			c0.1-0.1,0.3-0.1,0.4-0.1c0.2-0.1,0.5,0,0.7,0.1c0.6,0.3,1,0.9,1.1,1.5l0.4,1.7c0.1,0.5,0.2,1,0.4,1.5c0.2,0.5,0.3,1,0.4,1.5
			c0,0.5,0.1,1,0.2,1.6c0.2,1.1,0.5,2.2,0.8,3.2c0.3,1.1,0.8,2.1,1.2,3.2c0.2,0.6,0.4,1.1,0.6,1.7c0.2,0.5,0.5,1,0.6,1.6
			c0.3,1,0.5,2.1,0.9,3.1c0.4,1,0.8,2,1.2,3c0.2,0.5,0.4,1.1,0.4,1.6l0,1l0.2,0.6l0.1-0.3l0-0.3c0-0.3,0-0.4,0.1-0.6
			c-0.1,0.2,0.1-0.4,0.1-0.4l0.1-0.3l0.1-0.4c0,0.2,0.1-0.2,0.1-0.4l0.2-0.7l0.3-0.8l0-0.1l0-0.1l0.1-0.2l0-0.1l0-0.2l0-0.2l0.2-0.7
			c0.3-0.8,0.5-1.5,0.8-2.2c0.6-1.9,1-3.8,1.8-5.6c0.2-0.4,0.3-0.9,0.5-1.4c0.1-0.5,0.2-1.1,0.4-1.6c0.3-1.1,0.7-2.1,0.9-3.3
			c0.2-1.1,0.4-2.2,0.7-3.3c0.2-0.8,0.5-1.6,0.9-2.4l0.2-1C263.3,4.7,263.4,4.5,263.7,4.4L263.7,4.4z"/>
	</g>
	<path class="st3" d="M6.5,65.6c0.2,0,0.5,0,0.4,0.3c-0.1,0.3,0.1,0.7,0.1,1c0.1,0.3,0.1,0.7,0.2,1.1c0,0.2,0,0.4,0.1,0.5L7.4,69
		c0,0.4,0.1,0.7,0.2,1.1l0.2,1.1c0.1,0.4,0.1,0.7,0.2,1.1c0.2,0.7,0.3,1.4,0.4,2.2l0.2,0.9c0.1,0.3,0.1,0.6,0.1,0.9
		c0,0.3,0.1,0.6,0.2,0.9L9,77.8c0.1,0.6,0.3,1.1,0.4,1.7c0.1,0.5,0.2,1.1,0.3,1.6c0.1,0.5,0.3,1.1,0.3,1.6c0,0.3,0.1,0.6,0.1,0.9
		c0,0.2,0,0.5,0.1,0.7c0.1,0.3,0.1,0.5,0.2,0.8c0,0.3,0,0.6,0,0.9c0-0.2,0.1-0.4,0.1-0.6c0.1-0.5,0.1-1.1,0.1-1.6
		c0-0.6,0-1.1,0.1-1.7c0.1-0.5,0.1-1,0.2-1.6c0-0.3,0.1-0.5,0.1-0.8l0.1-0.8c0-0.3,0-0.5,0.1-0.8c0.1-0.3,0.1-0.5,0.1-0.8
		c0-0.3,0.1-0.5,0.1-0.8c0-0.3,0.1-0.6,0.1-0.8l0.3-1.5c0,0,0-0.1,0-0.1c0-0.1,0.1-0.2,0.1-0.4c0.1-0.1,0.1-0.3,0.2-0.4
		c0.1-0.1,0.2-0.2,0.4-0.1c0.1,0,0.1,0,0.2,0c0.3,0.1,0.6,0.1,0.9,0.2c0.1,0,0.3,0,0.4,0.1c0.1,0,0.3,0.1,0.4,0.1
		c0.1,0,0.1,0.2,0.1,0.3l-0.1,0.2l0,0.1c0.1,0,0.2,0,0.2,0c0.1,0,0.3,0.1,0.3,0.2c-0.1,0.2,0.1,0.4,0.1,0.7c0,0.3,0.1,0.6,0.1,0.9
		c0.1,0.3,0.1,0.6,0.1,0.8l0.2,0.8l0.2,0.8l0.2,0.8c0.1,0.2,0.1,0.5,0.2,0.7c0.1,0.2,0.1,0.4,0.2,0.7c0.2,0.5,0.2,1.1,0.3,1.6
		c0.1,0.5,0.2,1.1,0.2,1.7c0,0.3,0.1,0.6,0.1,0.8c0.1,0.2,0.1,0.5,0.1,0.7c0,0.1,0.1,0.2,0.1,0.3l0,0.2l0,0.2l0,0.2l0,0.1l0.1,0.3
		l0.1,0.6c0.1,0.4,0.2,0.8,0.3,1.1l0.1,0.2l0,0.1l0,0.1l0-0.2l0.1-0.4l0.1-0.2c0.1-0.3,0.1-0.7,0.1-1.1c0-0.4,0-0.8,0.1-1.2
		c0-0.4,0.1-0.8,0.2-1.3c0-0.4,0.1-0.7,0.1-1.1c0-0.4,0-0.8,0-1.3l0.1-1.3c0-0.4,0.1-0.8,0.2-1.2l0.1-0.9c0-0.2,0.1-0.5,0.2-0.7
		c0-0.3,0.1-0.6,0.2-0.8l0.1-0.8c0.1-0.6,0.1-1.2,0.1-1.7c0-0.3,0-0.6,0.1-0.9l0-0.4c0-0.1,0-0.3,0.1-0.4c0.2-0.5,0.3-1.1,0.4-1.7
		c0-0.1,0-0.3,0.1-0.4c0,0,0-0.2,0-0.3l0.1-0.8c0.1-0.6,0.1-1.1,0.1-1.7l0.1-0.9c0-0.3,0-0.5,0.1-0.8c0-0.2,0-0.4,0.1-0.5
		c0-0.1,0.1-0.1,0.2-0.1l0.1,0l0.1,0c0,0,0.1,0,0.1,0l0,0l0.1,0c0.1,0,0.2,0.1,0.4,0.1c0.3,0,0.5,0.1,0.8,0.1l0.4,0
		c0.1,0,0.3,0,0.4,0c0.2,0,0.3,0.1,0.3,0.2l0,0.1c0,0,0,0,0,0.1l0,0.1c0,0.2,0.1,0.4,0,0.7c0,0.3-0.1,0.6-0.1,0.9c0,0.3,0,0.6,0,0.9
		l0,0.7c0,0.9-0.2,1.8-0.4,2.7c0,0.1,0,0.3-0.1,0.5L22.9,73l0,0.1c0,0.1,0,0.2,0,0.3l0,1c0,0.3,0,0.6-0.1,0.9l-0.2,0.9
		c-0.1,0.3-0.1,0.5-0.1,0.8c0,0.6-0.2,1.1-0.3,1.7c0,0.1,0,0.3-0.1,0.4l0,0.4c0,0.3,0,0.5,0,0.8c0,0.3-0.1,0.5-0.1,0.8
		c0,0.3,0,0.5,0,0.8c0,0.3,0,0.6-0.1,0.9l-0.1,0.8c0,0.4-0.1,0.8-0.1,1.2l-0.2,0.9c-0.1,0.5-0.2,1.1-0.3,1.6c0,0.3-0.1,0.5-0.1,0.7
		c0,0.2-0.1,0.4-0.1,0.6l-0.1,0.8L20.6,90l0,0c0.1,0.2,0.1,0.5,0.2,0.8c0,0.3,0.1,0.5,0.1,0.8c0,0.2-0.1,0.3-0.3,0.3
		c-0.1,0-0.3-0.1-0.4-0.1l-0.5,0c-0.2,0-0.3,0-0.5,0c-0.1,0-0.2,0-0.4,0c-0.1,0-0.3,0-0.4,0c-0.2,0.1-0.3,0.1-0.5,0.1
		c-0.2,0-0.4,0-0.7,0.1c-0.1,0-0.3,0-0.4,0.1c-0.1,0-0.3,0.1-0.4,0c-0.1-0.1-0.1-0.2-0.2-0.3c-0.1-0.1-0.2-0.2-0.2-0.4
		c0-0.1-0.1-0.2-0.1-0.3c-0.1-0.2-0.2-0.4-0.3-0.6s-0.1-0.5-0.2-0.7c-0.1-0.2-0.2-0.5-0.2-0.7c-0.1-0.5-0.2-1-0.3-1.4
		c-0.1-0.2-0.1-0.5-0.2-0.7c0-0.3-0.1-0.5-0.2-0.8c-0.2-1-0.3-2-0.6-3c-0.1-0.4-0.2-0.8-0.3-1.2l0,0.2l-0.2,1.4l-0.1,0.7l-0.1,0.6
		l0,0.1l0,0.1l0,0.2L13,85.5l-0.1,0.7l-0.4,2.5l0,0.3l0,0.2c0,0.3,0,0.5-0.1,0.7l0,0.6v0v0.1v0.2l0,0.2l0,0.1l0,0.2l0,0.2l0,0.1
		c0,0.1-0.1,0.2-0.2,0.3c-0.1,0.2-0.2,0.3-0.5,0.3c-0.5,0-1,0-1.4,0l-0.6,0H8.9c-0.2,0-0.2-0.1-0.3-0.3l-0.1-0.4
		c0,0-0.1-0.1-0.1-0.1l0-0.1c0,0-0.1-0.2,0,0c-0.1-0.1-0.1-0.3-0.2-0.4c-0.1-0.2-0.1-0.5-0.2-0.7l-0.1-0.7C8,89.1,8,89,8,88.8
		l-0.1-0.3c-0.1-0.5-0.2-1-0.2-1.5c-0.1-0.5-0.2-1.1-0.2-1.6c-0.1-0.5-0.1-1.1-0.2-1.6L7.2,83c0-0.3-0.1-0.5-0.1-0.8
		c0-0.2-0.1-0.4-0.1-0.6c0-0.3-0.1-0.5-0.2-0.7c-0.1-0.5-0.2-1-0.4-1.5c-0.1-0.3-0.1-0.6-0.2-0.9C6.1,78.2,6.1,78,6,77.7
		c-0.1-0.3-0.2-0.5-0.2-0.8c0-0.3-0.1-0.5-0.1-0.8c-0.1-0.3-0.1-0.5-0.1-0.8l-0.1-0.8c0-0.6-0.2-1.1-0.2-1.7L5,71.9
		c0-0.3-0.1-0.5-0.1-0.8c-0.1-0.5-0.2-1.1-0.3-1.6c-0.1-0.6-0.2-1.1-0.3-1.7l-0.2-0.9c0-0.3-0.1-0.6-0.1-0.9c0-0.2,0.2-0.4,0.5-0.4
		c0.1-0.1,0.1-0.1,0.2-0.1l0.4,0l0.3,0l0.1,0l0.1,0L6.5,65.6L6.5,65.6L6.5,65.6z"/>
	<path class="st3" d="M26.8,65.2c0.3,0,0.5,0,0.8,0.1c0.3,0,0.5,0.1,0.8,0.1c0.2,0,0.5,0,0.7,0.1l0.4,0.1c0.1,0,0.4,0.1,0.4,0.2
		l0,0.2c0,0,0.1,0.1,0.1,0.1c0,0.3,0,0.6,0,0.9c0,0.3,0,0.6,0,0.9c0,0.6,0,1.3,0,1.9l0,1.8c0,0.6,0,1.2,0,1.8l0,0.9
		c0,0.3-0.1,0.6-0.1,0.8c0,0.6-0.1,1.2-0.1,1.8l0,0.8c0,0.3,0,0.6,0,0.8c-0.1,0.3-0.1,0.6-0.1,0.8l0,0.8l0,1.8c0,0.3,0,0.7-0.1,1
		c0,0.9,0.1,1.7,0.2,2.6c0,0.9,0.1,1.8,0.1,2.7c0,0.8,0.1,1.7,0.1,2.6l0,0.1c0,0.1,0.1,0.2,0.1,0.3c0,0.1,0,0.2,0,0.3l0,0.1
		c0,0.1,0,0.1-0.1,0.1c-0.2,0.1-0.4,0.2-0.6,0.2c-0.2,0-0.5,0-0.7,0c-0.2,0-0.5,0.1-0.7,0.1c-0.2,0-0.5,0-0.7,0
		c-0.2-0.1-0.4,0-0.6-0.2c-0.1-0.1-0.1-0.2-0.1-0.3c0-0.1,0-0.2,0-0.3c0-0.1,0-0.1,0.1-0.2l0-0.2l0-0.4v-0.2V90v-0.8
		c-0.1-0.1-0.2-0.2-0.2-0.3c0.1-0.2,0.2-0.4,0.2-0.7l0-0.7c0-0.5,0.1-1,0.1-1.4c0-0.5,0-1,0-1.5c0-0.5,0-1,0-1.5c0-1,0-2.1,0.1-3.1
		c0-0.8,0.1-1.6,0.3-2.3l-0.1-1.3c0-0.6,0-1.2-0.1-1.8c-0.1-0.6-0.2-1.1-0.2-1.7c-0.1-1.2,0-2.4,0-3.6c0-0.6,0-1.1-0.1-1.7
		c0-0.3-0.1-0.6-0.1-0.9c0-0.3,0-0.6,0-0.9c0-0.1,0.1-0.2,0.2-0.3l0-0.1C26.6,65.3,26.7,65.2,26.8,65.2L26.8,65.2z"/>
	<path class="st3" d="M33.2,65.1c0.2,0,0.4,0,0.6,0.1c0.2,0.1,0.4,0,0.6,0c0.5,0,1,0,1.5,0.1c0.5,0,0.9,0.1,1.4,0.1
		c0.5,0,0.9,0,1.4,0.1c0.5,0.1,0.9,0.2,1.4,0.2c0.2,0,0.5,0,0.7,0.1c0.2,0.1,0.5,0.1,0.7,0.1c0.2,0,0.5,0,0.7,0.1
		c0.2,0,0.4,0.1,0.6,0.1c0.2,0,0.3,0,0.5,0l0.4,0.1c0.2,0,0.4,0,0.5,0l0.2,0l0.2,0l0.1,0l0.1,0c0.1,0,0.1,0.1,0.1,0.1
		c0,0,0.1,0.1,0.1,0.1c0,0.2-0.1,0.4-0.1,0.6c-0.1,0.2-0.1,0.4-0.1,0.7l0,0.5v0.2c0,0,0,0.1,0,0.1l0,0l-0.1,0.1l0,0.1
		c0,0.1-0.2,0.2-0.3,0.2c-0.1,0-0.2-0.1-0.3-0.1l-0.1,0c-0.2,0-0.4,0-0.7-0.1c-0.5,0-1-0.2-1.4-0.2l-1.5-0.2l-0.3-0.1
		c0,0.2,0,0.3,0,0.5c0,0.2,0,0.4,0,0.7c0,0.5,0,1,0,1.5l0,0.4c0.1,0.5,0.1,0.9,0.2,1.4c0.1,0.5,0.1,1,0.1,1.5V75c0,0.1,0,0.2,0,0.4
		l0,0.4l0,0.3c0,0.5-0.1,0.9-0.1,1.4c0,0.2,0,0.5,0,0.7c0,0.2,0,0.5,0,0.7c0,0.5,0,1,0,1.4c0,0.2-0.1,0.5-0.1,0.7c0,0.2,0,0.5,0,0.7
		c0,0.5,0,1,0,1.5l0,0.1c0,0,0,0.1,0,0.2c0,0.2,0,0.3,0,0.5c0,0.2,0,0.3-0.1,0.5l-0.1,1.1c0,0.2-0.1,0.4-0.1,0.6v0.6
		c0,0.4,0,0.7,0,1.1c0,0.4-0.1,0.7-0.1,1.1c0,0.4-0.1,0.7-0.1,1.1c0,0.2,0,0.3,0,0.5c0,0.2,0,0.3-0.1,0.5l0,0.1v0.1l0,0.1l0.1,0.2
		c0.1,0.2,0.2,0.3,0.1,0.6c0,0.1-0.1,0.1-0.2,0.1l-0.2,0h-0.2l-0.2,0l-0.4,0h-0.8c-0.2,0-0.5,0-0.7,0c-0.1,0-0.2,0-0.4,0h-0.3
		c-0.1,0-0.2-0.1-0.2-0.1l-0.1-0.1c0-0.1-0.1-0.2-0.1-0.3c0-0.2,0-0.4,0-0.6c0-0.2,0-0.4,0-0.6c0.1-0.4,0.1-0.9,0.1-1.3
		c0.1-0.9,0.2-1.7,0.2-2.6c0-0.4,0-0.9,0-1.3c0-0.4,0-0.9,0.1-1.3c0.1-0.4,0.2-0.8,0.2-1.2c0-0.2,0-0.4,0-0.6c0-0.2,0.1-0.4,0.1-0.6
		c0.1-0.6,0.1-1.1,0-1.7c0-0.6,0-1.2,0-1.7c0-0.4,0-0.8,0-1.2l0-0.4c0-0.1-0.1-0.1-0.1-0.2l0-0.3l0-0.9l0-0.1l0-0.3l-0.1-0.3
		c-0.1-0.4-0.1-0.8-0.1-1.2c0-0.3,0-0.6-0.1-1c0-0.2,0-0.4,0-0.7l0-0.7c0-0.5-0.1-1-0.1-1.5c0-0.2-0.1-0.5-0.1-0.7l0-0.5l-0.1,0
		l-0.6-0.1c-0.2,0-0.5-0.1-0.7-0.1l-2.3,0c-0.1,0-0.1,0-0.2,0l-0.1,0c-0.1,0-0.2-0.1-0.2-0.2c0-0.1,0-0.3,0-0.4c0-0.1,0-0.2,0-0.3
		c0-0.2,0.1-0.4,0.1-0.6c0-0.1,0.1-0.2,0.1-0.3l0-0.2l0-0.1l0-0.1l0-0.5c0-0.2,0.2-0.2,0.3-0.1L33.2,65.1L33.2,65.1z"/>
	<path class="st3" d="M49.2,65.3c0.2,0.1,0.4,0.1,0.6,0.2l0.2,0.1c0.1,0,0.1,0,0.2,0c0.1,0,0.1,0,0.2,0l0.3,0l0.5,0.1
		c0.1,0,0.2,0.1,0.3,0.1l0.1,0.1l0,0.2l0,0.3l0,0.3l0,0.1l0,0.1v0.1l0,0.2l0,0.3l0,0.3l0,0.3l0,0.2l0,0.1L51.3,69L51,71.3l-0.1,0.9
		l0,0.9l0,0.5l0,0.2l0,0.1l0,0.1l0,0l0,0.1l0,0.1l0,0.2L50.8,75l-0.1,0.8l0,0.4v0v0v0.1v0.2l0,0.9c0,0.6,0.1,1.3,0,2l0,0.2l0,0.2
		v0.1c0.1,0.1,0.2,0.1,0.3,0.2l0.2,0.1l0.6,0l0.4,0.1l0.4,0.1l0.3,0c0.2,0,0.5,0,0.8,0l0.2,0l0.1,0l-0.1,0l0.3,0l0.7,0l0.9-0.1
		l0.2,0v-0.1v-0.1v0V80l0-0.2c0-0.3,0-0.6-0.1-1c-0.1-0.7-0.2-1.3-0.3-2.1l-0.1-0.5l0-0.3l0-0.3l-0.1-1l0-1l0-0.9l0-0.4l0-0.2l0-0.2
		l0-0.5l0-0.5l0-0.9v-0.3l0-0.3c0-0.2,0-0.4,0-0.6c0-0.2,0-0.3,0-0.5l0-0.6c0-0.4,0-0.8,0.1-1.2c0-0.3,0-0.7,0.2-1l0,0
		c0-0.1,0.1-0.1,0.1-0.1c0.2-0.1,0.5,0,0.7,0l0.9,0c0.1,0,0.3,0,0.4,0c0.1,0.1,0.2,0.2,0.2,0.3l0,0.2c0,0.1,0.1,0.2,0.1,0.3
		c0,0.2,0.1,0.4,0.1,0.6c0,0.5,0,1,0.1,1.5c0,0.5,0,1,0,1.4l0,1.3l0,0.6l0.1,0.6c0,0.2,0,0.5,0,0.7l0.1,0.6c0.1,0.4,0.2,0.9,0.2,1.3
		c0,0.5,0,0.9,0.1,1.3l0.1,0.9c0,0.3,0,0.6,0,0.8c0.1,0.6,0.1,1.2,0.1,1.8l0,0.9c0,0.3,0,0.5,0,0.7c0,0.3,0.1,0.5,0.1,0.8
		c0,0.3,0.1,0.5,0.1,0.8c0.1,0.6,0.1,1.2,0.1,1.8c0,0.3,0,0.6,0,0.9c0,0.3-0.1,0.5-0.1,0.7l0,1.8c0,0.3,0,0.5,0,0.9l0.1,0.8
		c0,0.2,0.1,0.5,0.1,0.7l0,0.1l0,0.2c0,0.2,0,0.4,0.1,0.6c0,0.1,0,0.2-0.1,0.3c-0.1,0.1-0.2,0.1-0.3,0.1l-0.4,0
		c-0.2,0-0.4,0-0.6-0.1h-0.4l-0.5,0h-0.4l0,0h0l-0.1,0c-0.1,0-0.2-0.1-0.2-0.1l-0.1-0.2L56,90.8l0-0.5l0-0.2v-0.1v-0.1l0-1.6l0-3.2
		l0-1.7h-0.8c-0.4,0-0.8-0.1-1.2-0.1l-0.3,0l-0.2,0l0,0l-0.1,0L53,83.1l-0.1,0l-0.2,0l-1.5,0.3l-0.3,0l0,1.8l0,0.9l0,0.1l0,0.1
		l0,0.3l0,0.5c0,0.7-0.1,1.3-0.1,1.8l0,0.2l0,0.1v0l0,0.2c0,0.2,0,0.4,0,0.6l-0.1,0.5l0,0.3c0.1,0.1,0,0.3-0.2,0.4
		c-0.2,0.1-0.4,0-0.6,0.1l-0.3,0.1c-0.2,0.1-0.4,0.2-0.6,0.2l-0.1,0l-0.6,0.2c-0.1,0-0.3,0-0.4,0.1c-0.1,0-0.2,0.1-0.3,0.1
		c-0.1,0-0.1,0-0.2-0.1c-0.1-0.1-0.1-0.3-0.1-0.5l0-0.2c0-0.5,0-1,0-1.5c0-0.5,0.1-1,0.1-1.4l0.1-0.6c0-0.2,0.1-0.4,0.1-0.6
		c0-0.4-0.1-0.9,0-1.3l0-2.8c0-0.9,0.1-1.9,0.1-2.8c0-1.2,0-2.4,0-3.6l0-1.8c0-0.3,0-0.6,0-0.9c0-0.3,0.1-0.5,0.1-0.8
		c0-0.6,0-1.2,0-1.8c0-0.6,0.1-1.2,0.1-1.8c0-0.3,0-0.6,0.1-0.9l0.1-0.8c0.1-0.3,0.1-0.6,0.1-0.9l0.2-0.9c0-0.2,0.1-0.3,0.2-0.5
		C48.8,65.3,49,65.2,49.2,65.3L49.2,65.3z"/>
	<path class="st4" d="M0.7,95.2c0.2,0,0.4,0,0.6,0.1c0.2,0.1,0.4,0,0.6,0c0.5,0,1,0,1.5,0.1c0.5,0,0.9,0.1,1.4,0.1
		c0.5,0,0.9,0,1.4,0.1c0.5,0.1,0.9,0.2,1.4,0.2c0.2,0,0.5,0,0.7,0.1C8.4,95.9,8.7,96,8.9,96c0.2,0,0.5,0,0.7,0.1
		c0.2,0,0.4,0.1,0.6,0.1c0.1,0,0.3,0,0.5,0l0.3,0.1c0.2,0,0.3,0,0.5,0l0.2,0l0.2,0l0.1,0l0.1,0c0.1,0,0.1,0.1,0.1,0.1
		c0,0,0.1,0.1,0.1,0.1c0,0.2-0.1,0.4-0.1,0.6c-0.1,0.2-0.1,0.4-0.1,0.7l0,0.5v0.2c0,0,0,0.1,0,0.1l0,0l-0.1,0.1l0,0.1
		c0,0.1-0.2,0.2-0.3,0.2c-0.1,0-0.2-0.1-0.3-0.1l-0.1,0c-0.2,0-0.4,0-0.6-0.1c-0.5,0-0.9-0.2-1.4-0.2l-1.4-0.2l-0.3-0.1
		c0,0.2,0,0.3,0,0.5c0,0.2,0,0.4,0,0.7c0,0.5,0,1,0,1.5l0,0.4c0.1,0.5,0.1,0.9,0.2,1.4c0.1,0.5,0.1,1,0.1,1.5v0.4c0,0.1,0,0.2,0,0.3
		l0,0.4l0,0.3c0,0.5-0.1,0.9-0.1,1.4c0,0.2,0,0.5,0,0.7c0,0.2,0,0.4,0,0.7c0,0.5,0,0.9,0,1.4c0,0.2-0.1,0.5-0.1,0.7
		c0,0.2,0,0.4,0,0.7c0,0.5,0,1,0,1.5l0,0.1c0,0,0,0.1,0,0.2c0,0.2,0,0.3,0,0.5c0,0.2,0,0.3-0.1,0.5l-0.1,1.1c0,0.2,0,0.4-0.1,0.6
		v0.6c0,0.4,0,0.7,0,1.1c0,0.4-0.1,0.7-0.1,1.1c0,0.4-0.1,0.7-0.1,1.1c0,0.2,0,0.3,0,0.5c0,0.2,0,0.3-0.1,0.5l0,0.1v0.1l0,0.1
		l0.1,0.2c0.1,0.2,0.2,0.3,0.1,0.5c0,0.1-0.1,0.1-0.2,0.1l-0.2,0H6.9l-0.2,0l-0.4,0H5.6c-0.2,0-0.5,0-0.7,0c-0.1,0-0.2,0-0.4,0H4.3
		c-0.1,0-0.2-0.1-0.2-0.1L4,121.5c0-0.1-0.1-0.2-0.1-0.2c0-0.2,0-0.4,0-0.6c0-0.2,0-0.4,0-0.6c0.1-0.4,0.1-0.8,0.1-1.2
		c0.1-0.9,0.2-1.7,0.2-2.5c0-0.4,0-0.9,0-1.3c0-0.4,0-0.8,0.1-1.3c0.1-0.4,0.2-0.8,0.2-1.2c0-0.2,0-0.4,0-0.6c0-0.2,0.1-0.4,0.1-0.6
		c0.1-0.5,0.1-1.1,0-1.6c0-0.6,0-1.1,0-1.7c0-0.4,0-0.8,0-1.2l0-0.4c0-0.1-0.1-0.1-0.1-0.2l0-0.3l0-0.8l0-0.1l0-0.3l-0.1-0.3
		c-0.1-0.4-0.1-0.8-0.1-1.2c0-0.3,0-0.6-0.1-0.9c0-0.2,0-0.4,0-0.7l0-0.7c0-0.5-0.1-1-0.1-1.5c0-0.2-0.1-0.5-0.1-0.7l0-0.5l-0.1,0
		l-0.6-0.1c-0.2,0-0.5-0.1-0.7-0.1l-2.2,0c-0.1,0-0.1,0-0.2,0l-0.1,0C0.1,98,0,97.9,0,97.8c0-0.1,0-0.3,0-0.4c0-0.1,0-0.2,0-0.3
		c0-0.2,0.1-0.4,0.1-0.6c0-0.1,0.1-0.2,0.1-0.3l0-0.2l0-0.1l0-0.1l0-0.5c0-0.2,0.2-0.2,0.3-0.1L0.7,95.2L0.7,95.2z"/>
	<path class="st4" d="M16.2,95.4c0.2,0.1,0.4,0.1,0.6,0.2l0.2,0.1c0.1,0,0.1,0,0.2,0c0.1,0,0.1,0,0.2,0l0.3,0l0.5,0.1
		c0.1,0,0.2,0.1,0.3,0.1l0,0.1l0,0.2l0,0.3l0,0.3l0,0.1l0,0.1V97l0,0.2l0,0.3l0,0.3l0,0.3l0,0.2l0,0.1l-0.1,0.6l-0.3,2.3l-0.1,0.9
		l0,0.9l0,0.5l0,0.2l0,0.1l0,0.1l0,0l0,0.1l0,0.1l0,0.2l-0.1,0.4l-0.1,0.8l0,0.4v0v0v0.1v0.2l0,0.9c0,0.6,0.1,1.3,0,2l0,0.2l0,0.2
		v0.1c0.1,0.1,0.2,0.1,0.3,0.2l0.2,0l0.5,0l0.4,0l0.4,0.1l0.3,0c0.2,0,0.5,0,0.7,0l0.2,0l0.1,0l-0.1,0l0.3,0l0.7,0l0.9-0.1l0.1,0
		v-0.1V110v0v-0.1l0-0.2c0-0.3,0-0.6-0.1-0.9c-0.1-0.6-0.2-1.3-0.3-2l-0.1-0.5l0-0.2l0-0.2l-0.1-1l0-0.9l0-0.9l0-0.4l0-0.2l0-0.2
		l0-0.5l0-0.5l0-0.9v-0.3l0-0.3c0-0.2,0-0.4,0-0.6c0-0.2,0-0.3,0-0.5l0-0.6c0-0.4,0-0.8,0.1-1.2c0-0.3,0-0.7,0.2-1l0,0
		c0-0.1,0.1-0.1,0.1-0.1c0.2-0.1,0.5,0,0.7,0l0.9,0c0.1,0,0.3,0,0.4,0c0.1,0.1,0.2,0.2,0.2,0.3l0,0.2c0,0.1,0.1,0.2,0.1,0.3
		c0,0.2,0.1,0.4,0.1,0.6c0,0.5,0,1,0,1.4c0,0.5,0,0.9,0,1.4l0,1.3l0,0.6l0.1,0.6c0,0.2,0,0.5,0,0.7l0.1,0.6c0.1,0.4,0.2,0.9,0.2,1.3
		c0,0.4,0,0.9,0.1,1.3l0.1,0.9c0,0.3,0,0.6,0,0.8c0.1,0.6,0.1,1.1,0.1,1.7l0,0.9c0,0.3,0,0.5,0,0.7c0,0.3,0.1,0.5,0.1,0.8
		c0,0.3,0.1,0.5,0.1,0.8c0.1,0.6,0.1,1.2,0.1,1.7c0,0.3,0,0.6,0,0.9c0,0.2-0.1,0.5-0.1,0.7l0,1.7c0,0.3,0,0.5,0,0.8l0.1,0.8
		c0,0.2,0.1,0.5,0.1,0.7l0,0.1l0,0.2c0,0.2,0,0.4,0.1,0.6c0,0.1,0,0.2-0.1,0.3c-0.1,0.1-0.2,0.1-0.3,0.1l-0.4,0
		c-0.2,0-0.4,0-0.6-0.1h-0.4l-0.5,0h-0.4l0,0h0l-0.1,0c-0.1,0-0.2-0.1-0.2-0.1l-0.1-0.2l-0.1-0.8l0-0.5l0-0.2v-0.1v-0.1l0-1.5l0-3.1
		l0-1.6h-0.7c-0.4,0-0.8-0.1-1.1-0.1l-0.3,0l-0.2,0l0,0l-0.1,0l-0.4-0.1l-0.1,0l-0.2,0l-1.5,0.3l-0.3,0l0,1.8l0,0.9l0,0.1l0,0.1
		l0,0.3l0,0.5c0,0.7-0.1,1.2-0.1,1.8l0,0.2l0,0.1v0l0,0.2c0,0.2,0,0.4,0,0.6l-0.1,0.5l0,0.3c0.1,0.1,0,0.3-0.2,0.4
		c-0.2,0.1-0.4,0-0.6,0.1l-0.3,0.1c-0.2,0.1-0.4,0.2-0.6,0.2l-0.1,0l-0.6,0.1c-0.1,0-0.3,0-0.4,0.1c-0.1,0-0.2,0.1-0.3,0.1
		c-0.1,0-0.1,0-0.2-0.1c-0.1-0.1-0.1-0.3-0.1-0.5l0-0.1c0-0.5,0-1,0-1.4c0-0.5,0.1-0.9,0.1-1.4l0.1-0.6c0-0.2,0.1-0.4,0.1-0.6
		c0-0.4-0.1-0.9,0-1.3l0-2.7c0-0.9,0.1-1.8,0.1-2.7c0-1.2,0-2.4,0-3.6l0-1.8c0-0.3,0-0.6,0-0.9c0-0.3,0.1-0.5,0.1-0.8
		c0-0.6,0-1.1,0-1.7c0-0.6,0.1-1.1,0.1-1.7c0-0.3,0-0.6,0.1-0.9l0.1-0.8c0.1-0.3,0.1-0.6,0.1-0.9l0.2-0.9c0-0.2,0.1-0.3,0.2-0.5
		C15.9,95.4,16,95.3,16.2,95.4L16.2,95.4z"/>
	<path class="st4" d="M38.6,95.5C38.6,95.5,38.6,95.5,38.6,95.5c0.1,0.1,0.2,0.1,0.2,0.2c0,0.1,0,0.2,0.1,0.3c0,0.1,0,0.2,0,0.3
		l0,0.2c0,0.2,0.1,0.4,0.2,0.6c0.1,0.2,0.1,0.4,0.1,0.6c0,0.2-0.1,0.3-0.3,0.3l-0.1,0l-0.1,0l-0.1,0h-0.1l-0.3,0l-0.1,0
		C38.1,98,37.9,98,37.7,98c-0.2,0-0.4,0-0.6,0.1c-0.2,0.1-0.5,0-0.7,0.1c-0.2,0-0.5,0-0.7,0.1l-0.4,0c-0.1,0-0.2,0-0.4,0
		c-0.3,0-0.5,0-0.8,0c-0.3,0-0.5,0-0.8,0c-0.1,0-0.3,0.1-0.4,0.1l-0.2,0l0.1,1.2l0,0.4l0,0.2v0.2l0,0.8l0,1.6l0,0.3
		c0.1,0.6,0.2,1.1,0.2,1.7c0,0.3,0,0.7,0,1l0.2,0l0.6,0.1l0.5,0.1h0.1l0.1,0l0.1,0l0.6,0l0.3,0l0.4,0l0.4-0.1l0.3-0.1l0.1,0l0.1,0
		l0.2-0.1l0.1,0.1l0.1,0.1c0.2,0,0.5,0,0.7,0c0.1,0,0.2,0,0.3,0.1l0.1,0c0.1,0.1,0.3,0,0.4,0c0.1,0,0.2,0.1,0.2,0.2
		c0,0.1,0.1,0.1,0.1,0.2c0,0.1,0,0.2,0,0.3c0,0.2,0,0.4,0,0.6l0.1,0.6c0,0.2,0,0.4,0,0.6l0,0.1c0,0.2-0.1,0.3-0.3,0.3
		c-0.5,0-1,0-1.5,0l-0.8,0c-0.2,0-0.4,0.1-0.7,0.1c-0.5,0-1,0-1.5,0l-0.5,0c-0.1,0-0.3,0-0.4,0l-0.1,0l0,0.4c0,0.3-0.1,0.6-0.1,0.8
		c-0.1,0.6-0.1,1.2-0.1,1.8c0,0.6-0.1,1.2-0.1,1.8l-0.1,0.9c0,0.3,0,0.6,0,0.8c0,0.1,0,0.1-0.1,0.2v0.2v0.1v0.1v0.1l0,0.5l0,0.5
		l0,0.4v0.1v0.1l0,0.2l0,0.4l0,0.3l0,0.2l0,0.4l0.5-0.1c0.2,0,0.5-0.1,0.7-0.1c0.4,0,0.7,0.1,1.1,0.1c0.2,0,0.4,0,0.6,0.1l0.3,0.1
		h0.3l0.2,0l0.4,0c0.3,0,0.6-0.1,0.8-0.1l0.2-0.1l0.1,0l0.2,0l0.7-0.1l0.1,0c0.1,0,0.2,0,0.3,0.1l0,0l0,0l0,0.1l0,0.2v0l-0.1,0.4
		l0.1,1.1v0.3v0l0,0.1l0,0.1l-0.1,0.1l0,0c-0.1,0.1-0.2,0.1-0.3,0.1l-0.1,0l-0.6,0l-0.5,0l-0.5,0c-0.4,0-0.8,0-1.2-0.1
		c-0.4,0-0.7,0-1-0.1l-0.4,0l-0.2,0l-0.1,0l0,0l0,0l-0.9,0.2h-0.1c-0.1,0-0.1,0.1-0.2,0.1c-0.2,0.1-0.5,0.3-0.8,0.3
		c-0.3-0.1-0.6-0.1-0.9-0.2c-0.3-0.1-0.6-0.2-0.8-0.3l-0.4-0.1l-0.2-0.1l-0.1,0c0,0-0.1,0-0.1-0.1c-0.1,0-0.2-0.1-0.2-0.2
		c0,0,0-0.1,0-0.1c0-0.3-0.1-0.6,0-0.8c0-0.2,0.1-0.4,0.1-0.6l0.1-0.7c0-0.4,0.1-0.9,0.1-1.3c0-0.4,0-0.9,0-1.3
		c0-0.4,0.1-0.9,0.1-1.3c0.1-0.4,0.1-0.9,0.2-1.4l0.1-1.3c0-0.4,0.1-0.9,0.1-1.3c0-0.1,0-0.3,0-0.4l0-0.1l0-0.2l0,0l0.1-0.7
		c0-0.6-0.1-1.1-0.1-1.7c0-0.6,0.1-1.2,0.1-1.8c0.1-1.1-0.2-2.2-0.3-3.2c0-0.3,0-0.6-0.1-0.9c0-0.3-0.1-0.6-0.1-0.8l-0.1-0.8
		c0-0.2,0-0.5-0.1-0.7c0-0.3,0-0.6,0-0.9l0-0.6c0-0.5,0-1.1,0.2-1.6c0.1-0.2,0.3-0.3,0.6-0.3c0.2-0.1,0.4-0.2,0.5-0.2
		c0.5,0,0.9-0.1,1.4-0.1c0.2,0,0.5,0,0.7,0.1l0.5,0.1c0.2,0,0.4,0,0.6,0l0.8,0l0.1,0l1.8,0l0.1,0l0.7-0.1l0.3,0l0.1,0h0h0.2l0.2,0
		L38.6,95.5L38.6,95.5z"/>
	<path class="st4" d="M42.4,95.3c0.3,0,0.5,0,0.8,0.1c0.2,0,0.5,0.1,0.7,0.1c0.2,0,0.5,0,0.7,0.1l0.4,0.1c0.1,0,0.4,0.1,0.4,0.2
		l0,0.2c0,0,0.1,0.1,0.1,0.1c0,0.3,0,0.6,0,0.9c0,0.3,0,0.6,0,0.9c0,0.6,0,1.2,0,1.9l0,1.8c0,0.6,0,1.2,0,1.7l0,0.9
		c0,0.3-0.1,0.5-0.1,0.8c0,0.6-0.1,1.1-0.1,1.7l0,0.8c0,0.3,0,0.6,0,0.8c-0.1,0.3-0.1,0.5-0.1,0.8l0,0.8l0,1.7c0,0.3,0,0.7-0.1,1
		c0,0.8,0.1,1.7,0.2,2.5c0,0.9,0.1,1.8,0.1,2.6c0,0.8,0.1,1.7,0.1,2.5l0,0.1c0,0.1,0.1,0.2,0.1,0.3c0,0.1,0,0.2,0,0.3l0,0.1
		c0,0.1,0,0.1-0.1,0.1c-0.2,0.1-0.4,0.2-0.6,0.2c-0.2,0-0.4,0-0.7,0c-0.2,0-0.4,0.1-0.7,0.1c-0.2,0-0.5,0-0.7,0
		c-0.2-0.1-0.4,0-0.5-0.2c-0.1-0.1-0.1-0.2-0.1-0.3c0-0.1,0-0.2,0-0.2c0-0.1,0-0.1,0-0.2l0-0.2l0-0.4v-0.2v-0.2v-0.8
		c-0.1-0.1-0.2-0.2-0.1-0.3c0.1-0.2,0.2-0.4,0.2-0.7l0-0.7c0-0.5,0.1-0.9,0.1-1.4c0-0.5,0-1,0-1.5c0-0.5,0-0.9,0-1.4
		c0-1,0-2,0.1-3.1c0-0.8,0.1-1.5,0.3-2.3l-0.1-1.3c0-0.6,0-1.2-0.1-1.7c-0.1-0.6-0.2-1.1-0.2-1.7c-0.1-1.2,0-2.3,0-3.5
		c0-0.5,0-1.1-0.1-1.6c0-0.3-0.1-0.6-0.1-0.9c0-0.3,0-0.6,0-0.9c0-0.1,0.1-0.2,0.2-0.3l0-0.1C42.1,95.5,42.3,95.4,42.4,95.3
		L42.4,95.3z"/>
	<path class="st4" d="M51.3,95.4l0.6,0l0.2,0c0.1,0,0.2,0,0.3,0.1c0.1,0.1,0.1,0.2,0.1,0.3l1.2,0c0.4,0,0.8,0.1,1.2,0.2
		c0.3,0.1,0.6,0.2,0.9,0.3c0.4,0.1,0.8,0.2,1.1,0.4c0.5,0.3,0.8,0.5,1.2,1c0.3,0.4,0.7,0.9,0.9,1.5c0.2,0.5,0.3,1,0.4,1.5l0.2,0.8
		c0,0.1,0,0.3,0,0.4c0,0.1,0.1,0.3,0.1,0.4c0,0.1,0,0.3,0.1,0.4l0,0.4c0,0.3,0.1,0.5,0,0.8c0,0.1,0,0.3-0.1,0.4l0,0.4l0,0.8
		c0,0.3,0,0.6-0.1,0.8c0,0.3-0.1,0.5-0.1,0.8c-0.2,0.5-0.3,1.1-0.6,1.6c-0.2,0.2-0.4,0.5-0.6,0.6c0,0-0.1,0.1-0.1,0l-0.1,0.1
		l-0.3,0.2l-0.7,0.5c-0.2,0.2-0.4,0.3-0.7,0.4l-0.1,0c0.2,0.2,0.3,0.3,0.5,0.5c0.1,0.1,0.2,0.2,0.3,0.3c0.1,0.1,0.2,0.2,0.3,0.3
		c0.1,0.2,0.3,0.4,0.5,0.7c0.1,0.2,0.2,0.5,0.3,0.7c0.1,0.5,0.3,1,0.4,1.5c0.1,0.3,0.2,0.5,0.3,0.8c0.1,0.2,0.1,0.5,0.2,0.8
		c0.1,0.6,0.2,1.1,0.3,1.7l0.2,0.9l0.2,0.8l0.2,0.8c0,0.1,0.1,0.3,0.1,0.4l0,0.1c0,0.2,0.1,0.4,0,0.6c-0.1,0.3-0.3,0.4-0.6,0.4h-0.1
		c-0.1,0-0.3,0-0.4,0.1c-0.3,0-0.5,0-0.8,0.1c-0.1,0-0.3,0-0.4,0.1c-0.1,0-0.3,0.1-0.4,0c-0.2-0.1-0.3-0.4-0.3-0.6l0-0.1l0-0.3
		c0,0.1,0-0.1,0-0.1v-0.1l0-0.3c0-0.2-0.1-0.4-0.1-0.6l0-0.1c-0.1-0.5-0.3-0.9-0.3-1.4c0-0.5-0.2-1-0.3-1.4c-0.2-0.5-0.3-1-0.4-1.5
		c-0.1-0.5-0.2-1-0.4-1.5c-0.2-0.4-0.3-0.8-0.5-1.2c-0.1-0.2-0.3-0.3-0.4-0.5c-0.2-0.1-0.3-0.3-0.5-0.4c-0.2-0.1-1.1-0.1-1.3-0.1
		l-0.3,0c0,0,0,0-0.1,0l0,0.2l0,0.3l0,0.7c0,0.2,0,0.4,0,0.7l0,0.7l0,1.5c0,0.5,0,1,0,1.5l0.1,1.4v0.3c0,0,0,0.2,0,0
		c0,0.2,0.1,0.4,0.1,0.6c0,0.2,0,0.5,0.1,0.7c0,0.1,0,0.2,0,0.3v0.2c0,0.1,0,0.3,0,0.4c0,0.1,0,0.2,0,0.3c0,0.1-0.1,0.2-0.2,0.2
		c-0.2,0-0.5,0-0.7,0c-0.2,0.1-0.4,0-0.7,0h-0.8c-0.2,0-0.4,0-0.6,0l-0.1,0c-0.1,0-0.2-0.1-0.2-0.2l0-0.1l0-0.1c0-0.1,0-0.1,0-0.2
		c0-0.3,0-0.5,0.1-0.7c0-0.3,0-0.5,0-0.7c0-0.3-0.1-0.5-0.1-0.8c0-0.2,0-0.4,0-0.6c0-0.4,0-0.9,0-1.3c0-0.5,0.1-1,0.1-1.4
		c0-0.3,0.1-0.5,0.1-0.8c0-0.2,0.1-0.5,0.1-0.7l0-0.7l0-0.4l0-0.3c0-0.3,0-0.5,0-0.8c0-0.2,0-0.5,0-0.7c0-0.5,0-1.1,0-1.6
		c0-0.3,0-0.6,0-0.9c0-0.3,0.1-0.6,0.1-0.8c0-0.6,0-1.2,0-1.8v-1.7c0-0.6,0.1-1.1,0.1-1.7l0-0.9c0-0.3,0.1-0.6,0.1-0.8
		c0.1-0.6,0-1.2,0-1.8c0-0.5-0.1-1.1-0.1-1.7l0-0.8c0-0.1,0-0.3,0-0.4c0,0,0-0.1,0-0.1v-0.1l0.1-0.3c0-0.1,0-0.1,0.1-0.2
		c0.1-0.1,0.2-0.2,0.4-0.2C50.5,95.4,50.9,95.4,51.3,95.4L51.3,95.4z M52.6,98.4L52.6,98.4c0,0.3,0,0.5,0,0.8c0,0.5-0.1,0.9-0.2,1.4
		c0,0.2,0,0.5,0,0.7l-0.1,0.7c0,0.2-0.1,0.5-0.1,0.7c0,0.2,0,0.5-0.1,0.7c0,0.2,0,0.5-0.1,0.7c0,0.2,0,0.4,0,0.7l0,1.5
		c0,0.5,0,1,0,1.5c0,0.2,0,0.5,0.1,0.7l0.1,0.4l0.1,0l0.2,0.1l1.1-0.1l0.2,0l0.4-0.2c0.3-0.2,0.5-0.5,0.9-0.7l0.5-0.3
		c0.1-0.1,0.3-0.3,0.4-0.4c0.1-0.1,0.3-0.2,0.4-0.4l0.1-0.1l0.1-0.5c0-0.1,0-0.3,0-0.4c0-0.1,0-0.2,0-0.3l0.1-0.7
		c0.1-0.5,0.1-1,0.1-1.6c0-0.5,0-1-0.1-1.5c-0.1-0.5-0.2-1-0.4-1.5c-0.2-0.4-0.4-0.8-0.7-1.1c-0.3-0.3-0.7-0.5-1.1-0.6
		C54.2,98.6,53,98.5,52.6,98.4z"/>
	<g>
		<path class="st5" d="M84.2,65.3c2.1,0.1,3.9,1.3,5.3,2.9c0.3,0.3,0.7,0.7,0.9,1l0.6,0.8l0.1,0.2l0.1,0.1l0.3,0.4
			c0.2,0.3,0.5,0.7,0.7,1.1c0.1,0.2,0.2,0.5,0.3,0.7l0.1,0.2l0.1,0.2c0.1,0.3,0.2,0.7,0.3,1l0.2,0.8l0.2,0.9l0.2,0.9
			c0.1,0.6,0.3,1.2,0.4,1.8l0.1,0.7c0-0.2,0,0.1,0,0.1c0.1,0.3,0.1,0.6,0,0.8c0,0.1,0,0.2-0.1,0.3c-0.1,0.1-0.3,0.2-0.4,0.2
			c-0.2,0.1-0.3,0.1-0.5,0.2l-0.7,0.3l-0.5,0.2l-0.7,0.3c-0.2,0.1-0.4,0.2-0.6,0.2c-0.4,0.2-0.8,0.4-1.2,0.4c-0.1,0-0.2,0-0.3-0.1
			c-0.1-0.1-0.2-0.1-0.2-0.2L89,81.7L88.7,81l-0.1-0.1l0-0.5c0-0.4-0.2-0.8-0.2-1.2c0-0.4-0.2-0.8-0.3-1.2C88,77.5,88,77.1,88,76.7
			c0-0.3-0.1-0.7-0.1-1.1c-0.1-0.4-0.1-0.7-0.3-1.1c-0.4-0.7-0.9-1.3-1.5-1.7L85,72c-0.2-0.2-0.5-0.5-0.8-0.5
			c-0.7-0.2-1.6-0.2-2.4-0.1l-0.1,0c-0.2,0.2-0.4,0.4-0.6,0.6l-0.4,0.7c-0.1,0.1-0.3,0.2-0.3,0.3c0,0.1-0.1,0.2-0.2,0.3l-0.1,0.1
			c-0.2,0.2-0.2,0.5-0.3,0.7l-0.2,1c-0.2,0.8-0.1,1.7-0.1,2.6c0,0.9,0,1.8,0.1,2.7c0.1,0.8,0.2,1.7,0.4,2.5c0.5,2.3,1.1,4.6,2.4,6.6
			c0.3,0.5,0.6,0.9,0.9,1.4l0.7,1.4c0.5,1,1,1.9,1.7,2.7c0.8,1,1.5,1.9,2.1,3l0.2,0.4c0.2,0.2,0.4,0.4,0.6,0.7
			c0.3,0.4,0.5,0.8,0.7,1.2c0.4,1,0.8,2,1.3,3c0.6,1.1,0.9,2.3,1.3,3.5c0.2,0.6,0.3,1.1,0.4,1.7c0.1,0.3,0.1,0.5,0.1,0.8
			c0.4,1.2,0.4,2.4,0.6,3.6c0.1,1.2,0.1,2.4,0.1,3.5c0,1.1-0.8,2.1-1.4,3c-0.7,0.9-1.4,1.7-2.3,2.4l-0.8,0.5
			c-0.3,0.2-0.5,0.3-0.8,0.4c-0.3,0.1-0.5,0.2-0.8,0.3c-0.2,0-0.5,0-0.7,0.1h-0.2l-0.1,0.1l-0.6,0.2l-0.3,0.1
			c-0.4,0.1-0.7,0.2-1.1,0.2c-0.7,0.1-1.3,0.1-1.8,0.1h-1.5l-0.2,0.1c-0.4,0-0.7-0.1-1.1-0.2c-0.8-0.3-1.7-0.6-2.4-1.1
			c-0.8-0.5-1.6-1-2.2-1.8c-0.5-0.7-0.8-1.7-1.1-2.5c-0.3-0.9-0.7-1.9-0.8-2.9c-0.1-0.9-0.1-1.8-0.2-2.7c-0.1-0.5,0-0.9-0.1-1.4
			c-0.1-0.4-0.2-0.9-0.2-1.3c-0.1-0.9,0.2-1.7,0-2.6c0-0.1,0-0.2,0-0.3c0-0.1-0.1-0.1-0.1-0.2l0.1-0.4c0-0.2,0.1-0.5,0.3-0.6
			c0.3-0.1,0.4,0,0.6,0.1c0.4,0.1,0.7,0.1,1.1,0.1c0.7,0,1.4,0,2,0.1l0.8,0.1c0.3,0,0.5,0.1,0.8,0.2c0.1,0.1,0.2,0.1,0.2,0.2
			c0.1,0.1,0.3,0.2,0.3,0.5c0,0.7-0.1,1.4,0,2c0,0.7,0.1,1.4,0.1,2c0.1,1.3,0.4,2.6,0.6,3.9c0.1,1,0.4,1.9,1,2.7
			c0.3,0.1,0.6,0.2,0.8,0.3c0.7,0.1,1.3,0.2,1.9,0.2c0.7,0,1.4-0.3,2-0.5l0.4-0.2l0.1,0c0.3-0.3,0.6-0.7,0.8-1.2l0.2-0.6l0-0.1v-0.2
			c0-0.4,0.1-0.7,0.1-1.1c0-1.6-0.1-3.3-0.4-4.9c-0.2-0.8-0.5-1.5-0.8-2.3c-0.1-0.3-0.3-0.6-0.4-0.9l-0.2-0.4l-0.2-0.4
			c-0.6-0.9-1.1-1.9-1.8-2.8c-0.3-0.5-0.6-0.9-0.8-1.5c-0.2-0.5-0.5-0.9-0.7-1.4l-0.3-0.7L81,98.6l-0.6-0.8L79.8,97
			c-0.4-0.6-1-1.1-1.4-1.7c-0.9-1.1-1.5-2.4-2.1-3.7c-0.3-0.7-0.7-1.4-0.9-2.1l-0.1-0.3c-0.5-0.8-0.9-1.7-1.1-2.6
			c-0.2-1.1-0.4-2.2-0.6-3.3c-0.3-1.2-0.5-2.4-0.6-3.7c-0.1-1.2,0-2.4,0.1-3.7c0.1-1.3,0.5-2.4,0.9-3.7c0.1-0.5,0.3-1,0.5-1.5
			c0-0.2,0.1-0.4,0.2-0.6l0.6-1.2c0.2-0.3,0.3-0.7,0.7-0.9c0.1-0.1,0.2-0.3,0.3-0.3l0.3-0.2l0.6-0.4c0.5-0.3,1-0.6,1.5-0.9
			c0.5-0.3,1-0.6,1.6-0.7c0.3,0,0.6-0.1,0.8-0.1l0.1,0c0.4-0.1,1-0.1,1.4-0.1L84.2,65.3L84.2,65.3z"/>
		<path class="st5" d="M99.4,65.1c0.5,0,0.9,0.1,1.3,0.2c0.4,0.1,0.8,0.1,1.3,0.1c1.1,0,2.1,0,3.2,0.2c1,0.1,2,0.1,3,0.2
			c1,0.1,2,0,2.9,0.2c1,0.2,1.9,0.4,2.9,0.5c0.5,0,1,0,1.5,0.1c0.5,0.1,1,0.2,1.4,0.2c0.5,0,1,0.1,1.5,0.2c0.4,0.1,0.8,0.1,1.3,0.1
			c0.3,0,0.7,0,1,0.1l0.7,0.2c0.4,0.1,0.7,0.1,1.1,0.1l0.3,0l0.4,0l0.2,0l0.1,0.1c0.1,0,0.2,0.1,0.3,0.3c0.1,0.1,0.1,0.2,0.1,0.3
			c0,0.4-0.1,0.8-0.2,1.2c-0.1,0.5-0.2,0.9-0.2,1.5l0.1,1.1v0.5c0,0.1,0,0.2-0.1,0.3l-0.1,0.1l-0.1,0.2l0,0.3c0,0.3-0.3,0.5-0.6,0.4
			c-0.2-0.1-0.4-0.1-0.6-0.2l-0.3,0c-0.4-0.1-0.9-0.1-1.4-0.1c-1-0.1-2-0.4-3-0.5l-3.1-0.4l-0.7-0.1c-0.1,0.3,0,0.7,0,1
			c0.1,0.5,0.1,0.9,0.1,1.4c0,1.1,0.1,2.1,0,3.2l0,0.9c0.2,1,0.2,1.9,0.4,2.9c0.1,1.1,0.3,2.1,0.3,3.2V86c0,0.2,0.1,0.5,0.1,0.7
			l-0.1,0.9l0,0.7c0,1-0.2,2-0.1,3c0,0.5,0,1,0,1.5c0,0.5,0.1,1,0.1,1.4c0,1,0.1,2,0,3c-0.1,0.5-0.2,1-0.2,1.5c0,0.5,0,1,0.1,1.5
			c0.1,1,0,2.1,0,3.1l0,0.2c0,0.1,0.1,0.2,0,0.3c-0.1,0.3,0.1,0.7,0,1c-0.1,0.3-0.1,0.7-0.1,1.1l-0.2,2.3c0,0.4-0.1,0.9-0.1,1.3v1.2
			c0,0.8,0.1,1.6,0,2.3c-0.1,0.8-0.2,1.5-0.3,2.3c-0.1,0.8-0.2,1.5-0.2,2.3c0,0.4,0,0.7,0,1.1c0,0.4-0.1,0.7-0.1,1l0,0.3v0.1l0,0.2
			l0.2,0.5c0.2,0.4,0.4,0.7,0.2,1.2c-0.1,0.2-0.3,0.2-0.4,0.2l-0.3-0.1h-0.3l-0.4,0.1l-0.8-0.1H110c-0.5,0-1,0-1.5-0.1
			c-0.3-0.1-0.5,0-0.8-0.1h-0.7c-0.3,0.1-0.4-0.2-0.4-0.3l-0.1-0.2c-0.1-0.2-0.1-0.3-0.2-0.5c0-0.4,0.1-0.8,0.1-1.2
			c0-0.4,0-0.8,0.1-1.2c0.2-0.8,0.1-1.8,0.2-2.7c0.1-1.8,0.5-3.6,0.5-5.5c0-0.9,0.1-1.8,0.1-2.8c0-0.9,0-1.8,0.2-2.7
			c0.2-0.8,0.4-1.7,0.3-2.6c0-0.4,0-0.9,0-1.3c0-0.5,0.2-0.9,0.2-1.4c0.2-1.2,0.1-2.3,0.1-3.5c-0.1-1.2-0.1-2.4-0.1-3.7
			c0-0.8,0-1.7,0.1-2.5l-0.1-0.9c-0.1-0.1-0.1-0.3-0.1-0.5l0-0.7l-0.1-1.8l0-0.2l0-0.6l-0.1-0.6c-0.1-0.8-0.2-1.7-0.2-2.5
			c0-0.7-0.1-1.3-0.2-2c0-0.5-0.1-0.9-0.1-1.4l0-1.5c0-1.1-0.2-2.1-0.3-3.2c-0.1-0.5-0.1-1-0.1-1.5l0.1-1l-0.2,0l-1.3-0.1
			c-0.5-0.1-1-0.1-1.6-0.1l-4.8-0.1c-0.1,0-0.2,0-0.3-0.1l-0.3,0c-0.2,0-0.4-0.2-0.5-0.4c-0.1-0.3,0-0.6,0-0.9c0-0.2,0-0.4,0-0.7
			c0-0.4,0.1-0.8,0.2-1.2c0-0.2,0.1-0.4,0.2-0.6l0.1-0.5l0-0.2l0-0.2l0.1-1.1c0-0.3,0.4-0.4,0.6-0.3L99.4,65.1L99.4,65.1z"/>
		<path class="st5" d="M137.9,66.2c1.1,0,2.2-0.1,3.1,0.4l0.2,0.2l0.8,0c1.1,0.1,2.2,0.5,3,1.3c0.6,0.6,1.2,1.4,1.6,2.1
			c0.5,0.8,1,1.6,1.3,2.4c0.5,1,0.8,2.1,1.2,3.2c0.4,1,0.7,2.1,0.8,3.2c0.2,1.2,0.2,2.5,0.4,3.7l0,0.1l0,0.1l0.1,0.4l0.1,0.8
			c0.1,0.7,0.2,1.3,0.2,2c0,1.2,0,2.4,0,3.6v2.1c0,0.5,0,1.1,0,1.6l0.1,2.5l0,0.5c0.1,2.5,0.1,5.1,0.1,7.6c0,0.6-0.1,1.1-0.1,1.7
			l0,1.7c0,1.2,0,2.4-0.2,3.6c-0.1,0.6-0.1,1.3-0.3,1.9c-0.1,0.6-0.3,1.1-0.4,1.7c-0.1,0.3-0.1,0.7-0.1,1c-0.1,0.2-0.2,0.4-0.2,0.5
			c-0.1,0.5-0.4,1-0.7,1.4c-0.3,0.4-0.7,0.9-1.1,1.3l-0.1,0.1c-0.3,0.4-0.7,0.8-1.2,1.2c-0.3,0.3-0.7,0.6-1.1,0.8l-0.3,0.1l-0.2,0.1
			c-0.6,0.3-1.1,0.6-1.7,0.8h-0.1L143,122l-1.1,0.5c-0.6,0.3-1.3,0.4-2,0.4c-0.8,0-1.5-0.1-2.3-0.2l-1.3-0.2
			c-0.1-0.1-0.6-0.1-0.1-0.1c-1.2-0.2-2.6-0.4-3.7-1.1l-0.6-0.4c-0.2-0.1-0.3-0.2-0.5-0.4c-0.4-0.4-0.7-0.8-1-1.2
			c-0.6-0.8-1.2-1.7-1.5-2.7c-0.2-0.5-0.4-1.1-0.6-1.6c-0.2-0.6-0.3-1.1-0.4-1.7c-0.1-0.6-0.1-1.1-0.2-1.7c-0.1-0.5-0.3-1-0.3-1.5
			c0-0.3-0.1-0.6-0.1-0.9v-0.9c0-0.6,0-1.2,0-1.7c0-0.3,0-0.5-0.1-0.8l-0.2-0.7c-0.1-0.6,0-1.2,0-1.8c0-1.2,0-2.5,0-3.7
			c0-0.6-0.2-1.2-0.2-1.8l0-1.9l0-2c0-0.6,0.1-1.1,0.1-1.7c0.1-1.1,0-2.3,0.1-3.4c0-0.3,0-0.6,0.1-0.8l0.2-0.4l0.1-0.4
			c0-0.2,0-0.3,0-0.5c0-0.4,0-0.7,0-1.1l0.1-1c0-0.4,0.1-0.8,0.1-1.1l0.2-1.1c0.1-0.3,0.1-0.6,0.2-0.9c0-0.8,0.3-1.5,0.4-2.3
			c0.1-0.8,0.3-1.5,0.4-2.3c0.1-0.4,0.2-0.9,0.3-1.3l0.4-1.1l0.4-1c0.1-0.3,0.3-0.5,0.4-0.8c0.2-1,0.6-1.9,1.2-2.7
			c0.7-1,1.6-1.8,2.7-2.5c0.6-0.4,1.1-0.7,1.8-1C136.7,66.3,137.3,66.2,137.9,66.2L137.9,66.2z M138.1,72.7l-0.7,0.4l-0.3,0.2
			l-0.2,0.2l-0.8,0.8l-0.1,0.2l-0.1,0.2l-0.6,1.7c-0.2,0.6-0.4,1.2-0.5,1.8l-0.3,1.7l-0.4,1.9l-0.1,0.8l0,0.2l0,0.3
			c-0.1,1.2-0.3,2.5-0.3,3.7c0,1.2-0.1,2.4-0.2,3.6c-0.2,2.5-0.3,5-0.1,7.5c0.2,2.5,0.1,5,0,7.5c0,1.2,0,2.5,0.1,3.7l0.1,0.6l0,0.2
			l0.1,0.7l0.3,1.7c0.1,0.6,0.3,1.1,0.4,1.7l0.1,0.3l0.3,0.5l0.2,0.3l0.3,0.3l0.6,0.6l0.9,0.8l0.3,0.2l0.1,0l0.4,0l0.9,0l0.4-0.1
			c0.6-0.1,1.2-0.3,1.8-0.5l0.8-0.3l0.2-0.1l0.2-0.1l0.3-0.2l0.5-0.4l0.5-0.6l0.1-0.2c0.2-0.3,0.4-0.7,0.6-1.1l0.1-0.2l0-0.1
			l0.2-0.6l0.1-0.7l0-0.2l0-0.3c0.1-1.1,0.2-2.1,0.3-3.2c0.1-1.1,0.2-2.1,0.2-3.2l0.1-1.3l-0.1-1.4c0-1.1,0-2.3,0-3.4
			c0-0.6,0-1.2,0-1.8l0-0.3l0-0.1c-0.1-0.4-0.1-0.8-0.1-1.2c0-1.2-0.1-2.5-0.1-3.7c0-1.3,0-2.5,0-3.8l-0.1-1.1l0-0.3l0-0.2l-0.2-1.3
			l0-0.1l-0.1-0.3c-0.1-0.9-0.3-1.8-0.5-2.6c-0.2-0.8-0.5-1.5-0.6-2.3c-0.1-0.8-0.2-1.6-0.4-2.4c-0.1-0.4-0.2-0.8-0.3-1.2
			c-0.1-0.3-0.1-0.6-0.2-0.9l-0.1-0.4l-0.5-0.9l-0.4-0.7l-0.4-0.3l-0.2-0.1l-0.1,0l-0.1,0l-0.4-0.1l-0.1,0l-0.5,0l-0.8,0l-0.2,0
			L138.1,72.7z"/>
		<path class="st5" d="M162.5,65.5l1.3,0l0.5,0c0.2,0,0.4,0.1,0.5,0.2c0.1,0.2,0.2,0.4,0.2,0.6l2.5,0c0.9,0.1,1.7,0.2,2.6,0.4
			c0.6,0.2,1.3,0.4,1.9,0.7c0.8,0.1,1.7,0.3,2.4,0.8c1,0.5,1.8,1.2,2.5,2.1c0.7,1,1.4,2,1.9,3.2c0.4,1,0.7,2.1,0.9,3.2l0.3,1.8
			c0.1,0.3,0,0.6,0.1,0.9c0.1,0.3,0.1,0.6,0.1,0.8c0,0.3,0.1,0.6,0.1,0.9l0.1,0.9c0.1,0.6,0.1,1.2,0.1,1.7c0,0.3-0.1,0.6-0.1,0.9
			l0,0.8l-0.1,1.6c0,0.6-0.1,1.2-0.2,1.8c-0.1,0.6-0.1,1.1-0.3,1.7c-0.3,1.1-0.7,2.4-1.4,3.3c-0.4,0.5-0.8,1-1.3,1.3
			c0,0-0.2,0.2-0.1,0.1l-0.3,0.3l-0.6,0.5l-1.5,1.1c-0.5,0.3-0.9,0.6-1.4,0.8l-0.3,0.1c0.4,0.3,0.7,0.7,1.1,1.1
			c0.2,0.2,0.4,0.5,0.6,0.7c0.2,0.2,0.4,0.4,0.6,0.6c0.3,0.5,0.7,0.9,1,1.4c0.3,0.5,0.5,1,0.6,1.5c0.3,1.1,0.6,2.2,1,3.3
			c0.2,0.5,0.4,1.1,0.6,1.6c0.1,0.5,0.2,1.1,0.3,1.6c0.2,1.2,0.4,2.5,0.6,3.7l0.4,1.9l0.3,1.8l0.4,1.7c0.1,0.3,0.1,0.6,0.2,0.9
			l0,0.1c0.1,0.4,0.1,0.9,0,1.4c-0.2,0.5-0.7,0.9-1.4,0.9h-0.3c-0.3,0-0.6,0.1-0.9,0.2c-0.6,0.1-1.2,0.1-1.7,0.2
			c-0.3,0.1-0.6,0.1-0.9,0.2c-0.3,0.1-0.5,0.2-0.8,0.1c-0.5-0.2-0.6-0.9-0.6-1.3l0-0.2l0-0.6c0,0.3,0-0.2,0-0.2v-0.3l0-0.7
			c0-0.4-0.1-0.9-0.1-1.3l0-0.3c-0.3-1-0.6-2-0.7-3.1c-0.1-1-0.4-2.1-0.7-3.1c-0.4-1.1-0.6-2.2-0.8-3.3c-0.2-1.1-0.4-2.2-0.8-3.3
			c-0.3-0.9-0.6-1.7-1.2-2.5c-0.3-0.4-0.6-0.7-0.9-1c-0.4-0.3-0.7-0.6-1.1-0.8c-0.4-0.3-2.4-0.3-2.9-0.2l-0.6,0c0,0-0.1,0-0.1,0.1
			l0,0.4l0,0.6l0,1.5c0,0.5,0.1,0.9,0.1,1.4l0,1.5l0.1,3.1c0,1.1,0,2.1,0.1,3.2l0.2,2.9v0.7c0,0.1,0,0.4,0,0.1
			c0.1,0.4,0.1,0.8,0.1,1.3c0,0.5,0.1,1,0.1,1.5c0,0.2,0,0.5,0,0.7v0.5c0,0.3,0,0.6,0,0.8c0.1,0.2,0.1,0.4,0,0.6
			c0,0.2-0.3,0.4-0.5,0.4c-0.5,0-1,0-1.5,0.1c-0.5,0.2-1,0.1-1.4,0.1h-1.8c-0.5,0-0.9,0.1-1.4,0.1l-0.2-0.1c-0.2,0-0.5-0.2-0.5-0.5
			l0-0.2l0-0.2c0-0.2,0-0.2,0.1-0.5c0-0.5,0.1-1.1,0.1-1.6c0-0.5,0-1-0.1-1.5c0-0.6-0.2-1.1-0.2-1.7c0-0.4-0.1-0.9-0.1-1.3
			c0-0.9,0-1.9,0-2.9c0-1,0.2-2.1,0.2-3.1c0-0.5,0.2-1.1,0.2-1.6c0-0.5,0.2-1,0.2-1.6l0.1-1.6l0-0.8l-0.1-0.5
			c-0.1-0.6-0.1-1.2-0.1-1.7c0-0.5-0.1-1-0.1-1.5c0-1.1,0-2.3-0.1-3.4c0-0.7,0-1.3,0-2c0.1-0.6,0.2-1.2,0.2-1.8
			c0.1-1.3,0-2.5-0.1-3.8v-3.7c0-1.2,0.1-2.4,0.2-3.6l0.1-1.9c0-0.6,0.2-1.2,0.2-1.8c0.1-1.3,0.1-2.6,0-3.8
			c-0.1-1.2-0.2-2.4-0.1-3.6l0.1-1.8c0-0.3,0-0.6,0.1-0.9c0-0.1-0.1-0.2,0-0.3v-0.2l0.1-0.6c0-0.2,0-0.3,0.1-0.5
			c0.2-0.3,0.5-0.3,0.8-0.4C160.7,65.5,161.6,65.5,162.5,65.5L162.5,65.5z M165.4,71.9l0,0.1c0.1,0.5,0,1,0,1.6c0,1-0.3,2-0.4,3
			c-0.1,0.5,0,1.1-0.1,1.6l-0.2,1.6c-0.1,0.5-0.1,1-0.2,1.5c0,0.5-0.1,1-0.1,1.6c-0.1,0.5-0.1,1-0.1,1.5c-0.1,0.4,0,1,0,1.4l0,3.3
			c0,1.1,0,2.2,0,3.2c0,0.5,0.1,1,0.2,1.5l0.1,0.8l0.1,0l0.5,0.2l2.4-0.2l0.5-0.1l0.8-0.5c0.6-0.5,1.2-1,1.8-1.4l1.1-0.7
			c0.3-0.2,0.5-0.5,0.8-0.8c0.2-0.3,0.6-0.5,0.8-0.8l0.2-0.1l0.2-1c0.1-0.2,0-0.6,0-0.8c0-0.2,0-0.5,0-0.7l0.2-1.5
			c0.1-1.1,0.1-2.2,0.1-3.4c0-1.1,0-2.2-0.2-3.2c-0.2-1.1-0.4-2.2-0.9-3.3c-0.3-0.8-0.8-1.7-1.4-2.3c-0.6-0.7-1.5-1.1-2.4-1.3
			C168.6,72.4,166.2,72.2,165.4,71.9z"/>
		<path class="st5" d="M208.1,66.5c0.2-0.1,0.6,0,0.8,0c0.3,0,0.6,0,0.9,0.1c0.7,0.1,1.4,0,2.1,0c0.5,0,1.4-0.2,1.7,0.3
			c0.1,0.2,0.1,0.6,0,0.8l0,0.4c0,0.1-0.1,0.3-0.1,0.4c0,0.4-0.1,0.7-0.2,1.1c-0.1,0.3-0.2,0.6-0.3,0.9c-0.1,0.4-0.3,0.7-0.5,1.1
			l-0.1,0.7c-0.2,1.1-0.5,2.1-0.7,3.2c-0.5,2.4-1.6,4.4-2.1,6.8c-0.1,0.6-0.4,1.1-0.5,1.7c-0.2,0.6-0.4,1.1-0.5,1.6
			c-0.2,0.6-0.4,1.2-0.7,1.8l-0.2,0.3l-0.1,0.3l-0.4,1.1l-0.1,0.3l-0.1,0.4l-0.2,0.8l-0.3,1.7l-0.4,1.8c-0.1,0.5-0.1,1.1-0.3,1.6
			c-0.4,1.1-0.7,2.3-1.2,3.3l-0.2,0.5l-0.1,0.2c-0.1,0.2-0.1,0.4-0.1,0.7c-0.1,0.3-0.1,0.6-0.3,0.8l-0.2,0.3
			c-0.1,0.2-0.2,0.3-0.3,0.4c0,0.6,0.1,1.1,0.1,1.7c0,0.8,0,1.6,0,2.5c0,0.7,0,1.3,0,2c0,0.8,0.1,1.6,0.1,2.4l0.1,4.8l0,2.4v1.2v0.2
			c0.2,0.5,0.4,1.1,0.4,1.7c0,0.3-0.1,0.7-0.4,0.8c-0.4,0.1-0.7,0-1-0.2l-1-0.2l-0.2,0l-0.4,0l-2.2,0h-0.8c-0.4,0-0.7-0.3-0.8-0.6
			c-0.1-0.2,0-0.6,0-0.8c0-0.4,0-0.8,0-1.2v-0.1l0-0.6l0-0.6l0-0.3v-0.3l0-1.1l0-0.8c-0.1-0.3-0.1-0.7-0.1-1c0-0.4-0.1-0.7-0.1-1
			c0-0.4,0.1-0.8,0.1-1.1l-0.1-1.2l-0.2-1.2c-0.1-0.8-0.1-1.6,0-2.5c0-0.4,0-0.8-0.1-1.2l-0.1-1.1c0-0.4-0.1-0.7-0.1-1.1
			c0-0.2,0.1-0.4,0.2-0.7l-1,0c-0.3,0-0.5-0.3-0.4-0.5l0.1-0.4l-0.1-0.1c-0.1-0.1-0.2-0.3-0.1-0.5c0-0.2-0.2-0.4-0.2-0.7
			c-0.1-0.3-0.1-0.6-0.2-0.9l-0.3-0.7c-0.1-0.3-0.2-0.6-0.4-0.9c-0.1-0.2-0.3-0.5-0.4-0.8c-0.2-0.6-0.3-1.2-0.5-1.7
			c-0.3-1.2-1-2.2-1.4-3.4c-0.2-0.6-0.3-1.1-0.5-1.7c-0.1-0.5-0.3-1-0.4-1.5c-0.1-0.6-0.3-1.1-0.6-1.7c-0.2-0.5-0.4-1-0.5-1.5
			c-0.4-1.1-0.7-2.3-1-3.4c-0.2-0.6-0.3-1.2-0.6-1.8c-0.2-0.5-0.5-1-0.6-1.5l-0.4-1.7c-0.1-0.5-0.4-1-0.4-1.5
			c-0.1-0.6-0.2-1.2-0.5-1.8c-0.2-0.5-0.3-1.1-0.5-1.6c-0.1-0.3-0.1-0.7-0.2-1l-0.3-0.8l-0.4-0.8l-0.1-0.1l-0.2-0.5
			c0-0.1,0-0.2,0-0.2l-0.3-0.8c-0.2-0.5-0.3-1.2,0.3-1.5c0.4-0.2,0.9,0,1.4,0l2.4,0c0.1,0,0.3,0,0.4,0.1l0.1,0
			c0.1-0.1,0.3-0.1,0.5-0.1c0.3-0.1,0.5,0,0.8,0.1c0.6,0.3,1.1,1,1.2,1.6l0.5,1.8c0.1,0.5,0.3,1.1,0.4,1.6c0.2,0.5,0.4,1,0.4,1.6
			c0,0.6,0.1,1.1,0.2,1.7c0.2,1.2,0.5,2.4,0.8,3.5c0.4,1.2,0.9,2.3,1.3,3.4c0.2,0.6,0.4,1.2,0.6,1.8c0.2,0.6,0.5,1.1,0.7,1.7
			c0.3,1.1,0.5,2.3,1,3.4c0.5,1.1,0.9,2.2,1.3,3.3c0.2,0.6,0.5,1.1,0.5,1.8l0,1.1l0.2,0.7l0.1-0.4l0-0.3c0-0.3,0-0.5,0.1-0.7
			c-0.1,0.2,0.1-0.4,0.1-0.5l0.1-0.3l0.1-0.4c0,0.2,0.1-0.2,0.2-0.4l0.2-0.7l0.3-0.8l0-0.1l0-0.1l0.1-0.2l0-0.1l0-0.2l0.1-0.2
			l0.2-0.8c0.3-0.9,0.6-1.7,0.9-2.4c0.6-2,1.1-4.1,1.9-6.1c0.2-0.4,0.4-0.9,0.5-1.5c0.2-0.6,0.2-1.1,0.4-1.7c0.4-1.2,0.7-2.3,1-3.5
			c0.2-1.2,0.4-2.4,0.7-3.5c0.2-0.9,0.6-1.8,1-2.6l0.2-1C207.7,66.9,207.8,66.6,208.1,66.5L208.1,66.5z"/>
	</g>
	<path class="st6" d="M94.2,10.8c0,0.2,0.1,0.5,0.2,0.7c0.1,0.4,0.1,0.7,0.2,1.1l0.1,2.4c0.1,1.6,0.1,3.2,0,4.8
		c-0.1,1.6-0.1,3.2,0,4.9c0.1,1.6,0.1,3.2,0.2,4.9c0,1.6-0.3,3.1-0.3,4.6c0,0.6,0.1,1.1,0.1,1.7c0,2.5,0,5,0,7.5
		c0.2,1.6,0.4,3.1,0.1,4.7c-0.1,0.8-0.4,1.5-0.4,2.3c0,0.8-0.3,1.5-0.4,2.3c-0.3,1.3-0.9,2.8-2.1,3.6c-0.6,0.4-1.3,0.6-2,0.9
		c-1.3,0.6-2.6,0.1-4,0.1c-1.5,0-2.8-0.6-4-1.5c2,0.4,3.9,0.6,5.8-0.2c1.5-0.6,2.7-1.6,3.4-3c0.6-1.3,0.8-2.8,1-4.2
		c0.2-1.7,0.7-3.5,0.7-5.2c-0.1-1.6-0.3-3.2-0.3-4.8c0-1.6,0-3.2,0-4.8c-0.1-1.7,0.1-3.2,0.2-4.7c0.1-1.6,0-3.2-0.1-4.8
		c-0.1-1.6-0.1-3.2-0.1-4.8c0-1.5,0.2-3,0.2-4.5s0-3-0.3-4.5c-0.1-0.8-0.4-1.5-0.4-2.3c0-0.7,0.2-1.4,0.5-2.1c0.2-0.5,0.4-1,0.4-1.6
		C93.3,4.5,93.7,5,94,5.5c0.2,0.3,0.4,0.3,0.7,0.6c0.1,0.1,0.4,0.2,0.2,0.2c0.3,0,0.5,0.3,0.4,0.5c-0.1,0.3-0.3,0.4-0.5,0.6
		c-0.1,0.2-0.2,0.4-0.2,0.6c-0.1,0.4-0.2,0.7-0.2,1.1L94.2,10.8L94.2,10.8z M82.7,38.9c0-1,0.1-2.1-0.2-3.1c0.5,0.4,1.1,0.8,1.4,1.3
		c0.2,0.2,0.2,0.5,0.4,0.8c0.1,0.1,0.1,0.2,0.1,0.3c0.2,0.9,0,2,0.2,2.9c0.3,1.2-0.1,2.4,0,3.6c0.1,0.7,0.1,1.3,0,1.9l-0.2,1
		c-0.1,0.4-0.1,0.4-0.5,0.4c-0.3,0.1-0.6,0.2-0.8-0.1c-0.3-0.5-0.5-1.1-0.6-1.7C82.3,43.8,82.6,41.3,82.7,38.9L82.7,38.9z"/>
	<path class="st6" d="M108.3,48.8c-1-0.2-1.6-1-1.9-1.9c-0.4-1.2-0.6-2.5-0.8-3.7c-0.3-2.6-0.1-5.2-0.1-7.9c0-5.4-0.1-10.9,0.4-16.3
		c0.2-2.1,0.4-4.3,1.1-6.3c0.3-0.8,0.7-1.7,1.4-2.3c0.7-0.5,1.7-0.6,2.4,0c0.1,0.1,0.8,1.2,0.7,1.3c-0.2,0.1-0.4,0.2-0.6,0.4
		c-0.4,0.4-0.9,0.7-1,1.2c-0.5,1.4-0.9,2.8-1.2,4.3c-0.2,1.1-0.4,2.1-0.6,3.2c-0.2,1.4-0.3,2.7-0.3,4.1c-0.1,1.6-0.2,3.2-0.3,4.9
		c-0.2,3.3,0.2,6.5,0.1,9.8c-0.1,2.3-0.1,4.6,0.3,7C108,47.4,108.1,48.1,108.3,48.8L108.3,48.8z M123.8,41.1c0,0.8,0,1.6,0,2.4
		c0,1.4-0.1,2.7-0.2,4.1c-0.1,0.8-0.3,1.5-0.5,2.2c-0.2,0.7-0.2,1.4-0.4,2c-0.4,1.1-1.5,2.2-2.3,3c-0.5,0.4-0.9,0.9-1.5,1.2
		c-0.4,0.1-0.8,0.4-1.2,0.5c-0.7,0.4-1.4,0.6-2.1,0.9c-1.3,0.6-2.6,0.5-3.9,0.3c-0.6-0.1-1.2-0.1-1.7-0.3h0.2
		c-0.9-0.1-1.9-0.3-2.7-0.6c-0.5-0.2-1-0.6-1.4-0.9c2.2,0.4,4.4,0.9,6.6,0.1c2-0.7,3.9-1.7,5.4-3c2.1-1.9,3.1-4.3,3.5-7
		c0.4-2.9,0.3-6,0.3-8.9c0-3.3-0.1-6.5-0.1-9.8c0-2.8-0.1-5.5-0.4-8.3l0-0.1c-0.2-2.1-0.4-4.2-0.9-6.2c-0.5-2-1.3-3.9-2.3-5.7
		c1.1,0.8,1.8,2.2,2.4,3.3c0.7,1.3,1.2,2.7,1.7,4.1c0.9,2.4,0.8,4.8,1.2,7.2c0.4,2.2,0.3,4.5,0.3,6.7l0.1,4.4
		C123.8,35.7,124,38.4,123.8,41.1z"/>
	<path class="st6" d="M138,48.3c-1.1-0.7-1.7-1.7-2.2-2.9c-0.5-1-1-2.1-1-3.3l0-4.2c0-1.5-0.2-3-0.2-4.5c-0.1-1.6,0.1-3.2,0-4.7
		c-0.1-1.6-0.4-3.2-0.4-4.8c-0.1-3.2,0.1-6.5,0.1-9.7c0-1.6,0.1-3.2,0.2-4.9l0.2-2.6c0-0.8,0-1.5,0.1-2.3c0.1-0.4,0.1-0.7,0.1-1.1
		c0.4,0.4,0.9,0.6,1.4,1c0.2,0.2,0.8,0.7,0.8,1c0,0.2-0.1,0.2,0,0.4L137,6L137,6.3l-0.2,0.8c-0.1,0.5,0,1.2,0,1.7
		c0,0.6,0,1.3-0.1,1.9l-0.2,1.9c-0.1,0.6,0,1.2,0,1.8c-0.1,0.6-0.2,1.2-0.2,1.8c0,0.6,0,1.3,0,1.9l0,1.7c0,2.2-0.4,4.4-0.1,6.5
		c0.2,1.5,0.4,3.1,0.5,4.6c0.1,1.2,0,2.4-0.1,3.6c0,1,0.2,1.9,0.2,2.9c0.1,0.9,0.1,1.9,0.1,2.8l0,3.5c0,0.5-0.1,1.2,0.1,1.7
		C137.3,46.4,137.7,47.3,138,48.3L138,48.3z M154.8,9.4c-0.1,0.7,0,1.5,0,2.2c0,0.9-0.1,1.8-0.1,2.6c-0.2,2.1-0.3,4.1-0.2,6.2
		c0.1,3.1-0.2,6-0.5,9.1c-0.1,1.6-0.2,3.2-0.2,4.8c0,0.8-0.2,1.7-0.1,2.5c0,0.8-0.1,1.5-0.2,2.3c-0.2,1.7-0.2,3.3-0.2,5
		c0,1.2-0.2,2.4-0.4,3.6l-0.2,2.2c-0.1,0.7-0.1,1.4-0.2,2.2c-0.1,0.6-0.2,1.3-0.5,1.9c-0.6,1.3-1.8,2.4-3,3.1l-0.1,0.1
		c-1.1,0.5-2.3,0.7-3.5,0.7c-0.6,0-1.1-0.1-1.7-0.1c-0.9,0.1-1.8-0.1-2.7-0.1c-1.5-0.1-2.8-0.6-4-1.5c1.2,0.2,2.4,0.4,3.6,0.4
		c1,0,2.1,0,3.1-0.1c1.9-0.4,3.5-1.4,4.8-2.7c1.4-1.5,1.8-3.5,2-5.5c0.2-2.3,0.5-4.6,0.6-7c0.2-3.3,0.3-6.5,0.6-9.8
		c0.3-3.2,0.6-6.5,0.7-9.8c0-1.6,0-3.3,0-4.9c0-1.6,0.1-3.2,0.1-4.8l0.1-4.4c0-0.8,0.3-1.5,0.5-2.2c0.2-0.6,0.3-1.2,0.4-1.9
		c0.6,0.4,1.1,0.9,1.6,1.4c0.1,0.1,0.5,0.4,0.5,0.5c0,0.3,0.2,0.4,0,0.7C155.2,7.1,154.9,8.2,154.8,9.4z"/>
	<path class="st6" d="M168.9,52.2c0.1,0.8,0.1,1.7,0.2,2.5c0.1,0.5,0.1,1,0.1,1.5c0,0.2-0.1,0.4,0,0.6c0,0.1,0.1,0.4,0,0.5
		c-0.2,0.4-0.7,0.3-1,0.3c-0.4,0-0.8,0.1-1.3,0.1H166c-0.9,0-1.8,0-2.7,0.1c-0.3,0-0.4,0.1-0.7,0.1c-0.3,0.1-0.6,0.1-0.9-0.1
		c-0.5-0.4-0.9-0.9-1.3-1.4c1.1,0.1,2.1-0.1,3.2-0.1c0.9,0.1,1.9,0,2.6-0.6c0.7-0.5,0.9-1.4,0.9-2.2c0-1.2-0.1-2.3-0.2-3.5
		c-0.3-2.2-0.2-4.4-0.2-6.6c0-1.2-0.1-2.4-0.2-3.6c-0.1-1.2,0-2.3-0.1-3.5l0.2,0.1c0.3,0.1,0.6,0.3,0.9,0.5c0.2,0.2,0.4,0.4,0.6,0.6
		c0.1,0.2,0.5,0.6,0.5,0.8l-0.1,1.7c0,0.8,0.1,1.6,0.1,2.4l0,1.4c0.1,1.7,0,3.4,0.1,5.1C168.8,49.9,169,51.1,168.9,52.2L168.9,52.2z
		 M167.4,9.6c1.3,0.2,2.5,0.9,3.6,1.7c-0.5,0-1.1,0-1.6-0.1c0.2,1.2-0.1,2.4-0.2,3.5c-0.2,0.9-0.1,1.8-0.2,2.8
		c-0.2,2.1-0.5,4.2-0.4,6.3l0,2.4v1c0,0.4,0,0.4-0.3,0.5l-0.6,0.3c-0.3,0.2-0.7,0.3-1.1,0.4c-0.3-1.6-0.2-3.3-0.2-4.9
		c0-1.4,0-2.8,0.1-4.2c0.1-1.6,0.2-3.1,0.4-4.7C167.1,13,167.4,11.3,167.4,9.6L167.4,9.6z M176.3,34c-0.3-0.4-0.6-0.8-0.9-1.1
		c2.1-1.2,4.2-3.3,5-5.7c1-3,1.2-6.2,1-9.3c-0.2-3.2-0.6-6.7-2.1-9.6c2.1,1.8,3,4.5,3.5,7.1c0.3,1.7,0.6,3.4,0.7,5.2
		c0.1,0.9,0,1.8-0.1,2.7c0,0.7,0,1.5-0.1,2.2c-0.1,1.5-0.4,2.8-0.9,4.2c-0.2,0.6-0.6,1.2-1,1.7c-0.2,0.3-0.4,0.5-0.7,0.7
		c0,0-0.4,0.3-0.2,0.2c-0.5,0.5-1.1,1-1.7,1.4c-0.4,0.3-0.9,0.7-1.4,1c-0.3,0.2-0.3,0.1-0.5-0.2L176.3,34L176.3,34z M183.8,55.5
		c0.1,0.8,0.1,1.9-0.9,2c-0.3,0-0.6-0.1-0.9,0l-1.4,0.2c-0.5,0.1-1.1,0.1-1.5,0.4c-0.2,0-0.4,0.1-0.6,0.1H178l-0.3-0.4
		c-0.1-0.1-0.3-0.2-0.4-0.3c-0.4-0.4-0.7-0.7-1.2-0.9c1-0.1,2-0.2,3-0.4c0.9-0.1,1.7-0.4,2.2-1.2c0.5-0.9,0.4-1.9,0.2-2.8
		c-0.2-1.1-0.4-2.1-0.6-3.2c-0.8-4.4-1.4-9.1-3.5-13.1c0.8,0.9,1.7,1.7,2.2,2.8c0.6,1.1,0.8,2.4,1.1,3.5c0.4,1.3,0.9,2.4,1.1,3.7
		c0.2,1.2,0.4,2.4,0.6,3.6C183,51.5,183.4,53.5,183.8,55.5L183.8,55.5z"/>
	<path class="st6" d="M195.9,38.1c0.3,1.3,0,2.6,0,3.9c0,0.9,0.1,1.8,0.1,2.7c0,0.4-0.1,0.8-0.1,1.2c-0.1,0.6,0.1,1.3,0,1.9
		c0,0.8-0.1,1.7-0.2,2.5c-0.1,0.7-0.1,1.5-0.1,2.2l-0.1,1.3c0,0.3-0.1,0.7-0.1,1c0,0.4,0,0.6,0,1c0,1.2-1.5,0.9-2.4,0.9
		c-0.9,0-1.8,0.1-2.7,0.1h-0.6c-0.1,0-0.4-0.1-0.5-0.1c-0.5-0.4-1.1-0.8-1.5-1.2h2c0.6,0,1.3,0.1,1.9,0c0.9-0.1,1.5-0.9,1.8-1.7
		c0.7-2,0.2-4.3,0.3-6.5c0.1-2.3,0.4-4.5,0.4-6.8c0-1.3,0-2.5,0-3.7c0.1-1.2,0.2-2.5,0.1-3.7l0.2,0.5
		C194.9,34.9,195.5,36.5,195.9,38.1L195.9,38.1z M202.9,32.1c0.1,0.4,0.1,0.6,0.1,1l-0.2,2.2c-0.4-1.3-0.9-2.6-1.3-3.8
		c-0.4-1.3-1-2.6-1.3-3.9c-0.4-1.3-0.6-2.6-0.9-4c-0.3-1.3-0.7-2.6-1.1-3.9c-0.9-2.7-1.8-5.3-2.7-8c-0.4-1.3-0.8-2.6-1.3-3.9
		c-0.2-0.6-0.5-1.2-0.7-1.8c-0.1-0.4-0.4-0.9-0.8-1.1l0-0.4c0.3,0.3,0.6,0.6,0.9,0.8l0.4,0.3c0.1,0.1,0.2,0.1,0.4,0.1
		c0.2,0.1,0.2,0.2,0.4,0.3c0.1,0.1,0.2,0.1,0.3,0.2c0.2,0.3,0.2,0.7,0.2,1l0,0.8c0,0.3,0,0.1,0.2,0.2c0.3,0.2,0.2,0.6,0.3,0.8
		L196,10c0.3,0.7,0.7,1.3,0.9,2.1l0.3,1.2l1.4,4.1c0.5,1.5,1,2.9,1.5,4.4c0.5,1.5,1,3,1.4,4.5c0.4,1.5,0.5,3.2,1,4.7L202.9,32.1
		L202.9,32.1z M216.2,6.1c0.1,0.3,0,0.6-0.1,0.9c-0.1,0.3,0,0.7-0.2,1.1l0,0.4c0,0.5,0,1-0.1,1.5c-0.2,1.5-0.6,3-0.7,4.6
		c-0.1,1.5-0.4,3-0.5,4.6c0,0.8,0,1.6-0.2,2.5c-0.1,0.5-0.2,0.9-0.2,1.4c0,0.3,0,0.7-0.1,1c-0.1,0.3-0.2,0.7-0.3,1
		c-0.1,0.7-0.1,1.5-0.2,2.2c-0.1,0.4-0.1,0.8-0.2,1.1c-0.1,0.3-0.2,0.6-0.2,1c0,0.6,0,1.1-0.1,1.6c-0.1,0.8-0.1,1.7-0.2,2.6
		c-0.1,1-0.3,1.9-0.3,2.9c0,0.6-0.1,1.2-0.1,1.8l0,1.1l0,1.6c0,0.6-0.1,1.3-0.2,1.9c-0.1,0.8,0,1.5-0.1,2.3
		c-0.1,0.8-0.1,1.6-0.2,2.5c0,0.6,0,1.1,0,1.7c0,1.1-0.1,2.3-0.1,3.4c0.1,1,0,2,0,3c0,0.4,0.1,0.9-0.2,1.2c-0.2,0.2-0.6,0.2-0.9,0.3
		c-0.6,0.1-1.1,0.1-1.7,0.1c-0.3,0-0.5,0-0.8-0.1c-0.4,0-0.7,0.1-1.1,0.1c-0.3,0-0.6-0.1-0.9-0.1c-0.2-0.1-0.2-0.1-0.4-0.1
		c-0.2,0.1-0.3,0-0.4,0c-0.6-0.2-1.1-0.8-1.6-1.2c0.7,0,1.5-0.1,2.2-0.1c0.7,0,1.5,0,2.1-0.2c1.1-0.3,1.7-1.4,1.7-2.5
		c0-0.8,0-1.5,0-2.3l0-2.5c0-1.6-0.2-3.3,0-4.9c0.2-1.6,0.4-3.2,0.4-4.8c0-1.5-0.1-3,0.1-4.6c0.2-1.6,0.4-3.2,0.4-4.9
		c0.1-1.6,0.4-3.1,0.6-4.7c0.2-1.6,0.4-3.2,0.6-4.7c0.3-1.5,0.3-3.1,0.5-4.7c0.3-3.1,1-6.1,1.2-9.1c0.1-0.6,0.3-1.1,0.3-1.8
		c0.4,0.2,0.7,0.4,1.1,0.7c0.3,0.2,0.5,0.4,0.8,0.6c0.2,0.1,0.2,0.2,0.2,0.4C216.1,6.1,216.1,6,216.2,6.1L216.2,6.1z"/>
	<path class="st6" d="M241.3,52.7c0,0.2,0,0.5,0,0.7c0,0.7,0.1,1.3,0.1,2.1c0,0.2,0,0.5-0.2,0.7c-0.3,0.4-0.6,0.3-1,0.3
		c-1.4-0.1-2.9,0.1-4.3,0c-1.6-0.1-3.3-0.4-4.9,0c-0.6,0.1-1.3,0.2-1.9,0.4c-0.5,0.1-1.2,0.7-1.7,0.6c-0.6,0.2-1.2,0.2-1.8,0.4h-1.1
		c-0.3,0-0.6,0.2-0.9,0.2c-0.7,0.1-1-0.1-1.4-0.6c-0.3-0.4-1.2-0.9-1.3-1.4c-0.5-0.4-1-0.8-1.4-1.3c0.9,0.4,1.8,0.6,2.7,0.9
		c1.1,0.3,2.1,0.5,3.1,0.2c1-0.3,1.9-0.6,2.9-0.7c1.1-0.1,2.3-0.1,3.4,0c1.2,0.1,2.4,0,3.5,0.1c0.7,0,1.5,0.1,2.2,0
		c0.8-0.1,1.4-0.6,1.6-1.5c0.2-1-0.1-1.9,0-2.9v-0.5c0-0.4,0.1-0.3,0.1-0.7c0.3,0.3,0.6,0.5,1,0.7c0.3,0.1,0.6,0.3,0.7,0.6
		c0.1,0.2,0,0.2,0.2,0.4l0.1,0.1c0.1,0.1,0.1,0.3,0.1,0.4C241.5,52.1,241.4,52.4,241.3,52.7L241.3,52.7z M226.9,20.2
		c-0.1-1.2-0.2-2.4-0.3-3.7c-0.2-2.4-0.2-4.7-0.3-7.1c1.4,0.1,2.7-0.1,4.1-0.2c1.1-0.1,2.2,0.1,3.3-0.2c0.8-0.2,1.7-0.6,2.6-0.6
		c0.9,0,1.8,0.1,2.5-0.6c1-0.9,0.4-2.9,0.1-3.9c0.3,0.4,0.7,0.6,1.1,1c0.3,0.2,0.6,0.4,0.7,0.8c0.1,0.8,0.3,1.5,0.6,2.3
		c0.1,0.4,0.3,1.2,0,1.5c-0.2,0.2-0.5,0.3-0.7,0.3c-0.4,0.1-0.7,0-1.1,0c-0.6,0.2-1.1,0.3-1.7,0.3c-0.5,0.1-1,0.2-1.6,0.2
		c-0.8,0-1.6,0.1-2.5,0.2c-1,0-1.9,0.1-2.9,0c-0.8-0.1-1.6,0.2-2.5,0.1c0.1,1.7,0.2,3.3,0.2,5l0,2.7l0,1.2c0,0.8,0.3,1.7,0.4,2.5
		l-1.9-0.1c-0.3,0-0.2-0.2-0.2-0.4v-0.4L226.9,20.2L226.9,20.2z M228.8,43.4c0,0.3,0,0.6-0.1,0.9c-0.1,0.2-0.2,0.2-0.2,0.4l0,1.2
		l-0.1,1.3c0,0.4,0.1,0.4-0.4,0.4c-0.5,0-1,0-1.6,0c0-3-0.1-5.9,0.2-8.9c0.3-2.9,0.7-5.8,0.8-8.8c1.6,0.1,3.2,0,4.7-0.1
		c1.5-0.1,2.9-0.1,4.4-0.1c0.8,0,1.5-0.3,2-0.9c0.7-1,0.3-2.4,0.1-3.5l0.1,0.4l-0.1-0.4c-0.1-0.5,0-1.1-0.1-1.6
		c0.3,0.4,0.9,0.7,1.3,1c0.2,0.1,0.4,0.2,0.5,0.5c0.1,0.2,0,0.5,0.1,0.7c0.3,0.5,0.2,1.1,0.3,1.6l0.1,0.7c0.1,0.7,0.3,1.4,0.2,2.1
		c0,0.3-0.1,0.7-0.5,0.8c-0.5,0.1-1.1,0-1.7,0c-1.5,0-3.1,0.2-4.6,0.2l-2.9,0c-0.5,0-1.4,0.1-1.7-0.1c0,0.7-0.1,1.4-0.2,2.1
		c-0.2,1.3-0.2,2.6-0.2,3.9c0,1.7-0.2,3.4-0.4,5.1L228.8,43.4L228.8,43.4z"/>
	<path class="st6" d="M252.1,17.9c-1-2.6-2.2-5.3-2.3-8.2c0-0.8-0.2-1.7-0.4-2.5c-0.3-1.1-0.6-2.1-1.2-3.1c0.4,0.4,0.9,0.6,1.3,1
		c0.2,0.2,0.3,0.3,0.5,0.5c0.1,0.1,0.3,0.2,0.3,0.4c0.1,0.2,0,0.4,0,0.6c0,0.3,0.2,0.5,0.3,0.8l0.1,0.5l0.4,1.5c0.3,1,0.7,2,0.7,3
		c0.2,2.4,1,4.7,1.8,6.9c0.4,1.1,0.8,2.3,1.2,3.4c0.2,0.4,0.5,1.1,0.4,1.6l-0.5,1.6C253.8,23.3,253.1,20.5,252.1,17.9z M271.3,7.7
		c-0.2,0.8-0.3,1.6-0.7,2.4c-0.1,0.3-0.3,0.5-0.3,0.8l-0.1,0.6c-0.6,3.6-2,7-3,10.7c-0.4,1.6-1.2,3.1-1.8,4.7
		c-0.4,1-0.5,1.9-0.7,2.9c-0.5,2.1-0.8,4.2-1.8,6.2c-0.4,0.7-0.4,1.5-0.8,2.2c-0.1,0.2-0.3,0.3-0.2,0.6l0,0.6l0.1,1.2l0,2.3
		c0,1.9,0.2,3.8,0.2,5.7l0.1,3.4l0,1.7v1c0,0.2,0.1,0.4,0.2,0.7c0.1,0.3,0.2,0.6,0.2,1c0.2,1.2-1.5,0.6-2.2,0.4c-0.5-0.1-1,0-1.5,0
		h-1.7c-0.1,0-0.2,0-0.3-0.1c-0.2,0-0.2,0.1-0.4,0.1c-0.3,0.1-0.4-0.1-0.6-0.3c-0.3-0.1-0.6-0.4-0.7-0.6c-0.1-0.3-0.3-0.4-0.5-0.5
		c0.9,0,1.8-0.2,2.7,0c0.7,0.2,1.5,0.5,2.2,0.2c1.9-0.8,0.5-2.9,0.6-4.3c0-4-0.2-7.9-0.2-11.9l0-2.4c0-0.6,0.4-1.3,0.6-1.9
		c0.4-1.4,1-2.8,1.4-4.2c0.5-1.5,0.7-3,1.1-4.5c0.4-1.4,0.9-2.7,1.4-4.1c1.1-2.8,2.1-5.6,2.9-8.6c0.2-0.8,0.4-1.6,0.6-2.4
		c0.2-0.7,0.2-1.5,0.4-2.2c0.4-1.4,1.1-2.8,1.1-4.3l1,0.9c0.3,0.2,0.7,0.5,1,0.8C271.5,6.5,271.4,7.3,271.3,7.7z"/>
	<path d="M79.4,109.6c0-1.5,0.1-3.2-0.7-4.5c0.2,0,0.4,0.3,0.5,0.4l0.6,0.4c0.4,0.3,0.7,0.6,1.1,0.9c0.3,0.3,0.5,0.5,0.5,0.9l0,1.3
		c-0.1,2.3,0.2,4.5,0.6,6.8c-1,0-1.7-0.4-2-1.4C79.6,113,79.4,111.3,79.4,109.6v-0.3V109.6L79.4,109.6z M95.2,110.3
		c0.1,0.8,0.3,1.5,0.4,2.3c0.2,1.7,0.3,3.4,0.3,5.2c0,1.5-1,2.7-1.9,3.9c-0.7,0.9-1.6,1.5-2.5,2.1c-0.9,0.6-2,0.7-2.9,0.9
		c-1.1,0.3-2.1,0.5-3.3,0.5h-1.1c-0.3,0-0.6-0.1-0.8,0c-0.3,0.2-0.9,0-1.1-0.1l-1.1-0.5c-0.7-0.2-1.3-0.6-2-1
		c1.5,0.2,3.2,0.1,4.7-0.1c1.5-0.2,2.9-0.5,4.2-1.2c2.4-1.2,4.5-3.5,5.2-6c0.4-1.3,0.4-2.7,0.3-4c-0.1-1.6-0.4-3.2-0.7-4.8
		c-0.7-3-1.6-6-3-8.7c-1.5-2.7-3.7-4.9-5.2-7.6c-1.5-2.7-3.1-5.4-4-8.4c-0.8-2.6-1-5.5-0.7-8.2c0.1-1,0.3-2.4,1.3-3
		c1.3-0.7,2.7,0.4,3.6,1.3c-0.5,0-0.7,0.1-1,0.6l-0.5,0.7c-0.4,0.6-0.8,0.9-1,1.6l-0.1,0.5c-0.2,1.3-0.2,2.6-0.2,4
		c0,1.7,0.3,3.4,0.7,5.1c0.4,1.6,0.8,3.1,1.5,4.5c0.5,1.1,1.3,2.1,1.9,3.2c0.5,0.9,1,1.9,1.6,2.7c0.9,1.3,2,2.5,2.8,3.9
		c0.3,0.5,0.7,0.9,1.1,1.5c0.4,0.7,0.6,1.4,0.9,2.1c0.7,1.6,1.4,3.1,1.9,4.7C94.8,108.6,95,109.4,95.2,110.3L95.2,110.3z M97,80.9
		c0.1,0.3,0,0.6-0.1,0.8c-0.1,0.4-0.8,0.5-1.1,0.6l-1.2,0.6l-0.9,0.4c-0.5,0.2-1,0.5-1.6,0.5c-0.2,0-0.4-0.2-0.5-0.4
		c-0.1-0.1-0.4-0.3-0.5-0.4c-0.4-0.3-0.9-0.6-1.4-0.9c0.8-0.2,1.5-0.6,2.3-0.9c0.7-0.3,1.4-0.5,1.9-1.1c1.2-1.2,0.6-2.7,0.3-4.1
		l-0.1-0.3l0-0.1c-0.3-1.8-0.7-3.6-1.5-5.2c0.5,0.6,1,1.2,1.4,1.8c0.8,1,1.3,2.2,1.6,3.4c0.4,1.7,0.7,3.4,1.1,5.1
		C96.9,80.4,97,80.9,97,80.9L97,80.9z"/>
	<path d="M101.7,72.8c-0.2,0-0.3-0.1-0.5-0.1l-0.3,0c-0.2,0-0.4-0.3-0.6-0.4c-0.2-0.1-0.4-0.2-0.6-0.3l-1.2-0.7
		c1.3,0.1,2.6,0,3.9-0.1c0.7,0,1.4-0.1,2.1,0c0.2,0,0.4,0,0.5,0.2v0.8v0.6L101.7,72.8L101.7,72.8z M126.7,69.5
		c0.4,0.3,0,1.3-0.1,1.7c-0.1,0.4-0.2,0.9-0.2,1.4c0,0.5,0.1,1.1,0.1,1.6c0,0.3-0.3,0.5-0.2,0.8c0,0.5-0.3,0.6-0.7,0.5
		c-0.5-0.2-0.8-0.3-1.4-0.3c-0.7-0.1-1.3-0.1-2-0.2l-2.4-0.4l-3.2-0.5c-0.1,0.5,0,1,0.1,1.4l0.1,1.6c0,1.2-0.1,2.3,0,3.5
		c0.3,1.7,0.5,3.5,0.6,5.3l0,1.5c0,0.4,0.1,0.8,0.1,1.1c-0.1,0.9,0,1.7,0,2.6c-0.1,1.8-0.1,3.5,0,5.3c0,0.9,0.1,1.7,0,2.6
		c-0.1,0.8-0.2,1.6-0.1,2.4c0.2,2.4,0,4.9-0.2,7.3c-0.1,0.8-0.2,1.7-0.2,2.5c0,1.1,0.1,2.2,0,3.3c-0.1,1.7-0.6,3.4-0.5,5.1
		c0,0.4,0.1,0.9,0,1.2l-0.1,0.7c0,0.3,0.1,0.5,0.2,0.8c0.2,0.4,0.6,1.3-0.1,1.5c-0.3,0.1-0.5-0.2-0.8-0.1c-0.5,0.2-1.1,0-1.7,0h-2.1
		c-0.4-0.1-0.8-0.1-1.1-0.2c-0.4,0-0.8,0.1-1.2,0.1c-0.4-0.1-0.4-0.4-0.6-0.6c-0.2-0.3-0.4-0.5-0.7-0.8c0.5,0.1,1.1,0,1.6,0
		c0.6,0,1.2,0.2,1.9,0.2c0.8,0,1.9-0.2,2.5-0.9c0.4-0.5,0.4-1.2,0.3-1.8c-0.1-0.3-0.2-0.5-0.3-0.8l0-0.7c0.1-1.3,0.3-2.6,0.4-4
		c0.2-1.8,0.1-3.5,0.2-5.3c0-1.7,0.2-3.4,0.3-5.2c0.2-3.5,0.2-7,0.3-10.5c0-1.8,0.1-3.6,0.1-5.3c0-1.7,0-3.5-0.1-5.2
		c-0.1-0.9-0.2-1.8-0.3-2.7c-0.1-0.8-0.3-1.7-0.3-2.5c0-0.9,0.1-1.7,0-2.6c0-0.8-0.2-1.5-0.2-2.3c1.5,0.2,3.1,0.5,4.6,0.7l2.2,0.3
		c0.5,0.1,0.9,0.3,1.4,0.2c1.1-0.2,1.5-1.1,1.7-2.1c0.2-1.2,0.4-2.5,0.4-3.8v-0.6l1.7,1.2c0.2,0.1,0.5,0.3,0.6,0.4
		C127,69.2,126.7,69.4,126.7,69.5L126.7,69.5z"/>
	<path d="M137,114.6c-1.1-0.2-1.7-1.1-2.1-2.1c-0.4-1.3-0.7-2.7-0.8-4c-0.3-2.8-0.2-5.7-0.1-8.5c0-5.9-0.1-11.7,0.4-17.6
		c0.2-2.3,0.4-4.6,1.2-6.8c0.3-0.9,0.8-1.9,1.6-2.5c0.7-0.6,1.8-0.7,2.6,0c0.1,0.1,0.9,1.3,0.7,1.4c-0.2,0.1-0.4,0.3-0.6,0.4
		c-0.4,0.4-0.9,0.8-1.1,1.3c-0.6,1.5-1,3-1.3,4.6c-0.2,1.1-0.5,2.3-0.6,3.4c-0.2,1.5-0.3,3-0.4,4.5c-0.1,1.8-0.2,3.5-0.3,5.3
		c-0.2,3.5,0.2,7.1,0.1,10.6c-0.1,2.5-0.1,5,0.3,7.5C136.6,113,136.8,113.8,137,114.6L137,114.6z M153.7,106.3c-0.1,0.9,0,1.8,0,2.6
		c0,1.5-0.1,3-0.3,4.5c-0.1,0.8-0.4,1.6-0.5,2.4c-0.2,0.7-0.2,1.5-0.5,2.2c-0.4,1.2-1.6,2.4-2.5,3.2c-0.5,0.5-1,1-1.6,1.3
		c-0.4,0.2-0.8,0.4-1.3,0.5c-0.7,0.4-1.5,0.6-2.2,0.9c-1.4,0.6-2.8,0.5-4.3,0.3c-0.6-0.2-1.2-0.2-1.9-0.3h0.2c-1-0.2-2-0.3-2.9-0.7
		c-0.6-0.2-1-0.6-1.5-0.9c2.4,0.5,4.8,0.9,7.1,0.2c2.1-0.8,4.2-1.8,5.8-3.3c2.2-2,3.3-4.6,3.7-7.5c0.5-3.2,0.3-6.4,0.3-9.6
		c0-3.5-0.1-7.1-0.2-10.6c0-3-0.1-6-0.4-9l0-0.1c-0.2-2.3-0.4-4.5-1-6.8c-0.6-2.1-1.4-4.2-2.5-6.1c1.2,0.9,1.9,2.3,2.6,3.6
		c0.8,1.4,1.3,2.9,1.9,4.4c1,2.5,0.9,5.2,1.3,7.8c0.4,2.4,0.3,4.8,0.3,7.3l0.1,4.8C153.7,100.3,153.9,103.3,153.7,106.3z"/>
	<path d="M167.6,118.2c0.1,0.9,0.1,1.8,0.2,2.7c0.1,0.5,0.1,1.1,0.1,1.6c0,0.2-0.1,0.4,0,0.6c0,0.2,0.1,0.4,0,0.5
		c-0.2,0.4-0.8,0.3-1.1,0.3c-0.5,0-0.9,0.1-1.4,0.2h-0.9c-1,0-1.9,0-2.9,0.1c-0.3,0-0.4,0.1-0.7,0.2c-0.4,0.2-0.6,0.1-0.9-0.2
		c-0.5-0.4-0.9-1-1.4-1.5c1.1,0.1,2.3-0.1,3.4-0.1c1,0.1,2,0,2.8-0.6c0.8-0.5,1-1.5,1-2.4c0-1.3-0.1-2.5-0.2-3.8
		c-0.3-2.4-0.2-4.7-0.3-7.1c0-1.3-0.1-2.6-0.2-3.8c-0.1-1.3,0-2.5-0.1-3.8l0.2,0.1c0.3,0.1,0.6,0.3,0.9,0.5c0.2,0.2,0.4,0.4,0.6,0.7
		c0.1,0.2,0.5,0.6,0.5,0.8l-0.1,1.9c0,0.8,0.1,1.7,0.1,2.6l0.1,1.5c0.1,1.8,0,3.7,0.1,5.5C167.5,115.7,167.7,117,167.6,118.2
		L167.6,118.2z M166,72.2c1.4,0.2,2.7,1,3.9,1.8c-0.6,0-1.1,0-1.7-0.2c0.2,1.3-0.1,2.5-0.3,3.8c-0.2,1-0.1,2-0.2,3
		c-0.2,2.3-0.5,4.5-0.5,6.8l0,2.6v1.1c0,0.4,0,0.4-0.3,0.6l-0.6,0.3c-0.4,0.2-0.7,0.4-1.2,0.5c-0.4-1.7-0.2-3.5-0.2-5.3
		c0-1.5,0-3,0.1-4.5c0.1-1.7,0.2-3.4,0.4-5C165.6,75.8,166,74,166,72.2L166,72.2z M175.6,98.5c-0.3-0.4-0.6-0.8-1-1.2
		c2.3-1.3,4.5-3.6,5.4-6.1c1.1-3.2,1.3-6.7,1-10c-0.2-3.5-0.7-7.2-2.3-10.4c2.3,1.9,3.3,4.9,3.8,7.7c0.3,1.9,0.6,3.7,0.8,5.6
		c0.1,1,0,1.9-0.1,2.9c0,0.8-0.1,1.6-0.1,2.4c-0.1,1.6-0.4,3.1-1,4.6c-0.3,0.7-0.6,1.3-1.1,1.9c-0.2,0.3-0.5,0.5-0.8,0.7
		c0,0-0.4,0.3-0.3,0.2c-0.6,0.6-1.2,1.1-1.9,1.5c-0.5,0.4-1,0.8-1.5,1c-0.3,0.2-0.3,0.1-0.5-0.2L175.6,98.5L175.6,98.5z
		 M183.6,121.8c0.1,0.9,0.1,2-1,2.2c-0.3,0-0.6-0.1-0.9,0l-1.5,0.2c-0.5,0.1-1.2,0.1-1.6,0.4c-0.2,0-0.4,0.1-0.7,0.1h-0.5l-0.3-0.4
		c-0.1-0.2-0.3-0.2-0.4-0.3c-0.4-0.4-0.8-0.8-1.2-1c1.1-0.2,2.2-0.2,3.2-0.5c0.9-0.2,1.9-0.5,2.4-1.3c0.6-0.9,0.4-2,0.2-3
		c-0.2-1.2-0.5-2.3-0.7-3.4c-0.8-4.8-1.5-9.8-3.7-14.2c0.8,1,1.8,1.9,2.4,3c0.7,1.2,0.8,2.6,1.2,3.8c0.4,1.4,1,2.6,1.2,4
		c0.2,1.3,0.4,2.6,0.7,3.9C182.8,117.5,183.3,119.6,183.6,121.8L183.6,121.8z"/>
	<path d="M195.6,81.1c-1.1-2.8-2.4-5.7-2.5-8.8c0-0.9-0.2-1.8-0.5-2.7c-0.3-1.1-0.7-2.3-1.3-3.3c0.4,0.4,1,0.7,1.4,1.1
		c0.2,0.2,0.4,0.4,0.5,0.6c0.1,0.1,0.3,0.2,0.4,0.4c0.1,0.2,0.1,0.5,0,0.6c0,0.3,0.2,0.6,0.3,0.8l0.2,0.6l0.4,1.6
		c0.3,1.1,0.7,2.1,0.8,3.2c0.2,2.6,1.1,5.1,2,7.5c0.5,1.2,0.8,2.5,1.3,3.7c0.2,0.4,0.6,1.2,0.4,1.7l-0.5,1.7
		C197.5,86.9,196.7,84,195.6,81.1z M216.3,70.1c-0.2,0.9-0.3,1.7-0.7,2.6c-0.1,0.3-0.3,0.5-0.4,0.8l-0.1,0.7
		c-0.7,3.9-2.2,7.6-3.3,11.5c-0.5,1.7-1.3,3.4-1.9,5.1c-0.4,1-0.6,2.1-0.8,3.2c-0.5,2.3-0.9,4.6-1.9,6.6c-0.4,0.8-0.5,1.6-0.9,2.4
		c-0.1,0.3-0.3,0.4-0.3,0.7l0,0.6l0.1,1.3l0,2.5c0,2,0.2,4.1,0.2,6.1l0.1,3.6l0,1.8v1c0,0.2,0.1,0.5,0.2,0.8
		c0.1,0.3,0.2,0.7,0.2,1.1c0.2,1.3-1.7,0.6-2.3,0.5c-0.5-0.1-1.1,0-1.7,0H201c-0.1,0-0.2,0-0.3-0.1c-0.2,0-0.2,0.1-0.4,0.2
		c-0.4,0.1-0.4-0.2-0.7-0.3c-0.3-0.2-0.7-0.4-0.8-0.7c-0.1-0.3-0.3-0.4-0.5-0.5c0.9,0,2-0.2,2.9,0c0.8,0.2,1.6,0.5,2.4,0.2
		c2-0.9,0.6-3.2,0.6-4.6c0-4.3-0.2-8.6-0.3-12.9l-0.1-2.6c0-0.7,0.5-1.4,0.7-2.1c0.4-1.6,1.1-3,1.6-4.5c0.5-1.6,0.8-3.3,1.2-4.9
		c0.4-1.5,1-2.9,1.5-4.4c1.2-3,2.3-6.1,3.1-9.3c0.2-0.9,0.4-1.7,0.6-2.6c0.2-0.8,0.2-1.6,0.5-2.4c0.5-1.5,1.1-3,1.2-4.6l1.1,0.9
		c0.3,0.3,0.7,0.5,1,0.8C216.6,68.8,216.4,69.7,216.3,70.1z"/>
	<g>
		<g>
			
				<radialGradient id="SVGID_1_" cx="-4116.9819" cy="4191.7173" r="45.7568" gradientTransform="matrix(0.5005 -0.8657 0.5627 0.3253 -30.4299 -4824.542)" gradientUnits="userSpaceOnUse">
				<stop  offset="0" style="stop-color:#D1D3D4"/>
				<stop  offset="0.2993" style="stop-color:#DADCDC;stop-opacity:0.7007"/>
				<stop  offset="0.7859" style="stop-color:#F2F3F3;stop-opacity:0.2141"/>
				<stop  offset="1" style="stop-color:#FFFFFF;stop-opacity:0"/>
			</radialGradient>
			<path class="st7" d="M290.6,63.5c14.2,8.2,15.5,32.6,2.8,54.5c-12.6,21.9-34.4,32.9-48.6,24.7c-14.2-8.2-15.5-32.6-2.8-54.5
				C254.6,66.3,276.4,55.3,290.6,63.5z"/>
			<g>
				<polygon class="st5" points="278.3,51.9 216.3,80.4 237.1,87.3 				"/>
				<polygon class="st8" points="237.1,87.3 241.5,111.3 278.3,51.9 				"/>
				<polygon class="st9" points="241.5,111.3 246.5,92.1 278.3,51.9 				"/>
				<polygon class="st5" points="278.3,51.9 265.2,108.1 246.5,92.1 				"/>
			</g>
		</g>
		<g>
			<path class="st5" d="M114.4,127.2c-0.3,0-0.5-0.1-0.7-0.3c-0.8-0.9-1.5-1.9-2.1-2.8c-0.3-0.4-0.2-1,0.2-1.3
				c0.4-0.3,1-0.2,1.3,0.2c0.6,0.9,1.3,1.8,2,2.7c0.3,0.4,0.3,1-0.1,1.3C114.8,127.2,114.6,127.2,114.4,127.2z"/>
			<path class="st5" d="M156.9,147.9c-0.5,0-0.9-0.4-0.9-0.8c0-0.5,0.3-0.9,0.8-1c0.9-0.1,1.7-0.2,2.6-0.3c1.4-0.2,2.8-0.5,4.1-0.9
				c0.5-0.1,1,0.2,1.1,0.6c0.1,0.5-0.2,1-0.6,1.1c-1.4,0.4-2.9,0.7-4.3,0.9C158.8,147.7,157.9,147.8,156.9,147.9
				C156.9,147.9,156.9,147.9,156.9,147.9z M149.9,147.7c0,0-0.1,0-0.1,0c-2.3-0.3-4.6-0.8-7-1.4c-0.5-0.1-0.8-0.6-0.6-1.1
				c0.1-0.5,0.6-0.8,1.1-0.6c2.3,0.7,4.5,1.1,6.7,1.4c0.5,0.1,0.9,0.5,0.8,1C150.8,147.3,150.4,147.7,149.9,147.7z M170.3,144.2
				c-0.3,0-0.7-0.2-0.8-0.5c-0.2-0.5,0-1,0.4-1.2c1-0.5,2-1,2.9-1.5c-0.9-0.2-1.7-0.5-2.6-0.8c-0.5-0.2-0.7-0.7-0.6-1.2
				c0.2-0.5,0.7-0.7,1.2-0.6c1.4,0.5,2.7,0.9,4.2,1.2c0.3-0.2,0.6-0.4,0.8-0.6c0.4-0.3,1-0.2,1.3,0.2c0.2,0.3,0.2,0.6,0.1,0.8
				c0.1,0,0.2,0,0.3,0.1c0.5,0.1,0.8,0.6,0.7,1.1c-0.1,0.5-0.6,0.8-1.1,0.7c-0.6-0.1-1.2-0.3-1.8-0.4c-1.5,0.9-3.1,1.8-4.7,2.5
				C170.6,144.2,170.5,144.2,170.3,144.2z M136.5,143.9c-0.1,0-0.2,0-0.4-0.1c-2.1-0.9-4.2-2-6.3-3.2c-0.4-0.3-0.6-0.8-0.3-1.3
				c0.3-0.4,0.8-0.6,1.3-0.3c2,1.2,4.1,2.2,6.1,3.1c0.5,0.2,0.7,0.7,0.5,1.2C137.2,143.7,136.9,143.9,136.5,143.9z M187.4,143.1
				c-1,0-2.1,0-3.2-0.1c-0.5,0-0.9-0.5-0.8-1c0-0.5,0.5-0.9,1-0.8c1,0.1,2.1,0.1,3,0.1c1.3,0,2.6-0.1,3.8-0.1c0.5,0,0.9,0.3,1,0.8
				c0,0.5-0.3,0.9-0.8,1C190,143,188.7,143.1,187.4,143.1z M198.2,141.9c-0.4,0-0.8-0.3-0.9-0.7c-0.1-0.5,0.2-1,0.7-1.1
				c2.2-0.5,4.4-1.1,6.6-1.9c0.5-0.2,1,0.1,1.2,0.6c0.2,0.5-0.1,1-0.6,1.2c-2.3,0.8-4.6,1.4-6.8,1.9
				C198.3,141.9,198.2,141.9,198.2,141.9z M164.1,137.6c-0.1,0-0.3,0-0.4-0.1c-2.2-1.1-4.3-2.3-6.1-3.7c-0.4-0.3-0.5-0.9-0.2-1.3
				c0.3-0.4,0.9-0.5,1.3-0.2c1.8,1.3,3.7,2.5,5.8,3.5c0.5,0.2,0.6,0.8,0.4,1.2C164.8,137.4,164.5,137.6,164.1,137.6z M211.3,137.3
				c-0.3,0-0.7-0.2-0.8-0.5c-0.2-0.5,0-1,0.4-1.2c2-1,4-2.1,6-3.4c0.4-0.3,1-0.1,1.3,0.3c0.3,0.4,0.1,1-0.3,1.3
				c-2,1.3-4.1,2.4-6.2,3.5C211.6,137.3,211.4,137.3,211.3,137.3z M124.5,136.8c-0.2,0-0.4-0.1-0.5-0.2c-1.9-1.4-3.7-3-5.4-4.6
				c-0.4-0.3-0.4-0.9,0-1.3c0.3-0.4,0.9-0.4,1.3,0c1.6,1.5,3.4,3,5.3,4.4c0.4,0.3,0.5,0.9,0.2,1.3
				C125,136.7,124.8,136.8,124.5,136.8z M181.8,136.3c-0.2,0-0.5-0.1-0.7-0.3c-0.4-0.4-0.3-0.9,0-1.3c1.7-1.6,3.2-3.3,4.5-5.1
				c0.3-0.4,0.9-0.5,1.3-0.2c0.4,0.3,0.5,0.9,0.2,1.3c-1.4,1.9-3,3.7-4.7,5.4C182.2,136.2,182,136.3,181.8,136.3z M223.1,129.8
				c-0.3,0-0.5-0.1-0.7-0.4c-0.3-0.4-0.2-1,0.2-1.3c1.8-1.4,3.6-2.9,5.2-4.5c0.4-0.3,0.9-0.3,1.3,0c0.3,0.4,0.3,0.9,0,1.3
				c-1.7,1.6-3.5,3.2-5.4,4.6C223.5,129.8,223.3,129.8,223.1,129.8z M153,129.3c-0.3,0-0.5-0.1-0.7-0.3c-1.6-1.9-3-3.9-4-6
				c-0.2-0.5,0-1,0.4-1.2c0.5-0.2,1,0,1.2,0.4c0.9,2,2.2,3.9,3.7,5.6c0.3,0.4,0.3,1-0.1,1.3C153.4,129.2,153.2,129.3,153,129.3z
				 M190,125.1c-0.1,0-0.3,0-0.4-0.1c-0.5-0.2-0.7-0.8-0.4-1.2c1-2.1,1.7-4.3,2.2-6.4c0.1-0.5,0.6-0.8,1.1-0.7
				c0.5,0.1,0.8,0.6,0.7,1.1c-0.5,2.3-1.3,4.6-2.3,6.8C190.6,124.9,190.3,125.1,190,125.1z M147.1,116.8c-0.4,0-0.8-0.3-0.9-0.8
				c-0.2-1.5-0.4-3-0.4-4.5c0-0.9,0-1.8,0.1-2.7c0.1-0.5,0.5-0.9,1-0.8c0.5,0.1,0.9,0.5,0.8,1c-0.1,0.8-0.1,1.7-0.1,2.5
				c0,1.4,0.1,2.8,0.3,4.2c0.1,0.5-0.3,1-0.8,1C147.2,116.8,147.2,116.8,147.1,116.8z M192.8,111.5c-0.5,0-0.9-0.4-0.9-0.9
				c-0.1-2.3-0.6-4.5-1.4-6.5c-0.2-0.5,0.1-1,0.5-1.2c0.5-0.2,1,0.1,1.2,0.5c0.9,2.2,1.4,4.6,1.5,7.1
				C193.7,111.1,193.4,111.5,192.8,111.5C192.8,111.5,192.8,111.5,192.8,111.5z M148.5,103.1c-0.1,0-0.2,0-0.3-0.1
				c-0.5-0.2-0.7-0.7-0.5-1.2c0.9-2.3,2.1-4.4,3.6-6.3c0.3-0.4,0.9-0.5,1.3-0.1c0.4,0.3,0.5,0.9,0.1,1.3c-1.4,1.7-2.5,3.7-3.4,5.8
				C149.3,102.8,148.9,103.1,148.5,103.1z M187.9,98.7c-0.3,0-0.6-0.1-0.7-0.4c-1.4-1.8-2.9-3.4-4.7-4.9c-0.4-0.3-0.5-0.9-0.1-1.3
				c0.3-0.4,0.9-0.5,1.3-0.1c1.9,1.5,3.6,3.2,5,5.2c0.3,0.4,0.2,1-0.2,1.3C188.3,98.6,188.1,98.7,187.9,98.7z M157.2,92.3
				c-0.3,0-0.6-0.1-0.8-0.4c-0.3-0.4-0.2-1,0.3-1.3c2-1.3,4.2-2.4,6.6-3c0.5-0.1,1,0.1,1.1,0.6c0.1,0.5-0.1,1-0.6,1.1
				c-2.2,0.6-4.2,1.6-6.1,2.8C157.5,92.3,157.3,92.3,157.2,92.3z M177.1,90c-0.1,0-0.2,0-0.4-0.1c-2.1-0.9-4.3-1.4-6.4-1.5
				c-0.5,0-0.9-0.4-0.9-1c0-0.5,0.4-0.9,1-0.9c2.3,0.1,4.7,0.7,7.1,1.7c0.5,0.2,0.7,0.7,0.5,1.2C177.8,89.8,177.5,90,177.1,90z"/>
			<path class="st5" d="M233.3,120.3c-0.2,0-0.4-0.1-0.6-0.2c-0.4-0.3-0.4-0.9-0.1-1.3c0.8-0.9,1.5-1.7,2.2-2.6
				c0.3-0.4,0.9-0.5,1.3-0.1c0.4,0.3,0.5,0.9,0.1,1.3c-0.7,0.9-1.4,1.8-2.2,2.7C233.8,120.2,233.6,120.3,233.3,120.3z"/>
		</g>
	</g>
</g>
</svg>
