<!-- Generator: Adobe Illustrator 21.1.0, SVG Export Plug-In  -->
<svg version="1.1"
	 xmlns="http://www.w3.org/2000/svg" xmlns:xlink="http://www.w3.org/1999/xlink" xmlns:a="http://ns.adobe.com/AdobeSVGViewerExtensions/3.0/"
	 x="0px" y="0px" width="899.7px" height="105.9px" viewBox="0 0 899.7 105.9" style="enable-background:new 0 0 899.7 105.9;"
	 xml:space="preserve">
<style type="text/css">
	.st0{fill:#FFFFFF;}
	.st1{fill:#F0ED8E;}
</style>
<defs>
</defs>
<g>
	<g>
		<path class="st0" d="M877.7,42.1c3.6-5.9,0.7-11.8-15.8-4c14-6.1,2.9-10.9-2.1-11.5c0,0-0.1,0-0.1,0c29.4-22.5-50.4-45.3-40.4-2.7
			c-6.2-13-19.3-4.9-18.6,0.2C800,5.2,749,6.7,778.4,35.9c-4.4-4.7-14.9-5.9-11.3,2.2c-4.8-2.3-15.8-6.1-12.5,7.8
			c-7.5-16.2-44.4-0.7-16.8,8.7c-8.2,3.3-0.3,3.6,7.2,4.9c-0.7,8.7,6.4,9.2,14.7,2.1c-3.8,9.4,78.4,16,86.7,4.7
			c3.6,8.1,34,6,30.8,1.3C914.4,65.5,896.9,35.3,877.7,42.1z"/>
		<g>
			<path class="st1" d="M898.4,50.9c3.3,15.1-17.4,18.4-21.4,9.8c-2.5,12.9-27.2,6.8-30.8-1.3c-15.5,20.5-86.9,8.7-86.7-4.7
				c-1.9,9.7-9,8.3-13.5,2.8c-2.1,1.9-13.2,2.8-4.8-4.9c-5.2,2.7-17.2-1.7-11.9-9.5c-5.9,5.5-1.7,10.8,8.4,11.6
				c-10.1,2.8-0.2,7,7.2,4.9c-4,8.2,7.9,11.7,14.7,2.1c-0.5,13.3,78.4,16,86.7,4.7c3.4,10.9,34,6,30.8,1.3
				C893.7,70.9,903.3,60.1,898.4,50.9z"/>
		</g>
	</g>
	<g>
		<path class="st0" d="M163.4,81.9c8.5-1,19.1-14-3.7-12.1c4.7-2.6-0.4-5.6-3.6-3.8c19.8-11.5-6.4-21.4-17.1-16.5
			c1-9.2-12-12.9-22.5-13.9c-10.9-1.1-21.4,0.3-31.1,3.8c-8.8,3.2-19,10.5,4.5,21.1c-17.3-5.5-11.6,5.3-11.7,5.9
			c-25.6-19-44.7-1.8-35.7,4.2c-6.6-3.4-23.8-1-11.6,10.7c-33.4-16.3-33,8.7-28,12.6c9.6,7.5,24,7.2,36.4,4.3
			c24.3,12.2,81.9,3.5,90.5,0.8c0.3,0.1,17.7,7.3,23.3-2.5C187.1,114.6,222.4,83.7,163.4,81.9z"/>
		<path class="st1" d="M153,91.4c-5.1,14.3-23.3,7.4-23.9-2.1c-6.2,11.1-88.2,16.8-89.3-1c-7.5,6.3-38.3,11.9-39.2-4
			c-5,17.9,24.6,19.2,38.6,13.8c22,14.6,85.9,5.5,90.5,0.8c0.3,0.1,21.1,9.5,23.3-2.5c23,12.3,49.4,4.6,41.3-6.1
			C198.2,101.2,171.5,101.3,153,91.4z"/>
	</g>
</g>
</svg>
