<!-- Generator: Adobe Illustrator 21.1.0, SVG Export Plug-In  -->
<svg version="1.1"
	 xmlns="http://www.w3.org/2000/svg" xmlns:xlink="http://www.w3.org/1999/xlink" xmlns:a="http://ns.adobe.com/AdobeSVGViewerExtensions/3.0/"
	 x="0px" y="0px" width="25.2px" height="64.6px" viewBox="0 0 25.2 64.6" style="enable-background:new 0 0 25.2 64.6;"
	 xml:space="preserve">
<style type="text/css">
	.st0{fill:#BE1E2D;}
</style>
<defs>
</defs>
<path class="st0" d="M18.2,50.5c0.3-0.1,0.6-0.2,0.9-0.3c4.2-1.4,5.5-6.6,5.4-10.6c-0.1-3.9-3.9-6.3-7.2-7.1c-0.1,0-0.3-0.1-0.4-0.1
	c-0.3-2.7-0.5-5.5-0.6-8.3c0.1-0.1,0.2-0.1,0.3-0.2c2.5-1.5,4.2-4.2,5.9-6.5c3.3-4.2,3.8-10.8,0.6-15.3c-2.9-4-7-1.6-9.4,1.6
	c-3.4,4.7,0.5,10.7,0.3,15.8c0,0.2,0,0.3,0,0.5c-0.2,0.1-0.3,0.2-0.5,0.3c-4.9,3-8.5,5.7-11.6,10.8c-4.3,7-0.6,15.5,6.4,18.5
	c2.5,1.1,5,1.5,7.6,1.2c0,0.1,0,0.2,0,0.2c-0.1,2-0.4,4.1-0.8,6c-0.2,0.8-0.5,1.6-0.7,2.4c-0.3,1-0.8,1.9-2.8,2.2
	c-0.9-0.2-1.5-0.4-2-0.8c1.1-0.3,2-1.3,2.1-2.7c0.2-2.9-3.2-3.8-5.3-2.8c-3,1.4-1.2,5.3,0.1,7c2.2,3,6.2,2.2,8.7,0.2
	c2.8-2.3,2.7-8.3,3-11.6C18.1,51,18.1,50.7,18.2,50.5z M19,46.4c-0.3,0.3-0.7,0.6-1,0.8c-0.1-1.3-0.3-2.7-0.2-4
	c0.1-2.3-0.2-4.4-0.5-6.7c0.5,0.2,1,0.4,1.6,0.7C21.6,38.9,20.8,44.4,19,46.4z M15.3,12.2c-0.1-0.8-0.1-2.1-0.3-2.8
	c-0.6-1.9,2.8-9.5,5.2-5.4c2.7,4.7-0.2,10.6-4,14.3C16.3,16.2,15.6,14.2,15.3,12.2z M13.3,48.2c-3.7,0-7.3-3.1-9-6.2
	c-2-3.5,0.6-8,2.7-10.6c2.1-2.6,4.4-4.3,7-5.9c0.1,2.3,0.3,4.6,0.5,6.9c-2.4,0.4-4.5,2.3-5.9,4.4c-1.8,2.8,0.1,7.3,2.9,8.6
	c0.8,0.4,1.4-0.9,0.7-1.4c-2.1-1.4-1.8-5.2,0-6.6c0.9-0.7,1.8-1,2.8-1.1c0.1,1,0.3,2,0.5,3c0.4,2.1-0.1,4.4,0,6.6
	c0,0.7,0.1,1.4,0.2,2.1C14.9,48.1,14.1,48.2,13.3,48.2z"/>
</svg>
